<svg xmlns="http://www.w3.org/2000/svg" viewBox="0 0 1400 200"><defs><style>.cls-1{fill:#feb400;}.cls-2{fill:none;stroke:#5f5f60;stroke-miterlimit:10;}.cls-3{fill:#ccc;}</style></defs><title>HOOBS_x_homewizard</title><g id="HOOBS_LOGO" data-name="HOOBS LOGO"><path class="cls-1" d="M152.1,39.5H77.79A22.36,22.36,0,0,0,55.63,61.92v75.16A22.36,22.36,0,0,0,77.79,159.5H152.1a22.36,22.36,0,0,0,22.16-22.42V61.92A22.36,22.36,0,0,0,152.1,39.5Zm3,57.94a3.11,3.11,0,0,1-2.65,2.53,2.6,2.6,0,0,1-3.1-1.4c-1.22-3.28-3.9-5.27-6.23-7.51a8.46,8.46,0,0,1-2.91-7.15c.14-1.83,0-3.69,0-5.53h0c0-2.46,0-4.92,0-7.38,0-2.23-1.38-2.65-3.19-2.61s-3.9-.31-4,2.45c-.1,2.23,0,4.46-.08,6.69,0,.73.37,1.78-.35,2.14s-1.23-.67-1.74-1.16c-4.88-4.62-9.77-9.23-14.57-13.94-1.48-1.45-2.59-1.42-4,0q-15.85,16.1-31.81,32.1c-1.39,1.39-1.57,2.51,0,3.79.35.3.64.66,1,1,2.09,2.07,2.41,2,4.64-.06C93,95,99.53,88.09,106.27,81.43c1.41-1.39,2.91-2.7,4.35-4.06,2.71-2.57,5.82-2.66,8.51-.05,2.91,2.82,5.7,5.76,8.57,8.62,5.31,5.28,10.67,10.51,16,15.81,3.49,3.48,3.44,6.58,0,10.12-5.42,5.51-7.54,5.49-13,0-4.76-4.75-9.64-9.38-14.39-14.14-1.49-1.5-2.61-1.35-4,.1q-7.6,7.8-15.34,15.48c-1.35,1.33-1.35,2.43,0,3.68.5.47,1,.95,1.45,1.47,1.22,1.37,2.35,1.36,3.67,0,2.7-2.7,5.48-5.32,8.23-8s6-2.78,8.74-.2q4.59,4.32,9,8.83a5.89,5.89,0,0,1,0,8.48c-2,2.19-4.18,4.25-6.27,6.38a12.38,12.38,0,0,0-3.29,4.33,2.74,2.74,0,0,1-3.12,1.82,3,3,0,0,1-2.73-2.41,3.1,3.1,0,0,1,1.61-3.71c4.35-2.08,6.84-6.22,10.3-9.28a1.59,1.59,0,0,0,0-2.6c-2.75-2.76-5.49-5.53-8.25-8.28-1.11-1.12-2.13-.82-3.16.2-2.73,2.67-5.51,5.3-8.24,8s-5.82,2.83-8.75.39c-.76-.64-1.45-1.37-2.14-2.08-3.52-3.61-3.54-6.78,0-10.34q7.74-7.83,15.5-15.64c3.3-3.31,6.41-3.34,9.74-.08Q127,102,134.8,109.74c2.23,2.18,2.48,2.15,5.12-.54,2.23-2.28,2.26-2.62.05-4.83-7.74-7.72-15.51-15.4-23.22-23.15-1.31-1.32-2.34-1.41-3.65-.11-3.57,3.56-7.18,7.08-10.77,10.62q-7.11,7-14.23,14a5.85,5.85,0,0,1-8.58.2c-5.65-5.14-7-7.85-.5-14.2,10.21-9.89,20.08-20.14,30.09-30.24,3.58-3.6,6.67-3.61,10.25-.1,2.46,2.4,5,4.74,7.44,7.14,1,1,1.69,1.58,2.23-.45a5.07,5.07,0,0,1,4.41-3.82,22.64,22.64,0,0,1,2.72-.31c6.33-.17,8.55,2,8.57,8.43,0,3.85,0,7.69,0,11.54a4.59,4.59,0,0,0,1.57,3.87c2.46,2.13,4.24,5,7.44,6.32A2.8,2.8,0,0,1,155.13,97.44Z"/><path class="cls-1" d="M276.93,40.9v81.53H258.06V89H221v33.43H202.15V40.9H221V73h37V40.9Zm14.21,40.76c0-24.22,18.87-42.16,44.61-42.16s44.61,17.82,44.61,42.16-19,42.17-44.61,42.17S291.14,105.89,291.14,81.66Zm70.12,0c0-15.49-10.95-26.09-25.51-26.09s-25.51,10.6-25.51,26.09,10.95,26.1,25.51,26.1S361.26,97.15,361.26,81.66Zm28.19,0c0-24.22,18.87-42.16,44.61-42.16s44.61,17.82,44.61,42.16-19,42.17-44.61,42.17S389.45,105.89,389.45,81.66Zm70.12,0c0-15.49-10.95-26.09-25.51-26.09s-25.51,10.6-25.51,26.09,10.95,26.1,25.51,26.1S459.57,97.15,459.57,81.66Zm108.09,18.52c0,14.1-11.18,22.25-32.61,22.25H492.88V40.9h39.84c20.38,0,30.87,8.5,30.87,21.2A19.59,19.59,0,0,1,552.75,80C561.84,82.94,567.66,89.93,567.66,100.18Zm-56-45.07V74.33h18.75c9.2,0,14.21-3.27,14.21-9.67s-5-9.55-14.21-9.55Zm37,43.09c0-6.87-5.24-10.13-15-10.13h-22v20.15h22C543.44,108.22,548.68,105.19,548.68,98.2Zm26.9,16.19L582,100.18a47.94,47.94,0,0,0,26.91,8.51c11.18,0,15.72-3.73,15.72-8.74,0-15.26-47.4-4.77-47.4-35.06,0-13.86,11.18-25.39,34.36-25.39,10.25,0,20.73,2.45,28.3,7.22l-5.82,14.33a46.07,46.07,0,0,0-22.6-6.41C600.28,54.64,596,58.83,596,64c0,15,47.4,4.66,47.4,34.59,0,13.63-11.29,25.28-34.59,25.28C595.85,123.83,582.81,120,575.58,114.39Z"/><path class="cls-1" d="M201.05,137.31h2.7v8.77H215v-8.77h2.72V157H215v-8.45H203.75V157h-2.7Z"/><path class="cls-1" d="M237.12,138.47a9.83,9.83,0,0,1,3.75,3.6,9.61,9.61,0,0,1,1.38,5.05,9.75,9.75,0,0,1-1.38,5.07,9.89,9.89,0,0,1-3.75,3.65,10.87,10.87,0,0,1-10.42,0,10,10,0,0,1-3.75-3.65,9.84,9.84,0,0,1-1.37-5.07,9.69,9.69,0,0,1,1.37-5.05,10,10,0,0,1,3.74-3.6,11,11,0,0,1,10.43,0Zm-9,2.1a7.74,7.74,0,0,0-2.8,2.74,7.5,7.5,0,0,0,0,7.62,7.67,7.67,0,0,0,2.8,2.77,7.33,7.33,0,0,0,3.8,1,7.21,7.21,0,0,0,3.78-1,7.61,7.61,0,0,0,2.75-2.77,7.56,7.56,0,0,0,0-7.62,7.68,7.68,0,0,0-2.75-2.74,7.38,7.38,0,0,0-3.78-1A7.5,7.5,0,0,0,228.14,140.57Z"/><path class="cls-1" d="M246.12,137.31h3.21l7.19,13.82,7.13-13.82h3.23V157h-2.53l0-15.7-7,13.63h-1.66l-7-13.63V157h-2.5Z"/><path class="cls-1" d="M272.5,137.31h13.64v2.45H275.19v6.06H285v2.45h-9.8v6.26h11.29V157h-14Z"/><path class="cls-1" d="M304,138.62a4.27,4.27,0,0,1,1.73,3.61,4.39,4.39,0,0,1-.95,2.85,4.63,4.63,0,0,1-2.62,1.56,5.09,5.09,0,0,1,3.22,1.64,4.87,4.87,0,0,1,1.17,3.33,4.65,4.65,0,0,1-1.9,3.94,8.54,8.54,0,0,1-5.24,1.42h-8.54V137.31h8.4A7.68,7.68,0,0,1,304,138.62Zm-2,6.26a2.6,2.6,0,0,0,1-2.2,2.53,2.53,0,0,0-1-2.16,4.41,4.41,0,0,0-2.82-.73h-5.56v5.87h5.56A4.47,4.47,0,0,0,301.91,144.88Zm.61,8.79a2.76,2.76,0,0,0,1.23-2.4,2.67,2.67,0,0,0-1.23-2.33,6.06,6.06,0,0,0-3.43-.84h-5.56v6.4h5.56A5.83,5.83,0,0,0,302.52,153.67Z"/><path class="cls-1" d="M323.52,157l-3.9-6.17c-.45,0-.81,0-1.1,0h-5V157h-2.7V137.31h7.69A8.71,8.71,0,0,1,324.3,139a6.1,6.1,0,0,1,2,4.9,7,7,0,0,1-1.11,4,6.27,6.27,0,0,1-3.18,2.36l4.57,6.65Zm-5-8.56a6,6,0,0,0,3.88-1.11,4,4,0,0,0,1.35-3.27,3.84,3.84,0,0,0-1.35-3.19,6.08,6.08,0,0,0-3.88-1.08h-5v8.65Z"/><path class="cls-1" d="M331.13,137.31h2.7V157h-2.7Z"/><path class="cls-1" d="M352.63,138.59a9.36,9.36,0,0,1,3.64,3.53,10.19,10.19,0,0,1,0,10,9.51,9.51,0,0,1-3.67,3.53,10.67,10.67,0,0,1-5.22,1.27h-7.92V137.31h8A10.55,10.55,0,0,1,352.63,138.59Zm-1.4,15a7,7,0,0,0,2.64-2.64,7.34,7.34,0,0,0,1-3.76,7.43,7.43,0,0,0-1-3.79,7.13,7.13,0,0,0-2.69-2.65,7.43,7.43,0,0,0-3.77-1h-5.26v14.77h5.37A7.34,7.34,0,0,0,351.23,153.57Z"/><path class="cls-1" d="M374.41,147.37h2.39v7.22a12.08,12.08,0,0,1-3.48,1.88,11.82,11.82,0,0,1-4,.7,10.37,10.37,0,0,1-5.2-1.33,10,10,0,0,1-3.72-3.65,9.83,9.83,0,0,1-1.36-5.07,9.69,9.69,0,0,1,1.37-5.05,10,10,0,0,1,3.77-3.6,10.72,10.72,0,0,1,5.28-1.32,11.27,11.27,0,0,1,4,.73,10.6,10.6,0,0,1,3.38,2l-1.54,2a8.73,8.73,0,0,0-5.84-2.31,7.72,7.72,0,0,0-3.88,1,7.54,7.54,0,0,0-2.79,2.76,7.32,7.32,0,0,0-1,3.82,7.42,7.42,0,0,0,1,3.83,7.7,7.7,0,0,0,6.69,3.8,8.27,8.27,0,0,0,2.51-.4,9.26,9.26,0,0,0,2.37-1.14Z"/><path class="cls-1" d="M381.91,137.31h13.65v2.45H384.61v6.06h9.8v2.45h-9.8v6.26H395.9V157h-14Z"/><path class="cls-1" d="M421.41,138.47a10,10,0,0,1,3.75,3.6,9.61,9.61,0,0,1,1.38,5.05,9.75,9.75,0,0,1-1.38,5.07,10,10,0,0,1-3.75,3.65,10.87,10.87,0,0,1-10.42,0,10,10,0,0,1-3.75-3.65,9.75,9.75,0,0,1-1.37-5.07,9.6,9.6,0,0,1,1.37-5.05,10,10,0,0,1,3.74-3.6,11,11,0,0,1,10.43,0Zm-9,2.1a7.71,7.71,0,0,0-2.79,2.74,7.5,7.5,0,0,0,0,7.62,7.64,7.64,0,0,0,2.79,2.77,7.36,7.36,0,0,0,3.81,1,7.21,7.21,0,0,0,3.78-1,7.61,7.61,0,0,0,2.75-2.77,7.63,7.63,0,0,0,0-7.62,7.68,7.68,0,0,0-2.75-2.74,7.38,7.38,0,0,0-3.78-1A7.54,7.54,0,0,0,412.42,140.57Z"/><path class="cls-1" d="M434.19,153.2a5.53,5.53,0,0,0,4.14,1.53,5.45,5.45,0,0,0,4.1-1.53,5.86,5.86,0,0,0,1.49-4.26V137.31h2.7v11.63a8.13,8.13,0,0,1-2.21,6,8.24,8.24,0,0,1-6.08,2.19,8.34,8.34,0,0,1-6.12-2.19,8.09,8.09,0,0,1-2.22-6V137.31h2.7v11.63A5.83,5.83,0,0,0,434.19,153.2Z"/><path class="cls-1" d="M449.29,137.31h15.36v2.48H458.3V157h-2.7V139.79h-6.31Z"/><path class="cls-1" d="M488.9,138.47a10,10,0,0,1,3.75,3.6,9.69,9.69,0,0,1,1.37,5.05,9.84,9.84,0,0,1-1.37,5.07,10,10,0,0,1-3.75,3.65,10.87,10.87,0,0,1-10.42,0,10,10,0,0,1-3.75-3.65,9.75,9.75,0,0,1-1.38-5.07,9.61,9.61,0,0,1,1.38-5.05,10,10,0,0,1,3.73-3.6,11,11,0,0,1,10.44,0Zm-9,2.1a7.71,7.71,0,0,0-2.79,2.74,7.5,7.5,0,0,0,0,7.62,7.64,7.64,0,0,0,2.79,2.77,7.36,7.36,0,0,0,3.81,1,7.2,7.2,0,0,0,3.77-1,7.64,7.64,0,0,0,2.76-2.77,7.63,7.63,0,0,0,0-7.62,7.71,7.71,0,0,0-2.76-2.74,7.37,7.37,0,0,0-3.77-1A7.54,7.54,0,0,0,479.91,140.57Z"/><path class="cls-1" d="M497.9,137.31h12.8l0,2.45H500.59v6.46h9.08v2.44h-9.08V157H497.9Z"/><path class="cls-1" d="M518.68,137.31H534v2.48H527.7V157H525V139.79h-6.32Z"/><path class="cls-1" d="M537.13,137.31h2.7v8.77h11.23v-8.77h2.72V157h-2.72v-8.45H539.83V157h-2.7Z"/><path class="cls-1" d="M559.4,137.31h13.65v2.45H562.1v6.06h9.8v2.45h-9.8v6.26h11.29V157h-14Z"/><path class="cls-1" d="M598.23,138.62a4.27,4.27,0,0,1,1.73,3.61,4.35,4.35,0,0,1-1,2.85,4.64,4.64,0,0,1-2.61,1.56,5,5,0,0,1,3.21,1.64,4.87,4.87,0,0,1,1.17,3.33,4.63,4.63,0,0,1-1.9,3.94,8.53,8.53,0,0,1-5.23,1.42H585.1V137.31h8.4A7.68,7.68,0,0,1,598.23,138.62Zm-2.05,6.26a2.63,2.63,0,0,0,1-2.2,2.55,2.55,0,0,0-1-2.16,4.44,4.44,0,0,0-2.82-.73H587.8v5.87h5.56A4.5,4.5,0,0,0,596.18,144.88Zm.6,8.79a2.74,2.74,0,0,0,1.24-2.4,2.66,2.66,0,0,0-1.24-2.33,6,6,0,0,0-3.42-.84H587.8v6.4h5.56A5.78,5.78,0,0,0,596.78,153.67Z"/><path class="cls-1" d="M618.9,138.47a10,10,0,0,1,3.75,3.6,9.69,9.69,0,0,1,1.37,5.05,9.84,9.84,0,0,1-1.37,5.07,10,10,0,0,1-3.75,3.65,10.87,10.87,0,0,1-10.42,0,10,10,0,0,1-3.75-3.65,9.75,9.75,0,0,1-1.38-5.07,9.61,9.61,0,0,1,1.38-5.05,10,10,0,0,1,3.74-3.6,11,11,0,0,1,10.43,0Zm-9,2.1a7.71,7.71,0,0,0-2.79,2.74,7.5,7.5,0,0,0,0,7.62,7.64,7.64,0,0,0,2.79,2.77,7.36,7.36,0,0,0,3.81,1,7.2,7.2,0,0,0,3.77-1,7.64,7.64,0,0,0,2.76-2.77,7.63,7.63,0,0,0,0-7.62,7.71,7.71,0,0,0-2.76-2.74,7.37,7.37,0,0,0-3.77-1A7.54,7.54,0,0,0,609.91,140.57Z"/><path class="cls-1" d="M626.13,137.31h3.15l5.16,7.34,5.2-7.34h3.17l-6.65,9.44L643.37,157h-3.23l-5.7-7.95L628.8,157h-3.18l7.19-10.11Z"/></g><g id="Stroke"><line class="cls-2" x1="700.5" y1="60" x2="700.5" y2="140"/></g><g id="homewizard"><path class="cls-3" d="M897.47,92c-4.6-2.81-9.2-5.6-13.79-8.42Q857.87,67.77,832.07,51.9a1.47,1.47,0,0,0-2,.12q-29,21-58,42c-.31.22-.69.37-.82.7,4,0,7.94,0,11.91,0,1.92,0,1.92-.08,1.92,1.89v9.35c.63.09.76-.38,1-.63a6.91,6.91,0,0,1,11.51,3,18,18,0,0,1,.53,5.22c.05,3.11.09,6.23.19,9.34,0,.78-.16,1.1-1,1.07-1.4-.06-2.81,0-4.22,0-.8,0-1.14-.12-1.13-1,0-3.38-.1-6.76-.17-10.13a8,8,0,0,0-.18-1.7,2.88,2.88,0,0,0-3.13-2.58,3.11,3.11,0,0,0-3.12,2.84c-.15,1.87,0,3.76,0,5.65,0,2.06,0,4.13.08,6.19,0,.67-.17.93-.88.92-1.49,0-3,0-4.48.06-.87,0-1-.31-1-1.07-.06-6.84-.16-13.69-.24-20.54,0-2.49,0-2.48-2.51-2.46l-19.36.17a2.82,2.82,0,0,1-1.46-.27l3.67-2.67q35.32-25.53,70.62-51.1a1.56,1.56,0,0,1,2.15,0c7.54,5.23,15.11,10.4,22.68,15.59.31.21.64.41,1.16.74,0-2,.05-3.72,0-5.49,0-.89.26-1.11,1.1-1.11q6.2,0,12.39-.15c1,0,1,.48,1,1.21.05,4.88.15,9.75.17,14.62a1.83,1.83,0,0,0,.94,1.69q11.7,8,23.35,16c1.11.76,2.16,1.59,3.24,2.39C898,92.19,897.78,92.19,897.47,92Z"/><path class="cls-3" d="M758.54,164.45a195.64,195.64,0,0,1,20.37-5.24,277.59,277.59,0,0,1,60.31-5.77,264.81,264.81,0,0,1,67.65,9.2c.29.08.58.18.87.28,0,.51-.31.34-.58.29-5.09-.66-10.17-1.34-15.27-2-8.71-1.07-17.46-1.77-26.22-2.27-10.08-.57-20.17-.87-30.26-.77A481.81,481.81,0,0,0,787.07,161q-13.55,1.48-27,3.76c-.51.09-1,.4-1.53.25A.39.39,0,0,1,758.54,164.45Z"/><path class="cls-3" d="M832.46,105.71c3.78-4.57,9.91-3.51,11.64.19.42-.11.58-.51.84-.79a7.34,7.34,0,0,1,7.89-2.24c3,.9,4.21,3.36,4.53,6.21.51,4.45.22,8.94.34,13.41,0,.68-.36.68-.83.68-1.4,0-2.81,0-4.21.06-.86,0-1.11-.23-1.11-1.1,0-3.29-.09-6.58-.15-9.87a11.72,11.72,0,0,0-.11-1.57c-.32-2-1.38-3-2.92-3a3.09,3.09,0,0,0-3,3.11c-.13,1.7,0,3.42,0,5.13,0,2.14,0,4.29.12,6.44,0,.76-.25,1-1,1-1.45,0-2.9,0-4.34.06-.74,0-.87-.29-.87-.93,0-3.33-.08-6.67-.11-10a8.45,8.45,0,0,0-.34-2.6,2.68,2.68,0,0,0-2.22-2,2.87,2.87,0,0,0-2.82,1.33,4.64,4.64,0,0,0-.7,2.89c.06,3.38,0,6.76.15,10.13,0,1-.25,1.35-1.23,1.32-1.32,0-2.64,0-3.95,0-.71,0-1-.14-1-.93q-.12-9.28-.35-18.55c0-.7.24-.82.82-.79s1.06,0,1.58,0a7.07,7.07,0,0,1,2.61.08C832.62,103.77,832,105,832.46,105.71Z"/><path class="cls-3" d="M797.3,140.76c1.2-4.53,2.43-9.06,3.56-13.61.26-1,.61-1.42,1.74-1.37,2.28.11,2.27,0,1.65,2.29l-6.72,24.46c-.13.49-.29,1-.44,1.45l-.37,0c-2.11-7.88-4.22-15.75-6.42-23.94-.73,3.14-1.55,6-2.48,8.73-.7,2.08-1.41,4.15-2,6.26a1.27,1.27,0,0,1-1.49,1c-2.21,0-2.21,0-2.89-2.13-1.74-5.52-3.46-11-5.24-16.54-.3-.93-.33-1.3.85-1.28,2.51,0,2.52,0,3.21,2.43,1.2,4.26,2.45,8.51,3.42,12.83.06.28.19.56.33,1,1.31-5.26,3-10.23,4.45-15.29.35-1.23,1.09-1.12,2-1.12s1.56-.09,1.92,1.14c1.39,4.75,2.95,9.45,4.45,14.16a.54.54,0,0,1,.15.6C797.12,141.52,797.1,141.11,797.3,140.76Z"/><path class="cls-3" d="M820.84,142.56c3.28,0,6.47,0,9.65,0,1.7,0,2.38.9,1.86,2.55-.13.44-.43.36-.72.37l-14.6.19c-.33,0-.81.14-.88-.34a2.86,2.86,0,0,1,.35-2.37c1.89-2.47,3.72-5,5.58-7.49,1.71-2.32,3.42-4.63,5.39-6.9h-8.66c-.13,0-.27,0-.39,0-.55-.07-1.39.29-1.57-.22a6.77,6.77,0,0,1-.13-2.47c0-.31.41-.24.66-.25,4.56-.07,9.12-.15,13.68-.2.8,0,1.22,1.42.74,2.47a3.29,3.29,0,0,1-.38.54Z"/><path class="cls-3" d="M859,128.9c.31-.58.48-.92.67-1.25a5.82,5.82,0,0,1,3.11-2.69c.87-.32,2-.74,2.6-.11s.18,1.92.19,2.92c0,.48-.44.35-.7.32-3.23-.27-5.34,2.56-5.36,5.56,0,3.37,0,6.75.11,10.12,0,1-.18,1.46-1.33,1.41-2.41-.09-2.39,0-2.42-2.48-.06-5.44,0-10.88-.3-16.31-.06-1,.12-1.38,1.13-1.26a4.74,4.74,0,0,0,1.19,0c.71-.09.89.24.9.9C858.8,126.88,858.91,127.75,859,128.9Z"/><path class="cls-3" d="M808.46,135.49c0-2.94,0-5.88,0-8.81,0-.78.2-1,.94-1,2.78,0,2.76-.07,2.79,2.65.06,5.39.13,10.79.25,16.18,0,.91-.21,1.19-1.14,1.21-2.59.05-2.59.09-2.59-2.51v-7.76Z"/><path class="cls-3" d="M810.75,147a2.44,2.44,0,0,1,2.42,2.56,2.53,2.53,0,1,1-5-.09A2.45,2.45,0,0,1,810.75,147Z"/><path class="cls-3" d="M897.47,92c.2,0,.42-.05.53-.26a7.33,7.33,0,0,1,2.93,2,.27.27,0,0,1,0,.39Z"/><path class="cls-3" d="M900.88,94.18l0-.39c.66,0,1.07.5,1.55.86,0,.24,0,.4-.3.27Z"/><path class="cls-3" d="M758.54,164.45l0,.55c-.55,0-1.35.73-1.54,0C756.89,164.57,758,164.73,758.54,164.45Z"/><path class="cls-3" d="M907.16,163.21l.58-.29,1.31.29c0,.5-.32.3-.57.27A2.42,2.42,0,0,1,907.16,163.21Z"/><path class="cls-3" d="M907.52,98.31l-1.08-.68C907,97.48,907.35,97.77,907.52,98.31Z"/><path class="cls-3" d="M797.3,140.76c0,.22,0,.43,0,.65s0,.55-.27.51-.24-.39-.22-.64Z"/><path class="cls-3" d="M755.42,165.3a1.14,1.14,0,0,1,.25-.06c.29,0,.73-.51.82.06,0,.35-.52.18-.81.27S755.36,165.54,755.42,165.3Z"/><path class="cls-3" d="M755.42,165.3l.26.27c-.41.34-.88.26-1.62.13Z"/><path class="cls-3" d="M903.06,95.07c.29.15.67.19.76.58a.28.28,0,0,1-.11.2.79.79,0,0,1-.69-.48c-.07-.08-.09-.15,0-.21S903,95.07,903.06,95.07Z"/><path class="cls-3" d="M908.48,163.48l.57-.27.81.23c.09.05.12.11.1.17s-.06.1-.09.1A2.38,2.38,0,0,1,908.48,163.48Z"/><path class="cls-3" d="M909.87,163.71v-.27c.34,0,.67,0,.86.36C910.41,164,910.14,163.81,909.87,163.71Z"/><path class="cls-3" d="M904,95.75c.4.17.66.28.77.69A.75.75,0,0,1,904,95.75Z"/><path class="cls-3" d="M903.06,95.07l0,.3a1.05,1.05,0,0,1-.84-.45l.3-.27A.86.86,0,0,1,903.06,95.07Z"/><path class="cls-3" d="M894.23,96.59a83.63,83.63,0,0,0-11.81,30.6c-4.11-4.51-10.31-2.78-12.84.69a13.05,13.05,0,0,0-.3,13.81c3.56,5.31,11.07,4.38,13.25.29.31-.59.55-.51.91,0,1.07,1.46,2.18,2.9,3.27,4.35C884.75,129,889.26,112.76,894.23,96.59Zm-11.77,40.8a5.58,5.58,0,0,1-4.32,4.88,5.27,5.27,0,0,1-5.87-2.77,9.48,9.48,0,0,1,.35-9.76,5.19,5.19,0,0,1,5.86-2.2,5.32,5.32,0,0,1,3.94,4.73c.08.82,0,1.66,0,2.49h0C882.47,135.64,882.54,136.52,882.46,137.39Z"/><path class="cls-3" d="M812.77,103c-6.66.07-10.8,4.3-10.73,11,.07,6.21,4.31,10.21,10.78,10.16,6.2-.06,10.43-4.49,10.35-10.85C823.08,107.13,818.89,103,812.77,103Zm3,14.67a3.39,3.39,0,0,1-6.07.21,8.27,8.27,0,0,1-.1-8.52,3.4,3.4,0,0,1,6.08.07,9,9,0,0,1,1,4.31A8.11,8.11,0,0,1,815.76,117.7Z"/><path class="cls-3" d="M879.54,107.28a7.79,7.79,0,0,0-5.49-4.7,9.92,9.92,0,0,0-12.34,7.4c-1.59,6.13,1.25,11.57,6.81,13a13.43,13.43,0,0,0,3.79.39,20.54,20.54,0,0,0,4.82-.55c2.51-.56,2.51-.57,2-3a9.48,9.48,0,0,1-.19-1c-.08-.78-.33-1-1.18-.74a14,14,0,0,1-5.72.6,5,5,0,0,1-4.14-2.19c-.74-1.2-.58-1.47.8-1.49,3.55-.05,7.11-.13,10.66-.13.95,0,1.18-.39,1.22-1.22A13.7,13.7,0,0,0,879.54,107.28Zm-5.73,3.24c-1,0-1.93,0-2.89,0v.13c-1,0-1.93,0-2.89,0-.41,0-.65-.06-.64-.57a4,4,0,0,1,3.66-3.56,3.45,3.45,0,0,1,3.55,3.19C874.67,110.4,874.42,110.55,873.81,110.52Z"/><path class="cls-3" d="M850.29,144.35a62.54,62.54,0,0,1-.28-6.57,52.18,52.18,0,0,0-.24-7,6.45,6.45,0,0,0-5.85-5.83,13.49,13.49,0,0,0-6.59.87c-1.82.72-1.78.73-1.14,2.54.27.77.54.65,1.09.36a9.49,9.49,0,0,1,5-1.12,3.79,3.79,0,0,1,3.84,2.81c.55,1.89.44,2-1.51,2.15-2.74.18-5.42.64-7.69,2.34a6.28,6.28,0,0,0-2.13,7.08,5.69,5.69,0,0,0,5.73,3.78,7.78,7.78,0,0,0,6.23-2.94c.52,2.56.52,2.52,3,2.4C850.45,145.22,850.36,144.85,850.29,144.35ZM842.34,143a3.35,3.35,0,0,1-4-1.8,3.8,3.8,0,0,1,1.21-4.6c1.89-1.32,4.1-1.41,6.3-1.49.52,0,.54.33.53.7V137C846.63,140.48,845.2,142.43,842.34,143Z"/></g></svg>