<svg xmlns="http://www.w3.org/2000/svg" viewBox="0 0 1400 200"><defs><style>.cls-1{fill:#feb400;}.cls-2{fill:none;stroke:#5f5f60;stroke-miterlimit:10;}.cls-3{fill:#e0c398;}</style></defs><title>HOOBS_x_twinkly</title><g id="HOOBS_LOGO" data-name="HOOBS LOGO"><path class="cls-1" d="M152.1,39.5H77.79A22.36,22.36,0,0,0,55.63,61.92v75.16A22.36,22.36,0,0,0,77.79,159.5H152.1a22.36,22.36,0,0,0,22.16-22.42V61.92A22.36,22.36,0,0,0,152.1,39.5Zm3,57.94a3.11,3.11,0,0,1-2.65,2.53,2.6,2.6,0,0,1-3.1-1.4c-1.22-3.28-3.9-5.27-6.23-7.51a8.46,8.46,0,0,1-2.91-7.15c.14-1.83,0-3.69,0-5.53h0c0-2.46,0-4.92,0-7.38,0-2.23-1.38-2.65-3.19-2.61s-3.9-.31-4,2.45c-.1,2.23,0,4.46-.08,6.69,0,.73.37,1.78-.35,2.14s-1.23-.67-1.74-1.16c-4.88-4.62-9.77-9.23-14.57-13.94-1.48-1.45-2.59-1.42-4,0q-15.85,16.1-31.81,32.1c-1.39,1.39-1.57,2.51,0,3.79.35.3.64.66,1,1,2.09,2.07,2.41,2,4.64-.06C93,95,99.53,88.09,106.27,81.43c1.41-1.39,2.91-2.7,4.35-4.06,2.71-2.57,5.82-2.66,8.51-.05,2.91,2.82,5.7,5.76,8.57,8.62,5.31,5.28,10.67,10.51,16,15.81,3.49,3.48,3.44,6.58,0,10.12-5.42,5.51-7.54,5.49-13,0-4.76-4.75-9.64-9.38-14.39-14.14-1.49-1.5-2.61-1.35-4,.1q-7.6,7.8-15.34,15.48c-1.35,1.33-1.35,2.43,0,3.68.5.47,1,.95,1.45,1.47,1.22,1.37,2.35,1.36,3.67,0,2.7-2.7,5.48-5.32,8.23-8s6-2.78,8.74-.2q4.59,4.32,9,8.83a5.89,5.89,0,0,1,0,8.48c-2,2.19-4.18,4.25-6.27,6.38a12.38,12.38,0,0,0-3.29,4.33,2.74,2.74,0,0,1-3.12,1.82,3,3,0,0,1-2.73-2.41,3.1,3.1,0,0,1,1.61-3.71c4.35-2.08,6.84-6.22,10.3-9.28a1.59,1.59,0,0,0,0-2.6c-2.75-2.76-5.49-5.53-8.25-8.28-1.11-1.12-2.13-.82-3.16.2-2.73,2.67-5.51,5.3-8.24,8s-5.82,2.83-8.75.39c-.76-.64-1.45-1.37-2.14-2.08-3.52-3.61-3.54-6.78,0-10.34q7.74-7.83,15.5-15.64c3.3-3.31,6.41-3.34,9.74-.08Q127,102,134.8,109.74c2.23,2.18,2.48,2.15,5.12-.54,2.23-2.28,2.26-2.62.05-4.83-7.74-7.72-15.51-15.4-23.22-23.15-1.31-1.32-2.34-1.41-3.65-.11-3.57,3.56-7.18,7.08-10.77,10.62q-7.11,7-14.23,14a5.85,5.85,0,0,1-8.58.2c-5.65-5.14-7-7.85-.5-14.2,10.21-9.89,20.08-20.14,30.09-30.24,3.58-3.6,6.67-3.61,10.25-.1,2.46,2.4,5,4.74,7.44,7.14,1,1,1.69,1.58,2.23-.45a5.07,5.07,0,0,1,4.41-3.82,22.64,22.64,0,0,1,2.72-.31c6.33-.17,8.55,2,8.57,8.43,0,3.85,0,7.69,0,11.54a4.59,4.59,0,0,0,1.57,3.87c2.46,2.13,4.24,5,7.44,6.32A2.8,2.8,0,0,1,155.13,97.44Z"/><path class="cls-1" d="M276.93,40.9v81.53H258.06V89H221v33.43H202.15V40.9H221V73h37V40.9Zm14.21,40.76c0-24.22,18.87-42.16,44.61-42.16s44.61,17.82,44.61,42.16-19,42.17-44.61,42.17S291.14,105.89,291.14,81.66Zm70.12,0c0-15.49-10.95-26.09-25.51-26.09s-25.51,10.6-25.51,26.09,10.95,26.1,25.51,26.1S361.26,97.15,361.26,81.66Zm28.19,0c0-24.22,18.87-42.16,44.61-42.16s44.61,17.82,44.61,42.16-19,42.17-44.61,42.17S389.45,105.89,389.45,81.66Zm70.12,0c0-15.49-10.95-26.09-25.51-26.09s-25.51,10.6-25.51,26.09,10.95,26.1,25.51,26.1S459.57,97.15,459.57,81.66Zm108.09,18.52c0,14.1-11.18,22.25-32.61,22.25H492.88V40.9h39.84c20.38,0,30.87,8.5,30.87,21.2A19.59,19.59,0,0,1,552.75,80C561.84,82.94,567.66,89.93,567.66,100.18Zm-56-45.07V74.33h18.75c9.2,0,14.21-3.27,14.21-9.67s-5-9.55-14.21-9.55Zm37,43.09c0-6.87-5.24-10.13-15-10.13h-22v20.15h22C543.44,108.22,548.68,105.19,548.68,98.2Zm26.9,16.19L582,100.18a47.94,47.94,0,0,0,26.91,8.51c11.18,0,15.72-3.73,15.72-8.74,0-15.26-47.4-4.77-47.4-35.06,0-13.86,11.18-25.39,34.36-25.39,10.25,0,20.73,2.45,28.3,7.22l-5.82,14.33a46.07,46.07,0,0,0-22.6-6.41C600.28,54.64,596,58.83,596,64c0,15,47.4,4.66,47.4,34.59,0,13.63-11.29,25.28-34.59,25.28C595.85,123.83,582.81,120,575.58,114.39Z"/><path class="cls-1" d="M201.05,137.31h2.7v8.77H215v-8.77h2.72V157H215v-8.45H203.75V157h-2.7Z"/><path class="cls-1" d="M237.12,138.47a9.83,9.83,0,0,1,3.75,3.6,9.61,9.61,0,0,1,1.38,5.05,9.75,9.75,0,0,1-1.38,5.07,9.89,9.89,0,0,1-3.75,3.65,10.87,10.87,0,0,1-10.42,0,10,10,0,0,1-3.75-3.65,9.84,9.84,0,0,1-1.37-5.07,9.69,9.69,0,0,1,1.37-5.05,10,10,0,0,1,3.74-3.6,11,11,0,0,1,10.43,0Zm-9,2.1a7.74,7.74,0,0,0-2.8,2.74,7.5,7.5,0,0,0,0,7.62,7.67,7.67,0,0,0,2.8,2.77,7.33,7.33,0,0,0,3.8,1,7.21,7.21,0,0,0,3.78-1,7.61,7.61,0,0,0,2.75-2.77,7.56,7.56,0,0,0,0-7.62,7.68,7.68,0,0,0-2.75-2.74,7.38,7.38,0,0,0-3.78-1A7.5,7.5,0,0,0,228.14,140.57Z"/><path class="cls-1" d="M246.12,137.31h3.21l7.19,13.82,7.13-13.82h3.23V157h-2.53l0-15.7-7,13.63h-1.66l-7-13.63V157h-2.5Z"/><path class="cls-1" d="M272.5,137.31h13.64v2.45H275.19v6.06H285v2.45h-9.8v6.26h11.29V157h-14Z"/><path class="cls-1" d="M304,138.62a4.27,4.27,0,0,1,1.73,3.61,4.39,4.39,0,0,1-.95,2.85,4.63,4.63,0,0,1-2.62,1.56,5.09,5.09,0,0,1,3.22,1.64,4.87,4.87,0,0,1,1.17,3.33,4.65,4.65,0,0,1-1.9,3.94,8.54,8.54,0,0,1-5.24,1.42h-8.54V137.31h8.4A7.68,7.68,0,0,1,304,138.62Zm-2,6.26a2.6,2.6,0,0,0,1-2.2,2.53,2.53,0,0,0-1-2.16,4.41,4.41,0,0,0-2.82-.73h-5.56v5.87h5.56A4.47,4.47,0,0,0,301.91,144.88Zm.61,8.79a2.76,2.76,0,0,0,1.23-2.4,2.67,2.67,0,0,0-1.23-2.33,6.06,6.06,0,0,0-3.43-.84h-5.56v6.4h5.56A5.83,5.83,0,0,0,302.52,153.67Z"/><path class="cls-1" d="M323.52,157l-3.9-6.17c-.45,0-.81,0-1.1,0h-5V157h-2.7V137.31h7.69A8.71,8.71,0,0,1,324.3,139a6.1,6.1,0,0,1,2,4.9,7,7,0,0,1-1.11,4,6.27,6.27,0,0,1-3.18,2.36l4.57,6.65Zm-5-8.56a6,6,0,0,0,3.88-1.11,4,4,0,0,0,1.35-3.27,3.84,3.84,0,0,0-1.35-3.19,6.08,6.08,0,0,0-3.88-1.08h-5v8.65Z"/><path class="cls-1" d="M331.13,137.31h2.7V157h-2.7Z"/><path class="cls-1" d="M352.63,138.59a9.36,9.36,0,0,1,3.64,3.53,10.19,10.19,0,0,1,0,10,9.51,9.51,0,0,1-3.67,3.53,10.67,10.67,0,0,1-5.22,1.27h-7.92V137.31h8A10.55,10.55,0,0,1,352.63,138.59Zm-1.4,15a7,7,0,0,0,2.64-2.64,7.34,7.34,0,0,0,1-3.76,7.43,7.43,0,0,0-1-3.79,7.13,7.13,0,0,0-2.69-2.65,7.43,7.43,0,0,0-3.77-1h-5.26v14.77h5.37A7.34,7.34,0,0,0,351.23,153.57Z"/><path class="cls-1" d="M374.41,147.37h2.39v7.22a12.08,12.08,0,0,1-3.48,1.88,11.82,11.82,0,0,1-4,.7,10.37,10.37,0,0,1-5.2-1.33,10,10,0,0,1-3.72-3.65,9.83,9.83,0,0,1-1.36-5.07,9.69,9.69,0,0,1,1.37-5.05,10,10,0,0,1,3.77-3.6,10.72,10.72,0,0,1,5.28-1.32,11.27,11.27,0,0,1,4,.73,10.6,10.6,0,0,1,3.38,2l-1.54,2a8.73,8.73,0,0,0-5.84-2.31,7.72,7.72,0,0,0-3.88,1,7.54,7.54,0,0,0-2.79,2.76,7.32,7.32,0,0,0-1,3.82,7.42,7.42,0,0,0,1,3.83,7.7,7.7,0,0,0,6.69,3.8,8.27,8.27,0,0,0,2.51-.4,9.26,9.26,0,0,0,2.37-1.14Z"/><path class="cls-1" d="M381.91,137.31h13.65v2.45H384.61v6.06h9.8v2.45h-9.8v6.26H395.9V157h-14Z"/><path class="cls-1" d="M421.41,138.47a10,10,0,0,1,3.75,3.6,9.61,9.61,0,0,1,1.38,5.05,9.75,9.75,0,0,1-1.38,5.07,10,10,0,0,1-3.75,3.65,10.87,10.87,0,0,1-10.42,0,10,10,0,0,1-3.75-3.65,9.75,9.75,0,0,1-1.37-5.07,9.6,9.6,0,0,1,1.37-5.05,10,10,0,0,1,3.74-3.6,11,11,0,0,1,10.43,0Zm-9,2.1a7.71,7.71,0,0,0-2.79,2.74,7.5,7.5,0,0,0,0,7.62,7.64,7.64,0,0,0,2.79,2.77,7.36,7.36,0,0,0,3.81,1,7.21,7.21,0,0,0,3.78-1,7.61,7.61,0,0,0,2.75-2.77,7.63,7.63,0,0,0,0-7.62,7.68,7.68,0,0,0-2.75-2.74,7.38,7.38,0,0,0-3.78-1A7.54,7.54,0,0,0,412.42,140.57Z"/><path class="cls-1" d="M434.19,153.2a5.53,5.53,0,0,0,4.14,1.53,5.45,5.45,0,0,0,4.1-1.53,5.86,5.86,0,0,0,1.49-4.26V137.31h2.7v11.63a8.13,8.13,0,0,1-2.21,6,8.24,8.24,0,0,1-6.08,2.19,8.34,8.34,0,0,1-6.12-2.19,8.09,8.09,0,0,1-2.22-6V137.31h2.7v11.63A5.83,5.83,0,0,0,434.19,153.2Z"/><path class="cls-1" d="M449.29,137.31h15.36v2.48H458.3V157h-2.7V139.79h-6.31Z"/><path class="cls-1" d="M488.9,138.47a10,10,0,0,1,3.75,3.6,9.69,9.69,0,0,1,1.37,5.05,9.84,9.84,0,0,1-1.37,5.07,10,10,0,0,1-3.75,3.65,10.87,10.87,0,0,1-10.42,0,10,10,0,0,1-3.75-3.65,9.75,9.75,0,0,1-1.38-5.07,9.61,9.61,0,0,1,1.38-5.05,10,10,0,0,1,3.73-3.6,11,11,0,0,1,10.44,0Zm-9,2.1a7.71,7.71,0,0,0-2.79,2.74,7.5,7.5,0,0,0,0,7.62,7.64,7.64,0,0,0,2.79,2.77,7.36,7.36,0,0,0,3.81,1,7.2,7.2,0,0,0,3.77-1,7.64,7.64,0,0,0,2.76-2.77,7.63,7.63,0,0,0,0-7.62,7.71,7.71,0,0,0-2.76-2.74,7.37,7.37,0,0,0-3.77-1A7.54,7.54,0,0,0,479.91,140.57Z"/><path class="cls-1" d="M497.9,137.31h12.8l0,2.45H500.59v6.46h9.08v2.44h-9.08V157H497.9Z"/><path class="cls-1" d="M518.68,137.31H534v2.48H527.7V157H525V139.79h-6.32Z"/><path class="cls-1" d="M537.13,137.31h2.7v8.77h11.23v-8.77h2.72V157h-2.72v-8.45H539.83V157h-2.7Z"/><path class="cls-1" d="M559.4,137.31h13.65v2.45H562.1v6.06h9.8v2.45h-9.8v6.26h11.29V157h-14Z"/><path class="cls-1" d="M598.23,138.62a4.27,4.27,0,0,1,1.73,3.61,4.35,4.35,0,0,1-1,2.85,4.64,4.64,0,0,1-2.61,1.56,5,5,0,0,1,3.21,1.64,4.87,4.87,0,0,1,1.17,3.33,4.63,4.63,0,0,1-1.9,3.94,8.53,8.53,0,0,1-5.23,1.42H585.1V137.31h8.4A7.68,7.68,0,0,1,598.23,138.62Zm-2.05,6.26a2.63,2.63,0,0,0,1-2.2,2.55,2.55,0,0,0-1-2.16,4.44,4.44,0,0,0-2.82-.73H587.8v5.87h5.56A4.5,4.5,0,0,0,596.18,144.88Zm.6,8.79a2.74,2.74,0,0,0,1.24-2.4,2.66,2.66,0,0,0-1.24-2.33,6,6,0,0,0-3.42-.84H587.8v6.4h5.56A5.78,5.78,0,0,0,596.78,153.67Z"/><path class="cls-1" d="M618.9,138.47a10,10,0,0,1,3.75,3.6,9.69,9.69,0,0,1,1.37,5.05,9.84,9.84,0,0,1-1.37,5.07,10,10,0,0,1-3.75,3.65,10.87,10.87,0,0,1-10.42,0,10,10,0,0,1-3.75-3.65,9.75,9.75,0,0,1-1.38-5.07,9.61,9.61,0,0,1,1.38-5.05,10,10,0,0,1,3.74-3.6,11,11,0,0,1,10.43,0Zm-9,2.1a7.71,7.71,0,0,0-2.79,2.74,7.5,7.5,0,0,0,0,7.62,7.64,7.64,0,0,0,2.79,2.77,7.36,7.36,0,0,0,3.81,1,7.2,7.2,0,0,0,3.77-1,7.64,7.64,0,0,0,2.76-2.77,7.63,7.63,0,0,0,0-7.62,7.71,7.71,0,0,0-2.76-2.74,7.37,7.37,0,0,0-3.77-1A7.54,7.54,0,0,0,609.91,140.57Z"/><path class="cls-1" d="M626.13,137.31h3.15l5.16,7.34,5.2-7.34h3.17l-6.65,9.44L643.37,157h-3.23l-5.7-7.95L628.8,157h-3.18l7.19-10.11Z"/></g><g id="Stroke"><line class="cls-2" x1="700.5" y1="60" x2="700.5" y2="140"/></g><g id="twinkly"><path class="cls-3" d="M876.58,42.4c1.2-2.21,2.53-2.47,4-.22.85,1.34,2.09,2.63,2.36,4.09.73,4,3.14,4.59,6.75,4.42,5-.23,7.69,2.12,7.53,5.8-.1,2.28-1.59,3.74-3.13,5.06-2.21,1.89-3.47,3.72-2.53,7a13.63,13.63,0,0,1-.19,7.4c-.86,3-2.54,3.86-5.37,2.84s-5.38-2-7.4-4.08c-1.36-1.41-2.34-1.25-3.7-.08a26.94,26.94,0,0,1-7.14,4.58c-3.72,1.54-6.47-.26-6.76-4.34a22.46,22.46,0,0,1,1.1-8.7,3.69,3.69,0,0,0-1-4.21,22.35,22.35,0,0,1-4.31-6.49c-1-2.27-.43-3.84,1.62-5.16,5.74-3.71,15.08-1.07,18.29,5.56-3.37-1.25-6.42-2.8-9.86-2.48-.75.07-1.78-.34-2.17.5-.5,1.08.68,1.53,1.23,2.16,1.64,1.88,4.3,2.69,5.53,5s-1.45,4.44-.77,7c3-.49,4.82-4.39,8.25-2.8,2.7,1.25,3.53,4.65,6.26,6.07a3,3,0,0,0,.28-3c-1.86-4.62.52-7.18,4.15-9.32a10.46,10.46,0,0,0,2-1.85c1-1,.8-2.07-.54-2.24-2-.26-3.93-1.28-6-.53-2.59.93-3.4-.18-3.62-2.72-.28-3.27-.39-6.81-4.09-8.52C876.65,43.29,876.34,43.13,876.58,42.4Z"/><path class="cls-3" d="M943.65,93.57a2.68,2.68,0,0,1-1.29,2.34V86.75C943.94,88.81,941.94,91.53,943.65,93.57Z"/><path class="cls-3" d="M760.33,81.22h-5a4.46,4.46,0,0,1,3.07-1.17C758.8,80.8,760.44,79.55,760.33,81.22Z"/><path class="cls-3" d="M876.58,42.4l.73.73c-.72.9-1.43,1.81-2.14,2.71-.14.26-.3.26-.48,0C874.71,44.39,875.71,43.43,876.58,42.4Z"/><path class="cls-3" d="M874.69,45.88l.48,0a5.63,5.63,0,0,1-1.56,3.64C873.43,47.75,873.69,46.71,874.69,45.88Z"/><path class="cls-3" d="M760.33,81.22l-2-1.17a20.17,20.17,0,0,1,2.58,0c.43,0,1.21.26.85.94C761.66,81.27,760.84,81.16,760.33,81.22Z"/><path class="cls-3" d="M771.31,81.33c0,.21,0,.43,0,.65-.74,1-1.71.8-3.15.49Z"/><path class="cls-3" d="M1037.47,136.49c.21-.24.43-.47.66-.71a4.32,4.32,0,0,1,1.36,2.81.44.44,0,0,1-.75,0Z"/><path class="cls-3" d="M1038.74,138.59h.75c.73.58.64,1.32.46,2.71C1039.39,140.05,1039.06,139.32,1038.74,138.59Z"/><path class="cls-3" d="M1038.13,135.78c-.71-2.21-2.46-3.5-4.28-4.66a4.17,4.17,0,0,1-2.17-2.41,12.38,12.38,0,0,0-10.1-9.05c-2.2-.43-2.74-1.4-2.69-3.43.11-5.34,0-10.68.09-16a12.89,12.89,0,0,0-3.13-8.44c-2.09-2.63-6.63-4.25-9.14-3.33-3.61,1.33-3.36,4.54-3.41,7.44-.11,6.47,0,12.94-.06,19.42,0,2-.61,3.9-2.87,3.91s-2.73-1.83-2.7-3.89c.09-6.36.08-12.72.08-19.08,0-4.44-2-6.84-6.41-7.88-2.26-.54-3.43-.11-3.35,2.56.17,5.1.14,10.22.13,15.33a14.09,14.09,0,0,1-4.58,10.62c-1.4,1.31-3,2.79-5,2.18-2.4-.71-3.11-3-3.28-5.15-.41-5.08-.46-10.18-.77-15.27a3,3,0,0,1,2.16-3.4c3-1.17,5.13-3.42,7-5.8,4.54-5.62,7-12,5.41-19.29-1.42-6.75-4.54-9.57-10.66-10-7.54-.54-12.66,2.42-14.91,8.65a22.83,22.83,0,0,0-1.34,8c.06,12.14,1.12,24.26.7,36.41-.13,3.73-2.43,6.82-5.41,7.46s-5-.86-6.14-3.24c-1.44-3-4.79-5.68-1.26-9.72,4.37-5,7.78-10.64,7.37-17.77a5.67,5.67,0,0,0-4.23-5.53c-2.5-.83-4.48.42-6,2.23a19,19,0,0,0-3.55,6.93c-1.11,1-.94-.18-1-.62-.22-2.06.26-4.16-.31-6.2,0-3.41,0-6.82-.09-10.22s.38-7.06-.68-10.5c-1.13-3.65-6-6.64-9.81-5.74-4.18,1-1.84,4.27-1.81,6.51.14,12.83.46,25.65.77,38.47.12,4.76.41,9.51.59,14.27a4.1,4.1,0,0,0,3.35,4.14c3.46.95,7.79-.25,9.33-4.17.38-1,.34-2.21,1.53-3,.31.54.56,1,.86,1.51,5,7.86,10.77,8.37,16.84,1.35,1.37-1.59,1.8-.54,2.31.46,3.5,6.88,15.93,5.44,19.22-.47a33.13,33.13,0,0,1,3.1-4c1.13,5,3.53,8,8.79,8.3,4.94.29,8.39-1.78,11-6,.79,3.38-.36,5.45-2.47,7.61-7,7.18-10,15.84-8,25.81.72,3.6,1.45,7.72,5.8,8.93,4,1.11,7.72.38,10.58-2.92a16.8,16.8,0,0,0,4-7.82c1.35-7.27,1-14.67,1.3-22,.18-4.1,1.13-4.77,4.9-3.08a8.62,8.62,0,0,1,3.44,2.7c1.08,1.47,1.85,2.56-.67,3.4a3.53,3.53,0,0,0-2.54,4,4.21,4.21,0,0,0,3.77,3.46c2,.2,3.8-.54,4.36-2.54.78-2.79,2-2,3.51-.77a27.07,27.07,0,0,1,1.9,2C1038.07,136.61,1038.44,136.51,1038.13,135.78Zm-88.82-41A2.31,2.31,0,0,1,952.15,93c1.53.41,1.09,1.77.93,2.84-.54,3.58-2.64,6.28-5.15,9.53C947.4,101.21,948.33,98,949.31,94.81Zm24.54-5.23c-.06-2,0-4.09,0-6.13h-.05c0-1.93,0-3.86,0-5.79a9.84,9.84,0,0,1,1.1-4.59c1.26-2.59,3.48-4.23,6.26-3.77,3.07.52,3.52,3.56,3.36,6A22.62,22.62,0,0,1,976.58,91c-.56.5-1.49,1.14-2.05,1C973.4,91.64,973.88,90.42,973.85,89.58ZM1007,146.43a20.85,20.85,0,0,1-1.65,4.09c-.53,1.13-1.17,2.4-2.64,2.32-1.65-.09-1.79-1.68-2-2.81-1.48-8.7.32-16.4,7.7-23A68.41,68.41,0,0,1,1007,146.43Z"/><path class="cls-3" d="M1028.65,134.93a1.51,1.51,0,0,1-1.53-1.47,1.77,1.77,0,0,1,1.54-2.2c.87-.14,1.2.45,1.24,1.21C1030,133.51,1029.92,134.53,1028.65,134.93Z"/><path class="cls-3" d="M928.35,122.27c-4.77-1-6.33-2.71-6.47-7.54s-.09-9.77-.13-14.65c-.07-10.64-8.9-16.09-18.54-11.14-3,1.53-5.24,3.09-8-.14-.55-.65-1.89-.63-2.85-1-2.45-.85-3.6-.26-3.49,2.58.18,4.19.13,8.4.07,12.6,0,3.63.45,7.29-.34,10.87-.54,2.48-1.93,4.83-4.67,4.62-3-.24-3.2-3-3.25-5.49-.16-7-.4-14.06-.65-21.08-.12-3.31-1.9-4.49-5.17-3.93-2.57.45-3.63,2.59-5.25,4.09s-3.68,3-5.7,2.62-.68-2.89-1.11-4.4c-.8-2.88-1.92-5.36-5.43-5.67a5.43,5.43,0,0,0-6,3.9c-1.1,3-.2,6.42,2.84,7.47,4.63,1.6,5,4.73,4.66,8.68-.17,2.14,0,4.31,0,6.47-.05,3.51-2.22,5.62-5.78,5.68-3,.06-4.4-1.6-4.48-5.47-.1-5.44,0-10.88-.57-16.32-.5-4.66-2.47-7.31-7-8.42-4-1-4.18-.87-4.08,3.07.18,7.36.52,14.73.65,22.1.08,4.14-1.5,5.81-5,5.74-3.19-.06-4.51-1.71-4.54-5.81-.05-5.23,0-10.45-.09-15.68-.19-7.67-4.83-11.12-12.21-9.29-2,.49-2.76,1.24-.86,2.81a6.94,6.94,0,0,1,2.37,5c.46,4.54-.48,9-.18,13.55.23,3.56.83,7,2.78,10,3.87,6.06,12.51,8.32,16.2,3.58,3-3.89,4.82-2.56,7.33-.2a5.46,5.46,0,0,0,.79.65,12.26,12.26,0,0,0,19-7.35c1-4.53-.34-9-.38-13.55,0-4.08,3-3.23,4.83-3.42,2.53-.26,1.12,2.11,1.38,3.32a11.77,11.77,0,0,1,0,2.72c-.11,4.78-.14,9.56,2,14,1.91,4,4.63,6.53,9.48,6.48s7.8-2.5,10.18-7.43c.64,6.41,1.71,7.57,5.94,7.37,3.37-.16,4.05-1.23,3.9-6.78-.17-6.23-.53-12.46-.69-18.69-.08-3.22,2-5.7,5-5.85,3.28-.16,4.74,1.93,5,4.86.43,5.19.74,10.4,1,15.6.42,8.33,9.8,14.42,17.59,11.38.79-.31,1.53-.63,1.44-1.6S929,122.41,928.35,122.27Zm-70.6-28.19a3.45,3.45,0,0,1-3-3.16c-.16-1.34.39-2.19,1.89-2.12,2,.1,2.29,1.48,2.29,3.16C858.65,92.7,859.42,94.31,857.75,94.08Z"/><path class="cls-3" d="M810,117.08c-1.24,1.21-2.47,2.85-4.65,2-2-.76-2.54-2.48-2.58-4.39-.24-10.2-.4-20.41-.72-30.62-.06-2.27.73-3,2.94-2.92,5.14.12,10.29,0,15.43,0A34.93,34.93,0,0,0,805,77.91c-2.26.06-2.93-.7-2.92-2.92,0-3.73.33-7.48-.43-11.2-1-5-3.55-7-8.76-7-2.39,0-3.25.88-3.2,3.21.11,5.34.08,10.68.07,16,0,1.08.4,2.65-1,2.94-2.89.61-5.41,2.37-8.47,2.42-2.44.05-3-.46-1.74-2.84,1.72-3.11.24-5.31-3.27-5.37-4.44-.06-6.18,3.55-3.94,8.19-.07,0-.14.07-.2.21s0,.29.2.44c5.05.84,10,3.25,15.23.69,2.39-1.16,3.26-.38,3.32,2.42.24,10.07.84,20.13,2,30.15.7,6.09,5.09,9.4,11.17,8.44,6.89-1.08,11.53-6.67,10.22-12.8C812.19,113.19,811.66,115.5,810,117.08ZM774.29,78.39c-.86.19-1.47-.5-1.51-1.38,0-1.23.73-1.77,1.88-1.83.73,0,1.34.14,1.39,1.12A2.3,2.3,0,0,1,774.29,78.39Z"/></g></svg>