<svg xmlns="http://www.w3.org/2000/svg" xmlns:xlink="http://www.w3.org/1999/xlink" viewBox="0 0 1400 200"><defs><style>.cls-1{fill:#ccc;}.cls-2,.cls-4{fill:none;}.cls-3{fill:#feb400;}.cls-4{stroke:#5f5f60;stroke-miterlimit:10;}.cls-5{fill:#3f3b3c;}.cls-13,.cls-5{fill-rule:evenodd;}.cls-6{clip-path:url(#clip-path);}.cls-7{clip-path:url(#clip-path-2);}.cls-8{clip-path:url(#clip-path-3);}.cls-9{clip-path:url(#clip-path-4);}.cls-10{clip-path:url(#clip-path-5);}.cls-11{clip-path:url(#clip-path-6);}.cls-12{clip-path:url(#clip-path-7);}.cls-13,.cls-15{fill:#5fcaf4;}.cls-14{clip-path:url(#clip-path-8);}</style><clipPath id="clip-path"><path class="cls-1" d="M900.71,103.6q-12.08,0-12.07,9.32,0,8.1,8.54,8.11a21.83,21.83,0,0,0,7.07-1.3,35,35,0,0,0,7.67-3.79V105.15a44,44,0,0,0-11.21-1.55m1.21-23.73q14.91,0,14.91,12.86v30.54a1.14,1.14,0,0,1-1.29,1.29h-1.81a1.23,1.23,0,0,1-1.38-1.29l-.34-3.71q-7.43,6-15.52,6-6,0-9.45-3.41a12.11,12.11,0,0,1-3.49-9.1,12.33,12.33,0,0,1,4.27-9.92q4.27-3.61,11.77-3.62a38.42,38.42,0,0,1,6,.52,43.36,43.36,0,0,1,6.29,1.46V94.2q0-5.26-2.5-7.55t-8.28-2.29a40.55,40.55,0,0,0-11.29,1.73c-.64.17-1.14.33-1.51.47a2.61,2.61,0,0,1-.91.22c-.69,0-1-.38-1-1.13V84.27a1.67,1.67,0,0,1,1.12-1.72,37.87,37.87,0,0,1,7-2,40,40,0,0,1,7.38-.7"/></clipPath><clipPath id="clip-path-2"><path class="cls-1" d="M978.23,79.87q6,0,9.06,3.33t3.1,9.79v30.28a1.14,1.14,0,0,1-1.29,1.29h-2.33a1.15,1.15,0,0,1-1.3-1.29V95.06c0-3.8-.64-6.53-1.94-8.2s-3.4-2.5-6.33-2.5a25.7,25.7,0,0,0-15.61,5.44,33.14,33.14,0,0,1,.26,4v29.42a1.14,1.14,0,0,1-1.3,1.29h-2.32a1.14,1.14,0,0,1-1.3-1.29V95.06q0-5.7-1.94-8.2t-6.34-2.5a26,26,0,0,0-15.34,5.26v33.65a1.15,1.15,0,0,1-1.3,1.29h-2.33a1.14,1.14,0,0,1-1.29-1.29V82.46a1.14,1.14,0,0,1,1.29-1.29h1.73a1.32,1.32,0,0,1,1.46,1.29l.35,3.45a34.27,34.27,0,0,1,8.1-4.44,23.68,23.68,0,0,1,8.37-1.6q8.1,0,10.86,6.65a31.62,31.62,0,0,1,8.67-5,25.55,25.55,0,0,1,9-1.69"/></clipPath><clipPath id="clip-path-3"><path class="cls-1" d="M1016.34,103.6q-12.06,0-12.07,9.32,0,8.1,8.54,8.11a21.83,21.83,0,0,0,7.07-1.3,34.74,34.74,0,0,0,7.67-3.79V105.15a44,44,0,0,0-11.21-1.55m1.21-23.73q14.92,0,14.92,12.86v30.54a1.14,1.14,0,0,1-1.29,1.29h-1.81a1.22,1.22,0,0,1-1.38-1.29l-.35-3.71q-7.41,6-15.52,6-6,0-9.44-3.41a12.12,12.12,0,0,1-3.5-9.1,12.36,12.36,0,0,1,4.27-9.92q4.27-3.61,11.77-3.62a38.42,38.42,0,0,1,6,.52,43.36,43.36,0,0,1,6.29,1.46V94.2q0-5.26-2.5-7.55c-1.67-1.53-4.42-2.29-8.28-2.29a40.61,40.61,0,0,0-11.29,1.73c-.63.17-1.14.33-1.51.47a2.61,2.61,0,0,1-.91.22c-.69,0-1-.38-1-1.13V84.27a1.67,1.67,0,0,1,1.12-1.72,38,38,0,0,1,7-2,39.85,39.85,0,0,1,7.37-.7"/></clipPath><clipPath id="clip-path-4"><path class="cls-1" d="M1073.69,121.54v1.73a1.14,1.14,0,0,1-1.3,1.29H1042a1.14,1.14,0,0,1-1.29-1.29v-1.81a3.71,3.71,0,0,1,.21-1.38,4.6,4.6,0,0,1,.82-1.21L1068,85.48h-25.1a1.14,1.14,0,0,1-1.29-1.29V82.46a1.14,1.14,0,0,1,1.29-1.29h29.32a1.14,1.14,0,0,1,1.29,1.29v1.81a3.94,3.94,0,0,1-.21,1.3,4.69,4.69,0,0,1-.91,1.38l-26.3,33.3h26.3a1.14,1.14,0,0,1,1.3,1.29"/></clipPath><clipPath id="clip-path-5"><path class="cls-1" d="M1099,121.37q14.91,0,14.92-18.55T1099,84.36q-14.93,0-14.92,18.46T1099,121.37m0,4.49q-9.4,0-14.71-6t-5.3-17q0-11,5.3-17t14.71-6q9.39,0,14.7,6t5.3,17q0,11.06-5.3,17t-14.7,6"/></clipPath><clipPath id="clip-path-6"><path class="cls-1" d="M1151.29,79.87q6.38,0,9.66,3.33t3.28,9.79v30.28a1.15,1.15,0,0,1-1.3,1.29h-2.33a1.14,1.14,0,0,1-1.29-1.29V95.06q0-5.7-2.16-8.2t-6.89-2.5a26.82,26.82,0,0,0-8.71,1.42,35,35,0,0,0-8.11,4.1v33.39a1.14,1.14,0,0,1-1.29,1.29h-2.33a1.14,1.14,0,0,1-1.29-1.29V82.46a1.14,1.14,0,0,1,1.29-1.29h1.73a1.32,1.32,0,0,1,1.46,1.29l.35,3.71a34.43,34.43,0,0,1,8.79-4.66,27.47,27.47,0,0,1,9.14-1.64"/></clipPath><clipPath id="clip-path-7"><path class="cls-1" d="M1355.06,103.6q-12.07,0-12.07,9.32,0,8.1,8.54,8.11a21.83,21.83,0,0,0,7.07-1.3,35,35,0,0,0,7.67-3.79V105.15A44,44,0,0,0,1355.06,103.6Zm1.21-23.73q14.91,0,14.92,12.86v30.54a1.15,1.15,0,0,1-1.3,1.29h-1.81a1.23,1.23,0,0,1-1.38-1.29l-.34-3.71q-7.42,6-15.52,6-6,0-9.45-3.41a12.15,12.15,0,0,1-3.49-9.1,12.36,12.36,0,0,1,4.27-9.92q4.27-3.61,11.77-3.62a38.42,38.42,0,0,1,6,.52,43.36,43.36,0,0,1,6.29,1.46V94.2q0-5.26-2.5-7.55t-8.28-2.29a40.55,40.55,0,0,0-11.29,1.73c-.64.17-1.14.33-1.51.47a2.61,2.61,0,0,1-.91.22c-.69,0-1-.38-1-1.13V84.27a1.67,1.67,0,0,1,1.12-1.72,37.76,37.76,0,0,1,7-2,39.77,39.77,0,0,1,7.37-.7Zm-41.88,25.54-12.51,18.2a2.12,2.12,0,0,1-1.81,1h-2.41c-.75,0-1.12-.31-1.12-1a2.41,2.41,0,0,1,.6-1.12L1311.89,102l-13.46-18.81a2.64,2.64,0,0,1-.51-1c0-.64.37-1,1.12-1h2.67a2.12,2.12,0,0,1,1.81,1l11.3,16,11.29-16a2.06,2.06,0,0,1,1.73-1h2.33c.74,0,1.12.31,1.12,1a2.48,2.48,0,0,1-.52,1.12l-13.28,18.38,14.75,20.87a2.59,2.59,0,0,1,.51,1.12c0,.64-.37,1-1.12,1H1329a2,2,0,0,1-1.72-1Zm-39.83-21.14q-6.46,0-10.21,3.8t-4.53,11.13a53.46,53.46,0,0,0,6.68,1.29,51.32,51.32,0,0,0,6.68.43q6.48,0,9.49-1.89a6.62,6.62,0,0,0,3-6q0-8.71-11.13-8.72Zm11,35.63a15.07,15.07,0,0,0,1.63-.56,2.56,2.56,0,0,1,.95-.21c.69,0,1,.37,1,1.12v1.21a1.78,1.78,0,0,1-1,1.81,34.05,34.05,0,0,1-13.19,2.59q-9.91,0-15.14-5.74t-5.21-16.78a32.66,32.66,0,0,1,1.37-9.79,20.92,20.92,0,0,1,4-7.42,17.11,17.11,0,0,1,6.43-4.66,21.89,21.89,0,0,1,8.54-1.6c5,0,8.86,1.16,11.59,3.45s4.1,5.53,4.1,9.67-1.45,7.09-4.35,9-7.41,2.89-13.5,2.89a58.68,58.68,0,0,1-6.6-.38,41,41,0,0,1-6.59-1.34q0,9.31,3.92,13.76t11.77,4.44A36.59,36.59,0,0,0,1285.52,119.9Zm-47-57.88a1.14,1.14,0,0,1,1.29-1.3h2.33a1.14,1.14,0,0,1,1.29,1.3v55a3.86,3.86,0,0,0,.73,2.67,3.55,3.55,0,0,0,2.63.78,8.53,8.53,0,0,0,1.17-.09,9.8,9.8,0,0,1,1.08-.08,1.06,1.06,0,0,1,1.2,1.2v1.64a1.25,1.25,0,0,1-1.12,1.3,7.41,7.41,0,0,1-1.51.26c-.66.05-1.25.08-1.77.08a7.06,7.06,0,0,1-5.38-2,7.8,7.8,0,0,1-1.94-5.65Zm-27.51,41.58q-12.08,0-12.07,9.32,0,8.1,8.53,8.11a21.78,21.78,0,0,0,7.07-1.3,35,35,0,0,0,7.68-3.79V105.15A44,44,0,0,0,1211.05,103.6Zm1.21-23.73q14.91,0,14.91,12.86v30.54a1.14,1.14,0,0,1-1.29,1.29h-1.81a1.23,1.23,0,0,1-1.38-1.29l-.34-3.71q-7.42,6-15.53,6-5.94,0-9.44-3.41a12.11,12.11,0,0,1-3.49-9.1,12.33,12.33,0,0,1,4.27-9.92q4.26-3.61,11.77-3.62a38.2,38.2,0,0,1,6,.52,43.19,43.19,0,0,1,6.3,1.46V94.2c0-3.51-.84-6-2.5-7.55s-4.43-2.29-8.28-2.29a40.68,40.68,0,0,0-11.3,1.73c-.63.17-1.13.33-1.5.47a2.61,2.61,0,0,1-.91.22c-.69,0-1-.38-1-1.13V84.27a1.68,1.68,0,0,1,1.13-1.72,37.66,37.66,0,0,1,7-2,39.87,39.87,0,0,1,7.38-.7Z"/></clipPath><clipPath id="clip-path-8"><path class="cls-2" d="M800.1,52.52a45,45,0,0,0-6,89.6v-9.07a6,6,0,0,0-4-5.66,31.5,31.5,0,1,1,41.52-29.87c0,.39,0,.79,0,1.18a2.35,2.35,0,0,1,0,.26c0,.36,0,.72-.06,1.08,0,.12,0,.23,0,.35s0,.5-.07.75-.07.56-.11.84c0,.13,0,.25,0,.38-3.86,25.41-36.93,39.68-37.11,39.76a45.54,45.54,0,0,0,6,.4,45,45,0,0,0,0-90"/></clipPath></defs><title>HOOBS_x_alexa</title><g id="HOOBS_LOGO" data-name="HOOBS LOGO"><path class="cls-3" d="M152.1,39.5H77.79A22.36,22.36,0,0,0,55.63,61.92v75.16A22.36,22.36,0,0,0,77.79,159.5H152.1a22.36,22.36,0,0,0,22.16-22.42V61.92A22.36,22.36,0,0,0,152.1,39.5Zm3,57.94a3.11,3.11,0,0,1-2.65,2.53,2.6,2.6,0,0,1-3.1-1.4c-1.22-3.28-3.9-5.27-6.23-7.51a8.46,8.46,0,0,1-2.91-7.15c.14-1.83,0-3.69,0-5.53h0c0-2.46,0-4.92,0-7.38,0-2.23-1.38-2.65-3.19-2.61s-3.9-.31-4,2.45c-.1,2.23,0,4.46-.08,6.69,0,.73.37,1.78-.35,2.14s-1.23-.67-1.74-1.16c-4.88-4.62-9.77-9.23-14.57-13.94-1.48-1.45-2.59-1.42-4,0q-15.85,16.1-31.81,32.1c-1.39,1.39-1.57,2.51,0,3.79.35.3.64.66,1,1,2.09,2.07,2.41,2,4.64-.06C93,95,99.53,88.09,106.27,81.43c1.41-1.39,2.91-2.7,4.35-4.06,2.71-2.57,5.82-2.66,8.51-.05,2.91,2.82,5.7,5.76,8.57,8.62,5.31,5.28,10.67,10.51,16,15.81,3.49,3.48,3.44,6.58,0,10.12-5.42,5.51-7.54,5.49-13,0-4.76-4.75-9.64-9.38-14.39-14.14-1.49-1.5-2.61-1.35-4,.1q-7.6,7.8-15.34,15.48c-1.35,1.33-1.35,2.43,0,3.68.5.47,1,.95,1.45,1.47,1.22,1.37,2.35,1.36,3.67,0,2.7-2.7,5.48-5.32,8.23-8s6-2.78,8.74-.2q4.59,4.32,9,8.83a5.89,5.89,0,0,1,0,8.48c-2,2.19-4.18,4.25-6.27,6.38a12.38,12.38,0,0,0-3.29,4.33,2.74,2.74,0,0,1-3.12,1.82,3,3,0,0,1-2.73-2.41,3.1,3.1,0,0,1,1.61-3.71c4.35-2.08,6.84-6.22,10.3-9.28a1.59,1.59,0,0,0,0-2.6c-2.75-2.76-5.49-5.53-8.25-8.28-1.11-1.12-2.13-.82-3.16.2-2.73,2.67-5.51,5.3-8.24,8s-5.82,2.83-8.75.39c-.76-.64-1.45-1.37-2.14-2.08-3.52-3.61-3.54-6.78,0-10.34q7.74-7.83,15.5-15.64c3.3-3.31,6.41-3.34,9.74-.08Q127,102,134.8,109.74c2.23,2.18,2.48,2.15,5.12-.54,2.23-2.28,2.26-2.62.05-4.83-7.74-7.72-15.51-15.4-23.22-23.15-1.31-1.32-2.34-1.41-3.65-.11-3.57,3.56-7.18,7.08-10.77,10.62q-7.11,7-14.23,14a5.85,5.85,0,0,1-8.58.2c-5.65-5.14-7-7.85-.5-14.2,10.21-9.89,20.08-20.14,30.09-30.24,3.58-3.6,6.67-3.61,10.25-.1,2.46,2.4,5,4.74,7.44,7.14,1,1,1.69,1.58,2.23-.45a5.07,5.07,0,0,1,4.41-3.82,22.64,22.64,0,0,1,2.72-.31c6.33-.17,8.55,2,8.57,8.43,0,3.85,0,7.69,0,11.54a4.59,4.59,0,0,0,1.57,3.87c2.46,2.13,4.24,5,7.44,6.32A2.8,2.8,0,0,1,155.13,97.44Z"/><path class="cls-3" d="M276.93,40.9v81.53H258.06V89H221v33.43H202.15V40.9H221V73h37V40.9Zm14.21,40.76c0-24.22,18.87-42.16,44.61-42.16s44.61,17.82,44.61,42.16-19,42.17-44.61,42.17S291.14,105.89,291.14,81.66Zm70.12,0c0-15.49-10.95-26.09-25.51-26.09s-25.51,10.6-25.51,26.09,10.95,26.1,25.51,26.1S361.26,97.15,361.26,81.66Zm28.19,0c0-24.22,18.87-42.16,44.61-42.16s44.61,17.82,44.61,42.16-19,42.17-44.61,42.17S389.45,105.89,389.45,81.66Zm70.12,0c0-15.49-10.95-26.09-25.51-26.09s-25.51,10.6-25.51,26.09,10.95,26.1,25.51,26.1S459.57,97.15,459.57,81.66Zm108.09,18.52c0,14.1-11.18,22.25-32.61,22.25H492.88V40.9h39.84c20.38,0,30.87,8.5,30.87,21.2A19.59,19.59,0,0,1,552.75,80C561.84,82.94,567.66,89.93,567.66,100.18Zm-56-45.07V74.33h18.75c9.2,0,14.21-3.27,14.21-9.67s-5-9.55-14.21-9.55Zm37,43.09c0-6.87-5.24-10.13-15-10.13h-22v20.15h22C543.44,108.22,548.68,105.19,548.68,98.2Zm26.9,16.19L582,100.18a47.94,47.94,0,0,0,26.91,8.51c11.18,0,15.72-3.73,15.72-8.74,0-15.26-47.4-4.77-47.4-35.06,0-13.86,11.18-25.39,34.36-25.39,10.25,0,20.73,2.45,28.3,7.22l-5.82,14.33a46.07,46.07,0,0,0-22.6-6.41C600.28,54.64,596,58.83,596,64c0,15,47.4,4.66,47.4,34.59,0,13.63-11.29,25.28-34.59,25.28C595.85,123.83,582.81,120,575.58,114.39Z"/><path class="cls-3" d="M201.05,137.31h2.7v8.77H215v-8.77h2.72V157H215v-8.45H203.75V157h-2.7Z"/><path class="cls-3" d="M237.12,138.47a9.83,9.83,0,0,1,3.75,3.6,9.61,9.61,0,0,1,1.38,5.05,9.75,9.75,0,0,1-1.38,5.07,9.89,9.89,0,0,1-3.75,3.65,10.87,10.87,0,0,1-10.42,0,10,10,0,0,1-3.75-3.65,9.84,9.84,0,0,1-1.37-5.07,9.69,9.69,0,0,1,1.37-5.05,10,10,0,0,1,3.74-3.6,11,11,0,0,1,10.43,0Zm-9,2.1a7.74,7.74,0,0,0-2.8,2.74,7.5,7.5,0,0,0,0,7.62,7.67,7.67,0,0,0,2.8,2.77,7.33,7.33,0,0,0,3.8,1,7.21,7.21,0,0,0,3.78-1,7.61,7.61,0,0,0,2.75-2.77,7.56,7.56,0,0,0,0-7.62,7.68,7.68,0,0,0-2.75-2.74,7.38,7.38,0,0,0-3.78-1A7.5,7.5,0,0,0,228.14,140.57Z"/><path class="cls-3" d="M246.12,137.31h3.21l7.19,13.82,7.13-13.82h3.23V157h-2.53l0-15.7-7,13.63h-1.66l-7-13.63V157h-2.5Z"/><path class="cls-3" d="M272.5,137.31h13.64v2.45H275.19v6.06H285v2.45h-9.8v6.26h11.29V157h-14Z"/><path class="cls-3" d="M304,138.62a4.27,4.27,0,0,1,1.73,3.61,4.39,4.39,0,0,1-.95,2.85,4.63,4.63,0,0,1-2.62,1.56,5.09,5.09,0,0,1,3.22,1.64,4.87,4.87,0,0,1,1.17,3.33,4.65,4.65,0,0,1-1.9,3.94,8.54,8.54,0,0,1-5.24,1.42h-8.54V137.31h8.4A7.68,7.68,0,0,1,304,138.62Zm-2,6.26a2.6,2.6,0,0,0,1-2.2,2.53,2.53,0,0,0-1-2.16,4.41,4.41,0,0,0-2.82-.73h-5.56v5.87h5.56A4.47,4.47,0,0,0,301.91,144.88Zm.61,8.79a2.76,2.76,0,0,0,1.23-2.4,2.67,2.67,0,0,0-1.23-2.33,6.06,6.06,0,0,0-3.43-.84h-5.56v6.4h5.56A5.83,5.83,0,0,0,302.52,153.67Z"/><path class="cls-3" d="M323.52,157l-3.9-6.17c-.45,0-.81,0-1.1,0h-5V157h-2.7V137.31h7.69A8.71,8.71,0,0,1,324.3,139a6.1,6.1,0,0,1,2,4.9,7,7,0,0,1-1.11,4,6.27,6.27,0,0,1-3.18,2.36l4.57,6.65Zm-5-8.56a6,6,0,0,0,3.88-1.11,4,4,0,0,0,1.35-3.27,3.84,3.84,0,0,0-1.35-3.19,6.08,6.08,0,0,0-3.88-1.08h-5v8.65Z"/><path class="cls-3" d="M331.13,137.31h2.7V157h-2.7Z"/><path class="cls-3" d="M352.63,138.59a9.36,9.36,0,0,1,3.64,3.53,10.19,10.19,0,0,1,0,10,9.51,9.51,0,0,1-3.67,3.53,10.67,10.67,0,0,1-5.22,1.27h-7.92V137.31h8A10.55,10.55,0,0,1,352.63,138.59Zm-1.4,15a7,7,0,0,0,2.64-2.64,7.34,7.34,0,0,0,1-3.76,7.43,7.43,0,0,0-1-3.79,7.13,7.13,0,0,0-2.69-2.65,7.43,7.43,0,0,0-3.77-1h-5.26v14.77h5.37A7.34,7.34,0,0,0,351.23,153.57Z"/><path class="cls-3" d="M374.41,147.37h2.39v7.22a12.08,12.08,0,0,1-3.48,1.88,11.82,11.82,0,0,1-4,.7,10.37,10.37,0,0,1-5.2-1.33,10,10,0,0,1-3.72-3.65,9.83,9.83,0,0,1-1.36-5.07,9.69,9.69,0,0,1,1.37-5.05,10,10,0,0,1,3.77-3.6,10.72,10.72,0,0,1,5.28-1.32,11.27,11.27,0,0,1,4,.73,10.6,10.6,0,0,1,3.38,2l-1.54,2a8.73,8.73,0,0,0-5.84-2.31,7.72,7.72,0,0,0-3.88,1,7.54,7.54,0,0,0-2.79,2.76,7.32,7.32,0,0,0-1,3.82,7.42,7.42,0,0,0,1,3.83,7.7,7.7,0,0,0,6.69,3.8,8.27,8.27,0,0,0,2.51-.4,9.26,9.26,0,0,0,2.37-1.14Z"/><path class="cls-3" d="M381.91,137.31h13.65v2.45H384.61v6.06h9.8v2.45h-9.8v6.26H395.9V157h-14Z"/><path class="cls-3" d="M421.41,138.47a10,10,0,0,1,3.75,3.6,9.61,9.61,0,0,1,1.38,5.05,9.75,9.75,0,0,1-1.38,5.07,10,10,0,0,1-3.75,3.65,10.87,10.87,0,0,1-10.42,0,10,10,0,0,1-3.75-3.65,9.75,9.75,0,0,1-1.37-5.07,9.6,9.6,0,0,1,1.37-5.05,10,10,0,0,1,3.74-3.6,11,11,0,0,1,10.43,0Zm-9,2.1a7.71,7.71,0,0,0-2.79,2.74,7.5,7.5,0,0,0,0,7.62,7.64,7.64,0,0,0,2.79,2.77,7.36,7.36,0,0,0,3.81,1,7.21,7.21,0,0,0,3.78-1,7.61,7.61,0,0,0,2.75-2.77,7.63,7.63,0,0,0,0-7.62,7.68,7.68,0,0,0-2.75-2.74,7.38,7.38,0,0,0-3.78-1A7.54,7.54,0,0,0,412.42,140.57Z"/><path class="cls-3" d="M434.19,153.2a5.53,5.53,0,0,0,4.14,1.53,5.45,5.45,0,0,0,4.1-1.53,5.86,5.86,0,0,0,1.49-4.26V137.31h2.7v11.63a8.13,8.13,0,0,1-2.21,6,8.24,8.24,0,0,1-6.08,2.19,8.34,8.34,0,0,1-6.12-2.19,8.09,8.09,0,0,1-2.22-6V137.31h2.7v11.63A5.83,5.83,0,0,0,434.19,153.2Z"/><path class="cls-3" d="M449.29,137.31h15.36v2.48H458.3V157h-2.7V139.79h-6.31Z"/><path class="cls-3" d="M488.9,138.47a10,10,0,0,1,3.75,3.6,9.69,9.69,0,0,1,1.37,5.05,9.84,9.84,0,0,1-1.37,5.07,10,10,0,0,1-3.75,3.65,10.87,10.87,0,0,1-10.42,0,10,10,0,0,1-3.75-3.65,9.75,9.75,0,0,1-1.38-5.07,9.61,9.61,0,0,1,1.38-5.05,10,10,0,0,1,3.73-3.6,11,11,0,0,1,10.44,0Zm-9,2.1a7.71,7.71,0,0,0-2.79,2.74,7.5,7.5,0,0,0,0,7.62,7.64,7.64,0,0,0,2.79,2.77,7.36,7.36,0,0,0,3.81,1,7.2,7.2,0,0,0,3.77-1,7.64,7.64,0,0,0,2.76-2.77,7.63,7.63,0,0,0,0-7.62,7.71,7.71,0,0,0-2.76-2.74,7.37,7.37,0,0,0-3.77-1A7.54,7.54,0,0,0,479.91,140.57Z"/><path class="cls-3" d="M497.9,137.31h12.8l0,2.45H500.59v6.46h9.08v2.44h-9.08V157H497.9Z"/><path class="cls-3" d="M518.68,137.31H534v2.48H527.7V157H525V139.79h-6.32Z"/><path class="cls-3" d="M537.13,137.31h2.7v8.77h11.23v-8.77h2.72V157h-2.72v-8.45H539.83V157h-2.7Z"/><path class="cls-3" d="M559.4,137.31h13.65v2.45H562.1v6.06h9.8v2.45h-9.8v6.26h11.29V157h-14Z"/><path class="cls-3" d="M598.23,138.62a4.27,4.27,0,0,1,1.73,3.61,4.35,4.35,0,0,1-1,2.85,4.64,4.64,0,0,1-2.61,1.56,5,5,0,0,1,3.21,1.64,4.87,4.87,0,0,1,1.17,3.33,4.63,4.63,0,0,1-1.9,3.94,8.53,8.53,0,0,1-5.23,1.42H585.1V137.31h8.4A7.68,7.68,0,0,1,598.23,138.62Zm-2.05,6.26a2.63,2.63,0,0,0,1-2.2,2.55,2.55,0,0,0-1-2.16,4.44,4.44,0,0,0-2.82-.73H587.8v5.87h5.56A4.5,4.5,0,0,0,596.18,144.88Zm.6,8.79a2.74,2.74,0,0,0,1.24-2.4,2.66,2.66,0,0,0-1.24-2.33,6,6,0,0,0-3.42-.84H587.8v6.4h5.56A5.78,5.78,0,0,0,596.78,153.67Z"/><path class="cls-3" d="M618.9,138.47a10,10,0,0,1,3.75,3.6,9.69,9.69,0,0,1,1.37,5.05,9.84,9.84,0,0,1-1.37,5.07,10,10,0,0,1-3.75,3.65,10.87,10.87,0,0,1-10.42,0,10,10,0,0,1-3.75-3.65,9.75,9.75,0,0,1-1.38-5.07,9.61,9.61,0,0,1,1.38-5.05,10,10,0,0,1,3.74-3.6,11,11,0,0,1,10.43,0Zm-9,2.1a7.71,7.71,0,0,0-2.79,2.74,7.5,7.5,0,0,0,0,7.62,7.64,7.64,0,0,0,2.79,2.77,7.36,7.36,0,0,0,3.81,1,7.2,7.2,0,0,0,3.77-1,7.64,7.64,0,0,0,2.76-2.77,7.63,7.63,0,0,0,0-7.62,7.71,7.71,0,0,0-2.76-2.74,7.37,7.37,0,0,0-3.77-1A7.54,7.54,0,0,0,609.91,140.57Z"/><path class="cls-3" d="M626.13,137.31h3.15l5.16,7.34,5.2-7.34h3.17l-6.65,9.44L643.37,157h-3.23l-5.7-7.95L628.8,157h-3.18l7.19-10.11Z"/></g><g id="Stroke"><line class="cls-4" x1="700.5" y1="60" x2="700.5" y2="140"/></g><g id="alexa"><g id="g12"><path id="path14" class="cls-5" d="M900.71,103.6q-12.08,0-12.07,9.32,0,8.1,8.54,8.11a21.83,21.83,0,0,0,7.07-1.3,35,35,0,0,0,7.67-3.79V105.15a44,44,0,0,0-11.21-1.55m1.21-23.73q14.91,0,14.91,12.86v30.54a1.14,1.14,0,0,1-1.29,1.29h-1.81a1.23,1.23,0,0,1-1.38-1.29l-.34-3.71q-7.43,6-15.52,6-6,0-9.45-3.41a12.11,12.11,0,0,1-3.49-9.1,12.33,12.33,0,0,1,4.27-9.92q4.27-3.61,11.77-3.62a38.42,38.42,0,0,1,6,.52,43.36,43.36,0,0,1,6.29,1.46V94.2q0-5.26-2.5-7.55t-8.28-2.29a40.55,40.55,0,0,0-11.29,1.73c-.64.17-1.14.33-1.51.47a2.61,2.61,0,0,1-.91.22c-.69,0-1-.38-1-1.13V84.27a1.67,1.67,0,0,1,1.12-1.72,37.87,37.87,0,0,1,7-2,40,40,0,0,1,7.38-.7"/><g id="g16"><path class="cls-1" d="M900.71,103.6q-12.08,0-12.07,9.32,0,8.1,8.54,8.11a21.83,21.83,0,0,0,7.07-1.3,35,35,0,0,0,7.67-3.79V105.15a44,44,0,0,0-11.21-1.55m1.21-23.73q14.91,0,14.91,12.86v30.54a1.14,1.14,0,0,1-1.29,1.29h-1.81a1.23,1.23,0,0,1-1.38-1.29l-.34-3.71q-7.43,6-15.52,6-6,0-9.45-3.41a12.11,12.11,0,0,1-3.49-9.1,12.33,12.33,0,0,1,4.27-9.92q4.27-3.61,11.77-3.62a38.42,38.42,0,0,1,6,.52,43.36,43.36,0,0,1,6.29,1.46V94.2q0-5.26-2.5-7.55t-8.28-2.29a40.55,40.55,0,0,0-11.29,1.73c-.64.17-1.14.33-1.51.47a2.61,2.61,0,0,1-.91.22c-.69,0-1-.38-1-1.13V84.27a1.67,1.67,0,0,1,1.12-1.72,37.87,37.87,0,0,1,7-2,40,40,0,0,1,7.38-.7"/><g class="cls-6"><g id="g18"><path id="path24" class="cls-1" d="M876.72,132.34h46.94V73H876.72v59.3"/></g></g></g><path id="path26" class="cls-5" d="M978.23,79.87q6,0,9.06,3.33t3.1,9.79v30.28a1.14,1.14,0,0,1-1.29,1.29h-2.33a1.15,1.15,0,0,1-1.3-1.29V95.06c0-3.8-.64-6.53-1.94-8.2s-3.4-2.5-6.33-2.5a25.7,25.7,0,0,0-15.61,5.44,33.14,33.14,0,0,1,.26,4v29.42a1.14,1.14,0,0,1-1.3,1.29h-2.32a1.14,1.14,0,0,1-1.3-1.29V95.06q0-5.7-1.94-8.2t-6.34-2.5a26,26,0,0,0-15.34,5.26v33.65a1.15,1.15,0,0,1-1.3,1.29h-2.33a1.14,1.14,0,0,1-1.29-1.29V82.46a1.14,1.14,0,0,1,1.29-1.29h1.73a1.32,1.32,0,0,1,1.46,1.29l.35,3.45a34.27,34.27,0,0,1,8.1-4.44,23.68,23.68,0,0,1,8.37-1.6q8.1,0,10.86,6.65a31.62,31.62,0,0,1,8.67-5,25.55,25.55,0,0,1,9-1.69"/><g id="g28"><path class="cls-1" d="M978.23,79.87q6,0,9.06,3.33t3.1,9.79v30.28a1.14,1.14,0,0,1-1.29,1.29h-2.33a1.15,1.15,0,0,1-1.3-1.29V95.06c0-3.8-.64-6.53-1.94-8.2s-3.4-2.5-6.33-2.5a25.7,25.7,0,0,0-15.61,5.44,33.14,33.14,0,0,1,.26,4v29.42a1.14,1.14,0,0,1-1.3,1.29h-2.32a1.14,1.14,0,0,1-1.3-1.29V95.06q0-5.7-1.94-8.2t-6.34-2.5a26,26,0,0,0-15.34,5.26v33.65a1.15,1.15,0,0,1-1.3,1.29h-2.33a1.14,1.14,0,0,1-1.29-1.29V82.46a1.14,1.14,0,0,1,1.29-1.29h1.73a1.32,1.32,0,0,1,1.46,1.29l.35,3.45a34.27,34.27,0,0,1,8.1-4.44,23.68,23.68,0,0,1,8.37-1.6q8.1,0,10.86,6.65a31.62,31.62,0,0,1,8.67-5,25.55,25.55,0,0,1,9-1.69"/><g class="cls-7"><g id="g30"><path id="path36" class="cls-1" d="M921.56,131.39h75.66V73H921.56v58.35"/></g></g></g><path id="path38" class="cls-5" d="M1016.34,103.6q-12.06,0-12.07,9.32,0,8.1,8.54,8.11a21.83,21.83,0,0,0,7.07-1.3,34.74,34.74,0,0,0,7.67-3.79V105.15a44,44,0,0,0-11.21-1.55m1.21-23.73q14.92,0,14.92,12.86v30.54a1.14,1.14,0,0,1-1.29,1.29h-1.81a1.22,1.22,0,0,1-1.38-1.29l-.35-3.71q-7.41,6-15.52,6-6,0-9.44-3.41a12.12,12.12,0,0,1-3.5-9.1,12.36,12.36,0,0,1,4.27-9.92q4.27-3.61,11.77-3.62a38.42,38.42,0,0,1,6,.52,43.36,43.36,0,0,1,6.29,1.46V94.2q0-5.26-2.5-7.55c-1.67-1.53-4.42-2.29-8.28-2.29a40.61,40.61,0,0,0-11.29,1.73c-.63.17-1.14.33-1.51.47a2.61,2.61,0,0,1-.91.22c-.69,0-1-.38-1-1.13V84.27a1.67,1.67,0,0,1,1.12-1.72,38,38,0,0,1,7-2,39.85,39.85,0,0,1,7.37-.7"/><g id="g40"><path class="cls-1" d="M1016.34,103.6q-12.06,0-12.07,9.32,0,8.1,8.54,8.11a21.83,21.83,0,0,0,7.07-1.3,34.74,34.74,0,0,0,7.67-3.79V105.15a44,44,0,0,0-11.21-1.55m1.21-23.73q14.92,0,14.92,12.86v30.54a1.14,1.14,0,0,1-1.29,1.29h-1.81a1.22,1.22,0,0,1-1.38-1.29l-.35-3.71q-7.41,6-15.52,6-6,0-9.44-3.41a12.12,12.12,0,0,1-3.5-9.1,12.36,12.36,0,0,1,4.27-9.92q4.27-3.61,11.77-3.62a38.42,38.42,0,0,1,6,.52,43.36,43.36,0,0,1,6.29,1.46V94.2q0-5.26-2.5-7.55c-1.67-1.53-4.42-2.29-8.28-2.29a40.61,40.61,0,0,0-11.29,1.73c-.63.17-1.14.33-1.51.47a2.61,2.61,0,0,1-.91.22c-.69,0-1-.38-1-1.13V84.27a1.67,1.67,0,0,1,1.12-1.72,38,38,0,0,1,7-2,39.85,39.85,0,0,1,7.37-.7"/><g class="cls-8"><g id="g42"><path id="path48" class="cls-1" d="M992.35,132.34h46.95V73H992.35v59.3"/></g></g></g><path id="path50" class="cls-5" d="M1073.69,121.54v1.73a1.14,1.14,0,0,1-1.3,1.29H1042a1.14,1.14,0,0,1-1.29-1.29v-1.81a3.71,3.71,0,0,1,.21-1.38,4.6,4.6,0,0,1,.82-1.21L1068,85.48h-25.1a1.14,1.14,0,0,1-1.29-1.29V82.46a1.14,1.14,0,0,1,1.29-1.29h29.32a1.14,1.14,0,0,1,1.29,1.29v1.81a3.94,3.94,0,0,1-.21,1.3,4.69,4.69,0,0,1-.91,1.38l-26.3,33.3h26.3a1.14,1.14,0,0,1,1.3,1.29"/><g id="g52"><path class="cls-1" d="M1073.69,121.54v1.73a1.14,1.14,0,0,1-1.3,1.29H1042a1.14,1.14,0,0,1-1.29-1.29v-1.81a3.71,3.71,0,0,1,.21-1.38,4.6,4.6,0,0,1,.82-1.21L1068,85.48h-25.1a1.14,1.14,0,0,1-1.29-1.29V82.46a1.14,1.14,0,0,1,1.29-1.29h29.32a1.14,1.14,0,0,1,1.29,1.29v1.81a3.94,3.94,0,0,1-.21,1.3,4.69,4.69,0,0,1-.91,1.38l-26.3,33.3h26.3a1.14,1.14,0,0,1,1.3,1.29"/><g class="cls-9"><g id="g54"><path id="path60" class="cls-1" d="M1033.92,131.39h46.6v-57h-46.6v57"/></g></g></g><path id="path62" class="cls-5" d="M1099,121.37q14.91,0,14.92-18.55T1099,84.36q-14.93,0-14.92,18.46T1099,121.37m0,4.49q-9.4,0-14.71-6t-5.3-17q0-11,5.3-17t14.71-6q9.39,0,14.7,6t5.3,17q0,11.06-5.3,17t-14.7,6"/><g id="g64"><path class="cls-1" d="M1099,121.37q14.91,0,14.92-18.55T1099,84.36q-14.93,0-14.92,18.46T1099,121.37m0,4.49q-9.4,0-14.71-6t-5.3-17q0-11,5.3-17t14.71-6q9.39,0,14.7,6t5.3,17q0,11.06-5.3,17t-14.7,6"/><g class="cls-10"><g id="g66"><path id="path72" class="cls-1" d="M1072.2,132.69h53.67V73H1072.2v59.65"/></g></g></g><path id="path74" class="cls-5" d="M1151.29,79.87q6.38,0,9.66,3.33t3.28,9.79v30.28a1.15,1.15,0,0,1-1.3,1.29h-2.33a1.14,1.14,0,0,1-1.29-1.29V95.06q0-5.7-2.16-8.2t-6.89-2.5a26.82,26.82,0,0,0-8.71,1.42,35,35,0,0,0-8.11,4.1v33.39a1.14,1.14,0,0,1-1.29,1.29h-2.33a1.14,1.14,0,0,1-1.29-1.29V82.46a1.14,1.14,0,0,1,1.29-1.29h1.73a1.32,1.32,0,0,1,1.46,1.29l.35,3.71a34.43,34.43,0,0,1,8.79-4.66,27.47,27.47,0,0,1,9.14-1.64"/><g id="g76"><path class="cls-1" d="M1151.29,79.87q6.38,0,9.66,3.33t3.28,9.79v30.28a1.15,1.15,0,0,1-1.3,1.29h-2.33a1.14,1.14,0,0,1-1.29-1.29V95.06q0-5.7-2.16-8.2t-6.89-2.5a26.82,26.82,0,0,0-8.71,1.42,35,35,0,0,0-8.11,4.1v33.39a1.14,1.14,0,0,1-1.29,1.29h-2.33a1.14,1.14,0,0,1-1.29-1.29V82.46a1.14,1.14,0,0,1,1.29-1.29h1.73a1.32,1.32,0,0,1,1.46,1.29l.35,3.71a34.43,34.43,0,0,1,8.79-4.66,27.47,27.47,0,0,1,9.14-1.64"/><g class="cls-11"><g id="g78"><path id="path84" class="cls-1" d="M1121.7,131.39h49.35V73H1121.7v58.35"/></g></g></g><path id="path86" class="cls-5" d="M1355.06,103.6q-12.07,0-12.07,9.32,0,8.1,8.54,8.11a21.83,21.83,0,0,0,7.07-1.3,35,35,0,0,0,7.67-3.79V105.15A44,44,0,0,0,1355.06,103.6Zm1.21-23.73q14.91,0,14.92,12.86v30.54a1.15,1.15,0,0,1-1.3,1.29h-1.81a1.23,1.23,0,0,1-1.38-1.29l-.34-3.71q-7.42,6-15.52,6-6,0-9.45-3.41a12.15,12.15,0,0,1-3.49-9.1,12.36,12.36,0,0,1,4.27-9.92q4.27-3.61,11.77-3.62a38.42,38.42,0,0,1,6,.52,43.36,43.36,0,0,1,6.29,1.46V94.2q0-5.26-2.5-7.55t-8.28-2.29a40.55,40.55,0,0,0-11.29,1.73c-.64.17-1.14.33-1.51.47a2.61,2.61,0,0,1-.91.22c-.69,0-1-.38-1-1.13V84.27a1.67,1.67,0,0,1,1.12-1.72,37.76,37.76,0,0,1,7-2,39.77,39.77,0,0,1,7.37-.7Zm-41.88,25.54-12.51,18.2a2.12,2.12,0,0,1-1.81,1h-2.41c-.75,0-1.12-.31-1.12-1a2.41,2.41,0,0,1,.6-1.12L1311.89,102l-13.46-18.81a2.64,2.64,0,0,1-.51-1c0-.64.37-1,1.12-1h2.67a2.12,2.12,0,0,1,1.81,1l11.3,16,11.29-16a2.06,2.06,0,0,1,1.73-1h2.33c.74,0,1.12.31,1.12,1a2.48,2.48,0,0,1-.52,1.12l-13.28,18.38,14.75,20.87a2.59,2.59,0,0,1,.51,1.12c0,.64-.37,1-1.12,1H1329a2,2,0,0,1-1.72-1Zm-39.83-21.14q-6.46,0-10.21,3.8t-4.53,11.13a53.46,53.46,0,0,0,6.68,1.29,51.32,51.32,0,0,0,6.68.43q6.48,0,9.49-1.89a6.62,6.62,0,0,0,3-6q0-8.71-11.13-8.72Zm11,35.63a15.07,15.07,0,0,0,1.63-.56,2.56,2.56,0,0,1,.95-.21c.69,0,1,.37,1,1.12v1.21a1.78,1.78,0,0,1-1,1.81,34.05,34.05,0,0,1-13.19,2.59q-9.91,0-15.14-5.74t-5.21-16.78a32.66,32.66,0,0,1,1.37-9.79,20.92,20.92,0,0,1,4-7.42,17.11,17.11,0,0,1,6.43-4.66,21.89,21.89,0,0,1,8.54-1.6c5,0,8.86,1.16,11.59,3.45s4.1,5.53,4.1,9.67-1.45,7.09-4.35,9-7.41,2.89-13.5,2.89a58.68,58.68,0,0,1-6.6-.38,41,41,0,0,1-6.59-1.34q0,9.31,3.92,13.76t11.77,4.44A36.59,36.59,0,0,0,1285.52,119.9Zm-47-57.88a1.14,1.14,0,0,1,1.29-1.3h2.33a1.14,1.14,0,0,1,1.29,1.3v55a3.86,3.86,0,0,0,.73,2.67,3.55,3.55,0,0,0,2.63.78,8.53,8.53,0,0,0,1.17-.09,9.8,9.8,0,0,1,1.08-.08,1.06,1.06,0,0,1,1.2,1.2v1.64a1.25,1.25,0,0,1-1.12,1.3,7.41,7.41,0,0,1-1.51.26c-.66.05-1.25.08-1.77.08a7.06,7.06,0,0,1-5.38-2,7.8,7.8,0,0,1-1.94-5.65Zm-27.51,41.58q-12.08,0-12.07,9.32,0,8.1,8.53,8.11a21.78,21.78,0,0,0,7.07-1.3,35,35,0,0,0,7.68-3.79V105.15A44,44,0,0,0,1211.05,103.6Zm1.21-23.73q14.91,0,14.91,12.86v30.54a1.14,1.14,0,0,1-1.29,1.29h-1.81a1.23,1.23,0,0,1-1.38-1.29l-.34-3.71q-7.42,6-15.53,6-5.94,0-9.44-3.41a12.11,12.11,0,0,1-3.49-9.1,12.33,12.33,0,0,1,4.27-9.92q4.26-3.61,11.77-3.62a38.2,38.2,0,0,1,6,.52,43.19,43.19,0,0,1,6.3,1.46V94.2c0-3.51-.84-6-2.5-7.55s-4.43-2.29-8.28-2.29a40.68,40.68,0,0,0-11.3,1.73c-.63.17-1.13.33-1.5.47a2.61,2.61,0,0,1-.91.22c-.69,0-1-.38-1-1.13V84.27a1.68,1.68,0,0,1,1.13-1.72,37.66,37.66,0,0,1,7-2,39.87,39.87,0,0,1,7.38-.7"/><g id="g88"><path class="cls-1" d="M1355.06,103.6q-12.07,0-12.07,9.32,0,8.1,8.54,8.11a21.83,21.83,0,0,0,7.07-1.3,35,35,0,0,0,7.67-3.79V105.15A44,44,0,0,0,1355.06,103.6Zm1.21-23.73q14.91,0,14.92,12.86v30.54a1.15,1.15,0,0,1-1.3,1.29h-1.81a1.23,1.23,0,0,1-1.38-1.29l-.34-3.71q-7.42,6-15.52,6-6,0-9.45-3.41a12.15,12.15,0,0,1-3.49-9.1,12.36,12.36,0,0,1,4.27-9.92q4.27-3.61,11.77-3.62a38.42,38.42,0,0,1,6,.52,43.36,43.36,0,0,1,6.29,1.46V94.2q0-5.26-2.5-7.55t-8.28-2.29a40.55,40.55,0,0,0-11.29,1.73c-.64.17-1.14.33-1.51.47a2.61,2.61,0,0,1-.91.22c-.69,0-1-.38-1-1.13V84.27a1.67,1.67,0,0,1,1.12-1.72,37.76,37.76,0,0,1,7-2,39.77,39.77,0,0,1,7.37-.7Zm-41.88,25.54-12.51,18.2a2.12,2.12,0,0,1-1.81,1h-2.41c-.75,0-1.12-.31-1.12-1a2.41,2.41,0,0,1,.6-1.12L1311.89,102l-13.46-18.81a2.64,2.64,0,0,1-.51-1c0-.64.37-1,1.12-1h2.67a2.12,2.12,0,0,1,1.81,1l11.3,16,11.29-16a2.06,2.06,0,0,1,1.73-1h2.33c.74,0,1.12.31,1.12,1a2.48,2.48,0,0,1-.52,1.12l-13.28,18.38,14.75,20.87a2.59,2.59,0,0,1,.51,1.12c0,.64-.37,1-1.12,1H1329a2,2,0,0,1-1.72-1Zm-39.83-21.14q-6.46,0-10.21,3.8t-4.53,11.13a53.46,53.46,0,0,0,6.68,1.29,51.32,51.32,0,0,0,6.68.43q6.48,0,9.49-1.89a6.62,6.62,0,0,0,3-6q0-8.71-11.13-8.72Zm11,35.63a15.07,15.07,0,0,0,1.63-.56,2.56,2.56,0,0,1,.95-.21c.69,0,1,.37,1,1.12v1.21a1.78,1.78,0,0,1-1,1.81,34.05,34.05,0,0,1-13.19,2.59q-9.91,0-15.14-5.74t-5.21-16.78a32.66,32.66,0,0,1,1.37-9.79,20.92,20.92,0,0,1,4-7.42,17.11,17.11,0,0,1,6.43-4.66,21.89,21.89,0,0,1,8.54-1.6c5,0,8.86,1.16,11.59,3.45s4.1,5.53,4.1,9.67-1.45,7.09-4.35,9-7.41,2.89-13.5,2.89a58.68,58.68,0,0,1-6.6-.38,41,41,0,0,1-6.59-1.34q0,9.31,3.92,13.76t11.77,4.44A36.59,36.59,0,0,0,1285.52,119.9Zm-47-57.88a1.14,1.14,0,0,1,1.29-1.3h2.33a1.14,1.14,0,0,1,1.29,1.3v55a3.86,3.86,0,0,0,.73,2.67,3.55,3.55,0,0,0,2.63.78,8.53,8.53,0,0,0,1.17-.09,9.8,9.8,0,0,1,1.08-.08,1.06,1.06,0,0,1,1.2,1.2v1.64a1.25,1.25,0,0,1-1.12,1.3,7.41,7.41,0,0,1-1.51.26c-.66.05-1.25.08-1.77.08a7.06,7.06,0,0,1-5.38-2,7.8,7.8,0,0,1-1.94-5.65Zm-27.51,41.58q-12.08,0-12.07,9.32,0,8.1,8.53,8.11a21.78,21.78,0,0,0,7.07-1.3,35,35,0,0,0,7.68-3.79V105.15A44,44,0,0,0,1211.05,103.6Zm1.21-23.73q14.91,0,14.91,12.86v30.54a1.14,1.14,0,0,1-1.29,1.29h-1.81a1.23,1.23,0,0,1-1.38-1.29l-.34-3.71q-7.42,6-15.53,6-5.94,0-9.44-3.41a12.11,12.11,0,0,1-3.49-9.1,12.33,12.33,0,0,1,4.27-9.92q4.26-3.61,11.77-3.62a38.2,38.2,0,0,1,6,.52,43.19,43.19,0,0,1,6.3,1.46V94.2c0-3.51-.84-6-2.5-7.55s-4.43-2.29-8.28-2.29a40.68,40.68,0,0,0-11.3,1.73c-.63.17-1.13.33-1.5.47a2.61,2.61,0,0,1-.91.22c-.69,0-1-.38-1-1.13V84.27a1.68,1.68,0,0,1,1.13-1.72,37.66,37.66,0,0,1,7-2,39.87,39.87,0,0,1,7.38-.7Z"/><g class="cls-12"><g id="g90"><path id="path96" class="cls-1" d="M1187.06,132.69h191V53.89h-191v78.8"/></g></g></g><path id="path98" class="cls-13" d="M800.1,52.52a45,45,0,0,0-6,89.6v-9.07a6,6,0,0,0-4-5.66,31.5,31.5,0,1,1,41.52-29.87c0,.39,0,.79,0,1.18a2.35,2.35,0,0,1,0,.26c0,.36,0,.72-.06,1.08,0,.12,0,.23,0,.35s0,.5-.07.75-.07.56-.11.84c0,.13,0,.25,0,.38-3.86,25.41-36.93,39.68-37.11,39.76a45.54,45.54,0,0,0,6,.4,45,45,0,0,0,0-90"/><g id="g100"><g class="cls-14"><g id="g102"><path id="path108" class="cls-15" d="M748.3,149.35H851.91V45.69H748.3V149.35"/></g></g></g></g></g></svg>