<svg xmlns="http://www.w3.org/2000/svg" viewBox="0 0 1400 200"><defs><style>.cls-1{fill:#feb400;}.cls-2{fill:none;stroke:#5f5f60;stroke-miterlimit:10;}.cls-3{fill:#dd6f10;}.cls-4{fill:#ef7925;}.cls-4,.cls-5{fill-rule:evenodd;}.cls-5,.cls-6{fill:#ccc;}</style></defs><title>HOOBS_x_landroid</title><g id="HOOBS_LOGO" data-name="HOOBS LOGO"><path class="cls-1" d="M152.1,39.5H77.79A22.36,22.36,0,0,0,55.63,61.92v75.16A22.36,22.36,0,0,0,77.79,159.5H152.1a22.36,22.36,0,0,0,22.16-22.42V61.92A22.36,22.36,0,0,0,152.1,39.5Zm3,57.94a3.11,3.11,0,0,1-2.65,2.53,2.6,2.6,0,0,1-3.1-1.4c-1.22-3.28-3.9-5.27-6.23-7.51a8.46,8.46,0,0,1-2.91-7.15c.14-1.83,0-3.69,0-5.53h0c0-2.46,0-4.92,0-7.38,0-2.23-1.38-2.65-3.19-2.61s-3.9-.31-4,2.45c-.1,2.23,0,4.46-.08,6.69,0,.73.37,1.78-.35,2.14s-1.23-.67-1.74-1.16c-4.88-4.62-9.77-9.23-14.57-13.94-1.48-1.45-2.59-1.42-4,0q-15.85,16.1-31.81,32.1c-1.39,1.39-1.57,2.51,0,3.79.35.3.64.66,1,1,2.09,2.07,2.41,2,4.64-.06C93,95,99.53,88.09,106.27,81.43c1.41-1.39,2.91-2.7,4.35-4.06,2.71-2.57,5.82-2.66,8.51-.05,2.91,2.82,5.7,5.76,8.57,8.62,5.31,5.28,10.67,10.51,16,15.81,3.49,3.48,3.44,6.58,0,10.12-5.42,5.51-7.54,5.49-13,0-4.76-4.75-9.64-9.38-14.39-14.14-1.49-1.5-2.61-1.35-4,.1q-7.6,7.8-15.34,15.48c-1.35,1.33-1.35,2.43,0,3.68.5.47,1,.95,1.45,1.47,1.22,1.37,2.35,1.36,3.67,0,2.7-2.7,5.48-5.32,8.23-8s6-2.78,8.74-.2q4.59,4.32,9,8.83a5.89,5.89,0,0,1,0,8.48c-2,2.19-4.18,4.25-6.27,6.38a12.38,12.38,0,0,0-3.29,4.33,2.74,2.74,0,0,1-3.12,1.82,3,3,0,0,1-2.73-2.41,3.1,3.1,0,0,1,1.61-3.71c4.35-2.08,6.84-6.22,10.3-9.28a1.59,1.59,0,0,0,0-2.6c-2.75-2.76-5.49-5.53-8.25-8.28-1.11-1.12-2.13-.82-3.16.2-2.73,2.67-5.51,5.3-8.24,8s-5.82,2.83-8.75.39c-.76-.64-1.45-1.37-2.14-2.08-3.52-3.61-3.54-6.78,0-10.34q7.74-7.83,15.5-15.64c3.3-3.31,6.41-3.34,9.74-.08Q127,102,134.8,109.74c2.23,2.18,2.48,2.15,5.12-.54,2.23-2.28,2.26-2.62.05-4.83-7.74-7.72-15.51-15.4-23.22-23.15-1.31-1.32-2.34-1.41-3.65-.11-3.57,3.56-7.18,7.08-10.77,10.62q-7.11,7-14.23,14a5.85,5.85,0,0,1-8.58.2c-5.65-5.14-7-7.85-.5-14.2,10.21-9.89,20.08-20.14,30.09-30.24,3.58-3.6,6.67-3.61,10.25-.1,2.46,2.4,5,4.74,7.44,7.14,1,1,1.69,1.58,2.23-.45a5.07,5.07,0,0,1,4.41-3.82,22.64,22.64,0,0,1,2.72-.31c6.33-.17,8.55,2,8.57,8.43,0,3.85,0,7.69,0,11.54a4.59,4.59,0,0,0,1.57,3.87c2.46,2.13,4.24,5,7.44,6.32A2.8,2.8,0,0,1,155.13,97.44Z"/><path class="cls-1" d="M276.93,40.9v81.53H258.06V89H221v33.43H202.15V40.9H221V73h37V40.9Zm14.21,40.76c0-24.22,18.87-42.16,44.61-42.16s44.61,17.82,44.61,42.16-19,42.17-44.61,42.17S291.14,105.89,291.14,81.66Zm70.12,0c0-15.49-10.95-26.09-25.51-26.09s-25.51,10.6-25.51,26.09,10.95,26.1,25.51,26.1S361.26,97.15,361.26,81.66Zm28.19,0c0-24.22,18.87-42.16,44.61-42.16s44.61,17.82,44.61,42.16-19,42.17-44.61,42.17S389.45,105.89,389.45,81.66Zm70.12,0c0-15.49-10.95-26.09-25.51-26.09s-25.51,10.6-25.51,26.09,10.95,26.1,25.51,26.1S459.57,97.15,459.57,81.66Zm108.09,18.52c0,14.1-11.18,22.25-32.61,22.25H492.88V40.9h39.84c20.38,0,30.87,8.5,30.87,21.2A19.59,19.59,0,0,1,552.75,80C561.84,82.94,567.66,89.93,567.66,100.18Zm-56-45.07V74.33h18.75c9.2,0,14.21-3.27,14.21-9.67s-5-9.55-14.21-9.55Zm37,43.09c0-6.87-5.24-10.13-15-10.13h-22v20.15h22C543.44,108.22,548.68,105.19,548.68,98.2Zm26.9,16.19L582,100.18a47.94,47.94,0,0,0,26.91,8.51c11.18,0,15.72-3.73,15.72-8.74,0-15.26-47.4-4.77-47.4-35.06,0-13.86,11.18-25.39,34.36-25.39,10.25,0,20.73,2.45,28.3,7.22l-5.82,14.33a46.07,46.07,0,0,0-22.6-6.41C600.28,54.64,596,58.83,596,64c0,15,47.4,4.66,47.4,34.59,0,13.63-11.29,25.28-34.59,25.28C595.85,123.83,582.81,120,575.58,114.39Z"/><path class="cls-1" d="M201.05,137.31h2.7v8.77H215v-8.77h2.72V157H215v-8.45H203.75V157h-2.7Z"/><path class="cls-1" d="M237.12,138.47a9.83,9.83,0,0,1,3.75,3.6,9.61,9.61,0,0,1,1.38,5.05,9.75,9.75,0,0,1-1.38,5.07,9.89,9.89,0,0,1-3.75,3.65,10.87,10.87,0,0,1-10.42,0,10,10,0,0,1-3.75-3.65,9.84,9.84,0,0,1-1.37-5.07,9.69,9.69,0,0,1,1.37-5.05,10,10,0,0,1,3.74-3.6,11,11,0,0,1,10.43,0Zm-9,2.1a7.74,7.74,0,0,0-2.8,2.74,7.5,7.5,0,0,0,0,7.62,7.67,7.67,0,0,0,2.8,2.77,7.33,7.33,0,0,0,3.8,1,7.21,7.21,0,0,0,3.78-1,7.61,7.61,0,0,0,2.75-2.77,7.56,7.56,0,0,0,0-7.62,7.68,7.68,0,0,0-2.75-2.74,7.38,7.38,0,0,0-3.78-1A7.5,7.5,0,0,0,228.14,140.57Z"/><path class="cls-1" d="M246.12,137.31h3.21l7.19,13.82,7.13-13.82h3.23V157h-2.53l0-15.7-7,13.63h-1.66l-7-13.63V157h-2.5Z"/><path class="cls-1" d="M272.5,137.31h13.64v2.45H275.19v6.06H285v2.45h-9.8v6.26h11.29V157h-14Z"/><path class="cls-1" d="M304,138.62a4.27,4.27,0,0,1,1.73,3.61,4.39,4.39,0,0,1-.95,2.85,4.63,4.63,0,0,1-2.62,1.56,5.09,5.09,0,0,1,3.22,1.64,4.87,4.87,0,0,1,1.17,3.33,4.65,4.65,0,0,1-1.9,3.94,8.54,8.54,0,0,1-5.24,1.42h-8.54V137.31h8.4A7.68,7.68,0,0,1,304,138.62Zm-2,6.26a2.6,2.6,0,0,0,1-2.2,2.53,2.53,0,0,0-1-2.16,4.41,4.41,0,0,0-2.82-.73h-5.56v5.87h5.56A4.47,4.47,0,0,0,301.91,144.88Zm.61,8.79a2.76,2.76,0,0,0,1.23-2.4,2.67,2.67,0,0,0-1.23-2.33,6.06,6.06,0,0,0-3.43-.84h-5.56v6.4h5.56A5.83,5.83,0,0,0,302.52,153.67Z"/><path class="cls-1" d="M323.52,157l-3.9-6.17c-.45,0-.81,0-1.1,0h-5V157h-2.7V137.31h7.69A8.71,8.71,0,0,1,324.3,139a6.1,6.1,0,0,1,2,4.9,7,7,0,0,1-1.11,4,6.27,6.27,0,0,1-3.18,2.36l4.57,6.65Zm-5-8.56a6,6,0,0,0,3.88-1.11,4,4,0,0,0,1.35-3.27,3.84,3.84,0,0,0-1.35-3.19,6.08,6.08,0,0,0-3.88-1.08h-5v8.65Z"/><path class="cls-1" d="M331.13,137.31h2.7V157h-2.7Z"/><path class="cls-1" d="M352.63,138.59a9.36,9.36,0,0,1,3.64,3.53,10.19,10.19,0,0,1,0,10,9.51,9.51,0,0,1-3.67,3.53,10.67,10.67,0,0,1-5.22,1.27h-7.92V137.31h8A10.55,10.55,0,0,1,352.63,138.59Zm-1.4,15a7,7,0,0,0,2.64-2.64,7.34,7.34,0,0,0,1-3.76,7.43,7.43,0,0,0-1-3.79,7.13,7.13,0,0,0-2.69-2.65,7.43,7.43,0,0,0-3.77-1h-5.26v14.77h5.37A7.34,7.34,0,0,0,351.23,153.57Z"/><path class="cls-1" d="M374.41,147.37h2.39v7.22a12.08,12.08,0,0,1-3.48,1.88,11.82,11.82,0,0,1-4,.7,10.37,10.37,0,0,1-5.2-1.33,10,10,0,0,1-3.72-3.65,9.83,9.83,0,0,1-1.36-5.07,9.69,9.69,0,0,1,1.37-5.05,10,10,0,0,1,3.77-3.6,10.72,10.72,0,0,1,5.28-1.32,11.27,11.27,0,0,1,4,.73,10.6,10.6,0,0,1,3.38,2l-1.54,2a8.73,8.73,0,0,0-5.84-2.31,7.72,7.72,0,0,0-3.88,1,7.54,7.54,0,0,0-2.79,2.76,7.32,7.32,0,0,0-1,3.82,7.42,7.42,0,0,0,1,3.83,7.7,7.7,0,0,0,6.69,3.8,8.27,8.27,0,0,0,2.51-.4,9.26,9.26,0,0,0,2.37-1.14Z"/><path class="cls-1" d="M381.91,137.31h13.65v2.45H384.61v6.06h9.8v2.45h-9.8v6.26H395.9V157h-14Z"/><path class="cls-1" d="M421.41,138.47a10,10,0,0,1,3.75,3.6,9.61,9.61,0,0,1,1.38,5.05,9.75,9.75,0,0,1-1.38,5.07,10,10,0,0,1-3.75,3.65,10.87,10.87,0,0,1-10.42,0,10,10,0,0,1-3.75-3.65,9.75,9.75,0,0,1-1.37-5.07,9.6,9.6,0,0,1,1.37-5.05,10,10,0,0,1,3.74-3.6,11,11,0,0,1,10.43,0Zm-9,2.1a7.71,7.71,0,0,0-2.79,2.74,7.5,7.5,0,0,0,0,7.62,7.64,7.64,0,0,0,2.79,2.77,7.36,7.36,0,0,0,3.81,1,7.21,7.21,0,0,0,3.78-1,7.61,7.61,0,0,0,2.75-2.77,7.63,7.63,0,0,0,0-7.62,7.68,7.68,0,0,0-2.75-2.74,7.38,7.38,0,0,0-3.78-1A7.54,7.54,0,0,0,412.42,140.57Z"/><path class="cls-1" d="M434.19,153.2a5.53,5.53,0,0,0,4.14,1.53,5.45,5.45,0,0,0,4.1-1.53,5.86,5.86,0,0,0,1.49-4.26V137.31h2.7v11.63a8.13,8.13,0,0,1-2.21,6,8.24,8.24,0,0,1-6.08,2.19,8.34,8.34,0,0,1-6.12-2.19,8.09,8.09,0,0,1-2.22-6V137.31h2.7v11.63A5.83,5.83,0,0,0,434.19,153.2Z"/><path class="cls-1" d="M449.29,137.31h15.36v2.48H458.3V157h-2.7V139.79h-6.31Z"/><path class="cls-1" d="M488.9,138.47a10,10,0,0,1,3.75,3.6,9.69,9.69,0,0,1,1.37,5.05,9.84,9.84,0,0,1-1.37,5.07,10,10,0,0,1-3.75,3.65,10.87,10.87,0,0,1-10.42,0,10,10,0,0,1-3.75-3.65,9.75,9.75,0,0,1-1.38-5.07,9.61,9.61,0,0,1,1.38-5.05,10,10,0,0,1,3.73-3.6,11,11,0,0,1,10.44,0Zm-9,2.1a7.71,7.71,0,0,0-2.79,2.74,7.5,7.5,0,0,0,0,7.62,7.64,7.64,0,0,0,2.79,2.77,7.36,7.36,0,0,0,3.81,1,7.2,7.2,0,0,0,3.77-1,7.64,7.64,0,0,0,2.76-2.77,7.63,7.63,0,0,0,0-7.62,7.71,7.71,0,0,0-2.76-2.74,7.37,7.37,0,0,0-3.77-1A7.54,7.54,0,0,0,479.91,140.57Z"/><path class="cls-1" d="M497.9,137.31h12.8l0,2.45H500.59v6.46h9.08v2.44h-9.08V157H497.9Z"/><path class="cls-1" d="M518.68,137.31H534v2.48H527.7V157H525V139.79h-6.32Z"/><path class="cls-1" d="M537.13,137.31h2.7v8.77h11.23v-8.77h2.72V157h-2.72v-8.45H539.83V157h-2.7Z"/><path class="cls-1" d="M559.4,137.31h13.65v2.45H562.1v6.06h9.8v2.45h-9.8v6.26h11.29V157h-14Z"/><path class="cls-1" d="M598.23,138.62a4.27,4.27,0,0,1,1.73,3.61,4.35,4.35,0,0,1-1,2.85,4.64,4.64,0,0,1-2.61,1.56,5,5,0,0,1,3.21,1.64,4.87,4.87,0,0,1,1.17,3.33,4.63,4.63,0,0,1-1.9,3.94,8.53,8.53,0,0,1-5.23,1.42H585.1V137.31h8.4A7.68,7.68,0,0,1,598.23,138.62Zm-2.05,6.26a2.63,2.63,0,0,0,1-2.2,2.55,2.55,0,0,0-1-2.16,4.44,4.44,0,0,0-2.82-.73H587.8v5.87h5.56A4.5,4.5,0,0,0,596.18,144.88Zm.6,8.79a2.74,2.74,0,0,0,1.24-2.4,2.66,2.66,0,0,0-1.24-2.33,6,6,0,0,0-3.42-.84H587.8v6.4h5.56A5.78,5.78,0,0,0,596.78,153.67Z"/><path class="cls-1" d="M618.9,138.47a10,10,0,0,1,3.75,3.6,9.69,9.69,0,0,1,1.37,5.05,9.84,9.84,0,0,1-1.37,5.07,10,10,0,0,1-3.75,3.65,10.87,10.87,0,0,1-10.42,0,10,10,0,0,1-3.75-3.65,9.75,9.75,0,0,1-1.38-5.07,9.61,9.61,0,0,1,1.38-5.05,10,10,0,0,1,3.74-3.6,11,11,0,0,1,10.43,0Zm-9,2.1a7.71,7.71,0,0,0-2.79,2.74,7.5,7.5,0,0,0,0,7.62,7.64,7.64,0,0,0,2.79,2.77,7.36,7.36,0,0,0,3.81,1,7.2,7.2,0,0,0,3.77-1,7.64,7.64,0,0,0,2.76-2.77,7.63,7.63,0,0,0,0-7.62,7.71,7.71,0,0,0-2.76-2.74,7.37,7.37,0,0,0-3.77-1A7.54,7.54,0,0,0,609.91,140.57Z"/><path class="cls-1" d="M626.13,137.31h3.15l5.16,7.34,5.2-7.34h3.17l-6.65,9.44L643.37,157h-3.23l-5.7-7.95L628.8,157h-3.18l7.19-10.11Z"/></g><g id="Stroke"><line class="cls-2" x1="700.5" y1="60" x2="700.5" y2="140"/></g><g id="landroid"><path class="cls-3" d="M780.15,81.68l8.43-40.16H766.76l-11.4,55H797l3-14.88Zm47.6-40.16-29.25,55h20.82l4-8.93h15.87l.49,8.93H862l-6-55Zm10.91,32.73h-9.42l8.92-20.83h0Zm73.89-32.73L905.6,74.74h0l-4.46-33.22H874.86l-11.9,55h17.85l6.94-33.22h0l4.46,33.22H918.5l11.4-55Zm47.6,0H934.36l-11.9,55h27.28c16.85,0,29.75-10.41,33.22-26.78,4-16.36-.5-28.26-22.81-28.26m1,27.77c-1,5.45-2.48,9.42-4.46,11.4s-4,3.47-7.44,3.47h-2l6.44-29.75h2c3.47,0,5.45,1.49,5.95,3.47,1,2,.49,5.95-.5,11.41M1040,55.4c2-10.41-4-13.88-15.86-13.88H991.88l-11.4,55h21.32l4-19.34h2.48c3.47,0,4.46,1,4.46,4,0,4.46-1,11.4-.5,15.87h21.33c-1-8.43,1-15.87,1-20.83,0-4-2.48-6.45-7.94-6.94h0c8.43-2.48,11.91-7.44,13.39-13.89m-21.82,3.47c-1,4-4.46,5.46-8.42,5.46h-1.49l2-10.41h2c4.47,0,6.95,1,5.95,4.95M1072.21,40c-18.84,0-30.74,11.9-34.21,28.76s3.47,28.76,22.31,28.76,30.75-11.9,34.22-28.76S1091.06,40,1072.21,40m-.49,29.26c-2.48,12.89-5.46,14.38-8.93,14.38s-5.45-2-3-14.38,5.45-14.38,8.92-14.38c4-.5,5.46,2,3,14.38M1103,41.52l-11.41,55h21.82l11.9-55Zm51.57,0h-25.79l-11.9,55h27.28c16.85,0,29.75-10.41,33.22-26.78s-1-28.26-22.81-28.26m.49,27.77c-1,5.45-2.47,9.42-4.46,11.4s-4,3.47-7.44,3.47h-2l6.45-29.75h2c3.47,0,5.45,1.49,6,3.47,1,2,.5,5.95-.5,11.41"/><path class="cls-3" d="M1110.4,117.39c-1,3.47-3.47,5.45-7.94,5.45s-6.44-2-6-5.45l2-9.92h6l-2,9.42c0,1,0,1.49,1,1.49a1.59,1.59,0,0,0,1.49-1.49l2-9.42h6Z"/><polygon class="cls-3" points="1114.36 107.47 1121.31 107.47 1122.3 116.39 1122.3 116.39 1124.28 107.47 1129.24 107.47 1125.77 122.34 1118.83 122.34 1117.83 113.42 1117.83 113.42 1115.85 122.34 1110.89 122.34 1114.36 107.47"/><polygon class="cls-3" points="1144.12 111.93 1144.12 111.93 1140.15 122.34 1134.69 122.34 1134.69 111.93 1134.69 111.93 1132.71 122.34 1127.75 122.34 1130.73 107.47 1138.66 107.47 1138.66 116.39 1138.66 116.39 1142.13 107.47 1150.07 107.47 1147.09 122.34 1142.13 122.34 1144.12 111.93"/><path class="cls-3" d="M1155,107.47h7.44l1.49,14.88h-6v-2.48h-4.46l-1,2.48h-5.45Zm3,8.92v-5.45h0l-2.48,5.45Z"/><polygon class="cls-3" points="1167.92 107.47 1174.86 107.47 1176.35 116.39 1176.35 116.39 1178.33 107.47 1182.79 107.47 1179.82 122.34 1172.88 122.34 1171.39 113.42 1171.39 113.42 1169.4 122.34 1164.94 122.34 1167.92 107.47"/><polygon class="cls-3" points="1184.28 107.47 1191.22 107.47 1192.71 116.39 1192.71 116.39 1194.69 107.47 1199.16 107.47 1196.18 122.34 1189.24 122.34 1187.75 113.42 1187.75 113.42 1185.77 122.34 1181.31 122.34 1184.28 107.47"/><polygon class="cls-3" points="1201.14 107.47 1212.05 107.47 1211.06 111.44 1205.6 111.44 1205.11 112.92 1210.56 112.92 1209.57 116.89 1204.61 116.89 1204.12 118.38 1210.07 118.38 1209.07 122.34 1197.67 122.34 1201.14 107.47"/><path class="cls-3" d="M1213.54,107.47h6.94c6,0,6.94,3,6,7.44a9,9,0,0,1-8.93,7.44h-7.43Zm3,11.4h.5a2.55,2.55,0,0,0,2-1,4.16,4.16,0,0,0,1-3c.5-1.49.5-2.48,0-3,0-.49-.49-1-1.48-1h-.5Z"/><polygon class="cls-3" points="1027.09 130.28 1027.09 130.28 1022.63 140.69 1017.17 140.69 1017.17 130.28 1017.17 130.28 1015.19 140.69 1010.23 140.69 1013.21 125.82 1021.14 125.82 1021.14 134.74 1021.14 134.74 1024.61 125.82 1032.55 125.82 1029.57 140.69 1024.61 140.69 1027.09 130.28"/><path class="cls-3" d="M1041.47,125.82c5,0,6.94,3,6,7.93-1,4.46-4,7.93-9.42,7.93-5,0-6.94-3-6-7.93s4-7.93,9.42-7.93m-2.48,11.4c1,0,1.49-.49,2.48-4,.5-3.47,0-4-.5-4-1,0-1.48.49-2.47,4s-.5,4,.49,4"/><polygon class="cls-3" points="1048.41 125.82 1053.87 125.82 1052.88 135.24 1052.88 135.24 1056.35 125.82 1062.3 125.82 1061.8 135.24 1061.8 135.24 1064.78 125.82 1070.23 125.82 1063.79 140.69 1057.34 140.69 1058.33 131.27 1058.33 131.27 1054.86 140.69 1048.41 140.69 1048.41 125.82"/><polygon class="cls-3" points="1070.73 125.82 1076.68 125.82 1073.7 140.69 1067.75 140.69 1070.73 125.82"/><polygon class="cls-3" points="1078.16 125.82 1085.11 125.82 1086.6 134.74 1086.6 134.74 1088.58 125.82 1093.04 125.82 1090.07 140.69 1083.12 140.69 1081.64 131.77 1081.64 131.77 1079.65 140.69 1075.19 140.69 1078.16 125.82"/><path class="cls-3" d="M1100,132.26h7.44l-1.49,7.94a38.75,38.75,0,0,1-7.43,1c-5.46,0-7.44-3.47-6.45-7.94a9.73,9.73,0,0,1,9.92-7.93c4.46,0,6.44,1.49,6,5h-5.46v-1a1.7,1.7,0,0,0-1-.5,2.58,2.58,0,0,0-2,1,5.78,5.78,0,0,0-1,3.47c-.5,1.49-.5,2.48,0,3,0,.5.49,1,1.48,1a1.84,1.84,0,0,0,1.49-.49l.5-2h-2Z"/><polygon class="cls-3" points="1090.07 144.16 1096.02 144.16 1096.02 156.06 1096.02 156.06 1100.48 144.16 1105.93 144.16 1098.99 159.04 1091.06 159.04 1090.07 144.16"/><polygon class="cls-3" points="1106.43 144.16 1117.83 144.16 1116.84 148.13 1111.39 148.13 1110.89 149.62 1116.35 149.62 1115.36 153.59 1110.4 153.59 1109.9 155.07 1115.85 155.07 1114.86 159.04 1103.45 159.04 1106.43 144.16"/><polygon class="cls-3" points="1125.77 153.59 1123.29 153.59 1121.8 159.04 1116.35 159.04 1119.32 144.16 1125.27 144.16 1123.79 149.12 1126.76 149.12 1127.75 144.16 1133.21 144.16 1130.23 159.04 1124.28 159.04 1125.77 153.59"/><polygon class="cls-3" points="1134.69 144.16 1140.64 144.16 1137.67 159.04 1131.72 159.04 1134.69 144.16"/><path class="cls-3" d="M1154,153.58a7.9,7.9,0,0,1-7.93,6c-5,0-6.94-3-5.95-7.94a9.17,9.17,0,0,1,9.42-7.44c3.47,0,6.45,1.49,5.45,6h-5.45c.5-1.48-.5-2-1-2-1.49,0-2,1.49-2.48,4s-.5,4,1,4c1,0,1.49-.49,2-2h5Z"/><polygon class="cls-3" points="1157.01 144.16 1162.96 144.16 1160.48 155.07 1165.93 155.07 1164.94 159.04 1154.03 159.04 1157.01 144.16"/><polygon class="cls-3" points="1168.91 144.16 1180.31 144.16 1179.32 148.13 1173.87 148.13 1173.37 149.62 1178.83 149.62 1177.83 153.59 1172.88 153.59 1172.38 155.07 1178.33 155.07 1177.34 159.04 1165.93 159.04 1168.91 144.16"/><polygon class="cls-4" points="966.6 110.94 952.22 134.25 967.09 158.05 1000.31 158.05 1000.31 110.94 966.6 110.94"/><polygon class="cls-4" points="755.36 110.94 755.36 158.05 774.69 158.05 764.78 110.94 755.36 110.94"/><path class="cls-5" d="M952.21,134.25l14.38-22.81H947.75l-6.44,13.38-6-13.38H915.52l14.38,22.81L920,150.11c-.49-4-.49-6.94-1.48-9.42-1-3.47-3.48-5.45-7.94-5.95h0c6.94-1.49,9.42-6,9.42-11.4,0-8.93-6-11.9-15.86-11.9H876.35v13.38c-3-8.92-10.91-14.38-22.81-14.38-9.92,0-16.86,4-20.83,9.92l2-8.92H817.83l-4,29.75h0l-4.47-29.75H790.07l-4.47,29.75h0l-4-29.75H764.78l10.41,47.1h20.33L800,127.8h0l4.47,30.74h20.33l4.46-21.32c1,13.39,8.92,22.81,24.3,22.81,11.9,0,19.83-5.45,22.81-14.38V159h18.34V142.18h2c3,0,4.46,1,4.46,3.47.5,4,1,9.92,2.48,13.39h30.25l7.44-14.38L948.25,159h19.83ZM853,147.14c-3,0-5-1.49-5-12.4,0-10.41,2-12.39,5-12.39s5,2,5,12.39c0,10.91-2,12.4-5,12.4m42.65-16.37H894.2v-8.92h1.49c3.47,0,5.95.5,5.95,4,.49,3.47-2.48,5-5.95,5"/><path class="cls-6" d="M763.29,144.66a5.46,5.46,0,1,1-5.46,5.45,5.5,5.5,0,0,1,5.46-5.45m0,8.92a3.47,3.47,0,1,0-3.47-3.47,3.39,3.39,0,0,0,3.47,3.47m-2-6.44h2c1.49,0,2.48.49,2.48,1.49a1.31,1.31,0,0,1-1.49,1.48l1,2.48h-1.49l-1-2h-.49v2h-1.49v-5.45Zm1.48,2.48h1c.5,0,1,0,1-.5s-.5-.49-1-.49h-1Z"/></g></svg>