<svg xmlns="http://www.w3.org/2000/svg" viewBox="0 0 1400 200"><defs><style>.cls-1{fill:#feb400;}.cls-2{fill:none;stroke:#5f5f60;stroke-miterlimit:10;}.cls-3{fill:#e4701e;}.cls-4{fill:#231f20;}</style></defs><title>HOOBS_x_alarmdotcom</title><g id="HOOBS_LOGO" data-name="HOOBS LOGO"><path class="cls-1" d="M152.1,39.5H77.79A22.36,22.36,0,0,0,55.63,61.92v75.16A22.36,22.36,0,0,0,77.79,159.5H152.1a22.36,22.36,0,0,0,22.16-22.42V61.92A22.36,22.36,0,0,0,152.1,39.5Zm3,57.94a3.11,3.11,0,0,1-2.65,2.53,2.6,2.6,0,0,1-3.1-1.4c-1.22-3.28-3.9-5.27-6.23-7.51a8.46,8.46,0,0,1-2.91-7.15c.14-1.83,0-3.69,0-5.53h0c0-2.46,0-4.92,0-7.38,0-2.23-1.38-2.65-3.19-2.61s-3.9-.31-4,2.45c-.1,2.23,0,4.46-.08,6.69,0,.73.37,1.78-.35,2.14s-1.23-.67-1.74-1.16c-4.88-4.62-9.77-9.23-14.57-13.94-1.48-1.45-2.59-1.42-4,0q-15.85,16.1-31.81,32.1c-1.39,1.39-1.57,2.51,0,3.79.35.3.64.66,1,1,2.09,2.07,2.41,2,4.64-.06C93,95,99.53,88.09,106.27,81.43c1.41-1.39,2.91-2.7,4.35-4.06,2.71-2.57,5.82-2.66,8.51-.05,2.91,2.82,5.7,5.76,8.57,8.62,5.31,5.28,10.67,10.51,16,15.81,3.49,3.48,3.44,6.58,0,10.12-5.42,5.51-7.54,5.49-13,0-4.76-4.75-9.64-9.38-14.39-14.14-1.49-1.5-2.61-1.35-4,.1q-7.6,7.8-15.34,15.48c-1.35,1.33-1.35,2.43,0,3.68.5.47,1,.95,1.45,1.47,1.22,1.37,2.35,1.36,3.67,0,2.7-2.7,5.48-5.32,8.23-8s6-2.78,8.74-.2q4.59,4.32,9,8.83a5.89,5.89,0,0,1,0,8.48c-2,2.19-4.18,4.25-6.27,6.38a12.38,12.38,0,0,0-3.29,4.33,2.74,2.74,0,0,1-3.12,1.82,3,3,0,0,1-2.73-2.41,3.1,3.1,0,0,1,1.61-3.71c4.35-2.08,6.84-6.22,10.3-9.28a1.59,1.59,0,0,0,0-2.6c-2.75-2.76-5.49-5.53-8.25-8.28-1.11-1.12-2.13-.82-3.16.2-2.73,2.67-5.51,5.3-8.24,8s-5.82,2.83-8.75.39c-.76-.64-1.45-1.37-2.14-2.08-3.52-3.61-3.54-6.78,0-10.34q7.74-7.83,15.5-15.64c3.3-3.31,6.41-3.34,9.74-.08Q127,102,134.8,109.74c2.23,2.18,2.48,2.15,5.12-.54,2.23-2.28,2.26-2.62.05-4.83-7.74-7.72-15.51-15.4-23.22-23.15-1.31-1.32-2.34-1.41-3.65-.11-3.57,3.56-7.18,7.08-10.77,10.62q-7.11,7-14.23,14a5.85,5.85,0,0,1-8.58.2c-5.65-5.14-7-7.85-.5-14.2,10.21-9.89,20.08-20.14,30.09-30.24,3.58-3.6,6.67-3.61,10.25-.1,2.46,2.4,5,4.74,7.44,7.14,1,1,1.69,1.58,2.23-.45a5.07,5.07,0,0,1,4.41-3.82,22.64,22.64,0,0,1,2.72-.31c6.33-.17,8.55,2,8.57,8.43,0,3.85,0,7.69,0,11.54a4.59,4.59,0,0,0,1.57,3.87c2.46,2.13,4.24,5,7.44,6.32A2.8,2.8,0,0,1,155.13,97.44Z"/><path class="cls-1" d="M276.93,40.9v81.53H258.06V89H221v33.43H202.15V40.9H221V73h37V40.9Zm14.21,40.76c0-24.22,18.87-42.16,44.61-42.16s44.61,17.82,44.61,42.16-19,42.17-44.61,42.17S291.14,105.89,291.14,81.66Zm70.12,0c0-15.49-10.95-26.09-25.51-26.09s-25.51,10.6-25.51,26.09,10.95,26.1,25.51,26.1S361.26,97.15,361.26,81.66Zm28.19,0c0-24.22,18.87-42.16,44.61-42.16s44.61,17.82,44.61,42.16-19,42.17-44.61,42.17S389.45,105.89,389.45,81.66Zm70.12,0c0-15.49-10.95-26.09-25.51-26.09s-25.51,10.6-25.51,26.09,10.95,26.1,25.51,26.1S459.57,97.15,459.57,81.66Zm108.09,18.52c0,14.1-11.18,22.25-32.61,22.25H492.88V40.9h39.84c20.38,0,30.87,8.5,30.87,21.2A19.59,19.59,0,0,1,552.75,80C561.84,82.94,567.66,89.93,567.66,100.18Zm-56-45.07V74.33h18.75c9.2,0,14.21-3.27,14.21-9.67s-5-9.55-14.21-9.55Zm37,43.09c0-6.87-5.24-10.13-15-10.13h-22v20.15h22C543.44,108.22,548.68,105.19,548.68,98.2Zm26.9,16.19L582,100.18a47.94,47.94,0,0,0,26.91,8.51c11.18,0,15.72-3.73,15.72-8.74,0-15.26-47.4-4.77-47.4-35.06,0-13.86,11.18-25.39,34.36-25.39,10.25,0,20.73,2.45,28.3,7.22l-5.82,14.33a46.07,46.07,0,0,0-22.6-6.41C600.28,54.64,596,58.83,596,64c0,15,47.4,4.66,47.4,34.59,0,13.63-11.29,25.28-34.59,25.28C595.85,123.83,582.81,120,575.58,114.39Z"/><path class="cls-1" d="M201.05,137.31h2.7v8.77H215v-8.77h2.72V157H215v-8.45H203.75V157h-2.7Z"/><path class="cls-1" d="M237.12,138.47a9.83,9.83,0,0,1,3.75,3.6,9.61,9.61,0,0,1,1.38,5.05,9.75,9.75,0,0,1-1.38,5.07,9.89,9.89,0,0,1-3.75,3.65,10.87,10.87,0,0,1-10.42,0,10,10,0,0,1-3.75-3.65,9.84,9.84,0,0,1-1.37-5.07,9.69,9.69,0,0,1,1.37-5.05,10,10,0,0,1,3.74-3.6,11,11,0,0,1,10.43,0Zm-9,2.1a7.74,7.74,0,0,0-2.8,2.74,7.5,7.5,0,0,0,0,7.62,7.67,7.67,0,0,0,2.8,2.77,7.33,7.33,0,0,0,3.8,1,7.21,7.21,0,0,0,3.78-1,7.61,7.61,0,0,0,2.75-2.77,7.56,7.56,0,0,0,0-7.62,7.68,7.68,0,0,0-2.75-2.74,7.38,7.38,0,0,0-3.78-1A7.5,7.5,0,0,0,228.14,140.57Z"/><path class="cls-1" d="M246.12,137.31h3.21l7.19,13.82,7.13-13.82h3.23V157h-2.53l0-15.7-7,13.63h-1.66l-7-13.63V157h-2.5Z"/><path class="cls-1" d="M272.5,137.31h13.64v2.45H275.19v6.06H285v2.45h-9.8v6.26h11.29V157h-14Z"/><path class="cls-1" d="M304,138.62a4.27,4.27,0,0,1,1.73,3.61,4.39,4.39,0,0,1-.95,2.85,4.63,4.63,0,0,1-2.62,1.56,5.09,5.09,0,0,1,3.22,1.64,4.87,4.87,0,0,1,1.17,3.33,4.65,4.65,0,0,1-1.9,3.94,8.54,8.54,0,0,1-5.24,1.42h-8.54V137.31h8.4A7.68,7.68,0,0,1,304,138.62Zm-2,6.26a2.6,2.6,0,0,0,1-2.2,2.53,2.53,0,0,0-1-2.16,4.41,4.41,0,0,0-2.82-.73h-5.56v5.87h5.56A4.47,4.47,0,0,0,301.91,144.88Zm.61,8.79a2.76,2.76,0,0,0,1.23-2.4,2.67,2.67,0,0,0-1.23-2.33,6.06,6.06,0,0,0-3.43-.84h-5.56v6.4h5.56A5.83,5.83,0,0,0,302.52,153.67Z"/><path class="cls-1" d="M323.52,157l-3.9-6.17c-.45,0-.81,0-1.1,0h-5V157h-2.7V137.31h7.69A8.71,8.71,0,0,1,324.3,139a6.1,6.1,0,0,1,2,4.9,7,7,0,0,1-1.11,4,6.27,6.27,0,0,1-3.18,2.36l4.57,6.65Zm-5-8.56a6,6,0,0,0,3.88-1.11,4,4,0,0,0,1.35-3.27,3.84,3.84,0,0,0-1.35-3.19,6.08,6.08,0,0,0-3.88-1.08h-5v8.65Z"/><path class="cls-1" d="M331.13,137.31h2.7V157h-2.7Z"/><path class="cls-1" d="M352.63,138.59a9.36,9.36,0,0,1,3.64,3.53,10.19,10.19,0,0,1,0,10,9.51,9.51,0,0,1-3.67,3.53,10.67,10.67,0,0,1-5.22,1.27h-7.92V137.31h8A10.55,10.55,0,0,1,352.63,138.59Zm-1.4,15a7,7,0,0,0,2.64-2.64,7.34,7.34,0,0,0,1-3.76,7.43,7.43,0,0,0-1-3.79,7.13,7.13,0,0,0-2.69-2.65,7.43,7.43,0,0,0-3.77-1h-5.26v14.77h5.37A7.34,7.34,0,0,0,351.23,153.57Z"/><path class="cls-1" d="M374.41,147.37h2.39v7.22a12.08,12.08,0,0,1-3.48,1.88,11.82,11.82,0,0,1-4,.7,10.37,10.37,0,0,1-5.2-1.33,10,10,0,0,1-3.72-3.65,9.83,9.83,0,0,1-1.36-5.07,9.69,9.69,0,0,1,1.37-5.05,10,10,0,0,1,3.77-3.6,10.72,10.72,0,0,1,5.28-1.32,11.27,11.27,0,0,1,4,.73,10.6,10.6,0,0,1,3.38,2l-1.54,2a8.73,8.73,0,0,0-5.84-2.31,7.72,7.72,0,0,0-3.88,1,7.54,7.54,0,0,0-2.79,2.76,7.32,7.32,0,0,0-1,3.82,7.42,7.42,0,0,0,1,3.83,7.7,7.7,0,0,0,6.69,3.8,8.27,8.27,0,0,0,2.51-.4,9.26,9.26,0,0,0,2.37-1.14Z"/><path class="cls-1" d="M381.91,137.31h13.65v2.45H384.61v6.06h9.8v2.45h-9.8v6.26H395.9V157h-14Z"/><path class="cls-1" d="M421.41,138.47a10,10,0,0,1,3.75,3.6,9.61,9.61,0,0,1,1.38,5.05,9.75,9.75,0,0,1-1.38,5.07,10,10,0,0,1-3.75,3.65,10.87,10.87,0,0,1-10.42,0,10,10,0,0,1-3.75-3.65,9.75,9.75,0,0,1-1.37-5.07,9.6,9.6,0,0,1,1.37-5.05,10,10,0,0,1,3.74-3.6,11,11,0,0,1,10.43,0Zm-9,2.1a7.71,7.71,0,0,0-2.79,2.74,7.5,7.5,0,0,0,0,7.62,7.64,7.64,0,0,0,2.79,2.77,7.36,7.36,0,0,0,3.81,1,7.21,7.21,0,0,0,3.78-1,7.61,7.61,0,0,0,2.75-2.77,7.63,7.63,0,0,0,0-7.62,7.68,7.68,0,0,0-2.75-2.74,7.38,7.38,0,0,0-3.78-1A7.54,7.54,0,0,0,412.42,140.57Z"/><path class="cls-1" d="M434.19,153.2a5.53,5.53,0,0,0,4.14,1.53,5.45,5.45,0,0,0,4.1-1.53,5.86,5.86,0,0,0,1.49-4.26V137.31h2.7v11.63a8.13,8.13,0,0,1-2.21,6,8.24,8.24,0,0,1-6.08,2.19,8.34,8.34,0,0,1-6.12-2.19,8.09,8.09,0,0,1-2.22-6V137.31h2.7v11.63A5.83,5.83,0,0,0,434.19,153.2Z"/><path class="cls-1" d="M449.29,137.31h15.36v2.48H458.3V157h-2.7V139.79h-6.31Z"/><path class="cls-1" d="M488.9,138.47a10,10,0,0,1,3.75,3.6,9.69,9.69,0,0,1,1.37,5.05,9.84,9.84,0,0,1-1.37,5.07,10,10,0,0,1-3.75,3.65,10.87,10.87,0,0,1-10.42,0,10,10,0,0,1-3.75-3.65,9.75,9.75,0,0,1-1.38-5.07,9.61,9.61,0,0,1,1.38-5.05,10,10,0,0,1,3.73-3.6,11,11,0,0,1,10.44,0Zm-9,2.1a7.71,7.71,0,0,0-2.79,2.74,7.5,7.5,0,0,0,0,7.62,7.64,7.64,0,0,0,2.79,2.77,7.36,7.36,0,0,0,3.81,1,7.2,7.2,0,0,0,3.77-1,7.64,7.64,0,0,0,2.76-2.77,7.63,7.63,0,0,0,0-7.62,7.71,7.71,0,0,0-2.76-2.74,7.37,7.37,0,0,0-3.77-1A7.54,7.54,0,0,0,479.91,140.57Z"/><path class="cls-1" d="M497.9,137.31h12.8l0,2.45H500.59v6.46h9.08v2.44h-9.08V157H497.9Z"/><path class="cls-1" d="M518.68,137.31H534v2.48H527.7V157H525V139.79h-6.32Z"/><path class="cls-1" d="M537.13,137.31h2.7v8.77h11.23v-8.77h2.72V157h-2.72v-8.45H539.83V157h-2.7Z"/><path class="cls-1" d="M559.4,137.31h13.65v2.45H562.1v6.06h9.8v2.45h-9.8v6.26h11.29V157h-14Z"/><path class="cls-1" d="M598.23,138.62a4.27,4.27,0,0,1,1.73,3.61,4.35,4.35,0,0,1-1,2.85,4.64,4.64,0,0,1-2.61,1.56,5,5,0,0,1,3.21,1.64,4.87,4.87,0,0,1,1.17,3.33,4.63,4.63,0,0,1-1.9,3.94,8.53,8.53,0,0,1-5.23,1.42H585.1V137.31h8.4A7.68,7.68,0,0,1,598.23,138.62Zm-2.05,6.26a2.63,2.63,0,0,0,1-2.2,2.55,2.55,0,0,0-1-2.16,4.44,4.44,0,0,0-2.82-.73H587.8v5.87h5.56A4.5,4.5,0,0,0,596.18,144.88Zm.6,8.79a2.74,2.74,0,0,0,1.24-2.4,2.66,2.66,0,0,0-1.24-2.33,6,6,0,0,0-3.42-.84H587.8v6.4h5.56A5.78,5.78,0,0,0,596.78,153.67Z"/><path class="cls-1" d="M618.9,138.47a10,10,0,0,1,3.75,3.6,9.69,9.69,0,0,1,1.37,5.05,9.84,9.84,0,0,1-1.37,5.07,10,10,0,0,1-3.75,3.65,10.87,10.87,0,0,1-10.42,0,10,10,0,0,1-3.75-3.65,9.75,9.75,0,0,1-1.38-5.07,9.61,9.61,0,0,1,1.38-5.05,10,10,0,0,1,3.74-3.6,11,11,0,0,1,10.43,0Zm-9,2.1a7.71,7.71,0,0,0-2.79,2.74,7.5,7.5,0,0,0,0,7.62,7.64,7.64,0,0,0,2.79,2.77,7.36,7.36,0,0,0,3.81,1,7.2,7.2,0,0,0,3.77-1,7.64,7.64,0,0,0,2.76-2.77,7.63,7.63,0,0,0,0-7.62,7.71,7.71,0,0,0-2.76-2.74,7.37,7.37,0,0,0-3.77-1A7.54,7.54,0,0,0,609.91,140.57Z"/><path class="cls-1" d="M626.13,137.31h3.15l5.16,7.34,5.2-7.34h3.17l-6.65,9.44L643.37,157h-3.23l-5.7-7.95L628.8,157h-3.18l7.19-10.11Z"/></g><g id="Stroke"><line class="cls-2" x1="700.5" y1="60" x2="700.5" y2="140"/></g><g id="alarm_dot_com" data-name="alarm dot com"><path d="M916.64,114.43c-.45-1.23-17.6-31.69-17.6-31.69a1.88,1.88,0,0,0-1.68-.91h-11a1.7,1.7,0,0,0-1.38.91s-17.14,30.77-17.6,31.69c-.77,2.14,1.68,1.84,1.68,1.84h8.12a3.05,3.05,0,0,0,1.37-.92s2.15-4,2.3-4.44a2.57,2.57,0,0,1,1.68-.77H902.1a1.56,1.56,0,0,1,1.69.77c.3.46,2.29,4.44,2.29,4.44a2.16,2.16,0,0,0,1.38.92h8.11C914.81,116.27,917.1,116.27,916.64,114.43Zm-19-12.25h-11s-.91,0-.3-1.22c.46-.92,5-9.95,5-9.95a1.15,1.15,0,0,1,1.84,0s4.59,9,5,9.95C898.58,102.18,897.67,102.18,897.67,102.18Z"/><path d="M923.38,116.27a1.87,1.87,0,0,1-1.84-1.84V83.36a2,2,0,0,1,1.84-1.84h6.89a2,2,0,0,1,1.83,1.84V106a2,2,0,0,0,1.84,1.84h19.44a2,2,0,0,1,1.84,1.83v4.9a2,2,0,0,1-1.84,1.84H923.23v-.15Z"/><path d="M1009.09,114.43c-.46-1.23-17.6-31.69-17.6-31.69a1.88,1.88,0,0,0-1.68-.91H978.94a2.6,2.6,0,0,0-1.68.91s-17.15,30.77-17.6,31.69c-.77,2.14,1.68,1.84,1.68,1.84h8.11a3,3,0,0,0,1.38-.92s2.14-4,2.29-4.44a2.6,2.6,0,0,1,1.69-.77H994.4a1.55,1.55,0,0,1,1.68.77c.31.46,2.3,4.44,2.3,4.44a2.16,2.16,0,0,0,1.38.92h8.11C1007.41,116.27,1009.71,116.27,1009.09,114.43Zm-18.82-12.25H978.94s-.92,0-.31-1.22c.46-.92,5.06-9.95,5.06-9.95a1.56,1.56,0,0,1,.91-.46,1.61,1.61,0,0,1,.92.46s4.59,9,5.05,9.95C991.19,102.18,990.27,102.18,990.27,102.18Z"/><path d="M1056.24,98.82V88.1a6.79,6.79,0,0,0-6.74-6.73h-33.82a2,2,0,0,0-1.84,1.83v31.08a2,2,0,0,0,1.84,1.83h6.88a1.86,1.86,0,0,0,1.84-1.83v-5.06a1.86,1.86,0,0,1,1.84-1.83h17.6a1.86,1.86,0,0,1,1.84,1.83v5.06a2,2,0,0,0,1.83,1.83h6.89a1.86,1.86,0,0,0,1.84-1.83v-5.36a6.8,6.8,0,0,0-6.74-6.74h3.06C1054.71,102.64,1056.24,101,1056.24,98.82Zm-31.53-6.13a2,2,0,0,1,1.83-1.83h16.84a1.86,1.86,0,0,1,1.84,1.83v4.44a2,2,0,0,1-1.84,1.84h-16.84a1.86,1.86,0,0,1-1.83-1.84Z"/><path d="M1118.38,81.67h-13.47s-4-.3-5.82,4.44l-6,13.93s-.91,2.6-1.68,2.6-1.68-2.6-1.68-2.6l-6-13.93c-2.15-4.59-5.82-4.44-5.82-4.44H1064.5a1.86,1.86,0,0,0-1.83,1.84v30.77a1.86,1.86,0,0,0,1.83,1.83h7.66a1.86,1.86,0,0,0,1.83-1.83V92.08c0-1.84,1.38.46,1.38.46l10.41,20.2c1.83,3.68,3.52,3.68,3.52,3.68h5.2s1.38,0,3.52-3.68l10.41-20.2s1.38-2.3,1.38-.46v22.2a1.86,1.86,0,0,0,1.83,1.83h7.66a1.85,1.85,0,0,0,1.83-1.83V83.2C1120.22,82.44,1119.45,81.67,1118.38,81.67Z"/><path d="M1229.35,81.67h-31.07a8.21,8.21,0,0,0-8.11,7.81v18.83a8.22,8.22,0,0,0,7.8,8.11h31.53a7.91,7.91,0,0,0,7.81-8.11V89.48A8.08,8.08,0,0,0,1229.35,81.67Zm-8.42,8.57a5.1,5.1,0,0,1,5,5.06v7.34a5.06,5.06,0,0,1-4.9,5h-14.84a4.87,4.87,0,0,1-4.9-5V95.3a5.1,5.1,0,0,1,5.05-5.06Z"/><path d="M1297.92,81.67h-13.47s-4-.3-5.82,4.44l-6,13.93s-.92,2.6-1.69,2.6-1.68-2.6-1.68-2.6l-6-13.93c-2.14-4.59-5.82-4.44-5.82-4.44H1244.2a1.87,1.87,0,0,0-1.84,1.84v30.77a1.86,1.86,0,0,0,1.84,1.83h7.65a1.86,1.86,0,0,0,1.84-1.83V92.08c0-1.84,1.37.46,1.37.46l10.41,20.2c1.84,3.68,3.52,3.68,3.52,3.68h5.21s1.37,0,3.52-3.68l10.4-20.2s1.38-2.3,1.38-.46v22.2a1.86,1.86,0,0,0,1.84,1.83H1299a1.86,1.86,0,0,0,1.84-1.83V83.2C1299.76,82.44,1299,81.67,1297.92,81.67Z"/><path class="cls-3" d="M1125.11,110.45a5.51,5.51,0,1,1,5.51,5.51A5.4,5.4,0,0,1,1125.11,110.45Z"/><path d="M1151.29,93.15c0-3.06,4.9-3.21,4.9-3.21h15c2.75,0,3.06,1.84,3.67,3.21.76,1.38,1.68,1.38,1.68,1.38H1183c2.3,0,2.14-3.21,2.14-3.21v-4c0-5.82-9.94-5.82-9.94-5.82h-25.41c-9.34,0-9.34,10.41-9.34,10.41v13.93s0,10.41,9.34,10.41h25.41s9.94,0,9.94-5.82v-4s.31-3.21-2.14-3.21h-6.43s-.92-.31-1.68,1.37c-.77,1.38-.92,3.22-3.67,3.22h-15s-4.9,0-4.9-3.22Z"/><path class="cls-4" d="M1313.84,87a5.59,5.59,0,0,1-5.51,5.51,5.48,5.48,0,0,1-5.51-5.51,5.59,5.59,0,0,1,5.51-5.51A5.49,5.49,0,0,1,1313.84,87Zm-.92,0a4.44,4.44,0,1,0-4.44,4.44A4.44,4.44,0,0,0,1312.92,87Zm-4.13-2.45a1.94,1.94,0,0,1,2.14,1.69c0,.91-.76,1.37-1.68,1.68l1.83,2.14h-1.22L1308.18,88h-.77v1.84h-1.22V84.43h2.29v.15Zm-1.38.61v1.69h1.38c.76,0,1.22-.31,1.22-.92,0-.46-.46-.92-1.22-.92h-1.38Z"/><path class="cls-3" d="M808.43,79.84h0a3.6,3.6,0,0,0-5,0l-33.06,35.51,14.08-2.61S799.71,97,802.92,93.46A3.85,3.85,0,0,1,806,92.08,4,4,0,0,1,809,93.46c3.22,3.21,18.52,19.28,18.52,19.28l14.08,2.61Z"/><path d="M856.8,111.67v-22a17.49,17.49,0,0,0-2.14-8.26c-2.61-4.14-6.74-6.43-6.74-6.74A24.2,24.2,0,0,1,844.86,73c-7.81-4.13-26.48-14.08-32.14-16.23A21,21,0,0,0,806,55.5h-.3a21.8,21.8,0,0,0-6.74,1.22C793.12,58.87,774.6,68.82,766.8,73c-1.69.92-2.76,1.68-3.22,1.68a18.79,18.79,0,0,0-6.73,6.43A22.22,22.22,0,0,0,755,89.33v22a14.46,14.46,0,0,0,2.15,8.26c2.6,4.14,6.73,6.43,6.73,6.74a31.45,31.45,0,0,0,3.06,1.68c7.81,4.13,26.17,14.08,32.14,16.23a21,21,0,0,0,6.74,1.22h.3a21.8,21.8,0,0,0,6.74-1.22c5.82-2.15,24.34-12.1,32.14-16.23,1.69-.92,2.76-1.68,3.22-1.68a18.79,18.79,0,0,0,6.73-6.43A17,17,0,0,0,856.8,111.67Zm-3.37,0a12.62,12.62,0,0,1-1.68,6.28c-1.69,2.75-4.9,4.9-5.36,5.36-.31,0-.46.3-1.22.46C822.51,136,814.4,140,811.34,140.91a14,14,0,0,1-5.51.92h-.31a17.45,17.45,0,0,1-5.51-.92c-4-1.38-15.92-7.35-33.82-17.14a4.15,4.15,0,0,0-.92-.46,15.74,15.74,0,0,1-5.51-5.36,12.56,12.56,0,0,1-1.69-6.28v-22a12.55,12.55,0,0,1,1.69-6.27c1.68-2.76,4.9-4.9,5.35-5.36.31,0,.46-.31.92-.46,17.91-9.8,29.85-15.76,33.83-17.14a13.83,13.83,0,0,1,5.51-.92h.76a17.35,17.35,0,0,1,5.51.92c4,1.38,15.92,7.34,33.83,17.14a4.15,4.15,0,0,0,.92.46,17.47,17.47,0,0,1,5.51,5.36,13.67,13.67,0,0,1,1.68,6.27Z"/><circle class="cls-3" cx="830.93" cy="84.28" r="5.51"/></g></svg>