<svg xmlns="http://www.w3.org/2000/svg" xmlns:xlink="http://www.w3.org/1999/xlink" viewBox="0 0 1400 200"><defs><style>.cls-1,.cls-3{fill:none;}.cls-2{fill:#feb400;}.cls-3{stroke:#5f5f60;stroke-miterlimit:10;}.cls-4{fill:#ffe500;}.cls-5{clip-path:url(#clip-path);}.cls-6{fill:#ffe600;}.cls-7{fill:#ffe707;}.cls-8{fill:#ffe71c;}.cls-9{fill:#ffe829;}.cls-10{fill:#ffe833;}.cls-11{fill:#ffe93c;}.cls-12{fill:#ffe944;}.cls-13{fill:#ffea4b;}.cls-14{fill:#ffea52;}.cls-15{fill:#ffeb58;}.cls-16{fill:#ffeb5e;}.cls-17{fill:#ffec64;}.cls-18{fill:#ffec6a;}.cls-19{fill:#ffed75;}.cls-20{fill:#ffee7b;}.cls-21{fill:#ffee80;}.cls-22{fill:#ffef85;}.cls-23{fill:#fff08a;}.cls-24{fill:#fff08f;}.cls-25{fill:#fff194;}.cls-26{fill:#fff199;}.cls-27{fill:#fff29e;}.cls-28{fill:#fff2a3;}.cls-29{fill:#fff3a8;}.cls-30{fill:#fff4ac;}.cls-31{fill:#fff4b1;}.cls-32{fill:#fff5b5;}.cls-33{fill:#fff5b9;}.cls-34{fill:#fff6be;}.cls-35{fill:#fff6c2;}.cls-36{fill:#fff7c6;}.cls-37{fill:#ffe400;}.cls-38{fill:#ffe100;}.cls-39{fill:#ffde00;}.cls-40{fill:#ffda00;}.cls-41{fill:#ffd800;}.cls-42{fill:gold;}.cls-43{fill:#fed500;}.cls-44{fill:#fed400;}.cls-45{fill:#fdd200;}.cls-46{fill:#fdd000;}.cls-47{fill:#fcce00;}.cls-48{fill:#fbcd00;}.cls-49{fill:#fbcb00;}.cls-50,.cls-51{fill-rule:evenodd;}.cls-51,.cls-52{fill:#e2001a;}</style><clipPath id="clip-path"><path class="cls-1" d="M821.93,39h0M880.8,93.26c-3.45-3.89-10.86-11.8-27.8-27.49C827.33,41.92,822.62,39.35,821.93,39c-.69.25-5.33,2.82-30.63,26.67-12.86,12.11-22,21.09-27.23,26.61-2.26,2.38-3.83,4.27-4,4.46.5.87,4.08,6,31.63,31.5,11.8,10.92,20.46,18.64,25.86,23,.75.62,4.33,3.32,4.33,3.32H822c.38-.06,4.46-1.57,31.2-26.73,16.44-15.51,23.85-23.41,27.49-27.37l.12-7.28M759.86,97.34a.66.66,0,0,0,.13-.44h0l-.13.44"/></clipPath></defs><title>HOOBS_x_fritz</title><g id="HOOBS_LOGO" data-name="HOOBS LOGO"><path class="cls-2" d="M152.1,39.5H77.79A22.36,22.36,0,0,0,55.63,61.92v75.16A22.36,22.36,0,0,0,77.79,159.5H152.1a22.36,22.36,0,0,0,22.16-22.42V61.92A22.36,22.36,0,0,0,152.1,39.5Zm3,57.94a3.11,3.11,0,0,1-2.65,2.53,2.6,2.6,0,0,1-3.1-1.4c-1.22-3.28-3.9-5.27-6.23-7.51a8.46,8.46,0,0,1-2.91-7.15c.14-1.83,0-3.69,0-5.53h0c0-2.46,0-4.92,0-7.38,0-2.23-1.38-2.65-3.19-2.61s-3.9-.31-4,2.45c-.1,2.23,0,4.46-.08,6.69,0,.73.37,1.78-.35,2.14s-1.23-.67-1.74-1.16c-4.88-4.62-9.77-9.23-14.57-13.94-1.48-1.45-2.59-1.42-4,0q-15.85,16.1-31.81,32.1c-1.39,1.39-1.57,2.51,0,3.79.35.3.64.66,1,1,2.09,2.07,2.41,2,4.64-.06C93,95,99.53,88.09,106.27,81.43c1.41-1.39,2.91-2.7,4.35-4.06,2.71-2.57,5.82-2.66,8.51-.05,2.91,2.82,5.7,5.76,8.57,8.62,5.31,5.28,10.67,10.51,16,15.81,3.49,3.48,3.44,6.58,0,10.12-5.42,5.51-7.54,5.49-13,0-4.76-4.75-9.64-9.38-14.39-14.14-1.49-1.5-2.61-1.35-4,.1q-7.6,7.8-15.34,15.48c-1.35,1.33-1.35,2.43,0,3.68.5.47,1,.95,1.45,1.47,1.22,1.37,2.35,1.36,3.67,0,2.7-2.7,5.48-5.32,8.23-8s6-2.78,8.74-.2q4.59,4.32,9,8.83a5.89,5.89,0,0,1,0,8.48c-2,2.19-4.18,4.25-6.27,6.38a12.38,12.38,0,0,0-3.29,4.33,2.74,2.74,0,0,1-3.12,1.82,3,3,0,0,1-2.73-2.41,3.1,3.1,0,0,1,1.61-3.71c4.35-2.08,6.84-6.22,10.3-9.28a1.59,1.59,0,0,0,0-2.6c-2.75-2.76-5.49-5.53-8.25-8.28-1.11-1.12-2.13-.82-3.16.2-2.73,2.67-5.51,5.3-8.24,8s-5.82,2.83-8.75.39c-.76-.64-1.45-1.37-2.14-2.08-3.52-3.61-3.54-6.78,0-10.34q7.74-7.83,15.5-15.64c3.3-3.31,6.41-3.34,9.74-.08Q127,102,134.8,109.74c2.23,2.18,2.48,2.15,5.12-.54,2.23-2.28,2.26-2.62.05-4.83-7.74-7.72-15.51-15.4-23.22-23.15-1.31-1.32-2.34-1.41-3.65-.11-3.57,3.56-7.18,7.08-10.77,10.62q-7.11,7-14.23,14a5.85,5.85,0,0,1-8.58.2c-5.65-5.14-7-7.85-.5-14.2,10.21-9.89,20.08-20.14,30.09-30.24,3.58-3.6,6.67-3.61,10.25-.1,2.46,2.4,5,4.74,7.44,7.14,1,1,1.69,1.58,2.23-.45a5.07,5.07,0,0,1,4.41-3.82,22.64,22.64,0,0,1,2.72-.31c6.33-.17,8.55,2,8.57,8.43,0,3.85,0,7.69,0,11.54a4.59,4.59,0,0,0,1.57,3.87c2.46,2.13,4.24,5,7.44,6.32A2.8,2.8,0,0,1,155.13,97.44Z"/><path class="cls-2" d="M276.93,40.9v81.53H258.06V89H221v33.43H202.15V40.9H221V73h37V40.9Zm14.21,40.76c0-24.22,18.87-42.16,44.61-42.16s44.61,17.82,44.61,42.16-19,42.17-44.61,42.17S291.14,105.89,291.14,81.66Zm70.12,0c0-15.49-10.95-26.09-25.51-26.09s-25.51,10.6-25.51,26.09,10.95,26.1,25.51,26.1S361.26,97.15,361.26,81.66Zm28.19,0c0-24.22,18.87-42.16,44.61-42.16s44.61,17.82,44.61,42.16-19,42.17-44.61,42.17S389.45,105.89,389.45,81.66Zm70.12,0c0-15.49-10.95-26.09-25.51-26.09s-25.51,10.6-25.51,26.09,10.95,26.1,25.51,26.1S459.57,97.15,459.57,81.66Zm108.09,18.52c0,14.1-11.18,22.25-32.61,22.25H492.88V40.9h39.84c20.38,0,30.87,8.5,30.87,21.2A19.59,19.59,0,0,1,552.75,80C561.84,82.94,567.66,89.93,567.66,100.18Zm-56-45.07V74.33h18.75c9.2,0,14.21-3.27,14.21-9.67s-5-9.55-14.21-9.55Zm37,43.09c0-6.87-5.24-10.13-15-10.13h-22v20.15h22C543.44,108.22,548.68,105.19,548.68,98.2Zm26.9,16.19L582,100.18a47.94,47.94,0,0,0,26.91,8.51c11.18,0,15.72-3.73,15.72-8.74,0-15.26-47.4-4.77-47.4-35.06,0-13.86,11.18-25.39,34.36-25.39,10.25,0,20.73,2.45,28.3,7.22l-5.82,14.33a46.07,46.07,0,0,0-22.6-6.41C600.28,54.64,596,58.83,596,64c0,15,47.4,4.66,47.4,34.59,0,13.63-11.29,25.28-34.59,25.28C595.85,123.83,582.81,120,575.58,114.39Z"/><path class="cls-2" d="M201.05,137.31h2.7v8.77H215v-8.77h2.72V157H215v-8.45H203.75V157h-2.7Z"/><path class="cls-2" d="M237.12,138.47a9.83,9.83,0,0,1,3.75,3.6,9.61,9.61,0,0,1,1.38,5.05,9.75,9.75,0,0,1-1.38,5.07,9.89,9.89,0,0,1-3.75,3.65,10.87,10.87,0,0,1-10.42,0,10,10,0,0,1-3.75-3.65,9.84,9.84,0,0,1-1.37-5.07,9.69,9.69,0,0,1,1.37-5.05,10,10,0,0,1,3.74-3.6,11,11,0,0,1,10.43,0Zm-9,2.1a7.74,7.74,0,0,0-2.8,2.74,7.5,7.5,0,0,0,0,7.62,7.67,7.67,0,0,0,2.8,2.77,7.33,7.33,0,0,0,3.8,1,7.21,7.21,0,0,0,3.78-1,7.61,7.61,0,0,0,2.75-2.77,7.56,7.56,0,0,0,0-7.62,7.68,7.68,0,0,0-2.75-2.74,7.38,7.38,0,0,0-3.78-1A7.5,7.5,0,0,0,228.14,140.57Z"/><path class="cls-2" d="M246.12,137.31h3.21l7.19,13.82,7.13-13.82h3.23V157h-2.53l0-15.7-7,13.63h-1.66l-7-13.63V157h-2.5Z"/><path class="cls-2" d="M272.5,137.31h13.64v2.45H275.19v6.06H285v2.45h-9.8v6.26h11.29V157h-14Z"/><path class="cls-2" d="M304,138.62a4.27,4.27,0,0,1,1.73,3.61,4.39,4.39,0,0,1-.95,2.85,4.63,4.63,0,0,1-2.62,1.56,5.09,5.09,0,0,1,3.22,1.64,4.87,4.87,0,0,1,1.17,3.33,4.65,4.65,0,0,1-1.9,3.94,8.54,8.54,0,0,1-5.24,1.42h-8.54V137.31h8.4A7.68,7.68,0,0,1,304,138.62Zm-2,6.26a2.6,2.6,0,0,0,1-2.2,2.53,2.53,0,0,0-1-2.16,4.41,4.41,0,0,0-2.82-.73h-5.56v5.87h5.56A4.47,4.47,0,0,0,301.91,144.88Zm.61,8.79a2.76,2.76,0,0,0,1.23-2.4,2.67,2.67,0,0,0-1.23-2.33,6.06,6.06,0,0,0-3.43-.84h-5.56v6.4h5.56A5.83,5.83,0,0,0,302.52,153.67Z"/><path class="cls-2" d="M323.52,157l-3.9-6.17c-.45,0-.81,0-1.1,0h-5V157h-2.7V137.31h7.69A8.71,8.71,0,0,1,324.3,139a6.1,6.1,0,0,1,2,4.9,7,7,0,0,1-1.11,4,6.27,6.27,0,0,1-3.18,2.36l4.57,6.65Zm-5-8.56a6,6,0,0,0,3.88-1.11,4,4,0,0,0,1.35-3.27,3.84,3.84,0,0,0-1.35-3.19,6.08,6.08,0,0,0-3.88-1.08h-5v8.65Z"/><path class="cls-2" d="M331.13,137.31h2.7V157h-2.7Z"/><path class="cls-2" d="M352.63,138.59a9.36,9.36,0,0,1,3.64,3.53,10.19,10.19,0,0,1,0,10,9.51,9.51,0,0,1-3.67,3.53,10.67,10.67,0,0,1-5.22,1.27h-7.92V137.31h8A10.55,10.55,0,0,1,352.63,138.59Zm-1.4,15a7,7,0,0,0,2.64-2.64,7.34,7.34,0,0,0,1-3.76,7.43,7.43,0,0,0-1-3.79,7.13,7.13,0,0,0-2.69-2.65,7.43,7.43,0,0,0-3.77-1h-5.26v14.77h5.37A7.34,7.34,0,0,0,351.23,153.57Z"/><path class="cls-2" d="M374.41,147.37h2.39v7.22a12.08,12.08,0,0,1-3.48,1.88,11.82,11.82,0,0,1-4,.7,10.37,10.37,0,0,1-5.2-1.33,10,10,0,0,1-3.72-3.65,9.83,9.83,0,0,1-1.36-5.07,9.69,9.69,0,0,1,1.37-5.05,10,10,0,0,1,3.77-3.6,10.72,10.72,0,0,1,5.28-1.32,11.27,11.27,0,0,1,4,.73,10.6,10.6,0,0,1,3.38,2l-1.54,2a8.73,8.73,0,0,0-5.84-2.31,7.72,7.72,0,0,0-3.88,1,7.54,7.54,0,0,0-2.79,2.76,7.32,7.32,0,0,0-1,3.82,7.42,7.42,0,0,0,1,3.83,7.7,7.7,0,0,0,6.69,3.8,8.27,8.27,0,0,0,2.51-.4,9.26,9.26,0,0,0,2.37-1.14Z"/><path class="cls-2" d="M381.91,137.31h13.65v2.45H384.61v6.06h9.8v2.45h-9.8v6.26H395.9V157h-14Z"/><path class="cls-2" d="M421.41,138.47a10,10,0,0,1,3.75,3.6,9.61,9.61,0,0,1,1.38,5.05,9.75,9.75,0,0,1-1.38,5.07,10,10,0,0,1-3.75,3.65,10.87,10.87,0,0,1-10.42,0,10,10,0,0,1-3.75-3.65,9.75,9.75,0,0,1-1.37-5.07,9.6,9.6,0,0,1,1.37-5.05,10,10,0,0,1,3.74-3.6,11,11,0,0,1,10.43,0Zm-9,2.1a7.71,7.71,0,0,0-2.79,2.74,7.5,7.5,0,0,0,0,7.62,7.64,7.64,0,0,0,2.79,2.77,7.36,7.36,0,0,0,3.81,1,7.21,7.21,0,0,0,3.78-1,7.61,7.61,0,0,0,2.75-2.77,7.63,7.63,0,0,0,0-7.62,7.68,7.68,0,0,0-2.75-2.74,7.38,7.38,0,0,0-3.78-1A7.54,7.54,0,0,0,412.42,140.57Z"/><path class="cls-2" d="M434.19,153.2a5.53,5.53,0,0,0,4.14,1.53,5.45,5.45,0,0,0,4.1-1.53,5.86,5.86,0,0,0,1.49-4.26V137.31h2.7v11.63a8.13,8.13,0,0,1-2.21,6,8.24,8.24,0,0,1-6.08,2.19,8.34,8.34,0,0,1-6.12-2.19,8.09,8.09,0,0,1-2.22-6V137.31h2.7v11.63A5.83,5.83,0,0,0,434.19,153.2Z"/><path class="cls-2" d="M449.29,137.31h15.36v2.48H458.3V157h-2.7V139.79h-6.31Z"/><path class="cls-2" d="M488.9,138.47a10,10,0,0,1,3.75,3.6,9.69,9.69,0,0,1,1.37,5.05,9.84,9.84,0,0,1-1.37,5.07,10,10,0,0,1-3.75,3.65,10.87,10.87,0,0,1-10.42,0,10,10,0,0,1-3.75-3.65,9.75,9.75,0,0,1-1.38-5.07,9.61,9.61,0,0,1,1.38-5.05,10,10,0,0,1,3.73-3.6,11,11,0,0,1,10.44,0Zm-9,2.1a7.71,7.71,0,0,0-2.79,2.74,7.5,7.5,0,0,0,0,7.62,7.64,7.64,0,0,0,2.79,2.77,7.36,7.36,0,0,0,3.81,1,7.2,7.2,0,0,0,3.77-1,7.64,7.64,0,0,0,2.76-2.77,7.63,7.63,0,0,0,0-7.62,7.71,7.71,0,0,0-2.76-2.74,7.37,7.37,0,0,0-3.77-1A7.54,7.54,0,0,0,479.91,140.57Z"/><path class="cls-2" d="M497.9,137.31h12.8l0,2.45H500.59v6.46h9.08v2.44h-9.08V157H497.9Z"/><path class="cls-2" d="M518.68,137.31H534v2.48H527.7V157H525V139.79h-6.32Z"/><path class="cls-2" d="M537.13,137.31h2.7v8.77h11.23v-8.77h2.72V157h-2.72v-8.45H539.83V157h-2.7Z"/><path class="cls-2" d="M559.4,137.31h13.65v2.45H562.1v6.06h9.8v2.45h-9.8v6.26h11.29V157h-14Z"/><path class="cls-2" d="M598.23,138.62a4.27,4.27,0,0,1,1.73,3.61,4.35,4.35,0,0,1-1,2.85,4.64,4.64,0,0,1-2.61,1.56,5,5,0,0,1,3.21,1.64,4.87,4.87,0,0,1,1.17,3.33,4.63,4.63,0,0,1-1.9,3.94,8.53,8.53,0,0,1-5.23,1.42H585.1V137.31h8.4A7.68,7.68,0,0,1,598.23,138.62Zm-2.05,6.26a2.63,2.63,0,0,0,1-2.2,2.55,2.55,0,0,0-1-2.16,4.44,4.44,0,0,0-2.82-.73H587.8v5.87h5.56A4.5,4.5,0,0,0,596.18,144.88Zm.6,8.79a2.74,2.74,0,0,0,1.24-2.4,2.66,2.66,0,0,0-1.24-2.33,6,6,0,0,0-3.42-.84H587.8v6.4h5.56A5.78,5.78,0,0,0,596.78,153.67Z"/><path class="cls-2" d="M618.9,138.47a10,10,0,0,1,3.75,3.6,9.69,9.69,0,0,1,1.37,5.05,9.84,9.84,0,0,1-1.37,5.07,10,10,0,0,1-3.75,3.65,10.87,10.87,0,0,1-10.42,0,10,10,0,0,1-3.75-3.65,9.75,9.75,0,0,1-1.38-5.07,9.61,9.61,0,0,1,1.38-5.05,10,10,0,0,1,3.74-3.6,11,11,0,0,1,10.43,0Zm-9,2.1a7.71,7.71,0,0,0-2.79,2.74,7.5,7.5,0,0,0,0,7.62,7.64,7.64,0,0,0,2.79,2.77,7.36,7.36,0,0,0,3.81,1,7.2,7.2,0,0,0,3.77-1,7.64,7.64,0,0,0,2.76-2.77,7.63,7.63,0,0,0,0-7.62,7.71,7.71,0,0,0-2.76-2.74,7.37,7.37,0,0,0-3.77-1A7.54,7.54,0,0,0,609.91,140.57Z"/><path class="cls-2" d="M626.13,137.31h3.15l5.16,7.34,5.2-7.34h3.17l-6.65,9.44L643.37,157h-3.23l-5.7-7.95L628.8,157h-3.18l7.19-10.11Z"/></g><g id="Stroke"><line class="cls-3" x1="700.5" y1="60" x2="700.5" y2="140"/></g><g id="fritz"><path d="M876.09,101.23l6-10.79c-4.52-4.71-12-12-24.54-23.66-29.25-27.12-31-27-31.7-27s-2.13-.5-31.25,26.92C761.81,97.53,762.94,98.6,762.94,98.6s-1,1.69,31.94,32.13c29.56,27.36,30.13,26.61,30.94,26.61s2.58.44,31.76-27c15.75-14.81,23.6-22.72,27.43-26.92l-8.92-2.2"/><path d="M876.09,101.23l.32.13,6-11-.18-.18c-4.52-4.71-12-12-24.54-23.67C843.21,53.09,835.49,46.38,831.28,43a39.56,39.56,0,0,0-4.08-3,4.75,4.75,0,0,0-.88-.44,1.36,1.36,0,0,0-.5-.07h-.06a1.39,1.39,0,0,0-.5.07c-.76.25-2.32,1.19-6.78,5s-11.8,10.35-24.1,22c-15.31,14.44-23.22,22.34-27.3,26.68-2,2.13-3.14,3.45-3.71,4.2a7.63,7.63,0,0,0-.56.82.5.5,0,0,0-.13.37.24.24,0,0,0,.13.25l.25-.25-.44-.12a.23.23,0,0,0-.06.19,1.73,1.73,0,0,0,.12.44c.32.62,1.51,2.32,6,7S781,118.43,794.63,131c14,12.93,21.53,19.58,25.61,23a40.54,40.54,0,0,0,4,3.08,2.84,2.84,0,0,0,.88.44,2.08,2.08,0,0,0,.5.12h.19a2.27,2.27,0,0,0,.57-.06c.81-.25,2.45-1.19,7-5s12-10.42,24.35-22c15.75-14.81,23.6-22.72,27.43-27l.37-.38L876.16,101l-.07.25.32.13-.32-.13-.06.32,8.85,2.13.06-.31-.25-.19c-3.83,4.2-11.61,12.11-27.42,26.92-14.13,13.24-21.78,20-26,23.41a31.51,31.51,0,0,1-4.2,3,2.58,2.58,0,0,1-.82.38,1,1,0,0,1-.38.06h-.19a.87.87,0,0,1-.31-.06,8.29,8.29,0,0,1-1.76-1.13c-2.95-2.2-10.16-8.35-28.49-25.35-15.5-14.31-23.54-22.28-27.62-26.68a50,50,0,0,1-3.7-4.27c-.25-.37-.44-.62-.5-.75V98.6h-.31l.25.12a.19.19,0,0,0,.06-.12h-.31l.25.12.12-.25-.19-.19-.18.19h.31c0-.06,0-.13-.13-.19l-.18.19h.12l.19.06v-.06h-.19l.19.06h0v-.06a7.55,7.55,0,0,1,1.19-1.57C766.89,94,774,86.42,794.76,67c14-13.24,21.65-19.95,25.79-23.34a35.11,35.11,0,0,1,4.08-3,3.88,3.88,0,0,1,.75-.37.77.77,0,0,1,.32-.07h.06a.74.74,0,0,1,.31.07,6.77,6.77,0,0,1,1.76,1c3,2.07,10.36,8.22,29.44,25.8,12.55,11.61,20,19,24.54,23.66l.25-.25-.32-.13-6.15,11.17.44.13.06-.38"/><path class="cls-4" d="M876.09,101.23l5.09-9.29c-3.83-4.26-11.68-12.17-27.55-26.86-29.06-26.86-30.63-27-31.7-27s-2.07-.56-31.25,26.93C758,95.83,759.11,96.84,759.11,96.84s-1,1.69,31.94,32.13c29.38,27.18,30.07,26.61,30.94,26.61s2.58.44,31.76-27c15-14.13,22.78-22,26.8-26.3l-4.46-1.07"/><path d="M876.09,101.23l.44.25,5.09-9.29-.07-.56c-3.82-4.27-11.67-12.18-27.55-26.86-14.56-13.43-22.21-20.21-26.36-23.6a33.75,33.75,0,0,0-4.08-3,2.93,2.93,0,0,0-.94-.44,2.13,2.13,0,0,0-.63-.07h-.12a1.32,1.32,0,0,0-.63.13A7.8,7.8,0,0,0,819.11,39c-3.14,2.26-10.36,8.41-28.75,25.73-15.31,14.44-23.22,22.35-27.3,26.68a43.83,43.83,0,0,0-3.7,4.2,6.72,6.72,0,0,0-.57.82,1.68,1.68,0,0,0-.18.5.93.93,0,0,0,.12.38l.38-.44-.44-.25a.39.39,0,0,0-.06.25,1.52,1.52,0,0,0,.12.5,12.4,12.4,0,0,0,1.44,2c2.7,3.26,10.11,11.11,30.44,29.94,14.12,13.05,21.59,19.7,25.67,23.09,2.07,1.7,3.27,2.58,4,3.08a4.1,4.1,0,0,0,.88.44,3.37,3.37,0,0,0,.56.12h.19a2.71,2.71,0,0,0,.63-.06,7.8,7.8,0,0,0,2.13-1.19c3.27-2.2,10.67-8.41,29.25-25.8,15-14.12,22.78-22,26.86-26.29l-.25-.82-4.46-1.07v.44l.44.25-.44-.25-.12.44,4.46,1.07.12-.44-.38-.32c-4,4.34-11.8,12.18-26.8,26.3-14.12,13.24-21.77,20-26,23.41a37.52,37.52,0,0,1-4.14,3,6.91,6.91,0,0,1-.82.38.87.87,0,0,1-.31.06h-.19a.48.48,0,0,1-.25-.06,5.27,5.27,0,0,1-1.7-1.07c-2.88-2.13-10-8.22-28.55-25.35-15.51-14.37-23.48-22.28-27.56-26.68a38.5,38.5,0,0,1-3.64-4.26c-.25-.38-.44-.63-.5-.76s-.12-.12-.12-.12h0l-.25.06h.25v-.06l-.25.06h-.19l.37.19a.35.35,0,0,0,.07-.25h-.44l.37.25-.06-.63-.31.38h.44c0-.06,0-.25-.13-.32l-.31.32h.12l.32.06v-.06h-.32l.32.06h-.13l.13.06h-.13l.13.07a7.9,7.9,0,0,1,.88-1.26c2.19-2.7,9-10.1,30.56-30.38,14-13.18,21.53-19.89,25.67-23.34a33.72,33.72,0,0,1,4-3l.75-.38a1,1,0,0,1,.38-.06h.12a1,1,0,0,1,.38.06,6.94,6.94,0,0,1,1.76,1c2.95,2.07,10.23,8.16,29.24,25.8C869.19,80.14,877,88.05,880.8,92.26l.38-.32-.44-.25L875.66,101l.31.69.12-.44"/><g class="cls-5"><path class="cls-4" d="M811.39,143.72,808.25,140,805,136.32l-2.2-2.26c-11.61-11.61-35.21-35.34-35.46-35.53-.06-.06-.13-.12-.13-.19h0c0-.06.07-.12.07-.18,1-1,24.1-23.23,36.65-33.89l19.45-15.76-.56-11.92-29.5,26.29C782.52,72.36,761.93,95,761.74,95.14a2.51,2.51,0,0,0-.81,1.89,2.42,2.42,0,0,0,.88,1.88l.12.13c3.58,3.38,21.72,20.71,30.94,29.56,3.14,3,4.27,4,5.4,4.89l5,4.14Z"/></g><g class="cls-5"><path class="cls-4" d="M808.12,140h0c-.06-.07-.44-.51-3.26-3.64l-2.2-2.26-30.5-30.57-5-5-.12-.25.12-.25c2.45-2.38,24.48-23.53,36.66-33.89,0,0,18.95-15.31,19.33-15.63,0-.06-.57-11.3-.57-11.67-.25.25-29.25,26.11-29.25,26.11C782.58,72.42,762,95,761.81,95.21a2.39,2.39,0,0,0-.76,1.82,2.61,2.61,0,0,0,.82,1.82h0L762,99c3.58,3.39,21.72,20.71,31,29.56,3.07,2.95,4.2,3.89,5.33,4.84l5.08,4.14s5.59,4.2,7.47,5.65Z"/></g><g class="cls-5"><path class="cls-6" d="M808.06,140h0s-.31-.32-3.26-3.64l-2.2-2.26-30.5-30.57-5-5-.12-.32h0a1.68,1.68,0,0,1,.12-.31c2.45-2.39,24.41-23.47,36.72-33.89,0,0,18.95-15.32,19.26-15.63,0-.06-.56-11.05-.56-11.42-.31.25-29.19,26-29.19,26C782.58,72.55,762,95.14,761.81,95.33a2.27,2.27,0,0,0-.76,1.76,2.14,2.14,0,0,0,.82,1.76L762,99c6.47,6.15,22.47,21.4,31,29.56,3.07,2.95,4.2,3.89,5.33,4.84l5.08,4.14s5.9,4.45,6.85,5.14Z"/></g><g class="cls-5"><path class="cls-6" d="M808,140.08l.06.06c-.12-.06-.31-.37-3.33-3.7l-2.19-2.26L772,103.62l-5-5-.19-.32h0A2.55,2.55,0,0,1,767,98c.25-.25,23.72-22.91,36.71-34L823,48.45c0-.06-.57-10.8-.57-11.17-.18.19-28.93,25.79-28.93,25.79-10.54,9.29-30.75,31.38-31.57,32.2a2.29,2.29,0,0,0,0,3.39l.13.12c6.46,6.15,22.4,21.34,30.94,29.56a60.75,60.75,0,0,0,5.33,4.77l5.09,4.15,6.21,4.7C809,141.27,808,140.08,808,140.08Z"/></g><g class="cls-5"><path class="cls-6" d="M807.94,140.14l.12.07c-.12-.07-.25-.25-3.14-3.52l-.19-.19-2.19-2.26L772,103.68l-5-5-.19-.31h0a5,5,0,0,1,.13-.5c.18-.19,23.78-23,36.77-34,0,0,18.89-15.25,19.21-15.56,0-.07-.57-10.55-.57-10.92-.31.25-28.87,25.73-28.87,25.73C783,72.55,762.81,94.58,762,95.39A2.29,2.29,0,0,0,761.3,97a2.1,2.1,0,0,0,.76,1.63l.12.12c6.47,6.15,22.41,21.34,30.94,29.56a61.83,61.83,0,0,0,5.34,4.77l5.08,4.15,5.53,4.2C808.56,140.9,807.94,140.14,807.94,140.14Z"/></g><g class="cls-5"><path class="cls-7" d="M807.87,140.21h0c-.25-.25-.81-.94-3.07-3.46l-.19-.18-2.2-2.26L772,103.74l-5-5-.19-.31h0c0-.07.12-.57.12-.57.13-.19,23.73-22.91,36.78-34,0,0,18.83-15.19,19.21-15.51,0-.06-.57-10.29-.57-10.73-.31.25-28.74,25.61-28.74,25.61C783,72.55,762.87,94.58,762.06,95.39a2.06,2.06,0,0,0-.69,1.57,2.24,2.24,0,0,0,.69,1.57l.12.13c6.47,6.15,22.35,21.27,30.94,29.56a63.74,63.74,0,0,0,5.34,4.77l5.08,4.14s4.08,3.14,4.9,3.7A7.74,7.74,0,0,1,807.87,140.21Z"/></g><g class="cls-5"><path class="cls-8" d="M807.81,140.27h0l-3.26-3.64-2.14-2.26-30.5-30.57-5-5-.19-.38h0a5.14,5.14,0,0,1,.13-.63c.13-.12,23.47-22.72,36.78-34.08,0,0,18.83-15.19,19.14-15.5,0-.06-.56-10-.56-10.48-.32.25-28.56,25.48-28.56,25.48-10.36,9.1-29.5,30.19-31.57,32.26a2,2,0,0,0-.69,1.51,2.1,2.1,0,0,0,.69,1.5l.13.13c6.4,6.09,22.28,21.21,30.94,29.56,3.07,2.95,4.2,3.89,5.27,4.77l5.08,4.14s3.39,2.57,4.27,3.2Z"/></g><g class="cls-5"><path class="cls-9" d="M804.48,136.69l-2.13-2.26-30.5-30.56-5-5-.25-.38h0c0-.12.06-.69.06-.69S790.24,75,803.54,63.7c0,0,18.77-15.19,19.14-15.44,0-.06-.56-9.85-.56-10.23-.31.25-28.43,25.36-28.43,25.36-10.36,9.1-29.5,30.12-31.57,32.19a2,2,0,0,0,0,2.89l.13.13c6.4,6.08,22.21,21.15,30.94,29.56,3.07,3,4.2,3.89,5.27,4.77l5.08,4.2s2.39,1.76,3.58,2.7C806.49,139,804.48,136.69,804.48,136.69Z"/></g><g class="cls-5"><path class="cls-10" d="M804.42,136.75l-2.13-2.25-30.51-30.57-4.95-5-.25-.37h0c0-.13.06-.76.06-.76s23.22-22.59,36.84-34.14c0,0,18.77-15.13,19.08-15.44,0-.06-.57-9.6-.57-10-.31.25-28.24,25.17-28.24,25.17-10.29,9-29.5,30.12-31.57,32.2a2,2,0,0,0-.63,1.38,1.79,1.79,0,0,0,.63,1.38l.13.12c6.34,6.09,22.15,21.09,30.94,29.56,3.07,2.95,4.2,3.89,5.27,4.77h-.12c.12,0,.62.44,4.7,3.77l.51.44,2.82,2.13A28.51,28.51,0,0,0,804.42,136.75Z"/></g><g class="cls-5"><path class="cls-11" d="M804.36,136.75h0l-2.14-2.25-30.5-30.57-5-5-.25-.44h0c0-.12.07-.75.07-.75s23.22-22.66,36.84-34.21L822.5,48.14c0-.07-.57-9.36-.57-9.73-.31.25-28.12,25-28.12,25-10.29,9-29.49,30.12-31.56,32.2a1.68,1.68,0,0,0-.57,1.31,1.78,1.78,0,0,0,.57,1.32l.12.13c6.4,6.09,22.16,21.09,30.94,29.56a67.86,67.86,0,0,0,5.27,4.77h0c.32.19,1.2.88,4.59,3.7l.5.44,2.07,1.57C805.55,138.14,804.36,136.75,804.36,136.75Z"/></g><g class="cls-5"><path class="cls-12" d="M804.3,136.82h0l-2.14-2.2-30.5-30.56-5-5-.31-.44V98.6l.06-.82c.06-.06,23-22.47,36.9-34.27,0,0,18.71-15.06,19-15.37,0-.07-.56-9.1-.56-9.48-.26.25-27.87,24.91-27.87,24.91-10.29,9-29.5,30.13-31.57,32.2a1.57,1.57,0,0,0-.56,1.26,1.73,1.73,0,0,0,.56,1.25l.13.13c6.4,6,22.15,21,30.94,29.5a56.41,56.41,0,0,0,5.27,4.77l5.08,4.14s.69.5,1.26.94C804.67,137.32,804.3,136.82,804.3,136.82Z"/></g><g class="cls-5"><path class="cls-13" d="M804.17,136.88h0l-2.13-2.2-30.51-30.56-4.95-5-.26-.44V98.6l.07-.82c.12-.31,23.66-23.1,37-34.33,0,0,18.64-15.06,19-15.38,0-.06-.56-8.85-.56-9.22C821.49,39.1,794,63.64,794,63.64c-10.29,9-29.5,30.12-31.57,32.19a1.76,1.76,0,0,0-.5,1.2,1.48,1.48,0,0,0,.5,1.13l.13.12c6.4,6.09,22.15,21.09,30.94,29.56a67.55,67.55,0,0,0,5.27,4.77l5.15,4.21a3.64,3.64,0,0,1,.5.37A1.74,1.74,0,0,0,804.17,136.88Z"/></g><g class="cls-5"><path class="cls-14" d="M802,134.75l-30.5-30.57-5-5-.25-.5-.06-.19.06-.81c.13-.25,23.66-23.1,37-34.4,0,0,18.64-15,18.95-15.31,0-.06-.56-8.6-.56-9C821.3,39.29,794,63.7,794,63.7c-10.29,9-29.43,30.13-31.5,32.2A1.52,1.52,0,0,0,762,97,1.33,1.33,0,0,0,762.5,98l.12.13c6.34,6.08,22.16,21.08,30.94,29.56a68.91,68.91,0,0,0,5.28,4.77l4.64,3.83C802.85,135.69,802,134.75,802,134.75Z"/></g><g class="cls-5"><path class="cls-15" d="M801.91,134.81l-30.5-30.57-5-4.95-.31-.51-.07-.18c0-.07.07-.82.07-.82.12-.31,23.66-23.16,37-34.46l19-15.31c0-.06-.57-8.35-.57-8.72-.31.25-27.48,24.54-27.48,24.54C783.9,72.74,764.69,93.89,762.62,96a1.32,1.32,0,0,0-.5,1,1.49,1.49,0,0,0,.44,1l.12.12c6.34,6,22.1,21,31,29.56a63.77,63.77,0,0,0,5.21,4.71s3.26,2.64,3.51,2.83A4,4,0,0,1,801.91,134.81Z"/></g><g class="cls-5"><path class="cls-16" d="M771.35,104.31l-5-5-.32-.5-.06-.13V98.6l.06-.82c.13-.31,23.66-23.16,37-34.52L822,48c0-.06-.56-8.1-.56-8.47-.25.19-27.24,24.29-27.24,24.29C784,72.8,764.76,94,762.68,96a1.22,1.22,0,0,0-.43.94,1.15,1.15,0,0,0,.43,1l.13.12c6.34,6,22,21,30.94,29.56A63.77,63.77,0,0,0,799,132.3s1.19.94,2.2,1.76C798.52,131.48,788.54,121.5,771.35,104.31Z"/></g><g class="cls-5"><path class="cls-17" d="M766.32,99.41l-.31-.5-.06-.19V98.6l.06-.88c.13-.32,23.66-23.22,37.09-34.58,0,0,18.52-14.94,18.89-15.26,0-.06-.56-7.84-.56-8.22-.31.25-27.18,24.23-27.18,24.23-10.23,9-29.43,30.12-31.5,32.2a1.31,1.31,0,0,0-.44.87,1.23,1.23,0,0,0,.37.88l.13.13c6.34,6,22.09,21,30.94,29.56a63.77,63.77,0,0,0,5.21,4.71l.75.62Z"/></g><g class="cls-5"><path class="cls-17" d="M766.26,99.47h0l-.37-.5-.07-.25V98.6l.07-.88C766,97.4,789.55,74.5,803,63.07l18.83-15.19c0-.06-.57-7.59-.57-8-.31.25-27,24.1-27,24.1-10.17,8.92-29.44,30.13-31.51,32.2a1.23,1.23,0,0,0-.38.82,1,1,0,0,0,.38.81l.13.13c6.33,6,22.09,21,30.94,29.56,2.44,2.38,3.64,3.39,4.58,4.2C796,129.29,766.26,99.47,766.26,99.47Z"/></g><g class="cls-5"><path class="cls-18" d="M766.2,99.54h0l-.38-.57-.06-.19v-.12l.06-.88C766,97.47,789.48,74.5,803,63.07c0,0,18.45-14.87,18.83-15.19,0-.06-.57-7.34-.57-7.72-.31.19-26.86,23.85-26.86,23.85-10.17,9-29.44,30.13-31.51,32.2a1,1,0,0,0-.37.75,1,1,0,0,0,.37.76l.13.12c5,4.71,21.71,20.71,30.94,29.56,1,1,1.82,1.76,2.45,2.33C792.94,126.27,766.2,99.54,766.2,99.54Z"/></g><g class="cls-5"><path class="cls-18" d="M766.14,99.6h0l-.38-.56-.06-.26-.07-.18.07-.88c.06-.32,23.66-23.35,37.21-34.77,0,0,18.46-14.88,18.77-15.19,0-.06-.56-7.09-.56-7.47-.32.25-26.68,23.85-26.68,23.85-10.17,8.91-29.43,30.13-31.5,32.2a1,1,0,0,0-.32.69,1,1,0,0,0,.32.69l.12.12c4.39,4.21,18.33,17.45,27.8,26.55C783.46,116.92,766.14,99.6,766.14,99.6Z"/></g><g class="cls-5"><path class="cls-19" d="M766.07,99.66h0l-.37-.56-.13-.25-.06-.19.06-.94c.06-.32,23.66-23.35,37.22-34.84,0,0,18.39-14.81,18.76-15.12,0-.06-.56-6.84-.56-7.22-.25.19-26.49,23.66-26.49,23.66-10.16,8.91-29.43,30.07-31.5,32.14a1,1,0,0,0-.32.62.88.88,0,0,0,.32.63L785.4,119Z"/></g><g class="cls-5"><path class="cls-20" d="M766,99.73l-.06-.07-.32-.5-.12-.25-.06-.25.06-.94c.06-.32,23.66-23.41,37.28-34.9,0,0,18.39-14.81,18.7-15.12,0-.07-.56-6.66-.56-7-.32.25-26.36,23.54-26.36,23.54-10.17,8.91-29.44,30.06-31.51,32.13a.87.87,0,0,0-.31.56.77.77,0,0,0,.25.57s11.23,10.73,16.94,16.13Z"/></g><g class="cls-5"><path class="cls-21" d="M766,99.79l-.06-.06-.32-.51-.12-.25-.07-.25.07-.94c.06-.31,23.66-23.47,37.28-35,0,0,18.32-14.81,18.7-15.06,0-.06-.57-6.4-.57-6.78-.31.19-26.23,23.35-26.23,23.35-10.1,8.85-29.43,30.06-31.51,32.13a.64.64,0,0,0,0,1s7.41,7,11.43,10.92Z"/></g><g class="cls-5"><path class="cls-22" d="M765.89,99.85l-.07-.12h0c-.06-.07-.12-.19-.37-.57l-.13-.31-.06-.25.06-.95c.06-.31,23.72-23.47,37.34-35,0,0,18.33-14.75,18.64-15.06,0-.06-.56-6.15-.56-6.53-.31.25-26.11,23.29-26.11,23.29-10,8.91-29.37,30.12-31.44,32.19a.8.8,0,0,0-.25.44.68.68,0,0,0,.18.44s4.27,4,6,5.65Z"/></g><g class="cls-5"><path class="cls-23" d="M765.82,99.91Zm-.44-.62-.12-.32-.06-.31h0l.06-1c.06-.31,23.72-23.53,37.34-35.08,0,0,18.26-14.75,18.64-15,0-.06-.56-5.9-.56-6.28-.32.26-25.92,23.16-25.92,23.16-10.11,8.85-29.44,30.07-31.51,32.14a.52.52,0,0,0-.19.37.53.53,0,0,0,.19.38s1.57,1.51,2.38,2.26C765.51,99.47,765.38,99.29,765.38,99.29Z"/></g><g class="cls-5"><path class="cls-24" d="M765.32,99.35Zm-.19-.38-.06-.25h0l.06-1c.07-.32,23.73-23.6,37.41-35.15,0,0,18.26-14.69,18.58-15,0-.06-.57-5.65-.57-6-.31.25-25.79,23-25.79,23-10,8.85-29.38,30.06-31.51,32.13a.55.55,0,0,0-.19.32c0,.12.06.18.13.31s1.38,1.32,1.94,1.82Z"/></g><g class="cls-5"><path class="cls-25" d="M765,98.72c0-.06.06-1.07.06-1.07.06-.31,23.72-23.59,37.41-35.2,0,0,18.2-14.69,18.57-15,0-.07-.56-5.4-.56-5.78-.32.25-25.61,22.85-25.61,22.85-10,8.78-29.37,30.06-31.51,32.13l-.12.31.12.25s1.45,1.39,1.7,1.57Z"/></g><g class="cls-5"><path class="cls-26" d="M764.94,97.65c.07-.31,23.73-23.66,37.47-35.27.19-.12,17.89-14.43,18.52-14.93,0-.07-.07-1.26-.07-1.26s-.5-3.89-.5-4.27c-.31.25-25.48,22.72-25.48,22.72C787.1,71.48,773.54,86,767,93l-3.65,3.83h0a.86.86,0,0,1-.12.18l.06.19s1.07,1,1.51,1.45A3.39,3.39,0,0,0,764.94,97.65Z"/></g><g class="cls-5"><path class="cls-27" d="M764.88,97.65h0c.06-.31,23.73-23.72,37.47-35.33,0,0,18.14-14.62,18.51-14.94,0-.06-.06-1.25-.06-1.25s-.44-3.2-.5-4C820,42.36,795,64.7,795,64.7,787.16,71.55,773.67,86,767.2,93l-3.7,3.83v-.06l-.13.25.07.12h-.07a16.24,16.24,0,0,1,1.39,1.26C764.82,98.16,764.88,97.65,764.88,97.65Z"/></g><g class="cls-5"><path class="cls-28" d="M764.76,97.65h0c.06-.31,23.78-23.78,37.53-35.46l18.45-14.87c0-.06-.06-1.19-.06-1.19s-.44-3.08-.51-3.83c-.31.25-25.16,22.47-25.16,22.47C787.22,71.61,773.67,86.11,767.2,93l-3.64,3.89h0V97l.07.13-.07-.06a12.83,12.83,0,0,1,1.26,1.13A2.17,2.17,0,0,1,764.76,97.65Z"/></g><g class="cls-5"><path class="cls-29" d="M764.69,97.65h0c.07-.31,23.79-23.85,37.53-35.52l10-8.28,8.41-6.59c0-.07-.51-4-.51-4.77-.31.25-25,22.34-25,22.34-7.84,6.9-21.34,21.34-27.8,28.24h0a3.77,3.77,0,0,1-.57.57L763.63,97l.06.07c.12.12.44.37,1,.94Z"/></g><g class="cls-5"><path class="cls-30" d="M764.57,97.65v-.06c.06-.25,23.78-23.79,37.59-35.46h0a2.06,2.06,0,0,1,.32-.25s18-14.56,18.07-14.62-.5-4.21-.5-4.58c-.32.25-24.85,22.21-24.85,22.21-7.79,6.84-21.34,21.28-27.81,28.25l-.5.56c-.06.06-2.82,3-3.08,3.26a10.38,10.38,0,0,0,.82.82Z"/></g><g class="cls-5"><path class="cls-31" d="M795.26,65c-7.85,6.84-21.34,21.27-27.81,28.18l-.5.5s-2.7,2.89-3,3.2a6.71,6.71,0,0,0,.63.57c.06-.32,23.85-23.85,37.59-35.53l.32-.25s17.63-14.24,18.07-14.56c0-.06-.12-1.07-.12-1.07-.13-1.13-.32-2.76-.38-3.26C819.73,43.11,795.26,65,795.26,65Z"/></g><g class="cls-5"><path class="cls-32" d="M795.32,65.08c-7.78,6.84-21.28,21.28-27.8,28.24,0,0-3.14,3.33-3.52,3.71a5.78,5.78,0,0,0,.5.44C766.07,95.77,788.73,73.3,802,62l.31-.26s17.51-14.12,18-14.56c0-.06-.12-1-.12-1s-.25-2.45-.32-3.08C819.67,43.3,795.32,65.08,795.32,65.08Z"/></g><g class="cls-5"><path class="cls-33" d="M795.32,65.14C787.54,72,774,86.42,767.58,93.32L764.13,97a2,2,0,0,0,.37.32c2-2.07,24.36-24.29,37.47-35.4l.32-.25s17.88-14.44,18-14.5-.13-.94-.13-.94-.25-2.26-.31-2.89C819.55,43.49,795.32,65.14,795.32,65.14Z"/></g><g class="cls-5"><path class="cls-34" d="M795.38,65.21c-7.78,6.84-21.21,21.27-27.74,28.18,0,0-3.26,3.45-3.39,3.57.07.07.19.19.25.19,2.2-2.38,24.29-24.22,37.41-35.4l.31-.25,10-8.09s7.84-6.34,7.9-6.4-.12-.95-.12-.95-.25-2.44-.32-2.76C819.48,43.68,795.38,65.21,795.38,65.21Z"/></g><g class="cls-5"><path class="cls-35" d="M795.45,65.27c-7.79,6.84-21.22,21.28-27.74,28.18L766,95.27,764.38,97l.06.07c2.45-2.64,24.35-24.23,37.35-35.34l.31-.25v.06c.06-.06.38-.31,1.76-1.44,0,0,16.13-13,16.19-13.05s-.13-.88-.13-.88-.25-2.33-.31-2.58C819.42,43.87,795.45,65.27,795.45,65.27Z"/></g><g class="cls-5"><path class="cls-36" d="M795.51,65.33c-7.78,6.84-21.21,21.28-27.74,28.18h0c0,.06-.13.13-.32.38,0,0-.56.63-1,1.07,6.28-6.28,24.1-23.73,35.34-33.27l.31-.25v.06c.06-.12.25-.31,1.76-1.5,0,0,16.06-13,16.13-13.06s-.07-.81-.07-.81-.25-2.2-.25-2.39C819.36,44.06,795.51,65.33,795.51,65.33Z"/></g><g class="cls-5"><path class="cls-4" d="M832.48,50.71l3.13,3.76,3.27,3.64,2.19,2.33C852.68,72.05,876.28,95.77,876.53,96a.31.31,0,0,1,.13.19h0c0,.06-.06.12-.06.19-1,.94-24.1,23.22-36.66,33.89l-19.33,15.63.57,11.92,29.5-26.3c10.79-9.47,31.38-32.07,31.57-32.26a2.51,2.51,0,0,0,.81-1.88,2.61,2.61,0,0,0-.81-1.88l-.13-.13c-3.58-3.39-21.72-20.71-30.94-29.56-3.14-3-4.27-3.95-5.4-4.89l-5-4.15-8.28-6"/></g><g class="cls-5"><path class="cls-4" d="M880.55,100.42l-8.22,8.78c2.82-2.88,5-5.14,6.53-6.84a10,10,0,0,1,.75-.81c.31-.38.63-.69.94-1v-.12M833.67,51.84c.69.81,2.13,2.57,2.13,2.57l-.06-.06c.06.06.38.38,3.33,3.7l2.19,2.26,30.5,30.57,5,5,.13.26h0a1.6,1.6,0,0,1-.13.31c-2.51,2.38-24.41,23.47-36.71,33.89,0,0-19,15.31-19.27,15.63,0,.06.25,4.77.38,8.16l.18.19c-.18-3.21-.44-8.16-.44-8.23l19.21-15.56c12.93-11,36.53-33.77,36.72-34a2.81,2.81,0,0,0,.12-.5h0l-.19-.31-5-5-30.5-30.56-2.07-2.26-.19-.19c-2.88-3.27-3.07-3.45-3.14-3.52l.13.07s-.63-.76-1.07-1.32l5.53,4.2,5.08,4.15a60.75,60.75,0,0,1,5.33,4.77c8.1,7.84,23,22,30,28.68v-.25C873.84,87.8,859,73.74,851,66c-3.08-2.95-4.2-3.89-5.33-4.83L840.57,57c-.12,0-6-4.45-6.9-5.14"/></g><g class="cls-5"><path class="cls-37" d="M880.55,100.1c-2.45,2.64-8,8.66-14.12,15,2.26-2.19,4.2-4.14,5.9-5.9l8.22-8.78v-.32M834.8,53c.5.56,1.06,1.32,1.06,1.32l-.12-.07c.12.07.25.25,3.14,3.52l.31.19,2.2,2.26,30.44,30.56,5,5L877,96h0c0,.07-.12.5-.12.5-.19.19-23.79,23-36.72,34,0,0-18.89,15.25-19.2,15.56,0,.07.25,5,.44,8.23l.18.18c-.18-3.07-.43-8.28-.43-8.34.37-.32,19.14-15.51,19.14-15.51C853.56,119.31,877,96.71,877,96.52a5.72,5.72,0,0,0,.12-.62h0l-.19-.38-5-5L841.51,60l-2.13-2.26-3.33-3.58h0L836,54.1c.88.63,4.27,3.2,4.27,3.2l5.08,4.14a56.41,56.41,0,0,1,5.27,4.77c8.35,8,23.23,22.28,30.13,28.81v-.25c-7-6.66-21.84-20.84-30-28.68a61.83,61.83,0,0,0-5.34-4.77l-5.08-4.15c.06,0-3.89-3-5.52-4.2"/></g><g class="cls-5"><path class="cls-37" d="M844,136.38c-3.39,3-7.65,6.84-11.54,10.29,2.95-2.57,6.71-5.9,11.54-10.29m36.53-36.53c-2.95,3.14-11,11.86-18.83,19.83,1.7-1.63,3.27-3.13,4.71-4.58,6.09-6.34,11.67-12.36,14.12-15v-.25M836,54.1l.06.06h0l3.27,3.64,2.13,2.26L872,90.62l5,5,.19.38h0a5.14,5.14,0,0,1-.13.63c-.12.12-23.47,22.72-36.77,34.08,0,0-18.83,15.19-19.15,15.5,0,.06.32,5.27.44,8.35.06.06.19.12.19.18-.13-2.82-.44-8.34-.44-8.41l19.08-15.43c13.62-11.55,36.78-34.08,36.84-34.15s.06-.56.06-.75h0l-.25-.38-5-5L841.51,60.06l-2.13-2.26s-1.38-1.51-2.13-2.38c.5.37,2.76,2.13,2.82,2.13l.5.44c4.08,3.33,4.58,3.76,4.71,3.76h-.13a57.37,57.37,0,0,1,5.28,4.77C858.9,74.75,873.9,89,880.61,95.39v-.25c-6.84-6.52-21.77-20.71-30.12-28.8-3.08-3-4.21-3.89-5.27-4.77l-5.09-4.15A39.18,39.18,0,0,0,836,54.1"/></g><g class="cls-5"><path class="cls-38" d="M851,129.91c-.38.32-.75.63-1.07,1,0,0-13.55,12.11-21.84,19.45,1.19-1,2.64-2.2,4.4-3.64,3.89-3.51,8.22-7.34,11.54-10.29,2.14-1.95,4.46-4.14,7-6.47m29.62-30.37c-3.57,3.76-15.62,16.94-25,26,2.26-2.13,4.33-4.14,6.22-6,7.84-8,15.87-16.69,18.82-19.83v-.25m-43.3-44.19c.75.82,2.13,2.39,2.13,2.39L841.58,60l30.5,30.56,5,5,.25.38h0c0,.12-.07.75-.07.75S854,119.24,840.38,130.79c0,0-18.76,15.13-19.08,15.44,0,.06.32,5.59.44,8.41l.07.06h.12c-.12-2.51-.5-8.28-.5-8.34.38-.32,19-15.38,19-15.38,13.93-11.86,36.9-34.2,36.9-34.27l.06-.81v-.07l-.25-.44-5-5L841.76,59.81l-2.13-2.26h0s-.44-.5-.88-.94c.57.44,1.26.94,1.26.94s4.83,4,5.08,4.14a66,66,0,0,1,5.27,4.77c8.54,8.22,23.6,22.6,30.32,29v-.25C873.9,88.74,859,74.5,850.49,66.34c-3.08-3-4.21-3.89-5.27-4.77h.12c-.12,0-.63-.44-4.71-3.77l-.5-.44c0,.06-2.32-1.63-2.82-2"/></g><g class="cls-5"><path class="cls-39" d="M880.61,99.29c-4.14,4.33-21.27,23.09-30.81,31.44,0,0-16.57,14.75-24,21.46.69-.5,1.44-1.13,2.32-1.82,8.22-7.34,21.84-19.45,21.84-19.45.38-.32.69-.63,1.07-.94.69-.63,1.38-1.32,2.07-1.95.82-.82,1.63-1.57,2.45-2.32,9.41-9.16,21.46-22.28,25-26l.06-.37M838.75,56.61c.44.44.88.94.88.94h0l2.13,2.26,30.51,30.56,5,5,.26.44v.06l-.07.82c-.06.06-23,22.47-36.9,34.27,0,0-18.7,15.06-19,15.37,0,.07.38,5.84.5,8.35a.23.23,0,0,0,.19-.06c-.12-2.2-.5-8.16-.5-8.22.38-.32,19-15.32,19-15.32,13.31-11.29,36.91-34.14,37-34.39l.06-.82-.06-.18-.31-.44-5-5-30.5-30.57s-.88-.94-1.51-1.57L845,61.94c1.07.88,2.2,1.82,5.28,4.77C858.84,75,874,89.5,880.68,95.83v-.25c-6.72-6.4-21.84-20.77-30.32-29a56.41,56.41,0,0,0-5.27-4.77L840,57.68a9.52,9.52,0,0,0-1.26-1.07"/></g><g class="cls-5"><path class="cls-40" d="M880.61,99c-3.82,4.08-21.34,23.16-30.94,31.57,0,0-19.33,17.26-25.48,22.72.44-.31.94-.69,1.57-1.13,7.47-6.65,24-21.46,24-21.46,9.54-8.35,26.67-27.12,30.81-31.45V99M840.32,58.11c.63.63,1.51,1.57,1.51,1.57l30.5,30.57,5,5,.31.44.06.18-.06.82c-.12.31-23.66,23.1-37,34.39,0,0-18.64,15-19,15.32,0,.06.38,6,.5,8.22.07,0,.13-.06.19-.13-.12-1.75-.5-8-.5-8l18.89-15.25c13.37-11.36,37-34.27,37-34.52l.06-.82v-.12l-.06-.13-.31-.5-5-5c-17.2-17.26-27.18-27.24-29.75-29.81,1,.82,2.19,1.76,2.19,1.76,1.07.88,2.2,1.82,5.21,4.71,8.73,8.41,24,23,30.57,29.24v-.25c-6.65-6.34-21.84-20.84-30.44-29.12A67.55,67.55,0,0,0,845,61.88s-4-3.2-4.71-3.77"/></g><g class="cls-5"><path class="cls-41" d="M880.61,98.72c-3.51,3.7-21.4,23.22-31.06,31.76,0,0-22.6,20.21-26.49,23.6.31-.19.69-.44,1.13-.76,6.15-5.46,25.48-22.72,25.48-22.72,9.6-8.41,27.12-27.55,30.94-31.56v-.32m-37.9-38.47c2.63,2.63,12.55,12.61,29.74,29.81l5,5,.32.5.06.13v.12l-.06.82c-.13.31-23.66,23.16-37,34.52l-18.89,15.25c0,.06.44,6.21.5,8,.06,0,.12-.06.19-.12-.07-1.13-.57-7.79-.57-7.85l18.83-15.19c13.43-11.42,37-34.39,37.09-34.64l.06-.88v-.13l-.06-.19-.31-.5h0S847.79,65.08,845.4,62.63c1,.76,2.14,1.82,4.59,4.21,8.72,8.41,24.22,23.16,30.69,29.37V96c-6.53-6.21-21.84-20.77-30.57-29.25A60.91,60.91,0,0,0,844.9,62c0,.06-1.19-.95-2.19-1.76"/></g><g class="cls-5"><path class="cls-42" d="M845.4,62.7C847.79,65.08,877.54,95,877.54,95h0l.31.5.06.19v.12l-.06.88c-.12.31-23.66,23.22-37.09,34.64l-18.83,15.19c0,.07.5,6.66.57,7.85.12-.06.31-.19.56-.32,3.83-3.45,26.49-23.59,26.49-23.59,9.66-8.48,27.55-28,31.06-31.7v-.25c-3.2,3.33-21.4,23.28-31.19,31.88,0,0-26.36,23.54-26.67,23.85,0-.37-.57-7.4-.57-7.47L841,131.55C854.44,120.06,878,97,878.1,96.78l.07-.88-.07-.19-.06-.25-.31-.5-.07-.07S860.34,77.51,853,70.16c9.41,9,23.16,22.1,27.68,26.43v-.25c-6.53-6.22-22-20.9-30.69-29.38-2.45-2.44-3.64-3.45-4.59-4.26"/></g><g class="cls-5"><path class="cls-43" d="M853.06,70.1c7.34,7.41,24.67,24.73,24.67,24.73l.06.06.31.5.07.26.06.18-.06.88c-.07.32-23.67,23.35-37.16,34.77,0,0-18.45,14.88-18.76,15.19,0,.06.56,7.09.56,7.47.31-.25,26.67-23.85,26.67-23.85,9.79-8.6,28.06-28.56,31.2-31.88v-.25c-2.7,2.76-21.41,23.28-31.32,32,0,0-26.11,23.29-26.36,23.54,0-.38-.57-6.9-.57-7l18.71-15.12c13.55-11.49,37.15-34.65,37.21-34.9l.07-.94-.07-.25-.12-.25-.32-.5-.06-.07s-8.35-8.34-13.93-14c5.33,5.08,15.56,14.87,16.82,16.07v-.26c-4.58-4.33-18.33-17.38-27.68-26.42"/></g><g class="cls-5"><path class="cls-44" d="M863.92,80.71c5.58,5.58,13.93,14,13.93,14l.06.07.32.5.12.25.07.25-.07.94c-.06.32-23.66,23.41-37.21,34.9,0,0-18.39,14.81-18.71,15.12,0,.07.57,6.66.57,7,.31-.25,26.36-23.54,26.36-23.54,9.91-8.72,28.62-29.24,31.32-32v-.25c-2.14,2.13-21.41,23.28-31.51,32.13,0,0-25.8,23-26,23.28,0-.37-.56-6.4-.56-6.52.38-.32,18.64-15.07,18.64-15.07,13.62-11.54,37.22-34.77,37.28-35l.06-.94-.06-.25-.13-.31c-.25-.32-.31-.51-.37-.57h0l-.07-.12-3.2-3.2,5.9,5.64v-.25c-1.19-1.13-11.42-10.92-16.69-16"/></g><g class="cls-5"><path class="cls-45" d="M878.54,95.08h0m-3.76-3.76,3.2,3.2.06.12h0a6.73,6.73,0,0,1,.38.57l.12.31.07.25-.07.94c-.06.32-23.72,23.48-37.28,35,0,0-18.32,14.75-18.64,15.07,0,.06.57,6.15.57,6.52.31-.25,26-23.28,26-23.28,10.11-8.85,29.31-30,31.51-32.13v-.32a.31.31,0,0,1-.13.19c-2.07,2.07-21.46,23.35-31.5,32.13,0,0-25.48,22.72-25.8,23,0-.38-.56-5.9-.56-6,.37-.31,18.57-15,18.57-15C855,120.31,878.61,97,878.73,96.78l.06-1h0l-.06-.31-.06-.13c.56.57,1.94,1.82,1.94,1.82s.07.13.13.13V97c-.25-.12-4.33-4-6-5.64"/></g><g class="cls-5"><path class="cls-46" d="M823.44,152.51c0-.38-.44-4.27-.44-4.27s-.13-1.19-.13-1.26c.63-.5,18.33-14.81,18.52-14.93,13.68-11.61,37.34-35,37.47-35.27,0,0,.06-.69.06-.88.44.37,1.51,1.44,1.51,1.44h0l.06.19a1,1,0,0,0-.13.19h0l-3.64,3.83c-6.52,7-20,21.4-27.8,28.3,0-.06-25.17,22.41-25.48,22.66m55.23-57.18.06.13.06.31h0l-.06,1c-.06.31-23.72,23.59-37.41,35.14,0,0-18.26,14.69-18.57,15,0,.06.56,5.65.56,6,.32-.25,25.8-23,25.8-23,10-8.85,29.37-30.06,31.5-32.13a.31.31,0,0,0,.13-.19v-.31a.13.13,0,0,0-.13-.13c-.06,0-1.38-1.32-1.94-1.82m-.13-.25h0"/></g><g class="cls-5"><path class="cls-47" d="M823.63,152.13c0-.81-.38-3.76-.38-3.76s-.13-1.2-.13-1.26l18.46-14.87C855.32,120.56,879,97.09,879,96.84v-.57a12.83,12.83,0,0,0,1.26,1.13l-.06-.06.06.13v.06h0c-3.51,3.7-3.64,3.89-3.64,3.89h0c-6.46,7-20,21.4-27.8,28.24-.07-.06-24.92,22.22-25.23,22.47m55.29-56.3c0,.19-.06.88-.06.88-.07.32-23.73,23.66-37.47,35.27-.19.13-17.89,14.44-18.52,14.94,0,.06.13,1.26.13,1.26s.37,3.89.44,4.27c.31-.26,25.48-22.72,25.48-22.72,7.78-6.85,21.34-21.34,27.8-28.31l3.64-3.83h0a1.61,1.61,0,0,1,.13-.19l-.06-.19h0c0,.07-1.07-1-1.51-1.38"/></g><g class="cls-5"><path class="cls-48" d="M841.7,132.3c13.75-11.68,37.47-35.21,37.53-35.46v-.19a8.88,8.88,0,0,1,.82.82c-.32.31-3.08,3.26-3.08,3.26l-.5.5c-6.46,7-20,21.4-27.8,28.24,0,0-24.6,22-24.86,22.22,0-.37-.5-4.45-.5-4.58s18.08-14.62,18.08-14.62a.71.71,0,0,0,.31-.19h0m37.41-36v.57c-.07.25-23.79,23.72-37.47,35.4,0,0-18.08,14.56-18.45,14.87,0,.06.12,1.26.12,1.26s.38,2.95.38,3.76c.31-.25,25.17-22.47,25.17-22.47,7.78-6.84,21.34-21.27,27.8-28.24h0s.13-.19,3.64-3.89h0v-.06l-.06-.13.06.06-1.19-1.13"/></g><g class="cls-5"><path class="cls-49" d="M879.23,96.65v.19c-.06.25-23.78,23.78-37.53,35.46h0a1.81,1.81,0,0,1-.31.25s-18,14.56-18.08,14.62.5,4.21.5,4.58c.32-.25,24.86-22.21,24.86-22.21,7.78-6.84,21.27-21.28,27.8-28.25l.5-.5c.07-.06,2.83-3,3.08-3.26a4.88,4.88,0,0,0-.82-.88"/></g><rect class="cls-4" x="763.93" y="78.48" width="8.22" height="7.97" transform="translate(165.89 566.3) rotate(-44.91)"/><rect class="cls-4" x="871.45" y="77.45" width="1.63" height="6.34"/><polygon class="cls-50" points="829.65 75.94 829.65 112.97 818.73 112.97 818.67 82.65 823.38 81.53 821.99 76 829.65 75.94"/><path class="cls-50" d="M785.53,84c4.52-.19,11.11-.5,15.25,0,5.27.63,12.18,2,12.74,9.42.25,3.51-.94,6.52-5.9,10.48,0,0,5,5.46,9.6,10.67,0,0-5.71,5.39-8.85,8l-11.23-18.64c2.51-2,5.52-4.77,5.52-8.1a4.85,4.85,0,0,0-4.08-4.71h-2.32v31.13H785.53Z"/><polygon class="cls-50" points="842.39 122.01 842.39 92.76 831.85 92.76 831.85 83.34 863.98 83.34 863.98 92.76 853.5 92.76 853.5 122.01 842.39 122.01"/><path d="M781.39,74.31l-.07,9.35H770v8.66l10.49-.06v8.91h-10.3v15H758.86V74.81C770.15,74.31,781.39,74.31,781.39,74.31Z"/><polygon class="cls-50" points="898.19 97.91 905.47 98.16 908.35 79.39 899.32 78.64 898.19 97.91"/><polygon points="894.92 102.05 900.63 97.4 906.66 104.94 900.95 109.52 896.37 103.81 894.92 102.05"/><polygon class="cls-50" points="827.14 110.83 814.34 110.83 814.27 78.83 818.79 77.7 817.35 71.92 827.14 71.92 827.14 110.83"/><path class="cls-50" d="M838,90.62l-9.48.26-1.07.12V79.33h34.08V91H860.4l-9.35-.38v29.25h-13V90.62Z"/><path class="cls-50" d="M860.84,70h.38c3.7,0,14.44-.19,29,.63l1.63.12-15.32,28.5c3.14.06,7.22.12,12.62-.25l1.19-.07v11.55H857.83l15.25-29.25c-3.26,0-7.15,0-11.86.25l-.44.07V70Z"/><path d="M778.88,71.11V81.59H767.45V88l10.49-.06V98.85h-10.3v15H754.46v-43l.88-.07c11.3-.5,23.22-.44,23.22-.44"/><path class="cls-50" d="M793.75,99.6c2.32-1.95,4.58-4.27,4.58-7a3.9,3.9,0,0,0-3.2-3.76h-1.38ZM797.45,80c5.15.62,12.93,2.07,13.56,10.29.25,3.7-1,6.84-5.46,10.67l9.6,11.23-.56.57a96.12,96.12,0,0,1-8.73,7.78l-.81.69-11.24-18.64V120H781.14V80L782,80A126,126,0,0,1,797.45,80Z"/><polygon class="cls-50" points="895.17 75.88 906.22 76.75 903.02 97.4 893.92 97.09 895.17 75.88"/><path d="M904.53,103.43l-5.84-7.22-7.22,5.84h-1.13v1.13c-5.14.25-9,.12-11.86.06l15.38-28.56c-14.56-.81-25.11-.62-32.77-.44v9.61c9.48-.51,13.56-.44,17.08-.51L863,112.59h30V103.8l4.39,5.47Z"/><polygon class="cls-51" points="826.2 72.86 826.2 109.83 815.28 109.83 815.22 79.58 819.92 78.45 818.54 72.86 826.2 72.86"/><path class="cls-51" d="M782.08,80.9c4.52-.19,11.11-.51,15.25,0,5.27.62,12.17,2,12.74,9.41.25,3.52-.94,6.53-5.9,10.48l9.67,11.3a105,105,0,0,1-8.6,7.72l-11.49-19.08c2.51-2,5.52-4.77,5.52-8.1a4.84,4.84,0,0,0-4.07-4.7h-2.33v31.13H782.08Z"/><polygon class="cls-51" points="838.94 118.93 838.94 89.68 828.4 89.94 828.4 80.27 860.53 80.27 860.53 89.94 850.05 89.68 850.05 118.93 838.94 118.93"/><path class="cls-51" d="M861.6,80.58V71c3.7,0,14.24-.19,28.8.63L875,100.16c3.32.07,8,.19,14.43-.25v9.61h-30l15.19-29.25C871.14,80.33,867.06,80.33,861.6,80.58Z"/><polygon class="cls-52" points="777.94 77.07 777.94 80.52 766.51 80.52 766.51 89.18 776.99 89.12 776.99 98.03 766.64 98.03 766.64 113.03 755.4 113.03 755.4 71.73 777.94 71.29 777.94 77.07"/><polygon class="cls-51" points="894.92 96.15 902.2 96.4 905.09 77.63 896.05 76.88 894.92 96.15"/><rect class="cls-52" x="894.33" y="99.14" width="7.34" height="7.34" transform="translate(135.53 588.22) rotate(-39.01)"/></g></svg>