<svg xmlns="http://www.w3.org/2000/svg" viewBox="0 0 1400 200"><defs><style>.cls-1{fill:#feb400;}.cls-2{fill:none;stroke:#5f5f60;stroke-miterlimit:10;}.cls-3{fill:#ccc;}</style></defs><title>HOOBS_x_scout</title><g id="HOOBS_LOGO" data-name="HOOBS LOGO"><path class="cls-1" d="M152.1,39.5H77.79A22.36,22.36,0,0,0,55.63,61.92v75.16A22.36,22.36,0,0,0,77.79,159.5H152.1a22.36,22.36,0,0,0,22.16-22.42V61.92A22.36,22.36,0,0,0,152.1,39.5Zm3,57.94a3.11,3.11,0,0,1-2.65,2.53,2.6,2.6,0,0,1-3.1-1.4c-1.22-3.28-3.9-5.27-6.23-7.51a8.46,8.46,0,0,1-2.91-7.15c.14-1.83,0-3.69,0-5.53h0c0-2.46,0-4.92,0-7.38,0-2.23-1.38-2.65-3.19-2.61s-3.9-.31-4,2.45c-.1,2.23,0,4.46-.08,6.69,0,.73.37,1.78-.35,2.14s-1.23-.67-1.74-1.16c-4.88-4.62-9.77-9.23-14.57-13.94-1.48-1.45-2.59-1.42-4,0q-15.85,16.1-31.81,32.1c-1.39,1.39-1.57,2.51,0,3.79.35.3.64.66,1,1,2.09,2.07,2.41,2,4.64-.06C93,95,99.53,88.09,106.27,81.43c1.41-1.39,2.91-2.7,4.35-4.06,2.71-2.57,5.82-2.66,8.51-.05,2.91,2.82,5.7,5.76,8.57,8.62,5.31,5.28,10.67,10.51,16,15.81,3.49,3.48,3.44,6.58,0,10.12-5.42,5.51-7.54,5.49-13,0-4.76-4.75-9.64-9.38-14.39-14.14-1.49-1.5-2.61-1.35-4,.1q-7.6,7.8-15.34,15.48c-1.35,1.33-1.35,2.43,0,3.68.5.47,1,.95,1.45,1.47,1.22,1.37,2.35,1.36,3.67,0,2.7-2.7,5.48-5.32,8.23-8s6-2.78,8.74-.2q4.59,4.32,9,8.83a5.89,5.89,0,0,1,0,8.48c-2,2.19-4.18,4.25-6.27,6.38a12.38,12.38,0,0,0-3.29,4.33,2.74,2.74,0,0,1-3.12,1.82,3,3,0,0,1-2.73-2.41,3.1,3.1,0,0,1,1.61-3.71c4.35-2.08,6.84-6.22,10.3-9.28a1.59,1.59,0,0,0,0-2.6c-2.75-2.76-5.49-5.53-8.25-8.28-1.11-1.12-2.13-.82-3.16.2-2.73,2.67-5.51,5.3-8.24,8s-5.82,2.83-8.75.39c-.76-.64-1.45-1.37-2.14-2.08-3.52-3.61-3.54-6.78,0-10.34q7.74-7.83,15.5-15.64c3.3-3.31,6.41-3.34,9.74-.08Q127,102,134.8,109.74c2.23,2.18,2.48,2.15,5.12-.54,2.23-2.28,2.26-2.62.05-4.83-7.74-7.72-15.51-15.4-23.22-23.15-1.31-1.32-2.34-1.41-3.65-.11-3.57,3.56-7.18,7.08-10.77,10.62q-7.11,7-14.23,14a5.85,5.85,0,0,1-8.58.2c-5.65-5.14-7-7.85-.5-14.2,10.21-9.89,20.08-20.14,30.09-30.24,3.58-3.6,6.67-3.61,10.25-.1,2.46,2.4,5,4.74,7.44,7.14,1,1,1.69,1.58,2.23-.45a5.07,5.07,0,0,1,4.41-3.82,22.64,22.64,0,0,1,2.72-.31c6.33-.17,8.55,2,8.57,8.43,0,3.85,0,7.69,0,11.54a4.59,4.59,0,0,0,1.57,3.87c2.46,2.13,4.24,5,7.44,6.32A2.8,2.8,0,0,1,155.13,97.44Z"/><path class="cls-1" d="M276.93,40.9v81.53H258.06V89H221v33.43H202.15V40.9H221V73h37V40.9Zm14.21,40.76c0-24.22,18.87-42.16,44.61-42.16s44.61,17.82,44.61,42.16-19,42.17-44.61,42.17S291.14,105.89,291.14,81.66Zm70.12,0c0-15.49-10.95-26.09-25.51-26.09s-25.51,10.6-25.51,26.09,10.95,26.1,25.51,26.1S361.26,97.15,361.26,81.66Zm28.19,0c0-24.22,18.87-42.16,44.61-42.16s44.61,17.82,44.61,42.16-19,42.17-44.61,42.17S389.45,105.89,389.45,81.66Zm70.12,0c0-15.49-10.95-26.09-25.51-26.09s-25.51,10.6-25.51,26.09,10.95,26.1,25.51,26.1S459.57,97.15,459.57,81.66Zm108.09,18.52c0,14.1-11.18,22.25-32.61,22.25H492.88V40.9h39.84c20.38,0,30.87,8.5,30.87,21.2A19.59,19.59,0,0,1,552.75,80C561.84,82.94,567.66,89.93,567.66,100.18Zm-56-45.07V74.33h18.75c9.2,0,14.21-3.27,14.21-9.67s-5-9.55-14.21-9.55Zm37,43.09c0-6.87-5.24-10.13-15-10.13h-22v20.15h22C543.44,108.22,548.68,105.19,548.68,98.2Zm26.9,16.19L582,100.18a47.94,47.94,0,0,0,26.91,8.51c11.18,0,15.72-3.73,15.72-8.74,0-15.26-47.4-4.77-47.4-35.06,0-13.86,11.18-25.39,34.36-25.39,10.25,0,20.73,2.45,28.3,7.22l-5.82,14.33a46.07,46.07,0,0,0-22.6-6.41C600.28,54.64,596,58.83,596,64c0,15,47.4,4.66,47.4,34.59,0,13.63-11.29,25.28-34.59,25.28C595.85,123.83,582.81,120,575.58,114.39Z"/><path class="cls-1" d="M201.05,137.31h2.7v8.77H215v-8.77h2.72V157H215v-8.45H203.75V157h-2.7Z"/><path class="cls-1" d="M237.12,138.47a9.83,9.83,0,0,1,3.75,3.6,9.61,9.61,0,0,1,1.38,5.05,9.75,9.75,0,0,1-1.38,5.07,9.89,9.89,0,0,1-3.75,3.65,10.87,10.87,0,0,1-10.42,0,10,10,0,0,1-3.75-3.65,9.84,9.84,0,0,1-1.37-5.07,9.69,9.69,0,0,1,1.37-5.05,10,10,0,0,1,3.74-3.6,11,11,0,0,1,10.43,0Zm-9,2.1a7.74,7.74,0,0,0-2.8,2.74,7.5,7.5,0,0,0,0,7.62,7.67,7.67,0,0,0,2.8,2.77,7.33,7.33,0,0,0,3.8,1,7.21,7.21,0,0,0,3.78-1,7.61,7.61,0,0,0,2.75-2.77,7.56,7.56,0,0,0,0-7.62,7.68,7.68,0,0,0-2.75-2.74,7.38,7.38,0,0,0-3.78-1A7.5,7.5,0,0,0,228.14,140.57Z"/><path class="cls-1" d="M246.12,137.31h3.21l7.19,13.82,7.13-13.82h3.23V157h-2.53l0-15.7-7,13.63h-1.66l-7-13.63V157h-2.5Z"/><path class="cls-1" d="M272.5,137.31h13.64v2.45H275.19v6.06H285v2.45h-9.8v6.26h11.29V157h-14Z"/><path class="cls-1" d="M304,138.62a4.27,4.27,0,0,1,1.73,3.61,4.39,4.39,0,0,1-.95,2.85,4.63,4.63,0,0,1-2.62,1.56,5.09,5.09,0,0,1,3.22,1.64,4.87,4.87,0,0,1,1.17,3.33,4.65,4.65,0,0,1-1.9,3.94,8.54,8.54,0,0,1-5.24,1.42h-8.54V137.31h8.4A7.68,7.68,0,0,1,304,138.62Zm-2,6.26a2.6,2.6,0,0,0,1-2.2,2.53,2.53,0,0,0-1-2.16,4.41,4.41,0,0,0-2.82-.73h-5.56v5.87h5.56A4.47,4.47,0,0,0,301.91,144.88Zm.61,8.79a2.76,2.76,0,0,0,1.23-2.4,2.67,2.67,0,0,0-1.23-2.33,6.06,6.06,0,0,0-3.43-.84h-5.56v6.4h5.56A5.83,5.83,0,0,0,302.52,153.67Z"/><path class="cls-1" d="M323.52,157l-3.9-6.17c-.45,0-.81,0-1.1,0h-5V157h-2.7V137.31h7.69A8.71,8.71,0,0,1,324.3,139a6.1,6.1,0,0,1,2,4.9,7,7,0,0,1-1.11,4,6.27,6.27,0,0,1-3.18,2.36l4.57,6.65Zm-5-8.56a6,6,0,0,0,3.88-1.11,4,4,0,0,0,1.35-3.27,3.84,3.84,0,0,0-1.35-3.19,6.08,6.08,0,0,0-3.88-1.08h-5v8.65Z"/><path class="cls-1" d="M331.13,137.31h2.7V157h-2.7Z"/><path class="cls-1" d="M352.63,138.59a9.36,9.36,0,0,1,3.64,3.53,10.19,10.19,0,0,1,0,10,9.51,9.51,0,0,1-3.67,3.53,10.67,10.67,0,0,1-5.22,1.27h-7.92V137.31h8A10.55,10.55,0,0,1,352.63,138.59Zm-1.4,15a7,7,0,0,0,2.64-2.64,7.34,7.34,0,0,0,1-3.76,7.43,7.43,0,0,0-1-3.79,7.13,7.13,0,0,0-2.69-2.65,7.43,7.43,0,0,0-3.77-1h-5.26v14.77h5.37A7.34,7.34,0,0,0,351.23,153.57Z"/><path class="cls-1" d="M374.41,147.37h2.39v7.22a12.08,12.08,0,0,1-3.48,1.88,11.82,11.82,0,0,1-4,.7,10.37,10.37,0,0,1-5.2-1.33,10,10,0,0,1-3.72-3.65,9.83,9.83,0,0,1-1.36-5.07,9.69,9.69,0,0,1,1.37-5.05,10,10,0,0,1,3.77-3.6,10.72,10.72,0,0,1,5.28-1.32,11.27,11.27,0,0,1,4,.73,10.6,10.6,0,0,1,3.38,2l-1.54,2a8.73,8.73,0,0,0-5.84-2.31,7.72,7.72,0,0,0-3.88,1,7.54,7.54,0,0,0-2.79,2.76,7.32,7.32,0,0,0-1,3.82,7.42,7.42,0,0,0,1,3.83,7.7,7.7,0,0,0,6.69,3.8,8.27,8.27,0,0,0,2.51-.4,9.26,9.26,0,0,0,2.37-1.14Z"/><path class="cls-1" d="M381.91,137.31h13.65v2.45H384.61v6.06h9.8v2.45h-9.8v6.26H395.9V157h-14Z"/><path class="cls-1" d="M421.41,138.47a10,10,0,0,1,3.75,3.6,9.61,9.61,0,0,1,1.38,5.05,9.75,9.75,0,0,1-1.38,5.07,10,10,0,0,1-3.75,3.65,10.87,10.87,0,0,1-10.42,0,10,10,0,0,1-3.75-3.65,9.75,9.75,0,0,1-1.37-5.07,9.6,9.6,0,0,1,1.37-5.05,10,10,0,0,1,3.74-3.6,11,11,0,0,1,10.43,0Zm-9,2.1a7.71,7.71,0,0,0-2.79,2.74,7.5,7.5,0,0,0,0,7.62,7.64,7.64,0,0,0,2.79,2.77,7.36,7.36,0,0,0,3.81,1,7.21,7.21,0,0,0,3.78-1,7.61,7.61,0,0,0,2.75-2.77,7.63,7.63,0,0,0,0-7.62,7.68,7.68,0,0,0-2.75-2.74,7.38,7.38,0,0,0-3.78-1A7.54,7.54,0,0,0,412.42,140.57Z"/><path class="cls-1" d="M434.19,153.2a5.53,5.53,0,0,0,4.14,1.53,5.45,5.45,0,0,0,4.1-1.53,5.86,5.86,0,0,0,1.49-4.26V137.31h2.7v11.63a8.13,8.13,0,0,1-2.21,6,8.24,8.24,0,0,1-6.08,2.19,8.34,8.34,0,0,1-6.12-2.19,8.09,8.09,0,0,1-2.22-6V137.31h2.7v11.63A5.83,5.83,0,0,0,434.19,153.2Z"/><path class="cls-1" d="M449.29,137.31h15.36v2.48H458.3V157h-2.7V139.79h-6.31Z"/><path class="cls-1" d="M488.9,138.47a10,10,0,0,1,3.75,3.6,9.69,9.69,0,0,1,1.37,5.05,9.84,9.84,0,0,1-1.37,5.07,10,10,0,0,1-3.75,3.65,10.87,10.87,0,0,1-10.42,0,10,10,0,0,1-3.75-3.65,9.75,9.75,0,0,1-1.38-5.07,9.61,9.61,0,0,1,1.38-5.05,10,10,0,0,1,3.73-3.6,11,11,0,0,1,10.44,0Zm-9,2.1a7.71,7.71,0,0,0-2.79,2.74,7.5,7.5,0,0,0,0,7.62,7.64,7.64,0,0,0,2.79,2.77,7.36,7.36,0,0,0,3.81,1,7.2,7.2,0,0,0,3.77-1,7.64,7.64,0,0,0,2.76-2.77,7.63,7.63,0,0,0,0-7.62,7.71,7.71,0,0,0-2.76-2.74,7.37,7.37,0,0,0-3.77-1A7.54,7.54,0,0,0,479.91,140.57Z"/><path class="cls-1" d="M497.9,137.31h12.8l0,2.45H500.59v6.46h9.08v2.44h-9.08V157H497.9Z"/><path class="cls-1" d="M518.68,137.31H534v2.48H527.7V157H525V139.79h-6.32Z"/><path class="cls-1" d="M537.13,137.31h2.7v8.77h11.23v-8.77h2.72V157h-2.72v-8.45H539.83V157h-2.7Z"/><path class="cls-1" d="M559.4,137.31h13.65v2.45H562.1v6.06h9.8v2.45h-9.8v6.26h11.29V157h-14Z"/><path class="cls-1" d="M598.23,138.62a4.27,4.27,0,0,1,1.73,3.61,4.35,4.35,0,0,1-1,2.85,4.64,4.64,0,0,1-2.61,1.56,5,5,0,0,1,3.21,1.64,4.87,4.87,0,0,1,1.17,3.33,4.63,4.63,0,0,1-1.9,3.94,8.53,8.53,0,0,1-5.23,1.42H585.1V137.31h8.4A7.68,7.68,0,0,1,598.23,138.62Zm-2.05,6.26a2.63,2.63,0,0,0,1-2.2,2.55,2.55,0,0,0-1-2.16,4.44,4.44,0,0,0-2.82-.73H587.8v5.87h5.56A4.5,4.5,0,0,0,596.18,144.88Zm.6,8.79a2.74,2.74,0,0,0,1.24-2.4,2.66,2.66,0,0,0-1.24-2.33,6,6,0,0,0-3.42-.84H587.8v6.4h5.56A5.78,5.78,0,0,0,596.78,153.67Z"/><path class="cls-1" d="M618.9,138.47a10,10,0,0,1,3.75,3.6,9.69,9.69,0,0,1,1.37,5.05,9.84,9.84,0,0,1-1.37,5.07,10,10,0,0,1-3.75,3.65,10.87,10.87,0,0,1-10.42,0,10,10,0,0,1-3.75-3.65,9.75,9.75,0,0,1-1.38-5.07,9.61,9.61,0,0,1,1.38-5.05,10,10,0,0,1,3.74-3.6,11,11,0,0,1,10.43,0Zm-9,2.1a7.71,7.71,0,0,0-2.79,2.74,7.5,7.5,0,0,0,0,7.62,7.64,7.64,0,0,0,2.79,2.77,7.36,7.36,0,0,0,3.81,1,7.2,7.2,0,0,0,3.77-1,7.64,7.64,0,0,0,2.76-2.77,7.63,7.63,0,0,0,0-7.62,7.71,7.71,0,0,0-2.76-2.74,7.37,7.37,0,0,0-3.77-1A7.54,7.54,0,0,0,609.91,140.57Z"/><path class="cls-1" d="M626.13,137.31h3.15l5.16,7.34,5.2-7.34h3.17l-6.65,9.44L643.37,157h-3.23l-5.7-7.95L628.8,157h-3.18l7.19-10.11Z"/></g><g id="Stroke"><line class="cls-2" x1="700.5" y1="60" x2="700.5" y2="140"/></g><g id="scout"><path class="cls-3" d="M1225.73,42.33c8.9,4.53,18.43,7.33,27.94,10.23a3,3,0,0,0,2.64-.62c3.44-2.24,7.33-3.26,11.22-4.34a3.32,3.32,0,0,1,3.19.35c.83.77-.14,1.78-.59,2.43-3.31,4.77-2.39,9.08.94,13.45,2.06,2.71,3.73,5.73,3.79,9.33,0,1.22,1,1.94,1.72,2.77a81.81,81.81,0,0,0,5.5,6.1c1.71,1.58,1.3,3.13.57,4.78s-4.38,3.39-6.24,2.81a99,99,0,0,0-33.28-4.37c-2.34.08-4.29-1.13-6.34-1.93a2.71,2.71,0,0,0-3.2.55c-2.72,2.36-5.54,4.6-8.36,6.84a7.43,7.43,0,0,0-2.18,2.78c-1.65,3.47-3.22,7-5.1,10.33a42.4,42.4,0,0,0-5,15.22,6.08,6.08,0,0,0,3.66,6.73c2,.74,1.89,2.42,2.35,3.9.06.19-.16.47-.22.71a2.07,2.07,0,0,1-2.89,1.66c-2.3-.66-5.52,1.88-6.94-1.58s-2.33-7.14-3.53-10.69a7.32,7.32,0,0,1-.29-2.78c.26-5.89.46-11.79.83-17.67a2.52,2.52,0,0,0-1.89-3c-6-2.33-11.94-4.77-17.86-7.25a11.1,11.1,0,0,0-4.55-.58c-4.88,0-10.32-1.22-14.5.52s-7,6.34-10.21,9.91a34.87,34.87,0,0,1-11.86,8.75c-4.79,2.15-8.85,5.54-13.25,8.35-.28.18-.75.4-.77.63-.29,3.83-1.88,7.71,0,11.47a3.13,3.13,0,0,1,.11,3c-.53,1.22-1.45.95-2.35,1h-2.83c-3.56,0-4.56-1-4.2-4.67.4-4,.9-8,1.43-12a5.57,5.57,0,0,1,.82-2.12c6.07-9.76,9.59-20.49,12.45-31.52,2-7.71,6.25-14.57,9.26-21.9.4-1,1.22-1.14,2-1.44,8-3.16,15.89-6.42,23.93-9.39,3.88-1.44,8.13-1.2,12.22-1.51,11.92-.89,23.7-2.77,35.52-4.44.74-.1,1.78.21,2.24-.81Z"/><path class="cls-3" d="M755.29,119.79c2.69-3.43,4.46-7.42,6.77-11.08.55-.86,1.06-1.75,1.63-2.69a41.66,41.66,0,0,0,21.07,8.34,16.55,16.55,0,0,0,7.12-.75c1.65-.59,2.83-1.67,2.81-3.56s-1.44-2.46-2.82-2.92c-4.34-1.45-8.92-1.75-13.37-2.67a55.27,55.27,0,0,1-9.37-2.73c-14.85-6-14.27-24.27-4.36-31.92A28.08,28.08,0,0,1,779.14,64c8.5-.91,16.84-.16,24.7,3.5,2.17,1,4.2,2.31,6.31,3.44,1.16.62,1.57,1.22.78,2.57-2.15,3.69-4.18,7.45-6.13,11.25-.73,1.43-1.24,1.29-2.39.4a29,29,0,0,0-16.48-5.79,13.36,13.36,0,0,0-4.84.57c-1.85.57-3.78,1.41-3.77,3.65s2.07,2.54,3.71,2.89c4.94,1.07,9.92,2,14.87,3a32.74,32.74,0,0,1,6.81,2.31c6.91,3.14,10.95,8.3,11.41,16,.48,8.07-2.92,14.09-9.88,18-8,4.57-16.85,4.89-25.78,3.92a49,49,0,0,1-23.17-9Z"/><path class="cls-3" d="M885.31,92.61a31.27,31.27,0,0,1,9.77-20c12.13-11.9,37.25-11.92,49.26.14,10.2,10.25,12.58,22.54,8,35.9S937.53,128.47,923.83,130a38.67,38.67,0,0,1-17.51-2c-11.86-4.26-20.65-15.62-21-27.24A14.27,14.27,0,0,0,885.31,92.61Zm20.54,4.29c0,7.26,3.55,12.87,9.3,14.74,9.68,3.16,18.21-3.61,18.38-14.59.16-10.31-7.26-17-16.86-15.25C910.16,83,905.85,89,905.85,96.9Z"/><path class="cls-3" d="M1006.64,128v-6.21c.3-.26.43-.59,0-.78s-.57.17-.67.51c-7.48,8.4-23,11.41-33,6.3-6.26-3.21-9.16-8.68-9.33-15.44-.23-9.82-.09-19.65-.1-29.47,0-5.3.05-10.6,0-15.89,0-1.47.43-1.85,1.87-1.83,5.41.08,10.82.11,16.23,0,1.8,0,2.28.42,2.27,2.23-.09,11.1,0,22.21,0,33.32,0,10,6.88,14.41,16.26,10.45a14.86,14.86,0,0,0,6.51-5.24c.32,0,.69-.1.71-.5s-.36-.47-.69-.53v-39c5.75,0,11.5,0,17.24,0,1.63,0,2.27.41,2.26,2.14q-.08,28.92,0,57.83c0,1.73-.63,2.18-2.26,2.16C1018.13,128,1012.38,128,1006.64,128Z"/><path class="cls-3" d="M820.81,93.12c.3-12.79,10.34-24.63,23.9-28.16,2.79-.73,5.71-.6,8.51-.94a34.06,34.06,0,0,1,14.37,1.49,26.64,26.64,0,0,1,12.73,8.33c.9,1.06.94,1.7-.17,2.68-3.58,3.18-7.09,6.46-10.56,9.77-1,.94-1.46,1.15-2.53-.05a14.84,14.84,0,0,0-16.51-3.77c-5.93,2.26-8.83,6.83-9.2,13-.71,11.85,8.78,19.65,19.53,16.12a13,13,0,0,0,6.3-4.26c.81-1,1.29-1,2.18-.11,3.52,3.39,7.06,6.75,10.71,10,1.18,1.06,1.17,1.71.15,2.87-5.26,6-12.06,9-19.8,9.81-11.73,1.26-22.44-1.2-31-9.89a29.51,29.51,0,0,1-8.62-19.21A12.37,12.37,0,0,0,820.81,93.12Z"/><path class="cls-3" d="M1035.91,65.35c2.66,0,5.32-.2,8-.09,1.66.07,2-.52,2-2.05-.09-4.44,0-8.89-.06-13.33,0-1.54.34-2.07,2-2,5.5.1,11,.09,16.5,0,1.55,0,2.07.34,2,2-.12,4.44,0,8.89-.09,13.33,0,1.75.53,2.15,2.18,2.11,3.26-.09,6.52,0,9.78.08.16.37.33.43.53,0,.9.4.45,1.19.46,1.78q.06,6.78,0,13.57c0,.62.34,1.39-.45,1.85l-.3-.39-.23.44-11.93.22c-1.26.23-1,1.23-1,2q0,9.45,0,18.91c0,.81-.26,1.77.85,2.17.82,5.72,4,7.67,9.41,5.58,1.19-.46,1.51-.42,1.82.86q1.45,6.09,3.17,12.13a1.94,1.94,0,0,1-1,2.54,17.72,17.72,0,0,1-5.69,2.31,35.07,35.07,0,0,1-14.57.18c-7.68-1.59-12.48-6.63-13.15-14.39-.84-9.63-.17-19.3-.36-28.95a9.45,9.45,0,0,0-.22-3.55l-.16-.44-.27.38c-3.23,0-6.48.6-9.69-.28.06-.06.17-.14.15-.16a1.73,1.73,0,0,0-.21-.34V65.92Z"/><path class="cls-3" d="M1142.42,62c-.82,1.84-1.4,3.25-2.06,4.62a104.07,104.07,0,0,0-8.25,22.51,12.76,12.76,0,0,1-2.27,4.81,88.11,88.11,0,0,0-6.75,9.66c-3.41,6.29-8.87,9.89-15.12,12.76-1.32.6-1.69.53-2-.9-.83-3.57-1.81-7.11-2.78-10.64a4,4,0,0,1,.2-2.48c2.43-7.46,4.87-14.91,7.23-22.39a5.55,5.55,0,0,1,1.85-2.66q6.94-5.93,13.84-11.88a4.7,4.7,0,0,1,2.42-1.34C1133.1,63.41,1137.49,62.74,1142.42,62Z"/><path class="cls-3" d="M1174.55,90.59h3.61c3.93,0,5.47,2.42,3.91,6.1-2.8,6.61-5.55,13.23-8.43,19.8a3.21,3.21,0,0,0,.27,3.54c1.77,2.49,2.45,5.85,6.17,6.72a2.36,2.36,0,0,1,1.26,3c-.44,1.19-.87,2.39-2.79,2.38-6,0-6,.09-8.62-5.12a8.66,8.66,0,0,0-.57-1.14c-4.28-6.14-5.76-12.72-3.57-20,.87-2.9-1.4-5-2.57-7.26-.84-1.66-.67-2.6.63-3.88C1168,90.65,1167.91,90.59,1174.55,90.59Z"/><path class="cls-3" d="M1234.23,86.18c.27.23.39.28.4.35,1.45,10.84,7.85,19.29,13.78,27.94,2.24,3.25,2.48,7.06,3.23,10.69.37,1.79-2,2.09-2.91,1.87-1.53-.37-3.58-1-3.74-3-.55-6.85-4.67-10.8-10.36-14-4-2.25-7.52-5.38-11.36-8-1.33-.91-1.11-1.58-.68-2.91C1224.56,93.05,1229.64,89.89,1234.23,86.18Z"/><path class="cls-3" d="M1006.64,128c5.74,0,11.49,0,17.23,0,1.63,0,2.27-.43,2.26-2.16q-.08-28.91,0-57.83c0-1.73-.63-2.17-2.26-2.14-5.74.07-11.49,0-17.24,0,.19-1.31,1.23-.67,1.83-.68,5.5-.06,11,0,16.5-.07,1.55,0,2,.35,2,2-.06,19.83,0,39.66,0,59.49,0,1,.32,2-1.41,2-6-.08-12,0-18,0C1007.07,128.62,1006.6,128.63,1006.64,128Z"/><path class="cls-3" d="M1066.17,106c-1.11-.4-.85-1.36-.85-2.17q0-9.45,0-18.91c0-.8-.3-1.8,1-2Q1066.24,94.42,1066.17,106Z"/><path class="cls-3" d="M885.31,92.61a14.27,14.27,0,0,1,0,8.19A20.17,20.17,0,0,1,885.31,92.61Z"/><path class="cls-3" d="M820.81,93.12a12.37,12.37,0,0,1,0,7.68A19.85,19.85,0,0,1,820.81,93.12Z"/><path class="cls-3" d="M1006.64,104.91c.33.06.7.12.69.53s-.39.45-.71.5Z"/><path class="cls-3" d="M1006,121.52c.1-.34.27-.7.67-.51s.28.52,0,.78Z"/><path class="cls-3" d="M1035.91,65.35l-.48.57C1035.36,65.54,1035.45,65.29,1035.91,65.35Z"/><path class="cls-3" d="M1078.72,65.38c-.2.39-.37.33-.53,0Z"/><path class="cls-3" d="M1035.43,81.83a1.73,1.73,0,0,1,.21.34s-.09.1-.15.16c0-.11-.08-.22-.1-.33S1035.42,81.89,1035.43,81.83Z"/><path class="cls-3" d="M1045.18,82.61l.27-.38.16.44-.22,0Z"/><path class="cls-3" d="M1078.21,82.63l.23-.44.3.39Z"/></g></svg>