<svg xmlns="http://www.w3.org/2000/svg" viewBox="0 0 1400 200"><defs><style>.cls-1{fill:#feb400;}.cls-2{fill:none;stroke:#5f5f60;stroke-miterlimit:10;}.cls-3{fill:#ccc;}</style></defs><title>HOOBS_x_harmony</title><g id="HOOBS_LOGO" data-name="HOOBS LOGO"><path class="cls-1" d="M152.1,39.5H77.79A22.36,22.36,0,0,0,55.63,61.92v75.16A22.36,22.36,0,0,0,77.79,159.5H152.1a22.36,22.36,0,0,0,22.16-22.42V61.92A22.36,22.36,0,0,0,152.1,39.5Zm3,57.94a3.11,3.11,0,0,1-2.65,2.53,2.6,2.6,0,0,1-3.1-1.4c-1.22-3.28-3.9-5.27-6.23-7.51a8.46,8.46,0,0,1-2.91-7.15c.14-1.83,0-3.69,0-5.53h0c0-2.46,0-4.92,0-7.38,0-2.23-1.38-2.65-3.19-2.61s-3.9-.31-4,2.45c-.1,2.23,0,4.46-.08,6.69,0,.73.37,1.78-.35,2.14s-1.23-.67-1.74-1.16c-4.88-4.62-9.77-9.23-14.57-13.94-1.48-1.45-2.59-1.42-4,0q-15.85,16.1-31.81,32.1c-1.39,1.39-1.57,2.51,0,3.79.35.3.64.66,1,1,2.09,2.07,2.41,2,4.64-.06C93,95,99.53,88.09,106.27,81.43c1.41-1.39,2.91-2.7,4.35-4.06,2.71-2.57,5.82-2.66,8.51-.05,2.91,2.82,5.7,5.76,8.57,8.62,5.31,5.28,10.67,10.51,16,15.81,3.49,3.48,3.44,6.58,0,10.12-5.42,5.51-7.54,5.49-13,0-4.76-4.75-9.64-9.38-14.39-14.14-1.49-1.5-2.61-1.35-4,.1q-7.6,7.8-15.34,15.48c-1.35,1.33-1.35,2.43,0,3.68.5.47,1,.95,1.45,1.47,1.22,1.37,2.35,1.36,3.67,0,2.7-2.7,5.48-5.32,8.23-8s6-2.78,8.74-.2q4.59,4.32,9,8.83a5.89,5.89,0,0,1,0,8.48c-2,2.19-4.18,4.25-6.27,6.38a12.38,12.38,0,0,0-3.29,4.33,2.74,2.74,0,0,1-3.12,1.82,3,3,0,0,1-2.73-2.41,3.1,3.1,0,0,1,1.61-3.71c4.35-2.08,6.84-6.22,10.3-9.28a1.59,1.59,0,0,0,0-2.6c-2.75-2.76-5.49-5.53-8.25-8.28-1.11-1.12-2.13-.82-3.16.2-2.73,2.67-5.51,5.3-8.24,8s-5.82,2.83-8.75.39c-.76-.64-1.45-1.37-2.14-2.08-3.52-3.61-3.54-6.78,0-10.34q7.74-7.83,15.5-15.64c3.3-3.31,6.41-3.34,9.74-.08Q127,102,134.8,109.74c2.23,2.18,2.48,2.15,5.12-.54,2.23-2.28,2.26-2.62.05-4.83-7.74-7.72-15.51-15.4-23.22-23.15-1.31-1.32-2.34-1.41-3.65-.11-3.57,3.56-7.18,7.08-10.77,10.62q-7.11,7-14.23,14a5.85,5.85,0,0,1-8.58.2c-5.65-5.14-7-7.85-.5-14.2,10.21-9.89,20.08-20.14,30.09-30.24,3.58-3.6,6.67-3.61,10.25-.1,2.46,2.4,5,4.74,7.44,7.14,1,1,1.69,1.58,2.23-.45a5.07,5.07,0,0,1,4.41-3.82,22.64,22.64,0,0,1,2.72-.31c6.33-.17,8.55,2,8.57,8.43,0,3.85,0,7.69,0,11.54a4.59,4.59,0,0,0,1.57,3.87c2.46,2.13,4.24,5,7.44,6.32A2.8,2.8,0,0,1,155.13,97.44Z"/><path class="cls-1" d="M276.93,40.9v81.53H258.06V89H221v33.43H202.15V40.9H221V73h37V40.9Zm14.21,40.76c0-24.22,18.87-42.16,44.61-42.16s44.61,17.82,44.61,42.16-19,42.17-44.61,42.17S291.14,105.89,291.14,81.66Zm70.12,0c0-15.49-10.95-26.09-25.51-26.09s-25.51,10.6-25.51,26.09,10.95,26.1,25.51,26.1S361.26,97.15,361.26,81.66Zm28.19,0c0-24.22,18.87-42.16,44.61-42.16s44.61,17.82,44.61,42.16-19,42.17-44.61,42.17S389.45,105.89,389.45,81.66Zm70.12,0c0-15.49-10.95-26.09-25.51-26.09s-25.51,10.6-25.51,26.09,10.95,26.1,25.51,26.1S459.57,97.15,459.57,81.66Zm108.09,18.52c0,14.1-11.18,22.25-32.61,22.25H492.88V40.9h39.84c20.38,0,30.87,8.5,30.87,21.2A19.59,19.59,0,0,1,552.75,80C561.84,82.94,567.66,89.93,567.66,100.18Zm-56-45.07V74.33h18.75c9.2,0,14.21-3.27,14.21-9.67s-5-9.55-14.21-9.55Zm37,43.09c0-6.87-5.24-10.13-15-10.13h-22v20.15h22C543.44,108.22,548.68,105.19,548.68,98.2Zm26.9,16.19L582,100.18a47.94,47.94,0,0,0,26.91,8.51c11.18,0,15.72-3.73,15.72-8.74,0-15.26-47.4-4.77-47.4-35.06,0-13.86,11.18-25.39,34.36-25.39,10.25,0,20.73,2.45,28.3,7.22l-5.82,14.33a46.07,46.07,0,0,0-22.6-6.41C600.28,54.64,596,58.83,596,64c0,15,47.4,4.66,47.4,34.59,0,13.63-11.29,25.28-34.59,25.28C595.85,123.83,582.81,120,575.58,114.39Z"/><path class="cls-1" d="M201.05,137.31h2.7v8.77H215v-8.77h2.72V157H215v-8.45H203.75V157h-2.7Z"/><path class="cls-1" d="M237.12,138.47a9.83,9.83,0,0,1,3.75,3.6,9.61,9.61,0,0,1,1.38,5.05,9.75,9.75,0,0,1-1.38,5.07,9.89,9.89,0,0,1-3.75,3.65,10.87,10.87,0,0,1-10.42,0,10,10,0,0,1-3.75-3.65,9.84,9.84,0,0,1-1.37-5.07,9.69,9.69,0,0,1,1.37-5.05,10,10,0,0,1,3.74-3.6,11,11,0,0,1,10.43,0Zm-9,2.1a7.74,7.74,0,0,0-2.8,2.74,7.5,7.5,0,0,0,0,7.62,7.67,7.67,0,0,0,2.8,2.77,7.33,7.33,0,0,0,3.8,1,7.21,7.21,0,0,0,3.78-1,7.61,7.61,0,0,0,2.75-2.77,7.56,7.56,0,0,0,0-7.62,7.68,7.68,0,0,0-2.75-2.74,7.38,7.38,0,0,0-3.78-1A7.5,7.5,0,0,0,228.14,140.57Z"/><path class="cls-1" d="M246.12,137.31h3.21l7.19,13.82,7.13-13.82h3.23V157h-2.53l0-15.7-7,13.63h-1.66l-7-13.63V157h-2.5Z"/><path class="cls-1" d="M272.5,137.31h13.64v2.45H275.19v6.06H285v2.45h-9.8v6.26h11.29V157h-14Z"/><path class="cls-1" d="M304,138.62a4.27,4.27,0,0,1,1.73,3.61,4.39,4.39,0,0,1-.95,2.85,4.63,4.63,0,0,1-2.62,1.56,5.09,5.09,0,0,1,3.22,1.64,4.87,4.87,0,0,1,1.17,3.33,4.65,4.65,0,0,1-1.9,3.94,8.54,8.54,0,0,1-5.24,1.42h-8.54V137.31h8.4A7.68,7.68,0,0,1,304,138.62Zm-2,6.26a2.6,2.6,0,0,0,1-2.2,2.53,2.53,0,0,0-1-2.16,4.41,4.41,0,0,0-2.82-.73h-5.56v5.87h5.56A4.47,4.47,0,0,0,301.91,144.88Zm.61,8.79a2.76,2.76,0,0,0,1.23-2.4,2.67,2.67,0,0,0-1.23-2.33,6.06,6.06,0,0,0-3.43-.84h-5.56v6.4h5.56A5.83,5.83,0,0,0,302.52,153.67Z"/><path class="cls-1" d="M323.52,157l-3.9-6.17c-.45,0-.81,0-1.1,0h-5V157h-2.7V137.31h7.69A8.71,8.71,0,0,1,324.3,139a6.1,6.1,0,0,1,2,4.9,7,7,0,0,1-1.11,4,6.27,6.27,0,0,1-3.18,2.36l4.57,6.65Zm-5-8.56a6,6,0,0,0,3.88-1.11,4,4,0,0,0,1.35-3.27,3.84,3.84,0,0,0-1.35-3.19,6.08,6.08,0,0,0-3.88-1.08h-5v8.65Z"/><path class="cls-1" d="M331.13,137.31h2.7V157h-2.7Z"/><path class="cls-1" d="M352.63,138.59a9.36,9.36,0,0,1,3.64,3.53,10.19,10.19,0,0,1,0,10,9.51,9.51,0,0,1-3.67,3.53,10.67,10.67,0,0,1-5.22,1.27h-7.92V137.31h8A10.55,10.55,0,0,1,352.63,138.59Zm-1.4,15a7,7,0,0,0,2.64-2.64,7.34,7.34,0,0,0,1-3.76,7.43,7.43,0,0,0-1-3.79,7.13,7.13,0,0,0-2.69-2.65,7.43,7.43,0,0,0-3.77-1h-5.26v14.77h5.37A7.34,7.34,0,0,0,351.23,153.57Z"/><path class="cls-1" d="M374.41,147.37h2.39v7.22a12.08,12.08,0,0,1-3.48,1.88,11.82,11.82,0,0,1-4,.7,10.37,10.37,0,0,1-5.2-1.33,10,10,0,0,1-3.72-3.65,9.83,9.83,0,0,1-1.36-5.07,9.69,9.69,0,0,1,1.37-5.05,10,10,0,0,1,3.77-3.6,10.72,10.72,0,0,1,5.28-1.32,11.27,11.27,0,0,1,4,.73,10.6,10.6,0,0,1,3.38,2l-1.54,2a8.73,8.73,0,0,0-5.84-2.31,7.72,7.72,0,0,0-3.88,1,7.54,7.54,0,0,0-2.79,2.76,7.32,7.32,0,0,0-1,3.82,7.42,7.42,0,0,0,1,3.83,7.7,7.7,0,0,0,6.69,3.8,8.27,8.27,0,0,0,2.51-.4,9.26,9.26,0,0,0,2.37-1.14Z"/><path class="cls-1" d="M381.91,137.31h13.65v2.45H384.61v6.06h9.8v2.45h-9.8v6.26H395.9V157h-14Z"/><path class="cls-1" d="M421.41,138.47a10,10,0,0,1,3.75,3.6,9.61,9.61,0,0,1,1.38,5.05,9.75,9.75,0,0,1-1.38,5.07,10,10,0,0,1-3.75,3.65,10.87,10.87,0,0,1-10.42,0,10,10,0,0,1-3.75-3.65,9.75,9.75,0,0,1-1.37-5.07,9.6,9.6,0,0,1,1.37-5.05,10,10,0,0,1,3.74-3.6,11,11,0,0,1,10.43,0Zm-9,2.1a7.71,7.71,0,0,0-2.79,2.74,7.5,7.5,0,0,0,0,7.62,7.64,7.64,0,0,0,2.79,2.77,7.36,7.36,0,0,0,3.81,1,7.21,7.21,0,0,0,3.78-1,7.61,7.61,0,0,0,2.75-2.77,7.63,7.63,0,0,0,0-7.62,7.68,7.68,0,0,0-2.75-2.74,7.38,7.38,0,0,0-3.78-1A7.54,7.54,0,0,0,412.42,140.57Z"/><path class="cls-1" d="M434.19,153.2a5.53,5.53,0,0,0,4.14,1.53,5.45,5.45,0,0,0,4.1-1.53,5.86,5.86,0,0,0,1.49-4.26V137.31h2.7v11.63a8.13,8.13,0,0,1-2.21,6,8.24,8.24,0,0,1-6.08,2.19,8.34,8.34,0,0,1-6.12-2.19,8.09,8.09,0,0,1-2.22-6V137.31h2.7v11.63A5.83,5.83,0,0,0,434.19,153.2Z"/><path class="cls-1" d="M449.29,137.31h15.36v2.48H458.3V157h-2.7V139.79h-6.31Z"/><path class="cls-1" d="M488.9,138.47a10,10,0,0,1,3.75,3.6,9.69,9.69,0,0,1,1.37,5.05,9.84,9.84,0,0,1-1.37,5.07,10,10,0,0,1-3.75,3.65,10.87,10.87,0,0,1-10.42,0,10,10,0,0,1-3.75-3.65,9.75,9.75,0,0,1-1.38-5.07,9.61,9.61,0,0,1,1.38-5.05,10,10,0,0,1,3.73-3.6,11,11,0,0,1,10.44,0Zm-9,2.1a7.71,7.71,0,0,0-2.79,2.74,7.5,7.5,0,0,0,0,7.62,7.64,7.64,0,0,0,2.79,2.77,7.36,7.36,0,0,0,3.81,1,7.2,7.2,0,0,0,3.77-1,7.64,7.64,0,0,0,2.76-2.77,7.63,7.63,0,0,0,0-7.62,7.71,7.71,0,0,0-2.76-2.74,7.37,7.37,0,0,0-3.77-1A7.54,7.54,0,0,0,479.91,140.57Z"/><path class="cls-1" d="M497.9,137.31h12.8l0,2.45H500.59v6.46h9.08v2.44h-9.08V157H497.9Z"/><path class="cls-1" d="M518.68,137.31H534v2.48H527.7V157H525V139.79h-6.32Z"/><path class="cls-1" d="M537.13,137.31h2.7v8.77h11.23v-8.77h2.72V157h-2.72v-8.45H539.83V157h-2.7Z"/><path class="cls-1" d="M559.4,137.31h13.65v2.45H562.1v6.06h9.8v2.45h-9.8v6.26h11.29V157h-14Z"/><path class="cls-1" d="M598.23,138.62a4.27,4.27,0,0,1,1.73,3.61,4.35,4.35,0,0,1-1,2.85,4.64,4.64,0,0,1-2.61,1.56,5,5,0,0,1,3.21,1.64,4.87,4.87,0,0,1,1.17,3.33,4.63,4.63,0,0,1-1.9,3.94,8.53,8.53,0,0,1-5.23,1.42H585.1V137.31h8.4A7.68,7.68,0,0,1,598.23,138.62Zm-2.05,6.26a2.63,2.63,0,0,0,1-2.2,2.55,2.55,0,0,0-1-2.16,4.44,4.44,0,0,0-2.82-.73H587.8v5.87h5.56A4.5,4.5,0,0,0,596.18,144.88Zm.6,8.79a2.74,2.74,0,0,0,1.24-2.4,2.66,2.66,0,0,0-1.24-2.33,6,6,0,0,0-3.42-.84H587.8v6.4h5.56A5.78,5.78,0,0,0,596.78,153.67Z"/><path class="cls-1" d="M618.9,138.47a10,10,0,0,1,3.75,3.6,9.69,9.69,0,0,1,1.37,5.05,9.84,9.84,0,0,1-1.37,5.07,10,10,0,0,1-3.75,3.65,10.87,10.87,0,0,1-10.42,0,10,10,0,0,1-3.75-3.65,9.75,9.75,0,0,1-1.38-5.07,9.61,9.61,0,0,1,1.38-5.05,10,10,0,0,1,3.74-3.6,11,11,0,0,1,10.43,0Zm-9,2.1a7.71,7.71,0,0,0-2.79,2.74,7.5,7.5,0,0,0,0,7.62,7.64,7.64,0,0,0,2.79,2.77,7.36,7.36,0,0,0,3.81,1,7.2,7.2,0,0,0,3.77-1,7.64,7.64,0,0,0,2.76-2.77,7.63,7.63,0,0,0,0-7.62,7.71,7.71,0,0,0-2.76-2.74,7.37,7.37,0,0,0-3.77-1A7.54,7.54,0,0,0,609.91,140.57Z"/><path class="cls-1" d="M626.13,137.31h3.15l5.16,7.34,5.2-7.34h3.17l-6.65,9.44L643.37,157h-3.23l-5.7-7.95L628.8,157h-3.18l7.19-10.11Z"/></g><g id="Stroke"><line class="cls-2" x1="700.5" y1="60" x2="700.5" y2="140"/></g><g id="harmony"><path class="cls-3" d="M1107.89,90.28c11.76-9.12,19.21-8.73,28.53,1.75,4.7-5.89,10.65-9,18.37-7.9s13.15,6,13.63,13.81c.6,9.66.21,19.38.4,29.07.06,3.08-1.88,2.59-3.77,2.72-2.63.18-3.16-1.16-3.13-3.47q.15-11.12,0-22.24c-.12-9.37-3.84-13.83-11.38-13.87s-12.27,5-12.52,13.9c-.2,7.22-.07,14.45,0,21.67,0,2.19.24,4.05-3.06,4.09s-3.74-1.35-3.69-4.11c.13-7.42.18-14.84,0-22.25-.22-8.62-4-13.06-10.91-13.29-7.34-.25-12.51,4.59-13,12.89-.4,7.4-.14,14.83-.16,22.25,0,2.27.51,4.45-3.21,4.52-4,.07-3.63-2.18-3.62-4.75,0-11.79,0-23.58,0-35.37,0-2.23-1-5,3.23-5.07,4.08-.1,3.51,2.35,3.65,4.75C1107.33,89.69,1107.68,90,1107.89,90.28Z"/><path class="cls-3" d="M966.94,99c0-8.76,0-17.51,0-26.27,0-2.3,0-4,3.2-3.94,3,0,4,1,3.87,3.94-.2,6.47.07,13-.12,19.42-.09,3,.75,3.93,3.82,3.87,9.14-.2,18.3-.23,27.45,0,3.49.09,4.08-1.33,4-4.34-.18-6.47,0-13-.09-19.42,0-2.27.44-3.56,3.14-3.44,2.33.1,4,.16,3.95,3.28q-.15,27.12,0,54.25c0,3-1.34,3.32-3.8,3.43-3.07.14-3.34-1.43-3.3-3.85.11-6.28-.11-12.57.1-18.85.1-3.23-.48-4.82-4.29-4.71-9.14.26-18.3.18-27.45,0-2.75-.05-3.61.83-3.54,3.56.17,6.65-.1,13.32.13,20,.1,3.11-1,3.81-3.94,3.86-3.24,0-3.16-1.7-3.14-4C967,116.88,966.94,107.93,966.94,99Z"/><path class="cls-3" d="M1054.32,124c-5.7,5.27-12,7.32-19.15,6.34-7.78-1.06-13.12-6.27-13.39-13.18-.29-7.39,4-12.47,11.89-14.4a36.49,36.49,0,0,1,17,.14c4.24,1,4.44-.8,3.69-4.09-1.19-5.17-4.7-7.64-9.61-8.37a25.39,25.39,0,0,0-14,1.8c-2.29,1-3.37.46-4.25-1.87s.18-3,2-3.66a34.43,34.43,0,0,1,20.73-1.6c7.34,1.78,11.6,7.09,11.85,14.84.29,8.74.07,17.48.16,26.23,0,2.15-.12,3.69-3,3.56-2.15-.11-3.84-.21-3.56-3A12.89,12.89,0,0,0,1054.32,124Zm-14.54,1.31c6.44.09,12.48-3.45,14.34-8.38,2.4-6.4,1.09-8.73-5.59-9.42a53.56,53.56,0,0,0-9.64-.23c-7,.53-10.58,4.13-10.18,9.65C1029.06,121.86,1033.56,125.26,1039.78,125.34Z"/><path class="cls-3" d="M1198.64,130.62a22.88,22.88,0,0,1-23.28-23.06,23.5,23.5,0,1,1,47-.24C1222.31,120.54,1212,130.65,1198.64,130.62Zm16.78-23.45c-.11-9.79-7.33-17.23-16.73-17.22s-16.47,7.48-16.38,17.42c.08,9.78,7.35,17.28,16.72,17.24S1215.52,117.07,1215.42,107.17Z"/><path class="cls-3" d="M1270.39,85.23c5.39-1.63,7.89.34,9.76,5.07,4.14,10.38,8.9,20.51,13.81,31.66,4.38-11.2,8.69-21.5,12.37-32,1.56-4.46,3.69-6.3,8.29-4.87.11.25.44.63.36.84-6.65,16.33-13,32.77-20.12,48.92-3.58,8.18-10.34,10.81-18.26,8.31-1.66-.52-4.71,0-3.8-3.5.76-2.94,2.54-3.26,5.13-2.28a9.46,9.46,0,0,0,3.93.46A8.47,8.47,0,0,0,1289,126q-7.9-17.37-15.88-34.69C1272.18,89.33,1271.3,87.29,1270.39,85.23Z"/><path class="cls-3" d="M1235,91.29c3.91-4.9,8.37-7.1,13.76-7.38,10.08-.52,17.59,5.71,18.06,15.7.42,8.93.07,17.89.2,26.83,0,2.46-.74,3.34-3.24,3.34s-3.76-.66-3.69-3.53c.17-7.42.12-14.85,0-22.27-.11-9.17-4.28-13.8-12.26-13.83s-13.16,5-13.44,13.76c-.21,6.84,0,13.7-.08,20.55,0,2.47,1.05,5.44-3.55,5.35-4.82-.1-3.15-3.41-3.18-5.63-.13-11.23-.16-22.46,0-33.69,0-2.09-2-5.46,2.9-5.85C1235.57,84.23,1233.91,88,1235,91.29Z"/><path class="cls-3" d="M1075.5,95.24c4.37-6.15,8.37-10,14.44-10.85,1.84-.24,4.11-1,3.89,2.27-.13,2,.92,4.25-2.83,4.94-10.13,1.87-14.91,7.73-15.39,18.11-.24,5.3-.2,10.63-.06,15.94.07,2.74-.41,4.18-3.67,4.16-3.09,0-3.26-1.51-3.24-3.89q.1-18.51,0-37c0-2.45-.12-4.3,3.42-4.26s3.55,1.88,3.44,4.35C1075.44,90.48,1075.5,92,1075.5,95.24Z"/><path class="cls-3" d="M911.52,81.45h6.75V94.92a6.18,6.18,0,0,0,.75-.38A11.57,11.57,0,0,1,931.34,93c4.32,1.85,6.1,5.56,6.26,10,.19,5.5.07,11,.08,16.52a2,2,0,0,1-.09.4h-6.91V105.13c0-4.11-2.09-6.4-5.87-6.43a6.13,6.13,0,0,0-6.46,6.46c0,4.69,0,9.39,0,14.08,0,.16,0,.32-.05.61h-6.76Z"/><path class="cls-3" d="M859.8,109.12c.29,2.46,3,5.32,6.6,5.51,2.34.13,4.13-.62,8.22-3.59a5.86,5.86,0,0,1,.54.47l4,4.22a16.09,16.09,0,0,1-9.09,4.78c-5,.87-9.64.11-13.47-3.42-4.34-4-5.55-10.84-3.13-16.61A14,14,0,0,1,867,91.94c7,.15,12.18,4.73,13.32,11.8.27,1.71.29,3.47.43,5.38Zm13.52-5.64c-.75-3.57-3.65-5.62-7.47-5.39-3.15.2-6,2.62-6.21,5.39Z"/><path class="cls-3" d="M823.16,99a14.22,14.22,0,0,1,1.71,10.21,14.69,14.69,0,0,1-20,10.58c-6.7-2.59-10.25-9.33-8.78-16.67A14.29,14.29,0,0,1,810.8,92c2,.09,3.94.63,5.92.75,2.32.13,4.65.07,7,0,.93,0,1.22.29,1.17,1.19a24.6,24.6,0,0,0,0,3.54C825,98.74,823.89,98.54,823.16,99Zm-12.57,15.06a7.63,7.63,0,0,0,7.58-7.78,7.71,7.71,0,0,0-7.74-7.67,7.73,7.73,0,1,0,.16,15.45Z"/><path class="cls-3" d="M779,91.93a14.45,14.45,0,1,1-14.72,14.16C764.27,98.1,770.71,91.91,779,91.93Zm-.05,22.13a7.64,7.64,0,0,0,7.74-7.76,7.72,7.72,0,0,0-15.44.08A7.67,7.67,0,0,0,778.91,114.06Z"/><path class="cls-3" d="M904.28,110.5l4.64,4.9c-2.58,4.2-9.68,6.47-15.59,4.88a14.42,14.42,0,0,1-.84-27.55c6.18-2,13.23,0,16.48,4.64-1.53,1.57-3.06,3.13-4.57,4.69a32,32,0,0,0-3.28-2.38,7.69,7.69,0,1,0-5.64,14.18c3.09.74,5.69-.38,7.94-2.46C903.69,111.16,903.93,110.87,904.28,110.5Z"/><path class="cls-3" d="M851.46,99H847.8v20.93H841V99h-3.61c0-2,0-3.83,0-5.69,0-.19.49-.5.77-.52.85-.07,1.71,0,2.72,0V84.51h7v8.28h3.6Z"/><path class="cls-3" d="M761.7,119.93H755V81.49h6.7Z"/><path class="cls-3" d="M818.28,121.72h6.94c-.26,5.06-2.06,9.28-6.39,12a14.78,14.78,0,0,1-16.33.25c-4.51-2.68-6.64-6.88-6.73-12.23h6.89A8.32,8.32,0,0,0,806,128a7.64,7.64,0,0,0,4.82,1.46C814.71,129.29,817.09,126.85,818.28,121.72Z"/><path class="cls-3" d="M827.76,119.89v-27h6.71v27.05Z"/><path class="cls-3" d="M835.71,85.16A4.55,4.55,0,0,1,831,89.72a4.57,4.57,0,0,1,.15-9.13A4.51,4.51,0,0,1,835.71,85.16Z"/></g></svg>