<svg width="300" height="300" viewBox="0 0 300 300" fill="none" xmlns="http://www.w3.org/2000/svg">
<path d="M247.749 119.989C246.646 116.129 244.44 113.371 241.132 111.165C213.561 96.2731 182.131 88 150.15 88C118.169 88 86.7385 96.2731 59.1683 111.165C55.8598 112.819 53.6542 116.129 52.5514 119.989C51.4486 123.85 52 127.711 54.2056 131.572C55.8598 134.329 58.6169 136.536 61.9253 137.639C68.5421 177.35 102.729 208.236 144.085 211.545C144.085 211.545 144.085 211.545 144.636 211.545C146.29 211.545 147.944 210.442 148.496 208.788C149.047 207.133 148.496 204.927 146.842 204.375C145.739 203.824 144.636 202.721 143.533 201.066C141.879 197.757 133.608 176.247 125.337 154.736C139.673 172.386 154.561 190.587 156.767 193.344C158.972 197.205 158.421 202.169 155.113 204.375C153.458 205.478 152.907 207.133 153.458 208.788C154.01 210.442 155.664 211.545 157.318 211.545C190.402 208.788 219.627 187.829 232.861 158.597C236.169 158.046 238.926 154.737 238.926 151.427C238.926 147.566 235.618 144.257 231.758 144.257C227.898 144.257 224.59 147.566 224.59 151.427C224.59 153.082 225.141 154.185 225.692 155.84C214.664 180.107 191.505 198.308 165.038 203.272C166.141 198.86 165.589 194.447 163.384 190.035C160.075 183.968 121.477 138.19 117.066 132.675C115.963 131.02 113.757 131.02 112.103 131.572C110.449 132.675 109.897 134.329 110.449 136.536C112.654 142.603 129.748 190.035 135.262 202.721C101.075 196.102 74.0562 168.525 69.6449 134.329C69.6449 132.675 67.9907 131.02 66.3365 131.02C64.1309 130.469 62.4767 129.366 61.3739 127.711C60.2711 126.056 60.2711 124.402 60.8225 122.747C61.3739 121.093 62.4767 119.989 63.5795 118.886C90.0469 104.546 120.374 96.8246 150.701 96.8246C181.029 96.8246 211.356 104.546 237.823 118.886C239.477 119.438 240.58 121.093 240.58 122.747C241.132 124.402 240.58 126.608 240.029 127.711C237.823 131.02 233.412 132.123 230.104 129.917C205.842 116.68 178.272 110.062 150.701 110.062C128.094 110.062 106.589 114.474 86.1871 123.299C85.0843 122.747 83.9814 122.196 82.3272 122.196C78.4674 122.196 75.159 125.505 75.159 129.366C75.159 133.226 78.4674 136.536 82.3272 136.536C86.1871 136.536 88.9441 133.778 89.4955 129.917C108.795 121.644 129.748 117.783 150.701 117.783C177.169 117.783 203.085 124.402 226.244 137.087C233.412 140.948 242.786 138.742 246.646 131.572C248.3 128.262 248.851 123.85 247.749 119.989Z" fill="#141414"/>
</svg>
