<svg width="300" height="300" viewBox="0 0 300 300" fill="none" xmlns="http://www.w3.org/2000/svg">
<path d="M243.543 217.738C239.683 217.738 236.375 214.429 236.375 210.568C236.375 208.213 237.581 206.26 238.964 204.022C239.2 203.64 239.442 203.249 239.683 202.847V117.358C239.683 114.6 238.029 111.842 235.823 110.188L159.729 59.4458C156.972 57.7912 153.113 57.7912 150.356 59.4458L74.2618 110.188C72.0561 111.842 70.402 114.6 70.402 117.358V216.084C70.402 221.047 74.2617 224.908 79.2244 224.908H132.159V191.816C132.159 186.852 136.019 182.991 140.982 182.991H145.944V173.063C134.365 165.342 113.963 146.589 112.86 108.533C112.86 105.224 115.617 102.466 118.926 102.466C123.888 102.466 127.748 98.6052 127.748 93.6414C127.748 90.3321 130.505 87.5744 133.814 87.5744H176.823C180.131 87.5744 182.888 90.3321 182.888 93.6414C182.888 98.6052 186.748 102.466 191.711 102.466C195.019 102.466 197.776 105.224 197.776 108.533C196.673 146.589 176.272 165.342 164.692 173.063V182.991H169.655C174.617 182.991 178.477 186.852 178.477 191.816V224.908H237.477C242.992 224.908 247.403 229.321 247.403 234.836C247.403 240.351 242.992 244.764 237.477 244.764H63.7851C62.1309 246.97 59.9253 248.625 57.1683 248.625C53.3084 248.625 50 245.315 50 241.454C50 237.594 53.3084 234.284 57.1683 234.284C59.9253 234.284 62.6823 235.939 63.7851 238.145H236.926C238.029 238.145 239.132 237.042 239.132 235.939C239.132 234.836 238.029 233.733 236.926 233.733H174.617C172.412 233.733 170.758 232.078 170.758 229.872V192.919C170.758 192.367 170.206 191.816 169.655 191.816H160.832C159.729 191.816 158.627 191.264 158.075 190.713C157.928 190.417 157.78 190.161 157.643 189.923C157.268 189.274 156.972 188.762 156.972 187.955V172.512C156.972 170.857 157.524 169.754 158.627 169.203C168.552 163.136 188.954 146.589 190.057 110.739C182.337 110.188 175.72 104.121 175.169 95.8475H134.365C133.813 103.569 127.748 110.188 119.477 110.739C121.131 146.589 140.982 163.136 150.907 169.203C152.01 169.754 152.561 171.409 152.561 172.512V187.955C152.561 190.161 150.907 191.816 148.701 191.816H139.879C139.327 191.816 138.776 192.367 138.776 192.919V229.872C138.776 232.078 137.122 233.733 134.916 233.733H78.6731C69.8506 233.733 62.6822 226.563 62.6822 217.738V118.461C62.6822 112.945 65.4394 107.981 69.8506 105.224L145.944 54.4819C151.458 51.1727 158.075 51.1727 163.589 54.4819L239.683 105.224C244.094 107.981 246.851 112.945 246.851 118.461V203.95C249.057 205.604 250.711 207.81 250.711 210.568C250.711 214.429 247.403 217.738 243.543 217.738Z" fill="#141414"/>
<path d="M176.272 115.152C177.374 117.358 176.272 119.564 174.617 120.667C165.244 126.182 159.178 136.11 156.421 141.074C155.318 143.28 153.664 144.383 151.458 144.935H150.356C148.702 144.935 146.496 143.832 145.393 142.729C144.842 142.315 144.221 141.798 143.549 141.238C141.533 139.557 139.052 137.489 136.571 136.662C134.365 136.11 133.813 133.904 134.365 131.698C134.916 129.492 137.122 128.94 139.328 129.492C143.739 131.146 147.047 133.904 149.804 136.662C153.664 130.043 160.281 119.564 170.758 113.497C172.963 112.394 175.169 113.497 176.272 115.152Z" fill="#141414"/>
</svg>
