<svg width="300" height="300" viewBox="0 0 300 300" fill="none" xmlns="http://www.w3.org/2000/svg">
<path d="M98 80.5C98 76.3579 101.358 73 105.5 73C109.642 73 113 76.3579 113 80.5C113 84.6421 109.642 88 105.5 88C101.358 88 98 84.6421 98 80.5Z" fill="black"/>
<path d="M187 81.5C187 77.3579 190.358 74 194.5 74C198.642 74 202 77.3579 202 81.5C202 85.6421 198.642 89 194.5 89C190.358 89 187 85.6421 187 81.5Z" fill="black"/>
<path d="M195 82H217V56H82V244.5H217V103H194.5V211.5H104.5V103H173.5V81H104.5M98 80.5C98 76.3579 101.358 73 105.5 73C109.642 73 113 76.3579 113 80.5C113 84.6421 109.642 88 105.5 88C101.358 88 98 84.6421 98 80.5ZM187 81.5C187 77.3579 190.358 74 194.5 74C198.642 74 202 77.3579 202 81.5C202 85.6421 198.642 89 194.5 89C190.358 89 187 85.6421 187 81.5Z" stroke="black" stroke-width="7" stroke-linecap="round" stroke-linejoin="round"/>
</svg>
