<svg width="300" height="300" viewBox="0 0 300 300" fill="none" xmlns="http://www.w3.org/2000/svg">
<path d="M148.477 142.417C169.982 142.417 187.075 160.066 187.075 181.576C187.075 200.88 172.739 217.426 154.542 220.736C153.44 220.736 152.888 221.287 152.888 221.839V240.591C152.888 245.555 149.028 249.416 144.066 249.416H87.8225C82.8599 249.416 79 245.555 79 240.591V59.1339C79 54.17 82.8599 50.3092 87.8225 50.3092H110.981C112.084 48.1031 114.29 47 117.047 47C120.907 47 124.215 50.3092 124.215 54.17C124.215 58.0308 120.907 61.3401 117.047 61.3401C114.841 61.3401 112.084 60.237 110.981 58.0308H87.8225C87.2711 58.0308 86.7197 58.5824 86.7197 59.1339V240.039C86.7197 240.591 87.2711 241.143 87.8225 241.143H142.411C142.963 241.143 143.514 240.591 143.514 240.039V221.287C143.514 216.323 146.823 212.462 151.785 211.911C167.225 209.705 178.253 196.468 178.253 181.025C178.253 163.375 164.468 149.587 147.926 149.587C131.383 149.587 117.598 163.927 117.598 181.025C117.598 188.195 120.355 195.365 124.767 200.88H126.421C130.281 200.88 133.589 204.189 133.589 208.05C133.589 211.911 130.281 215.22 126.421 215.22C122.561 215.22 119.253 211.911 119.253 208.05V206.947C113.187 200.329 109.879 190.952 109.879 181.576C109.879 160.066 127.524 142.417 148.477 142.417Z" fill="#141414"/>
<path d="M153.991 50.3093H212.991C217.954 50.3093 221.814 54.1701 221.814 59.134V240.591C221.814 245.555 217.954 249.416 212.991 249.416H187.075C185.972 251.622 183.767 252.725 181.01 252.725C177.15 252.725 173.842 249.416 173.842 245.555C173.842 241.694 177.15 238.385 181.01 238.385C183.215 238.385 185.972 239.488 187.075 241.694H212.44C212.991 241.694 213.543 241.143 213.543 240.591V59.134C213.543 58.5824 212.991 58.0309 212.44 58.0309H153.44C152.888 58.0309 152.337 58.5824 152.337 59.134V71.2679C152.337 75.6802 149.028 79.541 144.617 80.6441C136.897 82.8503 130.832 90.5718 130.832 98.845C130.832 108.773 139.103 117.046 149.028 117.046C158.954 117.046 167.225 108.773 167.225 98.845C167.225 96.6391 167.225 94.984 166.673 93.3296C162.813 93.3296 159.505 90.0203 159.505 86.1595C159.505 82.2987 162.813 78.9895 166.673 78.9895C170.533 78.9895 173.842 82.2987 173.842 86.1595C173.842 87.2626 173.842 88.3657 173.29 89.4688C174.393 92.2265 174.944 95.5357 174.944 98.845C174.944 113.737 163.365 125.319 149.028 125.319C134.692 125.319 123.112 113.185 123.112 98.845C123.112 86.7111 131.383 76.2318 143.514 73.4741C144.617 73.4741 145.168 72.371 145.168 71.8194V59.134C145.168 54.1701 149.028 50.3093 153.991 50.3093Z" fill="#141414"/>
</svg>
