<svg width="158" height="300" viewBox="0 0 158 162" fill="none" xmlns="http://www.w3.org/2000/svg">
<path d="M6.65137 31.8142L14.6141 47.6604C14.898 48.2254 14.898 48.8914 14.6141 49.4564L7.10261 64.4046C6.8187 64.9696 6.8187 65.6355 7.10261 66.2006L14.6141 81.1487C14.898 81.7138 14.898 82.3797 14.6141 82.9447L7.10261 97.8929C6.8187 98.4579 6.8187 99.1239 7.10261 99.6889L14.6141 114.637C14.898 115.202 14.898 115.868 14.6141 116.433L7.14418 131.299C6.83723 131.909 6.86355 132.635 7.21397 133.222L11.6105 140.586C12.5127 142.098 14.1434 143.024 15.9036 143.024H127.966C129.757 143.024 131.41 143.981 132.302 145.534L134.212 148.859C136.125 152.193 133.719 156.349 129.875 156.349H11.2979M150.756 5.65137H15.359C13.0212 5.65137 10.9955 7.2713 10.4814 9.55187L9.91002 12.0868C9.20525 15.2133 11.5827 18.1863 14.7876 18.1863H136.562C140.607 18.1863 142.978 22.7386 140.659 26.0526L137.312 30.8362C136.891 31.4386 136.834 32.2238 137.164 32.8807L144.591 47.6604C144.875 48.2254 144.875 48.8914 144.591 49.4564L137.079 64.4046C136.795 64.9696 136.795 65.6356 137.079 66.2006L144.591 81.1488C144.875 81.7138 144.875 82.3798 144.591 82.9448L137.079 97.893C136.795 98.458 136.795 99.124 137.079 99.689L144.591 114.637C144.875 115.202 144.875 115.868 144.591 116.433L136.628 132.279" stroke="black" stroke-width="9" stroke-linecap="round" stroke-linejoin="round"/>
<path d="M31.1396 48.0352H122.5M31.1396 81.9421H122.5M31.1396 115.849H122.5" stroke="black" stroke-width="7" stroke-linecap="round"/>
<circle cx="135.651" cy="133.651" r="5.65116" fill="black"/>
<circle cx="5.65116" cy="28.6512" r="5.65116" fill="black"/>
<circle cx="151.698" cy="5.65116" r="5.65116" fill="black"/>
<circle cx="6.65116" cy="156.349" r="5.65116" fill="black"/>
</svg>
