<svg width="300" height="300" viewBox="0 0 300 300" fill="none" xmlns="http://www.w3.org/2000/svg">
<path d="M166.627 145.781L119.757 133.096C119.206 129.787 116.449 127.029 112.589 127.029C108.729 127.029 105.421 130.338 105.421 134.199C105.421 138.06 108.729 141.369 112.589 141.369C114.243 141.369 115.898 140.817 117 139.714L164.973 152.4C167.73 152.951 171.038 152.951 173.795 152.4L239.963 131.441C241.618 130.89 242.72 129.235 242.72 127.58C242.72 125.926 241.618 124.271 239.963 124.271L109.832 89.5241C101.561 87.318 92.7386 92.2818 90.533 100.555L83.3646 126.477C83.3646 127.581 83.3647 128.684 83.9161 129.235C84.4675 130.338 85.0188 130.89 86.1217 130.89L94.3927 133.096L91.6357 143.575C91.0843 145.781 92.1871 147.436 94.3927 147.988L108.178 151.848C107.626 152.951 107.075 154.054 106.524 155.158C104.869 160.673 107.075 165.637 110.935 168.946V172.255C110.935 178.322 105.972 183.286 99.9068 183.286H77.8506C77.8506 177.771 73.4394 173.358 67.9254 173.358C62.4113 173.358 58 177.771 58 183.286V200.384C58 205.899 62.4113 210.312 67.9254 210.312C73.4394 210.312 77.8506 205.899 77.8506 200.384H99.9068C115.346 200.384 128.028 187.698 128.028 172.255V168.395C130.234 166.74 131.888 164.534 132.44 161.224C132.991 160.121 132.991 159.018 132.991 157.364L202.468 176.116C210.739 178.322 219.562 173.358 221.767 165.085L222.87 161.776L230.038 163.431C231.141 163.431 232.244 163.431 232.795 162.879C233.898 162.328 234.449 161.776 234.449 160.673L236.104 154.055C238.861 152.951 241.066 150.194 241.066 146.884C241.066 143.024 237.758 139.714 233.898 139.714C230.038 139.714 226.73 143.024 226.73 146.884C226.73 149.091 227.833 151.297 229.487 152.4L228.935 154.606L221.767 152.951C220.664 152.951 219.562 152.951 219.01 153.503C217.907 154.054 217.356 154.606 217.356 155.709L215.702 162.879C214.599 167.291 209.636 170.049 205.225 168.946L129.683 148.539C128.028 147.988 126.374 148.539 125.823 150.194C124.72 151.297 124.72 152.951 125.823 154.606C126.926 156.261 126.926 157.915 126.374 159.57C125.823 161.225 124.72 162.328 123.617 163.431C122.514 163.982 121.963 165.085 121.963 166.74V172.255C121.963 183.838 112.589 193.214 101.01 193.214H75.0936C72.8879 193.214 71.2338 194.868 71.2338 197.075V200.936C71.2338 202.039 70.1309 203.142 69.0281 203.142C67.9253 203.142 66.8225 202.039 66.8225 200.936V183.838C66.8225 182.735 67.9253 181.632 69.0281 181.632C70.1309 181.632 71.2338 182.735 71.2338 183.838V187.698C71.2338 189.905 72.8879 191.559 75.0936 191.559H101.01C110.935 191.559 119.206 183.286 119.206 173.358V167.843C119.206 166.74 118.655 165.085 117.552 164.534C115.346 163.431 114.243 160.673 114.795 157.915C115.346 156.261 116.449 154.606 118.103 154.055C119.206 153.503 120.309 151.848 120.309 150.194C120.309 148.539 119.206 147.436 117.552 146.884L101.561 142.472L104.318 131.993C104.318 130.89 104.318 129.787 103.767 129.235C103.215 128.132 102.664 127.58 101.561 127.58L93.29 125.374L99.3553 102.761C100.458 98.3488 105.421 95.5911 109.832 96.6941L227.833 128.132L173.795 145.23C169.935 146.333 168.281 146.333 166.627 145.781Z" fill="#141414"/>
</svg>
