<svg width="300" height="300" viewBox="0 0 300 300" fill="none" xmlns="http://www.w3.org/2000/svg">
<path d="M222 223.5C222 219.358 225.358 216 229.5 216C233.642 216 237 219.358 237 223.5C237 227.642 233.642 231 229.5 231C225.358 231 222 227.642 222 223.5Z" fill="black"/>
<path d="M199 180.5C199 176.358 202.358 173 206.5 173C210.642 173 214 176.358 214 180.5C214 184.642 210.642 188 206.5 188C202.358 188 199 184.642 199 180.5Z" fill="black"/>
<path fill-rule="evenodd" clip-rule="evenodd" d="M76.8835 52.375C77.1857 50.7103 78.6354 49.5 80.3273 49.5H201.287C202.813 49.5 204.163 50.4881 204.624 51.9423L233.336 142.516C233.445 142.859 233.5 143.215 233.5 143.574V213.25C237.597 214.85 240.5 218.836 240.5 223.5C240.5 229.575 235.575 234.5 229.5 234.5C223.425 234.5 218.5 229.575 218.5 223.5C218.5 218.465 221.883 214.22 226.5 212.914V144.116L198.725 56.5H83.2492L80.8542 69.6956H186.015C187.545 69.6956 188.899 70.6905 189.355 72.1516L211.348 142.53C211.68 143.593 211.487 144.75 210.827 145.647C210.168 146.544 209.121 147.074 208.007 147.074H82.7709C81.7225 147.074 80.7294 146.604 80.0646 145.794C79.3998 144.983 79.1334 143.917 79.3386 142.889L88.8885 95.0552H75.8338L65.5 143.94V219.021H79.7164C81.6494 219.021 83.2164 220.588 83.2164 222.521V243.5H91.4891V222.521C91.4891 220.588 93.0561 219.021 94.9891 219.021H195.789C197.722 219.021 199.289 220.588 199.289 222.521V243.5H208.173V211.437H82.7709C80.8379 211.437 79.2709 209.87 79.2709 207.937V163.158C79.2709 161.225 80.8379 159.658 82.7709 159.658H103.542C105.475 159.658 107.042 161.225 107.042 163.158V171.897H182.515V163.158C182.515 161.225 184.082 159.658 186.015 159.658H206.175C208.108 159.658 209.675 161.225 209.675 163.158V169.965C214.202 171.327 217.5 175.529 217.5 180.5C217.5 186.575 212.575 191.5 206.5 191.5C200.425 191.5 195.5 186.575 195.5 180.5C195.5 175.77 198.485 171.737 202.675 170.183V166.658H189.515V175.397C189.515 177.33 187.948 178.897 186.015 178.897H103.542C101.609 178.897 100.042 177.33 100.042 175.397V166.658H86.2709V204.437H211.673C213.606 204.437 215.173 206.004 215.173 207.937V247C215.173 248.933 213.606 250.5 211.673 250.5H195.789C193.856 250.5 192.289 248.933 192.289 247V226.021H98.4891V247C98.4891 248.933 96.9221 250.5 94.9891 250.5H79.7164C77.7834 250.5 76.2164 248.933 76.2164 247V226.021H62C60.067 226.021 58.5 224.454 58.5 222.521V143.574C58.5 143.331 58.5254 143.088 58.5757 142.85L69.572 90.8313C69.9141 89.2131 71.3423 88.0552 72.9964 88.0552H93.1564C94.2047 88.0552 95.1979 88.5252 95.8627 89.3358C96.5275 90.1464 96.7939 91.2124 96.5886 92.2404L87.0387 140.074H203.247L183.441 76.6956H76.6618C75.6242 76.6956 74.64 76.2352 73.975 75.4386C73.31 74.6421 73.0328 73.5915 73.2181 72.5706L76.8835 52.375ZM202.675 179.328C202.561 179.698 202.5 180.092 202.5 180.5C202.5 180.913 202.562 181.311 202.678 181.685C202.676 181.63 202.675 181.574 202.675 181.517V179.328ZM208.926 183.68C209.883 182.949 210.5 181.797 210.5 180.5C210.5 179.584 210.192 178.74 209.675 178.066V181.517C209.675 182.334 209.395 183.085 208.926 183.68ZM226.5 220.854C225.878 221.559 225.5 222.486 225.5 223.5C225.5 225.709 227.291 227.5 229.5 227.5C231.709 227.5 233.5 225.709 233.5 223.5C233.5 223.162 233.458 222.834 233.379 222.521H226.5V220.854Z" fill="black"/>
</svg>
