<svg width="300" height="300" viewBox="0 0 300 300" fill="none" xmlns="http://www.w3.org/2000/svg">
<path d="M86 240.5C86 236.358 89.3579 233 93.5 233C97.6421 233 101 236.358 101 240.5C101 244.642 97.6421 248 93.5 248C89.3579 248 86 244.642 86 240.5Z" fill="black"/>
<path d="M169 64.5C169 60.3579 172.358 57 176.5 57C180.642 57 184 60.3579 184 64.5C184 68.6421 180.642 72 176.5 72C172.358 72 169 68.6421 169 64.5Z" fill="black"/>
<path fill-rule="evenodd" clip-rule="evenodd" d="M109.31 50.7605C109.975 49.9618 110.961 49.5 112 49.5H124C125.393 49.5 126.654 50.3266 127.21 51.6045L131.295 61H140.905L149.859 50.7034C150.524 49.9389 151.487 49.5 152.5 49.5H164C165.07 49.5 166.082 49.9896 166.745 50.8291C167.409 51.6686 167.652 52.7657 167.406 53.8071L164 53C167.406 53.8071 167.406 53.8068 167.406 53.8071L167.405 53.8089L167.404 53.816L167.368 53.9659C167.343 54.0729 167.305 54.2332 167.256 54.4444C167.158 54.8669 167.012 55.4931 166.827 56.3042C166.455 57.9265 165.921 60.2881 165.272 63.2387C163.975 69.1409 162.222 77.395 160.4 86.7991C156.747 105.651 152.848 128.963 151.744 147.211C150.642 165.415 150.454 188.82 150.544 207.725C150.588 217.167 150.702 225.467 150.805 231.405C150.848 233.875 150.888 235.936 150.921 237.5H188.677L196.891 79.0218L184.35 72.2061C182.354 74.239 179.574 75.5 176.5 75.5C170.425 75.5 165.5 70.5751 165.5 64.5C165.5 58.4249 170.425 53.5 176.5 53.5C182.575 53.5 187.5 58.4249 187.5 64.5C187.5 64.9753 187.47 65.4437 187.411 65.9031L202.171 73.9248C203.356 74.5685 204.065 75.835 203.995 77.1812L195.686 237.5H214.5C216.433 237.5 218 239.067 218 241C218 242.933 216.433 244.5 214.5 244.5H144.088L144.001 241.089L147.5 241C144.001 241.089 144.001 241.09 144.001 241.089L143.985 240.43C143.975 239.999 143.96 239.363 143.942 238.54C143.906 236.896 143.857 234.507 143.806 231.526C143.703 225.566 143.589 217.236 143.544 207.759C143.454 188.825 143.641 165.231 144.756 146.789C145.89 128.059 149.865 104.372 153.528 85.4675C155.363 75.9939 157.129 67.6813 158.435 61.7362C158.883 59.6965 159.278 57.9348 159.603 56.5H154.095L145.141 66.7966C144.476 67.5611 143.513 68 142.5 68H129C127.607 68 126.346 67.1734 125.79 65.8955L121.705 56.5H116.179C116.436 57.9686 116.752 59.7948 117.111 61.9231C118.117 67.8767 119.468 76.1991 120.849 85.6779C123.606 104.597 126.507 128.267 126.999 146.908C127.486 165.365 127.108 188.941 126.612 207.863C126.364 217.332 126.085 225.651 125.868 231.604C125.76 234.58 125.667 236.965 125.601 238.607C125.568 239.428 125.542 240.063 125.524 240.493L125.497 241.15C125.497 241.15 125.497 241.151 122 241L125.497 241.15C125.416 243.023 123.874 244.5 122 244.5H103.75C102.15 248.597 98.164 251.5 93.5 251.5C87.4249 251.5 82.5 246.575 82.5 240.5C82.5 234.425 87.4249 229.5 93.5 229.5C98.5351 229.5 102.78 232.883 104.086 237.5H118.64C118.702 235.929 118.782 233.849 118.873 231.349C119.089 225.415 119.367 217.119 119.614 207.679C120.11 188.781 120.483 165.357 120.001 147.092C119.521 128.887 116.672 105.557 113.922 86.6874C112.55 77.272 111.208 69.0031 110.209 63.0889C109.71 60.1322 109.296 57.765 109.008 56.1387C108.864 55.3255 108.751 54.6976 108.674 54.2738C108.636 54.062 108.607 53.9011 108.587 53.7937L108.558 53.6344C108.558 53.6341 108.558 53.634 112 53L108.558 53.6344C108.37 52.6123 108.645 51.5591 109.31 50.7605ZM96.1458 237.5C95.4407 236.878 94.5144 236.5 93.5 236.5C91.2909 236.5 89.5 238.291 89.5 240.5C89.5 242.709 91.2909 244.5 93.5 244.5C93.5868 244.5 93.6729 244.497 93.7584 244.492C91.9381 244.368 90.5 242.852 90.5 241C90.5 239.067 92.067 237.5 94 237.5H96.1458ZM178.875 61.2812C178.211 60.7903 177.389 60.5 176.5 60.5C174.291 60.5 172.5 62.2909 172.5 64.5C172.5 66.7091 174.291 68.5 176.5 68.5C176.795 68.5 177.083 68.468 177.36 68.4073L175.829 67.5752C174.13 66.6522 173.502 64.5271 174.425 62.8287C175.295 61.2277 177.233 60.5774 178.875 61.2812Z" fill="black"/>
</svg>
