<svg width="300" height="300" viewBox="0 0 300 300" fill="none" xmlns="http://www.w3.org/2000/svg">
<path d="M241.578 144.149C244.886 144.149 247.643 142.494 249.298 139.736C250.952 136.979 250.952 133.67 249.298 130.912L242.681 118.778C241.027 116.02 238.27 114.366 234.961 114.366H206.288V102.783H242.129C245.438 102.783 248.195 101.129 249.849 98.3709C251.503 95.6131 251.503 92.3039 249.849 89.5462L243.232 77.4123C241.578 74.6546 238.821 73 235.513 73H64.5772C61.2688 73 58.5118 74.6546 56.8576 77.4123L50.2407 89.5462C48.5864 92.3039 48.5864 95.6131 50.2407 98.3709C51.8949 101.129 54.6519 102.783 57.9604 102.783H93.8017V114.366H65.1286C61.8202 114.366 59.0631 116.02 57.4089 118.778L50.7921 130.912C49.1379 133.67 49.1379 136.979 50.7921 139.736C52.4463 142.494 55.2033 144.149 58.5117 144.149H94.353V155.731H65.68C62.3716 155.731 59.6146 157.386 57.9604 160.143L51.3435 172.277C49.6893 175.035 49.6893 178.344 51.3435 181.102C52.9977 183.86 55.7547 185.514 59.0632 185.514H94.9044V197.097H66.2314C62.923 197.097 60.1659 198.751 58.5117 201.509L52.4463 211.437C50.7921 214.195 50.7921 217.504 52.4463 220.262C54.1005 223.019 56.8575 224.674 60.166 224.674H219.522C220.625 226.88 223.382 227.983 225.587 227.983C229.447 227.983 232.756 224.674 232.756 220.813C232.756 216.952 229.447 213.643 225.587 213.643C222.83 213.643 220.625 214.746 219.522 216.952H60.166C59.6145 216.952 59.6146 216.401 59.0632 216.401C59.0632 216.401 59.0632 215.849 59.0632 215.298L65.1286 205.37C65.1286 204.818 65.68 204.818 66.2314 204.818H99.3157C101.521 204.818 103.176 203.164 103.176 200.958V181.102C103.176 178.896 101.521 177.241 99.3157 177.241H59.6146C59.0632 177.241 59.0631 177.241 58.5117 176.69C58.5117 176.69 58.5117 176.138 58.5117 175.587L65.1286 163.453C65.1286 162.901 65.68 162.901 66.2314 162.901H98.7643C100.97 162.901 102.624 161.247 102.624 159.04V139.185C102.624 136.979 100.97 135.324 98.7643 135.324H59.0632C58.5118 135.324 58.5118 135.324 57.9604 134.773C57.9604 134.773 57.9604 134.221 57.9604 133.67L64.5772 121.536C64.5772 120.984 65.1286 120.984 65.68 120.984H98.2129C100.419 120.984 102.073 119.329 102.073 117.123V97.2678C102.073 95.0616 100.419 93.407 98.2129 93.407H58.5117C57.9603 93.407 57.9603 93.407 57.4089 92.8554C57.4089 92.8554 57.4089 92.3039 57.4089 91.7524L64.0258 79.6185C64.0258 79.0669 64.5772 79.0669 65.1286 79.0669H236.064C236.615 79.0669 236.615 79.0669 237.167 79.6185L243.784 91.7524C243.784 92.3039 243.784 92.3039 243.784 92.8554C243.784 92.8554 243.232 93.407 242.681 93.407H202.98C200.774 93.407 199.12 95.0616 199.12 97.2678V117.123C199.12 119.329 200.774 120.984 202.98 120.984H235.513C236.064 120.984 236.064 120.984 236.615 121.536L243.232 133.67C243.232 134.221 243.232 134.221 243.232 134.773C243.232 134.773 242.681 135.324 242.129 135.324H202.428C200.223 135.324 198.568 136.979 198.568 139.185V159.04C198.568 161.247 200.223 162.901 202.428 162.901H234.961C235.512 162.901 235.513 162.901 236.064 163.453L242.681 175.587C242.681 176.138 242.681 176.138 242.681 176.69C242.681 176.69 242.129 177.241 241.578 177.241H201.877C199.671 177.241 198.017 178.896 198.017 181.102V200.958C198.017 203.164 199.671 204.818 201.877 204.818H231.101C232.204 207.025 234.961 208.128 237.167 208.128C241.027 208.128 244.335 204.818 244.335 200.958C244.335 197.097 241.027 193.788 237.167 193.788C234.41 193.788 232.204 194.891 231.101 197.097H205.737V185.514H241.578C244.886 185.514 247.643 183.86 249.298 181.102C250.952 178.344 250.952 175.035 249.298 172.277L242.681 160.143C241.027 157.386 238.27 155.731 234.961 155.731H206.288V144.149H241.578Z" fill="#141414"/>
<path d="M196.363 98.3708C196.363 96.1647 194.709 94.5101 192.503 94.5101H106.484C104.278 94.5101 102.624 96.1647 102.624 98.3708V118.226C102.624 120.433 104.278 122.087 106.484 122.087H192.503C194.709 122.087 196.363 120.433 196.363 118.226V98.3708ZM188.092 114.366H109.792V102.783H188.092V114.366Z" fill="#141414"/>
<path d="M192.503 178.344H106.484C104.278 178.344 102.624 179.999 102.624 182.205V202.061C102.624 204.267 104.278 205.921 106.484 205.921H192.503C194.709 205.921 196.363 204.267 196.363 202.061V182.205C196.363 179.999 194.157 178.344 192.503 178.344ZM188.092 197.648H109.792V186.066H188.092V197.648Z" fill="#141414"/>
<path d="M196.363 140.288C196.363 138.082 194.709 136.427 192.503 136.427H106.484C104.278 136.427 102.624 138.082 102.624 140.288V160.143C102.624 162.35 104.278 164.004 106.484 164.004H192.503C194.709 164.004 196.363 162.35 196.363 160.143V140.288ZM188.092 156.283H109.792V144.149H188.092V156.283Z" fill="#141414"/>
</svg>
