<svg width="300" height="300" viewBox="0 0 300 300" fill="none" xmlns="http://www.w3.org/2000/svg">
<path d="M239.986 189.298C231.715 178.818 221.238 160.066 221.238 137.453C221.238 119.252 215.724 101.051 206.35 87.2625C196.976 73.474 183.743 63.5462 168.855 62.4432C167.2 53.6185 159.481 47 149.555 47C140.182 47 132.462 53.6185 130.256 62.4432C115.368 63.5462 102.135 73.474 93.3122 87.2625C83.9383 101.051 78.4243 119.252 78.4243 137.453C78.4243 160.066 67.9476 178.818 59.6766 189.298C58.0223 191.504 57.4709 194.813 58.5737 197.019C59.6766 199.225 61.8822 201.432 65.1906 201.432H84.4897C85.5926 203.638 88.3496 205.292 91.1066 205.292C94.9664 205.292 98.2749 201.983 98.2749 198.122C98.2749 194.262 94.9664 190.952 91.1066 190.952C88.3496 190.952 86.144 192.055 85.0412 194.262H65.1906C74.0131 183.231 85.5926 162.824 85.5926 138.004C85.5926 121.458 90.5552 104.912 99.3777 92.2264C107.649 79.5409 119.228 71.2678 130.808 70.7163C134.668 70.7163 136.873 67.407 137.425 64.6493C138.527 59.1339 143.49 54.7216 149.004 54.7216C155.07 54.7216 159.481 59.1339 160.584 64.6493C161.135 67.9586 163.892 70.7163 167.2 70.7163C179.331 71.8194 190.359 79.5409 199.182 92.2264C207.453 104.912 212.967 121.458 212.967 138.004C212.967 162.824 224.546 183.231 233.369 194.262H122.537C117.574 194.262 113.714 198.122 113.714 203.086V218.529C113.714 237.833 129.705 253.828 149.004 253.828C164.443 253.828 177.126 243.9 182.088 230.663C185.397 230.112 188.154 226.802 188.154 223.493C188.154 219.632 184.845 216.323 180.986 216.323C177.126 216.323 173.817 219.632 173.817 223.493C173.817 225.148 174.369 226.802 175.471 227.906C171.612 238.936 161.135 246.658 149.004 246.658C133.565 246.658 121.434 233.973 121.434 219.081V203.638C121.434 203.086 121.985 202.535 122.537 202.535H233.92C237.229 202.535 239.434 200.328 240.537 198.122C241.64 194.813 241.64 191.504 239.986 189.298Z" fill="#141414"/>
</svg>
