<svg width="300" height="300" viewBox="0 0 300 300" fill="none" xmlns="http://www.w3.org/2000/svg">
<path d="M161.019 176.303C157.711 177.406 153.851 177.958 149.991 177.958C147.785 177.958 146.131 179.612 146.131 181.818V195.055C146.131 197.262 147.785 198.916 149.991 198.916C191.346 198.916 224.982 165.272 224.982 124.458C224.982 83.644 191.346 50 149.991 50C108.636 50 75 83.644 75 124.458C75 156.447 95.9533 185.128 126.281 195.055V213.808H122.421C116.907 213.808 111.944 216.566 109.187 220.978L100.916 233.112C99.2617 235.869 98.7102 239.179 100.364 241.936C102.019 244.694 104.776 246.349 108.084 246.349H185.832C186.935 248.555 189.692 249.658 191.898 249.658C195.757 249.658 199.066 246.349 199.066 242.488C199.066 238.627 195.757 235.318 191.898 235.318C189.141 235.318 186.935 236.421 185.832 238.627H108.084C107.533 238.627 107.533 238.076 106.981 238.076C106.981 238.076 106.981 237.524 106.981 236.973L115.252 224.839C116.907 222.632 119.664 220.978 122.421 220.978H130.14C132.346 220.978 134 219.323 134 217.117V191.746C134 190.092 132.897 188.437 131.243 187.885C102.57 179.612 82.7196 153.138 82.7196 123.907C82.7196 86.9533 113.047 57.17 149.991 57.17C186.935 57.17 217.262 87.5048 217.262 124.458C217.262 159.757 189.141 188.988 153.851 191.195V185.679C157.159 185.128 160.468 184.576 163.225 183.473C167.636 181.818 170.944 179.612 173.701 177.406C175.907 174.648 177.561 171.891 177.561 168.581C178.664 158.654 169.841 147.623 163.776 139.35C163.225 138.798 163.225 138.247 162.673 138.247L163.225 137.144C174.253 136.592 186.935 145.417 192.449 152.587C194.103 154.241 196.309 155.344 198.515 155.344C200.72 155.344 202.374 154.241 203.477 152.035C209.543 142.107 214.505 126.113 208.991 111.221C206.234 103.5 202.374 99.0872 196.86 97.4326C185.832 94.1233 173.15 104.051 164.327 110.67C163.776 111.221 163.225 111.221 162.673 111.773L162.122 111.221C161.57 100.742 170.393 88.0564 177.561 82.541C179.215 80.8863 180.318 78.6801 180.318 76.474C180.318 74.2678 179.215 72.6132 177.01 71.5101C167.085 65.4432 150.542 60.4793 135.654 65.9947C127.935 68.7524 123.524 72.6132 121.869 78.1286C118.561 89.1594 128.486 101.845 135.103 110.118C135.654 110.67 135.654 111.221 136.206 111.221L135.654 112.324C124.626 112.876 111.944 104.051 106.43 96.881C104.776 95.2264 102.57 94.1233 100.364 94.1233C98.1588 94.1233 96.5047 95.2264 95.4019 97.4326C89.3364 107.36 84.3738 123.355 89.8878 138.247C92.6448 145.968 96.5047 150.381 102.019 152.035C113.047 155.344 125.729 145.417 134.552 138.798C135.103 138.247 135.654 138.247 136.206 137.695L137.309 138.247C137.86 146.52 132.346 155.896 126.832 162.514C126.281 162.514 125.729 162.514 125.729 162.514C121.869 162.514 118.561 165.824 118.561 169.684C118.561 173.545 121.869 176.855 125.729 176.855C129.589 176.855 132.897 173.545 132.897 169.684C132.897 169.133 132.897 168.581 132.897 167.478C135.654 164.169 138.411 160.308 140.617 156.999C145.028 149.277 146.682 141.556 145.028 134.386C144.477 133.283 143.925 132.18 142.271 131.628L136.757 129.974C135.654 129.422 134 129.973 132.897 130.525C131.795 131.077 130.692 132.18 129.589 132.731C122.972 137.695 111.393 146.52 104.224 144.865C101.467 143.762 98.7104 141.004 97.0562 136.04C93.1963 124.458 96.5047 111.221 101.467 102.948C105.327 107.912 111.393 112.324 116.907 115.633C124.626 120.046 132.897 121.7 139.514 120.046C140.617 120.046 141.72 118.943 142.271 117.288L143.926 111.773C144.477 110.67 143.925 109.015 143.374 107.912C142.823 106.809 141.72 105.706 141.169 104.603C135.654 97.9841 126.832 86.4017 129.038 79.7832C130.14 77.0255 132.897 74.2678 137.86 72.6132C149.44 68.7524 162.673 72.0617 170.944 77.0255C165.982 80.8863 161.57 86.9533 158.262 92.4687C153.851 100.19 152.197 107.912 153.851 115.082C154.402 116.185 154.954 117.288 156.608 117.84L162.122 119.494C163.225 120.046 164.879 119.494 165.982 118.943C167.085 118.391 168.187 117.288 169.29 116.737C175.907 111.773 187.486 102.948 194.655 104.603C197.412 105.706 200.169 108.463 201.823 113.427C205.683 125.01 202.374 138.247 197.412 146.52C193.552 141.556 187.486 137.144 181.972 133.834C174.253 129.422 165.982 127.767 159.365 129.422C158.262 129.422 157.159 130.525 156.608 132.18L154.954 137.695C154.402 138.798 154.953 140.453 155.505 141.556C156.056 142.659 157.159 143.762 157.711 144.865C162.673 151.484 170.944 161.411 169.841 168.581C169.841 169.133 169.29 172.994 161.019 176.303Z" fill="#141414"/>
</svg>
