<svg width="300" height="300" viewBox="0 0 300 300" fill="none" xmlns="http://www.w3.org/2000/svg">
<path d="M235.552 112.637L159.458 61.8956C153.944 58.0348 146.776 58.0348 141.262 61.8956L65.1682 112.637C60.757 115.395 58 120.911 58 125.874V232.322C58 237.286 61.8599 241.147 66.8225 241.147H91.0843C96.0469 241.147 99.9068 237.286 99.9068 232.322V160.07C99.9068 155.658 103.767 151.797 108.178 151.797H194.197C198.608 151.797 202.468 155.658 202.468 160.07V211.363C200.262 212.466 199.16 215.224 199.16 217.43C199.16 221.291 202.468 224.6 206.328 224.6C210.188 224.6 213.496 221.291 213.496 217.43C213.496 214.673 212.393 212.466 210.188 211.363V160.07C210.188 151.245 203.019 144.075 194.197 144.075H108.178C99.3554 144.075 92.1871 151.245 92.1871 160.07V232.322C92.1871 232.873 91.6357 233.425 91.0843 233.425H66.8225C66.2711 233.425 65.7196 232.873 65.7196 232.322V126.426C65.7196 123.668 67.3739 120.911 69.5795 119.256L145.673 68.5141C148.43 66.8595 152.29 66.8595 155.047 68.5141L231.141 119.256C233.347 120.911 235.001 123.668 235.001 126.426V232.873C235.001 233.425 234.449 233.977 233.898 233.977H115.897C114.243 233.977 112.589 232.322 112.589 230.667C112.589 229.013 114.243 227.358 115.897 227.358H184.823C190.888 227.358 195.851 222.394 195.851 216.327C195.851 210.26 190.888 205.296 184.823 205.296H115.897C114.243 205.296 112.589 203.642 112.589 201.987C112.589 200.332 114.243 198.678 115.897 198.678H184.823C190.888 198.678 195.851 193.714 195.851 187.647C195.851 181.58 190.888 176.616 184.823 176.616H115.897C114.243 176.616 112.589 174.962 112.589 173.307C112.589 171.652 114.243 169.998 115.897 169.998H183.169C184.272 172.204 187.029 173.307 189.234 173.307C193.094 173.307 196.403 169.998 196.403 166.137C196.403 162.276 193.094 158.967 189.234 158.967C186.477 158.967 184.272 160.07 183.169 162.276H115.897C109.832 162.276 104.869 167.24 104.869 173.307C104.869 179.374 109.832 184.338 115.897 184.338H184.823C186.477 184.338 188.131 185.992 188.131 187.647C188.131 189.302 186.477 190.956 184.823 190.956H115.897C109.832 190.956 104.869 195.92 104.869 201.987C104.869 208.054 109.832 213.018 115.897 213.018H184.823C186.477 213.018 188.131 214.673 188.131 216.327C188.131 217.982 186.477 219.636 184.823 219.636H115.897C109.832 219.636 104.869 224.6 104.869 230.667C104.869 236.734 109.832 241.698 115.897 241.698H233.898C238.861 241.698 242.72 237.837 242.72 232.873V126.426C242.72 120.911 239.963 115.947 235.552 112.637Z" fill="#141414"/>
</svg>
