<svg width="300" height="300" viewBox="0 0 300 300" fill="none" xmlns="http://www.w3.org/2000/svg">
<path d="M233.692 138.798L222.907 91.3656C217.393 67.0978 195.888 50 171.627 50H127.514C102.701 50 81.7479 67.0978 76.2338 91.3656L73.4768 104.051C72.374 109.566 76.2338 114.53 81.7479 114.53H126.411C129.72 114.53 133.028 112.324 134.131 109.015L148.468 75.3709C149.019 74.2678 150.122 74.2678 150.673 75.3709L166.113 111.773C167.215 114.53 167.767 117.288 167.767 120.046C167.767 131.077 159.496 139.901 149.571 139.901C142.954 139.901 136.888 136.04 133.58 129.974C134.131 128.87 134.683 127.767 134.683 126.113C134.683 122.252 131.374 118.943 127.514 118.943C123.655 118.943 120.346 122.252 120.346 126.113C120.346 129.974 123.655 133.283 127.514 133.283C131.926 141.556 140.197 146.52 149.571 146.52C163.907 146.52 175.487 133.834 175.487 118.943C175.487 115.082 174.384 111.221 173.281 107.36L157.842 70.9586C155.085 63.7886 145.159 63.7886 141.851 70.9586L127.514 106.603C127.514 107.154 126.963 107.154 126.411 107.154H81.7479C81.1965 107.154 80.645 106.603 80.645 105.5L83.402 90.8141C87.8133 69.8555 106.561 55.5154 127.514 55.5154H171.627C192.58 55.5154 211.328 70.407 215.739 90.8141L226.767 139.35V171.891C226.767 172.442 226.216 172.994 225.664 172.994H175.487C169.973 172.994 165.561 177.406 165.561 182.921C165.561 188.437 169.973 192.849 175.487 192.849H225.664C226.216 192.849 226.767 193.401 226.767 193.952V208.292L221.253 234.766C220.702 238.627 216.842 241.936 212.982 241.936H159.496C158.944 241.936 158.393 241.385 158.393 240.833V232.56C164.458 229.251 168.318 223.184 168.318 216.014C168.318 206.086 160.047 197.813 150.122 197.813C140.197 197.813 131.926 206.086 131.926 216.014C131.926 223.184 135.785 229.251 141.851 232.56V240.833C141.851 241.385 141.299 241.936 140.748 241.936H87.2619C83.4021 241.936 79.5423 239.179 78.9909 234.766L73.4768 208.292V193.952C73.4768 193.401 74.0281 192.849 74.5795 192.849H124.757C130.271 192.849 134.683 188.437 134.683 182.921C134.683 177.406 130.271 172.994 124.757 172.994H74.5795C74.0281 172.994 73.4768 172.442 73.4768 171.891V156.448C75.6824 155.344 77.3365 152.587 77.3365 149.829C77.3365 145.968 74.0282 142.659 70.1684 142.659C66.3085 142.659 63 145.968 63 149.829C63 152.587 64.6543 154.793 66.8599 156.448V171.891C66.8599 176.855 70.7198 180.715 75.6824 180.715H125.86C126.963 180.715 128.066 181.818 128.066 182.921C128.066 184.025 126.963 185.128 125.86 185.128H75.6824C70.7198 185.128 66.8599 188.988 66.8599 193.952V209.947L72.3739 236.973C74.0282 244.694 80.6449 249.658 87.8132 249.658H141.299C146.262 249.658 148.122 245.797 148.122 240.833V227.596C141.851 227 137.748 220.978 137.748 216.014C137.748 209.947 143.711 203.983 149.776 203.983C157.5 203.983 162.804 208.5 162.804 216.014C162.804 220.978 159.496 224.839 155.636 226.493L153.43 227.596V240.833C153.43 245.797 157.29 249.658 162.253 249.658H212.739C220.459 249.658 227.075 244.143 228.178 236.973L233.692 209.947V193.952C233.692 188.988 229.833 185.128 224.87 185.128H177.692C176.589 185.128 175.487 184.025 175.487 182.921C175.487 181.818 176.589 180.715 177.692 180.715H224.87C229.833 180.715 233.692 176.855 233.692 171.891V138.798Z" fill="black"/>
</svg>
