<svg width="300" height="300" viewBox="0 0 300 300" fill="none" xmlns="http://www.w3.org/2000/svg">
<path d="M256.459 70.3106L250.945 71.9652C249.291 72.5167 247.085 71.4137 246.534 69.2075C245.982 67.5529 247.085 65.3467 249.291 64.7952L254.805 63.1406C256.459 62.589 258.664 63.6921 259.216 65.8983C259.767 67.5529 258.664 69.7591 256.459 70.3106Z" fill="#141414"/>
<path d="M243.777 217.572H199.664C199.113 209.299 191.945 202.681 183.674 202.681H179.814V201.578C179.814 196.614 175.954 192.753 170.991 192.753H169.888V125.465C169.888 121.052 166.58 117.192 162.72 116.64V105.609C162.72 105.058 163.272 104.506 163.823 104.506H188.636C190.842 104.506 193.047 103.403 194.702 101.749L197.459 98.9908H202.973C205.178 98.9908 206.832 97.3362 206.832 95.13V85.2023C206.832 82.9961 205.178 81.3415 202.973 81.3415H197.459C197.459 81.3415 196.907 81.3415 196.907 80.7899L194.702 78.5838C193.047 76.9292 190.842 75.8261 188.636 75.8261H162.72C162.72 69.2076 157.206 63.6921 150.038 63.6921C143.421 63.6921 137.907 69.2076 137.356 75.8261H111.44C109.234 75.8261 107.028 76.9292 105.374 78.5838L102.617 81.3415H97.1031C94.8974 81.3415 93.2432 82.9961 93.2432 85.2023V95.13C93.2432 97.3362 94.8974 98.9908 97.1031 98.9908H102.617C102.617 98.9908 103.169 98.9908 103.169 99.5423L105.374 101.749C107.028 103.403 109.234 104.506 111.44 104.506H136.253C136.804 104.506 137.356 105.058 137.356 105.609V116.64C132.944 117.192 130.187 121.052 130.187 125.465V192.753H129.084C124.122 192.753 120.262 196.614 120.262 201.578V202.681H116.954C108.131 202.681 100.963 209.851 100.963 218.675V224.742C98.7573 225.845 97.6545 228.603 97.6545 230.809C97.6545 234.67 100.963 237.979 104.823 237.979C108.683 237.979 111.991 234.67 111.991 230.809C111.991 228.051 110.888 225.845 108.683 224.742V218.675C108.683 214.263 112.542 210.402 116.954 210.402H124.122C126.327 210.402 127.982 208.748 127.982 206.541V201.578C127.982 201.026 128.533 200.474 129.084 200.474H134.047C136.253 200.474 137.907 198.82 137.907 196.614V125.465C137.907 124.913 138.458 124.362 139.01 124.362H141.215C143.421 124.362 145.075 122.707 145.075 120.501V105.609C145.075 100.645 141.215 96.7846 136.253 96.7846H111.44C111.44 96.7846 110.888 96.7846 110.888 96.2331L108.683 94.0269C107.028 92.3723 104.823 91.2692 102.617 91.2692H100.963V89.063H102.617C104.823 89.063 107.028 87.96 108.683 86.3053L111.44 83.5476H139.01C142.318 83.5476 145.075 80.7899 145.075 77.4807V75.8261C145.075 73.0684 147.281 71.4137 149.486 71.4137C152.243 71.4137 153.898 73.6199 153.898 75.8261V77.4807C153.898 80.7899 156.655 83.5476 159.963 83.5476H187.533C187.533 83.5476 188.085 83.5477 188.085 84.0992L190.29 86.3053C191.945 87.96 194.15 89.063 196.356 89.063H198.01V91.2692H196.356C194.15 91.2692 191.945 92.3723 190.29 94.0269L187.533 96.7846H162.72C157.757 96.7846 153.898 100.645 153.898 105.609V120.501C153.898 122.707 155.552 124.362 157.758 124.362H159.963C160.515 124.362 161.066 124.913 161.066 125.465V196.614C161.066 198.82 162.72 200.474 164.926 200.474H169.888C170.44 200.474 170.991 201.026 170.991 201.578V206.541C170.991 208.748 172.645 210.402 174.851 210.402H182.019C186.431 210.402 190.29 214.263 190.29 218.675C190.29 221.985 193.047 225.294 196.907 225.294H242.122C242.674 225.294 243.225 225.845 243.225 226.397C243.225 226.948 242.674 227.5 242.122 227.5H185.879C167.683 227.5 152.795 212.608 152.795 194.407V144.217C155.001 143.114 156.103 140.356 156.103 138.15C156.103 134.289 152.795 130.98 148.935 130.98C145.075 130.98 141.767 134.289 141.767 138.15C141.767 140.908 142.87 143.114 145.075 144.217V194.407C145.075 217.021 163.272 235.222 185.879 235.222H242.122C247.085 235.222 250.945 231.361 250.945 226.397C252.599 221.433 248.188 217.572 243.777 217.572Z" fill="#141414"/>
<path d="M227.786 111.676L238.262 114.434C240.468 114.985 242.122 113.882 242.674 111.676C243.225 109.47 242.122 107.815 239.917 107.264L229.44 104.506C227.234 103.954 225.58 105.058 225.029 107.264C225.029 108.918 226.132 111.125 227.786 111.676Z" fill="#141414"/>
<path d="M211.244 91.8205C211.244 89.6143 212.898 87.9597 215.103 87.9597H220.617C222.823 87.9597 224.477 89.6143 224.477 91.8205C224.477 94.0267 222.823 95.6813 220.617 95.6813H215.103C212.898 95.6813 211.244 94.0267 211.244 91.8205Z" fill="#141414"/>
<path d="M231.645 87.9597C229.44 87.9597 227.786 89.6143 227.786 91.8205C227.786 94.0267 229.44 95.6813 231.645 95.6813H242.673C244.879 95.6813 246.533 94.0267 246.533 91.8205C246.533 89.6143 244.879 87.9597 242.673 87.9597H231.645Z" fill="#141414"/>
<path d="M229.991 77.4806L240.468 74.7229C242.674 74.1714 243.776 71.9652 243.225 70.3106C242.674 68.1044 240.468 67.0014 238.814 67.5529L228.337 70.3106C226.131 70.8622 225.029 73.0683 225.58 74.7229C225.58 76.9291 227.786 78.0322 229.991 77.4806Z" fill="#141414"/>
<path d="M217.309 108.918L211.795 107.264C210.141 106.712 209.038 104.506 209.038 102.851C209.589 100.645 211.244 99.5421 213.449 100.094L218.963 101.748C221.169 102.3 222.272 103.954 221.72 106.161C221.169 108.367 219.515 109.47 217.309 108.918Z" fill="#141414"/>
<path d="M214.001 81.8929L219.515 80.2383C221.72 79.6868 222.823 77.4806 222.272 75.826C221.72 73.6198 219.515 72.5167 217.86 73.0683L212.346 74.7229C210.141 75.2744 209.038 77.4806 209.589 79.1352C209.589 81.3414 211.795 82.4445 214.001 81.8929Z" fill="#141414"/>
<path d="M253.702 87.9597H259.216C261.422 87.9597 263.076 89.6143 263.076 91.8205C263.076 94.0267 261.422 95.6813 259.216 95.6813H253.702C251.496 95.6813 249.842 94.0267 249.842 91.8205C249.842 89.6143 251.496 87.9597 253.702 87.9597Z" fill="#141414"/>
<path d="M256.459 111.676L250.945 110.021C248.739 109.47 247.085 110.573 246.534 112.779C245.982 114.985 247.085 116.64 249.291 117.191L254.805 118.846C257.01 119.398 258.664 118.295 259.216 116.088C259.767 113.882 258.664 112.228 256.459 111.676Z" fill="#141414"/>
<path d="M81.1124 101.748L86.6264 100.094C88.832 99.5421 91.0376 100.645 91.0376 102.851C91.589 104.506 90.4862 106.712 88.2806 107.264L82.7665 108.918C81.1123 109.47 78.9068 108.367 78.3554 106.161C77.804 104.506 78.9068 102.3 81.1124 101.748Z" fill="#141414"/>
<path d="M88.8318 74.7229L83.3178 73.0683C81.1122 72.5167 79.458 73.6198 78.9066 75.826C78.3552 78.0322 79.458 79.6868 81.6637 80.2383L87.1777 81.8929C89.3833 82.4445 91.0375 81.3414 91.5889 79.1352C91.5889 77.4806 90.4861 75.2744 88.8318 74.7229Z" fill="#141414"/>
<path d="M72.841 91.269C72.841 93.4751 71.1867 95.1298 68.9811 95.1298H57.953C55.7474 95.1298 54.0933 93.4751 54.0933 91.269C54.0933 89.0628 55.7474 87.4082 57.953 87.4082H68.9811C71.1867 87.4082 72.841 89.0628 72.841 91.269Z" fill="#141414"/>
<path d="M50.2337 91.269C50.2337 89.0628 48.5794 87.4082 46.3738 87.4082H40.8597C38.6541 87.4082 37 89.0628 37 91.269C37 93.4751 38.6541 95.1298 40.8597 95.1298H46.3738C48.5794 95.1298 50.2337 93.4751 50.2337 91.269Z" fill="#141414"/>
<path d="M44.168 111.676L49.6821 110.021C51.3363 109.47 53.542 110.573 54.0934 112.779C54.6448 114.434 53.542 116.64 51.3364 117.191L45.8224 118.846C44.1681 119.398 41.9624 118.295 41.411 116.088C40.8596 114.434 41.9624 112.228 44.168 111.676Z" fill="#141414"/>
<path d="M44.168 70.3106L49.6821 71.9652C51.8877 72.5167 53.542 71.4137 54.0934 69.2075C54.6448 67.0013 53.542 65.3467 51.3364 64.7952L45.8224 63.1406C43.6167 62.589 41.9624 63.6921 41.411 65.8983C40.8596 68.1044 41.9624 69.7591 44.168 70.3106Z" fill="#141414"/>
<path d="M60.1588 107.264L70.6356 104.506C72.8412 103.954 74.4953 105.058 75.0468 107.264C75.5982 108.918 74.4953 111.125 72.2897 111.676L61.8131 114.434C60.1589 114.985 57.9532 113.882 57.4017 111.676C56.8503 110.021 57.9532 107.815 60.1588 107.264Z" fill="#141414"/>
<path d="M72.8415 70.3106L62.3648 67.5529C60.1592 67.0014 58.5049 68.1044 57.9535 70.3106C57.4021 72.5168 58.5049 74.1714 60.7105 74.7229L71.1872 77.4806C73.3928 78.0322 75.0471 76.9291 75.5985 74.7229C75.5985 73.0683 74.4957 70.8622 72.8415 70.3106Z" fill="#141414"/>
<path d="M89.3836 91.269C89.3836 93.4751 87.7293 95.1298 85.5237 95.1298H80.0096C77.804 95.1298 76.1499 93.4751 76.1499 91.269C76.1499 89.0628 77.804 87.4082 80.0096 87.4082H85.5237C87.7293 87.4082 89.3836 89.0628 89.3836 91.269Z" fill="#141414"/>
</svg>
