<svg width="300" height="300" viewBox="0 0 300 300" fill="none" xmlns="http://www.w3.org/2000/svg">
<path d="M150.066 46C114.224 46 85 74.6802 85 110.53C85 123.767 88.8598 135.901 95.4767 145.829C97.1309 148.587 99.3365 150.793 102.094 152.999C104.299 155.205 107.608 157.963 110.365 160.721C115.879 166.236 120.841 171.2 122.495 176.164C123.598 179.473 126.907 183.334 131.869 183.334H137.935C142.897 183.334 146.757 179.473 146.757 174.509V126.525C146.757 125.973 147.309 125.422 147.86 125.422H158.337C159.44 127.628 162.197 129.283 164.954 129.283C168.813 129.283 172.122 125.974 172.122 122.113C172.122 118.252 168.813 114.943 164.954 114.943C162.197 114.943 159.991 116.597 158.337 118.803H147.86C142.897 118.803 139.038 122.664 139.038 127.628V175.612C139.038 176.164 138.486 176.715 137.935 176.715H131.869C131.318 176.715 131.318 176.715 130.767 176.164C130.215 175.612 129.664 175.061 129.664 174.509C127.458 167.339 121.393 161.272 115.879 155.757C112.57 152.999 110.365 150.793 107.608 148.587C105.402 146.381 103.196 144.174 102.094 142.52C96.0281 133.695 92.7197 122.664 92.7197 111.082C92.7197 79.644 118.636 54.2731 150.617 54.2731C182.599 54.2731 208.515 79.644 208.515 111.082C208.515 122.664 205.206 133.144 199.141 142.52C197.486 144.726 195.281 147.484 193.075 150.793C190.87 154.102 188.113 157.411 185.356 161.272C180.393 168.994 175.982 177.818 175.982 186.092V199.329C175.982 200.432 174.879 201.535 173.776 201.535H134.075C129.112 201.535 124.701 205.947 124.701 210.911V220.839C124.701 226.354 129.112 230.215 134.075 230.215H161.645C162.748 230.215 163.851 231.318 163.851 232.421V241.246C163.851 242.349 162.748 243.452 161.645 243.452H142.897C141.795 241.246 139.038 239.591 136.281 239.591C132.421 239.591 129.112 242.9 129.112 246.761C129.112 250.622 132.421 253.931 136.281 253.931C139.038 253.931 141.243 252.276 142.346 250.622H161.094C166.056 250.622 170.468 246.21 170.468 241.246V232.421C170.468 226.906 166.056 223.045 161.094 223.045H133.524C132.421 223.045 131.318 221.942 131.318 220.839V210.911C131.318 209.808 132.421 208.705 133.524 208.705H173.225C178.187 208.705 182.599 204.292 182.599 199.329V186.092C182.599 179.473 185.907 172.303 190.87 165.133C193.075 161.272 195.832 157.963 198.038 154.654C200.243 151.344 202.449 148.587 204.103 145.829C210.72 135.901 214.58 123.767 214.58 110.53C214.58 74.6802 185.907 46 150.066 46Z" fill="#141414"/>
</svg>
