<svg width="300" height="300" viewBox="0 0 300 300" fill="none" xmlns="http://www.w3.org/2000/svg">
<path d="M188.421 129.113H124.458C123.907 129.113 123.355 128.561 123.355 128.01V103.19C123.355 88.8502 134.935 77.2678 149.271 77.2678C163.608 77.2678 175.187 88.8502 175.187 103.19V115.324C175.187 118.633 177.944 121.391 181.253 121.391H193.384C196.692 121.391 199.449 118.633 199.449 115.324V103.19C199.449 75.6132 176.842 53 149.271 53C121.701 53 99.0935 75.6132 99.0935 103.19V127.458C99.0935 128.01 98.5421 128.561 97.9907 128.561C89.1683 128.561 82 135.731 82 144.556V215.705C82 231.148 94.6823 243.833 110.122 243.833H130.524C131.626 246.04 134.383 247.694 137.14 247.694C141 247.694 144.309 244.385 144.309 240.524C144.309 236.663 141 233.354 137.14 233.354C134.383 233.354 132.178 235.009 130.524 237.215H110.122C98.5421 237.215 89.1683 227.839 89.1683 216.256V144.556C89.1683 139.592 93.0281 135.731 97.9907 135.731C102.953 135.731 106.813 131.87 106.813 126.907V102.639C106.813 78.9224 126.112 59.6185 149.823 59.6185C173.533 59.6185 192.832 78.9224 192.832 102.639V113.67H182.907V102.639C182.907 84.4379 168.019 69.5462 149.823 69.5462C131.626 69.5462 116.738 84.4379 116.738 102.639V127.458C116.738 132.422 120.598 136.283 125.561 136.283H189.524C201.103 136.283 210.477 145.659 210.477 157.241V216.256C210.477 227.839 201.103 237.215 189.524 237.215H160.299C159.748 237.215 159.197 236.663 159.197 236.112V214.05C171.879 210.189 181.253 198.607 181.253 184.818C181.253 167.721 167.468 153.932 150.374 153.932C133.281 153.932 119.495 167.721 119.495 184.818C119.495 196.952 126.112 206.88 136.038 212.395C137.692 213.499 139.897 212.395 141 210.741L146.514 199.71C147.066 198.607 147.066 198.055 146.514 196.952C145.963 195.849 145.411 195.298 144.86 194.746C141 193.092 138.795 189.231 138.795 184.818C138.795 178.751 143.757 173.788 149.823 173.788C150.374 173.788 150.926 173.788 152.028 173.788L149.271 176.545C145.411 176.545 142.103 179.855 142.103 183.715C142.103 187.576 145.411 190.885 149.271 190.885C153.131 190.885 156.44 187.576 156.44 183.715C156.44 182.612 155.888 180.958 155.337 179.855L159.748 172.684C160.851 171.03 160.299 168.824 158.645 167.721C155.888 166.618 152.58 165.514 149.271 165.514C139.346 165.514 131.075 173.788 131.075 183.715C131.075 189.782 133.832 194.746 138.243 198.055L136.038 202.468C129.972 198.055 126.664 191.437 126.664 183.715C126.664 171.03 137.14 160.551 149.823 160.551C162.505 160.551 172.982 171.03 172.982 183.715C172.982 195.298 164.711 204.674 153.683 206.88C152.028 207.432 150.926 208.535 150.926 210.741V235.56C150.926 240.524 154.785 244.385 159.748 244.385H188.972C204.412 244.385 217.094 231.699 217.094 216.256V157.241C216.543 141.247 203.86 129.113 188.421 129.113Z" fill="#141414"/>
</svg>
