<svg width="300" height="300" viewBox="0 0 300 300" fill="none" xmlns="http://www.w3.org/2000/svg">
<path d="M86.5 195.151H111V124.651H124V195.151H141V124.651H154.5V195.151H220.5V238.151H86.5V220.151M219.938 125.654C219.938 125.654 224.55 97.6513 202.856 75.9583C181.163 54.2652 153 64.333 153 64.333M202.695 125.651C202.695 125.651 206.119 104.975 190.014 88.9577C173.909 72.9402 153 80.374 153 80.374M184.805 125.651C184.805 125.651 186.996 112.454 176.689 102.23C166.382 92.006 153 96.7509 153 96.7509M79 195.151C79 191.009 82.3579 187.651 86.5 187.651C90.6421 187.651 94 191.009 94 195.151C94 199.294 90.6421 202.651 86.5 202.651C82.3579 202.651 79 199.294 79 195.151ZM79 217.151C79 213.009 82.3579 209.651 86.5 209.651C90.6421 209.651 94 213.009 94 217.151C94 221.294 90.6421 224.651 86.5 224.651C82.3579 224.651 79 221.294 79 217.151ZM152 217.151C152 213.009 155.358 209.651 159.5 209.651C163.642 209.651 167 213.009 167 217.151C167 221.294 163.642 224.651 159.5 224.651C155.358 224.651 152 221.294 152 217.151ZM170 217.151C170 213.009 173.358 209.651 177.5 209.651C181.642 209.651 185 213.009 185 217.151C185 221.294 181.642 224.651 177.5 224.651C173.358 224.651 170 221.294 170 217.151ZM188 217.151C188 213.009 191.358 209.651 195.5 209.651C199.642 209.651 203 213.009 203 217.151C203 221.294 199.642 224.651 195.5 224.651C191.358 224.651 188 221.294 188 217.151Z" stroke="black" stroke-width="7" stroke-linecap="round" stroke-linejoin="round"/>
</svg>
