<svg width="300" height="300" viewBox="0 0 300 300" fill="none" xmlns="http://www.w3.org/2000/svg">
<path d="M198.916 72.4123L197.814 71.8608H181.823C175.758 71.8608 170.795 76.8247 170.795 82.8916V102.196C170.795 107.159 174.655 111.02 179.617 111.02H188.44C188.991 111.02 189.543 111.572 189.543 112.123V152.937C189.543 153.489 188.991 154.04 188.44 154.04H176.309C175.758 154.04 175.206 153.489 175.206 152.937V130.876C177.412 129.773 179.066 127.015 179.066 124.257C179.066 120.396 175.758 117.087 171.898 117.087C168.038 117.087 164.729 120.396 164.729 124.257C164.729 127.015 166.384 129.221 168.038 130.324V152.386C168.038 157.35 171.898 161.211 176.86 161.211H188.991C193.954 161.211 197.814 157.35 197.814 152.386V111.572C197.814 106.608 193.954 102.747 188.991 102.747H180.169C179.617 102.747 179.066 102.196 179.066 101.644V82.3401C179.066 80.1339 180.72 78.4793 182.926 78.4793H196.711C219.87 94.474 238.066 120.948 238.066 150.731C238.066 181.066 223.178 207.54 200.019 222.983H164.178V194.855C164.178 187.133 157.01 181.618 149.29 181.618C141.57 181.618 134.402 187.133 134.402 194.855V222.983H101.318C78.1589 206.988 63.2711 180.514 63.2711 150.731C63.2711 120.396 78.1589 93.9225 101.318 78.4793H104.626C105.178 78.4793 105.729 79.0308 105.729 79.5824V112.123C102.421 112.123 99.6637 114.881 99.6637 118.19V145.767C99.6637 150.731 103.524 154.592 108.486 154.592H123.926C128.888 154.592 132.748 150.731 132.748 145.767V118.19C132.748 114.881 129.991 112.123 126.683 112.123V79.5824C126.683 79.0308 127.234 78.4793 127.785 78.4793H152.047C153.15 80.6855 155.907 82.3401 158.664 82.3401C162.524 82.3401 165.832 79.0308 165.832 75.1701C165.832 71.3093 162.524 68 158.664 68C155.907 68 153.701 69.6546 152.047 71.8608H127.785C122.823 71.8608 118.963 75.7216 118.963 80.6855V120.948H125.58V147.422C125.58 147.974 125.028 148.525 124.477 148.525H109.038C108.486 148.525 107.935 147.974 107.935 147.422V120.948H114.552V80.6855C114.552 75.7216 110.692 71.8608 105.729 71.8608H98.5609L97.4581 72.4123C72.0935 89.5101 55 118.742 55 151.283C55 184.375 71.5421 213.607 97.4581 230.153L98.5609 230.705H141.019V195.958C141.019 193.2 143.776 189.891 148.187 189.891C152.599 189.891 155.356 193.2 155.356 195.958V231.256H201.122L202.225 230.705C227.59 213.607 244.683 184.375 244.683 151.834C244.683 118.19 224.281 89.5101 198.916 72.4123Z" fill="#141414"/>
</svg>
