<svg width="300" height="300" viewBox="0 0 300 300" fill="none" xmlns="http://www.w3.org/2000/svg">
<path d="M226.73 50H77.2991C68.4767 50 61.3085 57.17 61.3085 65.9947V79.2317C61.3085 84.1956 65.1682 88.0563 70.1309 88.0563H129.131C140.711 88.0563 150.084 97.4326 150.084 108.463C147.879 109.566 146.225 112.324 146.225 115.082C146.225 118.943 149.533 122.252 153.393 122.252C157.253 122.252 160.561 118.943 160.561 115.082C160.561 112.324 158.907 110.118 156.701 108.463C156.701 93.0202 144.019 80.3348 128.58 80.3348H69.5795C69.0281 80.3348 68.4767 79.7832 68.4767 79.2317V65.9947C68.4767 61.0308 72.3365 57.17 77.2991 57.17H226.73C231.692 57.17 235.552 61.0308 235.552 65.9947V222.081C235.552 233.663 226.178 243.04 214.599 243.04H89.43C77.8505 243.04 68.4767 233.663 68.4767 222.081V160.308C70.6823 159.205 72.3365 156.447 72.3365 153.69C72.3365 149.829 69.0281 146.52 65.1683 146.52C61.3084 146.52 58 149.829 58 153.69C58 156.447 59.6542 158.654 61.8598 160.308V221.529C61.8598 236.973 74.5421 249.658 89.9815 249.658H214.047C229.487 249.658 242.169 236.973 242.169 221.529V65.4432C242.72 56.6185 235.552 50 226.73 50Z" fill="#141414"/>
<path d="M175.449 125.01C176.552 126.113 176.552 128.87 174.898 129.973C169.384 134.937 161.664 138.247 153.945 138.247C145.673 138.247 137.954 135.489 131.888 129.973C130.234 128.87 130.234 126.664 131.337 125.01C132.44 123.355 134.645 123.355 136.3 124.458C140.711 128.87 146.776 131.076 153.393 131.076C160.01 131.076 166.075 128.319 170.487 124.458C171.589 123.355 174.346 123.355 175.449 125.01Z" fill="#141414"/>
<path d="M120.86 137.144C119.758 136.04 119.206 133.834 120.86 132.18C122.515 131.077 124.72 131.077 125.823 132.18C132.991 139.35 142.365 143.211 152.842 143.211C163.318 143.211 172.692 138.798 179.861 132.18C180.963 130.525 183.169 130.525 184.823 132.18C186.477 133.283 186.477 135.489 184.823 137.144C176.552 144.865 164.973 149.829 152.842 149.829C140.711 149.829 129.131 144.865 120.86 137.144Z" fill="#141414"/>
<path fill-rule="evenodd" clip-rule="evenodd" d="M171.59 195.607C171.59 206.086 163.319 214.359 152.842 214.359C142.917 214.359 134.094 206.086 134.094 195.607C134.094 185.128 142.365 176.854 152.842 176.854C163.319 176.854 171.59 185.128 171.59 195.607ZM163.87 196.158C163.87 190.091 158.907 185.128 152.842 185.128C146.777 185.128 142.365 189.54 141.814 196.158C141.814 202.225 146.777 207.189 152.842 207.189C158.907 207.189 163.87 202.225 163.87 196.158Z" fill="#141414"/>
<path d="M115.346 163.618C107.627 171.891 102.664 183.473 102.664 195.607C102.664 207.741 107.627 219.323 115.346 227.596C117.001 229.251 119.206 229.251 120.309 227.596C121.963 225.942 121.963 223.736 120.309 222.632C113.692 215.462 109.281 206.086 109.281 195.607C109.281 185.128 113.141 175.751 120.309 168.581C121.963 166.927 121.412 164.721 120.309 163.618C119.206 161.963 117.001 162.514 115.346 163.618Z" fill="#141414"/>
<path d="M185.926 195.607C185.926 203.88 183.169 211.602 177.655 217.668C176.552 219.323 173.795 219.323 172.692 217.117C171.038 216.014 171.038 213.808 172.141 212.153C176.552 207.741 178.758 201.674 178.758 195.055C178.758 188.437 176 182.37 172.141 177.958C171.038 176.854 171.038 174.097 172.692 172.994C173.795 171.891 176.552 171.891 177.655 173.545C182.617 179.612 185.926 187.334 185.926 195.607Z" fill="#141414"/>
<path d="M133.543 173.545C131.889 172.442 129.683 172.442 128.58 174.097C123.066 180.164 120.309 187.885 120.309 196.158C120.309 204.431 123.618 212.153 128.58 218.22C129.683 219.875 132.44 219.875 133.543 218.772C135.197 217.668 135.197 214.911 134.094 213.808C130.234 209.395 127.477 203.328 127.477 196.71C127.477 190.091 129.683 184.024 134.094 179.612C135.197 176.854 135.197 174.648 133.543 173.545Z" fill="#141414"/>
<path d="M203.019 195.607C203.019 207.741 198.057 219.323 190.337 227.596C189.234 229.251 186.477 229.251 185.374 227.596C184.272 226.493 183.72 224.287 185.374 222.632C192.543 215.462 196.403 206.086 196.403 195.607C196.403 185.128 191.991 175.751 185.374 168.581C183.72 167.478 183.72 165.272 185.374 163.617C186.477 161.963 188.683 161.963 190.337 163.617C198.057 171.891 203.019 183.473 203.019 195.607Z" fill="#141414"/>
</svg>
