<svg width="300" height="300" viewBox="0 0 300 300" fill="none" xmlns="http://www.w3.org/2000/svg">
<path d="M70 59.5C70 55.3579 73.3579 52 77.5 52C81.6421 52 85 55.3579 85 59.5C85 63.6421 81.6421 67 77.5 67C73.3579 67 70 63.6421 70 59.5Z" fill="black"/>
<path d="M214 59.5C214 55.3579 217.358 52 221.5 52C225.642 52 229 55.3579 229 59.5C229 63.6421 225.642 67 221.5 67C217.358 67 214 63.6421 214 59.5Z" fill="black"/>
<path fill-rule="evenodd" clip-rule="evenodd" d="M77.5 55.5C75.2909 55.5 73.5 57.2909 73.5 59.5C73.5 61.7091 75.2909 63.5 77.5 63.5C78.2031 63.5 78.8639 63.3186 79.438 63H78C76.067 63 74.5 61.433 74.5 59.5C74.5 57.567 76.067 56 78 56H79.438C78.8639 55.6814 78.2031 55.5 77.5 55.5ZM87.9315 56C86.4695 51.6408 82.3515 48.5 77.5 48.5C71.4249 48.5 66.5 53.4249 66.5 59.5C66.5 65.5751 71.4249 70.5 77.5 70.5C82.3515 70.5 86.4695 67.3592 87.9315 63H201.5V78.5H78C76.067 78.5 74.5 80.067 74.5 82V108C74.5 109.933 76.067 111.5 78 111.5H201.5V127H78C76.067 127 74.5 128.567 74.5 130.5V156C74.5 157.933 76.067 159.5 78 159.5H201.5V177H78C76.067 177 74.5 178.567 74.5 180.5V206C74.5 207.933 76.067 209.5 78 209.5H201.5V226H78C76.067 226 74.5 227.567 74.5 229.5V248.5C74.5 250.433 76.067 252 78 252H222C223.933 252 225.5 250.433 225.5 248.5V69.7501C229.597 68.15 232.5 64.164 232.5 59.5C232.5 53.4249 227.575 48.5 221.5 48.5C215.425 48.5 210.5 53.4249 210.5 59.5C210.5 64.5351 213.883 68.7801 218.5 70.0859V245H81.5V233H205C206.933 233 208.5 231.433 208.5 229.5V206C208.5 204.067 206.933 202.5 205 202.5H81.5V184H205C206.933 184 208.5 182.433 208.5 180.5V156C208.5 154.067 206.933 152.5 205 152.5H81.5V134H205C206.933 134 208.5 132.433 208.5 130.5V108C208.5 106.067 206.933 104.5 205 104.5H81.5V85.5H205C206.933 85.5 208.5 83.933 208.5 82V59.5C208.5 57.567 206.933 56 205 56H87.9315ZM218.5 62.1458C217.878 61.4407 217.5 60.5144 217.5 59.5C217.5 57.2909 219.291 55.5 221.5 55.5C223.709 55.5 225.5 57.2909 225.5 59.5C225.5 57.567 223.933 56 222 56C220.067 56 218.5 57.567 218.5 59.5V62.1458Z" fill="black"/>
</svg>
