<svg width="300" height="300" viewBox="0 0 300 300" fill="none" xmlns="http://www.w3.org/2000/svg">
<path d="M155.066 47.3092H194.215C203.038 47.3092 210.206 54.4793 210.206 63.3039V239.797C210.206 248.622 203.038 255.792 194.215 255.792H105.991C97.1682 255.792 90 248.622 90 239.797V63.3039C90 54.4793 97.1682 47.3092 105.991 47.3092H129.15C130.253 45.1031 132.458 44 135.215 44C139.075 44 142.383 47.3092 142.383 51.17C142.383 55.0308 139.075 58.3401 135.215 58.3401C133.01 58.3401 130.253 57.237 129.15 55.0308H105.991C101.579 55.0308 97.7196 58.8916 97.7196 63.3039V239.797C97.7196 244.21 101.579 248.07 105.991 248.07H194.215C198.627 248.07 202.486 244.21 202.486 239.797V63.3039C202.486 58.8916 198.627 55.0308 194.215 55.0308H155.066C154.514 55.0308 153.963 55.5824 153.963 56.1339V145.484C156.169 146.587 157.271 148.793 157.271 151.551C157.271 155.411 153.963 158.721 150.103 158.721C146.243 158.721 142.935 155.411 142.935 151.551C142.935 149.344 144.038 146.587 146.243 145.484V56.1339C146.243 51.17 150.103 47.3092 155.066 47.3092Z" fill="#141414"/>
<path d="M141.281 131.144C142.383 133.35 141.832 135.556 140.178 136.659C135.215 139.968 131.907 145.484 130.804 151.551C130.804 160.927 139.075 168.648 149 168.648C158.926 168.648 167.197 160.927 167.197 151.551C167.197 145.484 164.44 139.968 158.926 136.659C157.271 135.556 156.72 132.798 157.823 131.144C158.926 129.489 161.683 128.937 163.337 130.04C171.057 135.004 175.468 142.726 175.468 151.551C175.468 165.891 163.888 176.921 149.552 176.921C135.215 176.921 123.636 165.339 123.636 151.551C123.636 142.726 128.047 134.453 135.767 130.04C137.972 128.937 140.178 129.489 141.281 131.144Z" fill="#141414"/>
</svg>
