<svg width="300" height="300" viewBox="0 0 300 300" fill="none" xmlns="http://www.w3.org/2000/svg">
<path d="M182.234 196.334H172.309C167.346 196.334 164.038 200.195 162.935 204.055C161.281 209.571 156.318 213.983 150.253 213.983C142.533 213.983 137.019 207.916 137.019 200.746C137.019 194.679 140.879 189.164 146.944 188.061C150.253 186.958 154.664 183.648 154.664 178.684V130.149C156.869 129.046 158.524 126.288 158.524 123.53C158.524 119.67 155.215 116.36 151.355 116.36C147.495 116.36 144.187 119.67 144.187 123.53C144.187 126.288 145.841 128.494 148.047 130.149V177.581C148.047 178.133 148.047 178.133 147.496 178.684C146.944 179.236 146.393 179.236 145.841 179.788C137.019 182.545 130.953 190.267 130.953 199.643C130.953 211.225 140.327 220.602 151.907 220.602C161.281 220.602 169.552 214.535 171.757 205.71C171.757 205.158 172.309 204.607 172.86 204.055C173.411 203.504 173.412 203.504 173.963 203.504H183.888C184.44 203.504 184.44 203.504 184.44 204.055C184.44 204.055 184.44 204.055 184.44 204.607C182.234 220.602 168.449 233.287 151.355 233.287C133.159 233.287 118.271 218.395 118.271 200.195C118.271 188.612 124.337 178.133 133.71 172.066C135.916 170.411 138.122 167.654 138.122 164.344V79.407C138.122 71.6854 144.187 66.17 151.355 66.17C158.524 66.17 164.589 72.237 164.589 79.407V164.344C164.589 167.654 166.243 170.411 169 172.066C170.655 173.169 172.309 174.272 173.963 175.927C173.963 176.478 173.411 177.581 173.411 178.133C173.411 181.994 176.72 185.303 180.58 185.303C184.44 185.303 187.748 181.994 187.748 178.133C187.748 174.272 184.44 170.963 180.58 170.963C180.028 170.963 179.477 170.963 178.926 170.963C177.271 169.308 175.066 167.654 172.86 165.999C172.309 165.447 171.757 164.896 171.757 164.896V79.9585C171.757 68.3761 162.383 59 150.804 59C139.224 59 129.851 68.3761 129.851 79.9585V164.896C129.851 165.447 129.851 165.999 128.748 165.999C117.72 173.169 110 185.854 110 200.195C110 222.808 128.196 240.457 150.253 240.457C170.655 240.457 187.748 225.014 190.505 205.158C191.056 200.195 186.645 196.334 182.234 196.334Z" fill="#141414"/>
</svg>
