<svg width="300" height="300" viewBox="0 0 300 300" fill="none" xmlns="http://www.w3.org/2000/svg">
<path d="M241.44 75H57.8225C52.8598 75 49 78.8608 49 83.8247V171.52C49 176.484 52.8598 180.344 57.8225 180.344H135.019C134.468 189.169 127.299 195.788 118.477 195.788H112.411C108.552 195.788 105.243 199.097 105.243 202.958V211.782C105.243 216.746 109.103 220.607 114.066 220.607H186.3C187.402 222.813 190.159 224.468 192.917 224.468C196.776 224.468 200.085 221.158 200.085 217.298C200.085 213.437 196.776 210.128 192.917 210.128C190.159 210.128 187.954 211.782 186.3 213.988H114.066C113.514 213.988 112.963 213.437 112.963 212.885V204.061H118.477C131.711 204.061 142.187 193.581 142.187 180.344C142.187 177.035 139.43 173.726 135.57 173.726H57.8225C57.2711 173.726 56.7197 173.174 56.7197 172.623V83.2731C56.7197 82.7216 57.2711 82.1701 57.8225 82.1701H241.991C242.543 82.1701 243.094 82.7216 243.094 83.2731V170.968C243.094 171.52 242.543 172.071 241.991 172.071H167.552C167.001 172.071 166.449 171.52 166.449 170.968V165.453C166.449 164.901 167.001 164.35 167.552 164.35H230.963C235.926 164.35 239.786 160.489 239.786 155.525V93.2009C239.786 88.237 235.926 84.3762 230.963 84.3762H68.8505C63.8879 84.3762 60.0281 88.237 60.0281 93.2009V155.525C60.0281 160.489 63.8879 164.35 68.8505 164.35H122.337C123.44 166.556 126.197 168.21 128.954 168.21C132.813 168.21 136.122 164.901 136.122 161.04C136.122 157.18 132.813 153.87 128.954 153.87C126.197 153.87 123.991 155.525 122.337 157.731H68.8505C68.2991 157.731 67.7478 157.18 67.7478 156.628V94.3039C67.7478 93.7524 68.2991 93.2009 68.8505 93.2009H230.963C231.515 93.2009 232.066 93.7524 232.066 94.3039V156.628C232.066 157.18 231.515 157.731 230.963 157.731H167.552C162.589 157.731 158.729 161.592 158.729 166.556V172.071C158.729 177.035 162.589 180.896 167.552 180.896H241.991C246.954 180.896 250.814 177.035 250.814 172.071V83.2731C250.263 78.8608 246.403 75 241.44 75Z" fill="#141414"/>
</svg>
