<svg width="300" height="300" viewBox="0 0 300 300" fill="none" xmlns="http://www.w3.org/2000/svg">
<path d="M149.215 46C102.346 46 60.9908 77.4378 48.3085 122.664C47.7571 123.767 48.3085 124.87 48.8599 125.974C49.4113 127.077 50.5141 127.628 52.1683 127.628H65.9534C67.6076 127.628 69.2618 126.525 69.8132 124.87C74.7758 108.876 84.7011 95.0872 97.9348 84.6079C110.066 74.6802 124.954 68.6131 140.393 66.9585V75.7832H133.225C127.711 75.7832 123.299 80.1956 123.299 85.711C123.299 91.2264 127.711 95.6387 133.225 95.6387H165.206C170.72 95.6387 175.131 91.2264 175.131 85.711C175.131 80.1956 170.72 75.7832 165.206 75.7832H158.038V66.9585C190.019 69.7162 217.59 90.6748 229.169 119.907H177.888C173.477 108.324 161.898 100.051 149.215 100.051C135.982 100.051 122.197 109.979 119.44 124.319H86.3553C85.2525 122.113 82.4955 121.01 80.2899 121.01C76.4301 121.01 73.1217 124.319 73.1217 128.18C73.1217 132.04 76.4301 135.35 80.2899 135.35C83.0469 135.35 85.2525 134.247 86.3553 132.04H122.748C124.954 132.04 126.608 130.386 126.608 128.18C126.608 116.046 138.187 107.773 148.664 107.773C159.141 107.773 167.963 114.943 170.72 124.319C171.272 125.973 172.926 127.077 174.58 127.077H234.132C235.234 127.077 236.337 126.525 237.44 125.422C237.992 124.319 238.543 123.216 237.991 122.113C226.412 85.1594 192.225 59.7885 154.178 58.1339C153.075 58.1339 151.972 58.6854 151.421 59.237C150.87 59.7885 150.318 60.8916 150.318 61.9947V79.0925C150.318 81.2987 151.972 82.9533 154.178 82.9533H165.206C166.309 82.9533 167.412 84.0563 167.412 85.1594C167.412 86.2625 166.309 87.3656 165.206 87.3656H133.225C132.122 87.3656 131.019 86.2625 131.019 85.1594C131.019 84.0563 132.122 82.9533 133.225 82.9533H144.253C146.458 82.9533 148.113 81.2987 148.113 79.0925V61.9947C148.113 60.8916 147.561 59.7885 147.01 59.237C146.458 58.6854 145.356 58.1339 144.253 58.1339C125.505 59.237 107.86 66.407 93.5236 77.9893C79.7385 89.0202 69.8132 103.36 63.7478 119.355H57.6823C70.916 80.1955 107.86 53.7215 149.215 53.7215C202.702 53.7215 245.711 97.2933 245.711 150.241C245.711 203.741 202.15 246.761 149.215 246.761C96.2806 246.761 52.7197 203.189 52.7197 150.241C52.7197 145.829 53.2711 141.417 53.8225 137.004H59.3365C58.7851 141.417 58.2338 145.829 58.2338 150.241C58.2338 200.983 99.5891 242.349 150.318 242.349C201.047 242.349 242.403 200.983 242.403 150.241C242.403 144.174 241.851 138.107 240.749 132.04C240.197 130.386 238.543 128.731 236.889 128.731H175.683C173.477 128.731 171.823 130.386 171.823 132.04C170.72 142.52 163.001 150.793 152.524 152.447V133.695C154.729 132.592 155.832 129.834 155.832 127.628C155.832 123.767 152.524 120.458 148.664 120.458C144.804 120.458 141.496 123.767 141.496 127.628C141.496 130.386 142.599 132.592 144.804 133.695V156.86C144.804 159.066 146.458 160.721 148.664 160.721C163.552 160.721 176.234 150.241 178.991 136.453H233.58C234.132 140.865 234.683 145.277 234.683 149.69C234.683 196.019 196.636 234.076 150.318 234.076C104 234.076 65.9534 196.019 65.9534 149.69C65.9534 144.174 66.5048 138.659 67.6076 133.143C67.6076 132.04 67.6076 130.937 67.0562 129.834C66.5048 128.731 65.402 128.18 64.2991 128.18H50.514C48.8598 128.18 47.2056 129.283 46.6542 131.489C45.5514 137.556 45 143.071 45 149.138C45 207.05 91.8694 253.931 149.767 253.931C207.664 253.931 254.534 207.05 254.534 149.138C253.982 92.881 207.113 46 149.215 46Z" fill="#141414"/>
</svg>
