<svg xmlns="http://www.w3.org/2000/svg" viewBox="0 0 1400 200"><defs><style>.cls-1{fill:#feb400;}.cls-2{fill:none;stroke:#5f5f60;stroke-miterlimit:10;}.cls-3{fill:#ccc;}.cls-4{fill:#008ca9;}</style></defs><title>HOOBS_x_thekeys</title><g id="HOOBS_LOGO" data-name="HOOBS LOGO"><path class="cls-1" d="M152.1,39.5H77.79A22.36,22.36,0,0,0,55.63,61.92v75.16A22.36,22.36,0,0,0,77.79,159.5H152.1a22.36,22.36,0,0,0,22.16-22.42V61.92A22.36,22.36,0,0,0,152.1,39.5Zm3,57.94a3.11,3.11,0,0,1-2.65,2.53,2.6,2.6,0,0,1-3.1-1.4c-1.22-3.28-3.9-5.27-6.23-7.51a8.46,8.46,0,0,1-2.91-7.15c.14-1.83,0-3.69,0-5.53h0c0-2.46,0-4.92,0-7.38,0-2.23-1.38-2.65-3.19-2.61s-3.9-.31-4,2.45c-.1,2.23,0,4.46-.08,6.69,0,.73.37,1.78-.35,2.14s-1.23-.67-1.74-1.16c-4.88-4.62-9.77-9.23-14.57-13.94-1.48-1.45-2.59-1.42-4,0q-15.85,16.1-31.81,32.1c-1.39,1.39-1.57,2.51,0,3.79.35.3.64.66,1,1,2.09,2.07,2.41,2,4.64-.06C93,95,99.53,88.09,106.27,81.43c1.41-1.39,2.91-2.7,4.35-4.06,2.71-2.57,5.82-2.66,8.51-.05,2.91,2.82,5.7,5.76,8.57,8.62,5.31,5.28,10.67,10.51,16,15.81,3.49,3.48,3.44,6.58,0,10.12-5.42,5.51-7.54,5.49-13,0-4.76-4.75-9.64-9.38-14.39-14.14-1.49-1.5-2.61-1.35-4,.1q-7.6,7.8-15.34,15.48c-1.35,1.33-1.35,2.43,0,3.68.5.47,1,.95,1.45,1.47,1.22,1.37,2.35,1.36,3.67,0,2.7-2.7,5.48-5.32,8.23-8s6-2.78,8.74-.2q4.59,4.32,9,8.83a5.89,5.89,0,0,1,0,8.48c-2,2.19-4.18,4.25-6.27,6.38a12.38,12.38,0,0,0-3.29,4.33,2.74,2.74,0,0,1-3.12,1.82,3,3,0,0,1-2.73-2.41,3.1,3.1,0,0,1,1.61-3.71c4.35-2.08,6.84-6.22,10.3-9.28a1.59,1.59,0,0,0,0-2.6c-2.75-2.76-5.49-5.53-8.25-8.28-1.11-1.12-2.13-.82-3.16.2-2.73,2.67-5.51,5.3-8.24,8s-5.82,2.83-8.75.39c-.76-.64-1.45-1.37-2.14-2.08-3.52-3.61-3.54-6.78,0-10.34q7.74-7.83,15.5-15.64c3.3-3.31,6.41-3.34,9.74-.08Q127,102,134.8,109.74c2.23,2.18,2.48,2.15,5.12-.54,2.23-2.28,2.26-2.62.05-4.83-7.74-7.72-15.51-15.4-23.22-23.15-1.31-1.32-2.34-1.41-3.65-.11-3.57,3.56-7.18,7.08-10.77,10.62q-7.11,7-14.23,14a5.85,5.85,0,0,1-8.58.2c-5.65-5.14-7-7.85-.5-14.2,10.21-9.89,20.08-20.14,30.09-30.24,3.58-3.6,6.67-3.61,10.25-.1,2.46,2.4,5,4.74,7.44,7.14,1,1,1.69,1.58,2.23-.45a5.07,5.07,0,0,1,4.41-3.82,22.64,22.64,0,0,1,2.72-.31c6.33-.17,8.55,2,8.57,8.43,0,3.85,0,7.69,0,11.54a4.59,4.59,0,0,0,1.57,3.87c2.46,2.13,4.24,5,7.44,6.32A2.8,2.8,0,0,1,155.13,97.44Z"/><path class="cls-1" d="M276.93,40.9v81.53H258.06V89H221v33.43H202.15V40.9H221V73h37V40.9Zm14.21,40.76c0-24.22,18.87-42.16,44.61-42.16s44.61,17.82,44.61,42.16-19,42.17-44.61,42.17S291.14,105.89,291.14,81.66Zm70.12,0c0-15.49-10.95-26.09-25.51-26.09s-25.51,10.6-25.51,26.09,10.95,26.1,25.51,26.1S361.26,97.15,361.26,81.66Zm28.19,0c0-24.22,18.87-42.16,44.61-42.16s44.61,17.82,44.61,42.16-19,42.17-44.61,42.17S389.45,105.89,389.45,81.66Zm70.12,0c0-15.49-10.95-26.09-25.51-26.09s-25.51,10.6-25.51,26.09,10.95,26.1,25.51,26.1S459.57,97.15,459.57,81.66Zm108.09,18.52c0,14.1-11.18,22.25-32.61,22.25H492.88V40.9h39.84c20.38,0,30.87,8.5,30.87,21.2A19.59,19.59,0,0,1,552.75,80C561.84,82.94,567.66,89.93,567.66,100.18Zm-56-45.07V74.33h18.75c9.2,0,14.21-3.27,14.21-9.67s-5-9.55-14.21-9.55Zm37,43.09c0-6.87-5.24-10.13-15-10.13h-22v20.15h22C543.44,108.22,548.68,105.19,548.68,98.2Zm26.9,16.19L582,100.18a47.94,47.94,0,0,0,26.91,8.51c11.18,0,15.72-3.73,15.72-8.74,0-15.26-47.4-4.77-47.4-35.06,0-13.86,11.18-25.39,34.36-25.39,10.25,0,20.73,2.45,28.3,7.22l-5.82,14.33a46.07,46.07,0,0,0-22.6-6.41C600.28,54.64,596,58.83,596,64c0,15,47.4,4.66,47.4,34.59,0,13.63-11.29,25.28-34.59,25.28C595.85,123.83,582.81,120,575.58,114.39Z"/><path class="cls-1" d="M201.05,137.31h2.7v8.77H215v-8.77h2.72V157H215v-8.45H203.75V157h-2.7Z"/><path class="cls-1" d="M237.12,138.47a9.83,9.83,0,0,1,3.75,3.6,9.61,9.61,0,0,1,1.38,5.05,9.75,9.75,0,0,1-1.38,5.07,9.89,9.89,0,0,1-3.75,3.65,10.87,10.87,0,0,1-10.42,0,10,10,0,0,1-3.75-3.65,9.84,9.84,0,0,1-1.37-5.07,9.69,9.69,0,0,1,1.37-5.05,10,10,0,0,1,3.74-3.6,11,11,0,0,1,10.43,0Zm-9,2.1a7.74,7.74,0,0,0-2.8,2.74,7.5,7.5,0,0,0,0,7.62,7.67,7.67,0,0,0,2.8,2.77,7.33,7.33,0,0,0,3.8,1,7.21,7.21,0,0,0,3.78-1,7.61,7.61,0,0,0,2.75-2.77,7.56,7.56,0,0,0,0-7.62,7.68,7.68,0,0,0-2.75-2.74,7.38,7.38,0,0,0-3.78-1A7.5,7.5,0,0,0,228.14,140.57Z"/><path class="cls-1" d="M246.12,137.31h3.21l7.19,13.82,7.13-13.82h3.23V157h-2.53l0-15.7-7,13.63h-1.66l-7-13.63V157h-2.5Z"/><path class="cls-1" d="M272.5,137.31h13.64v2.45H275.19v6.06H285v2.45h-9.8v6.26h11.29V157h-14Z"/><path class="cls-1" d="M304,138.62a4.27,4.27,0,0,1,1.73,3.61,4.39,4.39,0,0,1-.95,2.85,4.63,4.63,0,0,1-2.62,1.56,5.09,5.09,0,0,1,3.22,1.64,4.87,4.87,0,0,1,1.17,3.33,4.65,4.65,0,0,1-1.9,3.94,8.54,8.54,0,0,1-5.24,1.42h-8.54V137.31h8.4A7.68,7.68,0,0,1,304,138.62Zm-2,6.26a2.6,2.6,0,0,0,1-2.2,2.53,2.53,0,0,0-1-2.16,4.41,4.41,0,0,0-2.82-.73h-5.56v5.87h5.56A4.47,4.47,0,0,0,301.91,144.88Zm.61,8.79a2.76,2.76,0,0,0,1.23-2.4,2.67,2.67,0,0,0-1.23-2.33,6.06,6.06,0,0,0-3.43-.84h-5.56v6.4h5.56A5.83,5.83,0,0,0,302.52,153.67Z"/><path class="cls-1" d="M323.52,157l-3.9-6.17c-.45,0-.81,0-1.1,0h-5V157h-2.7V137.31h7.69A8.71,8.71,0,0,1,324.3,139a6.1,6.1,0,0,1,2,4.9,7,7,0,0,1-1.11,4,6.27,6.27,0,0,1-3.18,2.36l4.57,6.65Zm-5-8.56a6,6,0,0,0,3.88-1.11,4,4,0,0,0,1.35-3.27,3.84,3.84,0,0,0-1.35-3.19,6.08,6.08,0,0,0-3.88-1.08h-5v8.65Z"/><path class="cls-1" d="M331.13,137.31h2.7V157h-2.7Z"/><path class="cls-1" d="M352.63,138.59a9.36,9.36,0,0,1,3.64,3.53,10.19,10.19,0,0,1,0,10,9.51,9.51,0,0,1-3.67,3.53,10.67,10.67,0,0,1-5.22,1.27h-7.92V137.31h8A10.55,10.55,0,0,1,352.63,138.59Zm-1.4,15a7,7,0,0,0,2.64-2.64,7.34,7.34,0,0,0,1-3.76,7.43,7.43,0,0,0-1-3.79,7.13,7.13,0,0,0-2.69-2.65,7.43,7.43,0,0,0-3.77-1h-5.26v14.77h5.37A7.34,7.34,0,0,0,351.23,153.57Z"/><path class="cls-1" d="M374.41,147.37h2.39v7.22a12.08,12.08,0,0,1-3.48,1.88,11.82,11.82,0,0,1-4,.7,10.37,10.37,0,0,1-5.2-1.33,10,10,0,0,1-3.72-3.65,9.83,9.83,0,0,1-1.36-5.07,9.69,9.69,0,0,1,1.37-5.05,10,10,0,0,1,3.77-3.6,10.72,10.72,0,0,1,5.28-1.32,11.27,11.27,0,0,1,4,.73,10.6,10.6,0,0,1,3.38,2l-1.54,2a8.73,8.73,0,0,0-5.84-2.31,7.72,7.72,0,0,0-3.88,1,7.54,7.54,0,0,0-2.79,2.76,7.32,7.32,0,0,0-1,3.82,7.42,7.42,0,0,0,1,3.83,7.7,7.7,0,0,0,6.69,3.8,8.27,8.27,0,0,0,2.51-.4,9.26,9.26,0,0,0,2.37-1.14Z"/><path class="cls-1" d="M381.91,137.31h13.65v2.45H384.61v6.06h9.8v2.45h-9.8v6.26H395.9V157h-14Z"/><path class="cls-1" d="M421.41,138.47a10,10,0,0,1,3.75,3.6,9.61,9.61,0,0,1,1.38,5.05,9.75,9.75,0,0,1-1.38,5.07,10,10,0,0,1-3.75,3.65,10.87,10.87,0,0,1-10.42,0,10,10,0,0,1-3.75-3.65,9.75,9.75,0,0,1-1.37-5.07,9.6,9.6,0,0,1,1.37-5.05,10,10,0,0,1,3.74-3.6,11,11,0,0,1,10.43,0Zm-9,2.1a7.71,7.71,0,0,0-2.79,2.74,7.5,7.5,0,0,0,0,7.62,7.64,7.64,0,0,0,2.79,2.77,7.36,7.36,0,0,0,3.81,1,7.21,7.21,0,0,0,3.78-1,7.61,7.61,0,0,0,2.75-2.77,7.63,7.63,0,0,0,0-7.62,7.68,7.68,0,0,0-2.75-2.74,7.38,7.38,0,0,0-3.78-1A7.54,7.54,0,0,0,412.42,140.57Z"/><path class="cls-1" d="M434.19,153.2a5.53,5.53,0,0,0,4.14,1.53,5.45,5.45,0,0,0,4.1-1.53,5.86,5.86,0,0,0,1.49-4.26V137.31h2.7v11.63a8.13,8.13,0,0,1-2.21,6,8.24,8.24,0,0,1-6.08,2.19,8.34,8.34,0,0,1-6.12-2.19,8.09,8.09,0,0,1-2.22-6V137.31h2.7v11.63A5.83,5.83,0,0,0,434.19,153.2Z"/><path class="cls-1" d="M449.29,137.31h15.36v2.48H458.3V157h-2.7V139.79h-6.31Z"/><path class="cls-1" d="M488.9,138.47a10,10,0,0,1,3.75,3.6,9.69,9.69,0,0,1,1.37,5.05,9.84,9.84,0,0,1-1.37,5.07,10,10,0,0,1-3.75,3.65,10.87,10.87,0,0,1-10.42,0,10,10,0,0,1-3.75-3.65,9.75,9.75,0,0,1-1.38-5.07,9.61,9.61,0,0,1,1.38-5.05,10,10,0,0,1,3.73-3.6,11,11,0,0,1,10.44,0Zm-9,2.1a7.71,7.71,0,0,0-2.79,2.74,7.5,7.5,0,0,0,0,7.62,7.64,7.64,0,0,0,2.79,2.77,7.36,7.36,0,0,0,3.81,1,7.2,7.2,0,0,0,3.77-1,7.64,7.64,0,0,0,2.76-2.77,7.63,7.63,0,0,0,0-7.62,7.71,7.71,0,0,0-2.76-2.74,7.37,7.37,0,0,0-3.77-1A7.54,7.54,0,0,0,479.91,140.57Z"/><path class="cls-1" d="M497.9,137.31h12.8l0,2.45H500.59v6.46h9.08v2.44h-9.08V157H497.9Z"/><path class="cls-1" d="M518.68,137.31H534v2.48H527.7V157H525V139.79h-6.32Z"/><path class="cls-1" d="M537.13,137.31h2.7v8.77h11.23v-8.77h2.72V157h-2.72v-8.45H539.83V157h-2.7Z"/><path class="cls-1" d="M559.4,137.31h13.65v2.45H562.1v6.06h9.8v2.45h-9.8v6.26h11.29V157h-14Z"/><path class="cls-1" d="M598.23,138.62a4.27,4.27,0,0,1,1.73,3.61,4.35,4.35,0,0,1-1,2.85,4.64,4.64,0,0,1-2.61,1.56,5,5,0,0,1,3.21,1.64,4.87,4.87,0,0,1,1.17,3.33,4.63,4.63,0,0,1-1.9,3.94,8.53,8.53,0,0,1-5.23,1.42H585.1V137.31h8.4A7.68,7.68,0,0,1,598.23,138.62Zm-2.05,6.26a2.63,2.63,0,0,0,1-2.2,2.55,2.55,0,0,0-1-2.16,4.44,4.44,0,0,0-2.82-.73H587.8v5.87h5.56A4.5,4.5,0,0,0,596.18,144.88Zm.6,8.79a2.74,2.74,0,0,0,1.24-2.4,2.66,2.66,0,0,0-1.24-2.33,6,6,0,0,0-3.42-.84H587.8v6.4h5.56A5.78,5.78,0,0,0,596.78,153.67Z"/><path class="cls-1" d="M618.9,138.47a10,10,0,0,1,3.75,3.6,9.69,9.69,0,0,1,1.37,5.05,9.84,9.84,0,0,1-1.37,5.07,10,10,0,0,1-3.75,3.65,10.87,10.87,0,0,1-10.42,0,10,10,0,0,1-3.75-3.65,9.75,9.75,0,0,1-1.38-5.07,9.61,9.61,0,0,1,1.38-5.05,10,10,0,0,1,3.74-3.6,11,11,0,0,1,10.43,0Zm-9,2.1a7.71,7.71,0,0,0-2.79,2.74,7.5,7.5,0,0,0,0,7.62,7.64,7.64,0,0,0,2.79,2.77,7.36,7.36,0,0,0,3.81,1,7.2,7.2,0,0,0,3.77-1,7.64,7.64,0,0,0,2.76-2.77,7.63,7.63,0,0,0,0-7.62,7.71,7.71,0,0,0-2.76-2.74,7.37,7.37,0,0,0-3.77-1A7.54,7.54,0,0,0,609.91,140.57Z"/><path class="cls-1" d="M626.13,137.31h3.15l5.16,7.34,5.2-7.34h3.17l-6.65,9.44L643.37,157h-3.23l-5.7-7.95L628.8,157h-3.18l7.19-10.11Z"/></g><g id="Stroke"><line class="cls-2" x1="700.5" y1="60" x2="700.5" y2="140"/></g><g id="the_keys" data-name="the keys"><path class="cls-3" d="M1052.53,127.25c-6.23,1.86-9.71-.35-12.64-5.14-3.76-6.13-8.37-11.73-12.45-17.68-1.64-2.4-2.56-2.07-5-.54-7.53,4.75-5.86,12-6.06,18.84,0,1.66,1,3.8-1.22,4.92-2.86,1.45-5.66-.27-5.67-3.6-.06-14.92,0-29.84-.07-44.76,0-2.88,1.13-3.73,3.9-3.73,3,0,3.15,1.64,3.13,3.87-.06,6.84,0,13.69,0,20.46,2,.87,2.64-.75,3.48-1.57,6.14-5.95,12.43-11.79,18.25-18.06,3.53-3.8,7.25-5.76,12.71-4.25-.88,2.53-3.28,3.88-5.06,5.67-3.54,3.57-6.88,7.48-10.94,10.38-4.88,3.49-4.14,6.15-.8,10.3C1040.48,110.29,1046.26,118.7,1052.53,127.25Z"/><path class="cls-3" d="M1140.27,89.39c5.62,0,10.82.91,13.56,6.67.7,1.45,1.9,3.55.05,4.44-1.69.82-3.92,1.22-5.64-1.33-3.06-4.53-8-5.68-12.8-3.65-1.63.68-3,1.53-3.16,3.51a4,4,0,0,0,2.79,4.32c3.64,1.24,7.38,2.19,11.11,3.19,7.62,2,10.68,5.14,10.51,10.78s-3.92,9.22-11.24,10.86a23.1,23.1,0,0,1-11.94-.54c-3.88-1.17-7-3.52-8-7.61-.32-1.22-2.31-3.42.57-4,1.73-.38,3.82-.94,5.24,1.55,3,5.25,10.12,7.14,15.59,4.55a4.54,4.54,0,0,0,3-4.24,4.49,4.49,0,0,0-2.62-4.47c-3-1.58-6.37-2-9.64-2.8-9.17-2.14-13-6-12.13-12C1126.28,92.74,1131.82,89.31,1140.27,89.39Z"/><path class="cls-3" d="M1104.65,120.58l8.9-25.77a27.1,27.1,0,0,1,1.21-3.3c1.2-2.43,3.55-1.89,5.33-1.4,2.49.68.71,2.5.28,3.66-5.11,13.47-10.25,26.93-15.52,40.34-1.92,4.89-4.7,9-10.91,8.77-2.18-.08-3.9-.32-4-3.24s1.55-2.54,3.53-2.6c4.94-.15,8.78-6.88,6.8-12-3.81-9.85-7.89-19.59-11.61-29.46-.61-1.63-3.57-4-.4-5.4s5.56-.06,6.75,3.78c2.32,7.51,5.19,14.86,7.85,22.27C1103.27,117.29,1103.74,118.33,1104.65,120.58Z"/><path class="cls-3" d="M907.31,103.19c0-7.06-.08-14.11,0-21.16,0-2.59-.83-3.63-3.48-3.5-3.53.16-7.08.15-10.61,0-1.42-.06-4,1.06-3.91-1.56,0-2.08,2.37-1.32,3.74-1.33,7.74-.07,15.49,0,23.24,0,3.36,0,6.73,0,10.1,0,1.13,0,2.64-.2,2.71,1.45s-1.49,1.48-2.58,1.49c-3.87,0-7.76.2-11.62,0-3.12-.19-4,.93-4,4,.14,13.6.11,27.2,0,40.8,0,1.56,1.18,4.32-1.77,4.33s-1.77-2.74-1.8-4.31C907.24,116.62,907.31,109.9,907.31,103.19Z"/><path class="cls-3" d="M935.21,96.94c3.79-4.79,7.48-7.14,12.34-7.41,9.09-.52,14,3.78,14.24,12.86.2,7.21.11,14.43.07,21.64,0,1.21.62,3.31-1.07,3.36-2.34.07-1.36-2.26-1.4-3.52-.24-7.21-.26-14.42-.46-21.62-.14-5-2-8.72-7.44-10a12.71,12.71,0,0,0-13.67,5.21,16.61,16.61,0,0,0-2.6,9.55q0,9.06,0,18.12c0,1.16.08,2.63-1.67,2.44s-1.22-1.76-1.22-2.81q-.06-23.15,0-46.31c0-1-.39-2.72,1.41-2.6,1.51.1,1.49,1.58,1.49,2.76C935.21,84.34,935.21,90,935.21,96.94Z"/><path class="cls-4" d="M876.56,87.39c-6.89-31.94-38.34-52.49-70.94-46C790.21,44.45,777.9,52.6,768,66.27c13,0,24.81-.06,36.59.07,1.48,0,4.42-1.39,4.27,1.61-.13,2.7-2.93,1.3-4.49,1.38a94.9,94.9,0,0,1-12.62,0c-3.83-.32-4.8,1-4.75,4.73.21,16.44.13,32.89,0,49.33,0,1.53,1.28,4.25-1.65,4.38-3.17.13-1.81-2.7-1.82-4.19-.11-13.6,0-27.19-.11-40.78,0-4.31,1.91-9.94-.85-12.58s-8.35-.41-12.66-.86c-3.2-.33-4.85,1-6.12,3.79-10.19,22.41-8.85,44,6.31,63.51,15.4,19.83,36.41,27.23,61,21.83A59.64,59.64,0,0,0,876.56,87.39Zm-37.11,34.34c-2.78-5.15-6.39-9.84-9.55-14.79-1.15-1.79-1.93-2.12-3.8-.56-3.43,2.85-5.69,5.88-4.94,10.64.36,2.29,0,4.69.09,7,.15,2.49-.09,4-3.36,4-3.07,0-4-.8-4-3.94q.23-26.93,0-53.85c0-2.91.52-4.06,3.81-4.11,3.71-.06,3.5,1.89,3.49,4.37,0,10.39,0,20.77,0,32.38,5.48-5.23,10.24-9.79,15-14.33,5.75-5.47,5.76-5.46,14.88-5-5.06,4.64-9.36,8.93-14,12.76-2.87,2.35-2.88,4-.78,7,5.54,7.75,10.69,15.78,16.22,24C846,129.36,842.3,127,839.45,121.73Z"/><path class="cls-3" d="M1071.39,89.47c-13.8-1.2-22.88,10.57-19.42,25.16q2.94,12.39,15.15,14c7,.92,13.81-2.19,16.69-7.88.74-1.46,2.68-3.65.58-4.69-1.6-.79-4.42-1.4-5.84,1.86-2.31,5.29-7.18,5.63-12,4.8-4.63-.8-7.1-4-8.28-8.44-.75-2.82.16-3.63,2.87-3.52,3.53.13,7.07,0,10.6,0h11.61c1.42,0,2.44-.14,2.77-2C1087.54,100.34,1079.92,90.21,1071.39,89.47Zm4.35,16c-2.5-.14-5,0-7.52,0-1.84,0-3.68,0-5.52,0-5.08,0-5.68-1-3.2-5.44a10,10,0,0,1,9.55-5.29,10.21,10.21,0,0,1,9.4,6.39C1079.65,103.73,1079.46,105.69,1075.74,105.49Z"/><path class="cls-3" d="M1000,115.26c-2-.74-2,1.81-2.57,3-3.08,6.1-7.85,8.57-14.9,7.58-5.22-.74-9.67-5.46-10.74-11.26-.62-3.37-.22-5.31,4.1-5.11,7.38.34,14.79.08,22.18.1,2,0,3.62,0,3.69-2.78.25-9.71-6.83-17.27-16.43-17.33-6.69,0-11.78,2.87-14.47,9-3.33,7.55-3.67,15.3.5,22.71,3.33,5.92,8.93,8,15.39,7.47,6-.48,11-3.06,13.26-9.16C1000.49,118.14,1002.32,116.12,1000,115.26Zm-28.07-11.92c1.47-6.48,7.5-11.74,13.47-11.51,6.43.24,11.76,5.32,12.94,12,.39,2.22,0,3.11-2.31,3.06-3.69-.09-7.38,0-11.06,0-3.36,0-6.71-.11-10.06,0C972.17,107,971.32,106,971.92,103.34Z"/></g></svg>