<svg id="b14088a4-7597-493d-9cf3-94a67f8acbbd" data-name="Ebene 1" xmlns="http://www.w3.org/2000/svg" viewBox="0 0 1680 200"><defs><style>.eac2be9c-ff77-45c0-b6ba-c008fb38816a{fill:none;stroke:#ccc;stroke-miterlimit:10;}.f4887bff-dade-4b98-9c79-33ce4e38d3bd{fill:#f9b213;}.eb1dd907-4f5a-4094-9c4a-d03cc0b2fd83{fill:#980200;}.f9990a04-1560-46d9-925e-71aa69742fbc{fill:red;}.eeae23a5-7cb2-4f7a-b0b2-d8f925775c41{fill:#ccc;}</style></defs><title>HOOBS_x_pihole</title><g id="e9def0e1-b3fa-4b63-8eab-5e44b42f80e9" data-name="Stroke"><line class="eac2be9c-ff77-45c0-b6ba-c008fb38816a" x1="700.5" y1="60" x2="700.5" y2="140"/></g><path class="f4887bff-dade-4b98-9c79-33ce4e38d3bd" d="M154.17,41.5h-78A19.5,19.5,0,0,0,56.67,61v78a19.5,19.5,0,0,0,19.5,19.5h78a19.5,19.5,0,0,0,19.5-19.5V61A19.5,19.5,0,0,0,154.17,41.5Zm2,59.26a3.24,3.24,0,0,1-4.59,0,3.21,3.21,0,0,1-.95-2.09l-8.82-8.82V69.92a1.63,1.63,0,0,0-1.63-1.63h-3.25a1.63,1.63,0,0,0-1.62,1.63V83.6l-4.88-5.13-15-15a1.62,1.62,0,0,0-2.3,0L78.59,97.89a1.64,1.64,0,0,0,0,2.3l2.3,2.3a1.64,1.64,0,0,0,2.3,0l26.43-26.43a6.49,6.49,0,0,1,9.19,0l26.43,26.43a6.51,6.51,0,0,1,0,9.19l-2.3,2.3a6.49,6.49,0,0,1-9.19,0L115.36,95.59a1.64,1.64,0,0,0-2.3,0L94.68,114a1.62,1.62,0,0,0,0,2.3l2.3,2.29a1.61,1.61,0,0,0,2.29,0l10.35-10.34a6.49,6.49,0,0,1,9.19,0l10.34,10.34a6.51,6.51,0,0,1,0,9.2L118,138.89a3.21,3.21,0,0,1-1,2.09,3.25,3.25,0,1,1-2.5-5.54l11.12-11.12a1.62,1.62,0,0,0,0-2.3l-10.34-10.34a1.62,1.62,0,0,0-2.3,0L102.72,122a6.49,6.49,0,0,1-9.19,0l-2.3-2.3a6.49,6.49,0,0,1,0-9.19l18.39-18.38a6.49,6.49,0,0,1,9.19,0l18.38,18.38a1.64,1.64,0,0,0,2.3,0l2.3-2.3a1.64,1.64,0,0,0,0-2.3L115.36,79.51a1.62,1.62,0,0,0-2.3,0L86.63,105.93a6.49,6.49,0,0,1-9.19,0l-2.3-2.29a6.52,6.52,0,0,1,0-9.2L109.62,60a6.49,6.49,0,0,1,9.19,0l11.6,11.61V69.92a6.5,6.5,0,0,1,6.5-6.5h3.25a6.5,6.5,0,0,1,6.5,6.5V87.83l7.4,7.39a3.25,3.25,0,0,1,2.09,5.54Z"/><path class="f4887bff-dade-4b98-9c79-33ce4e38d3bd" d="M612.42,61H624.1v3.65h-3.71v11H616.1v-11h-3.68Zm13.09,0h4.72l3.34,7.78L637,61h4.72V75.62h-3.85V67.39l-2.77,6.81h-2.92l-2.77-6.81v8.23h-3.85Z"/><path class="f4887bff-dade-4b98-9c79-33ce4e38d3bd" d="M271.65,61v78H254.31V107h-34v32H202.92V61h17.35V91.75h34V61Zm10.65,39c0-22.41,16.77-39,39.65-39s39.64,16.48,39.64,39S344.72,139,322,139,282.3,122.41,282.3,100Zm62.09.39c0-14.19-9.63-23.9-22.44-23.9s-22.45,9.71-22.45,23.9,9.64,23.89,22.45,23.89S344.39,114.57,344.39,100.39ZM368.8,100c0-22.41,16.77-39,39.65-39s39.64,16.48,39.64,39-16.87,39-39.64,39S368.8,122.41,368.8,100Zm62.09.39c0-14.19-9.63-23.9-22.44-23.9S386,86.2,386,100.39s9.64,23.89,22.45,23.89S430.89,114.57,430.89,100.39Zm96.58,17.33c0,13.48-10.28,21.28-30,21.28H458.74V61h36.61c18.74,0,28.38,8.13,28.38,20.28a18.86,18.86,0,0,1-10,17.16C522.12,101.23,527.47,107.91,527.47,117.72ZM476.71,76.06V93.67h16.5c8.1,0,12.5-3,12.5-8.86s-4.4-8.75-12.5-8.75Zm32.59,39.47c0-6.29-4.61-9.28-13.22-9.28H476.71v18.46h19.37C504.69,124.71,509.3,121.93,509.3,115.53Zm23.38,14.74,5.69-13.14A41.52,41.52,0,0,0,562.28,125c9.94,0,14-3.44,14-8.08,0-14.11-42.13-4.41-42.13-32.42,0-12.82,9.94-23.49,30.53-23.49,9.11,0,18.43,2.26,25.16,6.68l-5.18,13.25A39.67,39.67,0,0,0,564.56,75c-9.94,0-13.77,3.87-13.77,8.61,0,13.9,42.13,4.31,42.13,32,0,12.61-10,23.38-30.74,23.38C550.69,139,539.1,135.44,532.68,130.27Z"/><path class="eb1dd907-4f5a-4094-9c4a-d03cc0b2fd83" d="M839.44,160.37c-2.14-.12-22-.88-23.25-23.24-1-13.58,9.76-23.6,9.76-36.79-2.43-32.88-46.5-28.81-46.5,0a27.05,27.05,0,0,0,7.92,19.21L820.2,152.4a27.09,27.09,0,0,0,19.21,7.92"/><path class="f9990a04-1560-46d9-925e-71aa69742fbc" d="M899.42,100.36c-.12,2.13-.88,22-23.24,23.24-13.58,1-23.61-9.75-36.78-9.75-32.89,2.43-28.82,46.48,0,46.48a27,27,0,0,0,19.2-7.92l32.86-32.83a27.09,27.09,0,0,0,7.92-19.21"/><path class="eb1dd907-4f5a-4094-9c4a-d03cc0b2fd83" d="M839.44,40.37c2.13.12,22,.88,23.24,23.24,1,13.59-9.75,23.6-9.75,36.79,2.43,32.89,46.48,28.81,46.48,0a27.09,27.09,0,0,0-7.92-19.21L858.64,48.33a27,27,0,0,0-19.2-7.92"/><path class="f9990a04-1560-46d9-925e-71aa69742fbc" d="M779.56,100.36c.12-2.13.88-22,23.24-23.24,13.58-1,23.61,9.75,36.79,9.75,32.88-2.47,28.81-46.48,0-46.48a27.07,27.07,0,0,0-19.21,7.92L787.52,81.15a27.09,27.09,0,0,0-7.92,19.21"/><path class="eeae23a5-7cb2-4f7a-b0b2-d8f925775c41" d="M1039.45,81.84a29,29,0,0,1,10.46-.48c7,1.21,11.16,5,12.15,11.9,1.31,9.14.37,18.36.62,27.54,0,1.39-.88,1.25-1.77,1.25-2.73,0-5.46-.08-8.18,0-1.43.06-1.75-.46-1.74-1.79.06-6.21,0-12.43,0-18.64a20.68,20.68,0,0,0-.94-7.25c-1.17-3.11-8-4.86-10.28-2.65-.63.61-.32,1.51-.33,2.27,0,8.58-.06,17.16,0,25.73,0,1.8-.37,2.48-2.29,2.34a48.35,48.35,0,0,0-7.12,0c-1.84.13-2.35-.42-2.33-2.28.1-10.41,0-20.83,0-31.24,0-7.18.07-14.36-.06-21.53,0-1.82.57-2.42,2.25-2.62q3.66-.44,7.28-1.18c1.82-.37,2.24.27,2.21,2C1039.39,70.66,1039.45,76.09,1039.45,81.84Z"/><path class="eeae23a5-7cb2-4f7a-b0b2-d8f925775c41" d="M1118.7,88.67c0-7.17.09-14.35-.07-21.52,0-2,.61-2.57,2.41-2.76a55.34,55.34,0,0,0,6.76-1.1c2.22-.51,2.6.35,2.58,2.37-.08,13.13,0,26.26,0,39.38a21.45,21.45,0,0,0,.21,3.93c.45,2.46,2.19,3.72,4.57,4,1.15.14,1.51.48,1.21,1.64a33.63,33.63,0,0,0-.63,3.61c-.76,4.88-.75,4.88-5.65,4.26-7.58-1-11.08-4.78-11.32-12.31,0-.44,0-.87,0-1.31Z"/><path class="eeae23a5-7cb2-4f7a-b0b2-d8f925775c41" d="M979.72,102.1c0-6,0-12.06,0-18.08,0-1.55.28-2.19,2-2.09,2.62.16,5.27.1,7.9,0,1.36,0,1.81.38,1.81,1.78q-.07,18.34,0,36.7c0,1.24-.36,1.68-1.64,1.64-2.72-.08-5.45-.11-8.16,0-1.5.06-1.92-.41-1.9-1.89C979.77,114.16,979.72,108.13,979.72,102.1Z"/><path class="eeae23a5-7cb2-4f7a-b0b2-d8f925775c41" d="M1009.65,104.61c-3.08,0-6.15-.08-9.22,0-1.67.06-2.14-.55-2-2.12.15-2.68-.86-6.17.48-7.85s5.08-.5,7.76-.57c4-.1,8.08.07,12.11-.07,1.81-.06,2.28.55,2.18,2.23a52.63,52.63,0,0,0,0,6.28c.08,1.57-.37,2.17-2,2.1C1015.79,104.52,1012.72,104.61,1009.65,104.61Z"/><path class="eeae23a5-7cb2-4f7a-b0b2-d8f925775c41" d="M985.38,77.39c-4.08,0-6.79-2.73-6.79-6.75a6.91,6.91,0,1,1,6.79,6.75Z"/><path class="eeae23a5-7cb2-4f7a-b0b2-d8f925775c41" d="M960.08,70.38c-9.09-2.61-18.29-1.77-27.49-.55-1.64.22-1.33,1.28-1.33,2.28q0,11.94,0,23.9c0,7.88.07,15.76-.06,23.64,0,2,.56,2.58,2.51,2.44a49.9,49.9,0,0,1,7.13,0c2,.14,2.75-.33,2.66-2.51-.2-4.37,0-8.76-.09-13.13,0-1.52.48-2,2-2a69.1,69.1,0,0,0,11.3-.85c8.6-1.41,13.83-5.88,14.89-13.65C972.91,80.13,969.6,73.12,960.08,70.38Zm-5.6,22.74a32.29,32.29,0,0,1-9.64,1c-1.26,0-1.43-.62-1.41-1.63,0-1.92,0-3.84,0-5.76s0-3.84,0-5.76c0-1.16.25-1.78,1.53-1.86a25.47,25.47,0,0,1,9.64.8c3.17,1,4.63,3.17,4.64,6.49C959.23,90,957.78,92.08,954.48,93.12Z"/><path class="eeae23a5-7cb2-4f7a-b0b2-d8f925775c41" d="M1154.55,105.77c3.6.17,7.21,0,10.82,0h4.75c9.13,0,9.08,0,8-9-2-16.14-17.55-18.34-26.62-13.94-8.08,3.92-10.86,11.11-10.9,19.47,0,8,2.57,14.86,10.41,18.54,6.6,3.1,13.52,2.61,20.42,1.19,4.73-1,4.72-1,4-5.64a26.76,26.76,0,0,1-.55-3.63c0-1.65-.84-1.56-2-1.16a27.17,27.17,0,0,1-10.65,1.44c-3.73-.27-7.09-1.38-9-5C1152.46,106.58,1152.3,105.67,1154.55,105.77Zm4.6-15.21a6.83,6.83,0,0,1,7.42,4.59c.65,1.83.61,2.87-1.9,2.75-3.94-.2-7.9-.05-11.87-.05C1153.37,93.43,1155.58,90.94,1159.15,90.56Z"/><path class="eeae23a5-7cb2-4f7a-b0b2-d8f925775c41" d="M1110.26,99.35c-.77-7.68-4.08-13.89-11.52-16.83s-15-2.32-21.23,3.2c-6,5.28-7.34,12.28-6.4,19.86,2.1,16.87,18.42,20.59,28.93,15.35,7.78-3.87,10.15-10.88,10.23-19A25.44,25.44,0,0,0,1110.26,99.35Zm-13.65,10.26a6.9,6.9,0,0,1-12,.12,13.19,13.19,0,0,1-1.89-7.68,13.74,13.74,0,0,1,1.6-7.41c2.88-5,9.77-5.12,12.44-.07A15.12,15.12,0,0,1,1096.61,109.61Z"/></svg>