<svg xmlns="http://www.w3.org/2000/svg" viewBox="0 0 1400 200"><defs><style>.cls-1{fill:#feb400;}.cls-2{fill:none;stroke:#5f5f60;stroke-miterlimit:10;}.cls-3,.cls-4{fill:#ccc;}.cls-4{font-size:50px;font-family:Helvetica-Bold, Helvetica;font-weight:700;}</style></defs><title>HOOBS_x_people</title><g id="HOOBS_LOGO" data-name="HOOBS LOGO"><path class="cls-1" d="M152.1,39.5H77.79A22.36,22.36,0,0,0,55.63,61.92v75.16A22.36,22.36,0,0,0,77.79,159.5H152.1a22.36,22.36,0,0,0,22.16-22.42V61.92A22.36,22.36,0,0,0,152.1,39.5Zm3,57.94a3.11,3.11,0,0,1-2.65,2.53,2.6,2.6,0,0,1-3.1-1.4c-1.22-3.28-3.9-5.27-6.23-7.51a8.46,8.46,0,0,1-2.91-7.15c.14-1.83,0-3.69,0-5.53h0c0-2.46,0-4.92,0-7.38,0-2.23-1.38-2.65-3.19-2.61s-3.9-.31-4,2.45c-.1,2.23,0,4.46-.08,6.69,0,.73.37,1.78-.35,2.14s-1.23-.67-1.74-1.16c-4.88-4.62-9.77-9.23-14.57-13.94-1.48-1.45-2.59-1.42-4,0q-15.85,16.1-31.81,32.1c-1.39,1.39-1.57,2.51,0,3.79.35.3.64.66,1,1,2.09,2.07,2.41,2,4.64-.06C93,95,99.53,88.09,106.27,81.43c1.41-1.39,2.91-2.7,4.35-4.06,2.71-2.57,5.82-2.66,8.51-.05,2.91,2.82,5.7,5.76,8.57,8.62,5.31,5.28,10.67,10.51,16,15.81,3.49,3.48,3.44,6.58,0,10.12-5.42,5.51-7.54,5.49-13,0-4.76-4.75-9.64-9.38-14.39-14.14-1.49-1.5-2.61-1.35-4,.1q-7.6,7.8-15.34,15.48c-1.35,1.33-1.35,2.43,0,3.68.5.47,1,.95,1.45,1.47,1.22,1.37,2.35,1.36,3.67,0,2.7-2.7,5.48-5.32,8.23-8s6-2.78,8.74-.2q4.59,4.32,9,8.83a5.89,5.89,0,0,1,0,8.48c-2,2.19-4.18,4.25-6.27,6.38a12.38,12.38,0,0,0-3.29,4.33,2.74,2.74,0,0,1-3.12,1.82,3,3,0,0,1-2.73-2.41,3.1,3.1,0,0,1,1.61-3.71c4.35-2.08,6.84-6.22,10.3-9.28a1.59,1.59,0,0,0,0-2.6c-2.75-2.76-5.49-5.53-8.25-8.28-1.11-1.12-2.13-.82-3.16.2-2.73,2.67-5.51,5.3-8.24,8s-5.82,2.83-8.75.39c-.76-.64-1.45-1.37-2.14-2.08-3.52-3.61-3.54-6.78,0-10.34q7.74-7.83,15.5-15.64c3.3-3.31,6.41-3.34,9.74-.08Q127,102,134.8,109.74c2.23,2.18,2.48,2.15,5.12-.54,2.23-2.28,2.26-2.62.05-4.83-7.74-7.72-15.51-15.4-23.22-23.15-1.31-1.32-2.34-1.41-3.65-.11-3.57,3.56-7.18,7.08-10.77,10.62q-7.11,7-14.23,14a5.85,5.85,0,0,1-8.58.2c-5.65-5.14-7-7.85-.5-14.2,10.21-9.89,20.08-20.14,30.09-30.24,3.58-3.6,6.67-3.61,10.25-.1,2.46,2.4,5,4.74,7.44,7.14,1,1,1.69,1.58,2.23-.45a5.07,5.07,0,0,1,4.41-3.82,22.64,22.64,0,0,1,2.72-.31c6.33-.17,8.55,2,8.57,8.43,0,3.85,0,7.69,0,11.54a4.59,4.59,0,0,0,1.57,3.87c2.46,2.13,4.24,5,7.44,6.32A2.8,2.8,0,0,1,155.13,97.44Z"/><path class="cls-1" d="M276.93,40.9v81.53H258.06V89H221v33.43H202.15V40.9H221V73h37V40.9Zm14.21,40.76c0-24.22,18.87-42.16,44.61-42.16s44.61,17.82,44.61,42.16-19,42.17-44.61,42.17S291.14,105.89,291.14,81.66Zm70.12,0c0-15.49-10.95-26.09-25.51-26.09s-25.51,10.6-25.51,26.09,10.95,26.1,25.51,26.1S361.26,97.15,361.26,81.66Zm28.19,0c0-24.22,18.87-42.16,44.61-42.16s44.61,17.82,44.61,42.16-19,42.17-44.61,42.17S389.45,105.89,389.45,81.66Zm70.12,0c0-15.49-10.95-26.09-25.51-26.09s-25.51,10.6-25.51,26.09,10.95,26.1,25.51,26.1S459.57,97.15,459.57,81.66Zm108.09,18.52c0,14.1-11.18,22.25-32.61,22.25H492.88V40.9h39.84c20.38,0,30.87,8.5,30.87,21.2A19.59,19.59,0,0,1,552.75,80C561.84,82.94,567.66,89.93,567.66,100.18Zm-56-45.07V74.33h18.75c9.2,0,14.21-3.27,14.21-9.67s-5-9.55-14.21-9.55Zm37,43.09c0-6.87-5.24-10.13-15-10.13h-22v20.15h22C543.44,108.22,548.68,105.19,548.68,98.2Zm26.9,16.19L582,100.18a47.94,47.94,0,0,0,26.91,8.51c11.18,0,15.72-3.73,15.72-8.74,0-15.26-47.4-4.77-47.4-35.06,0-13.86,11.18-25.39,34.36-25.39,10.25,0,20.73,2.45,28.3,7.22l-5.82,14.33a46.07,46.07,0,0,0-22.6-6.41C600.28,54.64,596,58.83,596,64c0,15,47.4,4.66,47.4,34.59,0,13.63-11.29,25.28-34.59,25.28C595.85,123.83,582.81,120,575.58,114.39Z"/><path class="cls-1" d="M201.05,137.31h2.7v8.77H215v-8.77h2.72V157H215v-8.45H203.75V157h-2.7Z"/><path class="cls-1" d="M237.12,138.47a9.83,9.83,0,0,1,3.75,3.6,9.61,9.61,0,0,1,1.38,5.05,9.75,9.75,0,0,1-1.38,5.07,9.89,9.89,0,0,1-3.75,3.65,10.87,10.87,0,0,1-10.42,0,10,10,0,0,1-3.75-3.65,9.84,9.84,0,0,1-1.37-5.07,9.69,9.69,0,0,1,1.37-5.05,10,10,0,0,1,3.74-3.6,11,11,0,0,1,10.43,0Zm-9,2.1a7.74,7.74,0,0,0-2.8,2.74,7.5,7.5,0,0,0,0,7.62,7.67,7.67,0,0,0,2.8,2.77,7.33,7.33,0,0,0,3.8,1,7.21,7.21,0,0,0,3.78-1,7.61,7.61,0,0,0,2.75-2.77,7.56,7.56,0,0,0,0-7.62,7.68,7.68,0,0,0-2.75-2.74,7.38,7.38,0,0,0-3.78-1A7.5,7.5,0,0,0,228.14,140.57Z"/><path class="cls-1" d="M246.12,137.31h3.21l7.19,13.82,7.13-13.82h3.23V157h-2.53l0-15.7-7,13.63h-1.66l-7-13.63V157h-2.5Z"/><path class="cls-1" d="M272.5,137.31h13.64v2.45H275.19v6.06H285v2.45h-9.8v6.26h11.29V157h-14Z"/><path class="cls-1" d="M304,138.62a4.27,4.27,0,0,1,1.73,3.61,4.39,4.39,0,0,1-.95,2.85,4.63,4.63,0,0,1-2.62,1.56,5.09,5.09,0,0,1,3.22,1.64,4.87,4.87,0,0,1,1.17,3.33,4.65,4.65,0,0,1-1.9,3.94,8.54,8.54,0,0,1-5.24,1.42h-8.54V137.31h8.4A7.68,7.68,0,0,1,304,138.62Zm-2,6.26a2.6,2.6,0,0,0,1-2.2,2.53,2.53,0,0,0-1-2.16,4.41,4.41,0,0,0-2.82-.73h-5.56v5.87h5.56A4.47,4.47,0,0,0,301.91,144.88Zm.61,8.79a2.76,2.76,0,0,0,1.23-2.4,2.67,2.67,0,0,0-1.23-2.33,6.06,6.06,0,0,0-3.43-.84h-5.56v6.4h5.56A5.83,5.83,0,0,0,302.52,153.67Z"/><path class="cls-1" d="M323.52,157l-3.9-6.17c-.45,0-.81,0-1.1,0h-5V157h-2.7V137.31h7.69A8.71,8.71,0,0,1,324.3,139a6.1,6.1,0,0,1,2,4.9,7,7,0,0,1-1.11,4,6.27,6.27,0,0,1-3.18,2.36l4.57,6.65Zm-5-8.56a6,6,0,0,0,3.88-1.11,4,4,0,0,0,1.35-3.27,3.84,3.84,0,0,0-1.35-3.19,6.08,6.08,0,0,0-3.88-1.08h-5v8.65Z"/><path class="cls-1" d="M331.13,137.31h2.7V157h-2.7Z"/><path class="cls-1" d="M352.63,138.59a9.36,9.36,0,0,1,3.64,3.53,10.19,10.19,0,0,1,0,10,9.51,9.51,0,0,1-3.67,3.53,10.67,10.67,0,0,1-5.22,1.27h-7.92V137.31h8A10.55,10.55,0,0,1,352.63,138.59Zm-1.4,15a7,7,0,0,0,2.64-2.64,7.34,7.34,0,0,0,1-3.76,7.43,7.43,0,0,0-1-3.79,7.13,7.13,0,0,0-2.69-2.65,7.43,7.43,0,0,0-3.77-1h-5.26v14.77h5.37A7.34,7.34,0,0,0,351.23,153.57Z"/><path class="cls-1" d="M374.41,147.37h2.39v7.22a12.08,12.08,0,0,1-3.48,1.88,11.82,11.82,0,0,1-4,.7,10.37,10.37,0,0,1-5.2-1.33,10,10,0,0,1-3.72-3.65,9.83,9.83,0,0,1-1.36-5.07,9.69,9.69,0,0,1,1.37-5.05,10,10,0,0,1,3.77-3.6,10.72,10.72,0,0,1,5.28-1.32,11.27,11.27,0,0,1,4,.73,10.6,10.6,0,0,1,3.38,2l-1.54,2a8.73,8.73,0,0,0-5.84-2.31,7.72,7.72,0,0,0-3.88,1,7.54,7.54,0,0,0-2.79,2.76,7.32,7.32,0,0,0-1,3.82,7.42,7.42,0,0,0,1,3.83,7.7,7.7,0,0,0,6.69,3.8,8.27,8.27,0,0,0,2.51-.4,9.26,9.26,0,0,0,2.37-1.14Z"/><path class="cls-1" d="M381.91,137.31h13.65v2.45H384.61v6.06h9.8v2.45h-9.8v6.26H395.9V157h-14Z"/><path class="cls-1" d="M421.41,138.47a10,10,0,0,1,3.75,3.6,9.61,9.61,0,0,1,1.38,5.05,9.75,9.75,0,0,1-1.38,5.07,10,10,0,0,1-3.75,3.65,10.87,10.87,0,0,1-10.42,0,10,10,0,0,1-3.75-3.65,9.75,9.75,0,0,1-1.37-5.07,9.6,9.6,0,0,1,1.37-5.05,10,10,0,0,1,3.74-3.6,11,11,0,0,1,10.43,0Zm-9,2.1a7.71,7.71,0,0,0-2.79,2.74,7.5,7.5,0,0,0,0,7.62,7.64,7.64,0,0,0,2.79,2.77,7.36,7.36,0,0,0,3.81,1,7.21,7.21,0,0,0,3.78-1,7.61,7.61,0,0,0,2.75-2.77,7.63,7.63,0,0,0,0-7.62,7.68,7.68,0,0,0-2.75-2.74,7.38,7.38,0,0,0-3.78-1A7.54,7.54,0,0,0,412.42,140.57Z"/><path class="cls-1" d="M434.19,153.2a5.53,5.53,0,0,0,4.14,1.53,5.45,5.45,0,0,0,4.1-1.53,5.86,5.86,0,0,0,1.49-4.26V137.31h2.7v11.63a8.13,8.13,0,0,1-2.21,6,8.24,8.24,0,0,1-6.08,2.19,8.34,8.34,0,0,1-6.12-2.19,8.09,8.09,0,0,1-2.22-6V137.31h2.7v11.63A5.83,5.83,0,0,0,434.19,153.2Z"/><path class="cls-1" d="M449.29,137.31h15.36v2.48H458.3V157h-2.7V139.79h-6.31Z"/><path class="cls-1" d="M488.9,138.47a10,10,0,0,1,3.75,3.6,9.69,9.69,0,0,1,1.37,5.05,9.84,9.84,0,0,1-1.37,5.07,10,10,0,0,1-3.75,3.65,10.87,10.87,0,0,1-10.42,0,10,10,0,0,1-3.75-3.65,9.75,9.75,0,0,1-1.38-5.07,9.61,9.61,0,0,1,1.38-5.05,10,10,0,0,1,3.73-3.6,11,11,0,0,1,10.44,0Zm-9,2.1a7.71,7.71,0,0,0-2.79,2.74,7.5,7.5,0,0,0,0,7.62,7.64,7.64,0,0,0,2.79,2.77,7.36,7.36,0,0,0,3.81,1,7.2,7.2,0,0,0,3.77-1,7.64,7.64,0,0,0,2.76-2.77,7.63,7.63,0,0,0,0-7.62,7.71,7.71,0,0,0-2.76-2.74,7.37,7.37,0,0,0-3.77-1A7.54,7.54,0,0,0,479.91,140.57Z"/><path class="cls-1" d="M497.9,137.31h12.8l0,2.45H500.59v6.46h9.08v2.44h-9.08V157H497.9Z"/><path class="cls-1" d="M518.68,137.31H534v2.48H527.7V157H525V139.79h-6.32Z"/><path class="cls-1" d="M537.13,137.31h2.7v8.77h11.23v-8.77h2.72V157h-2.72v-8.45H539.83V157h-2.7Z"/><path class="cls-1" d="M559.4,137.31h13.65v2.45H562.1v6.06h9.8v2.45h-9.8v6.26h11.29V157h-14Z"/><path class="cls-1" d="M598.23,138.62a4.27,4.27,0,0,1,1.73,3.61,4.35,4.35,0,0,1-1,2.85,4.64,4.64,0,0,1-2.61,1.56,5,5,0,0,1,3.21,1.64,4.87,4.87,0,0,1,1.17,3.33,4.63,4.63,0,0,1-1.9,3.94,8.53,8.53,0,0,1-5.23,1.42H585.1V137.31h8.4A7.68,7.68,0,0,1,598.23,138.62Zm-2.05,6.26a2.63,2.63,0,0,0,1-2.2,2.55,2.55,0,0,0-1-2.16,4.44,4.44,0,0,0-2.82-.73H587.8v5.87h5.56A4.5,4.5,0,0,0,596.18,144.88Zm.6,8.79a2.74,2.74,0,0,0,1.24-2.4,2.66,2.66,0,0,0-1.24-2.33,6,6,0,0,0-3.42-.84H587.8v6.4h5.56A5.78,5.78,0,0,0,596.78,153.67Z"/><path class="cls-1" d="M618.9,138.47a10,10,0,0,1,3.75,3.6,9.69,9.69,0,0,1,1.37,5.05,9.84,9.84,0,0,1-1.37,5.07,10,10,0,0,1-3.75,3.65,10.87,10.87,0,0,1-10.42,0,10,10,0,0,1-3.75-3.65,9.75,9.75,0,0,1-1.38-5.07,9.61,9.61,0,0,1,1.38-5.05,10,10,0,0,1,3.74-3.6,11,11,0,0,1,10.43,0Zm-9,2.1a7.71,7.71,0,0,0-2.79,2.74,7.5,7.5,0,0,0,0,7.62,7.64,7.64,0,0,0,2.79,2.77,7.36,7.36,0,0,0,3.81,1,7.2,7.2,0,0,0,3.77-1,7.64,7.64,0,0,0,2.76-2.77,7.63,7.63,0,0,0,0-7.62,7.71,7.71,0,0,0-2.76-2.74,7.37,7.37,0,0,0-3.77-1A7.54,7.54,0,0,0,609.91,140.57Z"/><path class="cls-1" d="M626.13,137.31h3.15l5.16,7.34,5.2-7.34h3.17l-6.65,9.44L643.37,157h-3.23l-5.7-7.95L628.8,157h-3.18l7.19-10.11Z"/></g><g id="Stroke"><line class="cls-2" x1="700.5" y1="60" x2="700.5" y2="140"/></g><g id="people"><path class="cls-3" d="M877.75,43.38a1.35,1.35,0,0,0-1.91,0L859.56,59.61l-5.88-6.38a1.36,1.36,0,1,0-2,1.84l6.83,7.42a1.37,1.37,0,0,0,1,.44h0a1.37,1.37,0,0,0,1-.4L877.75,45.3A1.36,1.36,0,0,0,877.75,43.38Z"/><path class="cls-3" d="M877.43,55.1a1.36,1.36,0,0,0-1.36,1.36,15.29,15.29,0,1,1-15.29-15.29,1.36,1.36,0,1,0,0-2.71,18,18,0,1,0,18,18A1.35,1.35,0,0,0,877.43,55.1Z"/><path class="cls-3" d="M904,86.94a1.36,1.36,0,0,0-1.36,1.36A15.29,15.29,0,1,1,887.32,73a1.36,1.36,0,0,0,0-2.71,18,18,0,1,0,18,18A1.36,1.36,0,0,0,904,86.94Z"/><path class="cls-3" d="M848.4,75.22a1.36,1.36,0,0,0-1.92,0L830.21,91.45l-5.88-6.38a1.36,1.36,0,1,0-2,1.84l6.83,7.42a1.37,1.37,0,0,0,1,.44h0a1.37,1.37,0,0,0,1-.4L848.4,77.14A1.36,1.36,0,0,0,848.4,75.22Z"/><path class="cls-3" d="M848.08,86.94a1.36,1.36,0,0,0-1.36,1.36A15.29,15.29,0,1,1,831.43,73a1.36,1.36,0,1,0,0-2.71,18,18,0,1,0,18,18A1.35,1.35,0,0,0,848.08,86.94Z"/><path class="cls-3" d="M875.33,132.1l-7.22-3.22a1.4,1.4,0,0,1-.84-1.29v-2a10.57,10.57,0,0,0,4-8.26v-2.79a2.57,2.57,0,0,0,1.33-2.25V112A10.56,10.56,0,0,0,862,101.49h-2.65A10.56,10.56,0,0,0,848.83,112v2.46a2.61,2.61,0,0,0,1,2.09l.34.22v.54a10.57,10.57,0,0,0,4,8.26v2a1.4,1.4,0,0,1-.84,1.29l-7.22,3.22a6.56,6.56,0,0,0-3.9,6v16.49a1.25,1.25,0,0,0,2.49,0V138.09c0-.14,0-.29,0-.43L848,141a2.73,2.73,0,0,1,.81,1.94v11.65a1.24,1.24,0,0,0,2.48,0V142.93a5.2,5.2,0,0,0-1.53-3.7l-4-4a4.14,4.14,0,0,1,1.28-.89l7.1-3.16,5.27,5.27v18.1a1.25,1.25,0,0,0,2.49,0v-18.1l5.27-5.27,7.1,3.16a4.14,4.14,0,0,1,1.28.89l-4,4a5.2,5.2,0,0,0-1.53,3.7v11.65a1.24,1.24,0,0,0,2.48,0V142.93a2.73,2.73,0,0,1,.81-1.94l3.33-3.33c0,.14,0,.29,0,.43v16.49a1.25,1.25,0,0,0,2.49,0V138.09A6.56,6.56,0,0,0,875.33,132.1Zm-14.63,2.11-4.62-4.63a3.89,3.89,0,0,0,.55-2v-.51a10.54,10.54,0,0,0,8.15,0v.51a3.89,3.89,0,0,0,.55,2Zm0-8.79a8.08,8.08,0,0,1-8.06-8.07v-.55a7.29,7.29,0,0,0,2.26-1.47,1.24,1.24,0,0,0,.07-1.76,1.26,1.26,0,0,0-1.76-.07,4.31,4.31,0,0,1-1.84,1.1h0a.54.54,0,0,1,0-.11V112a8.07,8.07,0,0,1,8.07-8.06H862A8.07,8.07,0,0,1,870.1,112v.27a.09.09,0,0,1-.06.08c-7.45,1.47-11.18-1.3-12.44-2.56a1.24,1.24,0,0,0-1.76,1.76c3.86,3.86,9.5,3.93,12.93,3.52v2.24A8.08,8.08,0,0,1,860.7,125.42Z"/><path class="cls-3" d="M840.68,125.33v-2.66a9.22,9.22,0,0,0-4.23-7.74,5.18,5.18,0,0,0,.24-1.56,5.23,5.23,0,0,0-10.46,0,5.13,5.13,0,0,0,.24,1.56,9.22,9.22,0,0,0-4.23,7.74v2.66a9.23,9.23,0,0,0,4,7.59v2.73a1.41,1.41,0,0,1-.78,1.27l-4.31,2.15a5.2,5.2,0,0,0-2.89,4.68v10.83a1.25,1.25,0,0,0,2.49,0v-10.3l2,2a2.76,2.76,0,0,1,.8,1.94v6.33a1.25,1.25,0,0,0,2.49,0v-6.33a5.2,5.2,0,0,0-1.54-3.7l-2.82-2.82,0,0a3.13,3.13,0,0,1,.6-.4l4.3-2.15a4.9,4.9,0,0,0,.62-.38l3,3v12.78a1.24,1.24,0,1,0,2.48,0V141.8l3-3a4.9,4.9,0,0,0,.62.38l1.19.59a1.25,1.25,0,0,0,.55.14,1.25,1.25,0,0,0,.56-2.36l-1.19-.59a1.41,1.41,0,0,1-.78-1.27v-2.73A9.23,9.23,0,0,0,840.68,125.33Zm-9.22-14.71a2.75,2.75,0,0,1,2.74,2.75,2.7,2.7,0,0,1,0,.49,9.1,9.1,0,0,0-5.4,0,2.7,2.7,0,0,1,0-.49A2.75,2.75,0,0,1,831.46,110.62Zm0,5.32a6.74,6.74,0,0,1,6.73,6.73v.45a7.79,7.79,0,0,1-8.39-2.52,1.27,1.27,0,0,0-.91-.5,1.29,1.29,0,0,0-1,.36,8.18,8.18,0,0,1-3.19,2A6.74,6.74,0,0,1,831.46,115.94Zm0,23.58-2.87-2.87a4.15,4.15,0,0,0,.13-1v-1.52a9.15,9.15,0,0,0,5.48,0v1.52a4.15,4.15,0,0,0,.13,1Zm0-7.46a6.74,6.74,0,0,1-6.73-6.73v-.26a9.75,9.75,0,0,0,4-2,11.53,11.53,0,0,0,2.31,1.68,9.86,9.86,0,0,0,4.75,1.23,10.46,10.46,0,0,0,2.4-.29A6.73,6.73,0,0,1,831.46,132.06Z"/><path class="cls-3" d="M900.26,136.41l-7-3.48a1.41,1.41,0,0,1-.78-1.27V129.9a7.87,7.87,0,0,0,2.66-5.9v-1.41h.09a1.25,1.25,0,0,0,1.24-1.25v-2.66a7.9,7.9,0,0,0-7.89-7.89H886a7.9,7.9,0,0,0-7.89,7.89v2.66a1.25,1.25,0,0,0,1.24,1.25h.09V124a7.87,7.87,0,0,0,2.66,5.9v1.76a1.41,1.41,0,0,1-.78,1.27,1.24,1.24,0,0,0-.56,1.67,1.22,1.22,0,0,0,1.67.55,4.9,4.9,0,0,0,.62-.38l3,3v16.77a1.24,1.24,0,0,0,2.48,0V137.81l3.05-3a4.17,4.17,0,0,0,.61.38l6.74,3.37-2,2a5.25,5.25,0,0,0-1.53,3.7v10.32a1.25,1.25,0,0,0,2.49,0V144.26a2.72,2.72,0,0,1,.8-1.94l1.94-1.93a2.69,2.69,0,0,1,.09.7v13.49a1.25,1.25,0,0,0,2.49,0V141.09A5.19,5.19,0,0,0,900.26,136.41Zm-19.7-16.57v-1.16h0a5.41,5.41,0,0,1,5.4-5.4h2.66a5.41,5.41,0,0,1,5.4,5.4v1.39a19.15,19.15,0,0,1-8.7-2.42,1.25,1.25,0,0,0-1.57.15A8.06,8.06,0,0,1,880.56,119.84Zm6.73,15.7-2.87-2.88a4.09,4.09,0,0,0,.13-1v-.26a7.91,7.91,0,0,0,5.48,0v.26a4.09,4.09,0,0,0,.13,1Zm0-6.14a5.4,5.4,0,0,1-5.4-5.4v-2h0a10.94,10.94,0,0,0,2.92-1.78,22.32,22.32,0,0,0,7.88,2.24V124A5.4,5.4,0,0,1,887.29,129.4Z"/><path class="cls-3" d="M787.8,80.73H774.74a1.31,1.31,0,0,0,0,2.62H787.8a1.31,1.31,0,1,0,0-2.62Z"/><path class="cls-3" d="M797,80.73h-1.31a1.31,1.31,0,1,0,0,2.62H797a1.31,1.31,0,0,0,0-2.62Z"/><path class="cls-3" d="M782.89,143.43h-3.24a3.6,3.6,0,0,0-3.6,3.6v.64a3.6,3.6,0,0,0,3.6,3.6h3.24a3.61,3.61,0,0,0,3.61-3.6V147A3.61,3.61,0,0,0,782.89,143.43Zm1,4.24a1,1,0,0,1-1,1h-3.24a1,1,0,0,1-1-1V147a1,1,0,0,1,1-1h3.24a1,1,0,0,1,1,1Z"/><path class="cls-3" d="M798.76,76.81h-35a4.73,4.73,0,0,0-4.72,4.73v68.92a4.73,4.73,0,0,0,4.72,4.73h35a4.73,4.73,0,0,0,4.72-4.72V81.54A4.73,4.73,0,0,0,798.76,76.81Zm2.11,73.65a2.11,2.11,0,0,1-2.11,2.11h-35a2.11,2.11,0,0,1-2.11-2.1V81.54a2.11,2.11,0,0,1,2.11-2.11h35a2.11,2.11,0,0,1,2.11,2.11v68.92Z"/><path class="cls-3" d="M802.17,84.65h-41.8a1.31,1.31,0,0,0-1.3,1.31v54.86a1.3,1.3,0,0,0,1.3,1.3h41.8a1.31,1.31,0,0,0,1.31-1.3V86A1.31,1.31,0,0,0,802.17,84.65Zm-1.3,54.86H761.68V87.26h39.19Z"/><circle class="cls-3" cx="781.19" cy="66.71" r="2.63"/><path class="cls-3" d="M801.23,44.53a27.21,27.21,0,0,0-39.91,0,1.59,1.59,0,0,0,2.33,2.17,24,24,0,0,1,35.25,0,1.57,1.57,0,0,0,1.16.51,1.63,1.63,0,0,0,1.09-.43A1.59,1.59,0,0,0,801.23,44.53Z"/><path class="cls-3" d="M795.38,51.1a19.5,19.5,0,0,0-28.22,0,1.59,1.59,0,1,0,2.26,2.25,16.29,16.29,0,0,1,23.7,0,1.59,1.59,0,1,0,2.26-2.25Z"/><path class="cls-3" d="M789,57.7a11.5,11.5,0,0,0-7.75-3.33h-.12a11.5,11.5,0,0,0-7.75,3.33,1.58,1.58,0,0,0,0,2.25,1.59,1.59,0,0,0,2.25,0,8.33,8.33,0,0,1,5.51-2.4h.12a8.33,8.33,0,0,1,5.51,2.4A1.59,1.59,0,0,0,789,57.7Z"/><text class="cls-4" transform="translate(942.79 113.72)">People</text></g></svg>