<svg xmlns="http://www.w3.org/2000/svg" viewBox="0 0 1400 200"><defs><style>.cls-1{fill:#feb400;}.cls-2{fill:none;stroke:#5f5f60;stroke-miterlimit:10;}.cls-3{fill:#00abea;}</style></defs><title>HOOBS_x_broadlink</title><g id="HOOBS_LOGO" data-name="HOOBS LOGO"><path class="cls-1" d="M152.1,39.5H77.79A22.36,22.36,0,0,0,55.63,61.92v75.16A22.36,22.36,0,0,0,77.79,159.5H152.1a22.36,22.36,0,0,0,22.16-22.42V61.92A22.36,22.36,0,0,0,152.1,39.5Zm3,57.94a3.11,3.11,0,0,1-2.65,2.53,2.6,2.6,0,0,1-3.1-1.4c-1.22-3.28-3.9-5.27-6.23-7.51a8.46,8.46,0,0,1-2.91-7.15c.14-1.83,0-3.69,0-5.53h0c0-2.46,0-4.92,0-7.38,0-2.23-1.38-2.65-3.19-2.61s-3.9-.31-4,2.45c-.1,2.23,0,4.46-.08,6.69,0,.73.37,1.78-.35,2.14s-1.23-.67-1.74-1.16c-4.88-4.62-9.77-9.23-14.57-13.94-1.48-1.45-2.59-1.42-4,0q-15.85,16.1-31.81,32.1c-1.39,1.39-1.57,2.51,0,3.79.35.3.64.66,1,1,2.09,2.07,2.41,2,4.64-.06C93,95,99.53,88.09,106.27,81.43c1.41-1.39,2.91-2.7,4.35-4.06,2.71-2.57,5.82-2.66,8.51-.05,2.91,2.82,5.7,5.76,8.57,8.62,5.31,5.28,10.67,10.51,16,15.81,3.49,3.48,3.44,6.58,0,10.12-5.42,5.51-7.54,5.49-13,0-4.76-4.75-9.64-9.38-14.39-14.14-1.49-1.5-2.61-1.35-4,.1q-7.6,7.8-15.34,15.48c-1.35,1.33-1.35,2.43,0,3.68.5.47,1,.95,1.45,1.47,1.22,1.37,2.35,1.36,3.67,0,2.7-2.7,5.48-5.32,8.23-8s6-2.78,8.74-.2q4.59,4.32,9,8.83a5.89,5.89,0,0,1,0,8.48c-2,2.19-4.18,4.25-6.27,6.38a12.38,12.38,0,0,0-3.29,4.33,2.74,2.74,0,0,1-3.12,1.82,3,3,0,0,1-2.73-2.41,3.1,3.1,0,0,1,1.61-3.71c4.35-2.08,6.84-6.22,10.3-9.28a1.59,1.59,0,0,0,0-2.6c-2.75-2.76-5.49-5.53-8.25-8.28-1.11-1.12-2.13-.82-3.16.2-2.73,2.67-5.51,5.3-8.24,8s-5.82,2.83-8.75.39c-.76-.64-1.45-1.37-2.14-2.08-3.52-3.61-3.54-6.78,0-10.34q7.74-7.83,15.5-15.64c3.3-3.31,6.41-3.34,9.74-.08Q127,102,134.8,109.74c2.23,2.18,2.48,2.15,5.12-.54,2.23-2.28,2.26-2.62.05-4.83-7.74-7.72-15.51-15.4-23.22-23.15-1.31-1.32-2.34-1.41-3.65-.11-3.57,3.56-7.18,7.08-10.77,10.62q-7.11,7-14.23,14a5.85,5.85,0,0,1-8.58.2c-5.65-5.14-7-7.85-.5-14.2,10.21-9.89,20.08-20.14,30.09-30.24,3.58-3.6,6.67-3.61,10.25-.1,2.46,2.4,5,4.74,7.44,7.14,1,1,1.69,1.58,2.23-.45a5.07,5.07,0,0,1,4.41-3.82,22.64,22.64,0,0,1,2.72-.31c6.33-.17,8.55,2,8.57,8.43,0,3.85,0,7.69,0,11.54a4.59,4.59,0,0,0,1.57,3.87c2.46,2.13,4.24,5,7.44,6.32A2.8,2.8,0,0,1,155.13,97.44Z"/><path class="cls-1" d="M276.93,40.9v81.53H258.06V89H221v33.43H202.15V40.9H221V73h37V40.9Zm14.21,40.76c0-24.22,18.87-42.16,44.61-42.16s44.61,17.82,44.61,42.16-19,42.17-44.61,42.17S291.14,105.89,291.14,81.66Zm70.12,0c0-15.49-10.95-26.09-25.51-26.09s-25.51,10.6-25.51,26.09,10.95,26.1,25.51,26.1S361.26,97.15,361.26,81.66Zm28.19,0c0-24.22,18.87-42.16,44.61-42.16s44.61,17.82,44.61,42.16-19,42.17-44.61,42.17S389.45,105.89,389.45,81.66Zm70.12,0c0-15.49-10.95-26.09-25.51-26.09s-25.51,10.6-25.51,26.09,10.95,26.1,25.51,26.1S459.57,97.15,459.57,81.66Zm108.09,18.52c0,14.1-11.18,22.25-32.61,22.25H492.88V40.9h39.84c20.38,0,30.87,8.5,30.87,21.2A19.59,19.59,0,0,1,552.75,80C561.84,82.94,567.66,89.93,567.66,100.18Zm-56-45.07V74.33h18.75c9.2,0,14.21-3.27,14.21-9.67s-5-9.55-14.21-9.55Zm37,43.09c0-6.87-5.24-10.13-15-10.13h-22v20.15h22C543.44,108.22,548.68,105.19,548.68,98.2Zm26.9,16.19L582,100.18a47.94,47.94,0,0,0,26.91,8.51c11.18,0,15.72-3.73,15.72-8.74,0-15.26-47.4-4.77-47.4-35.06,0-13.86,11.18-25.39,34.36-25.39,10.25,0,20.73,2.45,28.3,7.22l-5.82,14.33a46.07,46.07,0,0,0-22.6-6.41C600.28,54.64,596,58.83,596,64c0,15,47.4,4.66,47.4,34.59,0,13.63-11.29,25.28-34.59,25.28C595.85,123.83,582.81,120,575.58,114.39Z"/><path class="cls-1" d="M201.05,137.31h2.7v8.77H215v-8.77h2.72V157H215v-8.45H203.75V157h-2.7Z"/><path class="cls-1" d="M237.12,138.47a9.83,9.83,0,0,1,3.75,3.6,9.61,9.61,0,0,1,1.38,5.05,9.75,9.75,0,0,1-1.38,5.07,9.89,9.89,0,0,1-3.75,3.65,10.87,10.87,0,0,1-10.42,0,10,10,0,0,1-3.75-3.65,9.84,9.84,0,0,1-1.37-5.07,9.69,9.69,0,0,1,1.37-5.05,10,10,0,0,1,3.74-3.6,11,11,0,0,1,10.43,0Zm-9,2.1a7.74,7.74,0,0,0-2.8,2.74,7.5,7.5,0,0,0,0,7.62,7.67,7.67,0,0,0,2.8,2.77,7.33,7.33,0,0,0,3.8,1,7.21,7.21,0,0,0,3.78-1,7.61,7.61,0,0,0,2.75-2.77,7.56,7.56,0,0,0,0-7.62,7.68,7.68,0,0,0-2.75-2.74,7.38,7.38,0,0,0-3.78-1A7.5,7.5,0,0,0,228.14,140.57Z"/><path class="cls-1" d="M246.12,137.31h3.21l7.19,13.82,7.13-13.82h3.23V157h-2.53l0-15.7-7,13.63h-1.66l-7-13.63V157h-2.5Z"/><path class="cls-1" d="M272.5,137.31h13.64v2.45H275.19v6.06H285v2.45h-9.8v6.26h11.29V157h-14Z"/><path class="cls-1" d="M304,138.62a4.27,4.27,0,0,1,1.73,3.61,4.39,4.39,0,0,1-.95,2.85,4.63,4.63,0,0,1-2.62,1.56,5.09,5.09,0,0,1,3.22,1.64,4.87,4.87,0,0,1,1.17,3.33,4.65,4.65,0,0,1-1.9,3.94,8.54,8.54,0,0,1-5.24,1.42h-8.54V137.31h8.4A7.68,7.68,0,0,1,304,138.62Zm-2,6.26a2.6,2.6,0,0,0,1-2.2,2.53,2.53,0,0,0-1-2.16,4.41,4.41,0,0,0-2.82-.73h-5.56v5.87h5.56A4.47,4.47,0,0,0,301.91,144.88Zm.61,8.79a2.76,2.76,0,0,0,1.23-2.4,2.67,2.67,0,0,0-1.23-2.33,6.06,6.06,0,0,0-3.43-.84h-5.56v6.4h5.56A5.83,5.83,0,0,0,302.52,153.67Z"/><path class="cls-1" d="M323.52,157l-3.9-6.17c-.45,0-.81,0-1.1,0h-5V157h-2.7V137.31h7.69A8.71,8.71,0,0,1,324.3,139a6.1,6.1,0,0,1,2,4.9,7,7,0,0,1-1.11,4,6.27,6.27,0,0,1-3.18,2.36l4.57,6.65Zm-5-8.56a6,6,0,0,0,3.88-1.11,4,4,0,0,0,1.35-3.27,3.84,3.84,0,0,0-1.35-3.19,6.08,6.08,0,0,0-3.88-1.08h-5v8.65Z"/><path class="cls-1" d="M331.13,137.31h2.7V157h-2.7Z"/><path class="cls-1" d="M352.63,138.59a9.36,9.36,0,0,1,3.64,3.53,10.19,10.19,0,0,1,0,10,9.51,9.51,0,0,1-3.67,3.53,10.67,10.67,0,0,1-5.22,1.27h-7.92V137.31h8A10.55,10.55,0,0,1,352.63,138.59Zm-1.4,15a7,7,0,0,0,2.64-2.64,7.34,7.34,0,0,0,1-3.76,7.43,7.43,0,0,0-1-3.79,7.13,7.13,0,0,0-2.69-2.65,7.43,7.43,0,0,0-3.77-1h-5.26v14.77h5.37A7.34,7.34,0,0,0,351.23,153.57Z"/><path class="cls-1" d="M374.41,147.37h2.39v7.22a12.08,12.08,0,0,1-3.48,1.88,11.82,11.82,0,0,1-4,.7,10.37,10.37,0,0,1-5.2-1.33,10,10,0,0,1-3.72-3.65,9.83,9.83,0,0,1-1.36-5.07,9.69,9.69,0,0,1,1.37-5.05,10,10,0,0,1,3.77-3.6,10.72,10.72,0,0,1,5.28-1.32,11.27,11.27,0,0,1,4,.73,10.6,10.6,0,0,1,3.38,2l-1.54,2a8.73,8.73,0,0,0-5.84-2.31,7.72,7.72,0,0,0-3.88,1,7.54,7.54,0,0,0-2.79,2.76,7.32,7.32,0,0,0-1,3.82,7.42,7.42,0,0,0,1,3.83,7.7,7.7,0,0,0,6.69,3.8,8.27,8.27,0,0,0,2.51-.4,9.26,9.26,0,0,0,2.37-1.14Z"/><path class="cls-1" d="M381.91,137.31h13.65v2.45H384.61v6.06h9.8v2.45h-9.8v6.26H395.9V157h-14Z"/><path class="cls-1" d="M421.41,138.47a10,10,0,0,1,3.75,3.6,9.61,9.61,0,0,1,1.38,5.05,9.75,9.75,0,0,1-1.38,5.07,10,10,0,0,1-3.75,3.65,10.87,10.87,0,0,1-10.42,0,10,10,0,0,1-3.75-3.65,9.75,9.75,0,0,1-1.37-5.07,9.6,9.6,0,0,1,1.37-5.05,10,10,0,0,1,3.74-3.6,11,11,0,0,1,10.43,0Zm-9,2.1a7.71,7.71,0,0,0-2.79,2.74,7.5,7.5,0,0,0,0,7.62,7.64,7.64,0,0,0,2.79,2.77,7.36,7.36,0,0,0,3.81,1,7.21,7.21,0,0,0,3.78-1,7.61,7.61,0,0,0,2.75-2.77,7.63,7.63,0,0,0,0-7.62,7.68,7.68,0,0,0-2.75-2.74,7.38,7.38,0,0,0-3.78-1A7.54,7.54,0,0,0,412.42,140.57Z"/><path class="cls-1" d="M434.19,153.2a5.53,5.53,0,0,0,4.14,1.53,5.45,5.45,0,0,0,4.1-1.53,5.86,5.86,0,0,0,1.49-4.26V137.31h2.7v11.63a8.13,8.13,0,0,1-2.21,6,8.24,8.24,0,0,1-6.08,2.19,8.34,8.34,0,0,1-6.12-2.19,8.09,8.09,0,0,1-2.22-6V137.31h2.7v11.63A5.83,5.83,0,0,0,434.19,153.2Z"/><path class="cls-1" d="M449.29,137.31h15.36v2.48H458.3V157h-2.7V139.79h-6.31Z"/><path class="cls-1" d="M488.9,138.47a10,10,0,0,1,3.75,3.6,9.69,9.69,0,0,1,1.37,5.05,9.84,9.84,0,0,1-1.37,5.07,10,10,0,0,1-3.75,3.65,10.87,10.87,0,0,1-10.42,0,10,10,0,0,1-3.75-3.65,9.75,9.75,0,0,1-1.38-5.07,9.61,9.61,0,0,1,1.38-5.05,10,10,0,0,1,3.73-3.6,11,11,0,0,1,10.44,0Zm-9,2.1a7.71,7.71,0,0,0-2.79,2.74,7.5,7.5,0,0,0,0,7.62,7.64,7.64,0,0,0,2.79,2.77,7.36,7.36,0,0,0,3.81,1,7.2,7.2,0,0,0,3.77-1,7.64,7.64,0,0,0,2.76-2.77,7.63,7.63,0,0,0,0-7.62,7.71,7.71,0,0,0-2.76-2.74,7.37,7.37,0,0,0-3.77-1A7.54,7.54,0,0,0,479.91,140.57Z"/><path class="cls-1" d="M497.9,137.31h12.8l0,2.45H500.59v6.46h9.08v2.44h-9.08V157H497.9Z"/><path class="cls-1" d="M518.68,137.31H534v2.48H527.7V157H525V139.79h-6.32Z"/><path class="cls-1" d="M537.13,137.31h2.7v8.77h11.23v-8.77h2.72V157h-2.72v-8.45H539.83V157h-2.7Z"/><path class="cls-1" d="M559.4,137.31h13.65v2.45H562.1v6.06h9.8v2.45h-9.8v6.26h11.29V157h-14Z"/><path class="cls-1" d="M598.23,138.62a4.27,4.27,0,0,1,1.73,3.61,4.35,4.35,0,0,1-1,2.85,4.64,4.64,0,0,1-2.61,1.56,5,5,0,0,1,3.21,1.64,4.87,4.87,0,0,1,1.17,3.33,4.63,4.63,0,0,1-1.9,3.94,8.53,8.53,0,0,1-5.23,1.42H585.1V137.31h8.4A7.68,7.68,0,0,1,598.23,138.62Zm-2.05,6.26a2.63,2.63,0,0,0,1-2.2,2.55,2.55,0,0,0-1-2.16,4.44,4.44,0,0,0-2.82-.73H587.8v5.87h5.56A4.5,4.5,0,0,0,596.18,144.88Zm.6,8.79a2.74,2.74,0,0,0,1.24-2.4,2.66,2.66,0,0,0-1.24-2.33,6,6,0,0,0-3.42-.84H587.8v6.4h5.56A5.78,5.78,0,0,0,596.78,153.67Z"/><path class="cls-1" d="M618.9,138.47a10,10,0,0,1,3.75,3.6,9.69,9.69,0,0,1,1.37,5.05,9.84,9.84,0,0,1-1.37,5.07,10,10,0,0,1-3.75,3.65,10.87,10.87,0,0,1-10.42,0,10,10,0,0,1-3.75-3.65,9.75,9.75,0,0,1-1.38-5.07,9.61,9.61,0,0,1,1.38-5.05,10,10,0,0,1,3.74-3.6,11,11,0,0,1,10.43,0Zm-9,2.1a7.71,7.71,0,0,0-2.79,2.74,7.5,7.5,0,0,0,0,7.62,7.64,7.64,0,0,0,2.79,2.77,7.36,7.36,0,0,0,3.81,1,7.2,7.2,0,0,0,3.77-1,7.64,7.64,0,0,0,2.76-2.77,7.63,7.63,0,0,0,0-7.62,7.71,7.71,0,0,0-2.76-2.74,7.37,7.37,0,0,0-3.77-1A7.54,7.54,0,0,0,609.91,140.57Z"/><path class="cls-1" d="M626.13,137.31h3.15l5.16,7.34,5.2-7.34h3.17l-6.65,9.44L643.37,157h-3.23l-5.7-7.95L628.8,157h-3.18l7.19-10.11Z"/></g><g id="Stroke"><line class="cls-2" x1="700.5" y1="60" x2="700.5" y2="140"/></g><g id="broadlink"><path class="cls-3" d="M1207.91,132.81c-4.43,5.56-8.31,10.46-12.22,15.32-1.75,2.17-14.62,3.89-16.61,2.29-1.09-.88-.59-2-.48-3.06,2.48-23.27,5.05-46.53,7.48-69.8.26-2.44,1.31-2.91,3.52-3.06,12.09-.84,12.17-.89,10.93,10.91-1.71,16.45-3.57,32.88-5.55,51.07l12.85-16.2c4.6-5.78,9.58-11.3,13.67-17.42,3.39-5.06,7.44-6.69,14-5-4.72,6.05-9.09,12.05-13.9,17.67-2.36,2.76-2.62,5-1.24,8.31,3.56,8.65,6.6,17.51,10.08,26.93-4.8,0-9-.13-13.19.05-2.48.11-3.09-1.39-3.75-3.2C1211.76,143,1210,138.31,1207.91,132.81Z"/><path class="cls-3" d="M1163.73,150.77c-2.36,0-3.85-.08-5.33,0-2.39.15-3.15-.59-2.83-3.19,1.33-10.6,2.3-21.25,3.56-31.87,1-8.82-.29-10.45-9.1-10.46a41.27,41.27,0,0,1-4.45,0c-2.74-.29-3.81.62-4.09,3.56-1.18,12.47-2.81,24.91-4,37.39-.31,3.4-1.12,4.71-4.84,4.69-10.72-.05-10.86.12-9.84-10.35,1.26-13,2.92-26,4.11-39,.3-3.31,1.3-4.35,4.66-4.28,10,.21,20,0,30,.09,9.55.09,13.95,4.79,13.11,14.31-.94,10.65-2.51,21.25-3.22,31.91C1171.13,149.52,1169.25,152.49,1163.73,150.77Z"/><path class="cls-3" d="M1075,150.77h-8.87c-15.15-.06-24.54-10.14-23.16-25.15,1-11,2.29-22,3.48-32.92.43-4,1.33-8,1.29-12.06-.06-5.51,2.52-6.51,7.47-6.25,8.19.42,8.33.12,7.52,8.44-1.41,14.28-3,28.54-4.45,42.81a35,35,0,0,0,.19,8.8c1,6.71,3.53,8.66,10.38,8.67q9.7,0,19.42,0c1.91,0,3.91-.16,3.44,2.76-.36,2.16.6,5.08-3.39,4.93C1083.92,150.64,1079.48,150.77,1075,150.77Z"/><path class="cls-3" d="M846.11,97.27c5.18,0,10.35,0,15.52,0,2,0,3.81.16,3.3,2.92-.39,2.13.68,5.18-3.27,5.08-2.58-.06-5.17,0-7.76,0-9.23,0-13.49,3.69-14.57,12.85-1.13,9.49-2.3,19-3.06,28.51-.27,3.38-1.37,4.23-4.66,4.23-9.75,0-9.89.14-8.93-9.57,1.31-13.35,3-26.66,4.18-40,.32-3.61,1.8-4.15,4.84-4C836.5,97.41,841.31,97.27,846.11,97.27Z"/><path class="cls-3" d="M1106.5,150.77a33.47,33.47,0,0,0-3.88,0c-3,.35-3.67-.75-3.33-3.72,1.75-15.35,3.32-30.73,4.8-46.11.27-2.81,1.35-3.64,4.13-3.76,11.4-.47,11.44-.56,10.35,10.45-1.17,11.9-2.44,23.8-3.66,35.69C1114.16,150.77,1114.17,150.77,1106.5,150.77Z"/><path class="cls-3" d="M924.44,95.61a15.29,15.29,0,0,1-15.29-15.53A15.47,15.47,0,0,1,925,64.41,15.76,15.76,0,0,1,940.37,80,15.58,15.58,0,0,1,924.44,95.61Z"/><path class="cls-3" d="M968.26,42.2a13.16,13.16,0,0,1,13.07,12.93A13.08,13.08,0,1,1,968.26,42.2Z"/><path class="cls-3" d="M1009.05,52.09A10.74,10.74,0,0,1,998.5,41.56a10.54,10.54,0,0,1,10.13-10.31,10.4,10.4,0,0,1,10.77,10.16A10.6,10.6,0,0,1,1009.05,52.09Z"/><path class="cls-3" d="M1044.4,31.35a8.55,8.55,0,0,1,8.52,8.29,8.38,8.38,0,0,1-16.76.29A8.58,8.58,0,0,1,1044.4,31.35Z"/><path class="cls-3" d="M1121.57,80.37c-.17,5.13-4.61,9.33-9.24,9-3.84-.28-6.13-2.33-6.08-6.39,0-4.58,4.41-8.6,9.21-8.39C1119.45,74.75,1121.48,76.92,1121.57,80.37Z"/><path class="cls-3" d="M1074.4,40.9c3.68.27,6,2.13,6.11,5.81.09,4-2.39,6.29-6.2,6.21a5.59,5.59,0,0,1-5.83-6.06C1068.52,43.18,1070.78,41.27,1074.4,40.9Z"/><path class="cls-3" d="M1094.23,55.4c3.17.12,5,1.52,5.18,4.27a4.2,4.2,0,0,1-4.26,4.74c-2.78.18-4.52-1.41-4.72-4.22S1091.93,55.9,1094.23,55.4Z"/><path class="cls-3" d="M816.86,123c-.74-8-5.53-13.42-12.86-16.65-.64-.28-1.25-.63-2.6-1.32,7.82-2.61,14-5.81,14.76-14.16.72-8-4.11-13.57-13.54-15.23-12.29-2.17-24.75-.68-37.13-1.1-2.24-.07-2.69,1.15-2.89,3.08q-3.69,34.89-7.55,69.75c-.31,2.77.5,3.55,3.2,3.48,7.59-.19,15.21.19,22.76-.32,9.26-.63,18.43-2.13,26.34-7.57C814.36,138.11,817.63,131.23,816.86,123ZM775.27,102.2c.53-3.81.82-7.65,1.32-11.47,1-7.9,1.08-7.9,9-7.8,1.66,0,3.32-.09,5,0,4.51.3,8.58,1.62,9.69,6.57s-.68,9.11-5,11.92c-5.5,3.61-11.8,3.8-18.1,3.76C775,105.17,775,103.88,775.27,102.2Zm20.1,36.05c-5.06,3.92-11,5-17.27,4.87-7.13,0-7.17,0-6.43-7.15.65-6.41,1.55-12.81,2-19.23.2-2.86,1.22-3.84,4-3.7,4.24.21,8.5,0,12.68,1.1,5.37,1.44,9.66,4.15,10.61,10A14.16,14.16,0,0,1,795.37,138.25Z"/><path class="cls-3" d="M1029.14,74.47c-10.93-.22-10.92-.35-12.13,10.75-.22,2-.83,4-.7,6,.31,4.72-1.44,6.14-6.36,6.18-17.18.13-28.82,11.42-30.05,28.39-.68,9.44,4.5,18.87,12.72,22.78,6.7,3.19,13.1,4.24,18.14-4.88-3.48,8.57,1.87,7,5.66,7a22.79,22.79,0,0,1,3.88.05c4.35.86,5.26-1.56,5.6-5.15,1-10.27,2.16-20.51,3.24-30.77,1.27-12.09,2.43-24.19,3.81-36.26C1033.31,75.43,1032.36,74.54,1029.14,74.47Zm-15.22,37.9q-.92,11.84-2.43,23.64c-.32,2.44,1,6.19-2.62,6.91-4.22.86-8.59.54-11.37-3.74-2.5-3.84-3.31-8.14-3.53-12.66a31.17,31.17,0,0,1,4.31-14.65,13.88,13.88,0,0,1,5.92-5.66c3.17-1.48,6.86-1.8,9.67-.43C1016.07,106.85,1014.1,110.13,1013.92,112.37Z"/><path class="cls-3" d="M962.47,97.3c-7.35.06-14.75-.72-21.89,2.23-18.65,7.72-24.93,31.92-11.56,45.05,7.81,7.68,17.12,8.16,24.41,1.27.89,4.91.89,4.91,6.38,4.92a19.3,19.3,0,0,1,3.88,0c5,1,6.17-1.55,6.55-5.9,1-11.91,2.52-23.78,3.63-35.69S974.86,97.2,962.47,97.3Zm-4.19,13.62C957,120.59,956,130.29,955.09,140c-.22,2.34-1.12,3-3.4,3.18-8.83.65-13.26-2.26-15.16-10.83-1.76-8,.07-15.34,4.88-21.92a11.63,11.63,0,0,1,11.68-5.07C958,104.08,958.85,106.49,958.28,110.92Z"/><path class="cls-3" d="M891.81,97.37c-17,.13-29.62,13-29.45,30,.14,13.82,9.42,23.44,22.57,23.41,16.62-.05,29.51-13.18,29.56-30.13C914.54,107,905,97.27,891.81,97.37Zm4.86,39.85c-2.77,4.13-6.63,6.53-11.77,5.67-4.86-.81-6.93-4.43-8-8.82a30.09,30.09,0,0,1,2.25-21c3-6.12,7.76-8.81,13.25-7.8,4.62.84,7.56,5,8.26,11.73.15,1.47.2,2.94.21,3.07C900.92,127.09,899.85,132.47,896.67,137.22Z"/></g></svg>