<?xml version="1.0"?>
<svg xmlns="http://www.w3.org/2000/svg" xmlns:xlink="http://www.w3.org/1999/xlink" version="1.1" id="Capa_1" x="0px" y="0px" viewBox="0 0 496 496" style="enable-background:new 0 0 496 496;" xml:space="preserve" width="512px" height="512px" class=""><g><g>
	<g>
		<g>
			<path d="M447.82,390.192c-5.376-32.232-27.976-58.68-58.976-69.016l-68.84-22.944V288h-16v21.768l20.28,6.76l-24.064,42.776     L259.684,312h-23.36l-40.536,47.304l-24.064-42.776l20.28-6.76V288h-16v10.232l-68.832,22.944     c-31,10.336-53.6,36.784-58.976,69.016L30.556,496h434.888L447.82,390.192z M243.684,328h8.64l39.552,46.136l-27,48     c-3.416,6.08-9.888,9.864-16.872,9.864s-13.456-3.784-16.872-9.864l-27-47.992L243.684,328z M156.268,321.68l60.912,108.296     c6.256,11.12,18.064,18.024,30.824,18.024s24.568-6.904,30.816-18.024l60.92-108.304l15.464,5.152l-62.44,110.992     c-9.08,16.152-26.232,26.184-44.76,26.184s-35.688-10.032-44.768-26.184l-62.424-110.984L156.268,321.68z M112.044,407.2     l-7.28,72.8H49.452l14.52-87.176c4.4-26.368,22.888-48.008,48.256-56.472l13.12-4.376l63.936,113.68     c11.834,21.046,34.124,34.166,58.247,34.336H120.844l7.12-71.2L112.044,407.2z M391.244,480l-7.28-72.8l-15.92,1.592l7.12,71.2     H248.477c24.122-0.17,46.412-13.29,58.231-34.328l63.952-113.688l13.12,4.376c25.368,8.464,43.856,30.104,48.256,56.472     L446.556,480H391.244z" data-original="#000000" class="active-path" data-old_color="#000000" fill="#FEB400"/>
			<path d="M147.54,215.552c4.08,14.04,11.616,26.912,22.24,37.536l31.192,31.192c7.552,7.552,17.6,11.72,28.288,11.72h37.488     c10.688,0,20.736-4.168,28.288-11.72l31.192-31.192c10.624-10.624,18.152-23.504,22.24-37.536     c19.936-2.256,35.536-19.024,35.536-39.552c0-13.128-6.448-24.704-16.248-32h0.248v-24c0-66.168-53.832-120-120-120     s-120,53.832-120,120v24h0.248c-9.8,7.296-16.248,18.872-16.248,32C112.004,196.528,127.604,213.296,147.54,215.552z      M224.004,152v24c0,4.408-3.584,8-8,8h-48c-4.416,0-8-3.592-8-8v-24H224.004z M210.564,136     c14.168-8.224,26.736-19.256,36.496-32.92l0.944-1.32l0.944,1.32c9.76,13.664,22.328,24.696,36.496,32.92h-21.44h-8h-16h-8     H210.564z M314.916,241.776l-31.192,31.192c-4.536,4.536-10.56,7.032-16.976,7.032H229.26c-6.416,0-12.448-2.496-16.976-7.032     l-31.192-31.192c-11.736-11.744-18.896-26.832-20.64-43.112c2.384,0.8,4.896,1.336,7.552,1.336h48c13.232,0,24-10.768,24-24v-24     h16v24c0,13.232,10.768,24,24,24h48c2.656,0,5.168-0.536,7.552-1.336C333.812,214.944,326.652,230.032,314.916,241.776z      M336.004,176c0,4.408-3.584,8-8,8h-48c-4.416,0-8-3.592-8-8v-24h64V176z M368.004,176c0,10.552-6.896,19.44-16.376,22.64     c0.224-2.568,0.376-5.16,0.376-7.776V176v-22.528C361.292,156.784,368.004,165.584,368.004,176z M144.004,120     c0-57.344,46.656-104,104-104s104,46.656,104,104v16h-8c-32.496,0-63.16-15.784-82.04-42.224l-13.96-19.536l-13.96,19.536     C215.164,120.216,184.5,136,152.004,136h-8V120z M144.004,153.472V176v14.864c0,2.616,0.152,5.208,0.376,7.784     c-9.48-3.208-16.376-12.096-16.376-22.648C128.004,165.584,134.716,156.784,144.004,153.472z" data-original="#000000" class="active-path" data-old_color="#000000" fill="#FEB400"/>
		</g>
	</g>
</g></g> </svg>
