<?xml version="1.0" encoding="utf-8"?>
<!-- Generator: Adobe Illustrator 24.0.1, SVG Export Plug-In . SVG Version: 6.00 Build 0)  -->
<svg version="1.1" id="Ebene_1" xmlns="http://www.w3.org/2000/svg" xmlns:xlink="http://www.w3.org/1999/xlink" x="0px" y="0px"
	 viewBox="0 0 1400 200" style="enable-background:new 0 0 1400 200;" xml:space="preserve">
<style type="text/css">
	.st0{fill:#FEB400;}
	.st1{fill:none;stroke:#5F5F60;stroke-miterlimit:10;}
	.st2{fill:#E5E5E5;}
	.st3{fill:#FEFEFE;}
	.st4{fill:#F4C081;}
	.st5{fill:#ED953A;}
	.st6{fill:#F4AE47;}
	.st7{fill:#F6BF5C;}
	.st8{fill:#F8D274;}
	.st9{fill:#FBE58D;}
	.st10{font-family:'MyriadPro-Regular';}
	.st11{font-size:94.0784px;}
</style>
<title>HOOBS_x_alexa</title>
<g id="HOOBS_LOGO">
	<path class="st0" d="M152.1,39.5H77.8c-12.3,0.1-22.2,10.1-22.2,22.4v75.2c0,12.3,9.9,22.3,22.2,22.4h74.3
		c12.3-0.1,22.2-10.1,22.2-22.4V61.9C174.3,49.6,164.4,39.6,152.1,39.5z M155.1,97.4c-0.2,1.3-1.3,2.4-2.6,2.5
		c-1.2,0.4-2.6-0.2-3.1-1.4c-1.2-3.3-3.9-5.3-6.2-7.5c-2.1-1.8-3.1-4.4-2.9-7.2c0.1-1.8,0-3.7,0-5.5l0,0c0-2.5,0-4.9,0-7.4
		c0-2.2-1.4-2.7-3.2-2.6s-3.9-0.3-4,2.4c-0.1,2.2,0,4.5-0.1,6.7c0,0.7,0.4,1.8-0.4,2.1s-1.2-0.7-1.7-1.2c-4.9-4.6-9.8-9.2-14.6-13.9
		c-1.5-1.5-2.6-1.4-4,0C101.7,75.3,91.1,86,80.5,96.7c-1.4,1.4-1.6,2.5,0,3.8c0.3,0.3,0.6,0.7,1,1c2.1,2.1,2.4,2,4.6-0.1
		c6.9-6.4,13.4-13.3,20.2-20c1.4-1.4,2.9-2.7,4.3-4.1c2.7-2.6,5.8-2.7,8.5-0.1c2.9,2.8,5.7,5.8,8.6,8.6c5.3,5.3,10.7,10.5,16,15.8
		c3.5,3.5,3.4,6.6,0,10.1c-5.4,5.5-7.5,5.5-13,0c-4.8-4.8-9.6-9.4-14.4-14.1c-1.5-1.5-2.6-1.3-4,0.1c-5.1,5.2-10.2,10.4-15.3,15.5
		c-1.3,1.3-1.3,2.4,0,3.7c0.5,0.5,1,0.9,1.4,1.5c1.2,1.4,2.3,1.4,3.7,0c2.7-2.7,5.5-5.3,8.2-8s6-2.8,8.7-0.2c3.1,2.9,6.1,5.8,9,8.8
		c2.3,2.3,2.4,6,0.2,8.3c0,0.1-0.1,0.1-0.2,0.2c-2,2.2-4.2,4.2-6.3,6.4c-1.4,1.2-2.5,2.7-3.3,4.3c-0.4,1.3-1.8,2.1-3.1,1.8
		c-1.3-0.1-2.5-1.1-2.7-2.4c-0.5-1.5,0.2-3,1.6-3.7c4.3-2.1,6.8-6.2,10.3-9.3c0.7-0.5,0.9-1.5,0.4-2.2c-0.1-0.1-0.2-0.3-0.4-0.4
		c-2.8-2.8-5.5-5.5-8.2-8.3c-1.1-1.1-2.1-0.8-3.2,0.2c-2.7,2.7-5.5,5.3-8.2,8s-5.8,2.8-8.8,0.4c-0.8-0.6-1.4-1.4-2.1-2.1
		c-3.5-3.6-3.5-6.8,0-10.3c5.2-5.2,10.3-10.4,15.5-15.6c3.3-3.3,6.4-3.3,9.7-0.1c5.2,5.2,10.3,10.3,15.5,15.5
		c2.2,2.2,2.5,2.2,5.1-0.5c2.2-2.3,2.3-2.6,0.1-4.8c-7.7-7.7-15.5-15.4-23.2-23.2c-1.3-1.3-2.3-1.4-3.7-0.1
		c-3.6,3.6-7.2,7.1-10.8,10.6c-4.7,4.7-9.5,9.3-14.2,14c-2.1,2.4-5.8,2.6-8.3,0.5c-0.1-0.1-0.2-0.2-0.3-0.3c-5.7-5.1-7-7.8-0.5-14.2
		c10.2-9.9,20.1-20.1,30.1-30.2c3.6-3.6,6.7-3.6,10.2-0.1c2.5,2.4,5,4.7,7.4,7.1c1,1,1.7,1.6,2.2-0.4c0.5-2.1,2.3-3.6,4.4-3.8
		c0.9-0.2,1.8-0.3,2.7-0.3c6.3-0.2,8.6,2,8.6,8.4c0,3.8,0,7.7,0,11.5c-0.1,1.5,0.5,2.9,1.6,3.9c2.5,2.1,4.2,5,7.4,6.3
		C155,94.7,155.5,96.1,155.1,97.4L155.1,97.4z"/>
	<path class="st0" d="M276.9,40.9v81.5h-18.9V89H221v33.4h-18.9V40.9H221V73h37V40.9H276.9z M291.1,81.7c0-24.2,18.9-42.2,44.6-42.2
		s44.6,17.8,44.6,42.2s-19,42.2-44.6,42.2S291.1,105.9,291.1,81.7L291.1,81.7z M361.3,81.7c0-15.5-11-26.1-25.5-26.1
		s-25.5,10.6-25.5,26.1s11,26.1,25.5,26.1S361.3,97.2,361.3,81.7L361.3,81.7z M389.4,81.7c0-24.2,18.9-42.2,44.6-42.2
		s44.6,17.8,44.6,42.2s-19,42.2-44.6,42.2S389.5,105.9,389.4,81.7L389.4,81.7z M459.6,81.7c0-15.5-11-26.1-25.5-26.1
		s-25.5,10.6-25.5,26.1s11,26.1,25.5,26.1S459.6,97.2,459.6,81.7L459.6,81.7z M567.7,100.2c0,14.1-11.2,22.2-32.6,22.2h-42.2V40.9
		h39.8c20.4,0,30.9,8.5,30.9,21.2c0.1,7.6-4.1,14.5-10.8,17.9C561.8,82.9,567.7,89.9,567.7,100.2z M511.7,55.1v19.2h18.8
		c9.2,0,14.2-3.3,14.2-9.7s-5-9.5-14.2-9.5L511.7,55.1z M548.7,98.2c0-6.9-5.2-10.1-15-10.1h-22v20.2h22
		C543.4,108.2,548.7,105.2,548.7,98.2L548.7,98.2z M575.6,114.4l6.4-14.2c7.9,5.5,17.3,8.4,26.9,8.5c11.2,0,15.7-3.7,15.7-8.7
		c0-15.3-47.4-4.8-47.4-35.1c0-13.9,11.2-25.4,34.4-25.4c10.2,0,20.7,2.5,28.3,7.2l-5.8,14.3c-6.9-4.1-14.6-6.3-22.6-6.4
		c-11.2,0-15.5,4.2-15.5,9.4c0,15,47.4,4.7,47.4,34.6c0,13.6-11.3,25.3-34.6,25.3C595.8,123.8,582.8,120,575.6,114.4L575.6,114.4z"
		/>
	<path class="st0" d="M201.1,137.3h2.7v8.8H215v-8.8h2.7V157H215v-8.4h-11.2v8.4h-2.7V137.3z"/>
	<path class="st0" d="M237.1,138.5c1.6,0.8,2.8,2.1,3.8,3.6c0.9,1.5,1.4,3.3,1.4,5.1c0,1.8-0.5,3.5-1.4,5.1
		c-0.9,1.5-2.2,2.8-3.8,3.6c-3.2,1.8-7.2,1.8-10.4,0c-1.6-0.9-2.8-2.1-3.8-3.6c-0.9-1.5-1.4-3.3-1.4-5.1c0-1.8,0.5-3.5,1.4-5.1
		c0.9-1.5,2.2-2.8,3.7-3.6C229.9,136.7,233.9,136.7,237.1,138.5z M228.1,140.6c-1.2,0.7-2.1,1.6-2.8,2.7c-1.4,2.4-1.4,5.3,0,7.6
		c0.7,1.2,1.6,2.1,2.8,2.8c1.2,0.7,2.5,1,3.8,1c1.3,0,2.6-0.3,3.8-1c1.1-0.7,2.1-1.6,2.8-2.8c1.4-2.4,1.4-5.3,0-7.6
		c-0.7-1.1-1.6-2.1-2.8-2.7c-1.1-0.7-2.5-1-3.8-1C230.6,139.6,229.3,139.9,228.1,140.6L228.1,140.6z"/>
	<path class="st0" d="M246.1,137.3h3.2l7.2,13.8l7.1-13.8h3.2V157h-2.5v-15.7l-7,13.6h-1.7l-7-13.6V157h-2.5L246.1,137.3z"/>
	<path class="st0" d="M272.5,137.3h13.6v2.4h-11v6.1h9.8v2.4h-9.8v6.3h11.3v2.5h-14L272.5,137.3z"/>
	<path class="st0" d="M304,138.6c1.1,0.8,1.8,2.2,1.7,3.6c0,1-0.3,2-1,2.9c-0.7,0.8-1.6,1.4-2.6,1.6c1.2,0.1,2.4,0.7,3.2,1.6
		c0.8,0.9,1.2,2.1,1.2,3.3c0.1,1.5-0.6,3-1.9,3.9c-1.5,1-3.4,1.5-5.2,1.4h-8.5v-19.7h8.4C300.9,137.2,302.6,137.7,304,138.6z
		 M302,144.9c0.7-0.5,1-1.3,1-2.2c0-0.8-0.3-1.7-1-2.2c-0.8-0.6-1.8-0.8-2.8-0.7h-5.6v5.9h5.6C300.2,145.7,301.1,145.4,302,144.9
		L302,144.9z M302.6,153.7c0.8-0.5,1.3-1.4,1.2-2.4c0-0.9-0.4-1.8-1.2-2.3c-1-0.6-2.2-0.9-3.4-0.8h-5.6v6.4h5.6
		C300.4,154.6,301.5,154.3,302.6,153.7L302.6,153.7z"/>
	<path class="st0" d="M323.5,157l-3.9-6.2c-0.5,0-0.8,0-1.1,0h-5v6.2h-2.7v-19.7h7.7c2.1-0.1,4.1,0.5,5.8,1.7c1.4,1.2,2.1,3,2,4.9
		c0,1.4-0.3,2.8-1.1,4c-0.8,1.1-1.9,1.9-3.2,2.4l4.6,6.6L323.5,157z M318.5,148.4c1.4,0.1,2.8-0.3,3.9-1.1c0.9-0.8,1.4-2,1.4-3.3
		c0.1-1.2-0.4-2.4-1.4-3.2c-1.1-0.8-2.5-1.2-3.9-1.1h-5v8.6L318.5,148.4z"/>
	<path class="st0" d="M331.1,137.3h2.7V157h-2.7V137.3z"/>
	<path class="st0" d="M352.6,138.6c1.5,0.8,2.8,2,3.6,3.5c1.7,3.1,1.7,6.9,0,10c-0.9,1.5-2.1,2.7-3.7,3.5c-1.6,0.9-3.4,1.3-5.2,1.3
		h-7.9v-19.6h8C349.3,137.3,351,137.7,352.6,138.6z M351.2,153.6c1.1-0.6,2-1.5,2.6-2.6c0.7-1.1,1-2.4,1-3.8c0-1.3-0.3-2.6-1-3.8
		c-0.6-1.1-1.6-2-2.7-2.6c-1.1-0.7-2.4-1-3.8-1h-5.3v14.8h5.4C348.8,154.5,350.1,154.2,351.2,153.6L351.2,153.6z"/>
	<path class="st0" d="M374.4,147.4h2.4v7.2c-1,0.8-2.2,1.4-3.5,1.9c-1.3,0.5-2.6,0.7-4,0.7c-1.8,0-3.6-0.4-5.2-1.3
		c-1.5-0.9-2.8-2.1-3.7-3.6c-0.9-1.5-1.4-3.3-1.4-5.1c0-1.8,0.5-3.5,1.4-5.1c0.9-1.5,2.2-2.8,3.8-3.6c1.6-0.9,3.4-1.3,5.3-1.3
		c1.4,0,2.7,0.2,4,0.7c1.2,0.5,2.4,1.1,3.4,2l-1.5,2c-1.6-1.5-3.7-2.3-5.8-2.3c-1.4,0-2.7,0.3-3.9,1c-1.2,0.7-2.1,1.6-2.8,2.8
		c-0.7,1.2-1,2.5-1,3.8c0,1.3,0.3,2.7,1,3.8c1.4,2.4,3.9,3.8,6.7,3.8c0.9,0,1.7-0.1,2.5-0.4c0.8-0.3,1.6-0.6,2.4-1.1L374.4,147.4z"
		/>
	<path class="st0" d="M381.9,137.3h13.6v2.4h-11v6.1h9.8v2.4h-9.8v6.3h11.3v2.5h-14L381.9,137.3z"/>
	<path class="st0" d="M421.4,138.5c1.5,0.8,2.8,2.1,3.8,3.6c0.9,1.5,1.4,3.3,1.4,5.1c0,1.8-0.5,3.5-1.4,5.1
		c-0.9,1.5-2.2,2.8-3.8,3.6c-3.2,1.8-7.2,1.8-10.4,0c-1.6-0.9-2.8-2.1-3.8-3.6c-0.9-1.5-1.4-3.3-1.4-5.1c0-1.8,0.5-3.5,1.4-5.1
		c0.9-1.5,2.2-2.8,3.7-3.6C414.2,136.7,418.2,136.7,421.4,138.5L421.4,138.5z M412.4,140.6c-1.2,0.7-2.1,1.6-2.8,2.7
		c-1.4,2.4-1.4,5.3,0,7.6c0.7,1.2,1.6,2.1,2.8,2.8c1.2,0.7,2.5,1,3.8,1c1.3,0,2.6-0.3,3.8-1c1.1-0.7,2.1-1.6,2.8-2.8
		c1.4-2.4,1.4-5.3,0-7.6c-0.7-1.1-1.6-2.1-2.8-2.7c-1.1-0.7-2.5-1-3.8-1C414.9,139.6,413.6,139.9,412.4,140.6L412.4,140.6z"/>
	<path class="st0" d="M434.2,153.2c1.1,1.1,2.6,1.6,4.1,1.5c1.5,0.1,3-0.5,4.1-1.5c1-1.2,1.6-2.7,1.5-4.3v-11.6h2.7v11.6
		c0.1,2.2-0.7,4.4-2.2,6c-1.6,1.5-3.8,2.3-6.1,2.2c-2.3,0.1-4.5-0.7-6.1-2.2c-1.5-1.6-2.3-3.8-2.2-6v-11.6h2.7v11.6
		C432.6,150.5,433.1,152,434.2,153.2z"/>
	<path class="st0" d="M449.3,137.3h15.4v2.5h-6.4V157h-2.7v-17.2h-6.3L449.3,137.3z"/>
	<path class="st0" d="M488.9,138.5c1.5,0.8,2.8,2.1,3.8,3.6c0.9,1.5,1.4,3.3,1.4,5.1c0,1.8-0.5,3.5-1.4,5.1
		c-0.9,1.5-2.2,2.8-3.8,3.6c-3.2,1.8-7.2,1.8-10.4,0c-1.6-0.9-2.8-2.1-3.8-3.6c-0.9-1.5-1.4-3.3-1.4-5.1c0-1.8,0.5-3.5,1.4-5.1
		c0.9-1.5,2.2-2.7,3.7-3.6C481.7,136.7,485.6,136.7,488.9,138.5z M479.9,140.6c-1.2,0.7-2.1,1.6-2.8,2.7c-1.4,2.4-1.4,5.3,0,7.6
		c0.7,1.2,1.6,2.1,2.8,2.8c1.2,0.7,2.5,1,3.8,1c1.3,0,2.6-0.3,3.8-1c1.1-0.7,2.1-1.6,2.8-2.8c1.4-2.4,1.4-5.3,0-7.6
		c-0.7-1.1-1.6-2.1-2.8-2.7c-1.1-0.7-2.4-1-3.8-1C482.4,139.6,481.1,139.9,479.9,140.6L479.9,140.6z"/>
	<path class="st0" d="M497.9,137.3h12.8v2.4h-10.1v6.5h9.1v2.4h-9.1v8.3h-2.7V137.3z"/>
	<path class="st0" d="M518.7,137.3H534v2.5h-6.3V157H525v-17.2h-6.3V137.3z"/>
	<path class="st0" d="M537.1,137.3h2.7v8.8h11.2v-8.8h2.7V157h-2.7v-8.4h-11.2v8.4h-2.7V137.3z"/>
	<path class="st0" d="M559.4,137.3h13.7v2.4h-11v6.1h9.8v2.4h-9.8v6.3h11.3v2.5h-14L559.4,137.3z"/>
	<path class="st0" d="M598.2,138.6c1.1,0.8,1.8,2.2,1.7,3.6c0,1-0.3,2-1,2.9c-0.7,0.8-1.6,1.3-2.6,1.6c1.2,0.1,2.4,0.7,3.2,1.6
		c0.8,0.9,1.2,2.1,1.2,3.3c0.1,1.5-0.6,3-1.9,3.9c-1.5,1-3.4,1.5-5.2,1.4h-8.5v-19.7h8.4C595.2,137.2,596.8,137.7,598.2,138.6z
		 M596.2,144.9c0.7-0.5,1-1.3,1-2.2c0-0.8-0.3-1.6-1-2.2c-0.8-0.6-1.8-0.8-2.8-0.7h-5.6v5.9h5.6
		C594.4,145.7,595.4,145.4,596.2,144.9L596.2,144.9z M596.8,153.7c0.8-0.5,1.3-1.4,1.2-2.4c0-0.9-0.4-1.8-1.2-2.3
		c-1-0.6-2.2-0.9-3.4-0.8h-5.6v6.4h5.6C594.6,154.6,595.8,154.3,596.8,153.7L596.8,153.7z"/>
	<path class="st0" d="M618.9,138.5c1.5,0.8,2.8,2.1,3.8,3.6c0.9,1.5,1.4,3.3,1.4,5.1c0,1.8-0.5,3.5-1.4,5.1
		c-0.9,1.5-2.2,2.8-3.8,3.6c-3.2,1.8-7.2,1.8-10.4,0c-1.6-0.9-2.8-2.1-3.8-3.6c-0.9-1.5-1.4-3.3-1.4-5.1c0-1.8,0.5-3.5,1.4-5.1
		c0.9-1.5,2.2-2.8,3.7-3.6C611.7,136.7,615.6,136.7,618.9,138.5z M609.9,140.6c-1.2,0.7-2.1,1.6-2.8,2.7c-1.4,2.4-1.4,5.3,0,7.6
		c0.7,1.2,1.6,2.1,2.8,2.8c1.2,0.7,2.5,1,3.8,1c1.3,0,2.6-0.3,3.8-1c1.1-0.7,2.1-1.6,2.8-2.8c1.4-2.4,1.4-5.3,0-7.6
		c-0.7-1.1-1.6-2.1-2.8-2.7c-1.1-0.7-2.4-1-3.8-1C612.4,139.6,611.1,139.9,609.9,140.6L609.9,140.6z"/>
	<path class="st0" d="M626.1,137.3h3.2l5.2,7.3l5.2-7.3h3.2l-6.7,9.4l7.2,10.2h-3.2l-5.7-7.9l-5.6,7.9h-3.2l7.2-10.1L626.1,137.3z"
		/>
</g>
<g id="Stroke">
	<line class="st1" x1="700.5" y1="60" x2="700.5" y2="140"/>
</g>
<path class="st2" d="M845.2,97.5c0,7.3,0,14.6,0,21.9c0,1.3,0,2.7-0.2,4c-0.2,1.9-0.5,3.8-1.1,5.7c-0.8,2.2-1.8,4.2-3.3,6
	c-1.6,1.9-3.4,3.5-5.5,4.6c-2.1,1.1-4.2,1.9-6.6,2.2c-1.3,0.2-2.6,0.3-3.9,0.4c-0.7,0-1.5,0-2.2,0c-14.5,0.2-29.1,0-43.6,0.1
	c-1.2,0-2.5,0-3.7-0.1c-1.8-0.2-3.7-0.4-5.4-0.9c-2.5-0.7-4.7-1.8-6.7-3.4c-0.9-0.7-1.7-1.5-2.5-2.3c-1.4-1.6-2.6-3.3-3.4-5.3
	c-0.5-1.3-1-2.7-1.2-4.1c-0.2-0.9-0.3-1.8-0.4-2.7c-0.1-1.2-0.2-2.5-0.2-3.7c0-1,0-2,0-3c0-13.8,0-27.5,0-41.3c0-1.2,0-2.3,0.1-3.5
	c0.2-2.1,0.4-4.3,1.1-6.3c0.7-2.1,1.7-4,3.1-5.8c0.7-0.9,1.5-1.8,2.4-2.6c1-0.9,2-1.7,3.2-2.3c1.6-0.9,3.3-1.6,5.2-2
	c1-0.2,2-0.4,3.1-0.5c1.5-0.2,3-0.2,4.5-0.3c1.3,0,2.6,0,3.9,0c13.3,0,26.7,0,40,0c1.2,0,2.4,0,3.6,0.1c1.9,0.2,3.9,0.4,5.7,1
	c1.6,0.5,3.1,1.1,4.5,2c1.6,1,3,2.2,4.3,3.6c1.6,1.8,2.9,3.9,3.7,6.2c0.6,1.5,0.9,3.1,1.1,4.8c0.1,0.9,0.2,1.8,0.3,2.7
	c0.1,1.8,0.1,3.6,0.1,5.3C845.2,84.6,845.2,91.1,845.2,97.5C845.2,97.5,845.2,97.5,845.2,97.5z M844.8,95.9
	c-0.1-6,0.1-13.7-0.1-21.4c0-0.8-0.1-1.6-0.1-2.5c-0.1-1.2-0.2-2.4-0.5-3.6c-0.4-2.1-1.2-4.2-2.3-6c-1.1-2-2.6-3.6-4.4-5.1
	c-1.9-1.5-4-2.6-6.3-3.3c-1.9-0.6-3.9-0.8-5.8-1c-1.3-0.1-2.5-0.1-3.8-0.1c-14.8,0-29.6-0.1-44.4,0.1c-0.4,0-0.9,0-1.3,0
	c-1.2,0-2.3,0.2-3.4,0.3c-1.1,0.1-2.2,0.4-3.3,0.7c-2.1,0.7-4,1.6-5.8,3c-1.2,0.9-2.3,2-3.3,3.2c-1,1.2-1.7,2.5-2.4,3.9
	c-0.4,0.9-0.8,1.9-1.1,2.9c-0.5,1.7-0.7,3.5-0.8,5.3c-0.1,1.1-0.1,2.3-0.1,3.4c0,14.8-0.1,29.6,0.1,44.4c0,0.9,0,1.9,0.1,2.8
	c0.1,1.2,0.2,2.4,0.5,3.6c0.5,2.4,1.3,4.6,2.7,6.7c1.1,1.7,2.4,3.1,3.9,4.4c1.7,1.4,3.5,2.4,5.6,3.1c2.2,0.8,4.4,1.1,6.7,1.3
	c1.3,0.1,2.5,0.1,3.8,0.1c14.5,0,29.1,0.1,43.6-0.1c1.1,0,2.1,0,3.2-0.1c1.1-0.1,2.1-0.2,3.2-0.4c1.7-0.3,3.3-0.8,4.8-1.5
	c1.6-0.7,3.1-1.7,4.4-2.9c1.1-0.9,2-2,2.9-3.1c0.8-1,1.4-2.1,1.9-3.3c0.4-0.9,0.7-1.8,1-2.7c0.4-1.5,0.6-3,0.8-4.6
	c0.1-1.4,0.2-2.7,0.2-4.1C844.8,112.1,844.8,104.8,844.8,95.9z"/>
<path class="st3" d="M844.8,95.9c0,8.9,0,16.2,0,23.5c0,1.4,0,2.7-0.2,4.1c-0.2,1.5-0.4,3.1-0.8,4.6c-0.3,0.9-0.6,1.8-1,2.7
	c-0.5,1.2-1.1,2.3-1.9,3.3c-0.9,1.1-1.8,2.2-2.9,3.1c-1.3,1.2-2.8,2.1-4.4,2.9c-1.5,0.7-3.1,1.2-4.8,1.5c-1.1,0.2-2.1,0.3-3.2,0.4
	c-1.1,0.1-2.1,0.1-3.2,0.1c-14.5,0.1-29.1,0-43.6,0.1c-1.3,0-2.5,0-3.8-0.1c-2.3-0.2-4.6-0.5-6.7-1.3c-2-0.7-3.9-1.8-5.6-3.1
	c-1.5-1.3-2.8-2.7-3.9-4.4c-1.3-2-2.2-4.3-2.7-6.7c-0.2-1.2-0.4-2.4-0.5-3.6c-0.1-0.9-0.1-1.9-0.1-2.8c-0.1-14.8,0-29.6-0.1-44.4
	c0-1.1,0-2.3,0.1-3.4c0.2-1.8,0.3-3.6,0.8-5.3c0.3-1,0.6-2,1.1-2.9c0.6-1.4,1.4-2.7,2.4-3.9c1-1.2,2.1-2.3,3.3-3.2
	c1.8-1.3,3.7-2.3,5.8-3c1.1-0.4,2.2-0.6,3.3-0.7c1.1-0.2,2.3-0.3,3.4-0.3c0.4,0,0.9,0,1.3,0c14.8-0.1,29.6,0,44.4-0.1
	c1.3,0,2.5,0,3.8,0.1c2,0.2,3.9,0.4,5.8,1c2.3,0.7,4.4,1.8,6.3,3.3c1.8,1.4,3.2,3.1,4.4,5.1c1.1,1.9,1.9,3.9,2.3,6
	c0.2,1.2,0.4,2.4,0.5,3.6c0.1,0.8,0.1,1.6,0.1,2.5C844.9,82.2,844.7,89.8,844.8,95.9z M818.9,77.7c-0.7-0.6-1.4-1.1-2-1.6
	c-1-0.8-2-1.6-3-2.4c-1.1-0.9-2.3-1.7-3.4-2.6c-1-0.8-2.1-1.6-3.1-2.5c-0.6-0.5-1.2-0.9-1.7-1.4c-0.4-0.3-0.8-0.6-1.2-1
	c-0.5-0.4-1-0.9-1.6-1.3c-0.6-0.5-1.2-1-1.9-1.3c-0.6-0.3-1.1-0.1-1.6,0.1c-0.6,0.4-1.2,0.9-1.7,1.3c-1.3,1-2.5,2-3.8,3
	c-1.3,1.1-2.7,2.1-4,3.1c-1.1,0.8-2.1,1.7-3.2,2.5c-1.1,0.8-2.1,1.7-3.2,2.6c-1.2,0.9-2.4,1.9-3.6,2.9c-1.2,1-2.5,2-3.7,2.9
	c-1.3,1-2.5,2-3.8,3c-1,0.8-2,1.5-2.9,2.3c-0.6,0.5-1.3,1-1.9,1.5c-0.7,0.6-0.8,1.6,0,2.1c0.3,0.2,0.6,0.2,0.9,0.2
	c1.7,0,3.5,0,5.2,0c0.5,0,0.5,0,0.5,0.5c0,10,0,20.1,0,30.1c0,0.6,0.1,1.2,0.4,1.7c0.3,0.6,0.8,1,1.3,1.2c0.5,0.2,1,0.2,1.6,0.2
	c15.4,0,30.9,0,46.3,0c0.5,0,1,0,1.5-0.2c0.5-0.2,0.9-0.5,1.3-1c0.4-0.7,0.6-1.4,0.6-2.2c0-10,0-20,0-29.9c0-0.5,0-0.5,0.5-0.5
	c1.7,0,3.5,0,5.2,0c0.4,0,0.7-0.1,1-0.4c0.4-0.3,0.5-1,0.2-1.5c-0.2-0.4-0.6-0.6-1-0.9c-0.9-0.7-1.8-1.4-2.6-2.1
	c-1.1-0.8-2.1-1.7-3.2-2.5c-0.2-0.2-0.3-0.3-0.3-0.6c0-2.5,0-5,0-7.5c0-1,0-1.9,0-2.9c0-0.5-0.5-1-1-1c-1.8,0-3.7,0-5.5,0
	c-0.3,0-0.7,0.3-0.8,0.6c-0.2,0.3-0.2,0.7-0.2,1C818.9,74.9,818.9,76.2,818.9,77.7z"/>
<path class="st4" d="M818.9,77.7c0-1.4,0-2.8,0-4.2c0-0.4,0-0.7,0.2-1c0.2-0.3,0.5-0.6,0.8-0.6c1.8,0,3.7,0,5.5,0c0.5,0,1,0.5,1,1
	c0,1,0,1.9,0,2.9c0,2.5,0,5,0,7.5c0,0.3,0.1,0.4,0.3,0.6c1.1,0.8,2.1,1.7,3.2,2.5c0.9,0.7,1.8,1.4,2.6,2.1c0.3,0.3,0.7,0.5,1,0.9
	c0.3,0.5,0.2,1.1-0.2,1.5c-0.3,0.3-0.7,0.4-1,0.4c-1.7,0-3.5,0-5.2,0c-0.5,0-0.5,0-0.5,0.5c0,10,0,20,0,29.9c0,0.8-0.1,1.5-0.6,2.2
	c-0.3,0.5-0.7,0.7-1.3,1c-0.5,0.2-1,0.2-1.5,0.2c-15.4,0-30.9,0-46.3,0c-0.5,0-1.1,0-1.6-0.2c-0.6-0.3-1-0.7-1.3-1.2
	c-0.3-0.5-0.4-1.1-0.4-1.7c0-10,0-20.1,0-30.1c0-0.5,0-0.5-0.5-0.5c-1.7,0-3.5,0-5.2,0c-0.3,0-0.6-0.1-0.9-0.2
	c-0.8-0.5-0.7-1.5,0-2.1c0.6-0.5,1.3-1,1.9-1.5c1-0.8,2-1.5,2.9-2.3c1.3-1,2.5-2,3.8-3c1.2-1,2.5-2,3.7-2.9c1.2-1,2.4-1.9,3.6-2.9
	c1.1-0.8,2.1-1.7,3.2-2.6c1.1-0.8,2.1-1.7,3.2-2.5c1.3-1,2.7-2.1,4-3.1c1.3-1,2.5-2,3.8-3c0.6-0.5,1.1-1,1.7-1.3
	c0.5-0.3,1-0.4,1.6-0.1c0.7,0.3,1.3,0.9,1.9,1.3c0.5,0.4,1.1,0.8,1.6,1.3c0.4,0.3,0.8,0.6,1.2,1c0.6,0.5,1.2,0.9,1.7,1.4
	c1,0.8,2.1,1.6,3.1,2.5c1.1,0.9,2.3,1.8,3.4,2.6c1,0.8,2,1.6,3,2.4C817.5,76.6,818.2,77.1,818.9,77.7z M800.2,124.8
	c7.7,0,15.4,0,23.1,0c0.7,0,1.5-0.1,2.1-0.6c0.5-0.4,0.8-0.9,1-1.5c0.1-0.5,0.1-1,0.1-1.5c0-9.9,0-19.8,0-29.7c0-0.6,0-0.6,0.6-0.6
	c1.8,0,3.7,0,5.5,0c0.4,0,0.7-0.2,0.9-0.5c0.2-0.4,0.2-0.8-0.2-1.2c-0.7-0.7-1.5-1.2-2.2-1.8c-1.4-1.2-2.9-2.3-4.4-3.4
	c-0.3-0.2-0.4-0.5-0.4-0.9c0-3.3,0-6.7,0-10c0-0.9-0.4-1.2-1.2-1.2c-1.5,0-3.1,0-4.6,0c-0.3,0-0.6,0.1-0.8,0.2
	c-0.2,0.1-0.4,0.3-0.3,0.6c0,1.6-0.2,3.1,0,4.7c0,0.2,0,0.4-0.1,0.4c-0.2,0.1-0.3-0.1-0.4-0.2c-0.5-0.4-1.1-0.9-1.6-1.3
	c-0.9-0.7-1.7-1.3-2.6-2c-1.3-1.1-2.7-2.1-4.1-3.2c-1-0.8-2-1.5-2.9-2.3c-0.9-0.7-1.8-1.5-2.7-2.2c-1-0.8-2-1.6-3.1-2.4
	c-0.4-0.3-0.8-0.6-1.4-0.6c-0.3,0-0.7,0-1,0.2c-0.8,0.4-1.4,1-2.1,1.6c-0.7,0.5-1.4,1.1-2.1,1.7c-0.8,0.7-1.7,1.3-2.5,2
	c-1.2,1-2.4,1.9-3.7,2.9c-1.3,1-2.5,2-3.7,3c-1,0.8-2,1.7-3.1,2.5c-1.1,0.8-2.1,1.7-3.2,2.5c-0.9,0.7-1.9,1.5-2.8,2.2
	c-0.8,0.6-1.5,1.2-2.3,1.8c-0.7,0.6-1.4,1.2-2.1,1.7c-0.6,0.4-1.1,0.9-1.7,1.3c-0.9,0.7-1.7,1.4-2.6,2c-0.4,0.2-0.6,0.6-0.6,1
	c0,0.5,0.5,1,1.1,1c1.8,0,3.7,0,5.5,0c0.6,0,0.6,0,0.6,0.6c0,10,0,19.9,0,29.9c0,0.6,0,1.1,0.2,1.7c0.2,0.6,0.6,1,1.2,1.3
	c0.6,0.3,1.2,0.4,1.8,0.4C784.8,124.8,792.5,124.8,800.2,124.8z"/>
<path class="st5" d="M800.2,124.8c-7.7,0-15.3,0-23,0c-0.6,0-1.3-0.1-1.8-0.4c-0.5-0.3-0.9-0.7-1.2-1.3c-0.2-0.6-0.2-1.1-0.2-1.7
	c0-10,0-19.9,0-29.9c0-0.6,0-0.6-0.6-0.6c-1.8,0-3.7,0-5.5,0c-0.6,0-1.1-0.4-1.1-1c0-0.4,0.3-0.8,0.6-1c0.9-0.6,1.7-1.4,2.6-2
	c0.6-0.4,1.1-0.9,1.7-1.3c0.7-0.6,1.4-1.1,2.1-1.7c0.8-0.6,1.5-1.2,2.3-1.8c0.9-0.7,1.9-1.5,2.8-2.2c1.1-0.8,2.1-1.7,3.2-2.5
	c1-0.8,2-1.7,3.1-2.5c1.3-1,2.5-2,3.7-3c1.2-1,2.4-1.9,3.7-2.9c0.8-0.7,1.7-1.3,2.5-2c0.7-0.6,1.4-1.1,2.1-1.7
	c0.7-0.5,1.3-1.2,2.1-1.6c0.3-0.2,0.6-0.1,1-0.2c0.6,0,1,0.3,1.4,0.6c1,0.8,2,1.6,3.1,2.4c0.9,0.7,1.8,1.5,2.7,2.2
	c1,0.8,2,1.5,2.9,2.3c1.3,1.1,2.7,2.1,4.1,3.2c0.8,0.7,1.7,1.4,2.6,2c0.6,0.4,1.1,0.9,1.6,1.3c0.1,0.1,0.2,0.3,0.4,0.2
	c0.1-0.1,0.1-0.3,0.1-0.4c-0.1-1.6,0-3.1,0-4.7c0-0.3,0.1-0.5,0.3-0.6c0.3-0.1,0.5-0.2,0.8-0.2c1.5,0,3.1,0,4.6,0
	c0.8,0,1.2,0.3,1.2,1.2c0,3.3,0,6.7,0,10c0,0.4,0.2,0.7,0.4,0.9c1.5,1.1,2.9,2.3,4.4,3.4c0.7,0.6,1.5,1.1,2.2,1.8
	c0.3,0.3,0.4,0.7,0.2,1.2c-0.2,0.3-0.5,0.5-0.9,0.5c-1.8,0-3.7,0-5.5,0c-0.6,0-0.6,0-0.6,0.6c0,9.9,0,19.8,0,29.7c0,0.5,0,1-0.1,1.5
	c-0.1,0.6-0.4,1.2-1,1.5c-0.6,0.5-1.4,0.6-2.1,0.6C815.5,124.8,807.9,124.8,800.2,124.8z M778.7,102.6c0,5,0,10.1,0,15.1
	c0,0.3,0,0.5,0.1,0.8c0.2,0.9,0.9,1.5,1.8,1.5c8.2,0,16.4,0,24.5,0c0.4,0,0.7,0,1.1,0c0.4,0.1,0.8-0.1,1.2,0c0.2,0,0.4,0.1,0.6,0
	c0.4-0.1,0.9,0,1.3,0c0.5,0,1.1,0.1,1.6,0c0.8-0.1,1.7,0.1,2.5,0c0.7-0.1,1.4,0.1,2,0c0.7-0.1,1.4,0,2.1,0c0.8,0,1.7,0,2.5,0
	c0.8,0,1.6-0.7,1.7-1.5c0-0.6,0.1-1.2,0.1-1.8c0-2.1,0-4.3,0-6.4c0-0.6,0-1.2,0-1.8c0-0.7,0-1.5,0-2.2c0-0.8,0-1.6,0-2.4
	c0-0.5,0-1.1,0-1.6c0-5,0-10,0-15c0-0.5-0.2-1-0.6-1.3c-1-0.8-2-1.6-2.9-2.3c-1.1-0.8-2.1-1.7-3.2-2.5c-1.1-0.9-2.2-1.8-3.3-2.6
	c-0.8-0.6-1.6-1.3-2.5-1.9c-1.3-1-2.6-2.1-3.9-3.1c-1.2-1-2.4-1.9-3.6-2.9c-0.9-0.7-1.8-0.9-2.6-0.3c-0.8,0.6-1.5,1.2-2.2,1.7
	c-1,0.8-2,1.6-3,2.4c-1.1,0.9-2.3,1.8-3.4,2.6c-1.1,0.9-2.3,1.8-3.4,2.7c-1.1,0.8-2.1,1.7-3.2,2.5c-1.3,1-2.6,2.1-3.9,3.1
	c-0.9,0.6-1.3,1.4-1.3,2.5C778.7,92.8,778.7,97.7,778.7,102.6z"/>
<path class="st6" d="M778.7,102.6c0-4.9,0-9.9,0-14.8c0-1.1,0.4-1.9,1.3-2.5c1.3-1,2.6-2.1,3.9-3.1c1.1-0.8,2.1-1.7,3.2-2.5
	c1.1-0.9,2.3-1.8,3.4-2.7c1.1-0.9,2.3-1.8,3.4-2.6c1-0.8,2-1.6,3-2.4c0.7-0.6,1.5-1.2,2.2-1.7c0.8-0.6,1.7-0.5,2.6,0.3
	c1.2,1,2.4,1.9,3.6,2.9c1.3,1,2.6,2.1,3.9,3.1c0.8,0.6,1.6,1.3,2.5,1.9c1.1,0.9,2.2,1.8,3.3,2.6c1.1,0.8,2.1,1.7,3.2,2.5
	c1,0.8,2,1.5,2.9,2.3c0.4,0.3,0.6,0.8,0.6,1.3c0,5,0,10,0,15c0,0.5,0,1.1,0,1.6c0,0.8,0,1.6,0,2.4c0,0.7,0,1.5,0,2.2
	c0,0.6,0,1.2,0,1.8c0,2.1,0,4.3,0,6.4c0,0.6,0,1.2-0.1,1.8c-0.1,0.8-0.8,1.5-1.7,1.5c-0.8,0-1.7,0-2.5,0c-0.7,0-1.4-0.1-2.1,0
	c-0.7,0.1-1.4-0.1-2,0c-0.8,0.1-1.7-0.1-2.5,0c-0.5,0.1-1.1-0.1-1.6,0c-0.4,0-0.9,0-1.3,0c-0.2,0-0.4,0-0.6,0c-0.4,0-0.8,0.1-1.2,0
	c-0.3,0-0.7,0-1.1,0c-8.2,0-16.4,0-24.5,0c-0.8,0-1.6-0.6-1.8-1.5c0-0.3-0.1-0.5-0.1-0.8C778.7,112.7,778.7,107.7,778.7,102.6z
	 M783.6,107.5c0,2,0,4,0,6c0,1,0.8,1.7,1.7,1.7c7.3,0,14.6,0,21.9,0c0.6,0,1.2,0,1.8,0c0.8,0,1.5,0,2.3,0c0.7,0,1.3,0,2,0
	c0.2,0,0.5,0,0.7,0c0.3,0,0.5,0,0.8,0c1.1,0.2,2-0.5,2-1.6c0-4.6-0.1-9.2,0.1-13.9c0-0.4-0.1-0.8-0.1-1.2c0-1,0-1.9,0-2.9
	c0.1-2,0-3.9,0-5.9c0-0.6-0.2-1.1-0.8-1.5c-0.4-0.2-0.7-0.6-1.1-0.8c-1.1-0.9-2.2-1.8-3.3-2.6c-1-0.8-2.1-1.6-3.1-2.4
	c-1.1-0.9-2.2-1.8-3.3-2.6c-0.8-0.6-1.5-1.2-2.3-1.8c-0.7-0.5-1.3-1-2-1.5c-0.3-0.2-1.2-0.2-1.5,0c-0.6,0.4-1.2,0.9-1.8,1.4
	c-0.8,0.7-1.7,1.3-2.5,2c-1.1,0.9-2.2,1.8-3.3,2.6c-1,0.8-2.1,1.6-3.1,2.4c-1.3,1.1-2.6,2.1-4,3.2c-0.7,0.5-1,1.2-1,2
	c0,2.2-0.1,4.3,0.1,6.5c0,0.8,0,1.6-0.1,2.5c0,1,0,2,0.1,3C783.6,103.8,783.6,105.6,783.6,107.5z"/>
<path class="st7" d="M783.6,107.5c0-1.8,0-3.7,0-5.5c0-1-0.1-2-0.1-3c0-0.8,0.1-1.6,0.1-2.5c-0.1-2.2,0-4.3-0.1-6.5
	c0-0.9,0.3-1.5,1-2c1.4-1,2.7-2.1,4-3.2c1-0.8,2.1-1.6,3.1-2.4c1.1-0.9,2.2-1.8,3.3-2.6c0.8-0.7,1.7-1.3,2.5-2
	c0.6-0.5,1.2-1,1.8-1.4c0.4-0.3,1.2-0.3,1.5,0c0.7,0.5,1.3,1,2,1.5c0.8,0.6,1.5,1.2,2.3,1.8c1.1,0.9,2.2,1.8,3.3,2.6
	c1,0.8,2.1,1.6,3.1,2.4c1.1,0.9,2.2,1.8,3.3,2.6c0.4,0.3,0.7,0.6,1.1,0.8c0.6,0.4,0.8,0.9,0.8,1.5c0,2,0.1,3.9,0,5.9
	c0,1,0,1.9,0,2.9c0,0.4,0.1,0.8,0.1,1.2c-0.1,4.6,0,9.2-0.1,13.9c0,1.1-0.9,1.8-2,1.6c-0.3-0.1-0.5-0.1-0.8,0c-0.2,0-0.5,0.1-0.7,0
	c-0.7,0-1.3,0-2,0c-0.8,0-1.5,0-2.3,0c-0.6,0-1.2,0-1.8,0c-7.3,0-14.6,0-21.9,0c-0.9,0-1.7-0.7-1.7-1.7
	C783.6,111.5,783.6,109.5,783.6,107.5z M800.2,110.2c3.4,0,6.9,0,10.3,0c0.2,0,0.4,0,0.6-0.2c0.5-0.3,0.7-0.8,0.7-1.3
	c0-3.5,0-7,0-10.5c0-0.2,0-0.4,0-0.6c0-1.6,0-3.2,0-4.8c0,0,0-0.1,0-0.1c0-0.7,0-1.4-0.6-1.9c-0.2-0.2-0.5-0.4-0.7-0.6
	c-1.3-1-2.6-2-3.9-3c-1.8-1.5-3.7-2.9-5.5-4.4c-0.6-0.5-1.3-0.5-1.9,0c-0.3,0.3-0.7,0.5-1,0.8c-1.4,1.1-2.8,2.3-4.3,3.4
	c-1.6,1.3-3.2,2.5-4.8,3.8c-0.4,0.3-0.6,0.7-0.6,1.2c-0.1,0.4,0,0.8,0,1.2c0,5.2,0,10.4,0,15.6c0,0.9,0.6,1.6,1.5,1.5
	C793.4,110.2,796.8,110.2,800.2,110.2z"/>
<path class="st8" d="M800.2,110.2c-3.4,0-6.8,0-10.2,0c-0.9,0-1.5-0.6-1.5-1.5c0-5.2,0-10.4,0-15.6c0-0.4-0.1-0.8,0-1.2
	c0.1-0.5,0.3-0.9,0.6-1.2c1.6-1.3,3.2-2.5,4.8-3.8c1.4-1.1,2.8-2.3,4.3-3.4c0.3-0.3,0.7-0.5,1-0.8c0.7-0.5,1.3-0.5,1.9,0
	c1.8,1.5,3.7,2.9,5.5,4.4c1.3,1,2.6,2,3.9,3c0.2,0.2,0.5,0.4,0.7,0.6c0.6,0.5,0.7,1.2,0.6,1.9c0,0,0,0.1,0,0.1c0,1.6,0,3.2,0,4.8
	c0,0.2,0,0.4,0,0.6c0,3.5,0,7,0,10.5c0,0.6-0.2,1-0.7,1.3c-0.2,0.1-0.4,0.2-0.6,0.2C807.1,110.2,803.6,110.2,800.2,110.2z
	 M800.1,105.4c1.8,0,3.7,0,5.5,0c0.4,0,0.8,0,1.1-0.4c0.2-0.3,0.3-0.6,0.3-1c0-3.2,0-6.5,0-9.7c0-0.5-0.2-0.9-0.6-1.2
	c-0.9-0.7-1.9-1.5-2.8-2.2c-0.9-0.7-1.7-1.4-2.6-2c-0.7-0.5-1.1-0.5-1.8,0c-0.4,0.3-0.7,0.6-1.1,0.9c-1.4,1.1-2.9,2.2-4.3,3.3
	c-0.4,0.3-0.6,0.7-0.6,1.2c0,3.2,0,6.5,0,9.7c0,0.8,0.5,1.4,1.3,1.3C796.5,105.4,798.3,105.4,800.1,105.4z"/>
<path class="st9" d="M800.1,105.4c-1.8,0-3.6,0-5.4,0c-0.8,0-1.4-0.6-1.3-1.3c0-3.2,0-6.5,0-9.7c0-0.5,0.2-0.9,0.6-1.2
	c1.4-1.1,2.9-2.2,4.3-3.3c0.4-0.3,0.7-0.6,1.1-0.9c0.7-0.5,1.1-0.5,1.8,0c0.9,0.7,1.7,1.4,2.6,2c0.9,0.7,1.9,1.5,2.8,2.2
	c0.4,0.3,0.6,0.7,0.6,1.2c0,3.2,0,6.5,0,9.7c0,0.4-0.1,0.7-0.3,1c-0.3,0.4-0.7,0.4-1.1,0.4C803.8,105.4,801.9,105.4,800.1,105.4z"/>
<text transform="matrix(1 0 0 1 883.5391 129.5117)" class="st10 st11">Apple Home</text>
</svg>
