<?xml version="1.0" encoding="utf-8"?>
<!-- Generator: Adobe Illustrator 24.0.1, SVG Export Plug-In . SVG Version: 6.00 Build 0)  -->
<svg version="1.1" id="Ebene_1" xmlns="http://www.w3.org/2000/svg" xmlns:xlink="http://www.w3.org/1999/xlink" x="0px" y="0px"
	 viewBox="0 0 1400 200" style="enable-background:new 0 0 1400 200;" xml:space="preserve">
<style type="text/css">
	.st0{fill:#FEB400;}
	.st1{fill:none;stroke:#5F5F60;stroke-miterlimit:10;}
	.st2{fill:#333333;}
	.st3{fill:#E6E6E6;}
	.st4{fill:#00A9D2;}
	.st5{fill:url(#SVGID_1_);}
	.st6{fill:url(#SVGID_2_);}
	.st7{fill:url(#SVGID_3_);}
	.st8{fill:url(#SVGID_4_);}
	.st9{fill:url(#SVGID_5_);}
	.st10{fill:url(#SVGID_6_);}
	.st11{fill:url(#SVGID_7_);}
	.st12{fill:url(#SVGID_8_);}
	.st13{fill:#009EC4;stroke:#009EC4;stroke-width:0.5;stroke-linecap:round;stroke-linejoin:round;}
	.st14{fill:#CCCCCC;}
</style>
<title>HOOBS_x_alexa</title>
<g id="HOOBS_LOGO">
	<path class="st0" d="M152.1,39.5H77.8c-12.3,0.1-22.2,10.1-22.2,22.4v75.2c0,12.3,9.9,22.3,22.2,22.4h74.3
		c12.3-0.1,22.2-10.1,22.2-22.4V61.9C174.3,49.6,164.4,39.6,152.1,39.5z M155.1,97.4c-0.2,1.3-1.3,2.4-2.6,2.5
		c-1.2,0.4-2.6-0.2-3.1-1.4c-1.2-3.3-3.9-5.3-6.2-7.5c-2.1-1.8-3.1-4.4-2.9-7.2c0.1-1.8,0-3.7,0-5.5l0,0c0-2.5,0-4.9,0-7.4
		c0-2.2-1.4-2.7-3.2-2.6s-3.9-0.3-4,2.4c-0.1,2.2,0,4.5-0.1,6.7c0,0.7,0.4,1.8-0.4,2.1s-1.2-0.7-1.7-1.2c-4.9-4.6-9.8-9.2-14.6-13.9
		c-1.5-1.5-2.6-1.4-4,0C101.7,75.3,91.1,86,80.5,96.7c-1.4,1.4-1.6,2.5,0,3.8c0.3,0.3,0.6,0.7,1,1c2.1,2.1,2.4,2,4.6-0.1
		c6.9-6.4,13.4-13.3,20.2-20c1.4-1.4,2.9-2.7,4.3-4.1c2.7-2.6,5.8-2.7,8.5-0.1c2.9,2.8,5.7,5.8,8.6,8.6c5.3,5.3,10.7,10.5,16,15.8
		c3.5,3.5,3.4,6.6,0,10.1c-5.4,5.5-7.5,5.5-13,0c-4.8-4.8-9.6-9.4-14.4-14.1c-1.5-1.5-2.6-1.3-4,0.1c-5.1,5.2-10.2,10.4-15.3,15.5
		c-1.3,1.3-1.3,2.4,0,3.7c0.5,0.5,1,0.9,1.4,1.5c1.2,1.4,2.3,1.4,3.7,0c2.7-2.7,5.5-5.3,8.2-8s6-2.8,8.7-0.2c3.1,2.9,6.1,5.8,9,8.8
		c2.3,2.3,2.4,6,0.2,8.3c0,0.1-0.1,0.1-0.2,0.2c-2,2.2-4.2,4.2-6.3,6.4c-1.4,1.2-2.5,2.7-3.3,4.3c-0.4,1.3-1.8,2.1-3.1,1.8
		c-1.3-0.1-2.5-1.1-2.7-2.4c-0.5-1.5,0.2-3,1.6-3.7c4.3-2.1,6.8-6.2,10.3-9.3c0.7-0.5,0.9-1.5,0.4-2.2c-0.1-0.1-0.2-0.3-0.4-0.4
		c-2.8-2.8-5.5-5.5-8.2-8.3c-1.1-1.1-2.1-0.8-3.2,0.2c-2.7,2.7-5.5,5.3-8.2,8s-5.8,2.8-8.8,0.4c-0.8-0.6-1.4-1.4-2.1-2.1
		c-3.5-3.6-3.5-6.8,0-10.3c5.2-5.2,10.3-10.4,15.5-15.6c3.3-3.3,6.4-3.3,9.7-0.1c5.2,5.2,10.3,10.3,15.5,15.5
		c2.2,2.2,2.5,2.2,5.1-0.5c2.2-2.3,2.3-2.6,0.1-4.8c-7.7-7.7-15.5-15.4-23.2-23.2c-1.3-1.3-2.3-1.4-3.7-0.1
		c-3.6,3.6-7.2,7.1-10.8,10.6c-4.7,4.7-9.5,9.3-14.2,14c-2.1,2.4-5.8,2.6-8.3,0.5c-0.1-0.1-0.2-0.2-0.3-0.3c-5.7-5.1-7-7.8-0.5-14.2
		C89.1,81.8,99,71.6,109,61.5c3.6-3.6,6.7-3.6,10.2-0.1c2.5,2.4,5,4.7,7.4,7.1c1,1,1.7,1.6,2.2-0.4c0.5-2.1,2.3-3.6,4.4-3.8
		c0.9-0.2,1.8-0.3,2.7-0.3c6.3-0.2,8.6,2,8.6,8.4c0,3.8,0,7.7,0,11.5c-0.1,1.5,0.5,2.9,1.6,3.9c2.5,2.1,4.2,5,7.4,6.3
		C155,94.7,155.5,96.1,155.1,97.4L155.1,97.4z"/>
	<path class="st0" d="M276.9,40.9v81.5H258V89h-37v33.4h-18.9V40.9H221V73h37V40.9H276.9z M291.1,81.7c0-24.2,18.9-42.2,44.6-42.2
		s44.6,17.8,44.6,42.2s-19,42.2-44.6,42.2S291.1,105.9,291.1,81.7L291.1,81.7z M361.3,81.7c0-15.5-11-26.1-25.5-26.1
		s-25.5,10.6-25.5,26.1s11,26.1,25.5,26.1S361.3,97.2,361.3,81.7L361.3,81.7z M389.4,81.7c0-24.2,18.9-42.2,44.6-42.2
		s44.6,17.8,44.6,42.2s-19,42.2-44.6,42.2S389.5,105.9,389.4,81.7L389.4,81.7z M459.6,81.7c0-15.5-11-26.1-25.5-26.1
		s-25.5,10.6-25.5,26.1s11,26.1,25.5,26.1S459.6,97.2,459.6,81.7L459.6,81.7z M567.7,100.2c0,14.1-11.2,22.2-32.6,22.2h-42.2V40.9
		h39.8c20.4,0,30.9,8.5,30.9,21.2c0.1,7.6-4.1,14.5-10.8,17.9C561.8,82.9,567.7,89.9,567.7,100.2z M511.7,55.1v19.2h18.8
		c9.2,0,14.2-3.3,14.2-9.7s-5-9.5-14.2-9.5L511.7,55.1z M548.7,98.2c0-6.9-5.2-10.1-15-10.1h-22v20.2h22
		C543.4,108.2,548.7,105.2,548.7,98.2L548.7,98.2z M575.6,114.4l6.4-14.2c7.9,5.5,17.3,8.4,26.9,8.5c11.2,0,15.7-3.7,15.7-8.7
		c0-15.3-47.4-4.8-47.4-35.1c0-13.9,11.2-25.4,34.4-25.4c10.2,0,20.7,2.5,28.3,7.2L634.1,61c-6.9-4.1-14.6-6.3-22.6-6.4
		c-11.2,0-15.5,4.2-15.5,9.4c0,15,47.4,4.7,47.4,34.6c0,13.6-11.3,25.3-34.6,25.3C595.8,123.8,582.8,120,575.6,114.4L575.6,114.4z"
		/>
	<path class="st0" d="M201.1,137.3h2.7v8.8H215v-8.8h2.7V157H215v-8.4h-11.2v8.4h-2.7V137.3z"/>
	<path class="st0" d="M237.1,138.5c1.6,0.8,2.8,2.1,3.8,3.6c0.9,1.5,1.4,3.3,1.4,5.1s-0.5,3.5-1.4,5.1c-0.9,1.5-2.2,2.8-3.8,3.6
		c-3.2,1.8-7.2,1.8-10.4,0c-1.6-0.9-2.8-2.1-3.8-3.6c-0.9-1.5-1.4-3.3-1.4-5.1s0.5-3.5,1.4-5.1c0.9-1.5,2.2-2.8,3.7-3.6
		C229.9,136.7,233.9,136.7,237.1,138.5z M228.1,140.6c-1.2,0.7-2.1,1.6-2.8,2.7c-1.4,2.4-1.4,5.3,0,7.6c0.7,1.2,1.6,2.1,2.8,2.8
		s2.5,1,3.8,1s2.6-0.3,3.8-1c1.1-0.7,2.1-1.6,2.8-2.8c1.4-2.4,1.4-5.3,0-7.6c-0.7-1.1-1.6-2.1-2.8-2.7c-1.1-0.7-2.5-1-3.8-1
		S229.3,139.9,228.1,140.6L228.1,140.6z"/>
	<path class="st0" d="M246.1,137.3h3.2l7.2,13.8l7.1-13.8h3.2V157h-2.5v-15.7l-7,13.6h-1.7l-7-13.6V157h-2.5L246.1,137.3z"/>
	<path class="st0" d="M272.5,137.3h13.6v2.4h-11v6.1h9.8v2.4h-9.8v6.3h11.3v2.5h-14L272.5,137.3z"/>
	<path class="st0" d="M304,138.6c1.1,0.8,1.8,2.2,1.7,3.6c0,1-0.3,2-1,2.9c-0.7,0.8-1.6,1.4-2.6,1.6c1.2,0.1,2.4,0.7,3.2,1.6
		c0.8,0.9,1.2,2.1,1.2,3.3c0.1,1.5-0.6,3-1.9,3.9c-1.5,1-3.4,1.5-5.2,1.4h-8.5v-19.7h8.4C300.9,137.2,302.6,137.7,304,138.6z
		 M302,144.9c0.7-0.5,1-1.3,1-2.2c0-0.8-0.3-1.7-1-2.2c-0.8-0.6-1.8-0.8-2.8-0.7h-5.6v5.9h5.6C300.2,145.7,301.1,145.4,302,144.9
		L302,144.9z M302.6,153.7c0.8-0.5,1.3-1.4,1.2-2.4c0-0.9-0.4-1.8-1.2-2.3c-1-0.6-2.2-0.9-3.4-0.8h-5.6v6.4h5.6
		C300.4,154.6,301.5,154.3,302.6,153.7L302.6,153.7z"/>
	<path class="st0" d="M323.5,157l-3.9-6.2c-0.5,0-0.8,0-1.1,0h-5v6.2h-2.7v-19.7h7.7c2.1-0.1,4.1,0.5,5.8,1.7c1.4,1.2,2.1,3,2,4.9
		c0,1.4-0.3,2.8-1.1,4c-0.8,1.1-1.9,1.9-3.2,2.4l4.6,6.6L323.5,157z M318.5,148.4c1.4,0.1,2.8-0.3,3.9-1.1c0.9-0.8,1.4-2,1.4-3.3
		c0.1-1.2-0.4-2.4-1.4-3.2c-1.1-0.8-2.5-1.2-3.9-1.1h-5v8.6L318.5,148.4z"/>
	<path class="st0" d="M331.1,137.3h2.7V157h-2.7V137.3z"/>
	<path class="st0" d="M352.6,138.6c1.5,0.8,2.8,2,3.6,3.5c1.7,3.1,1.7,6.9,0,10c-0.9,1.5-2.1,2.7-3.7,3.5c-1.6,0.9-3.4,1.3-5.2,1.3
		h-7.9v-19.6h8C349.3,137.3,351,137.7,352.6,138.6z M351.2,153.6c1.1-0.6,2-1.5,2.6-2.6c0.7-1.1,1-2.4,1-3.8c0-1.3-0.3-2.6-1-3.8
		c-0.6-1.1-1.6-2-2.7-2.6c-1.1-0.7-2.4-1-3.8-1H342v14.8h5.4C348.8,154.5,350.1,154.2,351.2,153.6L351.2,153.6z"/>
	<path class="st0" d="M374.4,147.4h2.4v7.2c-1,0.8-2.2,1.4-3.5,1.9s-2.6,0.7-4,0.7c-1.8,0-3.6-0.4-5.2-1.3c-1.5-0.9-2.8-2.1-3.7-3.6
		c-0.9-1.5-1.4-3.3-1.4-5.1s0.5-3.5,1.4-5.1c0.9-1.5,2.2-2.8,3.8-3.6c1.6-0.9,3.4-1.3,5.3-1.3c1.4,0,2.7,0.2,4,0.7
		c1.2,0.5,2.4,1.1,3.4,2l-1.5,2c-1.6-1.5-3.7-2.3-5.8-2.3c-1.4,0-2.7,0.3-3.9,1c-1.2,0.7-2.1,1.6-2.8,2.8c-0.7,1.2-1,2.5-1,3.8
		s0.3,2.7,1,3.8c1.4,2.4,3.9,3.8,6.7,3.8c0.9,0,1.7-0.1,2.5-0.4c0.8-0.3,1.6-0.6,2.4-1.1L374.4,147.4z"/>
	<path class="st0" d="M381.9,137.3h13.6v2.4h-11v6.1h9.8v2.4h-9.8v6.3h11.3v2.5h-14L381.9,137.3z"/>
	<path class="st0" d="M421.4,138.5c1.5,0.8,2.8,2.1,3.8,3.6c0.9,1.5,1.4,3.3,1.4,5.1s-0.5,3.5-1.4,5.1c-0.9,1.5-2.2,2.8-3.8,3.6
		c-3.2,1.8-7.2,1.8-10.4,0c-1.6-0.9-2.8-2.1-3.8-3.6c-0.9-1.5-1.4-3.3-1.4-5.1s0.5-3.5,1.4-5.1c0.9-1.5,2.2-2.8,3.7-3.6
		C414.2,136.7,418.2,136.7,421.4,138.5L421.4,138.5z M412.4,140.6c-1.2,0.7-2.1,1.6-2.8,2.7c-1.4,2.4-1.4,5.3,0,7.6
		c0.7,1.2,1.6,2.1,2.8,2.8c1.2,0.7,2.5,1,3.8,1s2.6-0.3,3.8-1c1.1-0.7,2.1-1.6,2.8-2.8c1.4-2.4,1.4-5.3,0-7.6
		c-0.7-1.1-1.6-2.1-2.8-2.7c-1.1-0.7-2.5-1-3.8-1S413.6,139.9,412.4,140.6L412.4,140.6z"/>
	<path class="st0" d="M434.2,153.2c1.1,1.1,2.6,1.6,4.1,1.5c1.5,0.1,3-0.5,4.1-1.5c1-1.2,1.6-2.7,1.5-4.3v-11.6h2.7v11.6
		c0.1,2.2-0.7,4.4-2.2,6c-1.6,1.5-3.8,2.3-6.1,2.2c-2.3,0.1-4.5-0.7-6.1-2.2c-1.5-1.6-2.3-3.8-2.2-6v-11.6h2.7v11.6
		C432.6,150.5,433.1,152,434.2,153.2z"/>
	<path class="st0" d="M449.3,137.3h15.4v2.5h-6.4V157h-2.7v-17.2h-6.3V137.3z"/>
	<path class="st0" d="M488.9,138.5c1.5,0.8,2.8,2.1,3.8,3.6c0.9,1.5,1.4,3.3,1.4,5.1s-0.5,3.5-1.4,5.1c-0.9,1.5-2.2,2.8-3.8,3.6
		c-3.2,1.8-7.2,1.8-10.4,0c-1.6-0.9-2.8-2.1-3.8-3.6c-0.9-1.5-1.4-3.3-1.4-5.1s0.5-3.5,1.4-5.1c0.9-1.5,2.2-2.7,3.7-3.6
		C481.7,136.7,485.6,136.7,488.9,138.5z M479.9,140.6c-1.2,0.7-2.1,1.6-2.8,2.7c-1.4,2.4-1.4,5.3,0,7.6c0.7,1.2,1.6,2.1,2.8,2.8
		c1.2,0.7,2.5,1,3.8,1s2.6-0.3,3.8-1c1.1-0.7,2.1-1.6,2.8-2.8c1.4-2.4,1.4-5.3,0-7.6c-0.7-1.1-1.6-2.1-2.8-2.7c-1.1-0.7-2.4-1-3.8-1
		C482.4,139.6,481.1,139.9,479.9,140.6L479.9,140.6z"/>
	<path class="st0" d="M497.9,137.3h12.8v2.4h-10.1v6.5h9.1v2.4h-9.1v8.3h-2.7L497.9,137.3L497.9,137.3z"/>
	<path class="st0" d="M518.7,137.3H534v2.5h-6.3V157H525v-17.2h-6.3V137.3z"/>
	<path class="st0" d="M537.1,137.3h2.7v8.8H551v-8.8h2.7V157H551v-8.4h-11.2v8.4h-2.7V137.3z"/>
	<path class="st0" d="M559.4,137.3h13.7v2.4h-11v6.1h9.8v2.4h-9.8v6.3h11.3v2.5h-14V137.3z"/>
	<path class="st0" d="M598.2,138.6c1.1,0.8,1.8,2.2,1.7,3.6c0,1-0.3,2-1,2.9c-0.7,0.8-1.6,1.3-2.6,1.6c1.2,0.1,2.4,0.7,3.2,1.6
		c0.8,0.9,1.2,2.1,1.2,3.3c0.1,1.5-0.6,3-1.9,3.9c-1.5,1-3.4,1.5-5.2,1.4h-8.5v-19.7h8.4C595.2,137.2,596.8,137.7,598.2,138.6z
		 M596.2,144.9c0.7-0.5,1-1.3,1-2.2c0-0.8-0.3-1.6-1-2.2c-0.8-0.6-1.8-0.8-2.8-0.7h-5.6v5.9h5.6
		C594.4,145.7,595.4,145.4,596.2,144.9L596.2,144.9z M596.8,153.7c0.8-0.5,1.3-1.4,1.2-2.4c0-0.9-0.4-1.8-1.2-2.3
		c-1-0.6-2.2-0.9-3.4-0.8h-5.6v6.4h5.6C594.6,154.6,595.8,154.3,596.8,153.7L596.8,153.7z"/>
	<path class="st0" d="M618.9,138.5c1.5,0.8,2.8,2.1,3.8,3.6c0.9,1.5,1.4,3.3,1.4,5.1s-0.5,3.5-1.4,5.1c-0.9,1.5-2.2,2.8-3.8,3.6
		c-3.2,1.8-7.2,1.8-10.4,0c-1.6-0.9-2.8-2.1-3.8-3.6c-0.9-1.5-1.4-3.3-1.4-5.1s0.5-3.5,1.4-5.1c0.9-1.5,2.2-2.8,3.7-3.6
		C611.7,136.7,615.6,136.7,618.9,138.5z M609.9,140.6c-1.2,0.7-2.1,1.6-2.8,2.7c-1.4,2.4-1.4,5.3,0,7.6c0.7,1.2,1.6,2.1,2.8,2.8
		s2.5,1,3.8,1s2.6-0.3,3.8-1c1.1-0.7,2.1-1.6,2.8-2.8c1.4-2.4,1.4-5.3,0-7.6c-0.7-1.1-1.6-2.1-2.8-2.7c-1.1-0.7-2.4-1-3.8-1
		C612.4,139.6,611.1,139.9,609.9,140.6L609.9,140.6z"/>
	<path class="st0" d="M626.1,137.3h3.2l5.2,7.3l5.2-7.3h3.2l-6.7,9.4l7.2,10.2h-3.2l-5.7-7.9l-5.6,7.9h-3.2l7.2-10.1L626.1,137.3z"
		/>
</g>
<g id="Stroke">
	<line class="st1" x1="700.5" y1="60" x2="700.5" y2="140"/>
</g>
<g>
	<path class="st2" d="M845.7,119.2c0,11.5-9.3,20.8-20.8,20.8h-48.5c-11.5,0-20.8-9.3-20.8-20.8V70.7c0-11.5,9.3-20.8,20.8-20.8
		h48.5c11.5,0,20.8,9.3,20.8,20.8V119.2z"/>
	<g>
		<path class="st3" d="M818.9,75.8v-8.9c0-0.7,0.6-1.3,1.4-1.3l0,0c0.7,0,1.3,0.6,1.3,1.3l0,0v8.9c0,0.7-0.6,1.3-1.3,1.3l0,0
			C819.5,77.1,818.9,76.5,818.9,75.8L818.9,75.8z"/>
	</g>
	<g>
		<path class="st3" d="M813.2,125.4v-8c0-0.4,0.1-0.7,0.4-1l0,0c0.3-0.3,0.6-0.4,1-0.4l0,0l5.1,0l0-7.8c0-0.7,0.6-1.3,1.3-1.3l0,0
			c0.7,0,1.4,0.6,1.4,1.3l0,0v9.2c0,0.4-0.1,0.7-0.4,1l0,0c-0.3,0.3-0.6,0.4-1,0.4l0,0h-5.1v6.7c0,0.7-0.6,1.4-1.3,1.4l0,0
			C813.8,126.7,813.2,126.1,813.2,125.4L813.2,125.4z"/>
	</g>
	<g>
		<path class="st3" d="M806.4,127.4v-21.5l-7.2-4.5c-0.4-0.2-0.6-0.7-0.6-1.1l0,0l0-22.5c0-0.7,0.6-1.3,1.3-1.3l0,0
			c0.7,0,1.3,0.6,1.3,1.4l0,0l0,21.7l7.2,4.5c0.4,0.2,0.6,0.7,0.6,1.1l0,0v22.3c0,0.7-0.6,1.4-1.3,1.4l0,0
			C807,128.7,806.4,128.1,806.4,127.4L806.4,127.4z"/>
	</g>
	<g>
		<path class="st3" d="M785.8,125.5v-20.2l-4.2-11.2c-0.3-0.7,0.1-1.5,0.8-1.7l0,0c0.7-0.3,1.5,0.1,1.7,0.8l0,0l4.3,11.4l0.1,0.5
			v20.4c0,0.7-0.6,1.3-1.4,1.3l0,0C786.4,126.9,785.8,126.3,785.8,125.5L785.8,125.5z"/>
	</g>
	<g>
		<path class="st3" d="M786.5,120.8c-0.5-0.6-0.3-1.4,0.3-1.9l0,0l7.8-6v-4.8c0-0.7,0.6-1.4,1.3-1.4l0,0c0.7,0,1.3,0.6,1.3,1.4l0,0
			v5.5c0,0.4-0.2,0.8-0.5,1.1l0,0l-8.4,6.4v0c-0.2,0.2-0.5,0.3-0.8,0.3l0,0C787.1,121.3,786.7,121.2,786.5,120.8L786.5,120.8z"/>
	</g>
	<g>
		<path class="st3" d="M799.6,98.1c-0.2-0.7,0.2-1.5,0.9-1.7l0,0l9.9-2.7v-7.5c0-0.7,0.6-1.4,1.4-1.4l0,0c0.7,0,1.3,0.6,1.3,1.4l0,0
			v8.5c0,0.6-0.4,1.1-1,1.3l0,0l-10.9,3c-0.1,0-0.2,0-0.4,0l0,0C800.3,99.1,799.8,98.7,799.6,98.1L799.6,98.1z"/>
	</g>
	<g>
		<path class="st4" d="M827.6,129.5l-55.1,0c-0.6,0-1.2-0.2-1.7-0.7l0,0c-0.4-0.5-0.7-1.1-0.7-1.7l0,0l0-32.5l-7,0
			c-1,0-1.9-0.6-2.2-1.5l0,0c-0.4-0.9-0.1-2,0.7-2.6l0,0l36.6-32c0.9-0.8,2.2-0.8,3.1,0l0,0l36.7,32c0.7,0.7,1,1.7,0.7,2.6l0,0
			c-0.3,0.9-1.2,1.5-2.2,1.5l0,0l-10,0c-1.3,0-2.4-1.1-2.4-2.4l0,0c0-1.3,1.1-2.4,2.4-2.4l0,0h3.7l-30.3-26.5l-30.2,26.4l3,0
			c0.6,0,1.2,0.2,1.7,0.7l0,0c0.5,0.4,0.7,1,0.7,1.7l0,0l0,32.5l52.7,0h0c1.3,0,2.4,1.1,2.4,2.4l0,0
			C830,128.5,829,129.5,827.6,129.5L827.6,129.5C827.7,129.5,827.7,129.5,827.6,129.5L827.6,129.5z"/>
	</g>
	<radialGradient id="SVGID_1_" cx="823.2825" cy="92.1066" r="3.0905" gradientUnits="userSpaceOnUse">
		<stop  offset="0" style="stop-color:#FBEB79"/>
		<stop  offset="1" style="stop-color:#E36828"/>
	</radialGradient>
	<path class="st5" d="M826.4,92.1c0-1.7-1.4-3.1-3.1-3.1c-1.7,0-3.1,1.4-3.1,3.1c0,1.7,1.4,3.1,3.1,3.1
		C825,95.2,826.4,93.8,826.4,92.1z"/>
	<radialGradient id="SVGID_2_" cx="828.8387" cy="126.8439" r="3.0908" gradientUnits="userSpaceOnUse">
		<stop  offset="0" style="stop-color:#FBEB79"/>
		<stop  offset="1" style="stop-color:#E36828"/>
	</radialGradient>
	<path class="st6" d="M831.9,126.8c0-1.7-1.4-3.1-3.1-3.1c-1.7,0-3.1,1.4-3.1,3.1c0,1.7,1.4,3.1,3.1,3.1
		C830.5,129.9,831.9,128.5,831.9,126.8z"/>
	<radialGradient id="SVGID_3_" cx="811.9019" cy="86.8064" r="3.0899" gradientUnits="userSpaceOnUse">
		<stop  offset="0" style="stop-color:#FBEB79"/>
		<stop  offset="1" style="stop-color:#E36828"/>
	</radialGradient>
	<path class="st7" d="M815,86.8c0-1.7-1.4-3.1-3.1-3.1c-1.7,0-3.1,1.4-3.1,3.1c0,1.7,1.4,3.1,3.1,3.1C813.6,89.9,815,88.5,815,86.8z
		"/>
	<radialGradient id="SVGID_4_" cx="799.6167" cy="78.0649" r="3.0889" gradientUnits="userSpaceOnUse">
		<stop  offset="0" style="stop-color:#FBEB79"/>
		<stop  offset="1" style="stop-color:#E36828"/>
	</radialGradient>
	<path class="st8" d="M802.7,78.1c0-1.7-1.4-3.1-3.1-3.1c-1.7,0-3.1,1.4-3.1,3.1c0,1.7,1.4,3.1,3.1,3.1
		C801.3,81.2,802.7,79.8,802.7,78.1z"/>
	<radialGradient id="SVGID_5_" cx="820.2752" cy="66.2783" r="3.0903" gradientUnits="userSpaceOnUse">
		<stop  offset="0" style="stop-color:#FBEB79"/>
		<stop  offset="1" style="stop-color:#E36828"/>
	</radialGradient>
	<path class="st9" d="M823.4,66.3c0-1.7-1.4-3.1-3.1-3.1c-1.7,0-3.1,1.4-3.1,3.1c0,1.7,1.4,3.1,3.1,3.1
		C822,69.4,823.4,68,823.4,66.3z"/>
	<radialGradient id="SVGID_6_" cx="821.0997" cy="106.602" r="3.0911" gradientUnits="userSpaceOnUse">
		<stop  offset="0" style="stop-color:#FBEB79"/>
		<stop  offset="1" style="stop-color:#E36828"/>
	</radialGradient>
	<path class="st10" d="M824.2,106.6c0-1.7-1.4-3.1-3.1-3.1c-1.7,0-3.1,1.4-3.1,3.1c0,1.7,1.4,3.1,3.1,3.1
		C822.8,109.7,824.2,108.3,824.2,106.6z"/>
	<radialGradient id="SVGID_7_" cx="795.9925" cy="105.4036" r="3.0891" gradientUnits="userSpaceOnUse">
		<stop  offset="0" style="stop-color:#FBEB79"/>
		<stop  offset="1" style="stop-color:#E36828"/>
	</radialGradient>
	<path class="st11" d="M799.1,105.4c0-1.7-1.4-3.1-3.1-3.1c-1.7,0-3.1,1.4-3.1,3.1c0,1.7,1.4,3.1,3.1,3.1
		C797.7,108.5,799.1,107.1,799.1,105.4z"/>
	<radialGradient id="SVGID_8_" cx="782.4644" cy="91.7598" r="3.0892" gradientUnits="userSpaceOnUse">
		<stop  offset="0" style="stop-color:#FBEB79"/>
		<stop  offset="1" style="stop-color:#E36828"/>
	</radialGradient>
	<path class="st12" d="M785.6,91.8c0-1.7-1.4-3.1-3.1-3.1c-1.7,0-3.1,1.4-3.1,3.1c0,1.7,1.4,3.1,3.1,3.1
		C784.2,94.8,785.6,93.5,785.6,91.8z"/>
</g>
<g>
	<path class="st13" d="M892.2,66.3v20.6H916V66.3h6.4v49.2H916V92.4h-23.8v23.1h-6.4V66.3H892.2z"/>
	<path class="st13" d="M964.9,97.5c0,13.1-9.1,18.8-17.6,18.8c-9.6,0-16.9-7-16.9-18.2c0-11.8,7.7-18.8,17.5-18.8
		C958,79.3,964.9,86.7,964.9,97.5z M936.8,97.9c0,7.7,4.5,13.6,10.7,13.6c6.1,0,10.7-5.8,10.7-13.7c0-6-3-13.6-10.6-13.6
		S936.8,91.2,936.8,97.9z"/>
	<path class="st13" d="M972.6,89.7c0-3.7-0.1-6.6-0.3-9.6h5.6l0.3,5.7h0.2c2-3.4,5.3-6.5,11.1-6.5c4.8,0,8.5,2.9,10,7.1h0.1
		c1.1-2,2.5-3.5,3.9-4.6c2.1-1.6,4.5-2.5,7.8-2.5c4.7,0,11.6,3.1,11.6,15.3v20.8h-6.3v-20c0-6.8-2.5-10.9-7.7-10.9
		c-3.7,0-6.5,2.7-7.6,5.8c-0.3,0.9-0.5,2-0.5,3.2v21.8h-6.3V94.3c0-5.6-2.5-9.7-7.4-9.7c-4,0-6.9,3.2-8,6.4c-0.4,0.9-0.5,2-0.5,3.1
		v21.3h-6.3V89.7z"/>
	<path class="st13" d="M1036.7,99c0.1,8.7,5.7,12.3,12.1,12.3c4.6,0,7.4-0.8,9.8-1.8l1.1,4.6c-2.3,1-6.1,2.2-11.8,2.2
		c-10.9,0-17.4-7.2-17.4-17.8s6.3-19.1,16.6-19.1c11.5,0,14.6,10.2,14.6,16.7c0,1.3-0.1,2.3-0.2,3H1036.7z M1055.6,94.4
		c0.1-4.1-1.7-10.4-8.9-10.4c-6.5,0-9.4,6-9.9,10.4H1055.6z"/>
	<path class="st14" d="M1069.4,89.7c0-3.7-0.1-6.6-0.3-9.6h5.6l0.3,5.7h0.2c2-3.4,5.3-6.5,11.1-6.5c4.8,0,8.5,2.9,10,7.1h0.1
		c1.1-2,2.5-3.5,3.9-4.6c2.1-1.6,4.5-2.5,7.8-2.5c4.7,0,11.6,3.1,11.6,15.3v20.8h-6.3v-20c0-6.8-2.5-10.9-7.7-10.9
		c-3.7,0-6.5,2.7-7.6,5.8c-0.3,0.9-0.5,2-0.5,3.2v21.8h-6.3V94.3c0-5.6-2.5-9.7-7.4-9.7c-4,0-6.9,3.2-8,6.4c-0.4,0.9-0.5,2-0.5,3.1
		v21.3h-6.3V89.7z"/>
	<path class="st14" d="M1148.1,115.5l-0.5-4.5h-0.2c-2,2.8-5.8,5.3-10.8,5.3c-7.2,0-10.8-5-10.8-10.2c0-8.5,7.6-13.2,21.3-13.2v-0.7
		c0-2.9-0.8-8.2-8-8.2c-3.3,0-6.7,1-9.2,2.6l-1.5-4.2c2.9-1.9,7.2-3.1,11.6-3.1c10.8,0,13.4,7.4,13.4,14.5V107
		c0,3.1,0.1,6.1,0.6,8.5H1148.1z M1147.1,97.5c-7-0.1-15,1.1-15,8c0,4.2,2.8,6.1,6.1,6.1c4.6,0,7.5-2.9,8.5-5.9
		c0.2-0.7,0.4-1.4,0.4-2V97.5z"/>
	<path class="st14" d="M1161.9,89.7c0-3.7-0.1-6.6-0.3-9.6h5.7l0.4,5.8h0.1c1.8-3.4,5.8-6.6,11.7-6.6c4.9,0,12.5,2.9,12.5,15v21.1
		h-6.4V95.1c0-5.7-2.1-10.4-8.2-10.4c-4.2,0-7.5,3-8.6,6.6c-0.3,0.8-0.4,1.9-0.4,3v21.3h-6.4V89.7z"/>
	<path class="st14" d="M1220.2,115.5l-0.5-4.5h-0.2c-2,2.8-5.8,5.3-10.8,5.3c-7.2,0-10.8-5-10.8-10.2c0-8.5,7.6-13.2,21.3-13.2v-0.7
		c0-2.9-0.8-8.2-8-8.2c-3.3,0-6.7,1-9.2,2.6l-1.5-4.2c2.9-1.9,7.2-3.1,11.6-3.1c10.8,0,13.4,7.4,13.4,14.5V107
		c0,3.1,0.1,6.1,0.6,8.5H1220.2z M1219.2,97.5c-7-0.1-15,1.1-15,8c0,4.2,2.8,6.1,6.1,6.1c4.6,0,7.5-2.9,8.5-5.9
		c0.2-0.7,0.4-1.4,0.4-2V97.5z"/>
	<path class="st14" d="M1264.5,80.1c-0.1,2.6-0.3,5.4-0.3,9.7v20.5c0,8.1-1.6,13.1-5,16.1c-3.4,3.2-8.4,4.2-12.9,4.2
		c-4.2,0-8.9-1-11.8-2.9l1.6-4.9c2.3,1.5,6,2.8,10.4,2.8c6.6,0,11.4-3.4,11.4-12.3v-3.9h-0.1c-2,3.3-5.8,5.9-11.3,5.9
		c-8.8,0-15-7.5-15-17.2c0-12,7.8-18.8,15.9-18.8c6.1,0,9.5,3.2,11,6.1h0.1l0.3-5.3H1264.5z M1257.8,94.1c0-1.1-0.1-2-0.4-2.9
		c-1.2-3.7-4.3-6.8-9-6.8c-6.1,0-10.5,5.2-10.5,13.4c0,6.9,3.5,12.7,10.4,12.7c3.9,0,7.5-2.5,8.9-6.6c0.4-1.1,0.5-2.3,0.5-3.4V94.1z
		"/>
	<path class="st14" d="M1276.6,99c0.1,8.7,5.7,12.3,12.1,12.3c4.6,0,7.4-0.8,9.8-1.8l1.1,4.6c-2.3,1-6.1,2.2-11.8,2.2
		c-10.9,0-17.4-7.2-17.4-17.8s6.3-19.1,16.6-19.1c11.5,0,14.6,10.2,14.6,16.7c0,1.3-0.1,2.3-0.2,3H1276.6z M1295.5,94.4
		c0.1-4.1-1.7-10.4-8.9-10.4c-6.5,0-9.4,6-9.9,10.4H1295.5z"/>
	<path class="st14" d="M1307.8,91.2c0-4.2-0.1-7.7-0.3-11h5.6l0.2,6.9h0.3c1.6-4.7,5.5-7.7,9.8-7.7c0.7,0,1.2,0.1,1.8,0.2v6.1
		c-0.7-0.1-1.3-0.2-2.2-0.2c-4.5,0-7.7,3.4-8.6,8.3c-0.1,0.9-0.3,1.9-0.3,3v18.8h-6.4V91.2z"/>
	<path class="st13" d="M1341.5,115.5v-3.9l5-4.9c12.1-11.5,17.6-17.7,17.7-24.8c0-4.8-2.3-9.3-9.4-9.3c-4.3,0-7.9,2.2-10.1,4l-2-4.5
		c3.3-2.8,8-4.8,13.4-4.8c10.2,0,14.5,7,14.5,13.8c0,8.8-6.4,15.9-16.4,25.5l-3.8,3.5v0.1h21.3v5.3H1341.5z"/>
</g>
</svg>
