<svg id="aa046b77-afed-4bc1-ab06-002381e2b714" data-name="Ebene 1" xmlns="http://www.w3.org/2000/svg" viewBox="0 0 1680 200"><defs><style>.b70832da-7b5a-4a3a-9663-c7b0cc8252e5{fill:none;stroke:#ccc;stroke-miterlimit:10;}.af8fd4b3-1c32-4634-a18f-540555d7eb7d{fill:#f9b213;}.fc86a90c-f41c-4490-a1d7-4fb5a529b69a{fill:#ccc;}</style></defs><title>HOOBS_x_sonos-multiroo </title><g id="adfdfb6f-56f6-4483-ace6-6686a101bdf5" data-name="Stroke"><line class="b70832da-7b5a-4a3a-9663-c7b0cc8252e5" x1="700.5" y1="60" x2="700.5" y2="140"/></g><path class="af8fd4b3-1c32-4634-a18f-540555d7eb7d" d="M154.17,41.5h-78A19.5,19.5,0,0,0,56.67,61v78a19.5,19.5,0,0,0,19.5,19.5h78a19.5,19.5,0,0,0,19.5-19.5V61A19.5,19.5,0,0,0,154.17,41.5Zm2,59.26a3.24,3.24,0,0,1-4.59,0,3.21,3.21,0,0,1-.95-2.09l-8.82-8.82V69.92a1.63,1.63,0,0,0-1.63-1.63h-3.25a1.63,1.63,0,0,0-1.62,1.63V83.6l-4.88-5.13-15-15a1.62,1.62,0,0,0-2.3,0L78.59,97.89a1.64,1.64,0,0,0,0,2.3l2.3,2.3a1.64,1.64,0,0,0,2.3,0l26.43-26.43a6.49,6.49,0,0,1,9.19,0l26.43,26.43a6.51,6.51,0,0,1,0,9.19l-2.3,2.3a6.49,6.49,0,0,1-9.19,0L115.36,95.59a1.64,1.64,0,0,0-2.3,0L94.68,114a1.62,1.62,0,0,0,0,2.3l2.3,2.29a1.61,1.61,0,0,0,2.29,0l10.35-10.34a6.49,6.49,0,0,1,9.19,0l10.34,10.34a6.51,6.51,0,0,1,0,9.2L118,138.89a3.21,3.21,0,0,1-1,2.09,3.25,3.25,0,1,1-2.5-5.54l11.12-11.12a1.62,1.62,0,0,0,0-2.3l-10.34-10.34a1.62,1.62,0,0,0-2.3,0L102.72,122a6.49,6.49,0,0,1-9.19,0l-2.3-2.3a6.49,6.49,0,0,1,0-9.19l18.39-18.38a6.49,6.49,0,0,1,9.19,0l18.38,18.38a1.64,1.64,0,0,0,2.3,0l2.3-2.3a1.64,1.64,0,0,0,0-2.3L115.36,79.51a1.62,1.62,0,0,0-2.3,0L86.63,105.93a6.49,6.49,0,0,1-9.19,0l-2.3-2.29a6.52,6.52,0,0,1,0-9.2L109.62,60a6.49,6.49,0,0,1,9.19,0l11.6,11.61V69.92a6.5,6.5,0,0,1,6.5-6.5h3.25a6.5,6.5,0,0,1,6.5,6.5V87.83l7.4,7.39a3.25,3.25,0,0,1,2.09,5.54Z"/><path class="af8fd4b3-1c32-4634-a18f-540555d7eb7d" d="M612.42,61H624.1v3.65h-3.71v11H616.1v-11h-3.68Zm13.09,0h4.72l3.34,7.78L637,61h4.72V75.62h-3.85V67.39l-2.77,6.81h-2.92l-2.77-6.81v8.23h-3.85Z"/><path class="af8fd4b3-1c32-4634-a18f-540555d7eb7d" d="M271.65,61v78H254.31V107h-34v32H202.92V61h17.35V91.75h34V61Zm10.65,39c0-22.41,16.77-39,39.65-39s39.64,16.48,39.64,39S344.72,139,322,139,282.3,122.41,282.3,100Zm62.09.39c0-14.19-9.63-23.9-22.44-23.9s-22.45,9.71-22.45,23.9,9.64,23.89,22.45,23.89S344.39,114.57,344.39,100.39ZM368.8,100c0-22.41,16.77-39,39.65-39s39.64,16.48,39.64,39-16.87,39-39.64,39S368.8,122.41,368.8,100Zm62.09.39c0-14.19-9.63-23.9-22.44-23.9S386,86.2,386,100.39s9.64,23.89,22.45,23.89S430.89,114.57,430.89,100.39Zm96.58,17.33c0,13.48-10.28,21.28-30,21.28H458.74V61h36.61c18.74,0,28.38,8.13,28.38,20.28a18.86,18.86,0,0,1-10,17.16C522.12,101.23,527.47,107.91,527.47,117.72ZM476.71,76.06V93.67h16.5c8.1,0,12.5-3,12.5-8.86s-4.4-8.75-12.5-8.75Zm32.59,39.47c0-6.29-4.61-9.28-13.22-9.28H476.71v18.46h19.37C504.69,124.71,509.3,121.93,509.3,115.53Zm23.38,14.74,5.69-13.14A41.52,41.52,0,0,0,562.28,125c9.94,0,14-3.44,14-8.08,0-14.11-42.13-4.41-42.13-32.42,0-12.82,9.94-23.49,30.53-23.49,9.11,0,18.43,2.26,25.16,6.68l-5.18,13.25A39.67,39.67,0,0,0,564.56,75c-9.94,0-13.77,3.87-13.77,8.61,0,13.9,42.13,4.31,42.13,32,0,12.61-10,23.38-30.74,23.38C550.69,139,539.1,135.44,532.68,130.27Z"/><g id="ab50ce6f-54a5-4168-a500-618f152ad2a2" data-name="sonos"><path id="a56b140b-a648-4b80-9997-af8a214aaa5c" data-name="logo-sonos" class="fc86a90c-f41c-4490-a1d7-4fb5a529b69a" d="M1108.81,44.63h21.32V158.77l-72-67.06v63.6h-21.32V41.51l72,67.16Zm-105.72,55.53A59.75,59.75,0,1,1,943.34,40.4,59.74,59.74,0,0,1,1003.09,100.16Zm-21.9,0a38.18,38.18,0,0,0-38-38.33c-20.93,0-37.84,17.2-37.84,38.33s17,38.34,37.84,38.34a38.17,38.17,0,0,0,37.94-38.34Zm-134,1C841.52,96.83,834,93.38,823,89.82c-21.62-6.91-21.62-12.29-21.62-15,0-6.15,6.82-12.49,18.35-12.49a34.27,34.27,0,0,1,20,6.92l1.54,1.15,17.19-11.63-1.94-2.26a50.47,50.47,0,0,0-36.88-16.14c-11.06,0-21.23,3.56-28.63,10a32.61,32.61,0,0,0-11.62,24.5c0,9.81,4.32,18.07,12.77,24.5,5.67,4.32,13.16,7.78,24.21,11.33C838,117.53,838,123,838,125.7c0,6.15-6.82,12.49-18.34,12.49a34.36,34.36,0,0,1-20-6.92l-1.54-1.16-17.2,11.64,1.93,2.2a50.48,50.48,0,0,0,36.79,16c11,0,21.23-3.55,28.62-10a32.69,32.69,0,0,0,11.64-24.44c0-9.69-4.22-17.85-12.67-24.39Zm316.89-.48a59.75,59.75,0,1,1,59.78,59.72h0a59.83,59.83,0,0,1-59.73-59.76Zm21.81,0c0,21.14,17,38.34,37.85,38.34s37.85-17.2,37.85-38.34-17-38.34-37.85-38.34-37.85,17.2-37.85,38.33Zm134-1.06c5.67,4.33,13.16,7.78,24.21,11.34,21.61,6.92,21.61,12.3,21.61,15,0,6.15-6.82,12.49-18.35,12.49a34.43,34.43,0,0,1-20-6.92l-1.53-1.15L1308.64,142l1.91,2.2a50.48,50.48,0,0,0,36.8,16c11,0,21.22-3.55,28.62-10a32.51,32.51,0,0,0,11.63-24.49c0-9.8-4.33-18.07-12.78-24.5-5.67-4.33-13.16-7.79-24.21-11.34C1329,83,1329,77.58,1329,74.88c0-6.14,6.82-12.48,18.34-12.48a34.4,34.4,0,0,1,20,6.91l1.53,1.15,17.2-11.62-1.92-2.21a50.56,50.56,0,0,0-36.8-16c-11,0-21.22,3.55-28.62,10a32.76,32.76,0,0,0-11.62,24.51c.09,9.8,4.32,18.06,12.77,24.5Z"/></g><path class="fc86a90c-f41c-4490-a1d7-4fb5a529b69a" d="M1462.37,40.63l.38,5.16q4.9-6,13.25-6,8.89,0,12.22,7,4.86-7,13.84-7,7.5,0,11.16,4.37t3.66,13.13V86.71h-12.35V57.33c0-2.62-.51-4.52-1.53-5.73s-2.83-1.81-5.41-1.81a7.69,7.69,0,0,0-7.67,5.28l0,31.64h-12.31V57.37q0-4-1.58-5.79c-1-1.2-2.83-1.79-5.36-1.79a8,8,0,0,0-7.58,4.34V86.71h-12.31V40.63Z"/><path class="fc86a90c-f41c-4490-a1d7-4fb5a529b69a" d="M1552.88,82q-4.55,5.53-12.6,5.53-7.41,0-11.31-4.26t-4-12.47V40.63h12.31V70.44q0,7.2,6.56,7.2,6.26,0,8.6-4.35V40.63h12.35V86.71h-11.59Z"/><path class="fc86a90c-f41c-4490-a1d7-4fb5a529b69a" d="M1586,86.71h-12.35V21.3H1586Z"/><path class="fc86a90c-f41c-4490-a1d7-4fb5a529b69a" d="M1609.86,29.3V40.63h7.87v9h-7.87v23a5.45,5.45,0,0,0,1,3.66c.65.74,1.9,1.11,3.74,1.11a19.45,19.45,0,0,0,3.62-.3v9.33a25.55,25.55,0,0,1-7.45,1.1q-12.95,0-13.2-13.07V49.66h-6.73v-9h6.73V29.3Z"/><path class="fc86a90c-f41c-4490-a1d7-4fb5a529b69a" d="M1623.46,28.71a6.07,6.07,0,0,1,1.85-4.56,8,8,0,0,1,10.07,0,6,6,0,0,1,1.88,4.56,6.06,6.06,0,0,1-1.9,4.6,7.89,7.89,0,0,1-10,0A6.05,6.05,0,0,1,1623.46,28.71Zm13.07,58h-12.35V40.63h12.35Z"/><path class="fc86a90c-f41c-4490-a1d7-4fb5a529b69a" d="M1471.29,126.17a34.73,34.73,0,0,0-4.43-.34q-7,0-9.15,4.73v30.15H1445.4V114.63H1457l.34,5.5q3.71-6.34,10.27-6.35a13.18,13.18,0,0,1,3.83.55Z"/><path class="fc86a90c-f41c-4490-a1d7-4fb5a529b69a" d="M1472.71,137.25a27.38,27.38,0,0,1,2.64-12.23,19.37,19.37,0,0,1,7.61-8.3,22.12,22.12,0,0,1,11.51-2.94q9.33,0,15.23,5.71t6.58,15.5l.08,3.15q0,10.61-5.92,17t-15.88,6.41q-10,0-15.91-6.39t-5.94-17.37Zm12.31.87q0,6.57,2.47,10a8.87,8.87,0,0,0,14,.05q2.52-3.44,2.52-11,0-6.43-2.52-10a8.16,8.16,0,0,0-7.07-3.54,8,8,0,0,0-7,3.52Q1485,130.75,1485,138.12Z"/><path class="fc86a90c-f41c-4490-a1d7-4fb5a529b69a" d="M1521,137.25a27.38,27.38,0,0,1,2.64-12.23,19.34,19.34,0,0,1,7.6-8.3,22.18,22.18,0,0,1,11.52-2.94q9.33,0,15.23,5.71t6.57,15.5l.09,3.15q0,10.61-5.92,17t-15.88,6.41q-10,0-15.91-6.39T1521,137.8Zm12.31.87q0,6.57,2.47,10a8.87,8.87,0,0,0,14,.05q2.52-3.44,2.51-11,0-6.43-2.51-10a8.17,8.17,0,0,0-7.07-3.54,8,8,0,0,0-7,3.52Q1533.29,130.75,1533.29,138.12Z"/><path class="fc86a90c-f41c-4490-a1d7-4fb5a529b69a" d="M1582.71,114.63l.38,5.16q4.89-6,13.24-6,8.91,0,12.22,7,4.86-7,13.84-7,7.5,0,11.16,4.37t3.66,13.13v29.43h-12.35V131.33c0-2.62-.51-4.52-1.53-5.73s-2.82-1.81-5.41-1.81a7.68,7.68,0,0,0-7.66,5.28l0,31.64H1598V131.37q0-4-1.57-5.79c-1.05-1.2-2.84-1.79-5.37-1.79a8,8,0,0,0-7.58,4.34v32.58h-12.31V114.63Z"/></svg>