<svg id="efc4c349-4794-4147-a7b6-e6cb89d6bbda" data-name="Ebene 1" xmlns="http://www.w3.org/2000/svg" viewBox="0 0 1680 200"><defs><style>.b154c424-b28b-4896-87c3-86b6947ad77a{fill:none;stroke:#ccc;stroke-miterlimit:10;}.bc1aa37e-473d-4f11-be23-b89af67c3e2d{fill:#f9b213;}.a6c5287a-4920-43a8-8213-d06bb46abd25{fill:#ccc;}</style></defs><title>HOOBS_x_homewizard</title><g id="ef4a9f80-cde5-4bfb-87cc-1d42dee41b14" data-name="Stroke"><line class="b154c424-b28b-4896-87c3-86b6947ad77a" x1="700.5" y1="60" x2="700.5" y2="140"/></g><path class="bc1aa37e-473d-4f11-be23-b89af67c3e2d" d="M154.17,41.5h-78A19.5,19.5,0,0,0,56.67,61v78a19.5,19.5,0,0,0,19.5,19.5h78a19.5,19.5,0,0,0,19.5-19.5V61A19.5,19.5,0,0,0,154.17,41.5Zm2,59.26a3.24,3.24,0,0,1-4.59,0,3.21,3.21,0,0,1-.95-2.09l-8.82-8.82V69.92a1.63,1.63,0,0,0-1.63-1.63h-3.25a1.63,1.63,0,0,0-1.62,1.63V83.6l-4.88-5.13-15-15a1.62,1.62,0,0,0-2.3,0L78.59,97.89a1.64,1.64,0,0,0,0,2.3l2.3,2.3a1.64,1.64,0,0,0,2.3,0l26.43-26.43a6.49,6.49,0,0,1,9.19,0l26.43,26.43a6.51,6.51,0,0,1,0,9.19l-2.3,2.3a6.49,6.49,0,0,1-9.19,0L115.36,95.59a1.64,1.64,0,0,0-2.3,0L94.68,114a1.62,1.62,0,0,0,0,2.3l2.3,2.29a1.61,1.61,0,0,0,2.29,0l10.35-10.34a6.49,6.49,0,0,1,9.19,0l10.34,10.34a6.51,6.51,0,0,1,0,9.2L118,138.89a3.21,3.21,0,0,1-1,2.09,3.25,3.25,0,1,1-2.5-5.54l11.12-11.12a1.62,1.62,0,0,0,0-2.3l-10.34-10.34a1.62,1.62,0,0,0-2.3,0L102.72,122a6.49,6.49,0,0,1-9.19,0l-2.3-2.3a6.49,6.49,0,0,1,0-9.19l18.39-18.38a6.49,6.49,0,0,1,9.19,0l18.38,18.38a1.64,1.64,0,0,0,2.3,0l2.3-2.3a1.64,1.64,0,0,0,0-2.3L115.36,79.51a1.62,1.62,0,0,0-2.3,0L86.63,105.93a6.49,6.49,0,0,1-9.19,0l-2.3-2.29a6.52,6.52,0,0,1,0-9.2L109.62,60a6.49,6.49,0,0,1,9.19,0l11.6,11.61V69.92a6.5,6.5,0,0,1,6.5-6.5h3.25a6.5,6.5,0,0,1,6.5,6.5V87.83l7.4,7.39a3.25,3.25,0,0,1,2.09,5.54Z"/><path class="bc1aa37e-473d-4f11-be23-b89af67c3e2d" d="M612.42,61H624.1v3.65h-3.71v11H616.1v-11h-3.68Zm13.09,0h4.72l3.34,7.78L637,61h4.72V75.62h-3.85V67.39l-2.77,6.81h-2.92l-2.77-6.81v8.23h-3.85Z"/><path class="bc1aa37e-473d-4f11-be23-b89af67c3e2d" d="M271.65,61v78H254.31V107h-34v32H202.92V61h17.35V91.75h34V61Zm10.65,39c0-22.41,16.77-39,39.65-39s39.64,16.48,39.64,39S344.72,139,322,139,282.3,122.41,282.3,100Zm62.09.39c0-14.19-9.63-23.9-22.44-23.9s-22.45,9.71-22.45,23.9,9.64,23.89,22.45,23.89S344.39,114.57,344.39,100.39ZM368.8,100c0-22.41,16.77-39,39.65-39s39.64,16.48,39.64,39-16.87,39-39.64,39S368.8,122.41,368.8,100Zm62.09.39c0-14.19-9.63-23.9-22.44-23.9S386,86.2,386,100.39s9.64,23.89,22.45,23.89S430.89,114.57,430.89,100.39Zm96.58,17.33c0,13.48-10.28,21.28-30,21.28H458.74V61h36.61c18.74,0,28.38,8.13,28.38,20.28a18.86,18.86,0,0,1-10,17.16C522.12,101.23,527.47,107.91,527.47,117.72ZM476.71,76.06V93.67h16.5c8.1,0,12.5-3,12.5-8.86s-4.4-8.75-12.5-8.75Zm32.59,39.47c0-6.29-4.61-9.28-13.22-9.28H476.71v18.46h19.37C504.69,124.71,509.3,121.93,509.3,115.53Zm23.38,14.74,5.69-13.14A41.52,41.52,0,0,0,562.28,125c9.94,0,14-3.44,14-8.08,0-14.11-42.13-4.41-42.13-32.42,0-12.82,9.94-23.49,30.53-23.49,9.11,0,18.43,2.26,25.16,6.68l-5.18,13.25A39.67,39.67,0,0,0,564.56,75c-9.94,0-13.77,3.87-13.77,8.61,0,13.9,42.13,4.31,42.13,32,0,12.61-10,23.38-30.74,23.38C550.69,139,539.1,135.44,532.68,130.27Z"/><g id="bfa2548d-9191-4025-b3b1-b6c90362470b" data-name="homewizard"><path class="a6c5287a-4920-43a8-8213-d06bb46abd25" d="M922.64,86.16c-4.6-2.81-9.2-5.6-13.79-8.42Q883,61.93,857.23,46.05a1.48,1.48,0,0,0-2,.12l-58,42c-.31.22-.69.37-.82.7h11.92c1.92,0,1.92-.08,1.92,1.89v9.36c.63.09.76-.38,1-.63a6.91,6.91,0,0,1,11.51,3,18,18,0,0,1,.53,5.22c.05,3.11.09,6.23.19,9.34,0,.78-.16,1.1-1,1.07-1.4-.06-2.81,0-4.22,0-.8,0-1.14-.12-1.13-1,0-3.38-.1-6.76-.17-10.13a8.11,8.11,0,0,0-.18-1.7,2.88,2.88,0,0,0-3.13-2.58,3.11,3.11,0,0,0-3.12,2.84c-.15,1.87,0,3.76,0,5.65,0,2.06,0,4.13.08,6.19,0,.67-.17.93-.88.92-1.49,0-3,0-4.48.06-.87,0-1-.31-1-1.07-.06-6.84-.16-13.69-.24-20.54,0-2.49,0-2.48-2.52-2.46l-19.36.17a2.93,2.93,0,0,1-1.46-.27l3.67-2.67Q819.65,66,855,40.42a1.57,1.57,0,0,1,2.15,0q11.31,7.84,22.68,15.6c.31.21.64.41,1.16.74,0-2,0-3.72,0-5.49,0-.89.26-1.11,1.1-1.11q6.21,0,12.4-.15c1,0,1,.48,1,1.21,0,4.88.15,9.75.17,14.62a1.82,1.82,0,0,0,.94,1.69q11.7,8,23.35,16c1.11.76,2.16,1.59,3.24,2.39C923.17,86.35,923,86.35,922.64,86.16Z"/><path class="a6c5287a-4920-43a8-8213-d06bb46abd25" d="M783.68,158.63a195.17,195.17,0,0,1,20.38-5.24,277.68,277.68,0,0,1,60.32-5.77,264.9,264.9,0,0,1,67.67,9.2c.29.08.58.18.87.28,0,.51-.31.34-.58.29l-15.28-2c-8.71-1.07-17.46-1.77-26.22-2.27-10.09-.57-20.18-.87-30.27-.77a482.05,482.05,0,0,0-48.35,2.83q-13.56,1.48-27,3.76c-.51.09-1,.4-1.53.25a.39.39,0,0,1,0-.55Z"/><path class="a6c5287a-4920-43a8-8213-d06bb46abd25" d="M857.62,99.88c3.78-4.57,9.91-3.51,11.64.19.42-.11.58-.51.84-.79A7.33,7.33,0,0,1,878,97c3,.9,4.21,3.36,4.53,6.21.51,4.45.22,8.94.34,13.41,0,.68-.36.68-.83.68-1.4,0-2.81,0-4.21.06-.86,0-1.11-.23-1.11-1.1,0-3.29-.09-6.58-.15-9.87a11.72,11.72,0,0,0-.11-1.57c-.32-2-1.38-3-2.92-3a3.09,3.09,0,0,0-3,3.11c-.13,1.7,0,3.42,0,5.13,0,2.14,0,4.29.12,6.44,0,.76-.25,1-1,1-1.45,0-2.9,0-4.34.06-.74,0-.87-.29-.87-.93,0-3.33-.08-6.67-.11-10a8.45,8.45,0,0,0-.34-2.6,2.67,2.67,0,0,0-2.22-2A2.87,2.87,0,0,0,859,103.4a4.59,4.59,0,0,0-.7,2.89c.06,3.38,0,6.76.15,10.13,0,1-.25,1.35-1.23,1.32h-3.95c-.71,0-1-.14-1-.93q-.12-9.28-.35-18.55c0-.7.24-.82.82-.79s1.06,0,1.58,0a7,7,0,0,1,2.61.08C857.78,97.94,857.16,99.17,857.62,99.88Z"/><path class="a6c5287a-4920-43a8-8213-d06bb46abd25" d="M822.45,134.94c1.2-4.54,2.43-9.07,3.56-13.62.26-1,.61-1.42,1.74-1.37,2.28.11,2.27,0,1.65,2.29l-6.72,24.47c-.13.49-.29,1-.44,1.45h-.37c-2.11-7.88-4.22-15.76-6.42-24a90.17,90.17,0,0,1-2.48,8.73c-.7,2.09-1.41,4.16-2,6.27a1.29,1.29,0,0,1-1.49,1c-2.21,0-2.21,0-2.89-2.13-1.74-5.53-3.46-11-5.25-16.55-.3-.93-.33-1.3.85-1.28,2.52,0,2.53,0,3.22,2.43,1.2,4.26,2.45,8.51,3.42,12.84.06.28.19.56.33,1,1.31-5.27,3-10.24,4.45-15.3.35-1.23,1.09-1.12,2-1.12s1.56-.09,1.92,1.14c1.39,4.75,3,9.45,4.45,14.17a.54.54,0,0,1,.15.6A9,9,0,0,1,822.45,134.94Z"/><path class="a6c5287a-4920-43a8-8213-d06bb46abd25" d="M846,136.74h9.65c1.7,0,2.38.9,1.86,2.55-.13.44-.43.36-.72.37l-14.61.19c-.33,0-.81.14-.88-.34a2.91,2.91,0,0,1,.35-2.37c1.89-2.47,3.73-5,5.59-7.5,1.71-2.32,3.42-4.63,5.39-6.9h-9.06c-.55-.07-1.39.29-1.57-.22a7.07,7.07,0,0,1-.13-2.47c0-.31.41-.24.66-.25,4.57-.07,9.13-.15,13.69-.2.8,0,1.22,1.42.74,2.47a3.48,3.48,0,0,1-.38.54Z"/><path class="a6c5287a-4920-43a8-8213-d06bb46abd25" d="M884.16,123.07c.31-.58.48-.92.67-1.25a5.89,5.89,0,0,1,3.12-2.69c.87-.32,2-.74,2.6-.11s.18,1.92.19,2.92c0,.48-.44.35-.7.32-3.24-.27-5.35,2.56-5.37,5.56,0,3.37,0,6.76.11,10.13,0,1-.18,1.46-1.33,1.41-2.41-.09-2.39,0-2.42-2.48-.06-5.45,0-10.89-.3-16.32-.06-1,.12-1.38,1.13-1.26a4.74,4.74,0,0,0,1.19,0c.71-.09.89.24.9.9C884,121.05,884.07,121.92,884.16,123.07Z"/><path class="a6c5287a-4920-43a8-8213-d06bb46abd25" d="M833.61,129.66v-8.81c0-.78.2-1,.94-1,2.78,0,2.76-.07,2.79,2.65.06,5.39.13,10.8.25,16.19,0,.91-.21,1.19-1.14,1.21-2.59,0-2.59.09-2.59-2.51v-7.77Z"/><path class="a6c5287a-4920-43a8-8213-d06bb46abd25" d="M835.9,141.18a2.44,2.44,0,0,1,2.43,2.45.41.41,0,0,1,0,.11,2.53,2.53,0,1,1-5,.68,2.94,2.94,0,0,1,2.44-3.25Z"/><path class="a6c5287a-4920-43a8-8213-d06bb46abd25" d="M922.64,86.16a.55.55,0,0,0,.53-.26,7.34,7.34,0,0,1,2.93,2,.27.27,0,0,1,0,.39h0Z"/><path class="a6c5287a-4920-43a8-8213-d06bb46abd25" d="M926.05,88.34V88c.66,0,1.07.5,1.55.86,0,.24,0,.4-.3.27Z"/><path class="a6c5287a-4920-43a8-8213-d06bb46abd25" d="M783.68,158.63v.55c-.55,0-1.35.73-1.54,0C782,158.75,783.14,158.91,783.68,158.63Z"/><path class="a6c5287a-4920-43a8-8213-d06bb46abd25" d="M932.34,157.39l.58-.29,1.31.29c0,.5-.32.3-.57.27A2.4,2.4,0,0,1,932.34,157.39Z"/><path class="a6c5287a-4920-43a8-8213-d06bb46abd25" d="M932.7,92.48l-1.08-.68C932.18,91.65,932.53,91.94,932.7,92.48Z"/><path class="a6c5287a-4920-43a8-8213-d06bb46abd25" d="M822.45,134.94v.65c0,.22,0,.55-.27.51s-.24-.39-.22-.64Z"/><path class="a6c5287a-4920-43a8-8213-d06bb46abd25" d="M780.56,159.48a1,1,0,0,1,.25-.06c.29,0,.73-.51.82.06,0,.35-.52.18-.81.27S780.5,159.72,780.56,159.48Z"/><path class="a6c5287a-4920-43a8-8213-d06bb46abd25" d="M780.56,159.48l.26.27c-.41.34-.88.26-1.62.13Z"/><path class="a6c5287a-4920-43a8-8213-d06bb46abd25" d="M928.23,89.23c.29.15.68.19.77.58a.29.29,0,0,1-.11.2.79.79,0,0,1-.7-.48c-.07-.08-.09-.15,0-.21S928.17,89.23,928.23,89.23Z"/><path class="a6c5287a-4920-43a8-8213-d06bb46abd25" d="M933.66,157.66l.57-.27.81.23c.09,0,.12.11.1.17s-.06.1-.09.1A2.3,2.3,0,0,1,933.66,157.66Z"/><path class="a6c5287a-4920-43a8-8213-d06bb46abd25" d="M935.05,157.89v-.27c.34,0,.67,0,.86.36C935.59,158.18,935.32,158,935.05,157.89Z"/><path class="a6c5287a-4920-43a8-8213-d06bb46abd25" d="M929.18,89.91c.4.17.66.28.77.69A.74.74,0,0,1,929.18,89.91Z"/><path class="a6c5287a-4920-43a8-8213-d06bb46abd25" d="M928.23,89.23v.3a1,1,0,0,1-.84-.45l.3-.27A.86.86,0,0,1,928.23,89.23Z"/><path class="a6c5287a-4920-43a8-8213-d06bb46abd25" d="M919.4,90.75a83.73,83.73,0,0,0-11.81,30.61c-4.11-4.51-10.31-2.78-12.84.69a13.05,13.05,0,0,0-.3,13.82c3.56,5.31,11.07,4.38,13.25.29.31-.59.55-.51.91,0,1.07,1.46,2.18,2.9,3.27,4.35C909.92,123.17,914.43,106.93,919.4,90.75Zm-11.77,40.81a5.58,5.58,0,0,1-4.32,4.89,5.28,5.28,0,0,1-5.87-2.77,9.47,9.47,0,0,1,.35-9.77,5.19,5.19,0,0,1,5.86-2.2,5.34,5.34,0,0,1,3.94,4.73c.08.82,0,1.66,0,2.49h0a17.79,17.79,0,0,1,0,2.63Z"/><path class="a6c5287a-4920-43a8-8213-d06bb46abd25" d="M837.92,97.17c-6.66.07-10.8,4.3-10.73,11,.07,6.21,4.31,10.21,10.78,10.16,6.2-.06,10.44-4.49,10.36-10.85C848.24,101.3,844,97.17,837.92,97.17Zm3,14.67a3.39,3.39,0,0,1-6.07.21,8.3,8.3,0,0,1-.1-8.52,3.4,3.4,0,0,1,6.08.07,9,9,0,0,1,1,4.31,8,8,0,0,1-.92,4Z"/><path class="a6c5287a-4920-43a8-8213-d06bb46abd25" d="M904.71,101.45a7.77,7.77,0,0,0-5.49-4.7,9.92,9.92,0,0,0-12.22,6.9,4.05,4.05,0,0,0-.12.5c-1.6,6.13,1.25,11.57,6.81,13a13.43,13.43,0,0,0,3.79.39,20.6,20.6,0,0,0,4.82-.55c2.51-.56,2.51-.57,2-3a8.4,8.4,0,0,1-.19-1c-.08-.78-.33-1-1.18-.74a14,14,0,0,1-5.72.6,5,5,0,0,1-4.14-2.19c-.74-1.2-.58-1.47.8-1.49,3.55,0,7.11-.13,10.66-.13,1,0,1.18-.39,1.22-1.22A13.62,13.62,0,0,0,904.71,101.45ZM899,104.69h-2.89v.13H893.2c-.41,0-.65-.06-.64-.57a4,4,0,0,1,3.66-3.56,3.46,3.46,0,0,1,3.55,3.19C899.84,104.57,899.59,104.72,899,104.69Z"/><path class="a6c5287a-4920-43a8-8213-d06bb46abd25" d="M875.45,138.53a62.85,62.85,0,0,1-.28-6.58,51.19,51.19,0,0,0-.24-7,6.45,6.45,0,0,0-5.85-5.83,13.61,13.61,0,0,0-6.59.87c-1.82.72-1.78.73-1.14,2.54.27.77.54.65,1.09.36a9.55,9.55,0,0,1,5-1.12,3.8,3.8,0,0,1,3.84,2.81c.55,1.89.44,2-1.51,2.15-2.74.18-5.42.64-7.69,2.34a6.3,6.3,0,0,0-2.13,7.09,5.7,5.7,0,0,0,5.73,3.78,7.8,7.8,0,0,0,6.23-2.94c.52,2.56.52,2.52,3,2.4C875.61,139.4,875.52,139,875.45,138.53Zm-8-1.35a3.36,3.36,0,0,1-4-1.8,3.81,3.81,0,0,1,1.21-4.61c1.89-1.32,4.1-1.41,6.3-1.49.52,0,.54.33.53.7v1.19C871.79,134.66,870.36,136.61,867.5,137.18Z"/></g></svg>