<svg id="b68624dd-44f6-4d17-92a0-c8e5d89f9467" data-name="Ebene 1" xmlns="http://www.w3.org/2000/svg" viewBox="0 0 1680 200"><defs><style>.b984f35d-b741-40bc-96c6-b99d7ea861cc{fill:none;stroke:#ccc;stroke-miterlimit:10;}.bc080090-faa3-48e7-95e0-9427365b0247{fill:#f9b213;}.a5a4103f-c6b8-4587-9aa1-66d4116ff7c9{fill:#01bbf1;}.e18d40ac-0068-4561-9963-098e2fd27215{fill:#00bbf1;}.e6b67fcf-9aec-4264-a45d-64a052434742{fill:#03bcf1;}.e5d20446-98dc-4e0a-adee-17911bb66b9a{fill:#27c6f3;}.ad8a3512-9681-43b2-8fb7-5c9c8c292cb1{fill:#67d6f6;}.f0e19fad-fc17-4a04-9a3c-43744efc3043{fill:#29c6f3;}.f36873eb-2148-4f27-b8ea-b33f12c70a18{fill:#69d7f6;}.feccca96-1690-4b2a-9a45-efc564bc8584{isolation:isolate;}.a106f1ea-7543-4c00-b47b-628591c78b81{fill:#ccc;}</style></defs><title>HOOBS_x_tilt_mysmartblinds</title><g id="e1b6c7dd-83aa-4504-bdc1-fd2ece2ad5c4" data-name="Stroke"><line class="b984f35d-b741-40bc-96c6-b99d7ea861cc" x1="700.5" y1="60" x2="700.5" y2="140"/></g><path class="bc080090-faa3-48e7-95e0-9427365b0247" d="M154.17,41.5h-78A19.5,19.5,0,0,0,56.67,61v78a19.5,19.5,0,0,0,19.5,19.5h78a19.5,19.5,0,0,0,19.5-19.5V61A19.5,19.5,0,0,0,154.17,41.5Zm2,59.26a3.24,3.24,0,0,1-4.59,0,3.21,3.21,0,0,1-.95-2.09l-8.82-8.82V69.92a1.63,1.63,0,0,0-1.63-1.63h-3.25a1.63,1.63,0,0,0-1.62,1.63V83.6l-4.88-5.13-15-15a1.62,1.62,0,0,0-2.3,0L78.59,97.89a1.64,1.64,0,0,0,0,2.3l2.3,2.3a1.64,1.64,0,0,0,2.3,0l26.43-26.43a6.49,6.49,0,0,1,9.19,0l26.43,26.43a6.51,6.51,0,0,1,0,9.19l-2.3,2.3a6.49,6.49,0,0,1-9.19,0L115.36,95.59a1.64,1.64,0,0,0-2.3,0L94.68,114a1.62,1.62,0,0,0,0,2.3l2.3,2.29a1.61,1.61,0,0,0,2.29,0l10.35-10.34a6.49,6.49,0,0,1,9.19,0l10.34,10.34a6.51,6.51,0,0,1,0,9.2L118,138.89a3.21,3.21,0,0,1-1,2.09,3.25,3.25,0,1,1-2.5-5.54l11.12-11.12a1.62,1.62,0,0,0,0-2.3l-10.34-10.34a1.62,1.62,0,0,0-2.3,0L102.72,122a6.49,6.49,0,0,1-9.19,0l-2.3-2.3a6.49,6.49,0,0,1,0-9.19l18.39-18.38a6.49,6.49,0,0,1,9.19,0l18.38,18.38a1.64,1.64,0,0,0,2.3,0l2.3-2.3a1.64,1.64,0,0,0,0-2.3L115.36,79.51a1.62,1.62,0,0,0-2.3,0L86.63,105.93a6.49,6.49,0,0,1-9.19,0l-2.3-2.29a6.52,6.52,0,0,1,0-9.2L109.62,60a6.49,6.49,0,0,1,9.19,0l11.6,11.61V69.92a6.5,6.5,0,0,1,6.5-6.5h3.25a6.5,6.5,0,0,1,6.5,6.5V87.83l7.4,7.39a3.25,3.25,0,0,1,2.09,5.54Z"/><path class="bc080090-faa3-48e7-95e0-9427365b0247" d="M612.42,61H624.1v3.65h-3.71v11H616.1v-11h-3.68Zm13.09,0h4.72l3.34,7.78L637,61h4.72V75.62h-3.85V67.39l-2.77,6.81h-2.92l-2.77-6.81v8.23h-3.85Z"/><path class="bc080090-faa3-48e7-95e0-9427365b0247" d="M271.65,61v78H254.31V107h-34v32H202.92V61h17.35V91.75h34V61Zm10.65,39c0-22.41,16.77-39,39.65-39s39.64,16.48,39.64,39S344.72,139,322,139,282.3,122.41,282.3,100Zm62.09.39c0-14.19-9.63-23.9-22.44-23.9s-22.45,9.71-22.45,23.9,9.64,23.89,22.45,23.89S344.39,114.57,344.39,100.39ZM368.8,100c0-22.41,16.77-39,39.65-39s39.64,16.48,39.64,39-16.87,39-39.64,39S368.8,122.41,368.8,100Zm62.09.39c0-14.19-9.63-23.9-22.44-23.9S386,86.2,386,100.39s9.64,23.89,22.45,23.89S430.89,114.57,430.89,100.39Zm96.58,17.33c0,13.48-10.28,21.28-30,21.28H458.74V61h36.61c18.74,0,28.38,8.13,28.38,20.28a18.86,18.86,0,0,1-10,17.16C522.12,101.23,527.47,107.91,527.47,117.72ZM476.71,76.06V93.67h16.5c8.1,0,12.5-3,12.5-8.86s-4.4-8.75-12.5-8.75Zm32.59,39.47c0-6.29-4.61-9.28-13.22-9.28H476.71v18.46h19.37C504.69,124.71,509.3,121.93,509.3,115.53Zm23.38,14.74,5.69-13.14A41.52,41.52,0,0,0,562.28,125c9.94,0,14-3.44,14-8.08,0-14.11-42.13-4.41-42.13-32.42,0-12.82,9.94-23.49,30.53-23.49,9.11,0,18.43,2.26,25.16,6.68l-5.18,13.25A39.67,39.67,0,0,0,564.56,75c-9.94,0-13.77,3.87-13.77,8.61,0,13.9,42.13,4.31,42.13,32,0,12.61-10,23.38-30.74,23.38C550.69,139,539.1,135.44,532.68,130.27Z"/><path class="a5a4103f-c6b8-4587-9aa1-66d4116ff7c9" d="M779.49,91.35c0-15.56.14-31.12-.1-46.68-.06-4,1.34-4.73,4.91-4.61,3.35.12,5.82,0,5.36,4.65-.44,4.31.11,8.7-.16,13-.21,3.41,1.13,4.34,4.33,4.21,5-.21,10,.13,15.06-.13,3.28-.16,4.43.88,4.32,4.22-.1,3-.55,4.62-4.15,4.41-5.34-.32-10.71,0-16.06-.13-2.61-.07-3.49.81-3.48,3.45.09,20.41-.17,40.83.15,61.22.19,11.89,8.66,18.21,18.89,15,1.35-.41,3.31-2.79,4.17-.6s1.52,5.26-1.23,7.29c-9.74,7.16-26.84,1.66-30.46-9.84A38.8,38.8,0,0,1,779.48,135Q779.51,113.2,779.49,91.35Z"/><path class="e18d40ac-0068-4561-9963-098e2fd27215" d="M914,104.74v29.61c0,11.14,8,20.11,20.67,15,1-.39,2.49-1.49,2.54.6,0,2.33,1.25,5-1.43,6.89-10.07,7.22-27.28,1.37-30.58-10.5a35.32,35.32,0,0,1-1.27-9.43c0-30.78.11-61.57-.09-92.36,0-4.21,1.72-4.54,5-4.44,3.06.09,5.59-.17,5.19,4.29s.07,9-.14,13.54c-.15,3,.77,4.19,3.92,4,4.84-.23,9.71.09,14.56-.11,3.32-.14,5.18.22,5.12,4.44-.07,4-1.83,4.24-4.89,4.13-4.85-.17-9.72.15-14.56-.11-3.41-.19-4.23,1.09-4.17,4.3C914.12,84.65,914,94.69,914,104.74Z"/><path class="e6b67fcf-9aec-4264-a45d-64a052434742" d="M870.25,98.77c0-18.07.06-36.13-.06-54.2,0-3,.25-4.85,4-4.47,3.13.33,6.52-1.09,6.47,4.59-.23,32.62-.11,65.25-.11,97.86,0,3.85-.18,7.71,0,11.54.27,4.59-2.95,3.39-5.41,3.54-2.63.16-4.8.31-4.76-3.66.18-18.4.08-36.8.08-55.2Z"/><path class="a5a4103f-c6b8-4587-9aa1-66d4116ff7c9" d="M836.62,109.41c0-14.2.14-28.4-.09-42.6-.07-3.94,1-5.2,5-5,3.42.15,5.35.26,5.31,4.73q-.33,43.33,0,86.68c0,4.11-1.56,4.55-5,4.53s-5.38-.31-5.29-4.74c.31-14.52.12-29.06.12-43.58Z"/><path class="e5d20446-98dc-4e0a-adee-17911bb66b9a" d="M840.57,42.27c0,1.53-1,1.9-2.29,1.84-1.61-.07-1.76-1.18-1.69-2.4s.9-1.6,2-1.6C840.06,40.12,840.66,40.88,840.57,42.27Z"/><path class="ad8a3512-9681-43b2-8fb7-5c9c8c292cb1" d="M846.84,41.92c.07,1.34-.38,2.25-1.89,2.3s-2.23-.43-2.3-1.91.43-2.23,1.92-2.3S846.82,40.41,846.84,41.92Z"/><path class="f0e19fad-fc17-4a04-9a3c-43744efc3043" d="M838.45,46.31a1.8,1.8,0,0,1,2.11,1.43,1.56,1.56,0,0,1,0,.57c0,1.48-.77,2-2.14,2-1.14,0-1.84-.5-1.87-1.74S836.91,46.32,838.45,46.31Z"/><path class="f36873eb-2148-4f27-b8ea-b33f12c70a18" d="M844.57,50.4c-1.48,0-2-.91-1.92-2.28a2.1,2.1,0,1,1,4.19.37C846.8,50,845.93,50.48,844.57,50.4Z"/><g class="feccca96-1690-4b2a-9a45-efc564bc8584"><path class="a106f1ea-7543-4c00-b47b-628591c78b81" d="M972.59,80l9.13,25.78L990.8,80h9.62v35.55h-7.35v-9.72l.73-16.77-9.59,26.49h-5l-9.57-26.47.73,16.75v9.72H963V80Z"/><path class="a106f1ea-7543-4c00-b47b-628591c78b81" d="M1016.21,105.56l4.88-16.43h7.57L1018,119.65l-.59,1.39a8,8,0,0,1-7.81,5.17,11.07,11.07,0,0,1-3.12-.46V120.4l1.07,0a5.86,5.86,0,0,0,3-.61,4,4,0,0,0,1.55-2l.83-2.17-9.25-26.49h7.59Z"/><path class="a106f1ea-7543-4c00-b47b-628591c78b81" d="M1050.33,106.22a3.77,3.77,0,0,0-1.46-3.19,19.19,19.19,0,0,0-5.27-2.34,36.89,36.89,0,0,1-6-2.43q-6.06-3.27-6.06-8.81a8.62,8.62,0,0,1,1.63-5.14,10.62,10.62,0,0,1,4.66-3.53,17.67,17.67,0,0,1,6.82-1.26,16.14,16.14,0,0,1,6.79,1.37,10.85,10.85,0,0,1,4.63,3.9,10.23,10.23,0,0,1,1.64,5.71h-7.32a4.79,4.79,0,0,0-1.54-3.8,6.32,6.32,0,0,0-4.32-1.35,6.78,6.78,0,0,0-4.17,1.13,3.58,3.58,0,0,0-1.49,3,3.43,3.43,0,0,0,1.74,2.9,20.12,20.12,0,0,0,5.14,2.2q6.26,1.88,9.11,4.66a9.28,9.28,0,0,1,2.85,6.93,8.55,8.55,0,0,1-3.49,7.24q-3.5,2.63-9.4,2.62a18.19,18.19,0,0,1-7.47-1.5,11.83,11.83,0,0,1-5.13-4.11,10.53,10.53,0,0,1-1.77-6h7.34q0,5.88,7,5.88a6.9,6.9,0,0,0,4.08-1.06A3.45,3.45,0,0,0,1050.33,106.22Z"/><path class="a106f1ea-7543-4c00-b47b-628591c78b81" d="M1068.79,89.13l.22,3a9.26,9.26,0,0,1,7.59-3.44q5.1,0,7,4a9.07,9.07,0,0,1,7.93-4c2.86,0,5,.83,6.4,2.5s2.1,4.18,2.1,7.53v16.87H1093V98.7a5,5,0,0,0-.88-3.28,3.91,3.91,0,0,0-3.1-1,4.41,4.41,0,0,0-4.4,3l0,18.14h-7.06V98.73a5,5,0,0,0-.9-3.32,3.91,3.91,0,0,0-3.08-1,4.56,4.56,0,0,0-4.34,2.49v18.68h-7.06V89.13Z"/><path class="a106f1ea-7543-4c00-b47b-628591c78b81" d="M1120.76,115.55a7.9,7.9,0,0,1-.71-2.37,8.54,8.54,0,0,1-6.66,2.85,9.35,9.35,0,0,1-6.43-2.24,7.21,7.21,0,0,1-2.55-5.67,7.46,7.46,0,0,1,3.11-6.44c2.07-1.5,5.07-2.25,9-2.27h3.25V97.9a4.33,4.33,0,0,0-.94-2.93,3.69,3.69,0,0,0-3-1.1,4.19,4.19,0,0,0-2.79.85,2.89,2.89,0,0,0-1,2.35H1105a7.05,7.05,0,0,1,1.42-4.25,9.36,9.36,0,0,1,4-3.06,14.58,14.58,0,0,1,5.81-1.11A11.51,11.51,0,0,1,1124,91.1a8.57,8.57,0,0,1,2.87,6.89v11.45a12.57,12.57,0,0,0,1.05,5.69v.42Zm-5.83-4.91a6,6,0,0,0,2.88-.7,4.51,4.51,0,0,0,2-1.86v-4.54h-2.64q-5.3,0-5.64,3.66l0,.41a2.8,2.8,0,0,0,.93,2.17A3.6,3.6,0,0,0,1114.93,110.64Z"/><path class="a106f1ea-7543-4c00-b47b-628591c78b81" d="M1147.1,95.75a19.32,19.32,0,0,0-2.54-.2c-2.67,0-4.42.91-5.25,2.71v17.29h-7V89.13h6.66l.2,3.15a6.52,6.52,0,0,1,5.88-3.63,7.5,7.5,0,0,1,2.2.31Z"/><path class="a106f1ea-7543-4c00-b47b-628591c78b81" d="M1160.16,82.64v6.49h4.52v5.18h-4.52v13.18a3.16,3.16,0,0,0,.56,2.1,2.83,2.83,0,0,0,2.15.63,10.69,10.69,0,0,0,2.07-.17v5.35a14.57,14.57,0,0,1-4.27.63q-7.43,0-7.57-7.49V94.31h-3.85V89.13h3.85V82.64Z"/><path class="a106f1ea-7543-4c00-b47b-628591c78b81" d="M1169.07,115.55V80h12.45q6.46,0,9.81,2.48a8.47,8.47,0,0,1,3.35,7.26,8,8,0,0,1-1.35,4.6,7.73,7.73,0,0,1-3.73,2.92,7.56,7.56,0,0,1,4.31,2.76,8.15,8.15,0,0,1,1.57,5.08c0,3.42-1.09,6-3.27,7.76s-5.29,2.65-9.32,2.69Zm7.32-20.66h5.42c3.7-.06,5.54-1.53,5.54-4.41A4.08,4.08,0,0,0,1186,87a7.37,7.37,0,0,0-4.43-1.06h-5.13Zm0,5.18v9.59h6.28a6.08,6.08,0,0,0,4-1.23,4.26,4.26,0,0,0,1.45-3.41c0-3.25-1.69-4.9-5.05-5Z"/><path class="a106f1ea-7543-4c00-b47b-628591c78b81" d="M1208,115.55h-7.08V78.05H1208Z"/><path class="a106f1ea-7543-4c00-b47b-628591c78b81" d="M1213.72,82.3a3.45,3.45,0,0,1,1.06-2.61,4.56,4.56,0,0,1,5.77,0,3.43,3.43,0,0,1,1.08,2.61,3.47,3.47,0,0,1-1.09,2.63,4.51,4.51,0,0,1-5.74,0A3.46,3.46,0,0,1,1213.72,82.3Zm7.49,33.25h-7.08V89.13h7.08Z"/><path class="a106f1ea-7543-4c00-b47b-628591c78b81" d="M1233.51,89.13l.22,3.05a9.22,9.22,0,0,1,7.6-3.53c2.79,0,4.88.82,6.24,2.46s2.07,4.1,2.1,7.37v17.07h-7.05V98.65a4.6,4.6,0,0,0-1-3.26,4.38,4.38,0,0,0-3.24-1,4.86,4.86,0,0,0-4.47,2.54v18.63h-7.06V89.13Z"/><path class="a106f1ea-7543-4c00-b47b-628591c78b81" d="M1253.92,102.14q0-6.17,2.77-9.83a9,9,0,0,1,7.58-3.66,8.07,8.07,0,0,1,6.37,2.87V78.05h7.08v37.5h-6.37l-.34-2.81a8.29,8.29,0,0,1-6.79,3.29,9,9,0,0,1-7.48-3.67Q1253.92,108.69,1253.92,102.14Zm7.06.53a10.46,10.46,0,0,0,1.29,5.7,4.21,4.21,0,0,0,3.76,2,4.71,4.71,0,0,0,4.61-2.77V97.14a4.65,4.65,0,0,0-4.56-2.76Q1261,94.38,1261,102.67Z"/><path class="a106f1ea-7543-4c00-b47b-628591c78b81" d="M1297.49,108.25a2.25,2.25,0,0,0-1.28-2,14.32,14.32,0,0,0-4.11-1.33q-9.42-2-9.42-8a7.27,7.27,0,0,1,2.91-5.87,11.78,11.78,0,0,1,7.63-2.35,12.68,12.68,0,0,1,8,2.36,7.46,7.46,0,0,1,3,6.15h-7a3.41,3.41,0,0,0-1-2.5,4.13,4.13,0,0,0-3-1,4.21,4.21,0,0,0-2.76.81,2.55,2.55,0,0,0-1,2,2.17,2.17,0,0,0,1.11,1.89,11.41,11.41,0,0,0,3.75,1.25,30.31,30.31,0,0,1,4.44,1.18q5.6,2.06,5.59,7.1a6.89,6.89,0,0,1-3.1,5.85,13.33,13.33,0,0,1-8,2.23,14,14,0,0,1-5.9-1.18,9.87,9.87,0,0,1-4-3.25,7.5,7.5,0,0,1-1.46-4.45h6.69a3.65,3.65,0,0,0,1.39,2.88,5.47,5.47,0,0,0,3.46,1,5.17,5.17,0,0,0,3.07-.77A2.38,2.38,0,0,0,1297.49,108.25Z"/></g></svg>