<svg id="fdbc69b4-85cb-49d0-9816-974df7d5483e" data-name="Ebene 1" xmlns="http://www.w3.org/2000/svg" viewBox="0 0 1680 200"><defs><style>.a5698715-6bed-4409-a611-06394f26d14e{fill:none;stroke:#ccc;stroke-miterlimit:10;}.a1aecda4-170e-4b1f-960e-cb57a0bdf9bb{fill:#f9b213;}.b3c14043-bb9a-4aac-a0fc-9dcd06d17918{fill:#ccc;}.b5ae43f8-0eb0-43d8-9e2b-2a8a013a1dae{fill:#86d0f4;}.ad58845c-6892-4bf1-afe2-219ad07f2eb2{fill:#058dcb;}</style></defs><title>HOOBS_x_dyson_pure_cool</title><g id="b3b5e936-a805-4cfa-bd87-77b3b3821555" data-name="Stroke"><line class="a5698715-6bed-4409-a611-06394f26d14e" x1="700.5" y1="60" x2="700.5" y2="140"/></g><path class="a1aecda4-170e-4b1f-960e-cb57a0bdf9bb" d="M154.17,41.5h-78A19.5,19.5,0,0,0,56.67,61v78a19.5,19.5,0,0,0,19.5,19.5h78a19.5,19.5,0,0,0,19.5-19.5V61A19.5,19.5,0,0,0,154.17,41.5Zm2,59.26a3.24,3.24,0,0,1-4.59,0,3.21,3.21,0,0,1-.95-2.09l-8.82-8.82V69.92a1.63,1.63,0,0,0-1.63-1.63h-3.25a1.63,1.63,0,0,0-1.62,1.63V83.6l-4.88-5.13-15-15a1.62,1.62,0,0,0-2.3,0L78.59,97.89a1.64,1.64,0,0,0,0,2.3l2.3,2.3a1.64,1.64,0,0,0,2.3,0l26.43-26.43a6.49,6.49,0,0,1,9.19,0l26.43,26.43a6.51,6.51,0,0,1,0,9.19l-2.3,2.3a6.49,6.49,0,0,1-9.19,0L115.36,95.59a1.64,1.64,0,0,0-2.3,0L94.68,114a1.62,1.62,0,0,0,0,2.3l2.3,2.29a1.61,1.61,0,0,0,2.29,0l10.35-10.34a6.49,6.49,0,0,1,9.19,0l10.34,10.34a6.51,6.51,0,0,1,0,9.2L118,138.89a3.21,3.21,0,0,1-1,2.09,3.25,3.25,0,1,1-2.5-5.54l11.12-11.12a1.62,1.62,0,0,0,0-2.3l-10.34-10.34a1.62,1.62,0,0,0-2.3,0L102.72,122a6.49,6.49,0,0,1-9.19,0l-2.3-2.3a6.49,6.49,0,0,1,0-9.19l18.39-18.38a6.49,6.49,0,0,1,9.19,0l18.38,18.38a1.64,1.64,0,0,0,2.3,0l2.3-2.3a1.64,1.64,0,0,0,0-2.3L115.36,79.51a1.62,1.62,0,0,0-2.3,0L86.63,105.93a6.49,6.49,0,0,1-9.19,0l-2.3-2.29a6.52,6.52,0,0,1,0-9.2L109.62,60a6.49,6.49,0,0,1,9.19,0l11.6,11.61V69.92a6.5,6.5,0,0,1,6.5-6.5h3.25a6.5,6.5,0,0,1,6.5,6.5V87.83l7.4,7.39a3.25,3.25,0,0,1,2.09,5.54Z"/><path class="a1aecda4-170e-4b1f-960e-cb57a0bdf9bb" d="M612.42,61H624.1v3.65h-3.71v11H616.1v-11h-3.68Zm13.09,0h4.72l3.34,7.78L637,61h4.72V75.62h-3.85V67.39l-2.77,6.81h-2.92l-2.77-6.81v8.23h-3.85Z"/><path class="a1aecda4-170e-4b1f-960e-cb57a0bdf9bb" d="M271.65,61v78H254.31V107h-34v32H202.92V61h17.35V91.75h34V61Zm10.65,39c0-22.41,16.77-39,39.65-39s39.64,16.48,39.64,39S344.72,139,322,139,282.3,122.41,282.3,100Zm62.09.39c0-14.19-9.63-23.9-22.44-23.9s-22.45,9.71-22.45,23.9,9.64,23.89,22.45,23.89S344.39,114.57,344.39,100.39ZM368.8,100c0-22.41,16.77-39,39.65-39s39.64,16.48,39.64,39-16.87,39-39.64,39S368.8,122.41,368.8,100Zm62.09.39c0-14.19-9.63-23.9-22.44-23.9S386,86.2,386,100.39s9.64,23.89,22.45,23.89S430.89,114.57,430.89,100.39Zm96.58,17.33c0,13.48-10.28,21.28-30,21.28H458.74V61h36.61c18.74,0,28.38,8.13,28.38,20.28a18.86,18.86,0,0,1-10,17.16C522.12,101.23,527.47,107.91,527.47,117.72ZM476.71,76.06V93.67h16.5c8.1,0,12.5-3,12.5-8.86s-4.4-8.75-12.5-8.75Zm32.59,39.47c0-6.29-4.61-9.28-13.22-9.28H476.71v18.46h19.37C504.69,124.71,509.3,121.93,509.3,115.53Zm23.38,14.74,5.69-13.14A41.52,41.52,0,0,0,562.28,125c9.94,0,14-3.44,14-8.08,0-14.11-42.13-4.41-42.13-32.42,0-12.82,9.94-23.49,30.53-23.49,9.11,0,18.43,2.26,25.16,6.68l-5.18,13.25A39.67,39.67,0,0,0,564.56,75c-9.94,0-13.77,3.87-13.77,8.61,0,13.9,42.13,4.31,42.13,32,0,12.61-10,23.38-30.74,23.38C550.69,139,539.1,135.44,532.68,130.27Z"/><path class="b3c14043-bb9a-4aac-a0fc-9dcd06d17918" d="M824.76,100a14.51,14.51,0,1,1-14.51-14.51h14.51Zm16.12-59.65H824.76V69.73H810.25A30.32,30.32,0,1,0,840.56,100h0V69.73Z"/><path class="b3c14043-bb9a-4aac-a0fc-9dcd06d17918" d="M1001.14,114.55A14.51,14.51,0,1,0,986.63,100c.32,8.06,6.77,14.51,14.51,14.51m-30-14.51a30.31,30.31,0,1,1,30.31,30.32h0a30.28,30.28,0,0,1-30.31-30.24V100"/><path class="b3c14043-bb9a-4aac-a0fc-9dcd06d17918" d="M1082.4,100a14.19,14.19,0,1,0-28.38,0v29h-15.8V100a30.31,30.31,0,1,1,60.62,0v29H1083c-.64,0-.64-25.16-.64-29"/><path class="b3c14043-bb9a-4aac-a0fc-9dcd06d17918" d="M934.07,89.72c-2.26-1.61-1.61-4.19,2.26-5.16,4.83-1.29,13.22-.32,20.31,2.9l7.42-10.31c-3.23-2.58-10.32-6.13-20.64-6.77,0,0-17.41-2.26-24.5,11,0,0-6.13,12.25,6.12,20,7.42,4.51,20.32,6.45,24.51,8.38,3.22,1.94,2.25,5.49-2.58,6.45-8.39,1.94-19.35-2.9-22.9-5.48l-7.73,10.65a46.29,46.29,0,0,0,21.92,9s16.45,2.9,25.48-8.38c1.61-2,9-15.81-5.81-23.87-7.74-4.2-20-6.13-23.86-8.39"/><path class="b3c14043-bb9a-4aac-a0fc-9dcd06d17918" d="M859.91,140.68c.64.32,8.06,5.48,15.15,5.48,17.41.32,18.38-17.73,18.38-21.93-3.22,3.55-10,5.81-14.19,5.81-16.76,0-30-12.91-30-29.68V71h15.8v29.34a14.19,14.19,0,1,0,28.37.76V71h15.8v29.34c0,26.13,1.29,52.89-24.18,59-19,4.51-32.57-7.42-33.54-8.06Z"/><path class="b5ae43f8-0eb0-43d8-9e2b-2a8a013a1dae" d="M1144.47,125.5c0-8.73-.08-17.45,0-26.17.16-13.66,6.11-23.82,18.71-29.71,12.78-6,25-4,35.69,4.35s13.38,20.19,10.93,33c-2.89,15.16-13.9,24-29.61,24.57-5.68.22-11.34.84-17,.86-3.67,0-4.38,1.77-4.32,4.87.12,6.11-.15,12.22.08,18.32s-4.22,4.34-7.29,4.36-7.42,1.7-7.28-4.39c.22-10,.06-20.06.06-30.09ZM1159,105.66h-.07c0,2.84.08,5.68,0,8.51-.09,2.65.84,4.15,3.75,4,6.54-.31,13.11.62,19.62-1,9.54-2.43,14.77-10.28,13.55-20.85-1-8.9-9.55-16.13-18.75-15.9s-17.33,7.65-18,16.75C1158.81,100,1159,102.82,1159,105.66Z"/><path class="b5ae43f8-0eb0-43d8-9e2b-2a8a013a1dae" d="M1365.22,105.36c-6.79,0-13.59.09-20.38,0-3.87-.07-4.49,1.32-3.11,4.77,4.22,10.59,18.12,13.75,30.38,6.49,3.4-2,5.78-3,9,.57,5.09,5.66,5.25,6.45-1,10.76-15.08,10.32-37.37,7.46-48.24-6.2s-8.67-35.12,4.88-47.47c9.36-8.52,24.61-10.19,36.79-4a32.59,32.59,0,0,1,17.45,31.28c-.3,3.33-1.86,3.91-4.64,3.88C1379.25,105.3,1372.24,105.36,1365.22,105.36Zm-6.73-12c4.57,0,9.15-.12,13.72,0,3.78.13,3.91-1.48,2.59-4.33-3.12-6.8-9.25-9.3-15.87-9.66-6.46-.36-12.4,1.9-16,8.09-2.27,3.88-2.79,6.35,3.17,5.92C1350.19,93.08,1354.35,93.32,1358.49,93.32Z"/><path class="ad58845c-6892-4bf1-afe2-219ad07f2eb2" d="M1551.3,100.19c0,19.36-14.7,33.9-34.21,33.81-19.11-.1-33.6-14.59-33.71-33.71s14.41-33.6,33.59-33.84C1536.33,66.2,1551.27,80.89,1551.3,100.19Zm-33.94,19.59a19.12,19.12,0,0,0,19.45-19.55,19.46,19.46,0,1,0-38.91,0A19.12,19.12,0,0,0,1517.36,119.78Z"/><path class="ad58845c-6892-4bf1-afe2-219ad07f2eb2" d="M1624.09,100.63c-.11,19.19-14.5,33.4-33.79,33.36-19.56,0-33.82-14.46-33.73-34.13.08-19.11,14.58-33.41,33.85-33.41C1610,66.46,1624.21,80.91,1624.09,100.63Zm-14.46-.39c0-11.16-8.35-19.76-19.25-19.78s-19.29,8.56-19.33,19.74,8.22,19.59,19.28,19.6S1609.61,111.53,1609.63,100.24Z"/><path class="b5ae43f8-0eb0-43d8-9e2b-2a8a013a1dae" d="M1217.11,88.06c0-4.8.33-9.63-.08-14.39-.53-6.19,3.59-5.26,7.22-5.19s7.54-1.34,7.45,5c-.15,10.65-.7,21.33.78,32,1.21,8.66,6.4,13.88,15,14.21,9.28.36,15.3-4.2,17-12.82,2.08-10.83,1-21.76.85-32.62-.11-6.27,3.23-5.87,7.39-5.83s7.87-.66,7.4,5.75c-.87,11.93,1,24-1.28,35.88-2.64,14.08-15,23.94-30.18,24s-27.67-9.94-30.42-23.8C1216.78,102.84,1217.24,95.45,1217.11,88.06Z"/><path class="ad58845c-6892-4bf1-afe2-219ad07f2eb2" d="M1459,134c-17.06.06-29.45-8.33-34.26-21.69-5.09-14.14-1-29.61,10.24-38.54,11-8.73,28.42-9.8,40.12-2.12,1.94,1.28,6.19,1.89,4.32,5.93-2.37,5.11-8.24,7.79-11.93,5.82-8.8-4.71-18.53-3.52-24.83,3a20,20,0,0,0-2.62,24.22c5.56,9.24,17.37,11.88,27.74,6.24,1.56-.84,2.93-3.19,5-.88,2.5,2.72,5,5.45,7.28,8.34.14.17-1.48,2-2.49,2.76A32,32,0,0,1,1459,134Z"/><path class="ad58845c-6892-4bf1-afe2-219ad07f2eb2" d="M1631.83,86.18c0-13.54.13-27.09-.08-40.63-.06-3.76,1.15-4.77,4.85-4.8,9.75-.07,9.75-.25,9.75,9.62,0,25.33-.29,50.68.19,76,.13,7.11-3.92,5.58-7.88,5.84-4.49.3-7.24-.09-7-6.07C1632.2,112.84,1631.83,99.5,1631.83,86.18Z"/><path class="b5ae43f8-0eb0-43d8-9e2b-2a8a013a1dae" d="M1295,132.34c-6.14,1.5-7.38-1.53-7.15-7.06.4-9.56,0-19.16.21-28.73.39-15.33,13.67-28,29-28.07,3,0,5.65.23,4.91,4-.7,3.54,2.91,8.78-3.56,10.28-12.46,2.88-15.9,7.06-15.93,19.65,0,7.63-.32,15.26.09,22.86C1302.83,131.06,1300.88,133.56,1295,132.34Z"/></svg>