<svg id="afff2de1-7f44-475a-ae20-ba7b7562a579" data-name="Ebene 1" xmlns="http://www.w3.org/2000/svg" viewBox="0 0 1680 200"><defs><style>.f8774138-d759-42a4-bf13-8f6b36536ac4{fill:none;stroke:#ccc;stroke-miterlimit:10;}.baa82496-d61e-4963-b710-e1374b65fecb{fill:#f9b213;}.a1c948b1-b8a3-424d-ab50-a9432d3f2880{isolation:isolate;}.f67fff96-c092-409a-99f3-19439166bbe2{fill:#ccc;}</style></defs><title>HOOBS_x_unifiucameramotion</title><g id="aa22d6e0-75ed-4d4c-94fa-f707d5c47062" data-name="Stroke"><line class="f8774138-d759-42a4-bf13-8f6b36536ac4" x1="700.5" y1="60" x2="700.5" y2="140"/></g><path class="baa82496-d61e-4963-b710-e1374b65fecb" d="M154.17,41.5h-78A19.5,19.5,0,0,0,56.67,61v78a19.5,19.5,0,0,0,19.5,19.5h78a19.5,19.5,0,0,0,19.5-19.5V61A19.5,19.5,0,0,0,154.17,41.5Zm2,59.26a3.24,3.24,0,0,1-4.59,0,3.21,3.21,0,0,1-.95-2.09l-8.82-8.82V69.92a1.63,1.63,0,0,0-1.63-1.63h-3.25a1.63,1.63,0,0,0-1.62,1.63V83.6l-4.88-5.13-15-15a1.62,1.62,0,0,0-2.3,0L78.59,97.89a1.64,1.64,0,0,0,0,2.3l2.3,2.3a1.64,1.64,0,0,0,2.3,0l26.43-26.43a6.49,6.49,0,0,1,9.19,0l26.43,26.43a6.51,6.51,0,0,1,0,9.19l-2.3,2.3a6.49,6.49,0,0,1-9.19,0L115.36,95.59a1.64,1.64,0,0,0-2.3,0L94.68,114a1.62,1.62,0,0,0,0,2.3l2.3,2.29a1.61,1.61,0,0,0,2.29,0l10.35-10.34a6.49,6.49,0,0,1,9.19,0l10.34,10.34a6.51,6.51,0,0,1,0,9.2L118,138.89a3.21,3.21,0,0,1-1,2.09,3.25,3.25,0,1,1-2.5-5.54l11.12-11.12a1.62,1.62,0,0,0,0-2.3l-10.34-10.34a1.62,1.62,0,0,0-2.3,0L102.72,122a6.49,6.49,0,0,1-9.19,0l-2.3-2.3a6.49,6.49,0,0,1,0-9.19l18.39-18.38a6.49,6.49,0,0,1,9.19,0l18.38,18.38a1.64,1.64,0,0,0,2.3,0l2.3-2.3a1.64,1.64,0,0,0,0-2.3L115.36,79.51a1.62,1.62,0,0,0-2.3,0L86.63,105.93a6.49,6.49,0,0,1-9.19,0l-2.3-2.29a6.52,6.52,0,0,1,0-9.2L109.62,60a6.49,6.49,0,0,1,9.19,0l11.6,11.61V69.92a6.5,6.5,0,0,1,6.5-6.5h3.25a6.5,6.5,0,0,1,6.5,6.5V87.83l7.4,7.39a3.25,3.25,0,0,1,2.09,5.54Z"/><path class="baa82496-d61e-4963-b710-e1374b65fecb" d="M612.42,61H624.1v3.65h-3.71v11H616.1v-11h-3.68Zm13.09,0h4.72l3.34,7.78L637,61h4.72V75.62h-3.85V67.39l-2.77,6.81h-2.92l-2.77-6.81v8.23h-3.85Z"/><path class="baa82496-d61e-4963-b710-e1374b65fecb" d="M271.65,61v78H254.31V107h-34v32H202.92V61h17.35V91.75h34V61Zm10.65,39c0-22.41,16.77-39,39.65-39s39.64,16.48,39.64,39S344.72,139,322,139,282.3,122.41,282.3,100Zm62.09.39c0-14.19-9.63-23.9-22.44-23.9s-22.45,9.71-22.45,23.9,9.64,23.89,22.45,23.89S344.39,114.57,344.39,100.39ZM368.8,100c0-22.41,16.77-39,39.65-39s39.64,16.48,39.64,39-16.87,39-39.64,39S368.8,122.41,368.8,100Zm62.09.39c0-14.19-9.63-23.9-22.44-23.9S386,86.2,386,100.39s9.64,23.89,22.45,23.89S430.89,114.57,430.89,100.39Zm96.58,17.33c0,13.48-10.28,21.28-30,21.28H458.74V61h36.61c18.74,0,28.38,8.13,28.38,20.28a18.86,18.86,0,0,1-10,17.16C522.12,101.23,527.47,107.91,527.47,117.72ZM476.71,76.06V93.67h16.5c8.1,0,12.5-3,12.5-8.86s-4.4-8.75-12.5-8.75Zm32.59,39.47c0-6.29-4.61-9.28-13.22-9.28H476.71v18.46h19.37C504.69,124.71,509.3,121.93,509.3,115.53Zm23.38,14.74,5.69-13.14A41.52,41.52,0,0,0,562.28,125c9.94,0,14-3.44,14-8.08,0-14.11-42.13-4.41-42.13-32.42,0-12.82,9.94-23.49,30.53-23.49,9.11,0,18.43,2.26,25.16,6.68l-5.18,13.25A39.67,39.67,0,0,0,564.56,75c-9.94,0-13.77,3.87-13.77,8.61,0,13.9,42.13,4.31,42.13,32,0,12.61-10,23.38-30.74,23.38C550.69,139,539.1,135.44,532.68,130.27Z"/><g class="a1c948b1-b8a3-424d-ab50-a9432d3f2880"><path class="f67fff96-c092-409a-99f3-19439166bbe2" d="M1019.38,97.57v9.72h-5.69V79.69h10.77a12.44,12.44,0,0,1,5.47,1.14,8.29,8.29,0,0,1,3.63,3.23,9,9,0,0,1,1.27,4.77,7.93,7.93,0,0,1-2.77,6.4q-2.79,2.34-7.69,2.34Zm0-4.61h5.08a5,5,0,0,0,3.44-1.06,3.87,3.87,0,0,0,1.19-3,4.52,4.52,0,0,0-1.2-3.28,4.4,4.4,0,0,0-3.3-1.29h-5.21Z"/><path class="f67fff96-c092-409a-99f3-19439166bbe2" d="M1049,97.19h-4.53v10.1h-5.69V79.69H1049c3.27,0,5.78.73,7.55,2.18a7.52,7.52,0,0,1,2.65,6.16,7.72,7.72,0,0,1-4.92,7.72l6,11.28v.26h-6.11Zm-4.53-4.61H1049a4.68,4.68,0,0,0,3.32-1.09,3.9,3.9,0,0,0,1.18-3,4.16,4.16,0,0,0-1.11-3.07A4.61,4.61,0,0,0,1049,84.3h-4.56Z"/><path class="f67fff96-c092-409a-99f3-19439166bbe2" d="M1086.19,94.12a16.68,16.68,0,0,1-1.44,7.15,10.92,10.92,0,0,1-4.12,4.74,11.42,11.42,0,0,1-6.15,1.66,11.59,11.59,0,0,1-6.13-1.64,11,11,0,0,1-4.17-4.72,16.37,16.37,0,0,1-1.5-7V92.91a16.59,16.59,0,0,1,1.47-7.18,11,11,0,0,1,4.16-4.76,12.15,12.15,0,0,1,12.26,0,10.94,10.94,0,0,1,4.15,4.76,16.53,16.53,0,0,1,1.47,7.16Zm-5.76-1.25q0-4.35-1.56-6.6a5.48,5.48,0,0,0-8.85,0c-1,1.49-1.56,3.66-1.57,6.53v1.35a11.83,11.83,0,0,0,1.55,6.56,5.07,5.07,0,0,0,4.48,2.33,5,5,0,0,0,4.39-2.25c1-1.49,1.55-3.68,1.56-6.55Z"/><path class="f67fff96-c092-409a-99f3-19439166bbe2" d="M1109.49,84.3H1101v23h-5.69v-23H1087V79.69h22.48Z"/><path class="f67fff96-c092-409a-99f3-19439166bbe2" d="M1129.34,95.33h-10.92v7.4h12.82v4.56h-18.5V79.69h18.46V84.3h-12.78v6.58h10.92Z"/><path class="f67fff96-c092-409a-99f3-19439166bbe2" d="M1156.25,98.1a9.8,9.8,0,0,1-3.29,7,11.59,11.59,0,0,1-7.82,2.55,10.38,10.38,0,0,1-8.35-3.57q-3-3.57-3-9.81V92.6a16.46,16.46,0,0,1,1.41-7,10.44,10.44,0,0,1,4-4.66,12.52,12.52,0,0,1,13.75.94,10.52,10.52,0,0,1,3.38,7.19h-5.69a5.77,5.77,0,0,0-1.49-3.88,5.52,5.52,0,0,0-3.9-1.2,4.84,4.84,0,0,0-4.25,2c-.94,1.36-1.43,3.47-1.45,6.33v2.08q0,4.48,1.35,6.54a4.75,4.75,0,0,0,4.28,2.07,5.62,5.62,0,0,0,3.93-1.2,5.46,5.46,0,0,0,1.49-3.73Z"/><path class="f67fff96-c092-409a-99f3-19439166bbe2" d="M1180.21,84.3h-8.45v23h-5.69v-23h-8.34V79.69h22.48Z"/><path class="f67fff96-c092-409a-99f3-19439166bbe2" d="M1035.36,144.69a9.76,9.76,0,0,1-3.29,7,11.51,11.51,0,0,1-7.82,2.56,10.39,10.39,0,0,1-8.35-3.57q-3-3.58-3-9.82V139.2a16.63,16.63,0,0,1,1.4-7,10.53,10.53,0,0,1,4-4.65,12.56,12.56,0,0,1,13.76.93,10.53,10.53,0,0,1,3.37,7.19h-5.69a5.81,5.81,0,0,0-1.48-3.88,5.55,5.55,0,0,0-3.9-1.2,4.83,4.83,0,0,0-4.26,2c-.94,1.36-1.42,3.46-1.45,6.32V141q0,4.47,1.36,6.54a4.73,4.73,0,0,0,4.27,2.06,5.65,5.65,0,0,0,3.94-1.2,5.47,5.47,0,0,0,1.49-3.73Z"/><path class="f67fff96-c092-409a-99f3-19439166bbe2" d="M1050.63,153.89a5.8,5.8,0,0,1-.55-1.84,6.65,6.65,0,0,1-5.18,2.22,7.26,7.26,0,0,1-5-1.75,5.59,5.59,0,0,1-2-4.39,5.8,5.8,0,0,1,2.42-5q2.42-1.74,7-1.76h2.52v-1.18a3.4,3.4,0,0,0-.73-2.27,2.89,2.89,0,0,0-2.31-.86,3.29,3.29,0,0,0-2.17.67,2.26,2.26,0,0,0-.78,1.82h-5.48a5.46,5.46,0,0,1,1.1-3.3,7.22,7.22,0,0,1,3.11-2.38,11.23,11.23,0,0,1,4.51-.86,9,9,0,0,1,6,1.9,6.69,6.69,0,0,1,2.23,5.36v8.89a9.8,9.8,0,0,0,.81,4.42v.32Zm-4.54-3.81a4.72,4.72,0,0,0,2.24-.54,3.56,3.56,0,0,0,1.52-1.45v-3.53h-2q-4.11,0-4.38,2.85l0,.32a2.21,2.21,0,0,0,.72,1.69A2.81,2.81,0,0,0,1046.09,150.08Z"/><path class="f67fff96-c092-409a-99f3-19439166bbe2" d="M1064.69,133.38l.17,2.29a7.23,7.23,0,0,1,5.9-2.67c2.64,0,4.46,1,5.44,3.12a7.05,7.05,0,0,1,6.16-3.12,6.11,6.11,0,0,1,5,1.94q1.64,2,1.63,5.85v13.1h-5.5V140.81a3.91,3.91,0,0,0-.68-2.55,3,3,0,0,0-2.41-.81,3.43,3.43,0,0,0-3.41,2.35l0,14.09h-5.48V140.83a3.85,3.85,0,0,0-.7-2.58,3.07,3.07,0,0,0-2.39-.8,3.56,3.56,0,0,0-3.38,1.94v14.5h-5.47V133.38Z"/><path class="f67fff96-c092-409a-99f3-19439166bbe2" d="M1102.61,154.27a10,10,0,0,1-7.34-2.77,9.83,9.83,0,0,1-2.84-7.38v-.53a12.33,12.33,0,0,1,1.2-5.52,8.71,8.71,0,0,1,3.38-3.76,9.56,9.56,0,0,1,5-1.31,8.5,8.5,0,0,1,6.62,2.65q2.41,2.65,2.42,7.53v2.24H1098a5.08,5.08,0,0,0,1.6,3.22,4.83,4.83,0,0,0,3.38,1.21,5.92,5.92,0,0,0,5-2.29l2.69,3a8.23,8.23,0,0,1-3.33,2.72A11,11,0,0,1,1102.61,154.27Zm-.62-16.86a3.43,3.43,0,0,0-2.65,1.11,5.78,5.78,0,0,0-1.3,3.16h7.62v-.44a4.07,4.07,0,0,0-1-2.83A3.55,3.55,0,0,0,1102,137.41Z"/><path class="f67fff96-c092-409a-99f3-19439166bbe2" d="M1125.69,138.51a15.2,15.2,0,0,0-2-.15q-3.11,0-4.07,2.11v13.42h-5.48V133.38h5.17l.15,2.44a5.09,5.09,0,0,1,4.57-2.82,5.89,5.89,0,0,1,1.71.24Z"/><path class="f67fff96-c092-409a-99f3-19439166bbe2" d="M1139.64,153.89a6.07,6.07,0,0,1-.55-1.84,6.63,6.63,0,0,1-5.18,2.22,7.24,7.24,0,0,1-5-1.75,5.59,5.59,0,0,1-2-4.39,5.79,5.79,0,0,1,2.41-5c1.62-1.16,3.94-1.75,7-1.76h2.52v-1.18a3.35,3.35,0,0,0-.73-2.27,2.85,2.85,0,0,0-2.3-.86,3.27,3.27,0,0,0-2.17.67,2.24,2.24,0,0,0-.79,1.82h-5.48a5.52,5.52,0,0,1,1.1-3.3,7.22,7.22,0,0,1,3.11-2.38,11.23,11.23,0,0,1,4.51-.86,8.94,8.94,0,0,1,6,1.9,6.66,6.66,0,0,1,2.23,5.36v8.89a9.65,9.65,0,0,0,.82,4.42v.32Zm-4.53-3.81a4.75,4.75,0,0,0,2.24-.54,3.53,3.53,0,0,0,1.51-1.45v-3.53h-2q-4.11,0-4.38,2.85v.32a2.21,2.21,0,0,0,.72,1.69A2.79,2.79,0,0,0,1135.11,150.08Z"/><path class="f67fff96-c092-409a-99f3-19439166bbe2" d="M1166,126.29l7.09,20,7.05-20h7.48v27.6h-5.71v-7.55l.57-13-7.45,20.57h-3.91l-7.43-20.55.57,13v7.55h-5.69v-27.6Z"/><path class="f67fff96-c092-409a-99f3-19439166bbe2" d="M1191.4,143.44a12.22,12.22,0,0,1,1.17-5.44,8.74,8.74,0,0,1,3.39-3.7,9.88,9.88,0,0,1,5.13-1.3,9.31,9.31,0,0,1,6.77,2.54,10.17,10.17,0,0,1,2.93,6.9l0,1.4a10.77,10.77,0,0,1-2.63,7.58,10.22,10.22,0,0,1-14.16,0,10.9,10.9,0,0,1-2.64-7.73Zm5.48.39a7.61,7.61,0,0,0,1.1,4.47,3.94,3.94,0,0,0,6.25,0,8.36,8.36,0,0,0,1.12-4.89,7.55,7.55,0,0,0-1.12-4.44,3.62,3.62,0,0,0-3.14-1.58A3.59,3.59,0,0,0,1198,139,8.48,8.48,0,0,0,1196.88,143.83Z"/><path class="f67fff96-c092-409a-99f3-19439166bbe2" d="M1220.77,128.33v5h3.5v4h-3.5v10.24a2.43,2.43,0,0,0,.43,1.63,2.19,2.19,0,0,0,1.67.5,8.46,8.46,0,0,0,1.61-.14v4.16a11.55,11.55,0,0,1-3.32.49q-5.76,0-5.87-5.82V137.39h-3v-4h3v-5Z"/><path class="f67fff96-c092-409a-99f3-19439166bbe2" d="M1227.29,128.07a2.7,2.7,0,0,1,.82-2,3.55,3.55,0,0,1,4.49,0,2.91,2.91,0,0,1,0,4.08,3.54,3.54,0,0,1-4.46,0A2.72,2.72,0,0,1,1227.29,128.07Zm5.82,25.82h-5.5V133.38h5.5Z"/><path class="f67fff96-c092-409a-99f3-19439166bbe2" d="M1236.77,143.44a12.22,12.22,0,0,1,1.17-5.44,8.68,8.68,0,0,1,3.39-3.7,9.88,9.88,0,0,1,5.13-1.3,9.31,9.31,0,0,1,6.77,2.54,10.17,10.17,0,0,1,2.93,6.9l0,1.4a10.73,10.73,0,0,1-2.64,7.58,10.21,10.21,0,0,1-14.15,0,10.9,10.9,0,0,1-2.64-7.73Zm5.48.39a7.61,7.61,0,0,0,1.1,4.47,3.94,3.94,0,0,0,6.25,0,8.36,8.36,0,0,0,1.12-4.89,7.55,7.55,0,0,0-1.12-4.44,3.62,3.62,0,0,0-3.14-1.58,3.59,3.59,0,0,0-3.11,1.57A8.48,8.48,0,0,0,1242.25,143.83Z"/><path class="f67fff96-c092-409a-99f3-19439166bbe2" d="M1264.62,133.38l.17,2.37a7.15,7.15,0,0,1,5.9-2.75,5.93,5.93,0,0,1,4.85,1.91,9,9,0,0,1,1.63,5.73v13.25h-5.48V140.77a3.53,3.53,0,0,0-.76-2.53,3.35,3.35,0,0,0-2.52-.79,3.78,3.78,0,0,0-3.47,2v14.47h-5.48V133.38Z"/></g><path class="f67fff96-c092-409a-99f3-19439166bbe2" d="M863.73,90.31c.93-5.73,3-13.33,7.78-19.89,6.37-8.71,17-16.26,37.84-16.2l2.11-9.76c-24.51-.77-39.72,8.71-47.85,20.23a57.77,57.77,0,0,0-9.71,25.56l9.83.06Zm17.72,0a27.92,27.92,0,0,1,4.1-8.71c3.62-4.92,9.24-9.25,20.17-10.12l2.11-10c-15,.41-24.86,6.67-30.18,14.33a38.67,38.67,0,0,0-6.2,14.39Zm-10.12,0h0Z"/><path class="f67fff96-c092-409a-99f3-19439166bbe2" d="M901.57,90.25l2.17-9.94c-6.09.47-9.66,3.22-12,6.73a16.56,16.56,0,0,0-1.93,3.21Zm65.63,0H956.67l2.22-9.94C958.89,80.37,967,82.18,967.2,90.25Zm-164-9.88L792,133.3c-2,9.3.82,13.45,8,13.45s11.69-4.15,13.68-13.45l11.29-52.93h11.76l-11.06,52c-3.62,17.08-13.45,23.23-27.49,23.23s-21.35-6.2-17.72-23.23l11.06-52Zm38.08,18.25h10.59l-1.35,6.49h.29a20.35,20.35,0,0,1,16-8c8.48,0,13,3.86,10.65,15.09l-8.89,42H857.35l8.07-38.14c1.53-7.25,0-10.06-5.61-10.06-4.56,0-9.65,3.63-11.17,10.88l-8,37.32H829.57l11.7-55.62Zm47.43,0h11.18l-11.82,55.62H876.89L888.7,98.62Zm23.87-18.25h37.67l-2.17,9.94H922.22l-4.33,20.47H943.8l-2,10H915.84l-7.13,33.51H896.89l15.68-73.87ZM955,98.62h11.17l-11.81,55.62H943.16L955,98.62Z"/><path class="f67fff96-c092-409a-99f3-19439166bbe2" d="M982.4,95.87A7.72,7.72,0,1,1,990,88.15,7.44,7.44,0,0,1,982.4,95.87Zm0-14.16c-3.33,0-6,2.63-6,6.38,0,3.51,2.28,6.37,6,6.37,3.34,0,5.91-2.63,5.91-6.37A5.94,5.94,0,0,0,982.4,81.71Zm-1.52,10.82h-1.4V84h3.22c2,0,3.1.71,3.1,2.46,0,1.58-.94,2.17-2.23,2.34l2.4,3.74h-1.58l-2.22-3.68h-1.35l.06,3.68Zm1.58-4.85c1.06,0,2-.12,2-1.35,0-1-1-1.17-1.87-1.17h-1.7v2.52Z"/></svg>