<svg id="ed5f421d-3501-464c-907d-493e0d65621d" data-name="Ebene 1" xmlns="http://www.w3.org/2000/svg" viewBox="0 0 1680 200"><defs><style>.f70b972b-3666-4c7e-860d-bbeffa1f5e4d{fill:none;stroke:#ccc;stroke-miterlimit:10;}.e9618f30-99ea-4b73-a0fc-5fecf3f69b36{fill:#f9b213;}.ed209a66-2ac5-4207-b4fa-a765c9fd5d5e{fill:#53565e;}.a1693878-ef5b-46d6-81ae-8265969fb268{fill:#018dc2;}.b672a97f-5c9f-430b-a7cf-62cba7cb977e{fill:#fefefe;}</style></defs><title>HOOBS_x_simplisafe</title><g id="bebc45f7-fda3-4a53-821d-6f86b4438dd1" data-name="Stroke"><line class="f70b972b-3666-4c7e-860d-bbeffa1f5e4d" x1="700.5" y1="60" x2="700.5" y2="140"/></g><path class="e9618f30-99ea-4b73-a0fc-5fecf3f69b36" d="M154.17,41.5h-78A19.5,19.5,0,0,0,56.67,61v78a19.5,19.5,0,0,0,19.5,19.5h78a19.5,19.5,0,0,0,19.5-19.5V61A19.5,19.5,0,0,0,154.17,41.5Zm2,59.26a3.24,3.24,0,0,1-4.59,0,3.21,3.21,0,0,1-.95-2.09l-8.82-8.82V69.92a1.63,1.63,0,0,0-1.63-1.63h-3.25a1.63,1.63,0,0,0-1.62,1.63V83.6l-4.88-5.13-15-15a1.62,1.62,0,0,0-2.3,0L78.59,97.89a1.64,1.64,0,0,0,0,2.3l2.3,2.3a1.64,1.64,0,0,0,2.3,0l26.43-26.43a6.49,6.49,0,0,1,9.19,0l26.43,26.43a6.51,6.51,0,0,1,0,9.19l-2.3,2.3a6.49,6.49,0,0,1-9.19,0L115.36,95.59a1.64,1.64,0,0,0-2.3,0L94.68,114a1.62,1.62,0,0,0,0,2.3l2.3,2.29a1.61,1.61,0,0,0,2.29,0l10.35-10.34a6.49,6.49,0,0,1,9.19,0l10.34,10.34a6.51,6.51,0,0,1,0,9.2L118,138.89a3.21,3.21,0,0,1-1,2.09,3.25,3.25,0,1,1-2.5-5.54l11.12-11.12a1.62,1.62,0,0,0,0-2.3l-10.34-10.34a1.62,1.62,0,0,0-2.3,0L102.72,122a6.49,6.49,0,0,1-9.19,0l-2.3-2.3a6.49,6.49,0,0,1,0-9.19l18.39-18.38a6.49,6.49,0,0,1,9.19,0l18.38,18.38a1.64,1.64,0,0,0,2.3,0l2.3-2.3a1.64,1.64,0,0,0,0-2.3L115.36,79.51a1.62,1.62,0,0,0-2.3,0L86.63,105.93a6.49,6.49,0,0,1-9.19,0l-2.3-2.29a6.52,6.52,0,0,1,0-9.2L109.62,60a6.49,6.49,0,0,1,9.19,0l11.6,11.61V69.92a6.5,6.5,0,0,1,6.5-6.5h3.25a6.5,6.5,0,0,1,6.5,6.5V87.83l7.4,7.39a3.25,3.25,0,0,1,2.09,5.54Z"/><path class="e9618f30-99ea-4b73-a0fc-5fecf3f69b36" d="M612.42,61H624.1v3.65h-3.71v11H616.1v-11h-3.68Zm13.09,0h4.72l3.34,7.78L637,61h4.72V75.62h-3.85V67.39l-2.77,6.81h-2.92l-2.77-6.81v8.23h-3.85Z"/><path class="e9618f30-99ea-4b73-a0fc-5fecf3f69b36" d="M271.65,61v78H254.31V107h-34v32H202.92V61h17.35V91.75h34V61Zm10.65,39c0-22.41,16.77-39,39.65-39s39.64,16.48,39.64,39S344.72,139,322,139,282.3,122.41,282.3,100Zm62.09.39c0-14.19-9.63-23.9-22.44-23.9s-22.45,9.71-22.45,23.9,9.64,23.89,22.45,23.89S344.39,114.57,344.39,100.39ZM368.8,100c0-22.41,16.77-39,39.65-39s39.64,16.48,39.64,39-16.87,39-39.64,39S368.8,122.41,368.8,100Zm62.09.39c0-14.19-9.63-23.9-22.44-23.9S386,86.2,386,100.39s9.64,23.89,22.45,23.89S430.89,114.57,430.89,100.39Zm96.58,17.33c0,13.48-10.28,21.28-30,21.28H458.74V61h36.61c18.74,0,28.38,8.13,28.38,20.28a18.86,18.86,0,0,1-10,17.16C522.12,101.23,527.47,107.91,527.47,117.72ZM476.71,76.06V93.67h16.5c8.1,0,12.5-3,12.5-8.86s-4.4-8.75-12.5-8.75Zm32.59,39.47c0-6.29-4.61-9.28-13.22-9.28H476.71v18.46h19.37C504.69,124.71,509.3,121.93,509.3,115.53Zm23.38,14.74,5.69-13.14A41.52,41.52,0,0,0,562.28,125c9.94,0,14-3.44,14-8.08,0-14.11-42.13-4.41-42.13-32.42,0-12.82,9.94-23.49,30.53-23.49,9.11,0,18.43,2.26,25.16,6.68l-5.18,13.25A39.67,39.67,0,0,0,564.56,75c-9.94,0-13.77,3.87-13.77,8.61,0,13.9,42.13,4.31,42.13,32,0,12.61-10,23.38-30.74,23.38C550.69,139,539.1,135.44,532.68,130.27Z"/><path class="ed209a66-2ac5-4207-b4fa-a765c9fd5d5e" d="M915.5,73.18c7.89-9.83,24.56-8.84,31.22-3.16a16.8,16.8,0,0,1,3.1,3.09c.72,1,1.15.86,1.94.07,8.75-8.71,23.56-8.9,31.61-5,7.66,3.67,11.06,10.22,12,18.29.53,4.48.21,9,.22,13.5,0,10.53,0,21.07,0,31.6,0,2.3-.12,2.44-2.35,2.44H978.57c-2.1,0-2.34-.23-2.34-2.34q0-18.4,0-36.81c0-3.37-.44-6.61-2.71-9.31-4.64-5.54-14.35-3.93-17,2.79a18.19,18.19,0,0,0-1.1,6.69v36.65c0,2.19-.14,2.33-2.29,2.34H938.5c-2.14,0-2.4-.28-2.4-2.47,0-12.54,0-25.08,0-37.63,0-3.45-.73-6.7-3.37-9.19-4.48-4.2-14.87-3.7-16.94,5.74a24.54,24.54,0,0,0-.44,5.34q0,18.24,0,36.48c0,1.15-.45,1.73-1.62,1.73h-16c-1.22,0-1.82-.55-1.81-1.76V70.16c0-2.75.06-2.81,2.86-2.81h14c2.43,0,2.51.09,2.49,2.43,0,1,0,2,0,2.93A2.19,2.19,0,0,0,915.5,73.18Z"/><path class="a1693878-ef5b-46d6-81ae-8265969fb268" d="M1184.64,135.55c-11-.34-22.19-3.26-32.07-10.33a33.34,33.34,0,0,1-2.74-2.3,1.81,1.81,0,0,1-.19-2.85q5-5.76,10.06-11.54c.9-1,1.73-.81,2.67-.07a45.46,45.46,0,0,0,12.67,7.25c6,2.14,12,2.91,18.24,1.23,6-1.64,9.38-6.52,8.37-12.11-.75-4.18-3.86-5.94-7.46-7.1-4.11-1.32-8.42-1.64-12.66-2.27a48.65,48.65,0,0,1-13.89-3.95c-10.59-5-15.84-14.31-14.85-26.19,1.09-13,8.91-22.25,22.16-25.18a52.84,52.84,0,0,1,41.91,7.71c2.14,1.41,2.15,1.58.73,3.68q-3.66,5.47-7.35,10.94c-1.15,1.7-1.53,1.77-3.29.66-7-4.41-14.5-7.13-22.94-6.53a13.08,13.08,0,0,0-6.18,1.89,9.16,9.16,0,0,0-4.33,8.73c.16,3.49,2.18,5.68,5.14,7.15,3.51,1.74,7.33,2.32,11.16,2.8,6.22.78,12.37,1.82,18.1,4.51,9.9,4.65,14.47,12.68,14.64,23.4.23,14.61-8.12,25.09-22.85,28.8A63.34,63.34,0,0,1,1184.64,135.55Z"/><path class="ed209a66-2ac5-4207-b4fa-a765c9fd5d5e" d="M815.27,135.54A58.13,58.13,0,0,1,784,126a25.29,25.29,0,0,1-3.91-3.18,1.81,1.81,0,0,1-.05-2.84q5-5.65,9.93-11.4c1-1.22,1.93-.76,2.93,0A44.84,44.84,0,0,0,807,116.25a29.86,29.86,0,0,0,16.36.78c6.37-1.6,9.82-6.73,8.56-12.69-.62-3-2.68-4.62-5.24-5.8a34.5,34.5,0,0,0-10.25-2.45c-6.1-.76-12.15-1.73-17.81-4.29-9.49-4.29-14.79-11.5-15.42-22-.48-8.11,1.48-15.37,7.16-21.38a30,30,0,0,1,17.55-8.85,55.61,55.61,0,0,1,34.19,5.17A37.22,37.22,0,0,1,848,48.4a1.46,1.46,0,0,1,.46,2.32q-4.05,6-8,12.05c-.79,1.19-1.62,1.32-2.86.53-5.93-3.79-12.28-6.46-19.44-6.74a20,20,0,0,0-7.52.81c-4.21,1.47-6.67,4.64-6.76,8.8s2,7.06,6.39,8.78c4,1.54,8.2,2,12.39,2.57,6.11.84,12.07,2.15,17.54,5.17a22.8,22.8,0,0,1,11.94,15.83c1.42,6.72,1.18,13.39-1.76,19.73-3.62,7.79-10,12.33-18,14.93C827.17,134.88,821.79,135.44,815.27,135.54Z"/><path class="ed209a66-2ac5-4207-b4fa-a765c9fd5d5e" d="M1028.31,127.78v28.58c0,2.21-.18,2.38-2.44,2.38h-14.68c-2,0-2.32-.31-2.33-2.21q0-43.48,0-87c0-1.9.3-2.19,2.15-2.19,5.05,0,10.11,0,15.17,0,1.53,0,2.22.51,2.13,2.08-.07,1.22,0,2.45,0,4.1,3.86-5.25,9-7.17,14.84-7.62,6.15-.48,12,.39,17.21,4.09a21.43,21.43,0,0,1,8.36,12.44c3.13,12.29,3.39,24.7-.21,36.88-3.24,11-11.75,16.56-23.26,16.22-4.91-.15-9.58-1.09-13.58-4.19A17.3,17.3,0,0,1,1028.31,127.78Zm23-27.46a60.54,60.54,0,0,0-.4-7.17c-.21-1.17-.43-2.35-.72-3.5a9.89,9.89,0,0,0-9.78-7.56c-5.6-.13-9.39,2.24-10.74,7.07a45.18,45.18,0,0,0-.36,21.74c1.18,5.58,4.81,8.2,10.32,8.32s9.22-2.75,10.65-8C1051.2,107.77,1051.2,104.19,1051.27,100.32Z"/><path class="a1693878-ef5b-46d6-81ae-8265969fb268" d="M1381.86,106.45h-19.24c-1.91,0-2.07.21-1.73,2.08,1.28,7,6,10.92,13.5,11.19a21.3,21.3,0,0,0,15.6-5.41c1.15-1,2-1.14,3.15,0,2.53,2.53,5.21,4.92,7.82,7.37,1.63,1.52,1.64,2,0,3.53A35.18,35.18,0,0,1,1385,134c-8.46,2.12-16.9,2.24-25.18-.79A25,25,0,0,1,1344,116.9a53.17,53.17,0,0,1-.57-31.27c2.69-9.66,9.18-15.78,18.83-18.5a37.38,37.38,0,0,1,20.76.06c11.36,3.29,17.57,11.2,19.53,22.65a93.19,93.19,0,0,1,.91,14.93c0,1.59-1,1.69-2.17,1.69Zm-9.36-12.87c3.36,0,6.73-.07,10.1,0,1.5,0,1.83-.51,1.76-1.9-.33-6.71-4.63-10.91-11.54-11.16-7.09-.25-12.09,4.56-12.08,11.55,0,1.12.34,1.52,1.49,1.5C1365.65,93.54,1369.07,93.58,1372.5,93.58Z"/><path class="a1693878-ef5b-46d6-81ae-8265969fb268" d="M1270.21,128.47c-8.06,7.78-17.46,8.46-27.3,5.65-9.56-2.73-13.69-10.59-13.38-19.93.4-12.14,8.58-18.23,19.79-20,6.16-1,12.37-.56,18.56-.57,1.67,0,2.13-.5,2.11-2.13-.06-6.6-2.07-9.09-8.63-9.9-7-.86-13.79-.28-19.84,3.88-1,.66-1.59.38-2.12-.56q-2.93-5.16-5.88-10.31c-.67-1.16-.25-1.87.77-2.56a37.05,37.05,0,0,1,16.78-5.8,59.76,59.76,0,0,1,22.17,1.19c9,2.39,13.89,8.24,14.82,17.45a60.6,60.6,0,0,1,.3,6.18q0,20.19,0,40.4c0,2.31-.2,2.51-2.5,2.51-4.52,0-9,0-13.54,0-1.55,0-2.23-.52-2.13-2.08C1270.26,130.83,1270.21,129.74,1270.21,128.47Zm-8.11-22a38.19,38.19,0,0,0-7.67.46,11.67,11.67,0,0,0-2.18.66c-3.22,1.29-4.64,3.78-4.29,7.38.29,2.87,2.35,5,5.51,5.62a21.82,21.82,0,0,0,9.38-.13c3.47-.78,6.09-2.65,6.86-6.34a29.93,29.93,0,0,0,.27-6.49c0-.93-.56-1.18-1.4-1.16C1266.63,106.47,1264.67,106.45,1262.1,106.45Z"/><path class="a1693878-ef5b-46d6-81ae-8265969fb268" d="M1323.45,107.59v24.1c0,2.05-.23,2.28-2.22,2.28h-14.68c-2.1,0-2.29-.21-2.29-2.36q0-23.87,0-47.73c0-2.37,0-2.38-2.27-2.37-4.43,0-4.1.38-4.09-4.17,0-2.71,0-5.43,0-8.14,0-1.28.47-2,1.83-1.84a1,1,0,0,0,.17,0c4.37-.06,4.37-.06,4.38-4.36a33.93,33.93,0,0,1,.89-8.23c2-8.25,7.58-13,16.34-14.06,4.5-.56,9-.34,13.52-.39a1.5,1.5,0,0,1,1.73,1.68V54.38c0,1.24-.66,1.68-1.87,1.68a41.91,41.91,0,0,0-7,.24c-2.67.45-3.86,1.68-4.24,4.36-.24,1.73-.14,3.47-.21,5.21,0,1.16.5,1.51,1.57,1.5,3.16,0,6.31,0,9.46,0,1.53,0,2.2.48,2.17,2-.06,3.36,0,6.73,0,10.09,0,1.43-.49,2.09-2,2-3-.08-6,0-9,0-2.19,0-2.2,0-2.2,2.13Z"/><path class="ed209a66-2ac5-4207-b4fa-a765c9fd5d5e" d="M1081.21,79.48V42.84c0-2.38.14-2.53,2.45-2.53H1098c2.38,0,2.51.13,2.51,2.47q0,34.36,0,68.72a15.79,15.79,0,0,0,.23,2.75,4.38,4.38,0,0,0,4.37,4,35.78,35.78,0,0,0,3.59.08c1.25,0,1.9.45,1.88,1.82,0,4.29,0,8.58,0,12.86,0,.91-.22,1.76-1.25,1.75-5-.07-10,.41-14.9-.68-7.77-1.73-11.89-6.52-12.92-14.91a42.91,42.91,0,0,1-.32-5.19Q1081.22,96.75,1081.21,79.48Z"/><path class="ed209a66-2ac5-4207-b4fa-a765c9fd5d5e" d="M862.83,100.64q0-15.56,0-31.12c0-2,.18-2.16,2.12-2.16q7.5,0,15,0c2,0,2.18.19,2.18,2.1q0,31.2,0,62.4c0,1.87-.25,2.11-2.21,2.11H865.09c-2.06,0-2.26-.2-2.26-2.21Q862.82,116.19,862.83,100.64Z"/><path class="ed209a66-2ac5-4207-b4fa-a765c9fd5d5e" d="M1139.27,100.71v30.94c0,2.14-.18,2.32-2.33,2.33H1122.1c-1.91,0-2.14-.24-2.14-2.18q0-31.11,0-62.22c0-2,.17-2.21,2.24-2.21,5,0,10,0,15,0,1.57,0,2.09.55,2.09,2.1C1139.25,79.85,1139.27,90.28,1139.27,100.71Z"/><path class="ed209a66-2ac5-4207-b4fa-a765c9fd5d5e" d="M872.51,56.75c-2.55,0-5.11,0-7.66,0-1.43,0-2.07-.47-2.05-2,.07-4.18.06-8.36,0-12.53,0-1.38.49-2,1.9-2q7.74,0,15.48,0c1.47,0,2,.6,2,2.06-.07,4.12-.06,8.25,0,12.37,0,1.46-.52,2.07-2,2C877.62,56.71,875.06,56.75,872.51,56.75Z"/><path class="ed209a66-2ac5-4207-b4fa-a765c9fd5d5e" d="M1129.55,56.75c-2.61,0-5.22,0-7.82,0-1.21,0-1.8-.47-1.79-1.74q0-6.51,0-13c0-1.16.49-1.7,1.65-1.7h16c1.21,0,1.73.57,1.72,1.82,0,4.23,0,8.46,0,12.69,0,1.39-.53,2-1.92,1.94C1134.76,56.72,1132.15,56.75,1129.55,56.75Z"/><path class="ed209a66-2ac5-4207-b4fa-a765c9fd5d5e" d="M1414.45,71.17c0,1,0,2,0,2.92,0,.47-.09.9-.68.9s-.65-.38-.64-.88c0-2,0-4.1,0-6.15,0-.34-.14-.82.41-.93a1,1,0,0,1,1.14.66c.65,1.42,1.34,2.83,2.12,4.48.73-1.56,1.38-2.91,2-4.26.24-.52.47-1,1.17-.89.92.11.53.81.54,1.26,0,1.84,0,3.68,0,5.52,0,.52.14,1.21-.7,1.18s-.65-.72-.66-1.23c0-.9,0-1.8,0-3.08a10.09,10.09,0,0,0-1.5,2.51c-.52.89-1.13,1-1.67,0-.4-.76-.77-1.54-1.15-2.32l-.36-.14Z"/><path class="ed209a66-2ac5-4207-b4fa-a765c9fd5d5e" d="M1408.66,67h2.43c.35,0,.64.06.66.51s-.22.73-.67.64c-1.72-.32-1.8.7-1.74,2s0,2.59,0,3.89c0,.54,0,1-.73,1s-.71-.49-.7-1c0-1.46-.06-2.93,0-4.38.06-1.11-.28-1.61-1.44-1.47-.36,0-.92.22-1-.51s.56-.62,1-.63C1407.25,67,1408,67,1408.66,67Z"/><path class="b672a97f-5c9f-430b-a7cf-62cba7cb977e" d="M1414.45,71.17l0-.46.36.14Z"/></svg>