<svg id="ebee4a10-77fa-49bb-9ade-c31312a7a24e" data-name="Ebene 1" xmlns="http://www.w3.org/2000/svg" viewBox="0 0 1680 200"><defs><style>.b0e20507-1b0f-43bc-a942-4e9a891a4a42{fill:#ff6700;fill-rule:evenodd;}.ea62bffd-d40d-4b37-8574-85f120ae88ea{fill:#fff;}.a6e74410-846e-4ce8-8207-4a3fc2ff81c7{fill:none;stroke:#ccc;stroke-miterlimit:10;}.eeb6a454-7ed5-427f-a25c-376da8222e93{fill:#f9b213;}.ebe2a42b-9e71-4743-ae6d-4af140335b77{isolation:isolate;}.a5c93a08-a045-436c-86f9-ecf95a7c1142{fill:#ccc;}</style></defs><title>HOOBS_x_mi-hygrtothermograph</title><path class="b0e20507-1b0f-43bc-a942-4e9a891a4a42" d="M894.67,160H783.83a4.56,4.56,0,0,1-4.56-4.56V44.58A4.57,4.57,0,0,1,783.83,40H894.67a4.55,4.55,0,0,1,4.55,4.55V155.43a4.54,4.54,0,0,1-4.55,4.53"/><path class="ea62bffd-d40d-4b37-8574-85f120ae88ea" d="M873.33,77.76h-9.44a.73.73,0,0,0-.73.72v43.05a.73.73,0,0,0,.73.72h9.44a.73.73,0,0,0,.73-.72v-43a.73.73,0,0,0-.73-.72"/><path class="ea62bffd-d40d-4b37-8574-85f120ae88ea" d="M841.11,77.76h-36a.73.73,0,0,0-.73.72v43.05a.73.73,0,0,0,.73.72h9.44a.72.72,0,0,0,.74-.72h0V87.74a.71.71,0,0,1,.71-.71H836.4c5.71,0,7.34,4.38,7.34,7.2v27.3a.73.73,0,0,0,.73.72h9.43a.73.73,0,0,0,.73-.72V91a12.22,12.22,0,0,0-3.55-9.33,12.74,12.74,0,0,0-10-3.9"/><path class="ea62bffd-d40d-4b37-8574-85f120ae88ea" d="M834.5,95h-9.91a.73.73,0,0,0-.74.71v25.92a.73.73,0,0,0,.74.71h9.91a.7.7,0,0,0,.72-.7h0v-26a.71.71,0,0,0-.71-.71h0"/><g id="ab38cc53-a245-40cf-8e06-196ce4ae29b2" data-name="Stroke"><line class="a6e74410-846e-4ce8-8207-4a3fc2ff81c7" x1="700.5" y1="60" x2="700.5" y2="140"/></g><path class="eeb6a454-7ed5-427f-a25c-376da8222e93" d="M154.17,41.5h-78A19.5,19.5,0,0,0,56.67,61v78a19.5,19.5,0,0,0,19.5,19.5h78a19.5,19.5,0,0,0,19.5-19.5V61A19.5,19.5,0,0,0,154.17,41.5Zm2,59.26a3.24,3.24,0,0,1-4.59,0,3.21,3.21,0,0,1-.95-2.09l-8.82-8.82V69.92a1.63,1.63,0,0,0-1.63-1.63h-3.25a1.63,1.63,0,0,0-1.62,1.63V83.6l-4.88-5.13-15-15a1.62,1.62,0,0,0-2.3,0L78.59,97.89a1.64,1.64,0,0,0,0,2.3l2.3,2.3a1.64,1.64,0,0,0,2.3,0l26.43-26.43a6.49,6.49,0,0,1,9.19,0l26.43,26.43a6.51,6.51,0,0,1,0,9.19l-2.3,2.3a6.49,6.49,0,0,1-9.19,0L115.36,95.59a1.64,1.64,0,0,0-2.3,0L94.68,114a1.62,1.62,0,0,0,0,2.3l2.3,2.29a1.61,1.61,0,0,0,2.29,0l10.35-10.34a6.49,6.49,0,0,1,9.19,0l10.34,10.34a6.51,6.51,0,0,1,0,9.2L118,138.89a3.21,3.21,0,0,1-1,2.09,3.25,3.25,0,1,1-2.5-5.54l11.12-11.12a1.62,1.62,0,0,0,0-2.3l-10.34-10.34a1.62,1.62,0,0,0-2.3,0L102.72,122a6.49,6.49,0,0,1-9.19,0l-2.3-2.3a6.49,6.49,0,0,1,0-9.19l18.39-18.38a6.49,6.49,0,0,1,9.19,0l18.38,18.38a1.64,1.64,0,0,0,2.3,0l2.3-2.3a1.64,1.64,0,0,0,0-2.3L115.36,79.51a1.62,1.62,0,0,0-2.3,0L86.63,105.93a6.49,6.49,0,0,1-9.19,0l-2.3-2.29a6.52,6.52,0,0,1,0-9.2L109.62,60a6.49,6.49,0,0,1,9.19,0l11.6,11.61V69.92a6.5,6.5,0,0,1,6.5-6.5h3.25a6.5,6.5,0,0,1,6.5,6.5V87.83l7.4,7.39a3.25,3.25,0,0,1,2.09,5.54Z"/><path class="eeb6a454-7ed5-427f-a25c-376da8222e93" d="M612.42,61H624.1v3.65h-3.71v11H616.1v-11h-3.68Zm13.09,0h4.72l3.34,7.78L637,61h4.72V75.62h-3.85V67.39l-2.77,6.81h-2.92l-2.77-6.81v8.23h-3.85Z"/><path class="eeb6a454-7ed5-427f-a25c-376da8222e93" d="M271.65,61v78H254.31V107h-34v32H202.92V61h17.35V91.75h34V61Zm10.65,39c0-22.41,16.77-39,39.65-39s39.64,16.48,39.64,39S344.72,139,322,139,282.3,122.41,282.3,100Zm62.09.39c0-14.19-9.63-23.9-22.44-23.9s-22.45,9.71-22.45,23.9,9.64,23.89,22.45,23.89S344.39,114.57,344.39,100.39ZM368.8,100c0-22.41,16.77-39,39.65-39s39.64,16.48,39.64,39-16.87,39-39.64,39S368.8,122.41,368.8,100Zm62.09.39c0-14.19-9.63-23.9-22.44-23.9S386,86.2,386,100.39s9.64,23.89,22.45,23.89S430.89,114.57,430.89,100.39Zm96.58,17.33c0,13.48-10.28,21.28-30,21.28H458.74V61h36.61c18.74,0,28.38,8.13,28.38,20.28a18.86,18.86,0,0,1-10,17.16C522.12,101.23,527.47,107.91,527.47,117.72ZM476.71,76.06V93.67h16.5c8.1,0,12.5-3,12.5-8.86s-4.4-8.75-12.5-8.75Zm32.59,39.47c0-6.29-4.61-9.28-13.22-9.28H476.71v18.46h19.37C504.69,124.71,509.3,121.93,509.3,115.53Zm23.38,14.74,5.69-13.14A41.52,41.52,0,0,0,562.28,125c9.94,0,14-3.44,14-8.08,0-14.11-42.13-4.41-42.13-32.42,0-12.82,9.94-23.49,30.53-23.49,9.11,0,18.43,2.26,25.16,6.68l-5.18,13.25A39.67,39.67,0,0,0,564.56,75c-9.94,0-13.77,3.87-13.77,8.61,0,13.9,42.13,4.31,42.13,32,0,12.61-10,23.38-30.74,23.38C550.69,139,539.1,135.44,532.68,130.27Z"/><g class="ebe2a42b-9e71-4743-ae6d-4af140335b77"><path class="a5c93a08-a045-436c-86f9-ecf95a7c1142" d="M960.61,84.44h-9.23V65.25h-18V84.44h-9.23V39.65h9.23V57.8h18V39.65h9.23Z"/><path class="a5c93a08-a045-436c-86f9-ecf95a7c1142" d="M980.52,71.86l6.15-20.7h9.54L982.82,89.61l-.74,1.76c-2,4.34-5.27,6.52-9.84,6.52a14,14,0,0,1-3.94-.59V90.57l1.36,0a7.31,7.31,0,0,0,3.76-.77,5.06,5.06,0,0,0,2-2.56l1-2.73L964.76,51.16h9.57Z"/><path class="a5c93a08-a045-436c-86f9-ecf95a7c1142" d="M998,67.55c0-5.1,1.22-9.22,3.65-12.33a11.81,11.81,0,0,1,9.83-4.68,10.36,10.36,0,0,1,8.52,3.75l.37-3.13h8.06V83.34a14.28,14.28,0,0,1-2,7.6,12.83,12.83,0,0,1-5.59,4.92,19.6,19.6,0,0,1-8.43,1.69,18.35,18.35,0,0,1-7.14-1.46,12.67,12.67,0,0,1-5.26-3.77l3.94-5.41a10.42,10.42,0,0,0,8.06,3.72,7.63,7.63,0,0,0,5.51-1.89,7.12,7.12,0,0,0,2-5.37V81.58a10.28,10.28,0,0,1-8.09,3.48,11.78,11.78,0,0,1-9.71-4.69Q998,75.67,998,67.92Zm8.89.67a12.15,12.15,0,0,0,1.82,7.1,5.78,5.78,0,0,0,5,2.57,6.19,6.19,0,0,0,5.82-3v-14a6.17,6.17,0,0,0-5.76-3,5.81,5.81,0,0,0-5,2.62Q1006.91,63,1006.91,68.22Z"/><path class="a5c93a08-a045-436c-86f9-ecf95a7c1142" d="M1054,59.49a24.8,24.8,0,0,0-3.2-.24c-3.37,0-5.57,1.13-6.62,3.41V84.44h-8.89V51.16h8.4l.25,4q2.67-4.57,7.41-4.58a9.18,9.18,0,0,1,2.77.4Z"/><path class="a5c93a08-a045-436c-86f9-ecf95a7c1142" d="M1055.77,67.49a19.79,19.79,0,0,1,1.91-8.83,14,14,0,0,1,5.49-6,16.06,16.06,0,0,1,8.32-2.12,15.15,15.15,0,0,1,11,4.12q4.26,4.13,4.76,11.2l.06,2.28q0,7.67-4.28,12.29t-11.48,4.63q-7.2,0-11.49-4.62t-4.29-12.55Zm8.89.63q0,4.75,1.79,7.26a6.41,6.41,0,0,0,10.15,0c1.21-1.65,1.82-4.3,1.82-7.93q0-4.66-1.82-7.21a5.89,5.89,0,0,0-5.11-2.56,5.81,5.81,0,0,0-5,2.54Q1064.67,62.8,1064.66,68.12Z"/></g><g class="ebe2a42b-9e71-4743-ae6d-4af140335b77"><path class="a5c93a08-a045-436c-86f9-ecf95a7c1142" d="M957.87,122.74H944.15v37.32h-9.23V122.74H921.38v-7.47h36.49Z"/><path class="a5c93a08-a045-436c-86f9-ecf95a7c1142" d="M971.22,130.4a11.11,11.11,0,0,1,8.9-4.24q10.83,0,11,12.58v21.32h-8.89V139a6.18,6.18,0,0,0-1.23-4.23,5.29,5.29,0,0,0-4.09-1.37,6.06,6.06,0,0,0-5.67,3v23.66h-8.89V112.81h8.89Z"/><path class="a5c93a08-a045-436c-86f9-ecf95a7c1142" d="M1013.13,160.68a16.35,16.35,0,0,1-11.92-4.49q-4.61-4.5-4.6-12v-.86a20.11,20.11,0,0,1,1.93-9,14.22,14.22,0,0,1,5.5-6.09,15.37,15.37,0,0,1,8.1-2.14q6.84,0,10.76,4.31t3.92,12.21v3.63h-21.2a8.28,8.28,0,0,0,2.6,5.23,7.88,7.88,0,0,0,5.49,2,9.6,9.6,0,0,0,8-3.72l4.37,4.89a13.27,13.27,0,0,1-5.41,4.41A17.73,17.73,0,0,1,1013.13,160.68Zm-1-27.35a5.54,5.54,0,0,0-4.29,1.79,9.31,9.31,0,0,0-2.11,5.13h12.37v-.71a6.59,6.59,0,0,0-1.6-4.59A5.73,5.73,0,0,0,1012.11,133.33Z"/><path class="a5c93a08-a045-436c-86f9-ecf95a7c1142" d="M1050.57,135.11a24.8,24.8,0,0,0-3.2-.24c-3.36,0-5.57,1.13-6.61,3.41v21.78h-8.89V126.77h8.39l.25,4c1.78-3.05,4.26-4.58,7.42-4.58a9.16,9.16,0,0,1,2.76.4Z"/><path class="a5c93a08-a045-436c-86f9-ecf95a7c1142" d="M1063.19,126.77l.27,3.73a11.68,11.68,0,0,1,9.57-4.34q6.43,0,8.83,5.08a11.42,11.42,0,0,1,10-5.08q5.42,0,8.06,3.15t2.65,9.49v21.26h-8.93V138.83a6.32,6.32,0,0,0-1.1-4.13c-.74-.87-2-1.31-3.91-1.31a5.55,5.55,0,0,0-5.54,3.81l0,22.86h-8.89V138.87a6.27,6.27,0,0,0-1.14-4.19,5,5,0,0,0-3.87-1.29,5.75,5.75,0,0,0-5.48,3.14v23.53h-8.89V126.77Z"/><path class="a5c93a08-a045-436c-86f9-ecf95a7c1142" d="M1108,143.11a19.79,19.79,0,0,1,1.91-8.83,14,14,0,0,1,5.49-6,16.09,16.09,0,0,1,8.32-2.12,15.14,15.14,0,0,1,11,4.12q4.26,4.13,4.76,11.2l.06,2.28q0,7.65-4.28,12.29t-11.47,4.63q-7.2,0-11.5-4.62T1108,143.51Zm8.89.63q0,4.75,1.79,7.26a6.41,6.41,0,0,0,10.15,0q1.82-2.47,1.82-7.94a12.33,12.33,0,0,0-1.82-7.21,5.9,5.9,0,0,0-5.11-2.55,5.79,5.79,0,0,0-5,2.54C1117.5,137.56,1116.9,140.19,1116.9,143.74Z"/><path class="a5c93a08-a045-436c-86f9-ecf95a7c1142" d="M1143.73,143.17q0-7.65,3.65-12.34a11.83,11.83,0,0,1,9.83-4.67,10.36,10.36,0,0,1,8.52,3.75l.37-3.14h8.06V159a14.28,14.28,0,0,1-2,7.6,12.83,12.83,0,0,1-5.59,4.92,19.6,19.6,0,0,1-8.43,1.69,18.35,18.35,0,0,1-7.14-1.46,12.76,12.76,0,0,1-5.26-3.77l3.94-5.42a10.4,10.4,0,0,0,8.06,3.73,7.63,7.63,0,0,0,5.51-1.89,7.14,7.14,0,0,0,2-5.37V157.2a10.28,10.28,0,0,1-8.09,3.48,11.78,11.78,0,0,1-9.71-4.69q-3.7-4.69-3.71-12.45Zm8.89.66a12.18,12.18,0,0,0,1.82,7.11,5.78,5.78,0,0,0,5,2.57,6.19,6.19,0,0,0,5.82-3v-14a6.17,6.17,0,0,0-5.75-3.05,5.78,5.78,0,0,0-5,2.62Q1152.62,138.62,1152.62,143.83Z"/><path class="a5c93a08-a045-436c-86f9-ecf95a7c1142" d="M1199.7,135.11a24.8,24.8,0,0,0-3.2-.24c-3.37,0-5.57,1.13-6.62,3.41v21.78H1181V126.77h8.4l.25,4q2.67-4.58,7.41-4.58a9.18,9.18,0,0,1,2.77.4Z"/><path class="a5c93a08-a045-436c-86f9-ecf95a7c1142" d="M1222.34,160.06a9.72,9.72,0,0,1-.89-3,10.76,10.76,0,0,1-8.4,3.6,11.83,11.83,0,0,1-8.11-2.83,9.12,9.12,0,0,1-3.21-7.14,9.41,9.41,0,0,1,3.92-8.12c2.62-1.89,6.39-2.84,11.34-2.86h4.09v-1.91a5.52,5.52,0,0,0-1.18-3.69,4.65,4.65,0,0,0-3.74-1.39,5.32,5.32,0,0,0-3.53,1.08,3.65,3.65,0,0,0-1.27,3h-8.89a8.93,8.93,0,0,1,1.78-5.35,11.76,11.76,0,0,1,5-3.86,18.24,18.24,0,0,1,7.32-1.4q6.15,0,9.77,3.09t3.61,8.69v14.43a15.78,15.78,0,0,0,1.33,7.17v.52Zm-7.35-6.18a7.61,7.61,0,0,0,3.63-.88,5.72,5.72,0,0,0,2.46-2.35v-5.72h-3.32c-4.45,0-6.82,1.53-7.11,4.61l0,.52a3.56,3.56,0,0,0,1.17,2.74A4.52,4.52,0,0,0,1215,153.88Z"/><path class="a5c93a08-a045-436c-86f9-ecf95a7c1142" d="M1266.8,143.73q0,7.68-3.49,12.32a11.19,11.19,0,0,1-9.43,4.63,10.37,10.37,0,0,1-8.16-3.51v15.69h-8.89V126.77h8.25l.31,3.27a10.43,10.43,0,0,1,8.43-3.88,11.26,11.26,0,0,1,9.56,4.55q3.42,4.56,3.42,12.55Zm-8.89-.65q0-4.65-1.65-7.17a5.36,5.36,0,0,0-4.78-2.52q-4.18,0-5.76,3.2v13.63q1.63,3.28,5.82,3.29Q1257.92,153.51,1257.91,143.08Z"/><path class="a5c93a08-a045-436c-86f9-ecf95a7c1142" d="M1281,130.4a11.09,11.09,0,0,1,8.89-4.24q10.83,0,11,12.58v21.32H1292V139a6.18,6.18,0,0,0-1.23-4.23,5.3,5.3,0,0,0-4.1-1.37,6.05,6.05,0,0,0-5.66,3v23.66h-8.89V112.81H1281Z"/></g></svg>