<svg id="bedbc9a5-9b8b-485b-ac62-6f81a3f3fd3f" data-name="Ebene 1" xmlns="http://www.w3.org/2000/svg" viewBox="0 0 1680 200"><defs><style>.a70a31c3-e95c-402b-8495-7daaaaeda8be{fill:none;stroke:#ccc;stroke-miterlimit:10;}.b27972de-95c3-4198-bf1e-74bff49685d9{fill:#f9b213;}.bd7defaf-3f44-4e41-876c-720b3cbf2349{fill:#ff4a01;}</style></defs><title>HOOBS_x_tuya</title><g id="b8899c56-f988-47e3-84b3-e3483d7ee041" data-name="Stroke"><line class="a70a31c3-e95c-402b-8495-7daaaaeda8be" x1="700.5" y1="60" x2="700.5" y2="140"/></g><path class="b27972de-95c3-4198-bf1e-74bff49685d9" d="M154.17,41.5h-78A19.5,19.5,0,0,0,56.67,61v78a19.5,19.5,0,0,0,19.5,19.5h78a19.5,19.5,0,0,0,19.5-19.5V61A19.5,19.5,0,0,0,154.17,41.5Zm2,59.26a3.24,3.24,0,0,1-4.59,0,3.21,3.21,0,0,1-.95-2.09l-8.82-8.82V69.92a1.63,1.63,0,0,0-1.63-1.63h-3.25a1.63,1.63,0,0,0-1.62,1.63V83.6l-4.88-5.13-15-15a1.62,1.62,0,0,0-2.3,0L78.59,97.89a1.64,1.64,0,0,0,0,2.3l2.3,2.3a1.64,1.64,0,0,0,2.3,0l26.43-26.43a6.49,6.49,0,0,1,9.19,0l26.43,26.43a6.51,6.51,0,0,1,0,9.19l-2.3,2.3a6.49,6.49,0,0,1-9.19,0L115.36,95.59a1.64,1.64,0,0,0-2.3,0L94.68,114a1.62,1.62,0,0,0,0,2.3l2.3,2.29a1.61,1.61,0,0,0,2.29,0l10.35-10.34a6.49,6.49,0,0,1,9.19,0l10.34,10.34a6.51,6.51,0,0,1,0,9.2L118,138.89a3.21,3.21,0,0,1-1,2.09,3.25,3.25,0,1,1-2.5-5.54l11.12-11.12a1.62,1.62,0,0,0,0-2.3l-10.34-10.34a1.62,1.62,0,0,0-2.3,0L102.72,122a6.49,6.49,0,0,1-9.19,0l-2.3-2.3a6.49,6.49,0,0,1,0-9.19l18.39-18.38a6.49,6.49,0,0,1,9.19,0l18.38,18.38a1.64,1.64,0,0,0,2.3,0l2.3-2.3a1.64,1.64,0,0,0,0-2.3L115.36,79.51a1.62,1.62,0,0,0-2.3,0L86.63,105.93a6.49,6.49,0,0,1-9.19,0l-2.3-2.29a6.52,6.52,0,0,1,0-9.2L109.62,60a6.49,6.49,0,0,1,9.19,0l11.6,11.61V69.92a6.5,6.5,0,0,1,6.5-6.5h3.25a6.5,6.5,0,0,1,6.5,6.5V87.83l7.4,7.39a3.25,3.25,0,0,1,2.09,5.54Z"/><path class="b27972de-95c3-4198-bf1e-74bff49685d9" d="M612.42,61H624.1v3.65h-3.71v11H616.1v-11h-3.68Zm13.09,0h4.72l3.34,7.78L637,61h4.72V75.62h-3.85V67.39l-2.77,6.81h-2.92l-2.77-6.81v8.23h-3.85Z"/><path class="b27972de-95c3-4198-bf1e-74bff49685d9" d="M271.65,61v78H254.31V107h-34v32H202.92V61h17.35V91.75h34V61Zm10.65,39c0-22.41,16.77-39,39.65-39s39.64,16.48,39.64,39S344.72,139,322,139,282.3,122.41,282.3,100Zm62.09.39c0-14.19-9.63-23.9-22.44-23.9s-22.45,9.71-22.45,23.9,9.64,23.89,22.45,23.89S344.39,114.57,344.39,100.39ZM368.8,100c0-22.41,16.77-39,39.65-39s39.64,16.48,39.64,39-16.87,39-39.64,39S368.8,122.41,368.8,100Zm62.09.39c0-14.19-9.63-23.9-22.44-23.9S386,86.2,386,100.39s9.64,23.89,22.45,23.89S430.89,114.57,430.89,100.39Zm96.58,17.33c0,13.48-10.28,21.28-30,21.28H458.74V61h36.61c18.74,0,28.38,8.13,28.38,20.28a18.86,18.86,0,0,1-10,17.16C522.12,101.23,527.47,107.91,527.47,117.72ZM476.71,76.06V93.67h16.5c8.1,0,12.5-3,12.5-8.86s-4.4-8.75-12.5-8.75Zm32.59,39.47c0-6.29-4.61-9.28-13.22-9.28H476.71v18.46h19.37C504.69,124.71,509.3,121.93,509.3,115.53Zm23.38,14.74,5.69-13.14A41.52,41.52,0,0,0,562.28,125c9.94,0,14-3.44,14-8.08,0-14.11-42.13-4.41-42.13-32.42,0-12.82,9.94-23.49,30.53-23.49,9.11,0,18.43,2.26,25.16,6.68l-5.18,13.25A39.67,39.67,0,0,0,564.56,75c-9.94,0-13.77,3.87-13.77,8.61,0,13.9,42.13,4.31,42.13,32,0,12.61-10,23.38-30.74,23.38C550.69,139,539.1,135.44,532.68,130.27Z"/><path class="bd7defaf-3f44-4e41-876c-720b3cbf2349" d="M888.23,38.76h100a37,37,0,0,1,11.78,1.7c9.88,3.28,16.11,10,18.86,20a35.23,35.23,0,0,1,1.22,9.41q0,42.29,0,84.55a5.54,5.54,0,0,1-.11,1.46,3.71,3.71,0,0,1-3.53,2.84c-.61,0-1.22,0-1.83,0H811.88a35.22,35.22,0,0,1-15.28-3.11c-7.83-3.7-12.74-9.87-15.11-18.13a36.46,36.46,0,0,1-1.34-10.12q0-42.11,0-84.19a8,8,0,0,1,.05-1.1,3.65,3.65,0,0,1,3.35-3.31,11.94,11.94,0,0,1,1.34,0Zm35.24,83.08a8.66,8.66,0,0,1-5.54,7.57,15.27,15.27,0,0,1-6.18,1.2,5.73,5.73,0,0,0-4.67,2.24,5.42,5.42,0,0,0-.8,6.05,5.14,5.14,0,0,0,5,3,27.65,27.65,0,0,0,3.28-.22,25,25,0,0,0,11.46-4.13,19,19,0,0,0,8.74-14.79c.39-5.23.61-10.47.89-15.7q.48-9,.93-17.91c.07-1.34.16-2.68.12-4A5.12,5.12,0,0,0,933,80.4a6,6,0,0,0-7.48,5.31c-.11,1.5-.17,3-.25,4.51-.24,4.43-.42,8.85-.74,13.27a11.61,11.61,0,0,1-3.44,7.87,8.53,8.53,0,0,1-14.13-3.72,14.73,14.73,0,0,1-.51-5.07c.2-4.1.43-8.2.64-12.3.08-1.59.19-3.17.2-4.76a5.26,5.26,0,0,0-6.53-5.19,6.06,6.06,0,0,0-4.78,6c-.26,5.32-.5,10.64-.82,16a26.26,26.26,0,0,0,.58,7.51,19.09,19.09,0,0,0,8.59,12.52,18.49,18.49,0,0,0,8.53,2.63c3.73.27,7.22-.28,10.16-2.83A2.79,2.79,0,0,1,923.47,121.84Zm63.19-14h0c.09-2.28.2-4.55.26-6.83a21.6,21.6,0,0,0-25.63-21.76,23.67,23.67,0,0,0-19,25.92,21.25,21.25,0,0,0,21.53,18.51,5.6,5.6,0,0,0,2.9-.82,5.81,5.81,0,0,0,2.77-5.92,5.31,5.31,0,0,0-4.3-4.43,11.88,11.88,0,0,0-1.58-.12,10.47,10.47,0,0,1-7.66-3.75,11,11,0,0,1,1.41-15.54c3.57-3.08,7.7-3.89,12-1.89s6.27,5.49,6.18,10.19c0,1.87-.13,3.74-.19,5.61-.11,3.41-.26,6.83-.32,10.24a5.3,5.3,0,0,0,4,5.31,5.82,5.82,0,0,0,7.21-5.21C986.46,114.15,986.54,111,986.66,107.81ZM829.49,91.09c2.36,0,4.72,0,7.08,0a6.47,6.47,0,0,0,1.81-.23,5.89,5.89,0,0,0,4.34-5.55A5.41,5.41,0,0,0,838.83,80a8.54,8.54,0,0,0-2.42-.23H822.14c-.42,0-.59-.21-.55-.61a6.12,6.12,0,0,0,0-.74c.06-2.11.18-4.22.16-6.34a5.24,5.24,0,0,0-5-5.17,5.8,5.8,0,0,0-6.25,5.73c-.09,2.12-.17,4.23-.22,6.34,0,.56-.17.85-.77.8a6,6,0,0,0-.85,0,47.2,47.2,0,0,0-4.76.09,5.81,5.81,0,0,0-5,6.77,5.39,5.39,0,0,0,5.47,4.45c1.59,0,3.18,0,4.76,0,.46,0,.69.15.63.63,0,.24,0,.49,0,.73-.12,3.62-.25,7.24-.36,10.86a22.13,22.13,0,0,0,.58,5.56,21.09,21.09,0,0,0,18.82,16.23c2.72.23,5.45.08,8.17.11a5.6,5.6,0,0,0,1.21-.17,5.84,5.84,0,0,0,4.27-7.24,5.43,5.43,0,0,0-5.43-3.91q-2.93,0-5.85,0a10.31,10.31,0,0,1-10.46-10.44c0-3.82.24-7.64.39-11.46,0-.88.06-.89,1-.89Zm18.81,5h0c-.07,2.35-.15,4.71-.21,7.07a26.33,26.33,0,0,0,1,8.32c1.87,6.23,5.74,10.57,12,12.51a24,24,0,0,0,9.53.86c7.38-.72,12.71-4.32,15.79-11.13A29,29,0,0,0,888.84,103c.18-4.1.3-8.21.44-12.31.06-1.75.16-3.5.12-5.24a5.35,5.35,0,0,0-5.48-5.23,5.91,5.91,0,0,0-5.78,5.77c-.19,5.33-.36,10.65-.54,16a16.84,16.84,0,0,1-1.16,6.08,8.62,8.62,0,0,1-8.8,5.65,7.68,7.68,0,0,1-7.28-5,11.78,11.78,0,0,1-1-5c.07-3.58.21-7.16.33-10.73.07-2.44.21-4.88.21-7.32a5.36,5.36,0,0,0-6.83-5.24,5.88,5.88,0,0,0-4.45,5.72C848.51,89.42,848.41,92.76,848.3,96.09ZM984.66,51.87a15.66,15.66,0,0,0-2.92.22,22.48,22.48,0,0,0-7.22,2.11,3.75,3.75,0,0,0-2.11,3.8,3.8,3.8,0,0,0,3.05,3.25,4.1,4.1,0,0,0,2.59-.44,16.11,16.11,0,0,1,10.37-1,16.55,16.55,0,0,1,12.84,18.28,3.75,3.75,0,1,0,7.44.89,23.46,23.46,0,0,0,0-6.32A24.19,24.19,0,0,0,984.66,51.87Zm3.55,26.69a2.13,2.13,0,0,0,0,.25,3.73,3.73,0,0,0,7.42.66,10.46,10.46,0,0,0,0-3.16,12,12,0,0,0-16.66-9.25A3.75,3.75,0,1,0,981.75,74a6.19,6.19,0,0,1,1.51-.43C986.15,73.29,988.31,75.48,988.21,78.56Z"/></svg>