<svg id="ecd283a4-2582-470d-8a9f-2dc58e212050" data-name="Ebene 1" xmlns="http://www.w3.org/2000/svg" viewBox="0 0 1680 200"><defs><style>.a420625e-5713-4c44-b801-3aa65fbc3654{fill:none;stroke:#ccc;stroke-miterlimit:10;}.a623890a-053c-4565-b2b9-b6dd1a299830{fill:#f9b213;}.a8551c9a-765e-4386-9ed8-7ddec87707fc{isolation:isolate;}.b65cf2c3-4612-4840-8296-7b0713a332a8{fill:#ccc;}.a07e40b4-0f9f-442f-a9fa-a24d43f9c38e{fill:#107c10;}</style></defs><title>HOOBS_x_xboxtv</title><g id="acfdc984-f4cc-455c-b21d-c9e1a8b524fa" data-name="Stroke"><line class="a420625e-5713-4c44-b801-3aa65fbc3654" x1="700.5" y1="60" x2="700.5" y2="140"/></g><path class="a623890a-053c-4565-b2b9-b6dd1a299830" d="M154.17,41.5h-78A19.5,19.5,0,0,0,56.67,61v78a19.5,19.5,0,0,0,19.5,19.5h78a19.5,19.5,0,0,0,19.5-19.5V61A19.5,19.5,0,0,0,154.17,41.5Zm2,59.26a3.24,3.24,0,0,1-4.59,0,3.21,3.21,0,0,1-.95-2.09l-8.82-8.82V69.92a1.63,1.63,0,0,0-1.63-1.63h-3.25a1.63,1.63,0,0,0-1.62,1.63V83.6l-4.88-5.13-15-15a1.62,1.62,0,0,0-2.3,0L78.59,97.89a1.64,1.64,0,0,0,0,2.3l2.3,2.3a1.64,1.64,0,0,0,2.3,0l26.43-26.43a6.49,6.49,0,0,1,9.19,0l26.43,26.43a6.51,6.51,0,0,1,0,9.19l-2.3,2.3a6.49,6.49,0,0,1-9.19,0L115.36,95.59a1.64,1.64,0,0,0-2.3,0L94.68,114a1.62,1.62,0,0,0,0,2.3l2.3,2.29a1.61,1.61,0,0,0,2.29,0l10.35-10.34a6.49,6.49,0,0,1,9.19,0l10.34,10.34a6.51,6.51,0,0,1,0,9.2L118,138.89a3.21,3.21,0,0,1-1,2.09,3.25,3.25,0,1,1-2.5-5.54l11.12-11.12a1.62,1.62,0,0,0,0-2.3l-10.34-10.34a1.62,1.62,0,0,0-2.3,0L102.72,122a6.49,6.49,0,0,1-9.19,0l-2.3-2.3a6.49,6.49,0,0,1,0-9.19l18.39-18.38a6.49,6.49,0,0,1,9.19,0l18.38,18.38a1.64,1.64,0,0,0,2.3,0l2.3-2.3a1.64,1.64,0,0,0,0-2.3L115.36,79.51a1.62,1.62,0,0,0-2.3,0L86.63,105.93a6.49,6.49,0,0,1-9.19,0l-2.3-2.29a6.52,6.52,0,0,1,0-9.2L109.62,60a6.49,6.49,0,0,1,9.19,0l11.6,11.61V69.92a6.5,6.5,0,0,1,6.5-6.5h3.25a6.5,6.5,0,0,1,6.5,6.5V87.83l7.4,7.39a3.25,3.25,0,0,1,2.09,5.54Z"/><path class="a623890a-053c-4565-b2b9-b6dd1a299830" d="M612.42,61H624.1v3.65h-3.71v11H616.1v-11h-3.68Zm13.09,0h4.72l3.34,7.78L637,61h4.72V75.62h-3.85V67.39l-2.77,6.81h-2.92l-2.77-6.81v8.23h-3.85Z"/><path class="a623890a-053c-4565-b2b9-b6dd1a299830" d="M271.65,61v78H254.31V107h-34v32H202.92V61h17.35V91.75h34V61Zm10.65,39c0-22.41,16.77-39,39.65-39s39.64,16.48,39.64,39S344.72,139,322,139,282.3,122.41,282.3,100Zm62.09.39c0-14.19-9.63-23.9-22.44-23.9s-22.45,9.71-22.45,23.9,9.64,23.89,22.45,23.89S344.39,114.57,344.39,100.39ZM368.8,100c0-22.41,16.77-39,39.65-39s39.64,16.48,39.64,39-16.87,39-39.64,39S368.8,122.41,368.8,100Zm62.09.39c0-14.19-9.63-23.9-22.44-23.9S386,86.2,386,100.39s9.64,23.89,22.45,23.89S430.89,114.57,430.89,100.39Zm96.58,17.33c0,13.48-10.28,21.28-30,21.28H458.74V61h36.61c18.74,0,28.38,8.13,28.38,20.28a18.86,18.86,0,0,1-10,17.16C522.12,101.23,527.47,107.91,527.47,117.72ZM476.71,76.06V93.67h16.5c8.1,0,12.5-3,12.5-8.86s-4.4-8.75-12.5-8.75Zm32.59,39.47c0-6.29-4.61-9.28-13.22-9.28H476.71v18.46h19.37C504.69,124.71,509.3,121.93,509.3,115.53Zm23.38,14.74,5.69-13.14A41.52,41.52,0,0,0,562.28,125c9.94,0,14-3.44,14-8.08,0-14.11-42.13-4.41-42.13-32.42,0-12.82,9.94-23.49,30.53-23.49,9.11,0,18.43,2.26,25.16,6.68l-5.18,13.25A39.67,39.67,0,0,0,564.56,75c-9.94,0-13.77,3.87-13.77,8.61,0,13.9,42.13,4.31,42.13,32,0,12.61-10,23.38-30.74,23.38C550.69,139,539.1,135.44,532.68,130.27Z"/><g class="a8551c9a-765e-4386-9ed8-7ddec87707fc"><path class="b65cf2c3-4612-4840-8296-7b0713a332a8" d="M1215.72,101.21v6.37H1205v29.61h-7.57V107.58h-10.81v-6.37Z"/><path class="b65cf2c3-4612-4840-8296-7b0713a332a8" d="M1241.17,101.21H1249l-12.27,36h-7.1l-12.17-36h8l7.82,27.32Z"/></g><path id="bfbc6f4c-f66a-4b76-9aee-32389032f6c1" data-name="path6965" class="a07e40b4-0f9f-442f-a9fa-a24d43f9c38e" d="M1176.67,137.14l-27.39-36.91,25-33.51h-9.4l-20.35,27.34-20.36-27.34h-9.34l25,33.56-27.34,36.91h9.4l22.67-30.56,22.72,30.56h9.4"/><path id="f1db056e-5c3e-4586-ae83-468d2b22025e" data-name="path6967" class="a07e40b4-0f9f-442f-a9fa-a24d43f9c38e" d="M990.05,137.14l-27.33-36.91,25-33.51h-9.34L958,94.06,937.63,66.72h-9.4l25,33.56-27.39,36.91h9.4L958,106.63l22.66,30.56h9.4"/><path id="bb5d5ea6-345c-4e8d-8eda-d3099eb6cb87" data-name="path6969" class="a07e40b4-0f9f-442f-a9fa-a24d43f9c38e" d="M1022.87,129.75h-20.94v-25.6h20.94c7.95,0,17.41,2.13,17.41,12.22C1040.28,128,1029.32,129.75,1022.87,129.75Zm-20.94-55.7h20.94c5.65,0,15.16,1.38,15.16,11.18,0,7.38-5.53,11.83-15.16,11.83h-20.94Zm40.14,28.83a18.56,18.56,0,0,0-4.67-2.94,16,16,0,0,0,8.53-14.07c0-4.5-1.67-19.15-23.12-19.15H993.92V97.11h-9.63c-1.27,1.62-4.1,5.48-5.2,7h14.83v33h28.89c15.68,0,25.43-7.91,25.43-20.59a17,17,0,0,0-6.17-13.67"/><path id="ae1bfad4-e0dc-45ba-87cb-24bdf039c813" data-name="path6971" class="a07e40b4-0f9f-442f-a9fa-a24d43f9c38e" d="M1085.84,131.25c-15.28,0-25.95-12-25.95-29.35s10.67-29.35,25.95-29.35,25.84,12,25.84,29.35S1101.07,131.25,1085.84,131.25Zm0-66.14c-20.07,0-34,15.11-34,36.79s14,36.79,34,36.79,33.91-15.11,33.91-36.79-14-36.79-33.91-36.79"/><g id="fde64a70-93fc-408d-bb11-101828bdaa94" data-name="g4146"><path id="e79a686f-7fe8-4cc7-b5b6-46710881d271" data-name="path4148" class="a07e40b4-0f9f-442f-a9fa-a24d43f9c38e" d="M833.38,159.75a59.7,59.7,0,0,1-26.6-9.45c-6.73-4.4-8.25-6.19-8.25-9.81,0-7.23,8-19.92,21.55-34.36,7.73-8.21,18.48-17.83,19.64-17.58,2.27.51,20.35,18.18,27.12,26.48C877.55,128.2,882.48,139,880,143.76c-1.91,3.65-13.7,10.78-22.36,13.51A65.2,65.2,0,0,1,833.38,159.75ZM789.46,133c-5.58-8.58-8.41-17-9.78-29.26-.45-4-.29-6.35,1-14.63,1.63-10.33,7.5-22.27,14.56-29.62,3-3.14,3.28-3.22,6.94-2,4.45,1.51,9.2,4.79,16.56,11.46l4.31,3.89-2.35,2.9c-10.91,13.4-22.41,32.4-26.74,44.15-2.36,6.39-3.3,12.81-2.29,15.47C792.38,137.16,791.75,136.5,789.46,133Zm98.07,1.45c.55-2.69-.14-7.65-1.78-12.64-3.53-10.82-15.38-31-26.25-44.66l-3.43-4.3,3.71-3.41a76.67,76.67,0,0,1,11.82-9.37c2.86-1.78,6.94-3.36,8.7-3.36,1.08,0,4.89,4,8,8.29a62.66,62.66,0,0,1,10,23.27c1.15,5.46,1.24,17.15.19,22.58A72.45,72.45,0,0,1,894,125a77.24,77.24,0,0,1-6.14,10.52c-.75.94-.75.94-.34-1.13ZM834.37,54.64a74.43,74.43,0,0,0-17-6,31.23,31.23,0,0,0-5.69-.32c-3.53.17-3.37,0,2.29-2.68a58.08,58.08,0,0,1,14-4.65c6-1.27,17.26-1.28,23.16,0,6.37,1.35,13.87,4.14,18.09,6.74l1.26.78-2.88-.15c-5.73-.29-14.07,2-23,6.39A46.38,46.38,0,0,1,839.26,57C839.1,57,836.88,55.92,834.37,54.64Z"/></g></svg>