<svg id="ada49f68-9fec-447d-bf45-b2e269855ccb" data-name="Ebene 1" xmlns="http://www.w3.org/2000/svg" viewBox="0 0 1680 200"><defs><style>.f8741174-0c97-4a84-8d66-32916dcaa5fa{fill:none;stroke:#ccc;stroke-miterlimit:10;}.afa1bf42-d71f-4da5-a0c1-a4cef7c57f67{fill:#f9b213;}.bcf4ed90-41e6-4d40-875c-a1a78ad6d55f{fill:#ccc;}</style></defs><title>HOOBS_x_pc volume</title><g id="b3fab454-ce67-485a-b459-fe2542309fd0" data-name="Stroke"><line class="f8741174-0c97-4a84-8d66-32916dcaa5fa" x1="700.5" y1="60" x2="700.5" y2="140"/></g><path class="afa1bf42-d71f-4da5-a0c1-a4cef7c57f67" d="M154.17,41.5h-78A19.5,19.5,0,0,0,56.67,61v78a19.5,19.5,0,0,0,19.5,19.5h78a19.5,19.5,0,0,0,19.5-19.5V61A19.5,19.5,0,0,0,154.17,41.5Zm2,59.26a3.24,3.24,0,0,1-4.59,0,3.21,3.21,0,0,1-.95-2.09l-8.82-8.82V69.92a1.63,1.63,0,0,0-1.63-1.63h-3.25a1.63,1.63,0,0,0-1.62,1.63V83.6l-4.88-5.13-15-15a1.62,1.62,0,0,0-2.3,0L78.59,97.89a1.64,1.64,0,0,0,0,2.3l2.3,2.3a1.64,1.64,0,0,0,2.3,0l26.43-26.43a6.49,6.49,0,0,1,9.19,0l26.43,26.43a6.51,6.51,0,0,1,0,9.19l-2.3,2.3a6.49,6.49,0,0,1-9.19,0L115.36,95.59a1.64,1.64,0,0,0-2.3,0L94.68,114a1.62,1.62,0,0,0,0,2.3l2.3,2.29a1.61,1.61,0,0,0,2.29,0l10.35-10.34a6.49,6.49,0,0,1,9.19,0l10.34,10.34a6.51,6.51,0,0,1,0,9.2L118,138.89a3.21,3.21,0,0,1-1,2.09,3.25,3.25,0,1,1-2.5-5.54l11.12-11.12a1.62,1.62,0,0,0,0-2.3l-10.34-10.34a1.62,1.62,0,0,0-2.3,0L102.72,122a6.49,6.49,0,0,1-9.19,0l-2.3-2.3a6.49,6.49,0,0,1,0-9.19l18.39-18.38a6.49,6.49,0,0,1,9.19,0l18.38,18.38a1.64,1.64,0,0,0,2.3,0l2.3-2.3a1.64,1.64,0,0,0,0-2.3L115.36,79.51a1.62,1.62,0,0,0-2.3,0L86.63,105.93a6.49,6.49,0,0,1-9.19,0l-2.3-2.29a6.52,6.52,0,0,1,0-9.2L109.62,60a6.49,6.49,0,0,1,9.19,0l11.6,11.61V69.92a6.5,6.5,0,0,1,6.5-6.5h3.25a6.5,6.5,0,0,1,6.5,6.5V87.83l7.4,7.39a3.25,3.25,0,0,1,2.09,5.54Z"/><path class="afa1bf42-d71f-4da5-a0c1-a4cef7c57f67" d="M612.42,61H624.1v3.65h-3.71v11H616.1v-11h-3.68Zm13.09,0h4.72l3.34,7.78L637,61h4.72V75.62h-3.85V67.39l-2.77,6.81h-2.92l-2.77-6.81v8.23h-3.85Z"/><path class="afa1bf42-d71f-4da5-a0c1-a4cef7c57f67" d="M271.65,61v78H254.31V107h-34v32H202.92V61h17.35V91.75h34V61Zm10.65,39c0-22.41,16.77-39,39.65-39s39.64,16.48,39.64,39S344.72,139,322,139,282.3,122.41,282.3,100Zm62.09.39c0-14.19-9.63-23.9-22.44-23.9s-22.45,9.71-22.45,23.9,9.64,23.89,22.45,23.89S344.39,114.57,344.39,100.39ZM368.8,100c0-22.41,16.77-39,39.65-39s39.64,16.48,39.64,39-16.87,39-39.64,39S368.8,122.41,368.8,100Zm62.09.39c0-14.19-9.63-23.9-22.44-23.9S386,86.2,386,100.39s9.64,23.89,22.45,23.89S430.89,114.57,430.89,100.39Zm96.58,17.33c0,13.48-10.28,21.28-30,21.28H458.74V61h36.61c18.74,0,28.38,8.13,28.38,20.28a18.86,18.86,0,0,1-10,17.16C522.12,101.23,527.47,107.91,527.47,117.72ZM476.71,76.06V93.67h16.5c8.1,0,12.5-3,12.5-8.86s-4.4-8.75-12.5-8.75Zm32.59,39.47c0-6.29-4.61-9.28-13.22-9.28H476.71v18.46h19.37C504.69,124.71,509.3,121.93,509.3,115.53Zm23.38,14.74,5.69-13.14A41.52,41.52,0,0,0,562.28,125c9.94,0,14-3.44,14-8.08,0-14.11-42.13-4.41-42.13-32.42,0-12.82,9.94-23.49,30.53-23.49,9.11,0,18.43,2.26,25.16,6.68l-5.18,13.25A39.67,39.67,0,0,0,564.56,75c-9.94,0-13.77,3.87-13.77,8.61,0,13.9,42.13,4.31,42.13,32,0,12.61-10,23.38-30.74,23.38C550.69,139,539.1,135.44,532.68,130.27Z"/><path class="bcf4ed90-41e6-4d40-875c-a1a78ad6d55f" d="M1022.85,101.08v18.79h-11V66.54h20.8a24.17,24.17,0,0,1,10.57,2.2,16.29,16.29,0,0,1,7,6.25,17.42,17.42,0,0,1,2.45,9.21q0,7.83-5.36,12.36t-14.85,4.52Zm0-8.9h9.81c2.91,0,5.12-.68,6.65-2.05a7.48,7.48,0,0,0,2.29-5.86,8.8,8.8,0,0,0-2.31-6.34,8.63,8.63,0,0,0-6.37-2.49h-10.07Z"/><path class="bcf4ed90-41e6-4d40-875c-a1a78ad6d55f" d="M1102.09,102.1q-.61,8.61-6.35,13.55t-15.11,4.95q-10.25,0-16.13-6.91t-5.88-19V91.48a32.1,32.1,0,0,1,2.71-13.55,20.37,20.37,0,0,1,7.75-9,21.78,21.78,0,0,1,11.7-3.13q9.23,0,14.87,5t6.52,13.87h-11q-.4-5.16-2.87-7.48t-7.53-2.33q-5.49,0-8.22,3.94T1069.76,91v4q0,8.64,2.62,12.63t8.25,4q5.1,0,7.6-2.32c1.68-1.55,2.63-4,2.88-7.2Z"/><path class="bcf4ed90-41e6-4d40-875c-a1a78ad6d55f" d="M1129.19,101.3h-20.61V92.77h20.61Z"/><path class="bcf4ed90-41e6-4d40-875c-a1a78ad6d55f" d="M1158.09,106.64l12.08-40.1h12.23l-18.56,53.33h-11.47l-18.49-53.33h12.2Z"/><path class="bcf4ed90-41e6-4d40-875c-a1a78ad6d55f" d="M1183.39,99.69a23.53,23.53,0,0,1,2.27-10.51A16.64,16.64,0,0,1,1192.2,82a19,19,0,0,1,9.91-2.53q8,0,13.09,4.91t5.66,13.33l.07,2.71q0,9.12-5.09,14.63t-13.66,5.51q-8.57,0-13.68-5.5t-5.11-14.94Zm10.59.75c0,3.76.7,6.64,2.12,8.64a7.63,7.63,0,0,0,12.08,0c1.44-2,2.17-5.11,2.17-9.44,0-3.69-.73-6.55-2.17-8.59a7,7,0,0,0-6.07-3,6.92,6.92,0,0,0-6,3C1194.68,93.08,1194,96.21,1194,100.44Z"/><path class="bcf4ed90-41e6-4d40-875c-a1a78ad6d55f" d="M1238.62,119.87H1228V63.62h10.62Z"/><path class="bcf4ed90-41e6-4d40-875c-a1a78ad6d55f" d="M1271.06,115.84q-3.91,4.75-10.84,4.76-6.36,0-9.72-3.66t-3.42-10.73v-26h10.58v25.63q0,6.19,5.64,6.19c3.59,0,6-1.24,7.4-3.74V80.24h10.62v39.63h-10Z"/><path class="bcf4ed90-41e6-4d40-875c-a1a78ad6d55f" d="M1299.22,80.24l.33,4.43a13.94,13.94,0,0,1,11.39-5.16q7.66,0,10.51,6a13.61,13.61,0,0,1,11.91-6q6.44,0,9.59,3.75t3.15,11.3v25.31h-10.62V94.6q0-3.37-1.32-4.93t-4.65-1.56a6.61,6.61,0,0,0-6.59,4.55l0,27.21h-10.59V94.63q0-3.43-1.35-5c-.91-1-2.44-1.54-4.62-1.54a6.87,6.87,0,0,0-6.52,3.74v28H1289.3V80.24Z"/><path class="bcf4ed90-41e6-4d40-875c-a1a78ad6d55f" d="M1372.47,120.6q-8.71,0-14.19-5.35T1352.8,101v-1a23.94,23.94,0,0,1,2.31-10.68,17,17,0,0,1,6.54-7.25,18.39,18.39,0,0,1,9.65-2.54q8.13,0,12.79,5.12t4.67,14.54v4.33h-25.23a9.83,9.83,0,0,0,3.1,6.22,9.36,9.36,0,0,0,6.53,2.34,11.4,11.4,0,0,0,9.56-4.43l5.2,5.83a16,16,0,0,1-6.44,5.25A21.13,21.13,0,0,1,1372.47,120.6ZM1371.26,88a6.63,6.63,0,0,0-5.11,2.13,11.08,11.08,0,0,0-2.51,6.11h14.72v-.85a7.89,7.89,0,0,0-1.9-5.46A6.82,6.82,0,0,0,1371.26,88Z"/><path class="bcf4ed90-41e6-4d40-875c-a1a78ad6d55f" d="M876.29,62.5v7a23.93,23.93,0,0,1,0,45.87v7.08a30.76,30.76,0,0,0,0-60m8.55,30a15.27,15.27,0,0,0-8.55-13.79v27.47a15,15,0,0,0,8.55-13.68M838.66,82.24v20.52h13.69l17.1,17.1V65.13l-17.1,17.11Z"/><path class="bcf4ed90-41e6-4d40-875c-a1a78ad6d55f" d="M809.45,55h120v75h-120m120,15a15,15,0,0,0,15-15V55a15,15,0,0,0-15-15h-120a15,15,0,0,0-15,15v75a15,15,0,0,0,15,15h-30v15h180V145Z"/></svg>