<svg id="faa8eacf-ff30-4fd0-b0fe-69ad37f3573f" data-name="Ebene 1" xmlns="http://www.w3.org/2000/svg" viewBox="0 0 1680 200"><defs><style>.b4611069-1e09-4c99-ade8-e6ccc71e9b62{fill:none;stroke:#ccc;stroke-miterlimit:10;}.ecd71278-9e69-4513-848a-bf1c3442bcdb{fill:#f9b213;}.e3fae523-c5b6-4943-882c-b00ac6cce647{fill:#ccc;}</style></defs><title>HOOBS_x_fibaro</title><g id="a39b239f-3654-4116-b4f0-8f75777c2159" data-name="Stroke"><line class="b4611069-1e09-4c99-ade8-e6ccc71e9b62" x1="700.5" y1="60" x2="700.5" y2="140"/></g><path class="ecd71278-9e69-4513-848a-bf1c3442bcdb" d="M154.17,41.5h-78A19.5,19.5,0,0,0,56.67,61v78a19.5,19.5,0,0,0,19.5,19.5h78a19.5,19.5,0,0,0,19.5-19.5V61A19.5,19.5,0,0,0,154.17,41.5Zm2,59.26a3.24,3.24,0,0,1-4.59,0,3.21,3.21,0,0,1-.95-2.09l-8.82-8.82V69.92a1.63,1.63,0,0,0-1.63-1.63h-3.25a1.63,1.63,0,0,0-1.62,1.63V83.6l-4.88-5.13-15-15a1.62,1.62,0,0,0-2.3,0L78.59,97.89a1.64,1.64,0,0,0,0,2.3l2.3,2.3a1.64,1.64,0,0,0,2.3,0l26.43-26.43a6.49,6.49,0,0,1,9.19,0l26.43,26.43a6.51,6.51,0,0,1,0,9.19l-2.3,2.3a6.49,6.49,0,0,1-9.19,0L115.36,95.59a1.64,1.64,0,0,0-2.3,0L94.68,114a1.62,1.62,0,0,0,0,2.3l2.3,2.29a1.61,1.61,0,0,0,2.29,0l10.35-10.34a6.49,6.49,0,0,1,9.19,0l10.34,10.34a6.51,6.51,0,0,1,0,9.2L118,138.89a3.21,3.21,0,0,1-1,2.09,3.25,3.25,0,1,1-2.5-5.54l11.12-11.12a1.62,1.62,0,0,0,0-2.3l-10.34-10.34a1.62,1.62,0,0,0-2.3,0L102.72,122a6.49,6.49,0,0,1-9.19,0l-2.3-2.3a6.49,6.49,0,0,1,0-9.19l18.39-18.38a6.49,6.49,0,0,1,9.19,0l18.38,18.38a1.64,1.64,0,0,0,2.3,0l2.3-2.3a1.64,1.64,0,0,0,0-2.3L115.36,79.51a1.62,1.62,0,0,0-2.3,0L86.63,105.93a6.49,6.49,0,0,1-9.19,0l-2.3-2.29a6.52,6.52,0,0,1,0-9.2L109.62,60a6.49,6.49,0,0,1,9.19,0l11.6,11.61V69.92a6.5,6.5,0,0,1,6.5-6.5h3.25a6.5,6.5,0,0,1,6.5,6.5V87.83l7.4,7.39a3.25,3.25,0,0,1,2.09,5.54Z"/><path class="ecd71278-9e69-4513-848a-bf1c3442bcdb" d="M612.42,61H624.1v3.65h-3.71v11H616.1v-11h-3.68Zm13.09,0h4.72l3.34,7.78L637,61h4.72V75.62h-3.85V67.39l-2.77,6.81h-2.92l-2.77-6.81v8.23h-3.85Z"/><path class="ecd71278-9e69-4513-848a-bf1c3442bcdb" d="M271.65,61v78H254.31V107h-34v32H202.92V61h17.35V91.75h34V61Zm10.65,39c0-22.41,16.77-39,39.65-39s39.64,16.48,39.64,39S344.72,139,322,139,282.3,122.41,282.3,100Zm62.09.39c0-14.19-9.63-23.9-22.44-23.9s-22.45,9.71-22.45,23.9,9.64,23.89,22.45,23.89S344.39,114.57,344.39,100.39ZM368.8,100c0-22.41,16.77-39,39.65-39s39.64,16.48,39.64,39-16.87,39-39.64,39S368.8,122.41,368.8,100Zm62.09.39c0-14.19-9.63-23.9-22.44-23.9S386,86.2,386,100.39s9.64,23.89,22.45,23.89S430.89,114.57,430.89,100.39Zm96.58,17.33c0,13.48-10.28,21.28-30,21.28H458.74V61h36.61c18.74,0,28.38,8.13,28.38,20.28a18.86,18.86,0,0,1-10,17.16C522.12,101.23,527.47,107.91,527.47,117.72ZM476.71,76.06V93.67h16.5c8.1,0,12.5-3,12.5-8.86s-4.4-8.75-12.5-8.75Zm32.59,39.47c0-6.29-4.61-9.28-13.22-9.28H476.71v18.46h19.37C504.69,124.71,509.3,121.93,509.3,115.53Zm23.38,14.74,5.69-13.14A41.52,41.52,0,0,0,562.28,125c9.94,0,14-3.44,14-8.08,0-14.11-42.13-4.41-42.13-32.42,0-12.82,9.94-23.49,30.53-23.49,9.11,0,18.43,2.26,25.16,6.68l-5.18,13.25A39.67,39.67,0,0,0,564.56,75c-9.94,0-13.77,3.87-13.77,8.61,0,13.9,42.13,4.31,42.13,32,0,12.61-10,23.38-30.74,23.38C550.69,139,539.1,135.44,532.68,130.27Z"/><g id="a1514776-1b87-4752-bf27-5ccfc87bae49" data-name="fibaro"><polygon class="e3fae523-c5b6-4943-882c-b00ac6cce647" points="800.12 75.2 800.12 98.61 848.13 98.61 848.13 117.17 800.12 117.17 800.12 158.14 778.84 158.14 778.84 56.22 857.74 56.22 857.74 75.2 800.12 75.2"/><rect class="e3fae523-c5b6-4943-882c-b00ac6cce647" x="867.48" y="56.22" width="21.27" height="101.92"/><path class="e3fae523-c5b6-4943-882c-b00ac6cce647" d="M973.3,105.18c7.26,3.27,13.26,13.27,13.26,23.41,0,17-11,29.55-35.13,29.55H898.69V56.22h51.48c22.42,0,33.55,12.41,33.55,27,0,9.13-4,18.55-10.42,22m-25.74-8.6c9.57,0,14.28-3.85,14.28-11.41S957,73.92,947.42,73.92H920V96.61Zm.72,43.4c10.7,0,16.41-4,16.41-12.57s-5.42-13-16.13-13H920V140Z"/><path class="e3fae523-c5b6-4943-882c-b00ac6cce647" d="M1144.15,56.22c22.69,0,35.83,11.7,35.83,31.68,0,12.71-5.42,22.13-15.13,27.28l15.27,43h-21.41L1145,119.77h-31.2v38.37h-21.24V56.22Zm-30.35,45.39h27.35c12.56,0,17.13-4.85,17.13-13.42,0-9.56-5.14-13.27-19.28-13.27h-25.2Z"/><path class="e3fae523-c5b6-4943-882c-b00ac6cce647" d="M1285.76,107.18c0,30-17.27,52.82-49.68,52.82s-49.68-22.85-49.68-52.82,17.27-52.81,49.68-52.81,49.68,22.83,49.68,52.81m-21.84,0c0-18.85-8.71-33.84-27.84-33.84-18.84,0-27.84,15-27.84,33.84s9,33.83,27.84,33.83c19.13,0,27.84-15,27.84-33.83"/><path class="e3fae523-c5b6-4943-882c-b00ac6cce647" d="M1056.84,130.59h-40.65l-8.29,27.55h-21l32.43-101.92h34.81l32.54,101.92h-21.56ZM1021.61,112h29.53l-10.71-35.41h-8.11Z"/><path class="e3fae523-c5b6-4943-882c-b00ac6cce647" d="M1329.31,56.26A16.26,16.26,0,1,1,1313.05,40a16.26,16.26,0,0,1,16.26,16.26m-2.85,0c0-7.77-5.62-13.66-13.44-13.66s-13.34,5.86-13.34,13.66,5.53,13.6,13.34,13.6,13.44-5.88,13.44-13.6m-11.81-8.34c3.73,0,5.88,1.93,5.88,5.27a4.67,4.67,0,0,1-2.41,4.43l2.5,7h-3.86l-2.2-6.15h-4.08v6.22h-3.78V47.92Zm-.61,7.29c1.88,0,2.63-.75,2.63-2s-.75-2-2.63-2h-3.6v4Z"/></g></svg>