<svg id="a83cd398-f9cb-4ad5-ab87-bd04669259e0" data-name="Ebene 1" xmlns="http://www.w3.org/2000/svg" viewBox="0 0 1680 200"><defs><style>.eddb4eef-5f7d-4caf-96a7-7d89c3039bad{fill:none;stroke:#ccc;stroke-miterlimit:10;}.a2ab251c-178b-494f-9e6f-e6d0db81cb84{fill:#f9b213;}.a9248967-c0d3-4c70-ad13-8ee6590d6a67{fill:#dd6f10;}.a8440bed-6850-4bae-9a47-5c166579cc31{fill:#ef7925;}.a8440bed-6850-4bae-9a47-5c166579cc31,.bd87d7b6-3379-406c-b626-c672bd8e59e1{fill-rule:evenodd;}.a901ceb9-9372-4c1b-bd97-2eb6164af4b3,.bd87d7b6-3379-406c-b626-c672bd8e59e1{fill:#ccc;}</style></defs><title>HOOBS_x_landroid</title><g id="b034f146-8b26-4869-9ef7-02711cd06d01" data-name="Stroke"><line class="eddb4eef-5f7d-4caf-96a7-7d89c3039bad" x1="700.5" y1="60" x2="700.5" y2="140"/></g><path class="a2ab251c-178b-494f-9e6f-e6d0db81cb84" d="M154.17,41.5h-78A19.5,19.5,0,0,0,56.67,61v78a19.5,19.5,0,0,0,19.5,19.5h78a19.5,19.5,0,0,0,19.5-19.5V61A19.5,19.5,0,0,0,154.17,41.5Zm2,59.26a3.24,3.24,0,0,1-4.59,0,3.21,3.21,0,0,1-.95-2.09l-8.82-8.82V69.92a1.63,1.63,0,0,0-1.63-1.63h-3.25a1.63,1.63,0,0,0-1.62,1.63V83.6l-4.88-5.13-15-15a1.62,1.62,0,0,0-2.3,0L78.59,97.89a1.64,1.64,0,0,0,0,2.3l2.3,2.3a1.64,1.64,0,0,0,2.3,0l26.43-26.43a6.49,6.49,0,0,1,9.19,0l26.43,26.43a6.51,6.51,0,0,1,0,9.19l-2.3,2.3a6.49,6.49,0,0,1-9.19,0L115.36,95.59a1.64,1.64,0,0,0-2.3,0L94.68,114a1.62,1.62,0,0,0,0,2.3l2.3,2.29a1.61,1.61,0,0,0,2.29,0l10.35-10.34a6.49,6.49,0,0,1,9.19,0l10.34,10.34a6.51,6.51,0,0,1,0,9.2L118,138.89a3.21,3.21,0,0,1-1,2.09,3.25,3.25,0,1,1-2.5-5.54l11.12-11.12a1.62,1.62,0,0,0,0-2.3l-10.34-10.34a1.62,1.62,0,0,0-2.3,0L102.72,122a6.49,6.49,0,0,1-9.19,0l-2.3-2.3a6.49,6.49,0,0,1,0-9.19l18.39-18.38a6.49,6.49,0,0,1,9.19,0l18.38,18.38a1.64,1.64,0,0,0,2.3,0l2.3-2.3a1.64,1.64,0,0,0,0-2.3L115.36,79.51a1.62,1.62,0,0,0-2.3,0L86.63,105.93a6.49,6.49,0,0,1-9.19,0l-2.3-2.29a6.52,6.52,0,0,1,0-9.2L109.62,60a6.49,6.49,0,0,1,9.19,0l11.6,11.61V69.92a6.5,6.5,0,0,1,6.5-6.5h3.25a6.5,6.5,0,0,1,6.5,6.5V87.83l7.4,7.39a3.25,3.25,0,0,1,2.09,5.54Z"/><path class="a2ab251c-178b-494f-9e6f-e6d0db81cb84" d="M612.42,61H624.1v3.65h-3.71v11H616.1v-11h-3.68Zm13.09,0h4.72l3.34,7.78L637,61h4.72V75.62h-3.85V67.39l-2.77,6.81h-2.92l-2.77-6.81v8.23h-3.85Z"/><path class="a2ab251c-178b-494f-9e6f-e6d0db81cb84" d="M271.65,61v78H254.31V107h-34v32H202.92V61h17.35V91.75h34V61Zm10.65,39c0-22.41,16.77-39,39.65-39s39.64,16.48,39.64,39S344.72,139,322,139,282.3,122.41,282.3,100Zm62.09.39c0-14.19-9.63-23.9-22.44-23.9s-22.45,9.71-22.45,23.9,9.64,23.89,22.45,23.89S344.39,114.57,344.39,100.39ZM368.8,100c0-22.41,16.77-39,39.65-39s39.64,16.48,39.64,39-16.87,39-39.64,39S368.8,122.41,368.8,100Zm62.09.39c0-14.19-9.63-23.9-22.44-23.9S386,86.2,386,100.39s9.64,23.89,22.45,23.89S430.89,114.57,430.89,100.39Zm96.58,17.33c0,13.48-10.28,21.28-30,21.28H458.74V61h36.61c18.74,0,28.38,8.13,28.38,20.28a18.86,18.86,0,0,1-10,17.16C522.12,101.23,527.47,107.91,527.47,117.72ZM476.71,76.06V93.67h16.5c8.1,0,12.5-3,12.5-8.86s-4.4-8.75-12.5-8.75Zm32.59,39.47c0-6.29-4.61-9.28-13.22-9.28H476.71v18.46h19.37C504.69,124.71,509.3,121.93,509.3,115.53Zm23.38,14.74,5.69-13.14A41.52,41.52,0,0,0,562.28,125c9.94,0,14-3.44,14-8.08,0-14.11-42.13-4.41-42.13-32.42,0-12.82,9.94-23.49,30.53-23.49,9.11,0,18.43,2.26,25.16,6.68l-5.18,13.25A39.67,39.67,0,0,0,564.56,75c-9.94,0-13.77,3.87-13.77,8.61,0,13.9,42.13,4.31,42.13,32,0,12.61-10,23.38-30.74,23.38C550.69,139,539.1,135.44,532.68,130.27Z"/><g id="b89d49fd-c004-4536-be19-21ff228f1de4" data-name="landroid"><path class="a9248967-c0d3-4c70-ad13-8ee6590d6a67" d="M804.41,81.67l8.43-40.15H791l-11.39,55h41.62l3-14.87ZM852,41.52l-29.25,55h20.82l4-8.92h15.86l.49,8.92h22.32l-6-55Zm10.9,32.72h-9.41l8.91-20.82h0Zm73.88-32.72-6.95,33.21h0l-4.46-33.21H899.1l-11.9,55H905L912,63.29h0l4.46,33.21h26.28l11.4-55Zm47.58,0H958.58l-11.9,55H974c16.84,0,29.74-10.4,33.21-26.77,4-16.35-.5-28.25-22.81-28.25m1,27.76c-1,5.45-2.48,9.42-4.46,11.4s-4,3.47-7.43,3.47h-2l6.44-29.74h2c3.46,0,5.44,1.48,5.94,3.46,1,2,.49,6-.5,11.41m78.84-13.85c2-10.4-4-13.87-15.85-13.87h-32.25l-11.4,55H1026l4-19.33h2.48c3.47,0,4.46,1,4.46,4,0,4.46-1,11.4-.5,15.86h21.33c-1-8.42,1-15.86,1-20.82,0-4-2.48-6.45-7.94-6.94h0c8.43-2.48,11.9-7.44,13.38-13.89m-21.81,3.47c-1,4-4.46,5.46-8.42,5.46h-1.49l2-10.4h2c4.47,0,7,1,6,4.94m54-18.85c-18.84,0-30.74,11.9-34.21,28.75s3.47,28.75,22.31,28.75,30.74-11.89,34.21-28.75S1115.24,40,1096.4,40m-.49,29.25c-2.48,12.89-5.46,14.38-8.93,14.38s-5.45-2-3-14.38,5.45-14.37,8.92-14.37c4-.5,5.46,2,3,14.37m31.28-27.73-11.41,55h21.82l11.89-55Zm51.56,0H1153l-11.9,55h27.28c16.84,0,29.74-10.4,33.21-26.77s-1-28.25-22.8-28.25m.49,27.76c-1,5.45-2.47,9.42-4.46,11.4s-4,3.47-7.44,3.47h-2l6.45-29.74h2c3.47,0,5.45,1.48,6,3.46,1,2,.49,6-.5,11.41"/><path class="a9248967-c0d3-4c70-ad13-8ee6590d6a67" d="M1134.58,117.37c-1,3.47-3.47,5.45-7.94,5.45s-6.44-2-6-5.45l2-9.92h6l-2,9.42c0,1,0,1.49,1,1.49a1.59,1.59,0,0,0,1.49-1.49l2-9.42h6Z"/><polygon class="a9248967-c0d3-4c70-ad13-8ee6590d6a67" points="1138.54 107.45 1145.48 107.45 1146.47 116.37 1146.47 116.37 1148.45 107.45 1153.41 107.45 1149.94 122.32 1143 122.32 1142.01 113.4 1142.01 113.4 1140.03 122.32 1135.07 122.32 1138.54 107.45"/><polygon class="a9248967-c0d3-4c70-ad13-8ee6590d6a67" points="1168.29 111.91 1168.29 111.91 1164.32 122.32 1158.86 122.32 1158.86 111.91 1158.86 111.91 1156.88 122.32 1151.92 122.32 1154.9 107.45 1162.83 107.45 1162.83 116.37 1162.83 116.37 1166.3 107.45 1174.24 107.45 1171.26 122.32 1166.3 122.32 1168.29 111.91"/><path class="a9248967-c0d3-4c70-ad13-8ee6590d6a67" d="M1179.17,107.45h7.43l1.49,14.88h-6v-2.48h-4.45l-1,2.48h-5.45Zm3,8.92v-5.45h0l-2.47,5.45Z"/><polygon class="a9248967-c0d3-4c70-ad13-8ee6590d6a67" points="1192.08 107.45 1199.02 107.45 1200.51 116.37 1200.51 116.37 1202.49 107.45 1206.95 107.45 1203.98 122.32 1197.04 122.32 1195.55 113.4 1195.55 113.4 1193.56 122.32 1189.1 122.32 1192.08 107.45"/><polygon class="a9248967-c0d3-4c70-ad13-8ee6590d6a67" points="1208.44 107.45 1215.38 107.45 1216.87 116.37 1216.87 116.37 1218.85 107.45 1223.31 107.45 1220.34 122.32 1213.4 122.32 1211.91 113.4 1211.91 113.4 1209.93 122.32 1205.47 122.32 1208.44 107.45"/><polygon class="a9248967-c0d3-4c70-ad13-8ee6590d6a67" points="1225.29 107.45 1236.2 107.45 1235.21 111.42 1229.75 111.42 1229.26 112.9 1234.71 112.9 1233.72 116.87 1228.76 116.87 1228.27 118.36 1234.22 118.36 1233.22 122.32 1221.83 122.32 1225.29 107.45"/><path class="a9248967-c0d3-4c70-ad13-8ee6590d6a67" d="M1237.69,107.45h6.94c6,0,6.94,3,6,7.44a9,9,0,0,1-8.93,7.44h-7.43Zm3,11.4h.5a2.58,2.58,0,0,0,2-1,4.21,4.21,0,0,0,1-3c.5-1.49.5-2.48,0-3,0-.49-.49-1-1.48-1h-.5Z"/><polygon class="a9248967-c0d3-4c70-ad13-8ee6590d6a67" points="1051.29 130.26 1051.29 130.26 1046.83 140.66 1041.37 140.66 1041.37 130.26 1041.37 130.26 1039.39 140.66 1034.43 140.66 1037.41 125.8 1045.34 125.8 1045.34 134.72 1045.34 134.72 1048.81 125.8 1056.75 125.8 1053.77 140.66 1048.81 140.66 1051.29 130.26"/><path class="a9248967-c0d3-4c70-ad13-8ee6590d6a67" d="M1065.66,125.8c5,0,6.94,3,6,7.93-1,4.45-4,7.92-9.42,7.92-5,0-6.93-3-6-7.92s4-7.93,9.41-7.93m-2.48,11.39c1,0,1.49-.49,2.48-4,.5-3.47,0-4-.5-4-1,0-1.48.49-2.47,4s-.5,4,.49,4"/><polygon class="a9248967-c0d3-4c70-ad13-8ee6590d6a67" points="1072.6 125.8 1078.06 125.8 1077.07 135.22 1077.07 135.22 1080.54 125.8 1086.49 125.8 1085.99 135.22 1085.99 135.22 1088.97 125.8 1094.42 125.8 1087.98 140.66 1081.53 140.66 1082.52 131.25 1082.52 131.25 1079.05 140.66 1072.6 140.66 1072.6 125.8"/><polygon class="a9248967-c0d3-4c70-ad13-8ee6590d6a67" points="1094.92 125.8 1100.87 125.8 1097.89 140.66 1091.94 140.66 1094.92 125.8"/><polygon class="a9248967-c0d3-4c70-ad13-8ee6590d6a67" points="1102.35 125.8 1109.29 125.8 1110.78 134.72 1110.78 134.72 1112.76 125.8 1117.22 125.8 1114.25 140.66 1107.3 140.66 1105.82 131.75 1105.82 131.75 1103.83 140.66 1099.38 140.66 1102.35 125.8"/><path class="a9248967-c0d3-4c70-ad13-8ee6590d6a67" d="M1124.18,132.24h7.44l-1.49,7.93a38,38,0,0,1-7.43,1c-5.46,0-7.44-3.47-6.45-7.93a9.73,9.73,0,0,1,9.92-7.93c4.46,0,6.44,1.49,6,5h-5.46v-1a1.68,1.68,0,0,0-1-.5,2.58,2.58,0,0,0-2,1,5.71,5.71,0,0,0-1,3.47c-.5,1.49-.5,2.47,0,3,0,.5.49,1,1.48,1a1.83,1.83,0,0,0,1.49-.49l.5-2h-2Z"/><polygon class="a9248967-c0d3-4c70-ad13-8ee6590d6a67" points="1114.25 144.13 1120.2 144.13 1120.2 156.03 1120.2 156.03 1124.66 144.13 1130.11 144.13 1123.17 159.01 1115.24 159.01 1114.25 144.13"/><polygon class="a9248967-c0d3-4c70-ad13-8ee6590d6a67" points="1130.61 144.13 1142.01 144.13 1141.02 148.1 1135.57 148.1 1135.07 149.59 1140.53 149.59 1139.54 153.56 1134.58 153.56 1134.08 155.04 1140.03 155.04 1139.04 159.01 1127.63 159.01 1130.61 144.13"/><polygon class="a9248967-c0d3-4c70-ad13-8ee6590d6a67" points="1149.94 153.56 1147.46 153.56 1145.97 159.01 1140.53 159.01 1143.49 144.13 1149.44 144.13 1147.96 149.09 1150.93 149.09 1151.92 144.13 1157.38 144.13 1154.4 159.01 1148.45 159.01 1149.94 153.56"/><polygon class="a9248967-c0d3-4c70-ad13-8ee6590d6a67" points="1158.86 144.13 1164.81 144.13 1161.84 159.01 1155.89 159.01 1158.86 144.13"/><path class="a9248967-c0d3-4c70-ad13-8ee6590d6a67" d="M1178.17,153.55a7.91,7.91,0,0,1-7.93,6c-5,0-6.94-3-6-7.94a9.18,9.18,0,0,1,9.42-7.44c3.47,0,6.45,1.49,5.45,6h-5.45c.5-1.48-.5-2-1-2-1.49,0-2,1.49-2.48,4s-.5,4,1,4c1,0,1.49-.49,2-2h5Z"/><polygon class="a9248967-c0d3-4c70-ad13-8ee6590d6a67" points="1181.17 144.13 1187.12 144.13 1184.64 155.04 1190.09 155.04 1189.1 159.01 1178.2 159.01 1181.17 144.13"/><polygon class="a9248967-c0d3-4c70-ad13-8ee6590d6a67" points="1193.07 144.13 1204.47 144.13 1203.48 148.1 1198.03 148.1 1197.53 149.59 1202.99 149.59 1201.99 153.56 1197.04 153.56 1196.54 155.04 1202.49 155.04 1201.5 159.01 1190.09 159.01 1193.07 144.13"/><polygon class="a8440bed-6850-4bae-9a47-5c166579cc31" points="990.81 110.92 976.44 134.22 991.3 158.02 1024.51 158.02 1024.51 110.92 990.81 110.92"/><polygon class="a8440bed-6850-4bae-9a47-5c166579cc31" points="779.63 110.92 779.63 158.02 798.95 158.02 789.04 110.92 779.63 110.92"/><path class="bd87d7b6-3379-406c-b626-c672bd8e59e1" d="M976.43,134.23l14.37-22.81H972l-6.44,13.38-6-13.38H939.75l14.37,22.81-9.9,15.85c-.49-4-.49-6.94-1.48-9.42-1-3.47-3.47-5.44-7.93-5.94h0c6.93-1.49,9.41-6,9.41-11.4,0-8.93-6-11.9-15.85-11.9H900.59V124.8c-3-8.92-10.91-14.38-22.81-14.38-9.92,0-16.86,4-20.82,9.92l2-8.92H842.08l-4,29.74h0l-4.47-29.74H814.33l-4.47,29.74h0l-4-29.74H789l10.41,47.09h20.33l4.47-30.73h0l4.47,30.73h20.33l4.46-21.32c1,13.39,8.91,22.81,24.29,22.81,11.9,0,19.83-5.45,22.81-14.38V159h18.33V142.15h2c3,0,4.46,1,4.46,3.47.5,4,1,9.92,2.48,13.39h30.24l7.44-14.38L972.47,159h19.82Zm-99.19,12.88c-3,0-5-1.49-5-12.39,0-10.41,2-12.39,5-12.39s5,2,5,12.39c0,10.9-2,12.39-5,12.39m42.64-16.36h-1.45v-8.92h1.49c3.47,0,6,.5,6,4,.49,3.47-2.48,5-6,5"/><path class="a901ceb9-9372-4c1b-bd97-2eb6164af4b3" d="M787.55,144.63a5.46,5.46,0,1,1-5.46,5.46h0a5.5,5.5,0,0,1,5.46-5.45m0,8.92a3.47,3.47,0,1,0-3.47-3.47h0a3.39,3.39,0,0,0,3.31,3.47h.16m-2-6.44h2c1.49,0,2.48.49,2.48,1.49a1.3,1.3,0,0,1-1.11,1.48,1.21,1.21,0,0,1-.38,0l1,2.48h-1.49l-1-2h-.49v2h-1.49v-5.45Zm1.48,2.48h1c.5,0,1,0,1-.5s-.5-.49-1-.49h-1Z"/></g></svg>