<svg id="a4374fc5-be58-484f-ac2e-cb626ee3dbb3" data-name="Ebene 1" xmlns="http://www.w3.org/2000/svg" xmlns:xlink="http://www.w3.org/1999/xlink" viewBox="0 0 1680 200"><defs><style>.a9f6500d-48a0-4960-93aa-22383e04e832,.adf8fbf6-d9a2-4362-80e8-0906583e610b{fill:none;}.a9f6500d-48a0-4960-93aa-22383e04e832{stroke:#ccc;stroke-miterlimit:10;}.ab111505-e697-4f13-b181-491e25227a0f{fill:#f9b213;}.b774f2e0-737b-4e77-837a-4b36aa6cb007{fill:#0081c3;}.ed57e4da-8839-4645-80f1-8d725ad4de74{clip-path:url(#f5e39428-ca14-4de0-afdd-ceea15edd74a);}.af1c36c4-9a57-42f9-85c0-faad324c9692{fill:url(#a1f37ef9-21a4-4d2e-a1c8-b2deca1278ec);}.a28c879d-6fae-4c03-95be-c812fce2a448{fill:#ccc;}.e823338a-362f-4bf0-8096-343108f8817c{isolation:isolate;}.a082e99c-d6b7-449c-8359-8ddc15ca14cf{fill:#6a6c72;}.b21cf35e-34b9-4146-8748-e1c2c39d6876{fill:#fefefe;}.b828e1c8-da4a-48ec-897b-9e91e770401d{fill:#e1021b;}.a0ad0671-b010-4aa2-bfad-ee0282fe39d1{fill:#fff;fill-rule:evenodd;}</style><clipPath id="f5e39428-ca14-4de0-afdd-ceea15edd74a"><path class="adf8fbf6-d9a2-4362-80e8-0906583e610b" d="M887.5,107.24a13.3,13.3,0,0,1,9.55,4.25,12.6,12.6,0,0,1,2.74,7.66,11.7,11.7,0,0,1-2.74,8.42c-2,2.17-5,3.4-8.61,3.78-1.6.19-3.21,0-4.82.09h-8.7V119.53a13.29,13.29,0,0,1,3-8.51,11.43,11.43,0,0,1,9.55-3.78Zm-57.77-4.63v28.17h-4.64V102.61Zm12.48,57.29a17.24,17.24,0,0,0,13-5.86h0l.09-.09.1-.1a8.9,8.9,0,0,0,2.93,4.64,8.16,8.16,0,0,0,5.1,1.51v-4.54a5.49,5.49,0,0,1-2.17-.47,3.07,3.07,0,0,1-.95-1,10,10,0,0,1-1-3.69,42.34,42.34,0,0,1-.28-5.95v-7.76h-4.63v5.77c0,9.46-6.34,12.86-12.58,12.86-8,0-12.2-5.77-12.2-12.48l-.09-6H825l.09,4.92c-.09,12.1,7.57,18.24,17.12,18.24Zm16.92-57.29v28.17H854.5V102.61Zm-74.69,34v23.17H779.8V136.64Zm12.57-34c10.5,0,16.83,7.56,16.83,17.58v1h0v9.55h-4.63v-10.4c0-8.7-5.48-13.24-12.39-13.24-6.24,0-12.48,4.45-12.48,12.11v11.44h-4.63V80.57h4.63v27.14a18.41,18.41,0,0,1,12.67-5.1Zm16.93,34v23.17H809.3V136.64Zm61-.56v6.52a14.9,14.9,0,0,0,1.14,5.39,11.88,11.88,0,0,0,3.5,4.92,12.11,12.11,0,0,0,6.9,2.36c4.92.19,8-1.42,11.25-4.92,1.23,1,2.46,1.71,3.69,2.65-3.41,4.64-9.17,6.9-14.75,6.81a15.88,15.88,0,0,1-10.21-3.5,15.34,15.34,0,0,1-4.54-6.43,21.23,21.23,0,0,1-1.33-5.48,33.66,33.66,0,0,1-.09-4.26V136h-6.71v-4.54h6.71V121.33c0-5.3.76-9.08,4.16-13.24A15.46,15.46,0,0,1,887,102.61c5.76,0,11,2.26,14.18,6.43a18.1,18.1,0,0,1,3.4,10.3,15.72,15.72,0,0,1-4.06,11.44,17.16,17.16,0,0,1-12.2,5.3c-1,.09-2,0-2.93.09l-10.5-.09Z"/></clipPath><linearGradient id="a1f37ef9-21a4-4d2e-a1c8-b2deca1278ec" x1="776.68" y1="2180.01" x2="915.11" y2="2180.01" gradientTransform="matrix(1, 0, 0, -1, 0, 2302)" gradientUnits="userSpaceOnUse"><stop offset="0" stop-color="#e31f21"/><stop offset="0.39" stop-color="#ffe900"/><stop offset="0.67" stop-color="#009447"/><stop offset="1" stop-color="#00a0db"/></linearGradient></defs><title>HOOBS_x_hue</title><g id="b1896f75-7a7e-43a4-be99-691f176c04b5" data-name="Stroke"><line class="a9f6500d-48a0-4960-93aa-22383e04e832" x1="700.5" y1="60" x2="700.5" y2="140"/></g><path class="ab111505-e697-4f13-b181-491e25227a0f" d="M154.17,41.5h-78A19.5,19.5,0,0,0,56.67,61v78a19.5,19.5,0,0,0,19.5,19.5h78a19.5,19.5,0,0,0,19.5-19.5V61A19.5,19.5,0,0,0,154.17,41.5Zm2,59.26a3.24,3.24,0,0,1-4.59,0,3.21,3.21,0,0,1-.95-2.09l-8.82-8.82V69.92a1.63,1.63,0,0,0-1.63-1.63h-3.25a1.63,1.63,0,0,0-1.62,1.63V83.6l-4.88-5.13-15-15a1.62,1.62,0,0,0-2.3,0L78.59,97.89a1.64,1.64,0,0,0,0,2.3l2.3,2.3a1.64,1.64,0,0,0,2.3,0l26.43-26.43a6.49,6.49,0,0,1,9.19,0l26.43,26.43a6.51,6.51,0,0,1,0,9.19l-2.3,2.3a6.49,6.49,0,0,1-9.19,0L115.36,95.59a1.64,1.64,0,0,0-2.3,0L94.68,114a1.62,1.62,0,0,0,0,2.3l2.3,2.29a1.61,1.61,0,0,0,2.29,0l10.35-10.34a6.49,6.49,0,0,1,9.19,0l10.34,10.34a6.51,6.51,0,0,1,0,9.2L118,138.89a3.21,3.21,0,0,1-1,2.09,3.25,3.25,0,1,1-2.5-5.54l11.12-11.12a1.62,1.62,0,0,0,0-2.3l-10.34-10.34a1.62,1.62,0,0,0-2.3,0L102.72,122a6.49,6.49,0,0,1-9.19,0l-2.3-2.3a6.49,6.49,0,0,1,0-9.19l18.39-18.38a6.49,6.49,0,0,1,9.19,0l18.38,18.38a1.64,1.64,0,0,0,2.3,0l2.3-2.3a1.64,1.64,0,0,0,0-2.3L115.36,79.51a1.62,1.62,0,0,0-2.3,0L86.63,105.93a6.49,6.49,0,0,1-9.19,0l-2.3-2.29a6.52,6.52,0,0,1,0-9.2L109.62,60a6.49,6.49,0,0,1,9.19,0l11.6,11.61V69.92a6.5,6.5,0,0,1,6.5-6.5h3.25a6.5,6.5,0,0,1,6.5,6.5V87.83l7.4,7.39a3.25,3.25,0,0,1,2.09,5.54Z"/><path class="ab111505-e697-4f13-b181-491e25227a0f" d="M612.42,61H624.1v3.65h-3.71v11H616.1v-11h-3.68Zm13.09,0h4.72l3.34,7.78L637,61h4.72V75.62h-3.85V67.39l-2.77,6.81h-2.92l-2.77-6.81v8.23h-3.85Z"/><path class="ab111505-e697-4f13-b181-491e25227a0f" d="M271.65,61v78H254.31V107h-34v32H202.92V61h17.35V91.75h34V61Zm10.65,39c0-22.41,16.77-39,39.65-39s39.64,16.48,39.64,39S344.72,139,322,139,282.3,122.41,282.3,100Zm62.09.39c0-14.19-9.63-23.9-22.44-23.9s-22.45,9.71-22.45,23.9,9.64,23.89,22.45,23.89S344.39,114.57,344.39,100.39ZM368.8,100c0-22.41,16.77-39,39.65-39s39.64,16.48,39.64,39-16.87,39-39.64,39S368.8,122.41,368.8,100Zm62.09.39c0-14.19-9.63-23.9-22.44-23.9S386,86.2,386,100.39s9.64,23.89,22.45,23.89S430.89,114.57,430.89,100.39Zm96.58,17.33c0,13.48-10.28,21.28-30,21.28H458.74V61h36.61c18.74,0,28.38,8.13,28.38,20.28a18.86,18.86,0,0,1-10,17.16C522.12,101.23,527.47,107.91,527.47,117.72ZM476.71,76.06V93.67h16.5c8.1,0,12.5-3,12.5-8.86s-4.4-8.75-12.5-8.75Zm32.59,39.47c0-6.29-4.61-9.28-13.22-9.28H476.71v18.46h19.37C504.69,124.71,509.3,121.93,509.3,115.53Zm23.38,14.74,5.69-13.14A41.52,41.52,0,0,0,562.28,125c9.94,0,14-3.44,14-8.08,0-14.11-42.13-4.41-42.13-32.42,0-12.82,9.94-23.49,30.53-23.49,9.11,0,18.43,2.26,25.16,6.68l-5.18,13.25A39.67,39.67,0,0,0,564.56,75c-9.94,0-13.77,3.87-13.77,8.61,0,13.9,42.13,4.31,42.13,32,0,12.61-10,23.38-30.74,23.38C550.69,139,539.1,135.44,532.68,130.27Z"/><path id="a69e49ae-86e7-4381-b2e7-ab752037f4ed" data-name="path2649" class="b774f2e0-737b-4e77-837a-4b36aa6cb007" d="M873,40.2c-1.23,0-3,0-6.43.09V64.21h6.24v-5.1h3.22c8.41-.47,9.55-7.38,9.64-9.27a9.29,9.29,0,0,0-2.55-7c-1.51-1.52-3.59-2.56-7.09-2.65Zm1,5.39c2.65-.1,5.1,1.13,4.92,4.25s-2.75,4.26-6.15,4V45.68a6.09,6.09,0,0,1,1.23-.09Z"/><path id="bbd0c1c4-1427-442b-b5b7-d95a99796b27" data-name="path2653" class="b774f2e0-737b-4e77-837a-4b36aa6cb007" d="M895.06,48.8l5.11,1.8A6.12,6.12,0,0,1,904.24,57c-.1,5.39-4.35,7.47-7.85,7.75a32,32,0,0,1-7.95-.47v-6c3.13.95,6.72.95,7.95.47.94-.37,1.6-.94,1.51-1.6,0-.38-.09-.85-1.23-1.42l-4.73-1.7a6.35,6.35,0,0,1-4.06-6.53c.28-5.2,4.35-7.75,8.51-7.56a34.9,34.9,0,0,1,5.48.38v5.86a13.47,13.47,0,0,0-5.48-.47c-1.61.19-2.37,1-2.27,1.89,0,.38.47.85.94,1.13"/><path id="f62b17f6-6d7c-4345-a873-0bdb0d8d1934" data-name="path2655" class="b774f2e0-737b-4e77-837a-4b36aa6cb007" d="M808.08,49.27h6.71V40.39H821V64.21h-6.24V54.66h-6.71v9.55h-6.24V40.39h6.24v8.88"/><path id="fc363175-e434-4070-b722-9a15e1ccd58a" data-name="path2657" class="b774f2e0-737b-4e77-837a-4b36aa6cb007" d="M826.8,64.21H833V40.39H826.8Z"/><path id="fb1cd4a3-60fd-4743-afee-0019cb1159cd" data-name="path2659" class="b774f2e0-737b-4e77-837a-4b36aa6cb007" d="M854.5,64.21h6.24V40.39H854.5Z"/><path id="b2c59145-06e0-41c5-8a1f-dec90664a55f" data-name="path2661" class="b774f2e0-737b-4e77-837a-4b36aa6cb007" d="M845.05,58.82h6.42v5.39H838.9V40.39h6.24l-.09,18.43"/><path id="a5af3bb9-79d1-4cad-aeb1-3b80b68682e9" data-name="path2663" class="b774f2e0-737b-4e77-837a-4b36aa6cb007" d="M786.14,40.2c-1.23,0-3,0-6.43.09V64.21H786v-5.1h3.22c8.41-.47,9.54-7.38,9.54-9.27a9,9,0,0,0-2.55-7c-1.51-1.52-3.69-2.56-7.18-2.65Zm.94,5.39c2.75-.1,5.11,1.13,5,4.25s-2.84,4.26-6.15,4V45.68a4.83,4.83,0,0,1,1.13-.09Z"/><g class="ed57e4da-8839-4645-80f1-8d725ad4de74"><rect class="af1c36c4-9a57-42f9-85c0-faad324c9692" x="776.68" y="81.71" width="138.42" height="80.56"/></g><path class="a28c879d-6fae-4c03-95be-c812fce2a448" d="M988.9,152.85v5.6c-.1,3.1-1.9,5.1-4.6,5s-4.5-2-4.5-5.1v-26.8c0-3.2,2-5.2,4.9-5.1s4.6,2.5,4.3,5.7c-.9,8.4,5.1,15.6,14,16.9,7.6,1.1,15.5-4.8,16.9-12.6a15.7,15.7,0,0,0-11.9-17.9,15.44,15.44,0,0,0-14.2,3.7c-2.4,2.1-5,2.2-6.9.1s-1.5-4.9.7-7a24.63,24.63,0,0,1,28.3-3.7c9.1,4.8,14.6,15.1,13.2,24.9-1.6,11-9,19.2-19.5,21.3a24.18,24.18,0,0,1-18.8-3.7C990.3,153.85,989.8,153.45,988.9,152.85Z"/><g class="e823338a-362f-4bf0-8096-343108f8817c"><path class="a28c879d-6fae-4c03-95be-c812fce2a448" d="M1072.5,133.25a9.19,9.19,0,0,1,2.9,7.2,9.86,9.86,0,0,1-2.9,7.5c-2,1.8-4.7,2.7-8.2,2.7h-7.1v9h-3.9v-28.9h11C1067.8,130.65,1070.6,131.55,1072.5,133.25Zm-2.8,12.1a6,6,0,0,0,2-4.8,5.76,5.76,0,0,0-2-4.7,8.5,8.5,0,0,0-5.6-1.6h-6.9V147h6.9A7.82,7.82,0,0,0,1069.7,145.35Z"/><path class="a28c879d-6fae-4c03-95be-c812fce2a448" d="M1098.4,139.85a8.83,8.83,0,0,1,2.2,6.2v13.5h-3.8v-12.5a5.92,5.92,0,0,0-1.5-4.3,5.73,5.73,0,0,0-4.2-1.6,6.18,6.18,0,0,0-5,2.2,8.1,8.1,0,0,0-1.8,5.5v10.8h-3.8V129h3.8v13.5c1.4-3.2,4.2-4.8,8.2-4.8A8,8,0,0,1,1098.4,139.85Z"/><path class="a28c879d-6fae-4c03-95be-c812fce2a448" d="M1121.9,139.05a9.17,9.17,0,0,1,3.9,3.9,12,12,0,0,1,1.4,5.7,11.73,11.73,0,0,1-1.4,5.7,9.17,9.17,0,0,1-3.9,3.9,12.51,12.51,0,0,1-11.5,0,9.17,9.17,0,0,1-3.9-3.9,12.13,12.13,0,0,1-1.4-5.8,11.46,11.46,0,0,1,1.4-5.7,9.17,9.17,0,0,1,3.9-3.9,12.13,12.13,0,0,1,5.8-1.4A11.49,11.49,0,0,1,1121.9,139.05Zm-9.4,2.9a7,7,0,0,0-2.6,2.8,8.72,8.72,0,0,0-.9,4,9.15,9.15,0,0,0,.9,4.1,7,7,0,0,0,2.6,2.8,8,8,0,0,0,3.8,1,6.63,6.63,0,0,0,3.7-1,6.43,6.43,0,0,0,2.6-2.8,8.85,8.85,0,0,0,.9-4.1,8.72,8.72,0,0,0-.9-4,7,7,0,0,0-2.6-2.8,6.63,6.63,0,0,0-3.7-1A7.66,7.66,0,0,0,1112.5,142Z"/><path class="a28c879d-6fae-4c03-95be-c812fce2a448" d="M1141.3,141.25a11.77,11.77,0,0,0-3.1-.5,5.15,5.15,0,0,0-2.7.6,2.33,2.33,0,0,0-1,2,2.1,2.1,0,0,0,1.2,2,15.65,15.65,0,0,0,3.5,1.4,30.71,30.71,0,0,1,3.7,1.3,6.34,6.34,0,0,1,2.4,1.9,5.29,5.29,0,0,1,1,3.4,5.44,5.44,0,0,1-2.3,4.7,9.37,9.37,0,0,1-5.7,1.6,15,15,0,0,1-4.7-.8,10.87,10.87,0,0,1-3.8-2.2l1.4-2.8a10.77,10.77,0,0,0,3.3,2,10.58,10.58,0,0,0,3.8.7,5.56,5.56,0,0,0,3-.7,2.32,2.32,0,0,0,1.1-2.2,2.4,2.4,0,0,0-1.2-2.2,16.21,16.21,0,0,0-3.6-1.5,17.27,17.27,0,0,1-3.5-1.3,6,6,0,0,1-2.3-1.9,5.3,5.3,0,0,1-1-3.2,5.18,5.18,0,0,1,2.2-4.6,9.62,9.62,0,0,1,5.5-1.5,12.09,12.09,0,0,1,3.8.6,14.34,14.34,0,0,1,3.3,1.5l-1.4,2.9A15.84,15.84,0,0,0,1141.3,141.25Z"/><path class="a28c879d-6fae-4c03-95be-c812fce2a448" d="M1160.2,141.05a7,7,0,0,0-3.8,1,6.18,6.18,0,0,0-2.6,2.7,8.72,8.72,0,0,0-.9,4,8.43,8.43,0,0,0,.9,4,6.8,6.8,0,0,0,6.2,3.7,8.73,8.73,0,0,0,3.7-.7,8,8,0,0,0,2.8-2l2.2,2.2a10.62,10.62,0,0,1-3.7,2.9,11.91,11.91,0,0,1-5.1,1,11.62,11.62,0,0,1-5.6-1.4,9.52,9.52,0,0,1-3.8-3.9,12,12,0,0,1-1.4-5.7,11.73,11.73,0,0,1,1.4-5.7,9.52,9.52,0,0,1,3.8-3.9,11.34,11.34,0,0,1,5.6-1.4,14.8,14.8,0,0,1,4.9.8,8.64,8.64,0,0,1,3.6,2.5l-2.1,2.6A8,8,0,0,0,1160.2,141.05Z"/><path class="a28c879d-6fae-4c03-95be-c812fce2a448" d="M1187.8,139.05a9.17,9.17,0,0,1,3.9,3.9,12,12,0,0,1,1.4,5.7,11.73,11.73,0,0,1-1.4,5.7,9.17,9.17,0,0,1-3.9,3.9,12.51,12.51,0,0,1-11.5,0,9.17,9.17,0,0,1-3.9-3.9,12.13,12.13,0,0,1-1.4-5.8,11.46,11.46,0,0,1,1.4-5.7,9.17,9.17,0,0,1,3.9-3.9,12.13,12.13,0,0,1,5.8-1.4A11.49,11.49,0,0,1,1187.8,139.05Zm-9.5,2.9a7,7,0,0,0-2.6,2.8,8.72,8.72,0,0,0-.9,4,9.15,9.15,0,0,0,.9,4.1,7,7,0,0,0,2.6,2.8,8,8,0,0,0,3.8,1,6.63,6.63,0,0,0,3.7-1,6.43,6.43,0,0,0,2.6-2.8,8.85,8.85,0,0,0,.9-4.1,8.72,8.72,0,0,0-.9-4,7,7,0,0,0-2.6-2.8,6.63,6.63,0,0,0-3.7-1A8,8,0,0,0,1178.3,142Z"/><path class="a28c879d-6fae-4c03-95be-c812fce2a448" d="M1216.3,139.85a8.83,8.83,0,0,1,2.2,6.2v13.5h-3.8v-12.5a5.92,5.92,0,0,0-1.5-4.3,5.73,5.73,0,0,0-4.2-1.6,6.48,6.48,0,0,0-4.7,1.9,7.61,7.61,0,0,0-2.1,4.8v11.7h-3.8v-21.9h3.8v4.6c1.4-3.1,4.2-4.7,8.2-4.8A8.63,8.63,0,0,1,1216.3,139.85Z"/></g><path class="a082e99c-d6b7-449c-8359-8ddc15ca14cf" d="M1405.35,43.71v119.8c0,.8-.2.9-.9.9h-119.8V74.81a.52.52,0,0,0,.4-.2c5.2-4.9,10-10.1,15.3-15,4.8-4.5,9.4-9.2,14-13.9.6-.6,1.4-1,1.7-1.9h1C1346.45,43.71,1376,43.71,1405.35,43.71Zm-49.5,67.7H1378c4.1,0,7-2.4,7.5-6.3a22.24,22.24,0,0,0-.3-6.3,37.81,37.81,0,0,0-11.4-22.7c-10.4-10-22.9-13.6-37.1-10.7a39.45,39.45,0,0,0-31.3,44.1,38.43,38.43,0,0,0,13.5,24.4c10.2,8.5,22,11.3,34.9,8.7a38.92,38.92,0,0,0,22.6-13.6,6.53,6.53,0,0,0,1.1-7.4,7.56,7.56,0,0,0-6.7-4.6,7,7,0,0,0-6.1,2.8,24.41,24.41,0,0,1-17.8,9c-8.4.5-15.5-2.3-21-8.7a23.08,23.08,0,0,1-5.3-21.6,25.05,25.05,0,0,1,30.9-18.3,24.6,24.6,0,0,1,17.3,15.4c.5,1.2.5,1.2-.8,1.2h-35a6.37,6.37,0,0,0-6.3,4.2,7.54,7.54,0,0,0,1,8c1.5,2,3.7,2.6,6.1,2.6C1341.25,111.41,1348.55,111.41,1355.85,111.41Z"/><path class="b21cf35e-34b9-4146-8748-e1c2c39d6876" d="M1355.85,111.41h-22a7.21,7.21,0,0,1-6.1-2.6,7.52,7.52,0,0,1-1-8,6.5,6.5,0,0,1,6.3-4.2c8.9-.1,17.8,0,26.8,0h8.2c1.3,0,1.3,0,.8-1.2a24.6,24.6,0,0,0-17.3-15.4,25.13,25.13,0,0,0-30.9,18.3c-2,8-.1,15.3,5.3,21.6a24.26,24.26,0,0,0,21,8.7,25.14,25.14,0,0,0,17.8-9,7,7,0,0,1,6.1-2.8,7.73,7.73,0,0,1,6.7,4.6,6.71,6.71,0,0,1-1.1,7.4,38.92,38.92,0,0,1-22.6,13.6c-13,2.6-24.7-.2-34.9-8.7a37.74,37.74,0,0,1-13.5-24.4c-3-21,11.3-40,31.3-44.1,14.2-2.9,26.7.7,37.1,10.7a37.81,37.81,0,0,1,11.4,22.7,22.24,22.24,0,0,1,.3,6.3c-.5,3.9-3.4,6.3-7.5,6.3C1370.55,111.41,1363.25,111.41,1355.85,111.41Z"/><path class="b828e1c8-da4a-48ec-897b-9e91e770401d" d="M1284.65,74.81V44.51c0-.6,0-.8.7-.8h30.7c-.3.9-1.1,1.3-1.7,1.9-4.6,4.7-9.2,9.4-14,13.9-5.3,4.8-10.1,10.1-15.3,15C1284.85,74.71,1284.75,74.81,1284.65,74.81Z"/><path class="a28c879d-6fae-4c03-95be-c812fce2a448" d="M1112.7,57.85c.1-1.5.2-2.5.3-3.7h7.8c.1.3.3.4.3.5-.1,9.3.1,18.7-.3,28-.3,7-3.5,12.6-10.7,14.7-7.7,2.2-14.6.2-20.5-5.6,1.8-1.9,3.5-3.7,5.3-5.5,4.3,3.3,8.6,6.3,14.2,3.1,2.9-1.7,4.3-5.4,4-8.9-2.6,1-5.2,2.7-8.1,3.1-6.6,1-12-2.6-14.1-9a19.42,19.42,0,0,1,.2-12.6A12.74,12.74,0,0,1,1112.7,57.85Zm.1,10.6c0-4.5-2.7-7.8-6.5-8s-6.7,2.1-7.6,6c-.9,4.3,1.1,8.7,4.6,10C1108.2,78.15,1112.8,74.25,1112.8,68.45Z"/><path class="a28c879d-6fae-4c03-95be-c812fce2a448" d="M1013.9,50c-2.2,2.3-4,4.2-5.9,6.1-6.4,6.6-12.9,13.2-19.3,19.7-2.2,2.2-2.2,3.8-.3,6.2s4.6,3,7.4,3.3c9.2,1,18.4.3,27.5-.7.7-.1,1.3-.1,2.4-.2a24,24,0,0,1-7.9,6.4,27.08,27.08,0,0,1-36.5-36.5c1.1-2.1,2.2-3.5,4.9-3.5,8.3-.2,16.5-.7,24.8-1.1A16.78,16.78,0,0,1,1013.9,50Z"/><path class="a28c879d-6fae-4c03-95be-c812fce2a448" d="M997,82.75c3-3.1,5.7-5.9,8.4-8.6,5.8-6,11.7-12,17.5-18a3.82,3.82,0,0,0,.7-3.1,6.91,6.91,0,0,0-6.5-5.1c-6.2-.5-12.5-.6-18.7-.6-3.9,0-7.8.6-11.9.9a8.65,8.65,0,0,1,.7-1,26.57,26.57,0,0,1,29-5.1c10.4,4.7,16,13,16.4,24.5a24.17,24.17,0,0,1-3.4,13.4,4.32,4.32,0,0,1-2.1,1.7,149.84,149.84,0,0,1-28.4,1.4A7.09,7.09,0,0,0,997,82.75Z"/><path class="a28c879d-6fae-4c03-95be-c812fce2a448" d="M1125.8,44.25h8.1v12.6c3.9-3.3,8-4.1,12.4-2.8,9,2.8,12.7,15,7.1,23.3-3,4.4-7.1,7.1-12.6,6.1-2.3-.4-4.5-1.9-6.7-2.8,0,.5-.1,1.4-.2,2.5h-8C1125.8,70.25,1125.8,57.35,1125.8,44.25Zm22,24c0-4.1-2.3-7.2-5.8-7.9-4-.8-7.3,1.6-8.3,5.8-1.1,4.4,1.2,9,5,10.2C1143.5,77.85,1147.8,74,1147.8,68.25Z"/><path class="a28c879d-6fae-4c03-95be-c812fce2a448" d="M1201.3,74.25c3.4,3.7,7.6,3.4,12.9-.8l4.7,5c-4.5,4.4-9.7,6.1-15.7,4.9-6.4-1.3-10.4-5.2-11.9-11.6a14.67,14.67,0,0,1,9.1-17.2c6.9-2.8,15-.4,18.8,5.6.2.4.5.8.7,1.2,2.7,5.4,2.3,6.3-3.3,8.1C1211.5,71,1206.5,72.55,1201.3,74.25Zm-1.9-5.9c4.6-1.5,9.1-2.9,13.8-4.4-2.2-3.3-5.3-4.2-9-3C1201.4,61.85,1198.4,65.25,1199.4,68.35Z"/><path class="a28c879d-6fae-4c03-95be-c812fce2a448" d="M1168.5,74.25c3.4,3.7,7.3,3.5,12.7-.6,1.7,1.5,3.3,3,5,4.5-5.1,6-14.8,7.3-21.2,3.1a15.45,15.45,0,0,1-5.1-19.8c2.9-5.8,10-9,17.1-7.7a13.94,13.94,0,0,1,11.5,12.8,2.44,2.44,0,0,1-1.3,1.7c-3,1.1-6.1,2-9.2,3S1171.8,73.15,1168.5,74.25ZM1180.3,64a7.14,7.14,0,0,0-8.7-3.1c-3.5,1.2-5.5,4-5.2,7.5C1171,67,1175.6,65.45,1180.3,64Z"/><path class="a28c879d-6fae-4c03-95be-c812fce2a448" d="M1063.1,60.75h-12.6v-6.6H1074c0,3.1.8,6.1-2.1,8.8-3.8,3.7-7.1,7.8-10.6,11.8-.3.4-.6.8-1.2,1.5h14.7v6.8h-25.3c-.7-4-.3-7.3,2.8-10.3C1056,69.25,1059.2,65.15,1063.1,60.75Z"/><path class="a28c879d-6fae-4c03-95be-c812fce2a448" d="M1078.4,83.05V54.15h8.3v28.9Z"/><path class="a28c879d-6fae-4c03-95be-c812fce2a448" d="M1077.7,47a4.9,4.9,0,1,1,9.8-.1,4.9,4.9,0,0,1-9.8.1Z"/><path class="a0ad0671-b010-4aa2-bfad-ee0282fe39d1" d="M887.5,107.24h0a13.3,13.3,0,0,1,9.55,4.25,12.6,12.6,0,0,1,2.74,7.66,11.7,11.7,0,0,1-2.74,8.42c-2,2.17-5,3.4-8.61,3.78-1.6.19-3.21,0-4.82.09h-8.7V119.53a13.29,13.29,0,0,1,3-8.51,11.43,11.43,0,0,1,9.55-3.78"/></svg>