<svg id="a673fae9-5f63-4614-8ec1-5cd363d6fea9" data-name="Ebene 1" xmlns="http://www.w3.org/2000/svg" viewBox="0 0 1680 200"><defs><style>.aeb5de0e-801c-4197-90f8-dffc52ba1be1{fill:none;stroke:#ccc;stroke-miterlimit:10;}.eaada694-1653-4693-b64f-bf2bc3e16d0a{fill:#f9b213;}.a0445627-00d1-4389-b93f-c0b9f6e7bbbe{isolation:isolate;}.b55f55b3-142e-4e5b-9b1d-c2a28cb52c87{fill:#ccc;}.f463c19b-d96c-4dcf-bd6f-47ff1fb113eb{fill:#388e3c;}</style></defs><title>HOOBS_x_cameraffmpeg</title><g id="a1c8b331-ecd9-4ebb-9079-4c32d250bd24" data-name="Stroke"><line class="aeb5de0e-801c-4197-90f8-dffc52ba1be1" x1="700.5" y1="60" x2="700.5" y2="140"/></g><path class="eaada694-1653-4693-b64f-bf2bc3e16d0a" d="M154.17,41.5h-78A19.5,19.5,0,0,0,56.67,61v78a19.5,19.5,0,0,0,19.5,19.5h78a19.5,19.5,0,0,0,19.5-19.5V61A19.5,19.5,0,0,0,154.17,41.5Zm2,59.26a3.24,3.24,0,0,1-4.59,0,3.21,3.21,0,0,1-.95-2.09l-8.82-8.82V69.92a1.63,1.63,0,0,0-1.63-1.63h-3.25a1.63,1.63,0,0,0-1.62,1.63V83.6l-4.88-5.13-15-15a1.62,1.62,0,0,0-2.3,0L78.59,97.89a1.64,1.64,0,0,0,0,2.3l2.3,2.3a1.64,1.64,0,0,0,2.3,0l26.43-26.43a6.49,6.49,0,0,1,9.19,0l26.43,26.43a6.51,6.51,0,0,1,0,9.19l-2.3,2.3a6.49,6.49,0,0,1-9.19,0L115.36,95.59a1.64,1.64,0,0,0-2.3,0L94.68,114a1.62,1.62,0,0,0,0,2.3l2.3,2.29a1.61,1.61,0,0,0,2.29,0l10.35-10.34a6.49,6.49,0,0,1,9.19,0l10.34,10.34a6.51,6.51,0,0,1,0,9.2L118,138.89a3.21,3.21,0,0,1-1,2.09,3.25,3.25,0,1,1-2.5-5.54l11.12-11.12a1.62,1.62,0,0,0,0-2.3l-10.34-10.34a1.62,1.62,0,0,0-2.3,0L102.72,122a6.49,6.49,0,0,1-9.19,0l-2.3-2.3a6.49,6.49,0,0,1,0-9.19l18.39-18.38a6.49,6.49,0,0,1,9.19,0l18.38,18.38a1.64,1.64,0,0,0,2.3,0l2.3-2.3a1.64,1.64,0,0,0,0-2.3L115.36,79.51a1.62,1.62,0,0,0-2.3,0L86.63,105.93a6.49,6.49,0,0,1-9.19,0l-2.3-2.29a6.52,6.52,0,0,1,0-9.2L109.62,60a6.49,6.49,0,0,1,9.19,0l11.6,11.61V69.92a6.5,6.5,0,0,1,6.5-6.5h3.25a6.5,6.5,0,0,1,6.5,6.5V87.83l7.4,7.39a3.25,3.25,0,0,1,2.09,5.54Z"/><path class="eaada694-1653-4693-b64f-bf2bc3e16d0a" d="M612.42,61H624.1v3.65h-3.71v11H616.1v-11h-3.68Zm13.09,0h4.72l3.34,7.78L637,61h4.72V75.62h-3.85V67.39l-2.77,6.81h-2.92l-2.77-6.81v8.23h-3.85Z"/><path class="eaada694-1653-4693-b64f-bf2bc3e16d0a" d="M271.65,61v78H254.31V107h-34v32H202.92V61h17.35V91.75h34V61Zm10.65,39c0-22.41,16.77-39,39.65-39s39.64,16.48,39.64,39S344.72,139,322,139,282.3,122.41,282.3,100Zm62.09.39c0-14.19-9.63-23.9-22.44-23.9s-22.45,9.71-22.45,23.9,9.64,23.89,22.45,23.89S344.39,114.57,344.39,100.39ZM368.8,100c0-22.41,16.77-39,39.65-39s39.64,16.48,39.64,39-16.87,39-39.64,39S368.8,122.41,368.8,100Zm62.09.39c0-14.19-9.63-23.9-22.44-23.9S386,86.2,386,100.39s9.64,23.89,22.45,23.89S430.89,114.57,430.89,100.39Zm96.58,17.33c0,13.48-10.28,21.28-30,21.28H458.74V61h36.61c18.74,0,28.38,8.13,28.38,20.28a18.86,18.86,0,0,1-10,17.16C522.12,101.23,527.47,107.91,527.47,117.72ZM476.71,76.06V93.67h16.5c8.1,0,12.5-3,12.5-8.86s-4.4-8.75-12.5-8.75Zm32.59,39.47c0-6.29-4.61-9.28-13.22-9.28H476.71v18.46h19.37C504.69,124.71,509.3,121.93,509.3,115.53Zm23.38,14.74,5.69-13.14A41.52,41.52,0,0,0,562.28,125c9.94,0,14-3.44,14-8.08,0-14.11-42.13-4.41-42.13-32.42,0-12.82,9.94-23.49,30.53-23.49,9.11,0,18.43,2.26,25.16,6.68l-5.18,13.25A39.67,39.67,0,0,0,564.56,75c-9.94,0-13.77,3.87-13.77,8.61,0,13.9,42.13,4.31,42.13,32,0,12.61-10,23.38-30.74,23.38C550.69,139,539.1,135.44,532.68,130.27Z"/><g class="a0445627-00d1-4389-b93f-c0b9f6e7bbbe"><path class="b55f55b3-142e-4e5b-9b1d-c2a28cb52c87" d="M1054.88,105.77q-1.07,9-6.66,13.93t-14.91,4.9q-10.07,0-16.15-7.22T1011.09,98V92.57a32.37,32.37,0,0,1,2.83-13.94,21.15,21.15,0,0,1,8-9.24,22.32,22.32,0,0,1,12-3.22q9.06,0,14.53,5t6.37,14h-7.54q-1-6.83-4.24-9.88t-9.12-3a13.41,13.41,0,0,0-11.27,5.32q-4.08,5.31-4.08,15.13v5.51q0,9.26,3.86,14.74a12.5,12.5,0,0,0,10.82,5.47q6.26,0,9.59-2.83t4.44-9.87Z"/><path class="b55f55b3-142e-4e5b-9b1d-c2a28cb52c87" d="M1090.07,123.82a15.42,15.42,0,0,1-1-4.45,16.12,16.12,0,0,1-12,5.23,15,15,0,0,1-10.26-3.53,11.45,11.45,0,0,1-4-9,11.93,11.93,0,0,1,5-10.25q5-3.66,14.12-3.65h7V94.88a8.13,8.13,0,0,0-2.27-6c-1.51-1.5-3.73-2.25-6.68-2.25a10.55,10.55,0,0,0-6.48,2,5.77,5.77,0,0,0-2.62,4.72h-7.26a10,10,0,0,1,2.24-6.11,15.43,15.43,0,0,1,6.1-4.67,20.55,20.55,0,0,1,8.45-1.72q7.3,0,11.45,3.66t4.3,10.06v19.45a23.79,23.79,0,0,0,1.48,9.26v.62Zm-12-5.51a12.74,12.74,0,0,0,6.45-1.75,10.69,10.69,0,0,0,4.41-4.57v-8.68h-5.66q-13.29,0-13.29,7.78a6.59,6.59,0,0,0,2.27,5.31A8.68,8.68,0,0,0,1078.08,118.31Z"/><path class="b55f55b3-142e-4e5b-9b1d-c2a28cb52c87" d="M1114.29,81.56l.2,4.68q4.65-5.46,12.54-5.47,8.87,0,12.07,6.8a16,16,0,0,1,5.48-4.92,16.25,16.25,0,0,1,8-1.88q13.9,0,14.14,14.73v28.32h-7.22V95.93q0-4.53-2.07-6.78t-7-2.24a9.59,9.59,0,0,0-6.68,2.4,9.72,9.72,0,0,0-3.08,6.46v28.05h-7.27V96.13q0-9.22-9-9.22-7.11,0-9.73,6v30.86h-7.22V81.56Z"/><path class="b55f55b3-142e-4e5b-9b1d-c2a28cb52c87" d="M1195.15,124.6q-8.6,0-14-5.64t-5.39-15.1v-1.33a25.41,25.41,0,0,1,2.4-11.23,18.72,18.72,0,0,1,6.72-7.73,16.88,16.88,0,0,1,9.35-2.8q8.25,0,12.81,5.43t4.58,15.55v3H1183a15.06,15.06,0,0,0,3.65,10.1,11.52,11.52,0,0,0,8.89,3.84,12.65,12.65,0,0,0,6.49-1.56,16.12,16.12,0,0,0,4.64-4.14l4.42,3.44Q1205.78,124.6,1195.15,124.6Zm-.9-37.89a9.62,9.62,0,0,0-7.34,3.19q-3,3.18-3.67,8.92h21.17v-.55q-.32-5.51-3-8.53A9.08,9.08,0,0,0,1194.25,86.71Z"/><path class="b55f55b3-142e-4e5b-9b1d-c2a28cb52c87" d="M1240.42,88a21.8,21.8,0,0,0-3.55-.27q-7.11,0-9.65,6v30H1220V81.56h7l.11,4.88a11.25,11.25,0,0,1,10.08-5.67,7.42,7.42,0,0,1,3.2.55Z"/><path class="b55f55b3-142e-4e5b-9b1d-c2a28cb52c87" d="M1271.6,123.82a15,15,0,0,1-1-4.45,16.12,16.12,0,0,1-12,5.23,14.92,14.92,0,0,1-10.25-3.53,11.46,11.46,0,0,1-4-9,11.93,11.93,0,0,1,5-10.25q5-3.66,14.12-3.65h7V94.88a8.12,8.12,0,0,0-2.26-6q-2.27-2.25-6.68-2.25a10.58,10.58,0,0,0-6.49,2,5.76,5.76,0,0,0-2.61,4.72h-7.27a10,10,0,0,1,2.25-6.11,15.4,15.4,0,0,1,6.09-4.67,20.6,20.6,0,0,1,8.46-1.72q7.3,0,11.44,3.66t4.3,10.06v19.45a23.79,23.79,0,0,0,1.48,9.26v.62Zm-12-5.51a12.71,12.71,0,0,0,6.45-1.75,10.69,10.69,0,0,0,4.41-4.57v-8.68h-5.66q-13.29,0-13.28,7.78a6.58,6.58,0,0,0,2.26,5.31A8.68,8.68,0,0,0,1259.6,118.31Z"/><path class="b55f55b3-142e-4e5b-9b1d-c2a28cb52c87" d="M1342.65,100.58h-22.5v23.24h-11.72V67h37v9.49h-25.31V91.13h22.5Z"/><path class="b55f55b3-142e-4e5b-9b1d-c2a28cb52c87" d="M1386.48,100.58H1364v23.24h-11.72V67h37v9.49H1364V91.13h22.5Z"/><path class="b55f55b3-142e-4e5b-9b1d-c2a28cb52c87" d="M1411.4,67,1426,108.2,1440.54,67h15.39v56.87h-11.76V108.27l1.18-26.83L1430,123.82h-8l-15.31-42.34,1.17,26.79v15.55h-11.72V67Z"/><path class="b55f55b3-142e-4e5b-9b1d-c2a28cb52c87" d="M1477.89,103.78v20h-11.72V67h22.18a25.7,25.7,0,0,1,11.27,2.34A17.17,17.17,0,0,1,1507.1,76a18.52,18.52,0,0,1,2.62,9.82q0,8.37-5.72,13.19t-15.84,4.82Zm0-9.49h10.46c3.1,0,5.47-.73,7.09-2.19a8,8,0,0,0,2.45-6.25,9.41,9.41,0,0,0-2.47-6.76,9.2,9.2,0,0,0-6.79-2.65h-10.74Z"/><path class="b55f55b3-142e-4e5b-9b1d-c2a28cb52c87" d="M1552,99.17h-22.5v15.24h26.4v9.41h-38.12V67h38v9.49h-26.32V90H1552Z"/><path class="b55f55b3-142e-4e5b-9b1d-c2a28cb52c87" d="M1607.77,116.63a20.27,20.27,0,0,1-9,5.88A37.26,37.26,0,0,1,1586,124.6a25.37,25.37,0,0,1-13-3.22,21.51,21.51,0,0,1-8.59-9.36,32.83,32.83,0,0,1-3.11-14.41V93.74A35,35,0,0,1,1564.23,79a21.27,21.27,0,0,1,8.28-9.53,23.89,23.89,0,0,1,12.68-3.3q10.11,0,15.82,4.82t6.76,14h-11.41c-.52-3.25-1.67-5.64-3.46-7.15a11,11,0,0,0-7.36-2.26,10.4,10.4,0,0,0-9.1,4.49q-3.12,4.5-3.16,13.36V97.1q0,9,3.39,13.52t10,4.57q6.6,0,9.41-2.81v-9.81h-10.66V93.94h22.38Z"/></g><path class="f463c19b-d96c-4dcf-bd6f-47ff1fb113eb" d="M972.67,54.53a3.73,3.73,0,0,0-3.74,0l-45.12,25a3.78,3.78,0,0,0-2,3.34V115.4a3.92,3.92,0,0,0,2,3.33l45.12,25a3.73,3.73,0,0,0,3.74,0,3.59,3.59,0,0,0,1.87-3.2V57.73A3.6,3.6,0,0,0,972.67,54.53Z"/><path class="f463c19b-d96c-4dcf-bd6f-47ff1fb113eb" d="M903.26,38.91H790.6a11.19,11.19,0,0,0-11.21,11.21V147.7a11.19,11.19,0,0,0,11.21,11.21H903.26a11.19,11.19,0,0,0,11.21-11.21V50.26A11.31,11.31,0,0,0,903.26,38.91Zm-69.55,93.3,51-51a6.41,6.41,0,0,1,7.08-1.33,6.75,6.75,0,0,1,4,6.14v29.1a7.64,7.64,0,0,1-1.87,4.8L881.5,132.35h7.88a6.54,6.54,0,0,1,0,13.08H865.62a6.73,6.73,0,0,1-6.14-4,6.29,6.29,0,0,1,1.33-7.07l21.89-21.89V102.18l-41.51,41.51a6.43,6.43,0,0,1-4.81,1.87H807.29a6.74,6.74,0,0,1-6.14-4,6.31,6.31,0,0,1,1.33-7.08L873.36,63.6h-10l-51,51a6.4,6.4,0,0,1-7.08,1.34,6.58,6.58,0,0,1-4.27-6.14V80.69a7.69,7.69,0,0,1,1.87-4.81l12.41-12.41h-8a6.54,6.54,0,0,1,.13-13.08h23.76a6.75,6.75,0,0,1,6.14,4A6.31,6.31,0,0,1,836,61.47L814.09,83.36V93.64l41.52-41.51a7.64,7.64,0,0,1,4.8-1.87h29.1a6.75,6.75,0,0,1,6.14,4,6.33,6.33,0,0,1-1.33,7.08l-70.88,70.87Z"/></svg>