<svg id="b0d0ac33-f43a-4960-a1d5-af6286c6a5ba" data-name="Ebene 1" xmlns="http://www.w3.org/2000/svg" viewBox="0 0 1680 200"><defs><style>.e2e71a35-a57a-4511-9482-189d0f9303ce{fill:none;stroke:#ccc;stroke-miterlimit:10;}.a6fd0c1c-f18c-4bfb-89de-fc695971bfc4{fill:#f9b213;}.f861ad6e-6eb0-47f0-940c-26b693f8e867{fill:#ccc;}</style></defs><title>HOOBS_x_litter-robot</title><g id="aa8c3357-e1e5-4977-adbd-9766264c7d21" data-name="Stroke"><line class="e2e71a35-a57a-4511-9482-189d0f9303ce" x1="700.5" y1="60" x2="700.5" y2="140"/></g><path class="a6fd0c1c-f18c-4bfb-89de-fc695971bfc4" d="M154.17,41.5h-78A19.5,19.5,0,0,0,56.67,61v78a19.5,19.5,0,0,0,19.5,19.5h78a19.5,19.5,0,0,0,19.5-19.5V61A19.5,19.5,0,0,0,154.17,41.5Zm2,59.26a3.24,3.24,0,0,1-4.59,0,3.21,3.21,0,0,1-.95-2.09l-8.82-8.82V69.92a1.63,1.63,0,0,0-1.63-1.63h-3.25a1.63,1.63,0,0,0-1.62,1.63V83.6l-4.88-5.13-15-15a1.62,1.62,0,0,0-2.3,0L78.59,97.89a1.64,1.64,0,0,0,0,2.3l2.3,2.3a1.64,1.64,0,0,0,2.3,0l26.43-26.43a6.49,6.49,0,0,1,9.19,0l26.43,26.43a6.51,6.51,0,0,1,0,9.19l-2.3,2.3a6.49,6.49,0,0,1-9.19,0L115.36,95.59a1.64,1.64,0,0,0-2.3,0L94.68,114a1.62,1.62,0,0,0,0,2.3l2.3,2.29a1.61,1.61,0,0,0,2.29,0l10.35-10.34a6.49,6.49,0,0,1,9.19,0l10.34,10.34a6.51,6.51,0,0,1,0,9.2L118,138.89a3.21,3.21,0,0,1-1,2.09,3.25,3.25,0,1,1-2.5-5.54l11.12-11.12a1.62,1.62,0,0,0,0-2.3l-10.34-10.34a1.62,1.62,0,0,0-2.3,0L102.72,122a6.49,6.49,0,0,1-9.19,0l-2.3-2.3a6.49,6.49,0,0,1,0-9.19l18.39-18.38a6.49,6.49,0,0,1,9.19,0l18.38,18.38a1.64,1.64,0,0,0,2.3,0l2.3-2.3a1.64,1.64,0,0,0,0-2.3L115.36,79.51a1.62,1.62,0,0,0-2.3,0L86.63,105.93a6.49,6.49,0,0,1-9.19,0l-2.3-2.29a6.52,6.52,0,0,1,0-9.2L109.62,60a6.49,6.49,0,0,1,9.19,0l11.6,11.61V69.92a6.5,6.5,0,0,1,6.5-6.5h3.25a6.5,6.5,0,0,1,6.5,6.5V87.83l7.4,7.39a3.25,3.25,0,0,1,2.09,5.54Z"/><path class="a6fd0c1c-f18c-4bfb-89de-fc695971bfc4" d="M612.42,61H624.1v3.65h-3.71v11H616.1v-11h-3.68Zm13.09,0h4.72l3.34,7.78L637,61h4.72V75.62h-3.85V67.39l-2.77,6.81h-2.92l-2.77-6.81v8.23h-3.85Z"/><path class="a6fd0c1c-f18c-4bfb-89de-fc695971bfc4" d="M271.65,61v78H254.31V107h-34v32H202.92V61h17.35V91.75h34V61Zm10.65,39c0-22.41,16.77-39,39.65-39s39.64,16.48,39.64,39S344.72,139,322,139,282.3,122.41,282.3,100Zm62.09.39c0-14.19-9.63-23.9-22.44-23.9s-22.45,9.71-22.45,23.9,9.64,23.89,22.45,23.89S344.39,114.57,344.39,100.39ZM368.8,100c0-22.41,16.77-39,39.65-39s39.64,16.48,39.64,39-16.87,39-39.64,39S368.8,122.41,368.8,100Zm62.09.39c0-14.19-9.63-23.9-22.44-23.9S386,86.2,386,100.39s9.64,23.89,22.45,23.89S430.89,114.57,430.89,100.39Zm96.58,17.33c0,13.48-10.28,21.28-30,21.28H458.74V61h36.61c18.74,0,28.38,8.13,28.38,20.28a18.86,18.86,0,0,1-10,17.16C522.12,101.23,527.47,107.91,527.47,117.72ZM476.71,76.06V93.67h16.5c8.1,0,12.5-3,12.5-8.86s-4.4-8.75-12.5-8.75Zm32.59,39.47c0-6.29-4.61-9.28-13.22-9.28H476.71v18.46h19.37C504.69,124.71,509.3,121.93,509.3,115.53Zm23.38,14.74,5.69-13.14A41.52,41.52,0,0,0,562.28,125c9.94,0,14-3.44,14-8.08,0-14.11-42.13-4.41-42.13-32.42,0-12.82,9.94-23.49,30.53-23.49,9.11,0,18.43,2.26,25.16,6.68l-5.18,13.25A39.67,39.67,0,0,0,564.56,75c-9.94,0-13.77,3.87-13.77,8.61,0,13.9,42.13,4.31,42.13,32,0,12.61-10,23.38-30.74,23.38C550.69,139,539.1,135.44,532.68,130.27Z"/><rect class="f861ad6e-6eb0-47f0-940c-26b693f8e867" x="779.45" y="43" width="22.78" height="117.71"/><path class="f861ad6e-6eb0-47f0-940c-26b693f8e867" d="M811,74.53h22.77v86.19H811ZM811,43h22.77V64.2H811Z"/><path class="f861ad6e-6eb0-47f0-940c-26b693f8e867" d="M891.6,104h21v24.54a42.55,42.55,0,0,1-2,13,30.78,30.78,0,0,1-6.29,11,30.15,30.15,0,0,1-10.84,7.61A39.74,39.74,0,0,1,877.85,163a41.47,41.47,0,0,1-16.08-2.81,30.58,30.58,0,0,1-10.92-7.53,28.79,28.79,0,0,1-6.2-11,45.43,45.43,0,0,1-1.93-13.31V51.23h22.6v23.3h47.3V90.65h-47.3V126q0,8.24,3,12.7c2,3,5.36,4.48,10,4.48s7.86-1.47,10-4.39,3.21-7.06,3.21-12.44Z"/><path class="f861ad6e-6eb0-47f0-940c-26b693f8e867" d="M969.23,104h21v24.54a42.55,42.55,0,0,1-2,13,30.83,30.83,0,0,1-6.31,11,30.07,30.07,0,0,1-10.82,7.61A39.84,39.84,0,0,1,955.48,163a41.37,41.37,0,0,1-16.08-2.81,30.53,30.53,0,0,1-10.93-7.53,28.51,28.51,0,0,1-6.19-11,45.1,45.1,0,0,1-1.93-13.31V51.23H943v23.3h47.3V90.65H943V126q0,8.24,3,12.7t10,4.48q6.78,0,10-4.39t3.22-12.44Z"/><path class="f861ad6e-6eb0-47f0-940c-26b693f8e867" d="M1056.28,109.22a24.08,24.08,0,0,0-1.66-8.33,17.67,17.67,0,0,0-3.94-6,15.81,15.81,0,0,0-5.61-3.51,18.93,18.93,0,0,0-6.48-1.13,16.16,16.16,0,0,0-11.83,5c-3.33,3.33-5.23,8-5.69,13.93Zm-35.91,14.36q.52,9.81,5.69,15.59a17.35,17.35,0,0,0,13.58,5.78,19,19,0,0,0,9.9-2.54,11.52,11.52,0,0,0,5.52-7.09h23.46q-4,13.32-14,20.49T1040.69,163q-43.1,0-43.1-47a54.58,54.58,0,0,1,2.81-18,38.9,38.9,0,0,1,8.14-13.84,35.24,35.24,0,0,1,13.05-8.85,47.47,47.47,0,0,1,17.7-3.07q20,0,30.22,12.79t10.25,38.54Z"/><path class="f861ad6e-6eb0-47f0-940c-26b693f8e867" d="M1086.86,160.72V74.53h21.38V84.78a28.41,28.41,0,0,1,5.86-6.88,26,26,0,0,1,6.3-3.8,24.28,24.28,0,0,1,6.59-1.67,65.66,65.66,0,0,1,6.82-.35h3V95.55a38.39,38.39,0,0,0-6.31-.53q-20.88,0-20.85,20.85v44.85Z"/><path class="f861ad6e-6eb0-47f0-940c-26b693f8e867" d="M1200.08,160.72V74.53h21.37V84.78a27.79,27.79,0,0,1,5.87-6.88,25.12,25.12,0,0,1,6.31-3.8,24,24,0,0,1,6.56-1.67,66,66,0,0,1,6.82-.35h3V95.55a38.48,38.48,0,0,0-6.31-.53q-20.85,0-20.84,20.85v44.85Z"/><path class="f861ad6e-6eb0-47f0-940c-26b693f8e867" d="M1295.92,143.9q20.85,0,20.84-26.27,0-26.1-20.84-26.11t-20.85,26.11q0,26.26,20.85,26.27m-.1,19.1a49.48,49.48,0,0,1-18.7-3.34,39.35,39.35,0,0,1-13.9-9.31,39.88,39.88,0,0,1-8.65-14.38,54.89,54.89,0,0,1-3-18.43,54.42,54.42,0,0,1,3-18.61,40.26,40.26,0,0,1,8.84-14.39,39.27,39.27,0,0,1,13.89-9.21,49.49,49.49,0,0,1,18.44-3.25A48.34,48.34,0,0,1,1314,75.33a39.22,39.22,0,0,1,13.73,9.12,39.79,39.79,0,0,1,8.73,14.31,54.68,54.68,0,0,1,3.06,18.78,53.92,53.92,0,0,1-3.06,18.69,40.94,40.94,0,0,1-8.73,14.31,38.5,38.5,0,0,1-13.82,9.21,48.69,48.69,0,0,1-18.1,3.25"/><path class="f861ad6e-6eb0-47f0-940c-26b693f8e867" d="M1388.58,144.43c5.72,0,10.37-2.42,14-7.27S1408,126,1408,118.32q0-26.62-19.62-26.62-19.11,0-19.09,28,0,11,5.51,17.87a17.06,17.06,0,0,0,13.77,6.83m-40.84,16.29V43h22.44V85.74q9.63-13.5,25.56-13.49a33.47,33.47,0,0,1,15,3.24,31.29,31.29,0,0,1,11.11,9.21,42.18,42.18,0,0,1,6.93,14.09,64.13,64.13,0,0,1,2.36,17.95,62.53,62.53,0,0,1-2.8,19.46,44.26,44.26,0,0,1-7.71,14.53,32.73,32.73,0,0,1-11.83,9.1,35.51,35.51,0,0,1-15,3.17q-16.11,0-24-12.79l-.18,10.51Z"/><path class="f861ad6e-6eb0-47f0-940c-26b693f8e867" d="M1479.63,143.9q20.85,0,20.86-26.27,0-26.1-20.86-26.11t-20.83,26.11q0,26.26,20.83,26.27m-.08,19.1a49.48,49.48,0,0,1-18.7-3.34,39.09,39.09,0,0,1-13.9-9.31,39.78,39.78,0,0,1-8.67-14.38,55.39,55.39,0,0,1-3-18.43,54.42,54.42,0,0,1,3.06-18.61,40.24,40.24,0,0,1,8.83-14.39,39.13,39.13,0,0,1,13.9-9.21,49.45,49.45,0,0,1,18.44-3.25,48.34,48.34,0,0,1,18.19,3.25,39,39,0,0,1,13.71,9.12,39.83,39.83,0,0,1,8.75,14.31,54.68,54.68,0,0,1,3.07,18.78,53.91,53.91,0,0,1-3.07,18.69,41,41,0,0,1-8.75,14.31,38.42,38.42,0,0,1-13.8,9.21,48.69,48.69,0,0,1-18.1,3.25"/><path class="f861ad6e-6eb0-47f0-940c-26b693f8e867" d="M1577.55,104h21v24.54a42.55,42.55,0,0,1-2,13,30.83,30.83,0,0,1-6.31,11,30.12,30.12,0,0,1-10.81,7.61,39.91,39.91,0,0,1-15.64,2.81,41.39,41.39,0,0,1-16.09-2.81,30.62,30.62,0,0,1-10.93-7.53,28.51,28.51,0,0,1-6.19-11,45.1,45.1,0,0,1-1.93-13.31V51.23h22.6v23.3h47.3V90.65h-47.3V126q0,8.24,3,12.7t10,4.48c4.52,0,7.84-1.47,10-4.39s3.22-7.06,3.22-12.44Z"/><path class="f861ad6e-6eb0-47f0-940c-26b693f8e867" d="M1181.19,107.57a14,14,0,1,1-14-14,14,14,0,0,1,14,14"/></svg>