<svg id="acbe1db0-fd2f-4271-80f2-84c178268859" data-name="Ebene 1" xmlns="http://www.w3.org/2000/svg" viewBox="0 0 1680 200"><defs><style>.b7d1fff7-0e73-45d0-a7bf-db7f311da663{fill:none;stroke:#ccc;stroke-miterlimit:10;}.f7be50ce-f0f9-4a23-a1b3-f1ad5de168c1{fill:#f9b213;}.e739c360-b4c8-49e4-a59c-130b83c70753{isolation:isolate;}.abe7cfd1-7907-4302-bc41-3b22df0cf6e6{fill:#ccc;}</style></defs><title>HOOBS_x_httpblinds</title><g id="b2b4b5e0-329a-480c-96fe-624c2bb53f08" data-name="Stroke"><line class="b7d1fff7-0e73-45d0-a7bf-db7f311da663" x1="700.5" y1="60" x2="700.5" y2="140"/></g><path class="f7be50ce-f0f9-4a23-a1b3-f1ad5de168c1" d="M154.17,41.5h-78A19.5,19.5,0,0,0,56.67,61v78a19.5,19.5,0,0,0,19.5,19.5h78a19.5,19.5,0,0,0,19.5-19.5V61A19.5,19.5,0,0,0,154.17,41.5Zm2,59.26a3.24,3.24,0,0,1-4.59,0,3.21,3.21,0,0,1-.95-2.09l-8.82-8.82V69.92a1.63,1.63,0,0,0-1.63-1.63h-3.25a1.63,1.63,0,0,0-1.62,1.63V83.6l-4.88-5.13-15-15a1.62,1.62,0,0,0-2.3,0L78.59,97.89a1.64,1.64,0,0,0,0,2.3l2.3,2.3a1.64,1.64,0,0,0,2.3,0l26.43-26.43a6.49,6.49,0,0,1,9.19,0l26.43,26.43a6.51,6.51,0,0,1,0,9.19l-2.3,2.3a6.49,6.49,0,0,1-9.19,0L115.36,95.59a1.64,1.64,0,0,0-2.3,0L94.68,114a1.62,1.62,0,0,0,0,2.3l2.3,2.29a1.61,1.61,0,0,0,2.29,0l10.35-10.34a6.49,6.49,0,0,1,9.19,0l10.34,10.34a6.51,6.51,0,0,1,0,9.2L118,138.89a3.21,3.21,0,0,1-1,2.09,3.25,3.25,0,1,1-2.5-5.54l11.12-11.12a1.62,1.62,0,0,0,0-2.3l-10.34-10.34a1.62,1.62,0,0,0-2.3,0L102.72,122a6.49,6.49,0,0,1-9.19,0l-2.3-2.3a6.49,6.49,0,0,1,0-9.19l18.39-18.38a6.49,6.49,0,0,1,9.19,0l18.38,18.38a1.64,1.64,0,0,0,2.3,0l2.3-2.3a1.64,1.64,0,0,0,0-2.3L115.36,79.51a1.62,1.62,0,0,0-2.3,0L86.63,105.93a6.49,6.49,0,0,1-9.19,0l-2.3-2.29a6.52,6.52,0,0,1,0-9.2L109.62,60a6.49,6.49,0,0,1,9.19,0l11.6,11.61V69.92a6.5,6.5,0,0,1,6.5-6.5h3.25a6.5,6.5,0,0,1,6.5,6.5V87.83l7.4,7.39a3.25,3.25,0,0,1,2.09,5.54Z"/><path class="f7be50ce-f0f9-4a23-a1b3-f1ad5de168c1" d="M612.42,61H624.1v3.65h-3.71v11H616.1v-11h-3.68Zm13.09,0h4.72l3.34,7.78L637,61h4.72V75.62h-3.85V67.39l-2.77,6.81h-2.92l-2.77-6.81v8.23h-3.85Z"/><path class="f7be50ce-f0f9-4a23-a1b3-f1ad5de168c1" d="M271.65,61v78H254.31V107h-34v32H202.92V61h17.35V91.75h34V61Zm10.65,39c0-22.41,16.77-39,39.65-39s39.64,16.48,39.64,39S344.72,139,322,139,282.3,122.41,282.3,100Zm62.09.39c0-14.19-9.63-23.9-22.44-23.9s-22.45,9.71-22.45,23.9,9.64,23.89,22.45,23.89S344.39,114.57,344.39,100.39ZM368.8,100c0-22.41,16.77-39,39.65-39s39.64,16.48,39.64,39-16.87,39-39.64,39S368.8,122.41,368.8,100Zm62.09.39c0-14.19-9.63-23.9-22.44-23.9S386,86.2,386,100.39s9.64,23.89,22.45,23.89S430.89,114.57,430.89,100.39Zm96.58,17.33c0,13.48-10.28,21.28-30,21.28H458.74V61h36.61c18.74,0,28.38,8.13,28.38,20.28a18.86,18.86,0,0,1-10,17.16C522.12,101.23,527.47,107.91,527.47,117.72ZM476.71,76.06V93.67h16.5c8.1,0,12.5-3,12.5-8.86s-4.4-8.75-12.5-8.75Zm32.59,39.47c0-6.29-4.61-9.28-13.22-9.28H476.71v18.46h19.37C504.69,124.71,509.3,121.93,509.3,115.53Zm23.38,14.74,5.69-13.14A41.52,41.52,0,0,0,562.28,125c9.94,0,14-3.44,14-8.08,0-14.11-42.13-4.41-42.13-32.42,0-12.82,9.94-23.49,30.53-23.49,9.11,0,18.43,2.26,25.16,6.68l-5.18,13.25A39.67,39.67,0,0,0,564.56,75c-9.94,0-13.77,3.87-13.77,8.61,0,13.9,42.13,4.31,42.13,32,0,12.61-10,23.38-30.74,23.38C550.69,139,539.1,135.44,532.68,130.27Z"/><g class="e739c360-b4c8-49e4-a59c-130b83c70753"><path class="abe7cfd1-7907-4302-bc41-3b22df0cf6e6" d="M958.66,118.45h-7.33V103.22H937.05v15.23h-7.32V82.91h7.32v14.4h14.28V82.91h7.33Z"/><path class="abe7cfd1-7907-4302-bc41-3b22df0cf6e6" d="M990.1,88.84H979.21v29.61h-7.32V88.84H961.15V82.91h29Z"/><path class="abe7cfd1-7907-4302-bc41-3b22df0cf6e6" d="M1020.43,88.84h-10.89v29.61h-7.33V88.84H991.47V82.91h29Z"/><path class="abe7cfd1-7907-4302-bc41-3b22df0cf6e6" d="M1030.93,105.93v12.52h-7.33V82.91h13.87a16.1,16.1,0,0,1,7,1.46,10.85,10.85,0,0,1,4.68,4.16,11.62,11.62,0,0,1,1.63,6.14,10.24,10.24,0,0,1-3.57,8.25q-3.59,3-9.9,3Zm0-5.93h6.54a6.44,6.44,0,0,0,4.43-1.37,5,5,0,0,0,1.53-3.91,5.87,5.87,0,0,0-1.54-4.22,5.76,5.76,0,0,0-4.25-1.66h-6.71Z"/><path class="abe7cfd1-7907-4302-bc41-3b22df0cf6e6" d="M1066.3,118.45V82.91h12.45q6.48,0,9.82,2.48a8.46,8.46,0,0,1,3.34,7.26,8,8,0,0,1-1.34,4.6,7.73,7.73,0,0,1-3.73,2.92,7.4,7.4,0,0,1,4.3,2.76,8.07,8.07,0,0,1,1.58,5.07q0,5.13-3.27,7.77t-9.33,2.68Zm7.33-20.65h5.42c3.69-.06,5.54-1.54,5.54-4.42a4.1,4.1,0,0,0-1.4-3.48,7.41,7.41,0,0,0-4.44-1.06h-5.12Zm0,5.18v9.59h6.27a6.06,6.06,0,0,0,4-1.23,4.23,4.23,0,0,0,1.46-3.41c0-3.25-1.69-4.91-5.06-5Z"/><path class="abe7cfd1-7907-4302-bc41-3b22df0cf6e6" d="M1104.2,118.45h-7.08V81h7.08Z"/><path class="abe7cfd1-7907-4302-bc41-3b22df0cf6e6" d="M1109,85.2a3.45,3.45,0,0,1,1.06-2.61,4.56,4.56,0,0,1,5.77,0,3.43,3.43,0,0,1,1.08,2.61,3.48,3.48,0,0,1-1.09,2.64,4.55,4.55,0,0,1-5.74,0A3.47,3.47,0,0,1,1109,85.2Zm7.49,33.25h-7.08V92h7.08Z"/><path class="abe7cfd1-7907-4302-bc41-3b22df0cf6e6" d="M1127.76,92l.22,3a9.21,9.21,0,0,1,7.59-3.54q4.2,0,6.25,2.47t2.1,7.37v17.06h-7.06V101.56a4.59,4.59,0,0,0-1-3.26,4.36,4.36,0,0,0-3.25-1,4.84,4.84,0,0,0-4.47,2.54v18.62h-7.05V92Z"/><path class="abe7cfd1-7907-4302-bc41-3b22df0cf6e6" d="M1147.17,105.05q0-6.18,2.77-9.84a9,9,0,0,1,7.58-3.66,8.09,8.09,0,0,1,6.37,2.88V81H1171v37.5h-6.37l-.34-2.8a8.32,8.32,0,0,1-6.79,3.29,9,9,0,0,1-7.48-3.67Q1147.17,111.6,1147.17,105.05Zm7,.53a10.35,10.35,0,0,0,1.3,5.69,4.21,4.21,0,0,0,3.76,2,4.71,4.71,0,0,0,4.61-2.76V100.05a4.65,4.65,0,0,0-4.56-2.76Q1154.22,97.29,1154.22,105.58Z"/><path class="abe7cfd1-7907-4302-bc41-3b22df0cf6e6" d="M1189.75,111.15a2.26,2.26,0,0,0-1.29-2,14.32,14.32,0,0,0-4.11-1.33q-9.42-2-9.42-8a7.25,7.25,0,0,1,2.91-5.87,11.73,11.73,0,0,1,7.63-2.36,12.66,12.66,0,0,1,8,2.37,7.46,7.46,0,0,1,3,6.15h-7a3.41,3.41,0,0,0-1-2.5,4.13,4.13,0,0,0-3-1,4.26,4.26,0,0,0-2.76.8,2.57,2.57,0,0,0-1,2.06,2.17,2.17,0,0,0,1.11,1.89,11.53,11.53,0,0,0,3.75,1.24,30.71,30.71,0,0,1,4.45,1.19q5.58,2,5.59,7.1a6.91,6.91,0,0,1-3.1,5.85,13.39,13.39,0,0,1-8,2.23,14,14,0,0,1-5.9-1.18,9.87,9.87,0,0,1-4-3.25,7.5,7.5,0,0,1-1.46-4.45h6.69a3.65,3.65,0,0,0,1.39,2.88,5.56,5.56,0,0,0,3.46,1,5.13,5.13,0,0,0,3.07-.77A2.41,2.41,0,0,0,1189.75,111.15Z"/></g><path class="abe7cfd1-7907-4302-bc41-3b22df0cf6e6" d="M871.57,52V66.07q0,23.94,0,47.89a1.9,1.9,0,0,0,.93,1.83,5.92,5.92,0,1,1-9,6.72,5.8,5.8,0,0,1,2.11-6.65,2.13,2.13,0,0,0,1-2q0-30.13,0-60.26V52H781.74c-2.21,0-2.29-.08-2.29-2.26V42.11c0-2,.15-2.11,2.09-2.11H898.15a1.17,1.17,0,0,1,1.31,1.33v9.27c0,1.2-.74,1.39-1.74,1.38H871.57Z"/><path class="abe7cfd1-7907-4302-bc41-3b22df0cf6e6" d="M839.46,160h-56.7c-.35,0-.71,0-1.07,0a1.18,1.18,0,0,1-1-1.86c1.15-2.08,2.32-4.15,3.6-6.14a2.22,2.22,0,0,1,1.65-.59c10.94,0,21.87,0,32.81,0q36.9,0,73.81,0a2.65,2.65,0,0,1,2.73,1.57c.83,1.62,1.82,3.15,2.72,4.73s.5,2.35-1.36,2.35H839.46Z"/><path class="abe7cfd1-7907-4302-bc41-3b22df0cf6e6" d="M839.46,144.78h-57c-2,0-2.42-.77-1.43-2.49.9-1.54,1.86-3,2.68-4.62a2.67,2.67,0,0,1,2.77-1.54q19,0,37.91,0,34.1,0,68.2,0a2.66,2.66,0,0,1,2.73,1.59c.79,1.55,1.78,3,2.58,4.53.31.58.63,1.5.38,1.92s-1.21.6-1.86.6c-8,0-16,0-24,0Z"/><path class="abe7cfd1-7907-4302-bc41-3b22df0cf6e6" d="M820.07,84.46H782.64a7.57,7.57,0,0,1-.95,0,1.2,1.2,0,0,1-1-1.88c1.15-2.07,2.32-4.14,3.6-6.14a2.23,2.23,0,0,1,1.63-.59c7.49,0,15,0,22.46,0h49.06c2.14,0,2.31.18,2.32,2.29,0,1.51,0,3,0,4.52s-.25,1.84-1.87,1.85H820.07Z"/><path class="abe7cfd1-7907-4302-bc41-3b22df0cf6e6" d="M820.16,99.5H782.5c-2,0-2.51-.78-1.49-2.54s2-3.25,2.84-4.93a2,2,0,0,1,2.08-1.17q20.73,0,41.46,0h30.05c2.17,0,2.28.12,2.29,2.29v4.39c0,1.71-.23,1.94-1.91,1.94H820.16Z"/><path class="abe7cfd1-7907-4302-bc41-3b22df0cf6e6" d="M820,69.25q-18.76,0-37.54,0c-.61,0-1.5-.18-1.76-.59s.08-1.24.36-1.78c.86-1.61,1.9-3.12,2.7-4.74a2.29,2.29,0,0,1,2.44-1.36c10.74,0,21.47,0,32.2,0h39.32c1.85,0,2,.18,2,2.06v4.27c0,2-.19,2.14-2.2,2.14H820Z"/><path class="abe7cfd1-7907-4302-bc41-3b22df0cf6e6" d="M819.49,114.72q-18.48,0-37,0c-.63,0-1.57-.24-1.81-.68s.07-1.33.37-1.91c.87-1.64,1.9-3.2,2.77-4.84a2,2,0,0,1,2.06-1.18q20.26,0,40.54,0h31.26c1.88,0,2,.14,2,2a6.36,6.36,0,0,0,0,1.31c.48,2-.77,3.45-1.89,4.85a2.2,2.2,0,0,1-1.51.4q-12.84,0-25.68,0Z"/><path class="abe7cfd1-7907-4302-bc41-3b22df0cf6e6" d="M819.49,129.74H781.93c-1.29-.06-1.83-.88-1.21-2,1.13-2,2.29-4.07,3.54-6a2,2,0,0,1,1.41-.55c6.62,0,13.23,0,19.85,0h48.73c1.85,0,1.8.07,2.3,1.81.42,1.47,1.1,2.86,1.62,4.3.21.6.57,1.39.34,1.81s-1.11.64-1.7.64q-18.66.06-37.32,0Z"/><path class="abe7cfd1-7907-4302-bc41-3b22df0cf6e6" d="M888.44,69.07c-2.77,0-5.54,0-8.3,0-1.48,0-1.77-.28-1.78-1.71,0-1.7,0-3.4,0-5.1,0-1.39.4-1.79,1.76-1.8,4.39,0,8.78,0,13.16,0a2.25,2.25,0,0,1,1.59.92c1.17,1.78,2.21,3.65,3.26,5.5.74,1.3.25,2.14-1.27,2.15C894.05,69.09,891.25,69.07,888.44,69.07Z"/><path class="abe7cfd1-7907-4302-bc41-3b22df0cf6e6" d="M888.43,84.29c-2.81,0-5.62,0-8.43,0-1.3,0-1.62-.31-1.64-1.6q0-2.67,0-5.34c0-1.21.45-1.66,1.65-1.67,4.43,0,8.86,0,13.29,0a2.12,2.12,0,0,1,1.52.83c1.19,1.86,2.29,3.79,3.36,5.72.67,1.18.16,2-1.21,2C894.12,84.3,891.27,84.29,888.43,84.29Z"/><path class="abe7cfd1-7907-4302-bc41-3b22df0cf6e6" d="M888.38,99.5c-2.77,0-5.55,0-8.32,0-1.38,0-1.68-.3-1.7-1.67,0-1.78,0-3.57,0-5.35,0-1.07.39-1.61,1.53-1.61,4.48,0,9,0,13.43,0a2.09,2.09,0,0,1,1.51.85c1.18,1.82,2.25,3.72,3.33,5.61.71,1.26.22,2.1-1.21,2.11-2.86,0-5.71,0-8.56,0Z"/><path class="abe7cfd1-7907-4302-bc41-3b22df0cf6e6" d="M889.28,114.72H882a4.17,4.17,0,0,1-3.66-3.49c0-1.27,0-2.53,0-3.8a1.19,1.19,0,0,1,1.34-1.31c4.67,0,9.35,0,14,0A1.91,1.91,0,0,1,895,107c1.18,1.87,2.28,3.8,3.36,5.73.66,1.17.14,2-1.25,2C894.5,114.73,891.89,114.72,889.28,114.72Z"/><path class="abe7cfd1-7907-4302-bc41-3b22df0cf6e6" d="M888.67,129.73c-2.57,0-5.14,0-7.71,0a2.17,2.17,0,0,1-1.59-.64c-.22-.32.08-1.08.27-1.6.59-1.62,1.32-3.19,1.83-4.84.32-1,.76-1.52,1.89-1.5,3.2,0,6.41,0,9.61,0a1.82,1.82,0,0,1,1.82,1c1,1.82,2.11,3.61,3.15,5.43.79,1.38.31,2.15-1.33,2.15Q892.65,129.75,888.67,129.73Z"/></svg>