<svg id="a64fefc6-4336-4ce2-997a-40cfa6071ba5" data-name="Ebene 1" xmlns="http://www.w3.org/2000/svg" viewBox="0 0 1680 200"><defs><style>.a3a2f38e-066a-4648-975d-ad4c8f463b90{fill:none;stroke:#ccc;stroke-miterlimit:10;}.a6d0729d-4f4b-41b5-b4e1-6db9f188d6b5{fill:#f9b213;}.a3189a9b-d61a-4280-b624-78641fbb224a{fill:#ff7a00;fill-rule:evenodd;}</style></defs><title>HOOBS_x_hive</title><g id="f9f3c949-35b4-4efe-a988-69351bf4926d" data-name="Stroke"><line class="a3a2f38e-066a-4648-975d-ad4c8f463b90" x1="700.5" y1="60" x2="700.5" y2="140"/></g><path class="a6d0729d-4f4b-41b5-b4e1-6db9f188d6b5" d="M154.17,41.5h-78A19.5,19.5,0,0,0,56.67,61v78a19.5,19.5,0,0,0,19.5,19.5h78a19.5,19.5,0,0,0,19.5-19.5V61A19.5,19.5,0,0,0,154.17,41.5Zm2,59.26a3.24,3.24,0,0,1-4.59,0,3.21,3.21,0,0,1-.95-2.09l-8.82-8.82V69.92a1.63,1.63,0,0,0-1.63-1.63h-3.25a1.63,1.63,0,0,0-1.62,1.63V83.6l-4.88-5.13-15-15a1.62,1.62,0,0,0-2.3,0L78.59,97.89a1.64,1.64,0,0,0,0,2.3l2.3,2.3a1.64,1.64,0,0,0,2.3,0l26.43-26.43a6.49,6.49,0,0,1,9.19,0l26.43,26.43a6.51,6.51,0,0,1,0,9.19l-2.3,2.3a6.49,6.49,0,0,1-9.19,0L115.36,95.59a1.64,1.64,0,0,0-2.3,0L94.68,114a1.62,1.62,0,0,0,0,2.3l2.3,2.29a1.61,1.61,0,0,0,2.29,0l10.35-10.34a6.49,6.49,0,0,1,9.19,0l10.34,10.34a6.51,6.51,0,0,1,0,9.2L118,138.89a3.21,3.21,0,0,1-1,2.09,3.25,3.25,0,1,1-2.5-5.54l11.12-11.12a1.62,1.62,0,0,0,0-2.3l-10.34-10.34a1.62,1.62,0,0,0-2.3,0L102.72,122a6.49,6.49,0,0,1-9.19,0l-2.3-2.3a6.49,6.49,0,0,1,0-9.19l18.39-18.38a6.49,6.49,0,0,1,9.19,0l18.38,18.38a1.64,1.64,0,0,0,2.3,0l2.3-2.3a1.64,1.64,0,0,0,0-2.3L115.36,79.51a1.62,1.62,0,0,0-2.3,0L86.63,105.93a6.49,6.49,0,0,1-9.19,0l-2.3-2.29a6.52,6.52,0,0,1,0-9.2L109.62,60a6.49,6.49,0,0,1,9.19,0l11.6,11.61V69.92a6.5,6.5,0,0,1,6.5-6.5h3.25a6.5,6.5,0,0,1,6.5,6.5V87.83l7.4,7.39a3.25,3.25,0,0,1,2.09,5.54Z"/><path class="a6d0729d-4f4b-41b5-b4e1-6db9f188d6b5" d="M612.42,61H624.1v3.65h-3.71v11H616.1v-11h-3.68Zm13.09,0h4.72l3.34,7.78L637,61h4.72V75.62h-3.85V67.39l-2.77,6.81h-2.92l-2.77-6.81v8.23h-3.85Z"/><path class="a6d0729d-4f4b-41b5-b4e1-6db9f188d6b5" d="M271.65,61v78H254.31V107h-34v32H202.92V61h17.35V91.75h34V61Zm10.65,39c0-22.41,16.77-39,39.65-39s39.64,16.48,39.64,39S344.72,139,322,139,282.3,122.41,282.3,100Zm62.09.39c0-14.19-9.63-23.9-22.44-23.9s-22.45,9.71-22.45,23.9,9.64,23.89,22.45,23.89S344.39,114.57,344.39,100.39ZM368.8,100c0-22.41,16.77-39,39.65-39s39.64,16.48,39.64,39-16.87,39-39.64,39S368.8,122.41,368.8,100Zm62.09.39c0-14.19-9.63-23.9-22.44-23.9S386,86.2,386,100.39s9.64,23.89,22.45,23.89S430.89,114.57,430.89,100.39Zm96.58,17.33c0,13.48-10.28,21.28-30,21.28H458.74V61h36.61c18.74,0,28.38,8.13,28.38,20.28a18.86,18.86,0,0,1-10,17.16C522.12,101.23,527.47,107.91,527.47,117.72ZM476.71,76.06V93.67h16.5c8.1,0,12.5-3,12.5-8.86s-4.4-8.75-12.5-8.75Zm32.59,39.47c0-6.29-4.61-9.28-13.22-9.28H476.71v18.46h19.37C504.69,124.71,509.3,121.93,509.3,115.53Zm23.38,14.74,5.69-13.14A41.52,41.52,0,0,0,562.28,125c9.94,0,14-3.44,14-8.08,0-14.11-42.13-4.41-42.13-32.42,0-12.82,9.94-23.49,30.53-23.49,9.11,0,18.43,2.26,25.16,6.68l-5.18,13.25A39.67,39.67,0,0,0,564.56,75c-9.94,0-13.77,3.87-13.77,8.61,0,13.9,42.13,4.31,42.13,32,0,12.61-10,23.38-30.74,23.38C550.69,139,539.1,135.44,532.68,130.27Z"/><g id="a5103b49-76a7-4282-bb7b-233fc49dfb45" data-name="hive"><path id="aca80918-4a26-4346-8bea-b815445d0c65" data-name="Fill-1" class="a3189a9b-d61a-4280-b624-78641fbb224a" d="M882.13,73.66l-40.33,3.1a59.54,59.54,0,0,1-9.63,0l-40.34-3.1a4,4,0,0,1,0-8.1l.35,0h89.61a4,4,0,1,1,.69,8.06l-.35,0"/><path id="a5f75542-ce5c-44af-808a-ec2ea85a6b6b" data-name="Fill-3" class="a3189a9b-d61a-4280-b624-78641fbb224a" d="M892.18,93.18l-46.62,7.33a51.09,51.09,0,0,1-15.71,0l-46.64-7.33a4.56,4.56,0,0,1-3.82-4.5h0a4.5,4.5,0,0,1,4.47-4.52l.48,0,47.5,4.52a59.35,59.35,0,0,0,11.77,0l47.47-4.62a4.5,4.5,0,0,1,4.93,4,3.62,3.62,0,0,1,0,.47h0a4.5,4.5,0,0,1-3.82,4.5"/><path id="ffa937f7-5923-4fcb-9447-c03e190b2e69" data-name="Fill-5" class="a3189a9b-d61a-4280-b624-78641fbb224a" d="M888.49,116.51,845.33,127a37.49,37.49,0,0,1-18,0l-43.23-10.5a4.19,4.19,0,0,1-3.24-4.06h0a4.26,4.26,0,0,1,4.33-4.19,3.39,3.39,0,0,1,.7.07l44.69,7.81a33.59,33.59,0,0,0,11.49,0l44.69-7.81a4.25,4.25,0,0,1,5,3.4,3.51,3.51,0,0,1,.07.72h0a4.2,4.2,0,0,1-3.25,4.06"/><path id="be07f3aa-862f-4cfe-869a-0ea19348429b" data-name="Fill-7" class="a3189a9b-d61a-4280-b624-78641fbb224a" d="M877.59,141.59l-30,10.25a35,35,0,0,1-22.79,0l-30-10.25a4,4,0,0,1-2.78-3.75,4.15,4.15,0,0,1,4.29-4,4.1,4.1,0,0,1,1,.16l28.7,7.5a39.87,39.87,0,0,0,20.12,0l28.7-7.5a4.17,4.17,0,0,1,5.16,2.85,3.87,3.87,0,0,1,.16,1,4,4,0,0,1-2.77,3.75"/><g id="b13a1989-3241-42e1-adad-d4404d845aba" data-name="Group-11"><path id="a1e0305e-ef0f-40c0-9c87-9a53b46c3d9c" data-name="Fill-9" class="a3189a9b-d61a-4280-b624-78641fbb224a" d="M806.35,42.53,823,40.73a127.76,127.76,0,0,1,27.23,0l16.64,1.8a4.16,4.16,0,0,1,4,4h0a4.21,4.21,0,0,1-4.39,4H806.89a4.21,4.21,0,0,1-4.34-4h0a4.16,4.16,0,0,1,3.8-4"/></g><path id="bcd96e8a-2926-4223-bb28-a68018bd3d1c" data-name="Fill-12" class="a3189a9b-d61a-4280-b624-78641fbb224a" d="M1010.28,157.61a8.4,8.4,0,0,1-8.47-8.35h0V107.94H941.18v41.32a8.49,8.49,0,0,1-17,0V49.89a8.49,8.49,0,0,1,17,0V91.22h60.69V49.89a8.47,8.47,0,0,1,16.94,0v99.37a8.42,8.42,0,0,1-8.47,8.35"/><path id="fc487822-dcbf-4023-bafa-fb13fadc09ca" data-name="Fill-14" class="a3189a9b-d61a-4280-b624-78641fbb224a" d="M1053.21,157.61a8.5,8.5,0,0,1-8.61-8.35V49.89a8.61,8.61,0,0,1,17.2,0v99.37a8.48,8.48,0,0,1-8.59,8.35"/><g id="fdeea59c-18fe-4ee1-88fd-7107ba55ec69" data-name="Group-18"><path id="f75aa6a9-7c89-4a24-9308-5459ba19ace0" data-name="Fill-16" class="a3189a9b-d61a-4280-b624-78641fbb224a" d="M1213.05,160a8.37,8.37,0,0,1-8.3-8.46h0V51.08a8.38,8.38,0,0,1,8.3-8.45H1274a8.46,8.46,0,0,1,0,16.9h-52.64V92.82h41.76a8.46,8.46,0,0,1,0,16.9h-41.76v33.33h55.37a8.46,8.46,0,0,1,0,16.9Z"/></g><path id="f9668947-72bb-4da7-a34d-927c58137728" data-name="Fill-19" class="a3189a9b-d61a-4280-b624-78641fbb224a" d="M1136.91,157.61a7.69,7.69,0,0,1-1,0h-.21a7,7,0,0,1-.91-.19h-.2a6.7,6.7,0,0,1-1.06-.38l-.17-.09a8.29,8.29,0,0,1-.84-.43l-.16-.1c-.33-.21-.57-.41-.81-.59a9,9,0,0,1-.9-.85l-.14-.15c-.25-.3-.43-.54-.61-.8a9.75,9.75,0,0,1-.57-1l-.12-.27L1084,53.31a8.22,8.22,0,0,1-.18-6.4,8.41,8.41,0,0,1,4.5-4.65,8.63,8.63,0,0,1,11.26,4.23l37.48,82.27,37.49-82.27a8.56,8.56,0,0,1,7.78-5,8.68,8.68,0,0,1,3.48.72,8.41,8.41,0,0,1,4.5,4.65,8.18,8.18,0,0,1-.18,6.4l-45.27,99.46v.09a9.25,9.25,0,0,1-.49.87,7.58,7.58,0,0,1-.68.9l-.13.17a9.58,9.58,0,0,1-.8.76l-.13.12q-.36.28-.75.54l-.26.17c-.27.15-.55.31-.85.44a7.68,7.68,0,0,1-1.13.42h-.21a8.63,8.63,0,0,1-.88.2h-.23a10.84,10.84,0,0,1-1.14,0Z"/></g></svg>