<svg id="a1ccf464-5f8c-4580-a726-1540fa07fe3c" data-name="Ebene 1" xmlns="http://www.w3.org/2000/svg" viewBox="0 0 1680 200"><defs><style>.a42ef831-54c7-491d-9c46-9dd19698c47d{fill:none;stroke:#ccc;stroke-miterlimit:10;}.f5643050-42fb-4b5a-baf1-f7289742bb84{fill:#f9b213;}.afb26eb0-76e4-4610-a1ab-1f939a77da79{isolation:isolate;font-size:46.2px;fill:#ccc;font-family:Helvetica-Bold, Helvetica;font-weight:700;}.aa2774ea-9bac-4a4f-b8a5-500280c7fb9c{fill:#eb6809;}.bcf05e14-fe3f-406a-a5ca-b926790c6b5d{fill:#20201e;}.b4b95334-70ac-460e-b48d-c528162054c7{fill:#eb680a;}</style></defs><title>HOOBS_x_maxcube</title><g id="a97be45c-165b-4f9b-8b06-746f7b74f212" data-name="Stroke"><line class="a42ef831-54c7-491d-9c46-9dd19698c47d" x1="700.5" y1="60" x2="700.5" y2="140"/></g><path class="f5643050-42fb-4b5a-baf1-f7289742bb84" d="M154.17,41.5h-78A19.5,19.5,0,0,0,56.67,61v78a19.5,19.5,0,0,0,19.5,19.5h78a19.5,19.5,0,0,0,19.5-19.5V61A19.5,19.5,0,0,0,154.17,41.5Zm2,59.26a3.24,3.24,0,0,1-4.59,0,3.21,3.21,0,0,1-.95-2.09l-8.82-8.82V69.92a1.63,1.63,0,0,0-1.63-1.63h-3.25a1.63,1.63,0,0,0-1.62,1.63V83.6l-4.88-5.13-15-15a1.62,1.62,0,0,0-2.3,0L78.59,97.89a1.64,1.64,0,0,0,0,2.3l2.3,2.3a1.64,1.64,0,0,0,2.3,0l26.43-26.43a6.49,6.49,0,0,1,9.19,0l26.43,26.43a6.51,6.51,0,0,1,0,9.19l-2.3,2.3a6.49,6.49,0,0,1-9.19,0L115.36,95.59a1.64,1.64,0,0,0-2.3,0L94.68,114a1.62,1.62,0,0,0,0,2.3l2.3,2.29a1.61,1.61,0,0,0,2.29,0l10.35-10.34a6.49,6.49,0,0,1,9.19,0l10.34,10.34a6.51,6.51,0,0,1,0,9.2L118,138.89a3.21,3.21,0,0,1-1,2.09,3.25,3.25,0,1,1-2.5-5.54l11.12-11.12a1.62,1.62,0,0,0,0-2.3l-10.34-10.34a1.62,1.62,0,0,0-2.3,0L102.72,122a6.49,6.49,0,0,1-9.19,0l-2.3-2.3a6.49,6.49,0,0,1,0-9.19l18.39-18.38a6.49,6.49,0,0,1,9.19,0l18.38,18.38a1.64,1.64,0,0,0,2.3,0l2.3-2.3a1.64,1.64,0,0,0,0-2.3L115.36,79.51a1.62,1.62,0,0,0-2.3,0L86.63,105.93a6.49,6.49,0,0,1-9.19,0l-2.3-2.29a6.52,6.52,0,0,1,0-9.2L109.62,60a6.49,6.49,0,0,1,9.19,0l11.6,11.61V69.92a6.5,6.5,0,0,1,6.5-6.5h3.25a6.5,6.5,0,0,1,6.5,6.5V87.83l7.4,7.39a3.25,3.25,0,0,1,2.09,5.54Z"/><path class="f5643050-42fb-4b5a-baf1-f7289742bb84" d="M612.42,61H624.1v3.65h-3.71v11H616.1v-11h-3.68Zm13.09,0h4.72l3.34,7.78L637,61h4.72V75.62h-3.85V67.39l-2.77,6.81h-2.92l-2.77-6.81v8.23h-3.85Z"/><path class="f5643050-42fb-4b5a-baf1-f7289742bb84" d="M271.65,61v78H254.31V107h-34v32H202.92V61h17.35V91.75h34V61Zm10.65,39c0-22.41,16.77-39,39.65-39s39.64,16.48,39.64,39S344.72,139,322,139,282.3,122.41,282.3,100Zm62.09.39c0-14.19-9.63-23.9-22.44-23.9s-22.45,9.71-22.45,23.9,9.64,23.89,22.45,23.89S344.39,114.57,344.39,100.39ZM368.8,100c0-22.41,16.77-39,39.65-39s39.64,16.48,39.64,39-16.87,39-39.64,39S368.8,122.41,368.8,100Zm62.09.39c0-14.19-9.63-23.9-22.44-23.9S386,86.2,386,100.39s9.64,23.89,22.45,23.89S430.89,114.57,430.89,100.39Zm96.58,17.33c0,13.48-10.28,21.28-30,21.28H458.74V61h36.61c18.74,0,28.38,8.13,28.38,20.28a18.86,18.86,0,0,1-10,17.16C522.12,101.23,527.47,107.91,527.47,117.72ZM476.71,76.06V93.67h16.5c8.1,0,12.5-3,12.5-8.86s-4.4-8.75-12.5-8.75Zm32.59,39.47c0-6.29-4.61-9.28-13.22-9.28H476.71v18.46h19.37C504.69,124.71,509.3,121.93,509.3,115.53Zm23.38,14.74,5.69-13.14A41.52,41.52,0,0,0,562.28,125c9.94,0,14-3.44,14-8.08,0-14.11-42.13-4.41-42.13-32.42,0-12.82,9.94-23.49,30.53-23.49,9.11,0,18.43,2.26,25.16,6.68l-5.18,13.25A39.67,39.67,0,0,0,564.56,75c-9.94,0-13.77,3.87-13.77,8.61,0,13.9,42.13,4.31,42.13,32,0,12.61-10,23.38-30.74,23.38C550.69,139,539.1,135.44,532.68,130.27Z"/><text class="afb26eb0-76e4-4610-a1ab-1f939a77da79" transform="translate(779.45 147.55)">CUBE</text><path class="aa2774ea-9bac-4a4f-b8a5-500280c7fb9c" d="M1051.58,55.77c1.52,1,3.39.9,5.06,1.46,17.37,5.72,27.25,18,30.57,35.53a46.27,46.27,0,0,1-9.56,38.76c-1.19,1.51-.81,2.28.25,3.46,3.53,3.93,7,8,10.83,12.39-6.21,0-11.81.09-17.41,0-2.33-.05-3-2.48-4.36-3.82-1-1-1.64-1.35-3-.64-23.14,11.74-49-1.05-57.39-25.07-7.68-22,1.08-46.43,20.43-57.2,4.15-2.31,8.75-3.22,13.12-4.83Zm-8.15,60.85c4.86,0,9.09.28,13.26-.08,3.82-.34,6.63.72,8.61,4,1.27,2.1,2.17,1.49,3.37-.21,8.42-11.86,7.65-29-1.87-40-10.43-12-27.66-13.18-39.29-2.57-13.19,12-13.63,34.29-.81,46.71,7.44,7.22,16.3,9.58,26.43,7.09,1.92-.47,2.61-1,.92-2.81C1050.56,125,1047.28,121,1043.43,116.62Z"/><path class="aa2774ea-9bac-4a4f-b8a5-500280c7fb9c" d="M932.27,105.79c1.07-.82,1-2.1,1.24-3.21,4-15,16.77-25.29,31.49-25.17s27.69,11.44,30.87,26.7a48,48,0,0,1,.88,9.57c0,2.27-.71,3-3.11,3-14.54-.12-29.07,0-43.6-.12-2.87,0-3.13.77-2.22,3.2,4.58,12.24,18.2,16,28.29,7.59a3.85,3.85,0,0,1,2.62-1.2c4.94.05,9.88,0,14.74,0,.62.87,0,1.49-.23,2-5.71,11.33-14.51,18.61-27.56,19.09-13.45.5-22.87-6.31-29.32-17.74-1.88-3.32-2.22-7.18-4.09-10.48Zm48.5-1.36c-3-7.58-10.14-12.19-17.37-11.56s-13.65,5.71-14.85,11.56Z"/><path class="aa2774ea-9bac-4a4f-b8a5-500280c7fb9c" d="M1154.53,55.77c.19.19.37.52.59.55,14.22,1.91,24.44,22,10.14,36.86-1.45,1.51-3.07,2.85-4.78,4.43,6.28,4,10.33,9.37,11.3,16.7,1.48,11.21-2.34,20.47-11.29,27.27-8.72,6.6-18.61,7.74-28.57,3.36C1123,141,1118.7,133.28,1117,124c-.18-1-.14-1.69,1.15-2,4.33-.91,8.65-1.92,13-2.93,2.09-.5,2,1,2.23,2.27.91,4.66,2.83,8.64,7.72,10.29,7,2.36,13.94-2.41,15.26-10.41,1.58-9.52-3.32-15.81-13.09-16.54-2.11-.16-2.75-.55-2.34-2.78a81.92,81.92,0,0,0,.93-9.28c.09-1.31.44-1.93,1.91-2a17,17,0,0,0,6.68-1.78,11.23,11.23,0,0,0,6.35-9.59c.4-5.06-3.12-8.91-8.38-9-4.33-.05-8.19,1.36-10.94,4.82-1.17,1.48-2,1.52-3.35.39-2.34-1.9-4.77-3.71-7.27-5.4-1.54-1-1.67-1.76-.35-3.2,4.65-5.08,9.81-9.24,16.85-10.48.41-.07.77-.18.91-.62Z"/><path class="aa2774ea-9bac-4a4f-b8a5-500280c7fb9c" d="M1110.32,104.55c-3.94,0-7.87-.07-11.8,0-1.68,0-2.4-.34-2.1-2.17.54-3.26,1-6.55,1.34-9.84.18-1.51.91-1.91,2.39-1.9,8,.07,15.94.11,23.91,0,2.11,0,2.33.75,2,2.45a90.07,90.07,0,0,0-1.59,9.19c-.2,2.12-1.21,2.33-2.94,2.28C1117.79,104.48,1114.05,104.55,1110.32,104.55Z"/><path class="bcf05e14-fe3f-406a-a5ca-b926790c6b5d" d="M779.45,62.92c3.6,0,7.19.1,10.79.06,1,0,1.41.31,1.69,1.31,1.91,7,3.91,14,6,21.17,1.42-3.92,2.43-7.74,3.49-11.54.91-3.26,1.83-6.51,2.71-9.77A1.31,1.31,0,0,1,805.61,63c3.25.07,6.5.06,9.75,0,1,0,1.26.24,1.25,1.25q-.06,16.5,0,33c0,1.08-.33,1.35-1.35,1.3a37.81,37.81,0,0,0-4.64,0c-1.31.09-1.77-.21-1.75-1.66.09-7.31,0-14.63,0-21.95V74.2l-.24-.06c-.63,2.25-1.28,4.5-1.9,6.75-1.49,5.47-3,10.93-4.42,16.41-.25,1-.63,1.28-1.61,1.24a43.62,43.62,0,0,0-5.24,0c-1.19.08-1.64-.36-1.92-1.44-1.89-7.16-3.83-14.31-5.76-21.46-.1-.37-.22-.74-.33-1.12h-.39c0,1.92,0,3.84,0,5.76,0,5.52,0,11,.1,16.57,0,1.45-.44,1.74-1.75,1.67-2-.11-4-.05-6-.06Z"/><path class="b4b95334-70ac-460e-b48d-c528162054c7" d="M888.44,97.92c.34-.5.16-1.07.17-1.6q0-19.48,0-39c0-1.21.28-1.6,1.56-1.58,5.1.07,10.2.05,15.3,0,1,0,1.26.23,1.26,1.24q0,23.75,0,47.49c0,1-.27,1.26-1.26,1.25q-7.8-.06-15.6,0c-1,0-1.25-.3-1.26-1.26a35.39,35.39,0,0,0-.14-6.09C888.45,98.24,888.44,98.08,888.44,97.92Zm13.23-29.35c0-1.68,0-3.08,0-4.47,0-.73-.17-1.08-1-1.06-1.94.05-3.89,0-5.84,0-.55,0-1,.05-1,.77A99.06,99.06,0,0,0,894.21,78c.29,2.82.89,5.62,1.13,8.45.26,3.11.24,3.08,3.39,3,.79,0,1.11-.18,1.19-1C900.6,81.76,901.5,75.05,901.67,68.57Zm-.35,26.28c0-3.52,0-3.52-3.55-3.52s-3.67,0-3.67,3.59,0,3.56,3.64,3.56S901.32,98.48,901.32,94.85Z"/><path class="bcf05e14-fe3f-406a-a5ca-b926790c6b5d" d="M853.84,98.51c-2.59,0-5.13,0-7.66,0-.73,0-.75-.55-.92-1-.78-2-1.57-4-2.29-6a1.14,1.14,0,0,0-1.28-.91c-4,0-7.9,0-11.85,0a1.27,1.27,0,0,0-1.34.89,45.21,45.21,0,0,0-2.16,5.86c-.24.77-.51,1.15-1.42,1.12-2.29-.07-4.59,0-7.1,0,.69-1.91,1.3-3.72,2-5.5q5.66-14.51,11.32-29a1.37,1.37,0,0,1,1.54-1c2,.07,4,.05,6,0a1.22,1.22,0,0,1,1.38.81c4.53,11.4,9.38,22.66,13.66,34.16A4.58,4.58,0,0,1,853.84,98.51Zm-18.3-26.08c-1.51,4-3,7.72-4.23,11.68,2.72,0,5.3,0,7.88,0,.93,0,.63-.51.47-1C838.43,79.65,837.15,76.18,835.54,72.43Z"/><path class="bcf05e14-fe3f-406a-a5ca-b926790c6b5d" d="M888.44,97.92c0,.16,0,.32,0,.48-2.79.27-5.59,0-8.38.13-.79,0-1-.54-1.33-1-2.34-3.46-4.66-6.93-7.08-10.55-1.57,2.37-3,4.65-4.57,6.89-1.06,1.55-1.71,3.73-3.3,4.46s-3.63.18-5.48.19H855a102.69,102.69,0,0,1,5.73-9.09c1.9-2.8,3.75-5.64,5.67-8.43a1.66,1.66,0,0,0,0-2.21c-3.34-4.83-6.76-9.62-9.65-14.74-.16-.28-.49-.51-.33-1,2.61,0,5.24,0,7.87,0,.72,0,.93.5,1.22.92,2.05,3,4.08,6,6.23,9.18,2-3,4.08-6,6-9A2.18,2.18,0,0,1,879.9,63c2.39.07,4.78,0,7.39,0a80.62,80.62,0,0,1-4.74,7.67c-1.86,2.82-3.71,5.65-5.61,8.46a1.27,1.27,0,0,0,0,1.69C880.71,86.56,884.45,92.32,888.44,97.92Z"/></svg>