<svg id="b039a3c5-8caa-445a-94b2-1e9edf4953d8" data-name="Ebene 1" xmlns="http://www.w3.org/2000/svg" viewBox="0 0 1680 200"><defs><style>.ee132183-0a71-40a0-8195-ee87f6fc8ac4{fill:#ccc;}.b36a14cf-e36c-4a1a-bbfa-505525afbc2b{fill:none;stroke:#ccc;stroke-miterlimit:10;}.ba070362-4c34-4169-9cf1-12df2d12f9c7{fill:#f9b213;}.bad12a15-23a2-4a75-baf1-3c9e1454e82b{isolation:isolate;}</style></defs><title>HOOBS_x_denontv</title><g id="bffbfc50-d30b-4fe2-9713-61cdd6a1e2c8" data-name="denon"><g id="bd6c38c0-a19d-42aa-a205-62f31bb438d8" data-name="layer1"><g id="becd06a8-dff4-4ecf-a9b4-2d7296e8b07f" data-name="g5872"><path id="e384782e-4d61-413a-a682-8eedad5a7301" data-name="path5098" class="ee132183-0a71-40a0-8195-ee87f6fc8ac4" d="M990.65,82.87l76.55,76.25v-115h-17.58v71.72L972.91,41.35V156.48h17.57V83.6l.17-.73"/><path id="fc0d83ac-765f-4a16-aff2-173e261ca804" data-name="path5100" class="ee132183-0a71-40a0-8195-ee87f6fc8ac4" d="M889.23,156.48V44.08h62.89V61.61H906.8V88h35.1v17.54H906.8v33.39h45v17.54H889.23"/><path id="ba574076-7174-4d08-be74-04e22d47a72d" data-name="path5102" class="ee132183-0a71-40a0-8195-ee87f6fc8ac4" d="M1243.59,82.69l77.1,76V44.08h-17.58v72.59l-.11-.33-77.15-75.11V156.48h17.79V82.69"/><path id="a66f835f-91e9-456e-a0d7-83de54697636" data-name="path5104" class="ee132183-0a71-40a0-8195-ee87f6fc8ac4" d="M779.45,44.08v112.4h37.31s52.72-4.39,52.72-56.64c0-53.85-52.83-55.76-52.83-55.76ZM797,139.81V60.35h15.5s39.61-.73,39.61,40.17c0,37.36-36,39.3-36,39.3H797"/><path id="ab545735-9380-4713-be43-238c06642a70" data-name="path5106" class="ee132183-0a71-40a0-8195-ee87f6fc8ac4" d="M1104,100.87a42.45,42.45,0,0,1,42.22-42.64c23.34,0,43.09,16.3,43.09,42.64,0,23.54-19.75,42.63-43.09,42.63A42.45,42.45,0,0,1,1104,100.87Zm42.22,59.56c34.55.44,61.32-29.79,61.32-57.52,0-29.85-21.49-62.48-60.45-62.48-29,0-61,23.56-61,60.44,0,27.71,21.16,59.06,60.12,59.56"/></g></g></g><g id="bb7ae5fd-9dc5-42f5-b411-d80525bd6062" data-name="Stroke"><line class="b36a14cf-e36c-4a1a-bbfa-505525afbc2b" x1="700.5" y1="60" x2="700.5" y2="140"/></g><path class="ba070362-4c34-4169-9cf1-12df2d12f9c7" d="M154.17,41.5h-78A19.5,19.5,0,0,0,56.67,61v78a19.5,19.5,0,0,0,19.5,19.5h78a19.5,19.5,0,0,0,19.5-19.5V61A19.5,19.5,0,0,0,154.17,41.5Zm2,59.26a3.24,3.24,0,0,1-4.59,0,3.21,3.21,0,0,1-.95-2.09l-8.82-8.82V69.92a1.63,1.63,0,0,0-1.63-1.63h-3.25a1.63,1.63,0,0,0-1.62,1.63V83.6l-4.88-5.13-15-15a1.62,1.62,0,0,0-2.3,0L78.59,97.89a1.64,1.64,0,0,0,0,2.3l2.3,2.3a1.64,1.64,0,0,0,2.3,0l26.43-26.43a6.49,6.49,0,0,1,9.19,0l26.43,26.43a6.51,6.51,0,0,1,0,9.19l-2.3,2.3a6.49,6.49,0,0,1-9.19,0L115.36,95.59a1.64,1.64,0,0,0-2.3,0L94.68,114a1.62,1.62,0,0,0,0,2.3l2.3,2.29a1.61,1.61,0,0,0,2.29,0l10.35-10.34a6.49,6.49,0,0,1,9.19,0l10.34,10.34a6.51,6.51,0,0,1,0,9.2L118,138.89a3.21,3.21,0,0,1-1,2.09,3.25,3.25,0,1,1-2.5-5.54l11.12-11.12a1.62,1.62,0,0,0,0-2.3l-10.34-10.34a1.62,1.62,0,0,0-2.3,0L102.72,122a6.49,6.49,0,0,1-9.19,0l-2.3-2.3a6.49,6.49,0,0,1,0-9.19l18.39-18.38a6.49,6.49,0,0,1,9.19,0l18.38,18.38a1.64,1.64,0,0,0,2.3,0l2.3-2.3a1.64,1.64,0,0,0,0-2.3L115.36,79.51a1.62,1.62,0,0,0-2.3,0L86.63,105.93a6.49,6.49,0,0,1-9.19,0l-2.3-2.29a6.52,6.52,0,0,1,0-9.2L109.62,60a6.49,6.49,0,0,1,9.19,0l11.6,11.61V69.92a6.5,6.5,0,0,1,6.5-6.5h3.25a6.5,6.5,0,0,1,6.5,6.5V87.83l7.4,7.39a3.25,3.25,0,0,1,2.09,5.54Z"/><path class="ba070362-4c34-4169-9cf1-12df2d12f9c7" d="M612.42,61H624.1v3.65h-3.71v11H616.1v-11h-3.68Zm13.09,0h4.72l3.34,7.78L637,61h4.72V75.62h-3.85V67.39l-2.77,6.81h-2.92l-2.77-6.81v8.23h-3.85Z"/><path class="ba070362-4c34-4169-9cf1-12df2d12f9c7" d="M271.65,61v78H254.31V107h-34v32H202.92V61h17.35V91.75h34V61Zm10.65,39c0-22.41,16.77-39,39.65-39s39.64,16.48,39.64,39S344.72,139,322,139,282.3,122.41,282.3,100Zm62.09.39c0-14.19-9.63-23.9-22.44-23.9s-22.45,9.71-22.45,23.9,9.64,23.89,22.45,23.89S344.39,114.57,344.39,100.39ZM368.8,100c0-22.41,16.77-39,39.65-39s39.64,16.48,39.64,39-16.87,39-39.64,39S368.8,122.41,368.8,100Zm62.09.39c0-14.19-9.63-23.9-22.44-23.9S386,86.2,386,100.39s9.64,23.89,22.45,23.89S430.89,114.57,430.89,100.39Zm96.58,17.33c0,13.48-10.28,21.28-30,21.28H458.74V61h36.61c18.74,0,28.38,8.13,28.38,20.28a18.86,18.86,0,0,1-10,17.16C522.12,101.23,527.47,107.91,527.47,117.72ZM476.71,76.06V93.67h16.5c8.1,0,12.5-3,12.5-8.86s-4.4-8.75-12.5-8.75Zm32.59,39.47c0-6.29-4.61-9.28-13.22-9.28H476.71v18.46h19.37C504.69,124.71,509.3,121.93,509.3,115.53Zm23.38,14.74,5.69-13.14A41.52,41.52,0,0,0,562.28,125c9.94,0,14-3.44,14-8.08,0-14.11-42.13-4.41-42.13-32.42,0-12.82,9.94-23.49,30.53-23.49,9.11,0,18.43,2.26,25.16,6.68l-5.18,13.25A39.67,39.67,0,0,0,564.56,75c-9.94,0-13.77,3.87-13.77,8.61,0,13.9,42.13,4.31,42.13,32,0,12.61-10,23.38-30.74,23.38C550.69,139,539.1,135.44,532.68,130.27Z"/><g class="bad12a15-23a2-4a75-baf1-3c9e1454e82b"><path class="ee132183-0a71-40a0-8195-ee87f6fc8ac4" d="M1377.58,121.8h-13.72v37.32h-9.23V121.8h-13.54v-7.48h36.49Z"/><path class="ee132183-0a71-40a0-8195-ee87f6fc8ac4" d="M1399.89,148,1410,114.32h10.28l-15.6,44.8h-9.63l-15.54-44.8h10.25Z"/></g></svg>