<svg id="b9bbbdb2-8deb-4c8a-a201-9abb468b395e" data-name="Ebene 1" xmlns="http://www.w3.org/2000/svg" viewBox="0 0 1680 200"><defs><style>.b11c5c13-0b64-4dd3-9c20-7d6369fc61c9{fill:none;stroke:#ccc;stroke-miterlimit:10;}.b87d5678-9272-49c8-af21-5afee4f9f879{fill:#f9b213;}.bee7de59-8fc1-42c9-9127-4ecab0644815,.e31a7ab9-00b9-47bc-a7bf-0aca76ae5e13{fill:#ccc;}.e31a7ab9-00b9-47bc-a7bf-0aca76ae5e13{fill-rule:evenodd;}</style></defs><title>HOOBS_x_bose_soundtouch</title><g id="a67a00f5-ef7e-4300-8602-1449fe490b18" data-name="Stroke"><line class="b11c5c13-0b64-4dd3-9c20-7d6369fc61c9" x1="700.5" y1="60" x2="700.5" y2="140"/></g><path class="b87d5678-9272-49c8-af21-5afee4f9f879" d="M154.17,41.5h-78A19.5,19.5,0,0,0,56.67,61v78a19.5,19.5,0,0,0,19.5,19.5h78a19.5,19.5,0,0,0,19.5-19.5V61A19.5,19.5,0,0,0,154.17,41.5Zm2,59.26a3.24,3.24,0,0,1-4.59,0,3.21,3.21,0,0,1-.95-2.09l-8.82-8.82V69.92a1.63,1.63,0,0,0-1.63-1.63h-3.25a1.63,1.63,0,0,0-1.62,1.63V83.6l-4.88-5.13-15-15a1.62,1.62,0,0,0-2.3,0L78.59,97.89a1.64,1.64,0,0,0,0,2.3l2.3,2.3a1.64,1.64,0,0,0,2.3,0l26.43-26.43a6.49,6.49,0,0,1,9.19,0l26.43,26.43a6.51,6.51,0,0,1,0,9.19l-2.3,2.3a6.49,6.49,0,0,1-9.19,0L115.36,95.59a1.64,1.64,0,0,0-2.3,0L94.68,114a1.62,1.62,0,0,0,0,2.3l2.3,2.29a1.61,1.61,0,0,0,2.29,0l10.35-10.34a6.49,6.49,0,0,1,9.19,0l10.34,10.34a6.51,6.51,0,0,1,0,9.2L118,138.89a3.21,3.21,0,0,1-1,2.09,3.25,3.25,0,1,1-2.5-5.54l11.12-11.12a1.62,1.62,0,0,0,0-2.3l-10.34-10.34a1.62,1.62,0,0,0-2.3,0L102.72,122a6.49,6.49,0,0,1-9.19,0l-2.3-2.3a6.49,6.49,0,0,1,0-9.19l18.39-18.38a6.49,6.49,0,0,1,9.19,0l18.38,18.38a1.64,1.64,0,0,0,2.3,0l2.3-2.3a1.64,1.64,0,0,0,0-2.3L115.36,79.51a1.62,1.62,0,0,0-2.3,0L86.63,105.93a6.49,6.49,0,0,1-9.19,0l-2.3-2.29a6.52,6.52,0,0,1,0-9.2L109.62,60a6.49,6.49,0,0,1,9.19,0l11.6,11.61V69.92a6.5,6.5,0,0,1,6.5-6.5h3.25a6.5,6.5,0,0,1,6.5,6.5V87.83l7.4,7.39a3.25,3.25,0,0,1,2.09,5.54Z"/><path class="b87d5678-9272-49c8-af21-5afee4f9f879" d="M612.42,61H624.1v3.65h-3.71v11H616.1v-11h-3.68Zm13.09,0h4.72l3.34,7.78L637,61h4.72V75.62h-3.85V67.39l-2.77,6.81h-2.92l-2.77-6.81v8.23h-3.85Z"/><path class="b87d5678-9272-49c8-af21-5afee4f9f879" d="M271.65,61v78H254.31V107h-34v32H202.92V61h17.35V91.75h34V61Zm10.65,39c0-22.41,16.77-39,39.65-39s39.64,16.48,39.64,39S344.72,139,322,139,282.3,122.41,282.3,100Zm62.09.39c0-14.19-9.63-23.9-22.44-23.9s-22.45,9.71-22.45,23.9,9.64,23.89,22.45,23.89S344.39,114.57,344.39,100.39ZM368.8,100c0-22.41,16.77-39,39.65-39s39.64,16.48,39.64,39-16.87,39-39.64,39S368.8,122.41,368.8,100Zm62.09.39c0-14.19-9.63-23.9-22.44-23.9S386,86.2,386,100.39s9.64,23.89,22.45,23.89S430.89,114.57,430.89,100.39Zm96.58,17.33c0,13.48-10.28,21.28-30,21.28H458.74V61h36.61c18.74,0,28.38,8.13,28.38,20.28a18.86,18.86,0,0,1-10,17.16C522.12,101.23,527.47,107.91,527.47,117.72ZM476.71,76.06V93.67h16.5c8.1,0,12.5-3,12.5-8.86s-4.4-8.75-12.5-8.75Zm32.59,39.47c0-6.29-4.61-9.28-13.22-9.28H476.71v18.46h19.37C504.69,124.71,509.3,121.93,509.3,115.53Zm23.38,14.74,5.69-13.14A41.52,41.52,0,0,0,562.28,125c9.94,0,14-3.44,14-8.08,0-14.11-42.13-4.41-42.13-32.42,0-12.82,9.94-23.49,30.53-23.49,9.11,0,18.43,2.26,25.16,6.68l-5.18,13.25A39.67,39.67,0,0,0,564.56,75c-9.94,0-13.77,3.87-13.77,8.61,0,13.9,42.13,4.31,42.13,32,0,12.61-10,23.38-30.74,23.38C550.69,139,539.1,135.44,532.68,130.27Z"/><path class="e31a7ab9-00b9-47bc-a7bf-0aca76ae5e13" d="M1120.12,130.75l35.27-60h118.17v9.9h-88.64l-8.76,15.13H1223l-5.64,9.9h-47l-9,15.13h47l-5.89,9.94Zm-84.83-15.63h35.47c-1.19,1.73-1.74,3.47-1,4.55,1.28,1.93,5.83,1,7,.6a8.09,8.09,0,0,0,4.8-4.21l5.93-10.38h-36.15c-7.57,0-7.82-4.51-4.75-9.9l11.13-18.89c3.31-5.44,7.76-6.14,13.45-6.14h62.87c6.38,0,6.38,5.2,3.81,9.9L1134.32,87h-35.67c1.09-2.08,1.14-3.91.3-5-1.38-1.88-5-1.48-7-.49a11.66,11.66,0,0,0-4.21,4.6l-5.69,9.69h35c7.37,0,8.5,5.4,6.18,9.9l-10.64,17.75a15.38,15.38,0,0,1-13.5,7.32h-62.42c-6.14,0-8.26-4-5.64-8.5l4.25-7.13ZM960.6,80.65c5.69-9.9,15.14-9.9,22.46-9.9h53.42c5.64,0,10.39,4.7,7.32,9.9l-23.6,40.16c-5,8-9,9.94-15.38,9.94H942.64c-6.13,0-8.95-4.5-5.63-9.94Zm31,5.44-18,30a3.39,3.39,0,0,0-.5,2.87c1.14,2.48,8.12,2,10.54,1.54,3.46-.8,4.35-3.27,5.09-4.41l17.76-30c1.24-2.13,1.09-3.51,0-4.35-1.58-1.24-6.43-1.34-9.1-.6-2.27.64-4.15,2.08-5.79,5ZM874.33,70.75h68.56c5.44,0,9.7,5,6.14,10.89l-7.08,12c-3.07,5.44-8.26,8-12.07,8,3.81,2.13,3.81,5.88,1.88,9.2l-7.07,12.32c-1.88,3.31-4.75,7.56-13.46,7.56H779.51v-9.94H844.8Zm20.58,25h17.46a6.67,6.67,0,0,0,6.63-4l3.56-5.69c1.44-2.57,1.44-5.44-1.63-5.44H903.86Zm-14.89,25h17.46a6.68,6.68,0,0,0,6.63-4l3.56-5.69c1.44-2.62,1.44-5.44-1.68-5.44H889ZM1269,92.67a5,5,0,1,1,0-10,5,5,0,1,1,0,10Zm-4.06-5a4,4,0,1,0,4.06-4.15A4,4,0,0,0,1264.9,87.67Zm3,.4v2.47H1267V84.8h2.18c1.38,0,2,.5,2,1.63a1.49,1.49,0,0,1-1.48,1.59l1.63,2.52h-1l-1.48-2.47Zm0-.75h1c.74,0,1.39,0,1.39-.94,0-.69-.65-.84-1.24-.84h-1.19Z"/><path class="bee7de59-8fc1-42c9-9127-4ecab0644815" d="M1522.2,64.93l11.85-6.85c.24.39.45.72.64,1.05q21.45,37.17,42.88,74.35c4.51,7.81,2.78,16.77-4.31,22.73-9.4,7.89-24.53,8-34,.22-10.21-8.36-9.24-22.39,2.08-29.7a26.74,26.74,0,0,1,12.92-4.15l1.16-.09C1544.32,103.27,1533.3,84.17,1522.2,64.93Z"/><path class="bee7de59-8fc1-42c9-9127-4ecab0644815" d="M1548.3,67.29l-7.62-13.22c33-15.83,65.77-15.84,98.83,0-2.63,4.55-5.13,8.9-7.62,13.22C1604,54.09,1576.22,54.09,1548.3,67.29Z"/><path class="bee7de59-8fc1-42c9-9127-4ecab0644815" d="M1626.21,77.13l-7.61,13.19c-19-8.56-37.93-8.57-57,0l-7.65-13.25a80.83,80.83,0,0,1,72.27.06Z"/><path class="bee7de59-8fc1-42c9-9127-4ecab0644815" d="M1605.2,113.55a39.66,39.66,0,0,0-30.21,0l-7.73-13.39c15.24-6.59,30.34-6.59,45.67,0Z"/><path class="bee7de59-8fc1-42c9-9127-4ecab0644815" d="M1324.49,82.16q-6-1.5-8.78-3.67a6.6,6.6,0,0,1-2.75-5.36,7.08,7.08,0,0,1,3.36-6,14.89,14.89,0,0,1,8.73-2.36,16.6,16.6,0,0,1,6.53,1.22,10.37,10.37,0,0,1,4.44,3.36,7.75,7.75,0,0,1,1.58,4.68h-4.72a5.22,5.22,0,0,0-2.05-4.37,9.22,9.22,0,0,0-5.78-1.59,9.61,9.61,0,0,0-5.41,1.31,4.17,4.17,0,0,0-1.94,3.65,3.78,3.78,0,0,0,1.84,3.17,19.57,19.57,0,0,0,6.28,2.36,32.35,32.35,0,0,1,6.93,2.37,9.93,9.93,0,0,1,3.71,3,7.1,7.1,0,0,1-2.16,10q-3.37,2.23-9,2.23a19.12,19.12,0,0,1-6.83-1.2,11.45,11.45,0,0,1-4.9-3.31,7.31,7.31,0,0,1-1.72-4.77h4.71a5,5,0,0,0,2.38,4.38,11.22,11.22,0,0,0,6.36,1.61,10.44,10.44,0,0,0,5.69-1.3,4.06,4.06,0,0,0,2-3.55,4,4,0,0,0-1.83-3.48A22.81,22.81,0,0,0,1324.49,82.16Z"/><path class="bee7de59-8fc1-42c9-9127-4ecab0644815" d="M1344.67,84.21a11.85,11.85,0,0,1,1.53-6,10.41,10.41,0,0,1,4.25-4.12,13.05,13.05,0,0,1,6.21-1.44,12.08,12.08,0,0,1,8.73,3.21,11.32,11.32,0,0,1,3.33,8.54v.28a11.91,11.91,0,0,1-1.48,5.95,10.23,10.23,0,0,1-4.22,4.1,13.18,13.18,0,0,1-6.31,1.47A12,12,0,0,1,1348,93a11.27,11.27,0,0,1-3.33-8.5Zm4.54.47a8.77,8.77,0,0,0,2,6.06,7.63,7.63,0,0,0,10.93,0,9.55,9.55,0,0,0,2-6.5,8.77,8.77,0,0,0-2.06-6,7.58,7.58,0,0,0-10.88,0A9.55,9.55,0,0,0,1349.21,84.68Z"/><path class="bee7de59-8fc1-42c9-9127-4ecab0644815" d="M1393.59,93.54q-2.64,2.65-7.74,2.66c-2.81,0-5-.7-6.43-2.11s-2.22-3.49-2.24-6.24V73.07h4.52V87.74q0,5.17,4.88,5.17,5.18,0,6.89-3.32V73.07H1398V95.78h-4.3Z"/><path class="bee7de59-8fc1-42c9-9127-4ecab0644815" d="M1412,73.07l.15,2.85a10.26,10.26,0,0,1,7.91-3.27q8.37,0,8.44,8.12v15H1424v-15a4.78,4.78,0,0,0-1.31-3.63,5.73,5.73,0,0,0-4-1.18,7.31,7.31,0,0,0-3.86,1,7.15,7.15,0,0,0-2.59,2.65V95.78h-4.51V73.07Z"/><path class="bee7de59-8fc1-42c9-9127-4ecab0644815" d="M1437.13,84.23a12,12,0,0,1,2.89-8.4,9.69,9.69,0,0,1,7.54-3.18,9.93,9.93,0,0,1,7.35,2.72V63.53h4.51V95.78h-4.15l-.22-2.43a9.9,9.9,0,0,1-7.54,2.85A9.59,9.59,0,0,1,1440,93a12.19,12.19,0,0,1-2.9-8.44Zm4.52.45a9,9,0,0,0,1.86,6,6.34,6.34,0,0,0,5.12,2.19,6.78,6.78,0,0,0,6.28-3.32V79.15a6.85,6.85,0,0,0-6.23-3.21,6.38,6.38,0,0,0-5.17,2.21C1442.27,79.62,1441.65,81.79,1441.65,84.68Z"/><path class="bee7de59-8fc1-42c9-9127-4ecab0644815" d="M1338.57,108.51h-11.42v27.27h-4.67V108.51h-11.4v-3.3h27.49Z"/><path class="bee7de59-8fc1-42c9-9127-4ecab0644815" d="M1342.42,124.21a11.85,11.85,0,0,1,1.53-6,10.47,10.47,0,0,1,4.25-4.12,13.05,13.05,0,0,1,6.21-1.44,12.05,12.05,0,0,1,8.73,3.21,11.32,11.32,0,0,1,3.33,8.54v.28a12,12,0,0,1-1.47,5.95,10.32,10.32,0,0,1-4.23,4.1,13.15,13.15,0,0,1-6.31,1.47,12,12,0,0,1-8.7-3.21,11.28,11.28,0,0,1-3.34-8.5Zm4.55.47a8.81,8.81,0,0,0,2,6.06,7.63,7.63,0,0,0,10.93,0,9.55,9.55,0,0,0,2-6.5,8.73,8.73,0,0,0-2.07-6,7.57,7.57,0,0,0-10.87,0C1347.65,119.65,1347,121.83,1347,124.68Z"/><path class="bee7de59-8fc1-42c9-9127-4ecab0644815" d="M1391.34,133.54q-2.62,2.66-7.73,2.66c-2.82,0-5-.7-6.44-2.11s-2.22-3.49-2.23-6.24V113.07h4.52v14.67c0,3.45,1.62,5.17,4.88,5.17q5.17,0,6.88-3.32V113.07h4.52v22.71h-4.3Z"/><path class="bee7de59-8fc1-42c9-9127-4ecab0644815" d="M1416.1,133a7.2,7.2,0,0,0,4.22-1.26,4.32,4.32,0,0,0,2-3.15h4.27a6.45,6.45,0,0,1-1.56,3.72,10,10,0,0,1-3.84,2.81,12.61,12.61,0,0,1-5.09,1,11.83,11.83,0,0,1-8.59-3.09,11.3,11.3,0,0,1-3.18-8.48V124a12.11,12.11,0,0,1,1.41-5.9,10,10,0,0,1,4.07-4,13,13,0,0,1,6.26-1.42,11.71,11.71,0,0,1,7.39,2.28,7.76,7.76,0,0,1,3.13,5.95h-4.27a5.11,5.11,0,0,0-1.94-3.63,6.63,6.63,0,0,0-4.31-1.41,6.76,6.76,0,0,0-5.33,2.13,9,9,0,0,0-1.9,6.16v.73a8.84,8.84,0,0,0,1.88,6A6.8,6.8,0,0,0,1416.1,133Z"/><path class="bee7de59-8fc1-42c9-9127-4ecab0644815" d="M1439.09,115.82a10.23,10.23,0,0,1,7.81-3.17q8.37,0,8.45,8.12v15h-4.52v-15a4.75,4.75,0,0,0-1.31-3.63,5.71,5.71,0,0,0-4-1.18,7.27,7.27,0,0,0-3.85,1,7.15,7.15,0,0,0-2.59,2.65v16.18h-4.52V103.53h4.52Z"/></svg>