<svg id="a6f6102f-7164-46a1-a94d-8866db2483d8" data-name="Ebene 1" xmlns="http://www.w3.org/2000/svg" viewBox="0 0 1680 200"><defs><style>.bb2c1a13-84e9-48a6-868d-3190cdd35ad9{fill:#ccc;}.a0982840-bcd6-4a3f-9e8f-6ab1cbedc9ed{fill:none;stroke:#ccc;stroke-miterlimit:10;}.faf2bb04-9186-41c8-adea-d9224a1300f6{fill:#f9b213;}</style></defs><title>HOOBS_x_delayswitch</title><path class="bb2c1a13-84e9-48a6-868d-3190cdd35ad9" d="M779.49,40h72V76h0l-24,24,24,24h0v36h-72V124h0l24-24-24-24h0V40m60,87-24-24-24,24v21h48V127m-24-30,24-24V52h-48V73l24,24m-12-33h24v4.5l-12,12-12-12Z"/><path class="bb2c1a13-84e9-48a6-868d-3190cdd35ad9" d="M982.55,40H892.67a15.07,15.07,0,0,0-15.06,15v89.92A15.08,15.08,0,0,0,892.67,160h89.88a15.08,15.08,0,0,0,15.06-15.07V55.06A15.07,15.07,0,0,0,982.55,40Zm11.06,105a11.09,11.09,0,0,1-11.06,11.07H892.67A11.07,11.07,0,0,1,881.61,145V55.06a11.08,11.08,0,0,1,11.06-11h89.88a11.08,11.08,0,0,1,11.06,11Z"/><path class="bb2c1a13-84e9-48a6-868d-3190cdd35ad9" d="M965.61,52h-56a22,22,0,0,0,0,44h56a22,22,0,0,0,0-44ZM953,56a22,22,0,0,0,0,36H909.61a18,18,0,0,1,0-36m56,36a18,18,0,1,1,18-18h0A18,18,0,0,1,965.61,92Z"/><path class="bb2c1a13-84e9-48a6-868d-3190cdd35ad9" d="M965.61,104h-56a22,22,0,0,0,0,44h56a22,22,0,0,0,0-44Zm-74,22a18,18,0,1,1,18,18h0A18,18,0,0,1,891.61,126Z"/><g id="a35e5d7a-a762-4ef6-a59d-33639e09e071" data-name="Stroke"><line class="a0982840-bcd6-4a3f-9e8f-6ab1cbedc9ed" x1="700.5" y1="60" x2="700.5" y2="140"/></g><path class="faf2bb04-9186-41c8-adea-d9224a1300f6" d="M154.17,41.5h-78A19.5,19.5,0,0,0,56.67,61v78a19.5,19.5,0,0,0,19.5,19.5h78a19.5,19.5,0,0,0,19.5-19.5V61A19.5,19.5,0,0,0,154.17,41.5Zm2,59.26a3.24,3.24,0,0,1-4.59,0,3.21,3.21,0,0,1-.95-2.09l-8.82-8.82V69.92a1.63,1.63,0,0,0-1.63-1.63h-3.25a1.63,1.63,0,0,0-1.62,1.63V83.6l-4.88-5.13-15-15a1.62,1.62,0,0,0-2.3,0L78.59,97.89a1.64,1.64,0,0,0,0,2.3l2.3,2.3a1.64,1.64,0,0,0,2.3,0l26.43-26.43a6.49,6.49,0,0,1,9.19,0l26.43,26.43a6.51,6.51,0,0,1,0,9.19l-2.3,2.3a6.49,6.49,0,0,1-9.19,0L115.36,95.59a1.64,1.64,0,0,0-2.3,0L94.68,114a1.62,1.62,0,0,0,0,2.3l2.3,2.29a1.61,1.61,0,0,0,2.29,0l10.35-10.34a6.49,6.49,0,0,1,9.19,0l10.34,10.34a6.51,6.51,0,0,1,0,9.2L118,138.89a3.21,3.21,0,0,1-1,2.09,3.25,3.25,0,1,1-2.5-5.54l11.12-11.12a1.62,1.62,0,0,0,0-2.3l-10.34-10.34a1.62,1.62,0,0,0-2.3,0L102.72,122a6.49,6.49,0,0,1-9.19,0l-2.3-2.3a6.49,6.49,0,0,1,0-9.19l18.39-18.38a6.49,6.49,0,0,1,9.19,0l18.38,18.38a1.64,1.64,0,0,0,2.3,0l2.3-2.3a1.64,1.64,0,0,0,0-2.3L115.36,79.51a1.62,1.62,0,0,0-2.3,0L86.63,105.93a6.49,6.49,0,0,1-9.19,0l-2.3-2.29a6.52,6.52,0,0,1,0-9.2L109.62,60a6.49,6.49,0,0,1,9.19,0l11.6,11.61V69.92a6.5,6.5,0,0,1,6.5-6.5h3.25a6.5,6.5,0,0,1,6.5,6.5V87.83l7.4,7.39a3.25,3.25,0,0,1,2.09,5.54Z"/><path class="faf2bb04-9186-41c8-adea-d9224a1300f6" d="M612.42,61H624.1v3.65h-3.71v11H616.1v-11h-3.68Zm13.09,0h4.72l3.34,7.78L637,61h4.72V75.62h-3.85V67.39l-2.77,6.81h-2.92l-2.77-6.81v8.23h-3.85Z"/><path class="faf2bb04-9186-41c8-adea-d9224a1300f6" d="M271.65,61v78H254.31V107h-34v32H202.92V61h17.35V91.75h34V61Zm10.65,39c0-22.41,16.77-39,39.65-39s39.64,16.48,39.64,39S344.72,139,322,139,282.3,122.41,282.3,100Zm62.09.39c0-14.19-9.63-23.9-22.44-23.9s-22.45,9.71-22.45,23.9,9.64,23.89,22.45,23.89S344.39,114.57,344.39,100.39ZM368.8,100c0-22.41,16.77-39,39.65-39s39.64,16.48,39.64,39-16.87,39-39.64,39S368.8,122.41,368.8,100Zm62.09.39c0-14.19-9.63-23.9-22.44-23.9S386,86.2,386,100.39s9.64,23.89,22.45,23.89S430.89,114.57,430.89,100.39Zm96.58,17.33c0,13.48-10.28,21.28-30,21.28H458.74V61h36.61c18.74,0,28.38,8.13,28.38,20.28a18.86,18.86,0,0,1-10,17.16C522.12,101.23,527.47,107.91,527.47,117.72ZM476.71,76.06V93.67h16.5c8.1,0,12.5-3,12.5-8.86s-4.4-8.75-12.5-8.75Zm32.59,39.47c0-6.29-4.61-9.28-13.22-9.28H476.71v18.46h19.37C504.69,124.71,509.3,121.93,509.3,115.53Zm23.38,14.74,5.69-13.14A41.52,41.52,0,0,0,562.28,125c9.94,0,14-3.44,14-8.08,0-14.11-42.13-4.41-42.13-32.42,0-12.82,9.94-23.49,30.53-23.49,9.11,0,18.43,2.26,25.16,6.68l-5.18,13.25A39.67,39.67,0,0,0,564.56,75c-9.94,0-13.77,3.87-13.77,8.61,0,13.9,42.13,4.31,42.13,32,0,12.61-10,23.38-30.74,23.38C550.69,139,539.1,135.44,532.68,130.27Z"/><path class="bb2c1a13-84e9-48a6-868d-3190cdd35ad9" d="M1029,83.69V46h10.64a17.12,17.12,0,0,1,8.69,2.17,14.68,14.68,0,0,1,5.84,6.19,20.15,20.15,0,0,1,2.08,9.21V66a20.24,20.24,0,0,1-2.06,9.34,14.49,14.49,0,0,1-5.87,6.16,18.32,18.32,0,0,1-8.89,2.2Zm5-33.62V79.62h5.23q5.74,0,8.94-3.57t3.19-10.18v-2.2q0-6.42-3-10t-8.55-3.61Z"/><path class="bb2c1a13-84e9-48a6-868d-3190cdd35ad9" d="M1085.07,66.27h-16.33V79.62h19v4.07h-23.93V46h23.68v4.06h-18.72V62.21h16.33Z"/><path class="bb2c1a13-84e9-48a6-868d-3190cdd35ad9" d="M1098.89,79.62h17.86v4.07H1093.9V46h5Z"/><path class="bb2c1a13-84e9-48a6-868d-3190cdd35ad9" d="M1143.71,73.83h-15.78l-3.55,9.86h-5.12L1133.65,46H1138l14.41,37.68h-5.1Zm-14.28-4.07h12.81l-6.42-17.62Z"/><path class="bb2c1a13-84e9-48a6-868d-3190cdd35ad9" d="M1166.54,64.93,1176.37,46H1182l-13,23.62V83.69h-5V69.63l-13-23.62h5.69Z"/><path class="bb2c1a13-84e9-48a6-868d-3190cdd35ad9" d="M1040.12,130.49q-6.39-1.83-9.3-4.51a8.64,8.64,0,0,1-2.91-6.62,9.1,9.1,0,0,1,3.56-7.36,14.13,14.13,0,0,1,9.25-2.91,15.47,15.47,0,0,1,6.92,1.5,11.34,11.34,0,0,1,4.71,4.14,10.6,10.6,0,0,1,1.67,5.77h-5a6.9,6.9,0,0,0-2.17-5.39,8.87,8.87,0,0,0-6.13-2,9,9,0,0,0-5.73,1.62,5.39,5.39,0,0,0-2.06,4.5,4.86,4.86,0,0,0,2,3.9,19,19,0,0,0,6.65,2.92,30.91,30.91,0,0,1,7.35,2.91,11.17,11.17,0,0,1,3.94,3.72,9.5,9.5,0,0,1,1.28,5,8.81,8.81,0,0,1-3.57,7.34q-3.58,2.76-9.55,2.75a17.74,17.74,0,0,1-7.25-1.48,12.27,12.27,0,0,1-5.19-4.08,10,10,0,0,1-1.82-5.87h5a6.49,6.49,0,0,0,2.52,5.39,10.65,10.65,0,0,0,6.75,2,9.78,9.78,0,0,0,6-1.6,5.23,5.23,0,0,0,2.09-4.38,5.1,5.1,0,0,0-1.94-4.28Q1045.22,132,1040.12,130.49Z"/><path class="bb2c1a13-84e9-48a6-868d-3190cdd35ad9" d="M1068.59,135.41l.72,5,1.07-4.48,7.45-26.29H1082l7.27,26.29,1,4.55.8-5.07,5.85-25.77h5l-9.13,37.68h-4.53l-7.77-27.46L1080,117l-.59,2.87-8,27.46h-4.53l-9.11-37.68h5Z"/><path class="bb2c1a13-84e9-48a6-868d-3190cdd35ad9" d="M1112.82,147.29h-5V109.61h5Z"/><path class="bb2c1a13-84e9-48a6-868d-3190cdd35ad9" d="M1147.18,113.67h-12.11v33.62h-4.94V113.67H1118v-4.06h29.14Z"/><path class="bb2c1a13-84e9-48a6-868d-3190cdd35ad9" d="M1179.76,135.33a13.83,13.83,0,0,1-4.41,9.23c-2.47,2.16-5.77,3.24-9.87,3.24a13.27,13.27,0,0,1-10.7-4.78c-2.68-3.2-4-7.46-4-12.81v-3.63a21.43,21.43,0,0,1,1.88-9.23,14,14,0,0,1,5.32-6.13,14.82,14.82,0,0,1,8-2.13,13.65,13.65,0,0,1,9.63,3.35,14,14,0,0,1,4.21,9.28h-5q-.64-4.52-2.81-6.54a8.48,8.48,0,0,0-6-2,8.91,8.91,0,0,0-7.47,3.53c-1.8,2.34-2.7,5.69-2.7,10v3.65q0,6.14,2.56,9.77a8.3,8.3,0,0,0,7.17,3.62q4.14,0,6.35-1.87t2.94-6.54Z"/><path class="bb2c1a13-84e9-48a6-868d-3190cdd35ad9" d="M1215.5,147.29h-5V129.87h-19v17.42h-5V109.61h5v16.2h19v-16.2h5Z"/></svg>