<svg id="a43188bc-d70f-46a7-a2f5-db033962468f" data-name="Ebene 1" xmlns="http://www.w3.org/2000/svg" viewBox="0 0 1680 200"><defs><style>.b244383c-e526-4256-a725-650b4254a104{fill:none;stroke:#ccc;stroke-miterlimit:10;}.f9168aa5-dea5-44f2-8bfc-211463cb36c3{fill:#f9b213;}.ac588bc1-de91-4d06-b545-1e4cf43a11d4{fill:#ccc;}.ac588bc1-de91-4d06-b545-1e4cf43a11d4,.e6903917-d08c-49ef-b8ef-f1db91004d04{fill-rule:evenodd;}.e6903917-d08c-49ef-b8ef-f1db91004d04{fill:#31afe1;}</style></defs><title>HOOBS_x_kodi</title><g id="ab973045-5950-421f-9f97-1c4da3e6e1c2" data-name="Stroke"><line class="b244383c-e526-4256-a725-650b4254a104" x1="700.5" y1="60" x2="700.5" y2="140"/></g><path class="f9168aa5-dea5-44f2-8bfc-211463cb36c3" d="M154.17,41.5h-78A19.5,19.5,0,0,0,56.67,61v78a19.5,19.5,0,0,0,19.5,19.5h78a19.5,19.5,0,0,0,19.5-19.5V61A19.5,19.5,0,0,0,154.17,41.5Zm2,59.26a3.24,3.24,0,0,1-4.59,0,3.21,3.21,0,0,1-.95-2.09l-8.82-8.82V69.92a1.63,1.63,0,0,0-1.63-1.63h-3.25a1.63,1.63,0,0,0-1.62,1.63V83.6l-4.88-5.13-15-15a1.62,1.62,0,0,0-2.3,0L78.59,97.89a1.64,1.64,0,0,0,0,2.3l2.3,2.3a1.64,1.64,0,0,0,2.3,0l26.43-26.43a6.49,6.49,0,0,1,9.19,0l26.43,26.43a6.51,6.51,0,0,1,0,9.19l-2.3,2.3a6.49,6.49,0,0,1-9.19,0L115.36,95.59a1.64,1.64,0,0,0-2.3,0L94.68,114a1.62,1.62,0,0,0,0,2.3l2.3,2.29a1.61,1.61,0,0,0,2.29,0l10.35-10.34a6.49,6.49,0,0,1,9.19,0l10.34,10.34a6.51,6.51,0,0,1,0,9.2L118,138.89a3.21,3.21,0,0,1-1,2.09,3.25,3.25,0,1,1-2.5-5.54l11.12-11.12a1.62,1.62,0,0,0,0-2.3l-10.34-10.34a1.62,1.62,0,0,0-2.3,0L102.72,122a6.49,6.49,0,0,1-9.19,0l-2.3-2.3a6.49,6.49,0,0,1,0-9.19l18.39-18.38a6.49,6.49,0,0,1,9.19,0l18.38,18.38a1.64,1.64,0,0,0,2.3,0l2.3-2.3a1.64,1.64,0,0,0,0-2.3L115.36,79.51a1.62,1.62,0,0,0-2.3,0L86.63,105.93a6.49,6.49,0,0,1-9.19,0l-2.3-2.29a6.52,6.52,0,0,1,0-9.2L109.62,60a6.49,6.49,0,0,1,9.19,0l11.6,11.61V69.92a6.5,6.5,0,0,1,6.5-6.5h3.25a6.5,6.5,0,0,1,6.5,6.5V87.83l7.4,7.39a3.25,3.25,0,0,1,2.09,5.54Z"/><path class="f9168aa5-dea5-44f2-8bfc-211463cb36c3" d="M612.42,61H624.1v3.65h-3.71v11H616.1v-11h-3.68Zm13.09,0h4.72l3.34,7.78L637,61h4.72V75.62h-3.85V67.39l-2.77,6.81h-2.92l-2.77-6.81v8.23h-3.85Z"/><path class="f9168aa5-dea5-44f2-8bfc-211463cb36c3" d="M271.65,61v78H254.31V107h-34v32H202.92V61h17.35V91.75h34V61Zm10.65,39c0-22.41,16.77-39,39.65-39s39.64,16.48,39.64,39S344.72,139,322,139,282.3,122.41,282.3,100Zm62.09.39c0-14.19-9.63-23.9-22.44-23.9s-22.45,9.71-22.45,23.9,9.64,23.89,22.45,23.89S344.39,114.57,344.39,100.39ZM368.8,100c0-22.41,16.77-39,39.65-39s39.64,16.48,39.64,39-16.87,39-39.64,39S368.8,122.41,368.8,100Zm62.09.39c0-14.19-9.63-23.9-22.44-23.9S386,86.2,386,100.39s9.64,23.89,22.45,23.89S430.89,114.57,430.89,100.39Zm96.58,17.33c0,13.48-10.28,21.28-30,21.28H458.74V61h36.61c18.74,0,28.38,8.13,28.38,20.28a18.86,18.86,0,0,1-10,17.16C522.12,101.23,527.47,107.91,527.47,117.72ZM476.71,76.06V93.67h16.5c8.1,0,12.5-3,12.5-8.86s-4.4-8.75-12.5-8.75Zm32.59,39.47c0-6.29-4.61-9.28-13.22-9.28H476.71v18.46h19.37C504.69,124.71,509.3,121.93,509.3,115.53Zm23.38,14.74,5.69-13.14A41.52,41.52,0,0,0,562.28,125c9.94,0,14-3.44,14-8.08,0-14.11-42.13-4.41-42.13-32.42,0-12.82,9.94-23.49,30.53-23.49,9.11,0,18.43,2.26,25.16,6.68l-5.18,13.25A39.67,39.67,0,0,0,564.56,75c-9.94,0-13.77,3.87-13.77,8.61,0,13.9,42.13,4.31,42.13,32,0,12.61-10,23.38-30.74,23.38C550.69,139,539.1,135.44,532.68,130.27Z"/><path class="ac588bc1-de91-4d06-b545-1e4cf43a11d4" d="M996.24,67.32l1.54.1a28.19,28.19,0,0,1,11.16,3,26.66,26.66,0,0,1,6.7,5,26.92,26.92,0,0,1,7.4,13.72,31.88,31.88,0,0,1,.65,8.15,28.77,28.77,0,0,1-3.23,12.52,27.84,27.84,0,0,1-5.57,7.24,25.93,25.93,0,0,1-12.66,6.64,30.08,30.08,0,0,1-5.43.67l-.25,0H994.4l-1.41-.1a26.79,26.79,0,0,1-15.16-5.66,27.17,27.17,0,0,1-10.13-16.76,32.16,32.16,0,0,1-.5-7.65A27.74,27.74,0,0,1,972,79.29,26.67,26.67,0,0,1,986.7,68.53a29.14,29.14,0,0,1,5.78-1.07l1.87-.11c.1,0,.2,0,.3,0Zm-.85,49.74a25,25,0,0,0,5.82-.65,19,19,0,0,0,10.27-6.42,20.27,20.27,0,0,0,4.62-11.48,29.48,29.48,0,0,0,.07-4.41,23.65,23.65,0,0,0-.73-4.72,19.66,19.66,0,0,0-8.2-11.46,19.88,19.88,0,0,0-10.31-3.21,26.64,26.64,0,0,0-6,.35,19,19,0,0,0-9.29,4.43,19.59,19.59,0,0,0-5.65,8.3,23.56,23.56,0,0,0-1.27,7.62,25.83,25.83,0,0,0,.55,6,19.81,19.81,0,0,0,4.91,9.4,19.09,19.09,0,0,0,7.9,5.11,23.5,23.5,0,0,0,7.36,1.13"/><path class="ac588bc1-de91-4d06-b545-1e4cf43a11d4" d="M1097.67,123.11c-.21.51-.37.62-1,.62h-5.64c-.67,0-.91-.25-.91-.92V68.92c0-.69.24-.93.94-.93,1.89,0,3.77,0,5.65,0a1.39,1.39,0,0,1,.68.21c.12.08.16.29.23.44v54.46Z"/><path class="ac588bc1-de91-4d06-b545-1e4cf43a11d4" d="M944.17,90.59,947,94.36l6,7.94,7.69,10.23,7.54,10a.71.71,0,0,1,.14.78.75.75,0,0,1-.7.4h-.41c-2.32,0-4.64,0-7,0a1.08,1.08,0,0,1-.94-.46q-6.55-8.77-13.13-17.52l-7.47-10-.08-.09-.9.84-6,5.66-3.34,3.11a.55.55,0,0,0-.21.46q0,8.48,0,16.94v.2a.73.73,0,0,1-.8.8h-5.93a.72.72,0,0,1-.77-.79v-54c0-.68.24-.93.92-.93h5.77a.74.74,0,0,1,.81.8V95.46l1.25-1.18,7.15-6.7L946,78.79l7.86-7.37,3.31-3.11a1.1,1.1,0,0,1,.8-.32h8.29c.47,0,.74.17.84.52a.68.68,0,0,1-.23.71l-2.41,2.28-4.25,4-5.9,5.56-6,5.71-4.05,3.81"/><path class="ac588bc1-de91-4d06-b545-1e4cf43a11d4" d="M1032.27,95.86V68.79a.72.72,0,0,1,.77-.8h.1c7.67,0,15.35,0,23,0a24.79,24.79,0,0,1,10.13,2.24,24,24,0,0,1,7.41,5.2,26.43,26.43,0,0,1,6.93,12.67,34,34,0,0,1,.87,8.52,31.06,31.06,0,0,1-2.21,11.19,26,26,0,0,1-5.18,8,24.35,24.35,0,0,1-12.3,7.17,26.94,26.94,0,0,1-6.32.72q-11.16,0-22.31,0l-.38,0a.56.56,0,0,1-.49-.48,2.18,2.18,0,0,1,0-.44V95.86m7.51,20.69h.33c5,0,10,0,15,0,.89,0,1.79,0,2.68-.11a15.61,15.61,0,0,0,5.32-1.42,16.74,16.74,0,0,0,5.67-4.31,20.38,20.38,0,0,0,3.54-5.67,22.3,22.3,0,0,0,1.61-6.93,28.47,28.47,0,0,0-.23-6.52,20.59,20.59,0,0,0-2.51-7.21,19.09,19.09,0,0,0-5.63-6.29,16.32,16.32,0,0,0-9.46-2.92c-5.34,0-10.69,0-16,0h-.27v41.39Z"/><path class="e6903917-d08c-49ef-b8ef-f1db91004d04" d="M899.91,96.68a7.59,7.59,0,0,1-2.15,3.1q-9.16,9.14-18.3,18.3c-2.19,2.2-4.54,2.19-6.75,0L853.83,99.17c-2.14-2.15-2.14-4.49,0-6.64l19-19a4.23,4.23,0,0,1,6.54,0q9.21,9.19,18.41,18.4a7.57,7.57,0,0,1,2.14,3.1v1.65Z"/><path class="e6903917-d08c-49ef-b8ef-f1db91004d04" d="M839.26,155.69a7.69,7.69,0,0,1-3.07-2.18q-9.13-9.18-18.29-18.32c-2.18-2.18-2.18-4.51,0-6.69l18.93-19c2.1-2.09,4.5-2.1,6.59,0l18.93,18.94c2.16,2.17,2.17,4.55,0,6.71q-9.23,9.24-18.44,18.47a7,7,0,0,1-3,2Z"/><path class="e6903917-d08c-49ef-b8ef-f1db91004d04" d="M817.11,80.72c0-7,.07-14,0-21.06a5.86,5.86,0,0,1,2-5c1.25-1.08,2.35-2.32,3.52-3.49l13.88-13.89c2.18-2.18,4.52-2.18,6.7,0l18.88,18.89c2.16,2.16,2.16,4.54,0,6.71L839.73,85.27,820,105c-1.22,1.21-2.3.93-2.74-.76a6.35,6.35,0,0,1-.15-1.63q0-11,0-21.9"/><path class="e6903917-d08c-49ef-b8ef-f1db91004d04" d="M802.06,95.94c0,6.44,0,12.89,0,19.33a5.19,5.19,0,0,1-.32,1.83c-.43,1.12-1.24,1.26-2.08.41-3-3-5.92-5.92-8.88-8.88L780.51,98.35a3.26,3.26,0,0,1,0-4.81l18.89-19.09c.41-.43.81-1,1.51-.73a1.74,1.74,0,0,1,1,1.54,9.07,9.07,0,0,1,.11,1.27q0,9.7,0,19.41Z"/></svg>