<svg id="fad552a9-73b4-4af0-9779-ab5b76b57986" data-name="Ebene 1" xmlns="http://www.w3.org/2000/svg" viewBox="0 0 1680 200"><defs><style>.e363ae8b-784b-4caf-80e8-50a2a0dfe757{fill:none;stroke:#ccc;stroke-miterlimit:10;}.b24e0816-305c-4598-8c14-747165a135c4{fill:#f9b213;}.e9ed7dfd-639c-4d21-a257-115c4743481d{fill:#c30036;}.abb32f64-4678-409c-9376-09e00501e6ed{fill:#747a7e;}.aea9fc5e-5254-49fc-a7bf-5bab9dd34168{fill:#757b7e;}</style></defs><title>HOOBS_x_webos</title><g id="a22728d9-4691-49b6-a481-16eb73678885" data-name="Stroke"><line class="e363ae8b-784b-4caf-80e8-50a2a0dfe757" x1="700.5" y1="60" x2="700.5" y2="140"/></g><path class="b24e0816-305c-4598-8c14-747165a135c4" d="M154.17,41.5h-78A19.5,19.5,0,0,0,56.67,61v78a19.5,19.5,0,0,0,19.5,19.5h78a19.5,19.5,0,0,0,19.5-19.5V61A19.5,19.5,0,0,0,154.17,41.5Zm2,59.26a3.24,3.24,0,0,1-4.59,0,3.21,3.21,0,0,1-.95-2.09l-8.82-8.82V69.92a1.63,1.63,0,0,0-1.63-1.63h-3.25a1.63,1.63,0,0,0-1.62,1.63V83.6l-4.88-5.13-15-15a1.62,1.62,0,0,0-2.3,0L78.59,97.89a1.64,1.64,0,0,0,0,2.3l2.3,2.3a1.64,1.64,0,0,0,2.3,0l26.43-26.43a6.49,6.49,0,0,1,9.19,0l26.43,26.43a6.51,6.51,0,0,1,0,9.19l-2.3,2.3a6.49,6.49,0,0,1-9.19,0L115.36,95.59a1.64,1.64,0,0,0-2.3,0L94.68,114a1.62,1.62,0,0,0,0,2.3l2.3,2.29a1.61,1.61,0,0,0,2.29,0l10.35-10.34a6.49,6.49,0,0,1,9.19,0l10.34,10.34a6.51,6.51,0,0,1,0,9.2L118,138.89a3.21,3.21,0,0,1-1,2.09,3.25,3.25,0,1,1-2.5-5.54l11.12-11.12a1.62,1.62,0,0,0,0-2.3l-10.34-10.34a1.62,1.62,0,0,0-2.3,0L102.72,122a6.49,6.49,0,0,1-9.19,0l-2.3-2.3a6.49,6.49,0,0,1,0-9.19l18.39-18.38a6.49,6.49,0,0,1,9.19,0l18.38,18.38a1.64,1.64,0,0,0,2.3,0l2.3-2.3a1.64,1.64,0,0,0,0-2.3L115.36,79.51a1.62,1.62,0,0,0-2.3,0L86.63,105.93a6.49,6.49,0,0,1-9.19,0l-2.3-2.29a6.52,6.52,0,0,1,0-9.2L109.62,60a6.49,6.49,0,0,1,9.19,0l11.6,11.61V69.92a6.5,6.5,0,0,1,6.5-6.5h3.25a6.5,6.5,0,0,1,6.5,6.5V87.83l7.4,7.39a3.25,3.25,0,0,1,2.09,5.54Z"/><path class="b24e0816-305c-4598-8c14-747165a135c4" d="M612.42,61H624.1v3.65h-3.71v11H616.1v-11h-3.68Zm13.09,0h4.72l3.34,7.78L637,61h4.72V75.62h-3.85V67.39l-2.77,6.81h-2.92l-2.77-6.81v8.23h-3.85Z"/><path class="b24e0816-305c-4598-8c14-747165a135c4" d="M271.65,61v78H254.31V107h-34v32H202.92V61h17.35V91.75h34V61Zm10.65,39c0-22.41,16.77-39,39.65-39s39.64,16.48,39.64,39S344.72,139,322,139,282.3,122.41,282.3,100Zm62.09.39c0-14.19-9.63-23.9-22.44-23.9s-22.45,9.71-22.45,23.9,9.64,23.89,22.45,23.89S344.39,114.57,344.39,100.39ZM368.8,100c0-22.41,16.77-39,39.65-39s39.64,16.48,39.64,39-16.87,39-39.64,39S368.8,122.41,368.8,100Zm62.09.39c0-14.19-9.63-23.9-22.44-23.9S386,86.2,386,100.39s9.64,23.89,22.45,23.89S430.89,114.57,430.89,100.39Zm96.58,17.33c0,13.48-10.28,21.28-30,21.28H458.74V61h36.61c18.74,0,28.38,8.13,28.38,20.28a18.86,18.86,0,0,1-10,17.16C522.12,101.23,527.47,107.91,527.47,117.72ZM476.71,76.06V93.67h16.5c8.1,0,12.5-3,12.5-8.86s-4.4-8.75-12.5-8.75Zm32.59,39.47c0-6.29-4.61-9.28-13.22-9.28H476.71v18.46h19.37C504.69,124.71,509.3,121.93,509.3,115.53Zm23.38,14.74,5.69-13.14A41.52,41.52,0,0,0,562.28,125c9.94,0,14-3.44,14-8.08,0-14.11-42.13-4.41-42.13-32.42,0-12.82,9.94-23.49,30.53-23.49,9.11,0,18.43,2.26,25.16,6.68l-5.18,13.25A39.67,39.67,0,0,0,564.56,75c-9.94,0-13.77,3.87-13.77,8.61,0,13.9,42.13,4.31,42.13,32,0,12.61-10,23.38-30.74,23.38C550.69,139,539.1,135.44,532.68,130.27Z"/><g id="b4ba9f08-fc98-4586-a5b5-0d77f7e50aca" data-name="webos"><g id="a5197e7d-ce2c-47c5-bbaa-c1f9e8473b64" data-name="Group 2"><g id="abe9331c-8932-4546-94cc-e4776137cbb1" data-name="webOS OSE logo gray"><g id="e99a1890-e1d2-4923-afae-83f481997ad8" data-name="Group 1"><path id="f71c8889-84ee-48fd-ab5f-6392db6494fd" data-name="Path 1" class="e9ed7dfd-639c-4d21-a257-115c4743481d" d="M1323.16,113.1c0,16,11,24,27,24,18,0,27-7,27-19h0c0-13.78-9-16.68-27-21.8-12.44-3.23-19.62-6.51-19.62-14.37h0c0-9.18,6.88-13.43,19.52-13.43h0c11.87,0,19.71,4.15,19.71,16.6h5.41c0-16-10-22-25-22-16,0-25,6-25,18,0,11.65,9,16.19,25,20.77,13.29,3.67,21.63,5.3,21.63,16.23,0,9.15-7.9,13.61-21.68,13.61h0c-12.3,0-21.53-5.54-21.53-18.61Z"/><path id="b1d3c5f3-b082-439c-bdf9-60155a8d1ce6" data-name="Path 2" class="e9ed7dfd-639c-4d21-a257-115c4743481d" d="M1282.12,63.1a37,37,0,1,0,37,37,37,37,0,0,0-37-37h0m0,68.61a31.61,31.61,0,1,1,31.65-31.6,31.61,31.61,0,0,1-31.65,31.6"/><path id="b07e4566-74de-4d25-bde9-779badfe3a48" data-name="Path 3" class="abb32f64-4678-409c-9376-09e00501e6ed" d="M1217.08,83.1c-7.56,0-13.09,2.87-16.62,8.13V64.1h-5.39v46h5.4c0-13.6,6-21.61,16.61-21.61s16.61,8,16.61,21.61-6.06,21.63-16.61,21.63c-8,0-13.36-4.53-15.54-12.61h-5.6c2.43,11.48,9.82,18,21.14,18,14,0,22-10,22-27s-8-27-22-27"/><path id="a272a286-5898-4a35-ab73-d0d77fcc5d69" data-name="Path 4" class="abb32f64-4678-409c-9376-09e00501e6ed" d="M1165.05,131.65c-10.57,0-16.62-8-16.62-21.54h38.63c0-17-8-27-22-27s-22,10-22,27,8,27,22,27c11.32,0,18.71-6.53,21.14-18h-5.62c-2.17,8-7.56,12.55-15.54,12.55m0-43.11c9.06,0,14.82,5.9,16.25,16.16H1148.8c1.43-10.26,7.17-16.16,16.25-16.16"/><path id="e5c9b087-8526-46b0-9dc1-211e82f7303c" data-name="Path 5" class="abb32f64-4678-409c-9376-09e00501e6ed" d="M1091.05,136.11,1104.8,92.5l13.76,43.61h6.1l16.39-52h-5.66l-13.77,43.68-13.8-43.68h-6L1088,127.77,1074.24,84.1h-5.67l16.4,52Z"/></g></g></g></g><path class="e9ed7dfd-639c-4d21-a257-115c4743481d" d="M836.09,156.78c-31,.39-57.13-25.75-56.65-57.67a56.83,56.83,0,1,1,113.64,2.18C892.5,131.35,867.51,157.2,836.09,156.78Zm30.77-58.95c-5.06,0-10.12,0-15.18,0-.57,0-1.42-.33-1.66.33a6.07,6.07,0,0,0,0,3.77c.31,1,1.41.51,2.15.52q12.64,0,25.3,0c1,0,1.86-.09,1.7,1.45A41.92,41.92,0,0,1,873,122.34c-7.29,11.49-17.62,18.51-31.24,20.27-13.86,1.79-25.8-2.44-35.76-12.13a40.87,40.87,0,0,1-12.46-26C792.27,91.54,796,80.18,804.88,70.7,813.52,61.47,824.35,57,837,57c1.89,0,1.67-1,1.62-2.19s.48-2.47-1.62-2.44a47.86,47.86,0,0,0-17,2.91c-15.92,6.25-26.32,17.59-30,34.34-3.89,17.65,1,33,14.2,45.35a46.35,46.35,0,0,0,54,7.2c17-9,25.18-23.62,25.81-42.68,0-1.35-.4-1.74-1.72-1.73C877.12,97.87,872,97.83,866.86,97.83Zm-32.93,2c0,7.75,0,15.5,0,23.26,0,1.41.41,1.88,1.84,1.85,3.7-.09,7.41,0,11.12,0,3.22,0,3.17,0,3.1-3.15,0-1.06-.31-1.41-1.37-1.39-2.43.07-4.86,0-7.28,0-2.69,0-2.7,0-2.7-2.63,0-13.49,0-27,0-40.45,0-1.94-.63-2.32-2.42-2.36s-2.37.6-2.34,2.43C834,84.9,833.93,92.38,833.93,99.87Zm-8.94-18A7,7,0,0,0,818,75a7.18,7.18,0,0,0-6.79,7,6.88,6.88,0,0,0,6.83,6.82A6.72,6.72,0,0,0,825,81.89Z"/><path class="aea9fc5e-5254-49fc-a7bf-5bab9dd34168" d="M1023.52,132.6c-2.36.61-3.22,2.49-4.79,3.53-12.12,8.06-33.84,5.59-42.44-11-8.33-16.09-8.76-32.73.16-48.75,5.11-9.17,13.85-14.07,24.18-15.46,11.2-1.52,22.07-.7,31.75,6.15,6.3,4.46,9.32,10.63,10.22,18.11.25,2.1-.38,2.8-2.52,2.76-6.22-.11-12.45,0-18.68,0-1.4,0-2.38-.23-2.77-1.87-1.12-4.69-4.39-7.09-9-7.62-5-.58-8.89,1.56-11.51,5.71-4.42,7-4.36,14.8-3.49,22.66.59,5.26,2.19,10.13,6.47,13.63,4.12,3.38,8.89,3.39,13.45,1.49,4.21-1.75,6-5.72,6.89-10,.33-1.58-.87-1.4-1.77-1.41-3.17,0-6.34-.09-9.5,0-2.17.07-3-.74-2.92-3,.14-3.59.12-7.18,0-10.77-.06-1.86.46-2.63,2.46-2.62q15.51.12,31,0c1.88,0,2.3.74,2.3,2.44q-.08,19.8,0,39.6c0,2-.72,2.51-2.59,2.46-4.43-.1-8.87-.18-13.29,0-2.77.13-4.22-.51-3.68-3.57A16.52,16.52,0,0,0,1023.52,132.6Z"/><path class="aea9fc5e-5254-49fc-a7bf-5bab9dd34168" d="M909.51,100.18c0-11.6.09-23.21-.06-34.82,0-2.7.79-3.39,3.38-3.3q8.07.28,16.14,0c2.44-.08,3,.76,3,3.07-.09,16.57,0,33.13,0,49.7,0,4.34,0,4.35,4.5,4.35,8.65,0,17.3.1,25.94-.06,2.58-.05,3.21.8,3.12,3.23-.18,4.63-.12,9.28,0,13.92,0,1.79-.52,2.35-2.33,2.34-17.08-.05-34.17-.08-51.25,0-2.55,0-2.34-1.36-2.33-3Q909.53,117.91,909.51,100.18Z"/></svg>