<svg id="fff09aa2-1504-45f5-ac4c-fa22f1fbe845" data-name="Ebene 1" xmlns="http://www.w3.org/2000/svg" viewBox="0 0 1680 200"><defs><style>.ba20af31-d496-4044-a703-c9877c7f30b6{fill:none;stroke:#ccc;stroke-miterlimit:10;}.af522935-6235-4300-ae74-62a5eb045bae{fill:#f9b213;}.fdbdfe5a-42aa-452b-90d3-83c7db7f0c3e{fill:#ccc;}</style></defs><title>HOOBS_x_zp</title><g id="ad7a4887-ec2a-4daa-b820-19b92b62665c" data-name="Stroke"><line class="ba20af31-d496-4044-a703-c9877c7f30b6" x1="700.5" y1="60" x2="700.5" y2="140"/></g><path class="af522935-6235-4300-ae74-62a5eb045bae" d="M154.17,41.5h-78A19.5,19.5,0,0,0,56.67,61v78a19.5,19.5,0,0,0,19.5,19.5h78a19.5,19.5,0,0,0,19.5-19.5V61A19.5,19.5,0,0,0,154.17,41.5Zm2,59.26a3.24,3.24,0,0,1-4.59,0,3.21,3.21,0,0,1-.95-2.09l-8.82-8.82V69.92a1.63,1.63,0,0,0-1.63-1.63h-3.25a1.63,1.63,0,0,0-1.62,1.63V83.6l-4.88-5.13-15-15a1.62,1.62,0,0,0-2.3,0L78.59,97.89a1.64,1.64,0,0,0,0,2.3l2.3,2.3a1.64,1.64,0,0,0,2.3,0l26.43-26.43a6.49,6.49,0,0,1,9.19,0l26.43,26.43a6.51,6.51,0,0,1,0,9.19l-2.3,2.3a6.49,6.49,0,0,1-9.19,0L115.36,95.59a1.64,1.64,0,0,0-2.3,0L94.68,114a1.62,1.62,0,0,0,0,2.3l2.3,2.29a1.61,1.61,0,0,0,2.29,0l10.35-10.34a6.49,6.49,0,0,1,9.19,0l10.34,10.34a6.51,6.51,0,0,1,0,9.2L118,138.89a3.21,3.21,0,0,1-1,2.09,3.25,3.25,0,1,1-2.5-5.54l11.12-11.12a1.62,1.62,0,0,0,0-2.3l-10.34-10.34a1.62,1.62,0,0,0-2.3,0L102.72,122a6.49,6.49,0,0,1-9.19,0l-2.3-2.3a6.49,6.49,0,0,1,0-9.19l18.39-18.38a6.49,6.49,0,0,1,9.19,0l18.38,18.38a1.64,1.64,0,0,0,2.3,0l2.3-2.3a1.64,1.64,0,0,0,0-2.3L115.36,79.51a1.62,1.62,0,0,0-2.3,0L86.63,105.93a6.49,6.49,0,0,1-9.19,0l-2.3-2.29a6.52,6.52,0,0,1,0-9.2L109.62,60a6.49,6.49,0,0,1,9.19,0l11.6,11.61V69.92a6.5,6.5,0,0,1,6.5-6.5h3.25a6.5,6.5,0,0,1,6.5,6.5V87.83l7.4,7.39a3.25,3.25,0,0,1,2.09,5.54Z"/><path class="af522935-6235-4300-ae74-62a5eb045bae" d="M612.42,61H624.1v3.65h-3.71v11H616.1v-11h-3.68Zm13.09,0h4.72l3.34,7.78L637,61h4.72V75.62h-3.85V67.39l-2.77,6.81h-2.92l-2.77-6.81v8.23h-3.85Z"/><path class="af522935-6235-4300-ae74-62a5eb045bae" d="M271.65,61v78H254.31V107h-34v32H202.92V61h17.35V91.75h34V61Zm10.65,39c0-22.41,16.77-39,39.65-39s39.64,16.48,39.64,39S344.72,139,322,139,282.3,122.41,282.3,100Zm62.09.39c0-14.19-9.63-23.9-22.44-23.9s-22.45,9.71-22.45,23.9,9.64,23.89,22.45,23.89S344.39,114.57,344.39,100.39ZM368.8,100c0-22.41,16.77-39,39.65-39s39.64,16.48,39.64,39-16.87,39-39.64,39S368.8,122.41,368.8,100Zm62.09.39c0-14.19-9.63-23.9-22.44-23.9S386,86.2,386,100.39s9.64,23.89,22.45,23.89S430.89,114.57,430.89,100.39Zm96.58,17.33c0,13.48-10.28,21.28-30,21.28H458.74V61h36.61c18.74,0,28.38,8.13,28.38,20.28a18.86,18.86,0,0,1-10,17.16C522.12,101.23,527.47,107.91,527.47,117.72ZM476.71,76.06V93.67h16.5c8.1,0,12.5-3,12.5-8.86s-4.4-8.75-12.5-8.75Zm32.59,39.47c0-6.29-4.61-9.28-13.22-9.28H476.71v18.46h19.37C504.69,124.71,509.3,121.93,509.3,115.53Zm23.38,14.74,5.69-13.14A41.52,41.52,0,0,0,562.28,125c9.94,0,14-3.44,14-8.08,0-14.11-42.13-4.41-42.13-32.42,0-12.82,9.94-23.49,30.53-23.49,9.11,0,18.43,2.26,25.16,6.68l-5.18,13.25A39.67,39.67,0,0,0,564.56,75c-9.94,0-13.77,3.87-13.77,8.61,0,13.9,42.13,4.31,42.13,32,0,12.61-10,23.38-30.74,23.38C550.69,139,539.1,135.44,532.68,130.27Z"/><g id="fc125dcc-f0cb-4c66-87a8-b868efe4ab7d" data-name="sonos"><path id="ae5f3613-2494-44a1-97d7-56129c6c06e5" data-name="logo-sonos" class="fdbdfe5a-42aa-452b-90d3-83c7db7f0c3e" d="M1108.81,43.63h21.32V157.77l-72-67.06v63.6h-21.32V40.51l72,67.16ZM1003.09,99.16A59.75,59.75,0,1,1,943.34,39.4,59.74,59.74,0,0,1,1003.09,99.16Zm-21.9,0a38.18,38.18,0,0,0-38-38.33c-20.93,0-37.84,17.2-37.84,38.33s17,38.34,37.84,38.34a38.16,38.16,0,0,0,37.94-38.34Zm-134,1C841.52,95.83,834,92.38,823,88.82c-21.62-6.91-21.62-12.29-21.62-15,0-6.15,6.82-12.49,18.35-12.49a34.34,34.34,0,0,1,20,6.92l1.54,1.15,17.19-11.63-1.94-2.26a50.47,50.47,0,0,0-36.88-16.14c-11.06,0-21.23,3.56-28.63,10a32.64,32.64,0,0,0-11.62,24.5c0,9.81,4.32,18.07,12.77,24.5,5.67,4.32,13.16,7.78,24.21,11.33C838,116.53,838,122,838,124.7c0,6.15-6.82,12.49-18.34,12.49a34.29,34.29,0,0,1-20-6.92l-1.54-1.16-17.2,11.64,1.93,2.2a50.48,50.48,0,0,0,36.79,16c11,0,21.23-3.55,28.62-10a32.69,32.69,0,0,0,11.64-24.44c0-9.69-4.22-17.85-12.67-24.39Zm316.89-.48a59.75,59.75,0,1,1,59.78,59.72h0a59.83,59.83,0,0,1-59.73-59.76Zm21.81,0c0,21.14,17,38.34,37.85,38.34s37.85-17.2,37.85-38.34-17-38.34-37.85-38.34-37.85,17.2-37.85,38.33Zm134-1.06c5.67,4.33,13.16,7.78,24.21,11.34,21.61,6.92,21.61,12.3,21.61,15,0,6.15-6.82,12.49-18.35,12.49a34.29,34.29,0,0,1-20-6.92l-1.53-1.15L1308.64,141l1.91,2.2a50.48,50.48,0,0,0,36.8,16c11,0,21.22-3.55,28.62-10a32.51,32.51,0,0,0,11.63-24.49c0-9.8-4.33-18.07-12.78-24.5-5.67-4.33-13.16-7.79-24.21-11.34C1329,82,1329,76.58,1329,73.88c0-6.14,6.82-12.48,18.34-12.48a34.47,34.47,0,0,1,20,6.91l1.53,1.15,17.2-11.62-1.92-2.21a50.56,50.56,0,0,0-36.8-16c-11,0-21.22,3.55-28.62,10a32.78,32.78,0,0,0-11.62,24.51c.09,9.8,4.32,18.06,12.77,24.5Z"/></g><path class="fdbdfe5a-42aa-452b-90d3-83c7db7f0c3e" d="M1475,75.4h22.53v9.92h-38.24V77.83l21.67-28.66h-21V39.25h36.92V46.5Z"/><path class="fdbdfe5a-42aa-452b-90d3-83c7db7f0c3e" d="M1501.54,61.86a27.3,27.3,0,0,1,2.64-12.22,19.34,19.34,0,0,1,7.61-8.31,22.12,22.12,0,0,1,11.51-2.94q9.33,0,15.23,5.71t6.58,15.5l.08,3.15q0,10.6-5.92,17t-15.88,6.41q-10,0-15.91-6.39t-5.94-17.38Zm12.31.87q0,6.57,2.47,10.05a8.88,8.88,0,0,0,14,0q2.52-3.43,2.52-11,0-6.45-2.52-10a8.16,8.16,0,0,0-7.07-3.54,8,8,0,0,0-7,3.52Q1513.85,55.35,1513.85,62.73Z"/><path class="fdbdfe5a-42aa-452b-90d3-83c7db7f0c3e" d="M1563.05,39.25l.39,5.32a16.08,16.08,0,0,1,13.24-6.18q7.33,0,10.9,4.31t3.67,12.86V85.32h-12.31V55.85q0-3.91-1.7-5.68t-5.67-1.77a8.47,8.47,0,0,0-7.79,4.43V85.32h-12.31V39.25Z"/><path class="fdbdfe5a-42aa-452b-90d3-83c7db7f0c3e" d="M1620.73,86.18q-10.12,0-16.5-6.22t-6.36-16.57V62.2a27.77,27.77,0,0,1,2.68-12.41,19.74,19.74,0,0,1,7.6-8.44,21.37,21.37,0,0,1,11.22-3q9.45,0,14.88,6t5.43,16.9v5h-29.34a11.46,11.46,0,0,0,3.6,7.24,10.91,10.91,0,0,0,7.6,2.72,13.28,13.28,0,0,0,11.12-5.15l6,6.77a18.53,18.53,0,0,1-7.5,6.11A24.61,24.61,0,0,1,1620.73,86.18Zm-1.4-37.86a7.67,7.67,0,0,0-5.94,2.48,12.85,12.85,0,0,0-2.92,7.1h17.12v-1a9.23,9.23,0,0,0-2.21-6.35A8,8,0,0,0,1619.33,48.32Z"/><path class="fdbdfe5a-42aa-452b-90d3-83c7db7f0c3e" d="M1452.86,136.71q0,10.65-4.84,17.06a15.5,15.5,0,0,1-13,6.41,14.32,14.32,0,0,1-11.28-4.86V177h-12.31V113.25h11.41l.43,4.51a14.46,14.46,0,0,1,11.67-5.37q8.5,0,13.24,6.31t4.73,17.37Zm-12.31-.89q0-6.44-2.28-9.93a7.44,7.44,0,0,0-6.62-3.49q-5.79,0-8,4.43V145.7q2.25,4.55,8,4.55Q1440.55,150.25,1440.55,135.82Z"/><path class="fdbdfe5a-42aa-452b-90d3-83c7db7f0c3e" d="M1472.42,159.32h-12.35V93.91h12.35Z"/><path class="fdbdfe5a-42aa-452b-90d3-83c7db7f0c3e" d="M1508.21,159.32a13.36,13.36,0,0,1-1.23-4.13,14.91,14.91,0,0,1-11.63,5,16.38,16.38,0,0,1-11.22-3.92,12.59,12.59,0,0,1-4.45-9.88q0-7.32,5.43-11.25t15.69-4h5.66v-2.63a7.63,7.63,0,0,0-1.63-5.12c-1.1-1.27-2.82-1.91-5.18-1.91a7.27,7.27,0,0,0-4.87,1.49,5.06,5.06,0,0,0-1.77,4.09H1480.7a12.34,12.34,0,0,1,2.47-7.41,16.37,16.37,0,0,1,7-5.35,25.42,25.42,0,0,1,10.13-1.94q8.52,0,13.52,4.28t5,12v20q0,6.56,1.84,9.92v.72ZM1498,150.76a10.59,10.59,0,0,0,5-1.21,7.89,7.89,0,0,0,3.4-3.26v-7.92h-4.59q-9.24,0-9.84,6.39l0,.72a4.93,4.93,0,0,0,1.61,3.79A6.27,6.27,0,0,0,1498,150.76Z"/><path class="fdbdfe5a-42aa-452b-90d3-83c7db7f0c3e" d="M1543.79,141.91l8.51-28.66h13.21L1547,166.48l-1,2.43q-4.12,9-13.63,9a19.36,19.36,0,0,1-5.45-.81V167.8l1.87,0a10.14,10.14,0,0,0,5.22-1.06,7,7,0,0,0,2.71-3.54l1.44-3.79L1522,113.25h13.25Z"/><path class="fdbdfe5a-42aa-452b-90d3-83c7db7f0c3e" d="M1590,160.18q-10.14,0-16.5-6.22t-6.37-16.57V136.2a27.77,27.77,0,0,1,2.68-12.41,19.8,19.8,0,0,1,7.6-8.44,21.38,21.38,0,0,1,11.23-3q9.45,0,14.88,6t5.43,16.9v5h-29.34a11.36,11.36,0,0,0,3.6,7.24,10.89,10.89,0,0,0,7.6,2.72,13.26,13.26,0,0,0,11.11-5.15l6,6.77a18.46,18.46,0,0,1-7.5,6.11A24.6,24.6,0,0,1,1590,160.18Zm-1.41-37.86a7.67,7.67,0,0,0-5.94,2.48,12.78,12.78,0,0,0-2.91,7.1h17.12v-1a9.19,9.19,0,0,0-2.22-6.35A8,8,0,0,0,1588.56,122.32Z"/><path class="fdbdfe5a-42aa-452b-90d3-83c7db7f0c3e" d="M1640.75,124.79a33,33,0,0,0-4.43-.34q-7,0-9.16,4.72v30.15h-12.3V113.25h11.62l.34,5.49q3.71-6.34,10.27-6.35a12.85,12.85,0,0,1,3.83.56Z"/></svg>