<svg id="a5466847-a8c2-45f0-b4be-22854d980188" data-name="Ebene 1" xmlns="http://www.w3.org/2000/svg" viewBox="0 0 1680 200"><defs><style>.bfc138cb-b301-4f20-a1ff-9926a46e9687{fill:none;stroke:#ccc;stroke-miterlimit:10;}.f05d757c-cf42-46c4-9270-c5e983b86824{fill:#f9b213;}.ef23b4d3-e879-4683-8f3d-bfa3a434e5f7{fill:#ccc;}</style></defs><title>HOOBS_x_scout</title><g id="b4d0d411-c1ff-4655-9172-4bd876886b91" data-name="Stroke"><line class="bfc138cb-b301-4f20-a1ff-9926a46e9687" x1="700.5" y1="60" x2="700.5" y2="140"/></g><path class="f05d757c-cf42-46c4-9270-c5e983b86824" d="M154.17,41.5h-78A19.5,19.5,0,0,0,56.67,61v78a19.5,19.5,0,0,0,19.5,19.5h78a19.5,19.5,0,0,0,19.5-19.5V61A19.5,19.5,0,0,0,154.17,41.5Zm2,59.26a3.24,3.24,0,0,1-4.59,0,3.21,3.21,0,0,1-.95-2.09l-8.82-8.82V69.92a1.63,1.63,0,0,0-1.63-1.63h-3.25a1.63,1.63,0,0,0-1.62,1.63V83.6l-4.88-5.13-15-15a1.62,1.62,0,0,0-2.3,0L78.59,97.89a1.64,1.64,0,0,0,0,2.3l2.3,2.3a1.64,1.64,0,0,0,2.3,0l26.43-26.43a6.49,6.49,0,0,1,9.19,0l26.43,26.43a6.51,6.51,0,0,1,0,9.19l-2.3,2.3a6.49,6.49,0,0,1-9.19,0L115.36,95.59a1.64,1.64,0,0,0-2.3,0L94.68,114a1.62,1.62,0,0,0,0,2.3l2.3,2.29a1.61,1.61,0,0,0,2.29,0l10.35-10.34a6.49,6.49,0,0,1,9.19,0l10.34,10.34a6.51,6.51,0,0,1,0,9.2L118,138.89a3.21,3.21,0,0,1-1,2.09,3.25,3.25,0,1,1-2.5-5.54l11.12-11.12a1.62,1.62,0,0,0,0-2.3l-10.34-10.34a1.62,1.62,0,0,0-2.3,0L102.72,122a6.49,6.49,0,0,1-9.19,0l-2.3-2.3a6.49,6.49,0,0,1,0-9.19l18.39-18.38a6.49,6.49,0,0,1,9.19,0l18.38,18.38a1.64,1.64,0,0,0,2.3,0l2.3-2.3a1.64,1.64,0,0,0,0-2.3L115.36,79.51a1.62,1.62,0,0,0-2.3,0L86.63,105.93a6.49,6.49,0,0,1-9.19,0l-2.3-2.29a6.52,6.52,0,0,1,0-9.2L109.62,60a6.49,6.49,0,0,1,9.19,0l11.6,11.61V69.92a6.5,6.5,0,0,1,6.5-6.5h3.25a6.5,6.5,0,0,1,6.5,6.5V87.83l7.4,7.39a3.25,3.25,0,0,1,2.09,5.54Z"/><path class="f05d757c-cf42-46c4-9270-c5e983b86824" d="M612.42,61H624.1v3.65h-3.71v11H616.1v-11h-3.68Zm13.09,0h4.72l3.34,7.78L637,61h4.72V75.62h-3.85V67.39l-2.77,6.81h-2.92l-2.77-6.81v8.23h-3.85Z"/><path class="f05d757c-cf42-46c4-9270-c5e983b86824" d="M271.65,61v78H254.31V107h-34v32H202.92V61h17.35V91.75h34V61Zm10.65,39c0-22.41,16.77-39,39.65-39s39.64,16.48,39.64,39S344.72,139,322,139,282.3,122.41,282.3,100Zm62.09.39c0-14.19-9.63-23.9-22.44-23.9s-22.45,9.71-22.45,23.9,9.64,23.89,22.45,23.89S344.39,114.57,344.39,100.39ZM368.8,100c0-22.41,16.77-39,39.65-39s39.64,16.48,39.64,39-16.87,39-39.64,39S368.8,122.41,368.8,100Zm62.09.39c0-14.19-9.63-23.9-22.44-23.9S386,86.2,386,100.39s9.64,23.89,22.45,23.89S430.89,114.57,430.89,100.39Zm96.58,17.33c0,13.48-10.28,21.28-30,21.28H458.74V61h36.61c18.74,0,28.38,8.13,28.38,20.28a18.86,18.86,0,0,1-10,17.16C522.12,101.23,527.47,107.91,527.47,117.72ZM476.71,76.06V93.67h16.5c8.1,0,12.5-3,12.5-8.86s-4.4-8.75-12.5-8.75Zm32.59,39.47c0-6.29-4.61-9.28-13.22-9.28H476.71v18.46h19.37C504.69,124.71,509.3,121.93,509.3,115.53Zm23.38,14.74,5.69-13.14A41.52,41.52,0,0,0,562.28,125c9.94,0,14-3.44,14-8.08,0-14.11-42.13-4.41-42.13-32.42,0-12.82,9.94-23.49,30.53-23.49,9.11,0,18.43,2.26,25.16,6.68l-5.18,13.25A39.67,39.67,0,0,0,564.56,75c-9.94,0-13.77,3.87-13.77,8.61,0,13.9,42.13,4.31,42.13,32,0,12.61-10,23.38-30.74,23.38C550.69,139,539.1,135.44,532.68,130.27Z"/><g id="e5a52e23-bf83-42fd-bad8-94382181126e" data-name="scout"><path class="ef23b4d3-e879-4683-8f3d-bfa3a434e5f7" d="M1406.35,25.79c11.86,6,24.57,9.78,37.25,13.64a4,4,0,0,0,3.52-.82c4.58-3,9.77-4.35,15-5.79a4.42,4.42,0,0,1,4.25.47c1.11,1-.19,2.37-.79,3.24-4.41,6.36-3.18,12.1,1.26,17.93,2.74,3.61,5,7.64,5,12.44,0,1.62,1.33,2.58,2.29,3.69,2.31,2.83,4.76,5.55,7.33,8.13,2.28,2.11,1.74,4.18.76,6.38s-5.84,4.52-8.31,3.74A132.06,132.06,0,0,0,1429.55,83c-3.12.1-5.72-1.51-8.46-2.58a3.61,3.61,0,0,0-4.26.74c-3.63,3.14-7.39,6.13-11.15,9.12a9.93,9.93,0,0,0-2.91,3.7c-2.2,4.63-4.29,9.34-6.8,13.78a56.41,56.41,0,0,0-6.66,20.29,8.09,8.09,0,0,0,4.88,9c2.66,1,2.52,3.23,3.13,5.2.08.25-.21.63-.29.95a2.76,2.76,0,0,1-3.06,2.42,2.87,2.87,0,0,1-.8-.21c-3.06-.88-7.35,2.51-9.25-2.11s-3.1-9.52-4.7-14.25a9.7,9.7,0,0,1-.39-3.71c.35-7.85.61-15.71,1.11-23.55a3.37,3.37,0,0,0-2.52-4c-8-3.11-15.92-6.36-23.82-9.67a14.67,14.67,0,0,0-6.06-.77c-6.51,0-13.76-1.63-19.33.69s-9.34,8.45-13.62,13.21a46.56,46.56,0,0,1-15.81,11.67c-6.38,2.86-11.8,7.38-17.66,11.13-.38.24-1,.53-1,.84-.39,5.11-2.51,10.28,0,15.29a4.18,4.18,0,0,1,.15,4c-.71,1.63-1.94,1.27-3.14,1.34h-3.77c-4.75,0-6.08-1.34-5.6-6.23.53-5.33,1.2-10.67,1.91-16a7.42,7.42,0,0,1,1.09-2.83c8.09-13,12.79-27.31,16.6-42,2.67-10.28,8.33-19.42,12.34-29.2.54-1.33,1.63-1.52,2.67-1.92,10.67-4.21,21.19-8.56,31.91-12.52,5.17-1.92,10.83-1.6,16.29-2,15.89-1.19,31.6-3.69,47.35-5.92,1-.13,2.38.28,3-1.08Z"/><path class="ef23b4d3-e879-4683-8f3d-bfa3a434e5f7" d="M779.14,129.07c3.59-4.58,6-9.9,9-14.78.73-1.14,1.41-2.33,2.17-3.58a55.57,55.57,0,0,0,28.09,11.12,22.13,22.13,0,0,0,9.49-1c2.2-.79,3.78-2.23,3.75-4.75s-1.92-3.28-3.76-3.89c-5.79-1.93-11.89-2.33-17.83-3.56A73.49,73.49,0,0,1,797.59,105c-19.8-8-19-32.36-5.81-42.56a37.37,37.37,0,0,1,19.16-7.74c11.33-1.22,22.45-.22,32.93,4.66,2.89,1.34,5.6,3.08,8.41,4.59,1.55.83,2.09,1.63,1,3.42-2.86,4.92-5.57,9.94-8.17,15-1,1.91-1.65,1.72-3.19.54a38.62,38.62,0,0,0-22-7.72,17.59,17.59,0,0,0-6.45.76c-2.47.76-5,1.88-5,4.86s2.76,3.39,5,3.86c6.58,1.42,13.22,2.66,19.82,4a43.39,43.39,0,0,1,9.08,3.08c9.21,4.18,14.6,11.06,15.21,21.33.64,10.76-3.89,18.78-13.17,24-10.66,6.09-22.46,6.52-34.37,5.22a65.3,65.3,0,0,1-30.89-12Z"/><path class="ef23b4d3-e879-4683-8f3d-bfa3a434e5f7" d="M952.49,92.83a41.64,41.64,0,0,1,13-26.66c16.18-15.87,49.67-15.9,65.68.18,13.6,13.67,16.77,30.05,10.66,47.86s-19.74,26.43-38,28.47A51.45,51.45,0,0,1,980.5,140c-15.81-5.68-27.53-20.82-28-36.31A19.06,19.06,0,0,0,952.49,92.83Zm27.38,5.72c0,9.68,4.74,17.16,12.4,19.65,12.91,4.21,24.28-4.81,24.51-19.45C1017,85,1007.1,76.08,994.3,78.42,985.62,80,979.87,88,979.87,98.55Z"/><path class="ef23b4d3-e879-4683-8f3d-bfa3a434e5f7" d="M1114.25,140v-8.28c.4-.34.57-.78,0-1s-.76.23-.89.68c-10,11.2-30.67,15.22-44,8.4-8.35-4.28-12.21-11.57-12.44-20.58-.31-13.09-.12-26.2-.13-39.29,0-7.07.06-14.13,0-21.19,0-2,.57-2.46,2.49-2.44,7.21.11,14.43.15,21.64,0,2.4,0,3,.56,3,3-.12,14.79,0,29.61,0,44.42,0,13.33,9.18,19.21,21.68,13.93a19.78,19.78,0,0,0,8.68-7c.43,0,.92-.14,1-.67s-.48-.63-.92-.71v-52h23c2.18,0,3,.54,3,2.85q-.11,38.55,0,77.1c0,2.31-.84,2.91-3,2.88C1129.57,140,1121.9,140,1114.25,140Z"/><path class="ef23b4d3-e879-4683-8f3d-bfa3a434e5f7" d="M866.49,93.51c.4-17.05,13.79-32.84,31.87-37.54,3.72-1,7.61-.8,11.34-1.26a45.41,45.41,0,0,1,19.16,2,35.44,35.44,0,0,1,17,11.1c1.2,1.42,1.26,2.27-.22,3.58-4.78,4.24-9.45,8.61-14.08,13-1.33,1.26-1.95,1.54-3.37-.06a19.79,19.79,0,0,0-22-5c-7.9,3-11.77,9.11-12.26,17.33-1,15.8,11.7,26.2,26,21.49a17.35,17.35,0,0,0,8.4-5.68c1.08-1.33,1.72-1.33,2.9-.14,4.7,4.52,9.41,9,14.28,13.33,1.57,1.41,1.56,2.28.2,3.83-7,8-16.08,12-26.4,13.08-15.64,1.68-29.91-1.6-41.33-13.19a39.32,39.32,0,0,1-11.49-25.61A16.44,16.44,0,0,0,866.49,93.51Z"/><path class="ef23b4d3-e879-4683-8f3d-bfa3a434e5f7" d="M1153.27,56.49c3.55,0,7.1-.27,10.67-.12,2.21.09,2.66-.7,2.66-2.74-.12-5.92,0-11.85-.08-17.77,0-2,.46-2.76,2.67-2.67,7.33.14,14.67.12,22,0,2.07,0,2.76.46,2.67,2.67-.16,5.92,0,11.85-.12,17.77,0,2.34.7,2.87,2.9,2.82,4.35-.12,8.7,0,13,.1.22.5.44.58.71,0,1.2.54.6,1.59.61,2.38q.09,9,0,18.09c0,.82.45,1.85-.6,2.46L1210,79l-.3.59-15.91.29c-1.68.31-1.33,1.64-1.33,2.67v25.21c0,1.08-.35,2.36,1.13,2.9,1.09,7.62,5.33,10.22,12.55,7.43,1.58-.61,2-.56,2.42,1.15q1.93,8.11,4.23,16.17a2.59,2.59,0,0,1-1.34,3.39,23.65,23.65,0,0,1-7.58,3.08,46.78,46.78,0,0,1-19.43.24c-10.24-2.12-16.63-8.84-17.53-19.19-1.12-12.83-.22-25.73-.48-38.59a12.84,12.84,0,0,0-.29-4.74l-.21-.58-.36.5c-4.31,0-8.64.8-12.92-.37.08-.08.22-.19.2-.21a2.69,2.69,0,0,0-.28-.46V57.25Z"/><path class="ef23b4d3-e879-4683-8f3d-bfa3a434e5f7" d="M1295.28,52c-1.1,2.45-1.87,4.33-2.75,6.16a139,139,0,0,0-11,30,17,17,0,0,1-3,6.41,118.32,118.32,0,0,0-9,12.88c-4.54,8.39-11.82,13.19-20.15,17-1.76.8-2.26.71-2.67-1.2-1.11-4.76-2.41-9.48-3.71-14.18a5.37,5.37,0,0,1,.27-3.31c3.24-9.94,6.49-19.88,9.64-29.85a7.49,7.49,0,0,1,2.46-3.55q9.26-7.91,18.46-15.83a6.23,6.23,0,0,1,3.22-1.79Z"/><path class="ef23b4d3-e879-4683-8f3d-bfa3a434e5f7" d="M1338.11,90.14h4.82c5.23,0,7.29,3.22,5.21,8.13-3.73,8.81-7.4,17.64-11.24,26.4a4.28,4.28,0,0,0,.36,4.72c2.36,3.32,3.27,7.8,8.23,9a3.14,3.14,0,0,1,1.67,4c-.58,1.58-1.15,3.18-3.71,3.17-8,0-8,.12-11.5-6.83a11.35,11.35,0,0,0-.76-1.52c-5.7-8.18-7.68-17-4.76-26.66,1.16-3.87-1.86-6.67-3.42-9.68-1.12-2.21-.9-3.47.84-5.17C1329.38,90.22,1329.26,90.14,1338.11,90.14Z"/><path class="ef23b4d3-e879-4683-8f3d-bfa3a434e5f7" d="M1417.68,84.26c.36.3.52.37.53.46,1.94,14.46,10.47,25.72,18.37,37.25,3,4.34,3.31,9.42,4.31,14.26.49,2.38-2.67,2.78-3.88,2.49-2-.49-4.77-1.33-5-4-.74-9.13-6.23-14.4-13.82-18.67-5.33-3-10-7.17-15.14-10.66-1.78-1.21-1.48-2.11-.91-3.88C1404.79,93.42,1411.56,89.2,1417.68,84.26Z"/><path class="ef23b4d3-e879-4683-8f3d-bfa3a434e5f7" d="M1114.25,140h23c2.17,0,3-.57,3-2.88q-.11-38.53,0-77.1c0-2.3-.84-2.89-3-2.85-7.65.09-15.32,0-23,0,.25-1.75,1.64-.89,2.44-.91,7.33-.08,14.66,0,22-.09,2.07,0,2.67.47,2.67,2.67-.08,26.43,0,52.87,0,79.31,0,1.33.43,2.67-1.88,2.67-8-.11-16,0-24,0C1114.82,140.84,1114.2,140.85,1114.25,140Z"/><path class="ef23b4d3-e879-4683-8f3d-bfa3a434e5f7" d="M1193.62,110.68c-1.48-.53-1.14-1.81-1.14-2.89V82.58c0-1.07-.4-2.4,1.34-2.67Q1193.72,95.24,1193.62,110.68Z"/><path class="ef23b4d3-e879-4683-8f3d-bfa3a434e5f7" d="M952.49,92.83a19.15,19.15,0,0,1,0,10.92A26.78,26.78,0,0,1,952.49,92.83Z"/><path class="ef23b4d3-e879-4683-8f3d-bfa3a434e5f7" d="M866.49,93.51a16.44,16.44,0,0,1,0,10.24A26.73,26.73,0,0,1,866.49,93.51Z"/><path class="ef23b4d3-e879-4683-8f3d-bfa3a434e5f7" d="M1114.25,109.23c.44.08.93.16.92.71s-.52.6-1,.66Z"/><path class="ef23b4d3-e879-4683-8f3d-bfa3a434e5f7" d="M1113.4,131.37c.13-.45.36-.93.89-.68s.37.7,0,1Z"/><path class="ef23b4d3-e879-4683-8f3d-bfa3a434e5f7" d="M1153.27,56.49l-.64.76C1152.54,56.74,1152.66,56.41,1153.27,56.49Z"/><path class="ef23b4d3-e879-4683-8f3d-bfa3a434e5f7" d="M1210.35,56.53c-.27.52-.5.44-.71,0Z"/><path class="ef23b4d3-e879-4683-8f3d-bfa3a434e5f7" d="M1152.63,78.46a2.11,2.11,0,0,1,.28.45l-.2.21a2.71,2.71,0,0,0-.13-.44C1152.55,78.54,1152.62,78.54,1152.63,78.46Z"/><path class="ef23b4d3-e879-4683-8f3d-bfa3a434e5f7" d="M1165.63,79.5,1166,79l.22.59h-.3Z"/><path class="ef23b4d3-e879-4683-8f3d-bfa3a434e5f7" d="M1209.67,79.52l.3-.58.4.52Z"/></g></svg>