<svg id="be26940a-97ef-4e15-ad14-9160b8b18b72" data-name="Ebene 1" xmlns="http://www.w3.org/2000/svg" viewBox="0 0 1680 200"><defs><style>.f8893b46-356f-44ae-a150-4d1673b3254e{fill:none;stroke:#ccc;stroke-miterlimit:10;}.b3844363-5e36-4949-b0e6-9248d951b818{fill:#f9b213;}.ae3b5aef-0a07-42c7-b815-6d587da3b026{fill:#de1e34;fill-rule:evenodd;}</style></defs><title>HOOBS_x_honeywell</title><g id="ec425072-5732-4388-8899-d2bc83933922" data-name="Stroke"><line class="f8893b46-356f-44ae-a150-4d1673b3254e" x1="700.5" y1="60" x2="700.5" y2="140"/></g><path class="b3844363-5e36-4949-b0e6-9248d951b818" d="M154.17,41.5h-78A19.5,19.5,0,0,0,56.67,61v78a19.5,19.5,0,0,0,19.5,19.5h78a19.5,19.5,0,0,0,19.5-19.5V61A19.5,19.5,0,0,0,154.17,41.5Zm2,59.26a3.24,3.24,0,0,1-4.59,0,3.21,3.21,0,0,1-.95-2.09l-8.82-8.82V69.92a1.63,1.63,0,0,0-1.63-1.63h-3.25a1.63,1.63,0,0,0-1.62,1.63V83.6l-4.88-5.13-15-15a1.62,1.62,0,0,0-2.3,0L78.59,97.89a1.64,1.64,0,0,0,0,2.3l2.3,2.3a1.64,1.64,0,0,0,2.3,0l26.43-26.43a6.49,6.49,0,0,1,9.19,0l26.43,26.43a6.51,6.51,0,0,1,0,9.19l-2.3,2.3a6.49,6.49,0,0,1-9.19,0L115.36,95.59a1.64,1.64,0,0,0-2.3,0L94.68,114a1.62,1.62,0,0,0,0,2.3l2.3,2.29a1.61,1.61,0,0,0,2.29,0l10.35-10.34a6.49,6.49,0,0,1,9.19,0l10.34,10.34a6.51,6.51,0,0,1,0,9.2L118,138.89a3.21,3.21,0,0,1-1,2.09,3.25,3.25,0,1,1-2.5-5.54l11.12-11.12a1.62,1.62,0,0,0,0-2.3l-10.34-10.34a1.62,1.62,0,0,0-2.3,0L102.72,122a6.49,6.49,0,0,1-9.19,0l-2.3-2.3a6.49,6.49,0,0,1,0-9.19l18.39-18.38a6.49,6.49,0,0,1,9.19,0l18.38,18.38a1.64,1.64,0,0,0,2.3,0l2.3-2.3a1.64,1.64,0,0,0,0-2.3L115.36,79.51a1.62,1.62,0,0,0-2.3,0L86.63,105.93a6.49,6.49,0,0,1-9.19,0l-2.3-2.29a6.52,6.52,0,0,1,0-9.2L109.62,60a6.49,6.49,0,0,1,9.19,0l11.6,11.61V69.92a6.5,6.5,0,0,1,6.5-6.5h3.25a6.5,6.5,0,0,1,6.5,6.5V87.83l7.4,7.39a3.25,3.25,0,0,1,2.09,5.54Z"/><path class="b3844363-5e36-4949-b0e6-9248d951b818" d="M612.42,61H624.1v3.65h-3.71v11H616.1v-11h-3.68Zm13.09,0h4.72l3.34,7.78L637,61h4.72V75.62h-3.85V67.39l-2.77,6.81h-2.92l-2.77-6.81v8.23h-3.85Z"/><path class="b3844363-5e36-4949-b0e6-9248d951b818" d="M271.65,61v78H254.31V107h-34v32H202.92V61h17.35V91.75h34V61Zm10.65,39c0-22.41,16.77-39,39.65-39s39.64,16.48,39.64,39S344.72,139,322,139,282.3,122.41,282.3,100Zm62.09.39c0-14.19-9.63-23.9-22.44-23.9s-22.45,9.71-22.45,23.9,9.64,23.89,22.45,23.89S344.39,114.57,344.39,100.39ZM368.8,100c0-22.41,16.77-39,39.65-39s39.64,16.48,39.64,39-16.87,39-39.64,39S368.8,122.41,368.8,100Zm62.09.39c0-14.19-9.63-23.9-22.44-23.9S386,86.2,386,100.39s9.64,23.89,22.45,23.89S430.89,114.57,430.89,100.39Zm96.58,17.33c0,13.48-10.28,21.28-30,21.28H458.74V61h36.61c18.74,0,28.38,8.13,28.38,20.28a18.86,18.86,0,0,1-10,17.16C522.12,101.23,527.47,107.91,527.47,117.72ZM476.71,76.06V93.67h16.5c8.1,0,12.5-3,12.5-8.86s-4.4-8.75-12.5-8.75Zm32.59,39.47c0-6.29-4.61-9.28-13.22-9.28H476.71v18.46h19.37C504.69,124.71,509.3,121.93,509.3,115.53Zm23.38,14.74,5.69-13.14A41.52,41.52,0,0,0,562.28,125c9.94,0,14-3.44,14-8.08,0-14.11-42.13-4.41-42.13-32.42,0-12.82,9.94-23.49,30.53-23.49,9.11,0,18.43,2.26,25.16,6.68l-5.18,13.25A39.67,39.67,0,0,0,564.56,75c-9.94,0-13.77,3.87-13.77,8.61,0,13.9,42.13,4.31,42.13,32,0,12.61-10,23.38-30.74,23.38C550.69,139,539.1,135.44,532.68,130.27Z"/><g id="af8c9af2-9862-419d-99af-9ed380a449b6" data-name="honeywell"><g id="aeb208bc-f53c-4cf1-a34c-4bfa7e0cbf0c" data-name="g7"><polygon id="fad5d619-0260-4bd2-a7f4-180712cf4d6b" data-name="polygon9" class="ae3b5aef-0a07-42c7-b815-6d587da3b026" points="1393.25 135.62 1418.99 135.62 1418.99 44.03 1393.25 44.03 1393.25 135.62 1393.25 135.62"/><polygon id="ba26ba81-931f-4c73-9a8d-1f43ff0ff6cb" data-name="polygon11" class="ae3b5aef-0a07-42c7-b815-6d587da3b026" points="1456.83 44.03 1456.83 135.62 1431.09 135.62 1431.09 44.03 1456.83 44.03 1456.83 44.03"/><polygon id="e30c840b-d172-40c1-a331-6c0a18ea48ca" data-name="polygon13" class="ae3b5aef-0a07-42c7-b815-6d587da3b026" points="834.26 79.61 813.44 79.61 813.44 44.03 779.39 44.03 779.39 135.62 813.44 135.62 813.44 90.2 834.26 90.2 834.26 135.62 868.33 135.62 868.33 44.03 834.26 44.03 834.26 79.61 834.26 79.61"/><path id="a28c7f90-a25c-44bb-96be-e371f79587a9" data-name="path15" class="ae3b5aef-0a07-42c7-b815-6d587da3b026" d="M994.16,78.09l-2.08-6h-28v63.6h28V97.4h0c0-8.33,5.29-12.88,9.84-12.88,3.78,0,8.7.76,8.7,9.09h0v42h28V94.36h0c0-23.08-25.92-32.15-44.47-16.27Z"/><path id="b0f92615-7932-4922-b87e-20c4feb93f1c" data-name="path17" class="ae3b5aef-0a07-42c7-b815-6d587da3b026" d="M1281.79,108.93l-13-36.9h-19.12l-13,38.4L1223,72h-37.48L1172,104.43,1153.12,72h-32l37.66,64.35-4.92,12.1h0c-1.71,3.8-5.79,4-6.59.39a11.78,11.78,0,0,0-23.55,0v0c0,6.81,6.86,15.71,20.3,15.13s19.1-11.72,21-16.45h0l31.12-75.26,22.49,63.33h20.4l12.49-36.53,12.87,36.53h19.3L1305.47,72h-11.22l-12.49,36.9Z"/><path id="ab64361b-8919-41c8-8990-e4717d93d09e" data-name="path19" class="ae3b5aef-0a07-42c7-b815-6d587da3b026" d="M916.58,68.81c-21.43,0-38.81,15.93-38.81,35.59S895.15,140,916.58,140s38.8-15.94,38.8-35.59S938,68.81,916.58,68.81Zm9.6,52.23a9.65,9.65,0,0,1-19.3,0h0V87.74h0a9.65,9.65,0,0,1,19.3,0h0Z"/><path id="b401979f-315f-4099-a8c9-f916cc8c0c8c" data-name="path21" class="ae3b5aef-0a07-42c7-b815-6d587da3b026" d="M1124.25,109.51a43.78,43.78,0,0,0,.3-5.11c0-19.66-17.37-35.59-38.8-35.59S1047,84.74,1047,104.4s17.37,35.59,38.8,35.59c14.73,0,27.53-7.53,34.11-18.61h0l-8.57-3.17h0a30.37,30.37,0,0,1-25.54,13.2c-5.33,0-9.6-5-9.6-10.38h0V109.5Zm-48.16-21.77a9.66,9.66,0,0,1,19.31,0h0v12.68h-19.31V87.74Z"/><path id="ab20dac5-f916-4fb5-9a33-d99f9572e297" data-name="path23" class="ae3b5aef-0a07-42c7-b815-6d587da3b026" d="M1383.49,109.51a41.6,41.6,0,0,0,.31-5.11c0-19.66-17.37-35.59-38.8-35.59s-38.75,15.93-38.75,35.59S1323.62,140,1345.06,140c14.72,0,27.59-7.53,34.11-18.61h0l-8.58-3.17h0a30.33,30.33,0,0,1-25.53,13.2c-5.33,0-9.6-5-9.6-10.38h0V109.5Zm-48.14-21.77a9.65,9.65,0,1,1,19.29,0h0v12.68h-19.29Z"/></g></g></svg>