<svg id="badcb7ec-c758-4f37-9cdf-49ca1696327d" data-name="Ebene 1" xmlns="http://www.w3.org/2000/svg" xmlns:xlink="http://www.w3.org/1999/xlink" viewBox="0 0 1680 200"><defs><style>.ea076776-c4bd-4b3a-989e-d56cca88d232{fill:#fff;}.afe6b15e-3b72-49ae-9786-3fd2bffe31ec,.e8ed6702-45cf-4992-8ee5-4d0ddcfb79d1,.ea076776-c4bd-4b3a-989e-d56cca88d232{fill-rule:evenodd;}.e1387c03-9a38-4829-8311-50eab37e2e2c{fill:none;stroke:#ccc;stroke-miterlimit:10;}.ad7a301b-2076-44a8-b3b7-7c96e8606497{fill:#f9b213;}.afe6b15e-3b72-49ae-9786-3fd2bffe31ec{fill:#1d1d1b;}.e2935337-7f84-48ee-9331-4468794e148c{mask:url(#f4e3290a-1fd3-4ec2-b2a4-4259d42dda95);}.b5ade40c-966b-4da6-add2-f9fd5bbd9cdd,.e8ed6702-45cf-4992-8ee5-4d0ddcfb79d1{fill:#009ee2;}</style><mask id="f4e3290a-1fd3-4ec2-b2a4-4259d42dda95" x="779.78" y="47.21" width="349.77" height="100" maskUnits="userSpaceOnUse"><g id="bdf35089-c7b5-4ed5-a91c-52459dabe7fc" data-name="a"><path class="ea076776-c4bd-4b3a-989e-d56cca88d232" d="M779.78,147.22h349.77v-100H779.78Z"/></g></mask></defs><title>HOOBS_x_freeathome</title><g id="a3835a37-f763-481b-acd3-c42d82d5a1db" data-name="Stroke"><line class="e1387c03-9a38-4829-8311-50eab37e2e2c" x1="700.5" y1="60" x2="700.5" y2="140"/></g><path class="ad7a301b-2076-44a8-b3b7-7c96e8606497" d="M154.17,41.5h-78A19.5,19.5,0,0,0,56.67,61v78a19.5,19.5,0,0,0,19.5,19.5h78a19.5,19.5,0,0,0,19.5-19.5V61A19.5,19.5,0,0,0,154.17,41.5Zm2,59.26a3.24,3.24,0,0,1-4.59,0,3.21,3.21,0,0,1-.95-2.09l-8.82-8.82V69.92a1.63,1.63,0,0,0-1.63-1.63h-3.25a1.63,1.63,0,0,0-1.62,1.63V83.6l-4.88-5.13-15-15a1.62,1.62,0,0,0-2.3,0L78.59,97.89a1.64,1.64,0,0,0,0,2.3l2.3,2.3a1.64,1.64,0,0,0,2.3,0l26.43-26.43a6.49,6.49,0,0,1,9.19,0l26.43,26.43a6.51,6.51,0,0,1,0,9.19l-2.3,2.3a6.49,6.49,0,0,1-9.19,0L115.36,95.59a1.64,1.64,0,0,0-2.3,0L94.68,114a1.62,1.62,0,0,0,0,2.3l2.3,2.29a1.61,1.61,0,0,0,2.29,0l10.35-10.34a6.49,6.49,0,0,1,9.19,0l10.34,10.34a6.51,6.51,0,0,1,0,9.2L118,138.89a3.21,3.21,0,0,1-1,2.09,3.25,3.25,0,1,1-2.5-5.54l11.12-11.12a1.62,1.62,0,0,0,0-2.3l-10.34-10.34a1.62,1.62,0,0,0-2.3,0L102.72,122a6.49,6.49,0,0,1-9.19,0l-2.3-2.3a6.49,6.49,0,0,1,0-9.19l18.39-18.38a6.49,6.49,0,0,1,9.19,0l18.38,18.38a1.64,1.64,0,0,0,2.3,0l2.3-2.3a1.64,1.64,0,0,0,0-2.3L115.36,79.51a1.62,1.62,0,0,0-2.3,0L86.63,105.93a6.49,6.49,0,0,1-9.19,0l-2.3-2.29a6.52,6.52,0,0,1,0-9.2L109.62,60a6.49,6.49,0,0,1,9.19,0l11.6,11.61V69.92a6.5,6.5,0,0,1,6.5-6.5h3.25a6.5,6.5,0,0,1,6.5,6.5V87.83l7.4,7.39a3.25,3.25,0,0,1,2.09,5.54Z"/><path class="ad7a301b-2076-44a8-b3b7-7c96e8606497" d="M612.42,61H624.1v3.65h-3.71v11H616.1v-11h-3.68Zm13.09,0h4.72l3.34,7.78L637,61h4.72V75.62h-3.85V67.39l-2.77,6.81h-2.92l-2.77-6.81v8.23h-3.85Z"/><path class="ad7a301b-2076-44a8-b3b7-7c96e8606497" d="M271.65,61v78H254.31V107h-34v32H202.92V61h17.35V91.75h34V61Zm10.65,39c0-22.41,16.77-39,39.65-39s39.64,16.48,39.64,39S344.72,139,322,139,282.3,122.41,282.3,100Zm62.09.39c0-14.19-9.63-23.9-22.44-23.9s-22.45,9.71-22.45,23.9,9.64,23.89,22.45,23.89S344.39,114.57,344.39,100.39ZM368.8,100c0-22.41,16.77-39,39.65-39s39.64,16.48,39.64,39-16.87,39-39.64,39S368.8,122.41,368.8,100Zm62.09.39c0-14.19-9.63-23.9-22.44-23.9S386,86.2,386,100.39s9.64,23.89,22.45,23.89S430.89,114.57,430.89,100.39Zm96.58,17.33c0,13.48-10.28,21.28-30,21.28H458.74V61h36.61c18.74,0,28.38,8.13,28.38,20.28a18.86,18.86,0,0,1-10,17.16C522.12,101.23,527.47,107.91,527.47,117.72ZM476.71,76.06V93.67h16.5c8.1,0,12.5-3,12.5-8.86s-4.4-8.75-12.5-8.75Zm32.59,39.47c0-6.29-4.61-9.28-13.22-9.28H476.71v18.46h19.37C504.69,124.71,509.3,121.93,509.3,115.53Zm23.38,14.74,5.69-13.14A41.52,41.52,0,0,0,562.28,125c9.94,0,14-3.44,14-8.08,0-14.11-42.13-4.41-42.13-32.42,0-12.82,9.94-23.49,30.53-23.49,9.11,0,18.43,2.26,25.16,6.68l-5.18,13.25A39.67,39.67,0,0,0,564.56,75c-9.94,0-13.77,3.87-13.77,8.61,0,13.9,42.13,4.31,42.13,32,0,12.61-10,23.38-30.74,23.38C550.69,139,539.1,135.44,532.68,130.27Z"/><path class="afe6b15e-3b72-49ae-9786-3fd2bffe31ec" d="M854.25,92.29c0,2.59-1.7,4.28-5.08,4.28a21.27,21.27,0,0,1-2.83-.17v-8c.56-.05,1.87-.05,2.27-.05C852,88.35,854.25,89.5,854.25,92.29Zm-.43-12.11c0,2.54-1.83,4.07-5.37,4.07-.83,0-1.47,0-2.11,0V76.75c.92,0,1.95-.09,3-.09C852.62,76.66,853.82,78.06,853.82,80.18Zm6,12a6.25,6.25,0,0,0-4.77-6.4v-.08a6.92,6.92,0,0,0,4.25-6.4c0-4.58-3.22-7.07-9-7.07-3.3,0-6.8.08-9.06.21V101c3.38,0,6.2.08,7.83.08,8.11,0,10.77-4.74,10.77-8.89Zm29.77-2.59V72.22h-5.32v17.7c0,4.84-1.74,6.6-5.87,6.6-4.62,0-5.77-2.52-5.77-6.1V72.21h-5.37V90.76c0,5.43,2,10.3,10.77,10.3C885.34,101.06,889.55,97.36,889.55,89.58ZM913.74,92c0-8.74-11.27-6.87-11.27-11.88,0-2,1.51-3.39,4.48-3.39a18.75,18.75,0,0,1,5,.8l0-4.78a28.17,28.17,0,0,0-4.84-.49c-6.43,0-10.2,3.43-10.2,8.4,0,9.18,11.23,6.74,11.23,12.08,0,2.57-2,3.68-4.64,3.68a19.34,19.34,0,0,1-5.84-1l-.07,5.07a20.92,20.92,0,0,0,5.47.66c6.59,0,10.6-3.85,10.6-9.1Zm26,7.85L939.15,95a15.09,15.09,0,0,1-5.52,1.17c-5.72,0-8.29-3.43-8.29-9.59,0-5.48,2.61-9.46,7.91-9.46a20.58,20.58,0,0,1,5.73.84l.59-4.94a23.54,23.54,0,0,0-6-.75c-9.52,0-14.23,6.27-14.23,15.23,0,7,3.2,13.61,13.14,13.61A22.21,22.21,0,0,0,939.78,99.81Zm27.91,1.25V72.22h-5.32V83.75H950.68V72.22h-5.32v28.84h5.32V88.54h11.69v12.52Z"/><g class="e2935337-7f84-48ee-9331-4468794e148c"><path class="afe6b15e-3b72-49ae-9786-3fd2bffe31ec" d="M975.13,89.52h9.3V85.68h-9.3Zm24.19,3.19V72.22h-5.46V92.5c0,3.08-1.13,3.92-3.1,3.92a7.79,7.79,0,0,1-2.61-.42v4.73a19.79,19.79,0,0,0,3.53.33C997.43,101.06,999.32,97.39,999.32,92.71Zm20.37-1.95h-7.84l2.54-7.35q.78-2.39,1.34-4.83h0a35.6,35.6,0,0,0,1.29,4.62l2.63,7.56Zm9.39,10.3-10-28.84h-6.14L1003,101.06h5.47l2-5.89h10.64l2,5.89Zm20.47,0V96.32h-9.61V88.5h9.13V84h-9.13v-7.1h9.61V72.22h-14.88v28.84Zm29.64-27.64a29.39,29.39,0,0,0-8.07-1.2c-9.9,0-16,6.26-16,15.06,0,8.55,5.37,13.78,14.42,13.78a27.38,27.38,0,0,0,9.77-1.74V86h-5.5v9.75a12.73,12.73,0,0,1-3.63.5c-5.8,0-9.1-3.49-9.1-9.43,0-6.26,4.06-9.75,9.69-9.75a21.52,21.52,0,0,1,7.57,1.41l.84-5Zm22.45,27.64V96.32H1092V88.5h9.13V84H1092v-7.1h9.61V72.22h-14.88v28.84Zm20.26-20.22c0,2.68-2,4.37-5.33,4.37-.84,0-1.61,0-2-.08V76.85a14.89,14.89,0,0,1,2.16-.13C1120.21,76.72,1121.9,78.08,1121.9,80.84Zm7.65,20.22-6.85-9.64c-.72-1-1.52-2.09-2.32-3.15,4.31-.68,7.27-3.73,7.27-8,0-5.87-4.06-8.07-10.36-8.07-3.3,0-6,0-8.2.16v28.68h5.49V89.21h.22l7.94,11.85Z"/><path class="e8ed6702-45cf-4992-8ee5-4d0ddcfb79d1" d="M815.74,91.74a5.06,5.06,0,0,1,0,10.11H784.81a5.06,5.06,0,0,1,0-10.11Zm-9-4.7a4.47,4.47,0,0,1-4.42-4.51A4.51,4.51,0,0,1,805,78.4,11.66,11.66,0,0,0,811.55,68,11.33,11.33,0,1,0,795.43,78.4a4.18,4.18,0,0,1,2.65,4.13A4.47,4.47,0,0,1,793.66,87a4.29,4.29,0,0,1-2.29-.53,20.69,20.69,0,0,1-11.59-18.66,20.28,20.28,0,1,1,40.55,0c0,8.32-4.32,15.39-11.29,18.65a4.67,4.67,0,0,1-2.32.53Zm-26.11,30.31a11.4,11.4,0,0,1-.76-3.17,6.74,6.74,0,0,1,6.69-6.79h7.22a4.57,4.57,0,0,1,4.53,4.61,4.5,4.5,0,0,1-4.48,4.53h-3.28L799.92,133l9.93-16.49h-3.23A4.5,4.5,0,0,1,802.1,112v0a4.56,4.56,0,0,1,4.52-4.61h7.18a6.74,6.74,0,0,1,6.73,6.75v0a6.78,6.78,0,0,1-.79,3.18l-16.16,28a4.32,4.32,0,0,1-3.52,1.82,4.26,4.26,0,0,1-3.47-1.87l-15.93-28h0Z"/></g><path class="b5ade40c-966b-4da6-add2-f9fd5bbd9cdd" d="M1214.37,114.88V84.19h-5V79.26h5V77.57c0-5,1.11-9.57,4.12-12.44a12.42,12.42,0,0,1,8.69-3.31,15.13,15.13,0,0,1,5.52,1l-.89,5a9.66,9.66,0,0,0-4.12-.81c-5.52,0-6.91,4.85-6.91,10.3v1.91h8.61v4.93h-8.61v30.69Z"/><path class="b5ade40c-966b-4da6-add2-f9fd5bbd9cdd" d="M1235.2,90.38c0-4.2-.07-7.8-.29-11.12h5.66l.22,7h.3c1.62-4.79,5.52-7.81,9.86-7.81a6.86,6.86,0,0,1,1.84.23v6.1a10.19,10.19,0,0,0-2.21-.22c-4.56,0-7.8,3.46-8.68,8.32a17.83,17.83,0,0,0-.3,3v19h-6.4Z"/><path class="b5ade40c-966b-4da6-add2-f9fd5bbd9cdd" d="M1262.14,98.25c.14,8.76,5.74,12.36,12.21,12.36a23.37,23.37,0,0,0,9.86-1.84l1.11,4.64a28.84,28.84,0,0,1-11.85,2.21c-11,0-17.51-7.21-17.51-18s6.32-19.21,16.7-19.21c11.63,0,14.72,10.23,14.72,16.78a25.12,25.12,0,0,1-.22,3Zm19-4.64c.08-4.12-1.69-10.52-9-10.52-6.55,0-9.42,6-9.94,10.52Z"/><path class="b5ade40c-966b-4da6-add2-f9fd5bbd9cdd" d="M1299,98.25c.15,8.76,5.74,12.36,12.21,12.36a23.46,23.46,0,0,0,9.87-1.84l1.1,4.64a28.84,28.84,0,0,1-11.85,2.21c-11,0-17.51-7.21-17.51-18s6.33-19.21,16.7-19.21c11.63,0,14.72,10.23,14.72,16.78a25.12,25.12,0,0,1-.22,3Zm19-4.64c.07-4.12-1.7-10.52-9-10.52-6.55,0-9.42,6-9.94,10.52Z"/><path class="b5ade40c-966b-4da6-add2-f9fd5bbd9cdd" d="M1365.46,119.59a26.74,26.74,0,0,1-13.1,3c-12.07,0-22.29-8.83-22.29-23,0-15.16,10.52-28.26,26.86-28.26,12.8,0,21.41,9,21.41,21.26,0,11-6.18,17.52-13.1,17.52-2.94,0-5.66-2-5.44-6.48h-.3c-2.57,4.35-6,6.48-10.37,6.48s-8-3.46-8-9.27a17.38,17.38,0,0,1,17.44-17.45,19.43,19.43,0,0,1,7.87,1.55L1364,98.25c-1.1,5.59-.22,8.17,2.21,8.24,3.75.08,8-4.93,8-13.46,0-10.68-6.4-18.33-17.81-18.33-12,0-22.08,9.49-22.08,24.43,0,12.29,8,19.87,18.91,19.87a23,23,0,0,0,11.12-2.57Zm-4-31.79a12.83,12.83,0,0,0-3.68-.51c-6.48,0-11.7,6.1-11.7,13.24,0,3.24,1.61,5.6,4.85,5.6,4.27,0,8.17-5.45,9-10Z"/><path class="b5ade40c-966b-4da6-add2-f9fd5bbd9cdd" d="M1386.51,62.63H1393V84.86h.15a12.1,12.1,0,0,1,4.63-4.57,13.41,13.41,0,0,1,6.63-1.84c4.78,0,12.43,3,12.43,15.24v21.19h-6.47V94.42c0-5.74-2.14-10.59-8.24-10.59a9.31,9.31,0,0,0-8.69,6.47,7.82,7.82,0,0,0-.44,3.09v21.49h-6.48Z"/><path class="b5ade40c-966b-4da6-add2-f9fd5bbd9cdd" d="M1459.59,96.78c0,13.17-9.12,18.91-17.73,18.91-9.64,0-17.07-7.06-17.07-18.32,0-11.92,7.8-18.92,17.66-18.92C1452.68,78.45,1459.59,85.89,1459.59,96.78Zm-28.26.37c0,7.8,4.49,13.69,10.82,13.69,6.18,0,10.82-5.82,10.82-13.84,0-6-3-13.69-10.67-13.69S1431.33,90.38,1431.33,97.15Z"/><path class="b5ade40c-966b-4da6-add2-f9fd5bbd9cdd" d="M1467.76,88.9c0-3.68-.07-6.69-.29-9.64h5.67l.29,5.74h.22a12.29,12.29,0,0,1,11.19-6.55,10.53,10.53,0,0,1,10.08,7.14h.15a14.65,14.65,0,0,1,4-4.63,12.17,12.17,0,0,1,7.88-2.51c4.71,0,11.7,3.1,11.7,15.46v21h-6.33V94.72c0-6.85-2.5-11-7.73-11a8.38,8.38,0,0,0-7.65,5.89,10.47,10.47,0,0,0-.52,3.24v22h-6.33V93.54c0-5.67-2.5-9.79-7.43-9.79-4.05,0-7,3.24-8,6.48a8.88,8.88,0,0,0-.52,3.16v21.49h-6.33Z"/><path class="b5ade40c-966b-4da6-add2-f9fd5bbd9cdd" d="M1532.75,98.25c.15,8.76,5.74,12.36,12.22,12.36a23.44,23.44,0,0,0,9.86-1.84l1.1,4.64a28.84,28.84,0,0,1-11.85,2.21c-11,0-17.51-7.21-17.51-18s6.33-19.21,16.7-19.21c11.63,0,14.72,10.23,14.72,16.78a23.18,23.18,0,0,1-.22,3Zm19-4.64c.07-4.12-1.7-10.52-9-10.52-6.55,0-9.42,6-9.94,10.52Z"/></svg>