<svg id="af472581-8a11-461b-9b19-e82faac1ff1f" data-name="Ebene 1" xmlns="http://www.w3.org/2000/svg" viewBox="0 0 1680 200"><defs><style>.a956388b-c768-477a-abf9-a58bb656ec13{fill:none;stroke:#ccc;stroke-miterlimit:10;}.b55b1320-e6d7-476c-9fe4-a89e9646c82a{fill:#f9b213;}.b6236564-254f-4df5-a925-23edc671fb84{fill:#ccc;}</style></defs><title>HOOBS_x_sonos</title><g id="a57b290e-624c-4756-9c4e-661fd92d2ac1" data-name="Stroke"><line class="a956388b-c768-477a-abf9-a58bb656ec13" x1="700.5" y1="60" x2="700.5" y2="140"/></g><path class="b55b1320-e6d7-476c-9fe4-a89e9646c82a" d="M154.17,41.5h-78A19.5,19.5,0,0,0,56.67,61v78a19.5,19.5,0,0,0,19.5,19.5h78a19.5,19.5,0,0,0,19.5-19.5V61A19.5,19.5,0,0,0,154.17,41.5Zm2,59.26a3.24,3.24,0,0,1-4.59,0,3.21,3.21,0,0,1-.95-2.09l-8.82-8.82V69.92a1.63,1.63,0,0,0-1.63-1.63h-3.25a1.63,1.63,0,0,0-1.62,1.63V83.6l-4.88-5.13-15-15a1.62,1.62,0,0,0-2.3,0L78.59,97.89a1.64,1.64,0,0,0,0,2.3l2.3,2.3a1.64,1.64,0,0,0,2.3,0l26.43-26.43a6.49,6.49,0,0,1,9.19,0l26.43,26.43a6.51,6.51,0,0,1,0,9.19l-2.3,2.3a6.49,6.49,0,0,1-9.19,0L115.36,95.59a1.64,1.64,0,0,0-2.3,0L94.68,114a1.62,1.62,0,0,0,0,2.3l2.3,2.29a1.61,1.61,0,0,0,2.29,0l10.35-10.34a6.49,6.49,0,0,1,9.19,0l10.34,10.34a6.51,6.51,0,0,1,0,9.2L118,138.89a3.21,3.21,0,0,1-1,2.09,3.25,3.25,0,1,1-2.5-5.54l11.12-11.12a1.62,1.62,0,0,0,0-2.3l-10.34-10.34a1.62,1.62,0,0,0-2.3,0L102.72,122a6.49,6.49,0,0,1-9.19,0l-2.3-2.3a6.49,6.49,0,0,1,0-9.19l18.39-18.38a6.49,6.49,0,0,1,9.19,0l18.38,18.38a1.64,1.64,0,0,0,2.3,0l2.3-2.3a1.64,1.64,0,0,0,0-2.3L115.36,79.51a1.62,1.62,0,0,0-2.3,0L86.63,105.93a6.49,6.49,0,0,1-9.19,0l-2.3-2.29a6.52,6.52,0,0,1,0-9.2L109.62,60a6.49,6.49,0,0,1,9.19,0l11.6,11.61V69.92a6.5,6.5,0,0,1,6.5-6.5h3.25a6.5,6.5,0,0,1,6.5,6.5V87.83l7.4,7.39a3.25,3.25,0,0,1,2.09,5.54Z"/><path class="b55b1320-e6d7-476c-9fe4-a89e9646c82a" d="M612.42,61H624.1v3.65h-3.71v11H616.1v-11h-3.68Zm13.09,0h4.72l3.34,7.78L637,61h4.72V75.62h-3.85V67.39l-2.77,6.81h-2.92l-2.77-6.81v8.23h-3.85Z"/><path class="b55b1320-e6d7-476c-9fe4-a89e9646c82a" d="M271.65,61v78H254.31V107h-34v32H202.92V61h17.35V91.75h34V61Zm10.65,39c0-22.41,16.77-39,39.65-39s39.64,16.48,39.64,39S344.72,139,322,139,282.3,122.41,282.3,100Zm62.09.39c0-14.19-9.63-23.9-22.44-23.9s-22.45,9.71-22.45,23.9,9.64,23.89,22.45,23.89S344.39,114.57,344.39,100.39ZM368.8,100c0-22.41,16.77-39,39.65-39s39.64,16.48,39.64,39-16.87,39-39.64,39S368.8,122.41,368.8,100Zm62.09.39c0-14.19-9.63-23.9-22.44-23.9S386,86.2,386,100.39s9.64,23.89,22.45,23.89S430.89,114.57,430.89,100.39Zm96.58,17.33c0,13.48-10.28,21.28-30,21.28H458.74V61h36.61c18.74,0,28.38,8.13,28.38,20.28a18.86,18.86,0,0,1-10,17.16C522.12,101.23,527.47,107.91,527.47,117.72ZM476.71,76.06V93.67h16.5c8.1,0,12.5-3,12.5-8.86s-4.4-8.75-12.5-8.75Zm32.59,39.47c0-6.29-4.61-9.28-13.22-9.28H476.71v18.46h19.37C504.69,124.71,509.3,121.93,509.3,115.53Zm23.38,14.74,5.69-13.14A41.52,41.52,0,0,0,562.28,125c9.94,0,14-3.44,14-8.08,0-14.11-42.13-4.41-42.13-32.42,0-12.82,9.94-23.49,30.53-23.49,9.11,0,18.43,2.26,25.16,6.68l-5.18,13.25A39.67,39.67,0,0,0,564.56,75c-9.94,0-13.77,3.87-13.77,8.61,0,13.9,42.13,4.31,42.13,32,0,12.61-10,23.38-30.74,23.38C550.69,139,539.1,135.44,532.68,130.27Z"/><g id="f1342136-b02b-40c6-b26f-fa5a37f8886b" data-name="sonos"><path id="ee9a6d63-6d8e-468f-b5f8-d4f71c66f889" data-name="logo-sonos" class="b6236564-254f-4df5-a925-23edc671fb84" d="M1108.81,44.24h21.32V158.38l-72-67.06v63.6h-21.32V41.12l72,67.16ZM1003.09,99.77A59.75,59.75,0,1,1,943.34,40,59.74,59.74,0,0,1,1003.09,99.77Zm-21.9,0a38.18,38.18,0,0,0-38-38.33c-20.93,0-37.84,17.2-37.84,38.33s17,38.34,37.84,38.34a38.16,38.16,0,0,0,37.94-38.34Zm-134,1C841.52,96.44,834,93,823,89.43c-21.62-6.91-21.62-12.29-21.62-15,0-6.15,6.82-12.49,18.35-12.49a34.34,34.34,0,0,1,20,6.92L841.25,70l17.19-11.63-1.94-2.26A50.47,50.47,0,0,0,819.62,40c-11.06,0-21.23,3.56-28.63,10a32.64,32.64,0,0,0-11.62,24.5c0,9.81,4.32,18.07,12.77,24.5,5.67,4.32,13.16,7.78,24.21,11.33,21.61,6.83,21.61,12.31,21.61,15,0,6.15-6.82,12.49-18.34,12.49a34.29,34.29,0,0,1-20-6.92l-1.54-1.16-17.2,11.64,1.93,2.2a50.48,50.48,0,0,0,36.79,16c11,0,21.23-3.55,28.62-10a32.69,32.69,0,0,0,11.64-24.44c0-9.69-4.22-17.85-12.67-24.39Zm316.89-.48A59.75,59.75,0,1,1,1223.86,160h0a59.83,59.83,0,0,1-59.73-59.76Zm21.81,0c0,21.14,17,38.34,37.85,38.34s37.85-17.2,37.85-38.34S1244.59,62,1223.74,62s-37.85,17.2-37.85,38.33Zm134-1.06c5.67,4.33,13.16,7.78,24.21,11.34,21.61,6.92,21.61,12.3,21.61,15,0,6.15-6.82,12.49-18.35,12.49a34.29,34.29,0,0,1-20-6.92l-1.53-1.15-17.19,11.63,1.91,2.2a50.48,50.48,0,0,0,36.8,16c11,0,21.22-3.55,28.62-10a32.51,32.51,0,0,0,11.63-24.49c0-9.8-4.33-18.07-12.78-24.5-5.67-4.33-13.16-7.79-24.21-11.34-21.61-6.92-21.61-12.3-21.61-15,0-6.14,6.82-12.48,18.34-12.48a34.47,34.47,0,0,1,20,6.91l1.53,1.15,17.2-11.62-1.92-2.21a50.56,50.56,0,0,0-36.8-16c-11,0-21.22,3.55-28.62,10a32.78,32.78,0,0,0-11.62,24.51c.09,9.8,4.32,18.06,12.77,24.5Z"/></g></svg>