<svg id="f61f4c61-b2cf-42ee-9bda-56bde531671f" data-name="Ebene 1" xmlns="http://www.w3.org/2000/svg" xmlns:xlink="http://www.w3.org/1999/xlink" viewBox="0 0 1680 200"><defs><style>.b9708fbb-633c-4da9-adfe-5e831581a2b6{fill:none;stroke:#ccc;stroke-miterlimit:10;}.bea4f611-f214-4249-ad4c-76b0454b198e{fill:#f9b213;}.ee5d57de-5c22-42f2-a288-22d80d18b044{fill:#ccc;}.b16326b6-3472-48c9-bbd8-71d02427f40d,.ee5d57de-5c22-42f2-a288-22d80d18b044{fill-rule:evenodd;}.b16326b6-3472-48c9-bbd8-71d02427f40d{fill:url(#b7f719dc-92d5-4b17-aabd-f6f1ea50cb3e);}</style><radialGradient id="b7f719dc-92d5-4b17-aabd-f6f1ea50cb3e" cx="8891.15" cy="16201.38" r="261.2" gradientTransform="translate(-1201.02 -6711.4) scale(0.26 0.42)" gradientUnits="userSpaceOnUse"><stop offset="0" stop-color="#f9be03"/><stop offset="1" stop-color="#cc7c19"/></radialGradient></defs><title>HOOBS_x_plex</title><g id="bc66394d-46ea-48c7-bbdb-e00b464982a8" data-name="Stroke"><line class="b9708fbb-633c-4da9-adfe-5e831581a2b6" x1="700.5" y1="60" x2="700.5" y2="140"/></g><path class="bea4f611-f214-4249-ad4c-76b0454b198e" d="M154.17,41.5h-78A19.5,19.5,0,0,0,56.67,61v78a19.5,19.5,0,0,0,19.5,19.5h78a19.5,19.5,0,0,0,19.5-19.5V61A19.5,19.5,0,0,0,154.17,41.5Zm2,59.26a3.24,3.24,0,0,1-4.59,0,3.21,3.21,0,0,1-.95-2.09l-8.82-8.82V69.92a1.63,1.63,0,0,0-1.63-1.63h-3.25a1.63,1.63,0,0,0-1.62,1.63V83.6l-4.88-5.13-15-15a1.62,1.62,0,0,0-2.3,0L78.59,97.89a1.64,1.64,0,0,0,0,2.3l2.3,2.3a1.64,1.64,0,0,0,2.3,0l26.43-26.43a6.49,6.49,0,0,1,9.19,0l26.43,26.43a6.51,6.51,0,0,1,0,9.19l-2.3,2.3a6.49,6.49,0,0,1-9.19,0L115.36,95.59a1.64,1.64,0,0,0-2.3,0L94.68,114a1.62,1.62,0,0,0,0,2.3l2.3,2.29a1.61,1.61,0,0,0,2.29,0l10.35-10.34a6.49,6.49,0,0,1,9.19,0l10.34,10.34a6.51,6.51,0,0,1,0,9.2L118,138.89a3.21,3.21,0,0,1-1,2.09,3.25,3.25,0,1,1-2.5-5.54l11.12-11.12a1.62,1.62,0,0,0,0-2.3l-10.34-10.34a1.62,1.62,0,0,0-2.3,0L102.72,122a6.49,6.49,0,0,1-9.19,0l-2.3-2.3a6.49,6.49,0,0,1,0-9.19l18.39-18.38a6.49,6.49,0,0,1,9.19,0l18.38,18.38a1.64,1.64,0,0,0,2.3,0l2.3-2.3a1.64,1.64,0,0,0,0-2.3L115.36,79.51a1.62,1.62,0,0,0-2.3,0L86.63,105.93a6.49,6.49,0,0,1-9.19,0l-2.3-2.29a6.52,6.52,0,0,1,0-9.2L109.62,60a6.49,6.49,0,0,1,9.19,0l11.6,11.61V69.92a6.5,6.5,0,0,1,6.5-6.5h3.25a6.5,6.5,0,0,1,6.5,6.5V87.83l7.4,7.39a3.25,3.25,0,0,1,2.09,5.54Z"/><path class="bea4f611-f214-4249-ad4c-76b0454b198e" d="M612.42,61H624.1v3.65h-3.71v11H616.1v-11h-3.68Zm13.09,0h4.72l3.34,7.78L637,61h4.72V75.62h-3.85V67.39l-2.77,6.81h-2.92l-2.77-6.81v8.23h-3.85Z"/><path class="bea4f611-f214-4249-ad4c-76b0454b198e" d="M271.65,61v78H254.31V107h-34v32H202.92V61h17.35V91.75h34V61Zm10.65,39c0-22.41,16.77-39,39.65-39s39.64,16.48,39.64,39S344.72,139,322,139,282.3,122.41,282.3,100Zm62.09.39c0-14.19-9.63-23.9-22.44-23.9s-22.45,9.71-22.45,23.9,9.64,23.89,22.45,23.89S344.39,114.57,344.39,100.39ZM368.8,100c0-22.41,16.77-39,39.65-39s39.64,16.48,39.64,39-16.87,39-39.64,39S368.8,122.41,368.8,100Zm62.09.39c0-14.19-9.63-23.9-22.44-23.9S386,86.2,386,100.39s9.64,23.89,22.45,23.89S430.89,114.57,430.89,100.39Zm96.58,17.33c0,13.48-10.28,21.28-30,21.28H458.74V61h36.61c18.74,0,28.38,8.13,28.38,20.28a18.86,18.86,0,0,1-10,17.16C522.12,101.23,527.47,107.91,527.47,117.72ZM476.71,76.06V93.67h16.5c8.1,0,12.5-3,12.5-8.86s-4.4-8.75-12.5-8.75Zm32.59,39.47c0-6.29-4.61-9.28-13.22-9.28H476.71v18.46h19.37C504.69,124.71,509.3,121.93,509.3,115.53Zm23.38,14.74,5.69-13.14A41.52,41.52,0,0,0,562.28,125c9.94,0,14-3.44,14-8.08,0-14.11-42.13-4.41-42.13-32.42,0-12.82,9.94-23.49,30.53-23.49,9.11,0,18.43,2.26,25.16,6.68l-5.18,13.25A39.67,39.67,0,0,0,564.56,75c-9.94,0-13.77,3.87-13.77,8.61,0,13.9,42.13,4.31,42.13,32,0,12.61-10,23.38-30.74,23.38C550.69,139,539.1,135.44,532.68,130.27Z"/><g id="ffb1dd87-0383-416f-9fb7-517bf7ab7e87" data-name="plex"><path class="ee5d57de-5c22-42f2-a288-22d80d18b044" d="M1149.54,33.67h-34.78l-34.78,60,34.78,60h34.75l-34.75-59.94Z"/><path class="b16326b6-3472-48c9-bbd8-71d02427f40d" d="M1041.6,33.67h34.78l38.38,60-38.38,60H1041.6l38.38-60Z"/><path class="ee5d57de-5c22-42f2-a288-22d80d18b044" d="M1029.6,153.61H960.38V33.67h69.22V54.51H985.87V80.85h40.69v20.83H985.87v30.93h43.73Zm-155.29,0V33.67h25.44v98.94H948.4v21Z"/><path class="ee5d57de-5c22-42f2-a288-22d80d18b044" d="M850.17,100.7Q838.05,111,815.75,111H804.84v42.66H779.41V90.09h34.78c21.3-.25,22.41-13.29,22.41-17.81,0-4.2,0-17.6-18.93-17.81H779.41V33.67h38.31q21.81,0,33.19,9.4t11.36,28q0,19.35-12.1,29.62Z"/><path class="ee5d57de-5c22-42f2-a288-22d80d18b044" d="M779.41,46.87h25.45V98.32H779.41Z"/></g></svg>