<svg id="bc9efb94-0093-4634-a2da-7c7e13424bc1" data-name="Ebene 1" xmlns="http://www.w3.org/2000/svg" viewBox="0 0 1680 200"><defs><style>.b76e8ba8-31ae-47f3-830a-71cf965eeb4d{fill:none;stroke:#ccc;stroke-miterlimit:10;}.a4a9b766-cb38-43dc-bda5-87133b872fa9{fill:#f9b213;}.f43b2d10-687f-4d2b-a99c-38ac23eebac3{fill:#e94335;}.b7fd48b2-08d1-40b4-a3c1-06725d36f6a9{fill:#34a753;}.aa56bb94-71fb-4ac0-915b-83613bb48a74{fill:#4284f3;}.f14e516b-4762-4522-abba-5a051dcef613{fill:#fabb04;}.a24f2af8-3ef8-4a22-a337-d0fb559e3c1b{fill:#80868a;}.a4976864-907e-4bb5-bb43-5b91e2c22f45{fill:#ccc;}</style></defs><title>HOOBS_x_nest</title><g id="a2e94f48-017d-4519-b9f6-05704c0b7e8b" data-name="Stroke"><line class="b76e8ba8-31ae-47f3-830a-71cf965eeb4d" x1="700.5" y1="60" x2="700.5" y2="140"/></g><path class="a4a9b766-cb38-43dc-bda5-87133b872fa9" d="M154.17,41.5h-78A19.5,19.5,0,0,0,56.67,61v78a19.5,19.5,0,0,0,19.5,19.5h78a19.5,19.5,0,0,0,19.5-19.5V61A19.5,19.5,0,0,0,154.17,41.5Zm2,59.26a3.24,3.24,0,0,1-4.59,0,3.21,3.21,0,0,1-.95-2.09l-8.82-8.82V69.92a1.63,1.63,0,0,0-1.63-1.63h-3.25a1.63,1.63,0,0,0-1.62,1.63V83.6l-4.88-5.13-15-15a1.62,1.62,0,0,0-2.3,0L78.59,97.89a1.64,1.64,0,0,0,0,2.3l2.3,2.3a1.64,1.64,0,0,0,2.3,0l26.43-26.43a6.49,6.49,0,0,1,9.19,0l26.43,26.43a6.51,6.51,0,0,1,0,9.19l-2.3,2.3a6.49,6.49,0,0,1-9.19,0L115.36,95.59a1.64,1.64,0,0,0-2.3,0L94.68,114a1.62,1.62,0,0,0,0,2.3l2.3,2.29a1.61,1.61,0,0,0,2.29,0l10.35-10.34a6.49,6.49,0,0,1,9.19,0l10.34,10.34a6.51,6.51,0,0,1,0,9.2L118,138.89a3.21,3.21,0,0,1-1,2.09,3.25,3.25,0,1,1-2.5-5.54l11.12-11.12a1.62,1.62,0,0,0,0-2.3l-10.34-10.34a1.62,1.62,0,0,0-2.3,0L102.72,122a6.49,6.49,0,0,1-9.19,0l-2.3-2.3a6.49,6.49,0,0,1,0-9.19l18.39-18.38a6.49,6.49,0,0,1,9.19,0l18.38,18.38a1.64,1.64,0,0,0,2.3,0l2.3-2.3a1.64,1.64,0,0,0,0-2.3L115.36,79.51a1.62,1.62,0,0,0-2.3,0L86.63,105.93a6.49,6.49,0,0,1-9.19,0l-2.3-2.29a6.52,6.52,0,0,1,0-9.2L109.62,60a6.49,6.49,0,0,1,9.19,0l11.6,11.61V69.92a6.5,6.5,0,0,1,6.5-6.5h3.25a6.5,6.5,0,0,1,6.5,6.5V87.83l7.4,7.39a3.25,3.25,0,0,1,2.09,5.54Z"/><path class="a4a9b766-cb38-43dc-bda5-87133b872fa9" d="M612.42,61H624.1v3.65h-3.71v11H616.1v-11h-3.68Zm13.09,0h4.72l3.34,7.78L637,61h4.72V75.62h-3.85V67.39l-2.77,6.81h-2.92l-2.77-6.81v8.23h-3.85Z"/><path class="a4a9b766-cb38-43dc-bda5-87133b872fa9" d="M271.65,61v78H254.31V107h-34v32H202.92V61h17.35V91.75h34V61Zm10.65,39c0-22.41,16.77-39,39.65-39s39.64,16.48,39.64,39S344.72,139,322,139,282.3,122.41,282.3,100Zm62.09.39c0-14.19-9.63-23.9-22.44-23.9s-22.45,9.71-22.45,23.9,9.64,23.89,22.45,23.89S344.39,114.57,344.39,100.39ZM368.8,100c0-22.41,16.77-39,39.65-39s39.64,16.48,39.64,39-16.87,39-39.64,39S368.8,122.41,368.8,100Zm62.09.39c0-14.19-9.63-23.9-22.44-23.9S386,86.2,386,100.39s9.64,23.89,22.45,23.89S430.89,114.57,430.89,100.39Zm96.58,17.33c0,13.48-10.28,21.28-30,21.28H458.74V61h36.61c18.74,0,28.38,8.13,28.38,20.28a18.86,18.86,0,0,1-10,17.16C522.12,101.23,527.47,107.91,527.47,117.72ZM476.71,76.06V93.67h16.5c8.1,0,12.5-3,12.5-8.86s-4.4-8.75-12.5-8.75Zm32.59,39.47c0-6.29-4.61-9.28-13.22-9.28H476.71v18.46h19.37C504.69,124.71,509.3,121.93,509.3,115.53Zm23.38,14.74,5.69-13.14A41.52,41.52,0,0,0,562.28,125c9.94,0,14-3.44,14-8.08,0-14.11-42.13-4.41-42.13-32.42,0-12.82,9.94-23.49,30.53-23.49,9.11,0,18.43,2.26,25.16,6.68l-5.18,13.25A39.67,39.67,0,0,0,564.56,75c-9.94,0-13.77,3.87-13.77,8.61,0,13.9,42.13,4.31,42.13,32,0,12.61-10,23.38-30.74,23.38C550.69,139,539.1,135.44,532.68,130.27Z"/><g id="e6b0a9bd-6448-4ec6-a20e-292778295124" data-name="nest"><path class="f43b2d10-687f-4d2b-a99c-38ac23eebac3" d="M785.92,73.06c8-15.54,20.35-26.06,37.21-30.63,20.39-5.52,39-1.7,55.34,12.08,1.23,1,1.09,1.52,0,2.54-5,4.89-9.92,9.84-14.86,14.8-.71.71-1.16,1.2-2.21.26-14.49-13-39.54-10.59-51.76,8.74A49.36,49.36,0,0,0,806,88.5c-.87.32-1.38-.33-1.94-.75q-8.6-6.51-17.07-13.18C786.45,74.23,785.76,73.91,785.92,73.06Z"/><path class="b7fd48b2-08d1-40b4-a3c1-06725d36f6a9" d="M879.29,145.23c-6.31,6.2-13.94,10.06-22.38,12.41-28.11,7.82-56.78-4.25-70.52-29.65-.18-.35-.34-.72-.51-1.08,1-1.87,2.89-2.7,4.43-3.91q6.81-5.39,13.71-10.67c.58-.45,1.11-1,1.94-.82,2.78,7.41,7.09,13.74,13.74,18.14,12.7,8.38,25.8,8.4,39.07,1.28l1.22-.66a3,3,0,0,1,1.77.82c5.38,4.18,10.77,8.34,16.13,12.55C878.44,144.07,879.18,144.39,879.29,145.23Z"/><path class="aa56bb94-71fb-4ac0-915b-83613bb48a74" d="M879.29,145.23l-19.3-15a28.52,28.52,0,0,0,11.2-15.55c.67-2.35.65-2.35-1.76-2.35h-28c-1.47,0-2.09-.25-2.06-1.93.1-6.51.08-13,0-19.55,0-1.4.42-1.79,1.81-1.79q26.61.07,53.21,0c1.16,0,1.85.21,2,1.51,2.2,16.49-.09,32.06-9.59,46.12A37.54,37.54,0,0,1,879.29,145.23Z"/><path class="f14e516b-4762-4522-abba-5a051dcef613" d="M806,111.5l-20.08,15.41c-8.62-18-8.7-35.92,0-53.86q9.81,8,20,15.48A37,37,0,0,0,806,111.5Z"/><path class="a24f2af8-3ef8-4a22-a337-d0fb559e3c1b" d="M964.05,85.28c-.62-1.5-.17-3.08-.34-4.61,0-.3.07-.31.76.19C963.66,82.27,964.39,83.82,964.05,85.28Z"/></g><path class="a4976864-907e-4bb5-bb43-5b91e2c22f45" d="M945.89,128.27h-8V65.82h9.77L978,114.4h.35l-.35-12V65.82h8v62.45h-8.37L945.89,77.33h-.35l.35,12Z"/><path class="a4976864-907e-4bb5-bb43-5b91e2c22f45" d="M1015.31,129.66a20.45,20.45,0,0,1-15.52-6.45q-6.1-6.45-6.1-16.31t5.93-16.27a19.62,19.62,0,0,1,15.17-6.49q9.51,0,15.13,6.14t5.63,17.23l-.09.87h-33.58a13.92,13.92,0,0,0,4.19,10.12,13.37,13.37,0,0,0,9.59,3.84q7.68,0,12-7.68l7.15,3.49a21.27,21.27,0,0,1-8,8.46A22.11,22.11,0,0,1,1015.31,129.66Zm-12.82-27.91H1027a10.65,10.65,0,0,0-3.62-7.37,12.7,12.7,0,0,0-8.76-2.92,11.63,11.63,0,0,0-7.81,2.79A13.34,13.34,0,0,0,1002.49,101.75Z"/><path class="a4976864-907e-4bb5-bb43-5b91e2c22f45" d="M1075,116.41a11.56,11.56,0,0,1-4.89,9.41,19.26,19.26,0,0,1-12.29,3.84,19.51,19.51,0,0,1-11.34-3.36,18.49,18.49,0,0,1-7-8.85l7.15-3a13.29,13.29,0,0,0,4.58,6,11.11,11.11,0,0,0,6.59,2.14,11.57,11.57,0,0,0,6.41-1.66q2.57-1.65,2.57-3.92,0-4.09-6.28-6l-7.32-1.83q-12.48-3.14-12.48-12a11.11,11.11,0,0,1,4.76-9.37q4.75-3.54,12.16-3.53a19.79,19.79,0,0,1,10.25,2.7,14.71,14.71,0,0,1,6.41,7.24l-7.15,3a9.07,9.07,0,0,0-4-4.23,12.52,12.52,0,0,0-6.15-1.52,10.26,10.26,0,0,0-5.62,1.57,4.5,4.5,0,0,0-2.49,3.83q0,3.68,6.89,5.24l6.46,1.65Q1075,106.73,1075,116.41Z"/><path class="a4976864-907e-4bb5-bb43-5b91e2c22f45" d="M1097.38,129a12.16,12.16,0,0,1-8.67-3.22q-3.45-3.22-3.54-9V92.86h-7.5V85.53h7.5V72.45h8V85.53h10.46v7.33H1093.2v21.28q0,4.27,1.65,5.8a5.39,5.39,0,0,0,3.75,1.52,8.4,8.4,0,0,0,1.88-.21,10.27,10.27,0,0,0,1.7-.57l2.53,7.15A21.46,21.46,0,0,1,1097.38,129Z"/></svg>