<svg id="ea2ec0be-b9a3-43ac-ad21-d7d3e5ed69d7" data-name="Ebene 1" xmlns="http://www.w3.org/2000/svg" viewBox="0 0 1680 200"><defs><style>.a0bd03e0-3c44-46d9-b175-a365432d56b3{fill:none;stroke:#ccc;stroke-miterlimit:10;}.ef1e7e39-5002-4969-86b9-7edb3b9b680b{fill:#f9b213;}.bc5d086c-d96a-4d02-a221-6936e9811838{fill:#44c8f5;}.b0fde969-aa1f-4129-ac55-6fbbbd93cfce{fill:#ccc;}.e21b511c-9b52-4060-989e-57ce8d143307{fill:#00a0e4;}</style></defs><title>HOOBS_x_daikin</title><g id="e7a176b5-151f-4dea-b561-8721bfd0112a" data-name="Stroke"><line class="a0bd03e0-3c44-46d9-b175-a365432d56b3" x1="700.5" y1="60" x2="700.5" y2="140"/></g><path class="ef1e7e39-5002-4969-86b9-7edb3b9b680b" d="M154.17,41.5h-78A19.5,19.5,0,0,0,56.67,61v78a19.5,19.5,0,0,0,19.5,19.5h78a19.5,19.5,0,0,0,19.5-19.5V61A19.5,19.5,0,0,0,154.17,41.5Zm2,59.26a3.24,3.24,0,0,1-4.59,0,3.21,3.21,0,0,1-.95-2.09l-8.82-8.82V69.92a1.63,1.63,0,0,0-1.63-1.63h-3.25a1.63,1.63,0,0,0-1.62,1.63V83.6l-4.88-5.13-15-15a1.62,1.62,0,0,0-2.3,0L78.59,97.89a1.64,1.64,0,0,0,0,2.3l2.3,2.3a1.64,1.64,0,0,0,2.3,0l26.43-26.43a6.49,6.49,0,0,1,9.19,0l26.43,26.43a6.51,6.51,0,0,1,0,9.19l-2.3,2.3a6.49,6.49,0,0,1-9.19,0L115.36,95.59a1.64,1.64,0,0,0-2.3,0L94.68,114a1.62,1.62,0,0,0,0,2.3l2.3,2.29a1.61,1.61,0,0,0,2.29,0l10.35-10.34a6.49,6.49,0,0,1,9.19,0l10.34,10.34a6.51,6.51,0,0,1,0,9.2L118,138.89a3.21,3.21,0,0,1-1,2.09,3.25,3.25,0,1,1-2.5-5.54l11.12-11.12a1.62,1.62,0,0,0,0-2.3l-10.34-10.34a1.62,1.62,0,0,0-2.3,0L102.72,122a6.49,6.49,0,0,1-9.19,0l-2.3-2.3a6.49,6.49,0,0,1,0-9.19l18.39-18.38a6.49,6.49,0,0,1,9.19,0l18.38,18.38a1.64,1.64,0,0,0,2.3,0l2.3-2.3a1.64,1.64,0,0,0,0-2.3L115.36,79.51a1.62,1.62,0,0,0-2.3,0L86.63,105.93a6.49,6.49,0,0,1-9.19,0l-2.3-2.29a6.52,6.52,0,0,1,0-9.2L109.62,60a6.49,6.49,0,0,1,9.19,0l11.6,11.61V69.92a6.5,6.5,0,0,1,6.5-6.5h3.25a6.5,6.5,0,0,1,6.5,6.5V87.83l7.4,7.39a3.25,3.25,0,0,1,2.09,5.54Z"/><path class="ef1e7e39-5002-4969-86b9-7edb3b9b680b" d="M612.42,61H624.1v3.65h-3.71v11H616.1v-11h-3.68Zm13.09,0h4.72l3.34,7.78L637,61h4.72V75.62h-3.85V67.39l-2.77,6.81h-2.92l-2.77-6.81v8.23h-3.85Z"/><path class="ef1e7e39-5002-4969-86b9-7edb3b9b680b" d="M271.65,61v78H254.31V107h-34v32H202.92V61h17.35V91.75h34V61Zm10.65,39c0-22.41,16.77-39,39.65-39s39.64,16.48,39.64,39S344.72,139,322,139,282.3,122.41,282.3,100Zm62.09.39c0-14.19-9.63-23.9-22.44-23.9s-22.45,9.71-22.45,23.9,9.64,23.89,22.45,23.89S344.39,114.57,344.39,100.39ZM368.8,100c0-22.41,16.77-39,39.65-39s39.64,16.48,39.64,39-16.87,39-39.64,39S368.8,122.41,368.8,100Zm62.09.39c0-14.19-9.63-23.9-22.44-23.9S386,86.2,386,100.39s9.64,23.89,22.45,23.89S430.89,114.57,430.89,100.39Zm96.58,17.33c0,13.48-10.28,21.28-30,21.28H458.74V61h36.61c18.74,0,28.38,8.13,28.38,20.28a18.86,18.86,0,0,1-10,17.16C522.12,101.23,527.47,107.91,527.47,117.72ZM476.71,76.06V93.67h16.5c8.1,0,12.5-3,12.5-8.86s-4.4-8.75-12.5-8.75Zm32.59,39.47c0-6.29-4.61-9.28-13.22-9.28H476.71v18.46h19.37C504.69,124.71,509.3,121.93,509.3,115.53Zm23.38,14.74,5.69-13.14A41.52,41.52,0,0,0,562.28,125c9.94,0,14-3.44,14-8.08,0-14.11-42.13-4.41-42.13-32.42,0-12.82,9.94-23.49,30.53-23.49,9.11,0,18.43,2.26,25.16,6.68l-5.18,13.25A39.67,39.67,0,0,0,564.56,75c-9.94,0-13.77,3.87-13.77,8.61,0,13.9,42.13,4.31,42.13,32,0,12.61-10,23.38-30.74,23.38C550.69,139,539.1,135.44,532.68,130.27Z"/><g id="a6822662-22d9-4b4a-abf0-63a35db39605" data-name="layer1"><g id="a40c0f8c-1e80-4581-ace9-877cd48c62dd" data-name="g53028"><path id="ad23f83a-bbc4-4d23-ae60-499d2dc84b65" data-name="path53030" class="bc5d086c-d96a-4d02-a221-6936e9811838" d="M909.52,39H779.45V159L909.52,39"/></g><g id="ed5baba5-9226-453a-938b-7012f67f4e75" data-name="g53032"><path id="ac5abcfb-38b9-4a76-a8fe-7a2a9b7a8314" data-name="path53034" class="b0fde969-aa1f-4129-ac55-6fbbbd93cfce" d="M844.48,39h-65V99l65-60"/></g><g id="b2ad7229-a305-4b5a-b8cb-89874ad7db3d" data-name="g53036"><path id="a7249939-f979-4f20-a487-1674eaab572a" data-name="path53038" class="e21b511c-9b52-4060-989e-57ce8d143307" d="M1091.15,65.05l-17,67.88h30l17-67.88h-30"/></g><g id="aafd7de1-687a-4a8f-b43f-996f3bb9db9f" data-name="g53040"><path id="bf96f3ab-da32-4c91-81af-6b57e1c1ed25" data-name="path53042" class="e21b511c-9b52-4060-989e-57ce8d143307" d="M1022.63,104.39h-6.88l11.1-19.58,3.6,19.58ZM1018.37,65l-38.58,67.88h19.84l6.4-11.31h27.54l2.06,11.31h29.28L1052.46,65h-34.09"/></g><g id="b3106ea3-7df3-4697-859a-d9fbcba429e4" data-name="g53044"><path id="a8960ddf-7935-4e3f-ba8c-c71fd9085c81" data-name="path53046" class="e21b511c-9b52-4060-989e-57ce8d143307" d="M1228.14,65.05l-16.93,67.88h30l16.94-67.88h-30"/></g><g id="af002632-a730-47ea-9841-8f9bcdfa9c2f" data-name="g53048"><path id="a8b1a397-b900-4fb9-a71c-98d7c3c66e4d" data-name="path53050" class="e21b511c-9b52-4060-989e-57ce8d143307" d="M1214.74,65.05H1184l-25.73,22.2,5.61-22.2h-28.75l-16.93,67.88h28.66l5.86-23.43L1168,132.93h34.7L1177,97.38l37.7-32.33"/></g><g id="ec522e25-f4c8-439c-ad5b-37499a89c72d" data-name="g53052"><path id="b9cb527a-86ec-4368-80ad-aab74cde8beb" data-name="path53054" class="e21b511c-9b52-4060-989e-57ce8d143307" d="M956.25,95.9s-2,22-20.74,22H924.88l9.36-36.62h9.65C947.34,81.35,957.34,82.25,956.25,95.9Zm-1.52-30.82-7.76,0H909.43L892.5,132.91h37.27l14.75,0c20.76,0,41.19-15.45,41.19-39.12,0-27.86-31-28.73-31-28.73"/></g><g id="b9769a3b-f191-4d19-ac17-1811bf32141c" data-name="g53056"><path id="ed6da410-c6d1-4e5f-92ee-292d69d101ef" data-name="path53058" class="e21b511c-9b52-4060-989e-57ce8d143307" d="M1329.78,65l-10,40-13.33-40h-33.36l-16.94,67.89h20.74L1287,92.61l13.37,40.32h33.22l17-67.89h-20.76"/></g></g></svg>