<svg id="fa20343b-774c-46ac-88a3-6b04a689a1f1" data-name="Ebene 1" xmlns="http://www.w3.org/2000/svg" viewBox="0 0 1680 200"><defs><style>.e1d78e71-2021-4de1-a7ff-c4387d618168{fill:none;stroke:#ccc;stroke-miterlimit:10;}.fcbc5863-abee-4632-b697-c79e84abe4bd{fill:#f9b213;}.a1e49d43-fb91-41e3-a4eb-2fd2df40c35d{fill:#22c1a2;}.fd79bc6b-944b-4a4f-9387-bc4322f2dbd5{fill:#21c0a2;}</style></defs><title>HOOBS_x_sensibo</title><g id="b62cd15f-68e8-46ee-84c6-c96dc70d6119" data-name="Stroke"><line class="e1d78e71-2021-4de1-a7ff-c4387d618168" x1="700.5" y1="60" x2="700.5" y2="140"/></g><path class="fcbc5863-abee-4632-b697-c79e84abe4bd" d="M154.17,41.5h-78A19.5,19.5,0,0,0,56.67,61v78a19.5,19.5,0,0,0,19.5,19.5h78a19.5,19.5,0,0,0,19.5-19.5V61A19.5,19.5,0,0,0,154.17,41.5Zm2,59.26a3.24,3.24,0,0,1-4.59,0,3.21,3.21,0,0,1-.95-2.09l-8.82-8.82V69.92a1.63,1.63,0,0,0-1.63-1.63h-3.25a1.63,1.63,0,0,0-1.62,1.63V83.6l-4.88-5.13-15-15a1.62,1.62,0,0,0-2.3,0L78.59,97.89a1.64,1.64,0,0,0,0,2.3l2.3,2.3a1.64,1.64,0,0,0,2.3,0l26.43-26.43a6.49,6.49,0,0,1,9.19,0l26.43,26.43a6.51,6.51,0,0,1,0,9.19l-2.3,2.3a6.49,6.49,0,0,1-9.19,0L115.36,95.59a1.64,1.64,0,0,0-2.3,0L94.68,114a1.62,1.62,0,0,0,0,2.3l2.3,2.29a1.61,1.61,0,0,0,2.29,0l10.35-10.34a6.49,6.49,0,0,1,9.19,0l10.34,10.34a6.51,6.51,0,0,1,0,9.2L118,138.89a3.21,3.21,0,0,1-1,2.09,3.25,3.25,0,1,1-2.5-5.54l11.12-11.12a1.62,1.62,0,0,0,0-2.3l-10.34-10.34a1.62,1.62,0,0,0-2.3,0L102.72,122a6.49,6.49,0,0,1-9.19,0l-2.3-2.3a6.49,6.49,0,0,1,0-9.19l18.39-18.38a6.49,6.49,0,0,1,9.19,0l18.38,18.38a1.64,1.64,0,0,0,2.3,0l2.3-2.3a1.64,1.64,0,0,0,0-2.3L115.36,79.51a1.62,1.62,0,0,0-2.3,0L86.63,105.93a6.49,6.49,0,0,1-9.19,0l-2.3-2.29a6.52,6.52,0,0,1,0-9.2L109.62,60a6.49,6.49,0,0,1,9.19,0l11.6,11.61V69.92a6.5,6.5,0,0,1,6.5-6.5h3.25a6.5,6.5,0,0,1,6.5,6.5V87.83l7.4,7.39a3.25,3.25,0,0,1,2.09,5.54Z"/><path class="fcbc5863-abee-4632-b697-c79e84abe4bd" d="M612.42,61H624.1v3.65h-3.71v11H616.1v-11h-3.68Zm13.09,0h4.72l3.34,7.78L637,61h4.72V75.62h-3.85V67.39l-2.77,6.81h-2.92l-2.77-6.81v8.23h-3.85Z"/><path class="fcbc5863-abee-4632-b697-c79e84abe4bd" d="M271.65,61v78H254.31V107h-34v32H202.92V61h17.35V91.75h34V61Zm10.65,39c0-22.41,16.77-39,39.65-39s39.64,16.48,39.64,39S344.72,139,322,139,282.3,122.41,282.3,100Zm62.09.39c0-14.19-9.63-23.9-22.44-23.9s-22.45,9.71-22.45,23.9,9.64,23.89,22.45,23.89S344.39,114.57,344.39,100.39ZM368.8,100c0-22.41,16.77-39,39.65-39s39.64,16.48,39.64,39-16.87,39-39.64,39S368.8,122.41,368.8,100Zm62.09.39c0-14.19-9.63-23.9-22.44-23.9S386,86.2,386,100.39s9.64,23.89,22.45,23.89S430.89,114.57,430.89,100.39Zm96.58,17.33c0,13.48-10.28,21.28-30,21.28H458.74V61h36.61c18.74,0,28.38,8.13,28.38,20.28a18.86,18.86,0,0,1-10,17.16C522.12,101.23,527.47,107.91,527.47,117.72ZM476.71,76.06V93.67h16.5c8.1,0,12.5-3,12.5-8.86s-4.4-8.75-12.5-8.75Zm32.59,39.47c0-6.29-4.61-9.28-13.22-9.28H476.71v18.46h19.37C504.69,124.71,509.3,121.93,509.3,115.53Zm23.38,14.74,5.69-13.14A41.52,41.52,0,0,0,562.28,125c9.94,0,14-3.44,14-8.08,0-14.11-42.13-4.41-42.13-32.42,0-12.82,9.94-23.49,30.53-23.49,9.11,0,18.43,2.26,25.16,6.68l-5.18,13.25A39.67,39.67,0,0,0,564.56,75c-9.94,0-13.77,3.87-13.77,8.61,0,13.9,42.13,4.31,42.13,32,0,12.61-10,23.38-30.74,23.38C550.69,139,539.1,135.44,532.68,130.27Z"/><path class="a1e49d43-fb91-41e3-a4eb-2fd2df40c35d" d="M1262.86,113a7.62,7.62,0,0,0-.72,2.73,26.92,26.92,0,0,1-24,19.77c-9.78.6-18.16-2.37-24.39-10.09-9.21-11.4-6.87-27.75,5-36.51,15.12-11.13,37.49-4.22,42.94,13.24.42,1.36.43,2.82,1.08,4.11Zm-40-3.38a12.5,12.5,0,0,0,12.67,12.77,12.69,12.69,0,0,0,12.85-12.83,12.89,12.89,0,0,0-12.75-12.86A12.73,12.73,0,0,0,1222.81,109.63Z"/><path class="fd79bc6b-944b-4a4f-9387-bc4322f2dbd5" d="M862.69,124.19a14.34,14.34,0,0,1-5.57,11.43Q843.61,146.27,830,156.81c-5.49,4.25-11.87,4.24-17.35,0q-14.48-11.13-28.91-22.3a10.37,10.37,0,0,1,1.2-17.5c2.14-1.23,4.26-2.49,6.47-3.59,1.13-.56,1.2-1.17.86-2.26C788.8,100.12,785.38,89,781.93,78c-2.15-6.94-.29-12.49,5.64-16.73L813.2,42.9c5.42-3.88,10.94-3.87,16.38,0Q843,52.56,856.35,62.19c6.61,4.76,6.32,13.1-.6,17.39-1.68,1-3.34,2.15-5.08,3.08-1.08.58-1.19,1.16-.8,2.26q5.88,16.72,11.67,33.47A16,16,0,0,1,862.69,124.19Z"/><path class="a1e49d43-fb91-41e3-a4eb-2fd2df40c35d" d="M1163.86,128.73c0,1.34-.07,2.68,0,4,.07,1.09-.25,1.49-1.42,1.47-3.92-.07-7.84-.08-11.75,0-1.25,0-1.52-.37-1.51-1.54,0-9.43,0-18.86,0-28.29,0-12.11,0-24.21,0-36.32,0-1.41.27-2,1.84-1.92,3.64.13,7.3.12,11,0,1.61,0,1.93.5,1.91,2-.07,7.39,0,14.78,0,22.17.16,0,.31.07.34,0,4.11-5.79,10.19-6.58,16.52-6,14.69,1.23,23.57,14.77,22,28.28-1.33,11.14-8.27,19.32-18.49,21.79a23.73,23.73,0,0,1-11.78-.09A14.15,14.15,0,0,1,1163.86,128.73Zm12-6.91a12.26,12.26,0,1,0-.12-24.52A12.51,12.51,0,0,0,1163,109.65C1163,116.48,1168.65,121.84,1175.86,121.82Z"/><path class="a1e49d43-fb91-41e3-a4eb-2fd2df40c35d" d="M932,135.22c-7.83,0-15.1-1.81-21.32-6.84a26.29,26.29,0,0,1-6-7.06c-.49-.82-.43-1.27.39-1.81,3-2,6-4,8.88-6.1.91-.66,1.3-.38,1.87.4a20,20,0,0,0,21.07,7.24c4-1.17,6.11-4.3,5.11-7.77a6.79,6.79,0,0,0-3.24-3.84,37.74,37.74,0,0,0-7.35-3.19c-4.54-1.64-9.19-3-13.37-5.48-4.62-2.77-7.89-6.57-8.92-12C907.21,79,911.56,71,920.83,67.26c10.72-4.37,23.36-2,31.09,5.76,3.2,3.22,3.2,3.22-.3,6-2,1.57-4,3.12-5.92,4.71-.61.51-.94.72-1.63-.06-4.4-4.94-10-6-16.13-4.36-2.27.58-4.14,1.87-4.4,4.52-.28,2.81,1.21,4.57,3.59,5.69,3.93,1.86,8.15,3,12.19,4.55a56.48,56.48,0,0,1,8.85,4.21c7.29,4.47,9.93,11.1,8.87,19.33-1,7.81-5.41,13-12.76,15.69A34.65,34.65,0,0,1,932,135.22Z"/><path class="a1e49d43-fb91-41e3-a4eb-2fd2df40c35d" d="M995.77,113.37c-5.74,0-11.49,0-17.23,0-1.21,0-1.41.34-1.21,1.45.71,3.92,4.14,7,9,7.86,5.55,1,10.7.18,15.07-3.67.69-.61,1.09-.53,1.71.07q3.39,3.32,6.87,6.55c.61.56.68.9,0,1.51a27.65,27.65,0,0,1-17.92,8.1,34.87,34.87,0,0,1-11.64-1.08c-10.59-3-17.33-11.44-17.81-22.59-.46-10.47,3-19.08,12.59-24.4A28.33,28.33,0,0,1,993,84c10.78,1.38,18.51,8.4,20.93,19a39.76,39.76,0,0,1,.52,9.43c0,1.13-.73,1-1.42,1ZM988.49,104c3.33,0,6.66-.06,10,0,1.37,0,1.52-.43,1.18-1.59A8,8,0,0,0,996.41,98a12.87,12.87,0,0,0-10.47-1.83c-3.65.81-6.73,2.5-8.24,6.21-.47,1.14-.4,1.72,1.13,1.66C982,103.89,985.27,104,988.49,104Z"/><path class="a1e49d43-fb91-41e3-a4eb-2fd2df40c35d" d="M1036.31,90.92c2.94-4.53,7-6.24,11.64-6.79a22.66,22.66,0,0,1,8.16.42c7.5,1.84,12.35,7.72,13.11,15.81.56,6,.19,12,.26,18,.07,4.77,0,9.53,0,14.3,0,1.15-.22,1.59-1.48,1.56q-5.8-.12-11.6,0c-1.23,0-1.53-.34-1.52-1.53,0-8.41,0-16.83,0-25.24a24.38,24.38,0,0,0-.13-2.56c-.64-5.52-3.81-8.19-9.46-8a9,9,0,0,0-9,8.91c-.11,8.78,0,17.57,0,26.35,0,2.3.25,2-2.1,2-3.71,0-7.41,0-11.11,0-1.06,0-1.37-.3-1.37-1.36q.06-23.22,0-46.44c0-1,.19-1.41,1.31-1.39,4,.07,7.94.06,11.92,0,1,0,1.43.26,1.36,1.34C1036.24,87.72,1036.31,89.1,1036.31,90.92Z"/><path class="a1e49d43-fb91-41e3-a4eb-2fd2df40c35d" d="M1096.21,135.54c-6.33-.08-12.48-1.35-17.8-5.4-3.93-3-3.92-3-.6-6.52,1.5-1.6,3-3.17,4.48-4.83.71-.81,1.08-.89,2-.11,4.71,4.09,10.26,5,16.26,4a5.14,5.14,0,0,0,2.21-.92c2-1.41,1.88-3.78-.25-4.92-2.53-1.36-5.38-1.77-8.11-2.54a47.05,47.05,0,0,1-7.58-2.59c-4.83-2.3-7.87-5.9-8.15-11.39A14.17,14.17,0,0,1,1085,87.11a21,21,0,0,1,11.06-3.48c6.73-.34,13,1,18.5,5.14,1.07.8,1.3,1.37.39,2.52-1.83,2.3-3.51,4.73-5.21,7.13-.51.72-.88,1-1.77.39-3.55-2.45-7.58-3.1-11.81-2.85a4.51,4.51,0,0,0-2.66,1,2.5,2.5,0,0,0,.35,4.28,19.53,19.53,0,0,0,4.56,1.51,65.29,65.29,0,0,1,11.39,3.86c5.09,2.48,8.23,6.33,8.24,12.17,0,6.1-2.46,10.89-8,13.85C1105.83,134.92,1101.17,135.49,1096.21,135.54Z"/><path class="fd79bc6b-944b-4a4f-9387-bc4322f2dbd5" d="M1139.5,109.47c0,7.71,0,15.42,0,23.12,0,1.23-.28,1.65-1.59,1.62-3.86-.09-7.72-.05-11.58,0-1,0-1.43-.12-1.42-1.28q0-23.35,0-46.72c0-.89.24-1.19,1.17-1.18,4.07,0,8.15.07,12.23,0,1.32,0,1.16.7,1.16,1.51Z"/><path class="a1e49d43-fb91-41e3-a4eb-2fd2df40c35d" d="M1123.94,72.59a8.26,8.26,0,1,1,8.24,8.27A8.14,8.14,0,0,1,1123.94,72.59Z"/></svg>