<svg id="b0f925c1-2a97-4342-ad16-83342d0aa7ab" data-name="Ebene 1" xmlns="http://www.w3.org/2000/svg" viewBox="0 0 1680 200"><defs><style>.a131a75c-f8a1-4dd8-96b3-6e940150f654{fill:none;stroke:#ccc;stroke-miterlimit:10;}.f7e9fa72-c59e-4426-99fb-121ae921211f{fill:#f9b213;}.a80a92a1-4d9d-4609-ac1c-4ef5d1986ba5{isolation:isolate;}.ae270421-6a72-448a-a6ae-a34dc98eafdc{fill:#ccc;}.b06f4a7a-3a99-4eb3-b994-162d1423e517{fill:#00adf9;}</style></defs><title>HOOBS_x_chamberlain</title><g id="e1a6800a-24f2-48ba-8f7d-ed438feb8ac6" data-name="Stroke"><line class="a131a75c-f8a1-4dd8-96b3-6e940150f654" x1="700.5" y1="60" x2="700.5" y2="140"/></g><path class="f7e9fa72-c59e-4426-99fb-121ae921211f" d="M154.17,41.5h-78A19.5,19.5,0,0,0,56.67,61v78a19.5,19.5,0,0,0,19.5,19.5h78a19.5,19.5,0,0,0,19.5-19.5V61A19.5,19.5,0,0,0,154.17,41.5Zm2,59.26a3.24,3.24,0,0,1-4.59,0,3.21,3.21,0,0,1-.95-2.09l-8.82-8.82V69.92a1.63,1.63,0,0,0-1.63-1.63h-3.25a1.63,1.63,0,0,0-1.62,1.63V83.6l-4.88-5.13-15-15a1.62,1.62,0,0,0-2.3,0L78.59,97.89a1.64,1.64,0,0,0,0,2.3l2.3,2.3a1.64,1.64,0,0,0,2.3,0l26.43-26.43a6.49,6.49,0,0,1,9.19,0l26.43,26.43a6.51,6.51,0,0,1,0,9.19l-2.3,2.3a6.49,6.49,0,0,1-9.19,0L115.36,95.59a1.64,1.64,0,0,0-2.3,0L94.68,114a1.62,1.62,0,0,0,0,2.3l2.3,2.29a1.61,1.61,0,0,0,2.29,0l10.35-10.34a6.49,6.49,0,0,1,9.19,0l10.34,10.34a6.51,6.51,0,0,1,0,9.2L118,138.89a3.21,3.21,0,0,1-1,2.09,3.25,3.25,0,1,1-2.5-5.54l11.12-11.12a1.62,1.62,0,0,0,0-2.3l-10.34-10.34a1.62,1.62,0,0,0-2.3,0L102.72,122a6.49,6.49,0,0,1-9.19,0l-2.3-2.3a6.49,6.49,0,0,1,0-9.19l18.39-18.38a6.49,6.49,0,0,1,9.19,0l18.38,18.38a1.64,1.64,0,0,0,2.3,0l2.3-2.3a1.64,1.64,0,0,0,0-2.3L115.36,79.51a1.62,1.62,0,0,0-2.3,0L86.63,105.93a6.49,6.49,0,0,1-9.19,0l-2.3-2.29a6.52,6.52,0,0,1,0-9.2L109.62,60a6.49,6.49,0,0,1,9.19,0l11.6,11.61V69.92a6.5,6.5,0,0,1,6.5-6.5h3.25a6.5,6.5,0,0,1,6.5,6.5V87.83l7.4,7.39a3.25,3.25,0,0,1,2.09,5.54Z"/><path class="f7e9fa72-c59e-4426-99fb-121ae921211f" d="M612.42,61H624.1v3.65h-3.71v11H616.1v-11h-3.68Zm13.09,0h4.72l3.34,7.78L637,61h4.72V75.62h-3.85V67.39l-2.77,6.81h-2.92l-2.77-6.81v8.23h-3.85Z"/><path class="f7e9fa72-c59e-4426-99fb-121ae921211f" d="M271.65,61v78H254.31V107h-34v32H202.92V61h17.35V91.75h34V61Zm10.65,39c0-22.41,16.77-39,39.65-39s39.64,16.48,39.64,39S344.72,139,322,139,282.3,122.41,282.3,100Zm62.09.39c0-14.19-9.63-23.9-22.44-23.9s-22.45,9.71-22.45,23.9,9.64,23.89,22.45,23.89S344.39,114.57,344.39,100.39ZM368.8,100c0-22.41,16.77-39,39.65-39s39.64,16.48,39.64,39-16.87,39-39.64,39S368.8,122.41,368.8,100Zm62.09.39c0-14.19-9.63-23.9-22.44-23.9S386,86.2,386,100.39s9.64,23.89,22.45,23.89S430.89,114.57,430.89,100.39Zm96.58,17.33c0,13.48-10.28,21.28-30,21.28H458.74V61h36.61c18.74,0,28.38,8.13,28.38,20.28a18.86,18.86,0,0,1-10,17.16C522.12,101.23,527.47,107.91,527.47,117.72ZM476.71,76.06V93.67h16.5c8.1,0,12.5-3,12.5-8.86s-4.4-8.75-12.5-8.75Zm32.59,39.47c0-6.29-4.61-9.28-13.22-9.28H476.71v18.46h19.37C504.69,124.71,509.3,121.93,509.3,115.53Zm23.38,14.74,5.69-13.14A41.52,41.52,0,0,0,562.28,125c9.94,0,14-3.44,14-8.08,0-14.11-42.13-4.41-42.13-32.42,0-12.82,9.94-23.49,30.53-23.49,9.11,0,18.43,2.26,25.16,6.68l-5.18,13.25A39.67,39.67,0,0,0,564.56,75c-9.94,0-13.77,3.87-13.77,8.61,0,13.9,42.13,4.31,42.13,32,0,12.61-10,23.38-30.74,23.38C550.69,139,539.1,135.44,532.68,130.27Z"/><g class="a80a92a1-4d9d-4609-ac1c-4ef5d1986ba5"><path class="ae270421-6a72-448a-a6ae-a34dc98eafdc" d="M1125,110.07a12.59,12.59,0,0,1-5.85,4.49,23.67,23.67,0,0,1-8.74,1.49,16.93,16.93,0,0,1-9-2.37,15.79,15.79,0,0,1-6-6.72,23.23,23.23,0,0,1-2.2-10.12V93.25q0-9.31,4.35-14.45t12.22-5.12q6.45,0,10.39,3.3a14.38,14.38,0,0,1,4.82,9.36h-5.44q-1.53-8.22-9.74-8.22-5.47,0-8.29,3.85t-2.84,11.12v3.37q0,6.95,3.17,11a10.27,10.27,0,0,0,8.58,4.1,19,19,0,0,0,5.35-.68,8.22,8.22,0,0,0,3.8-2.29V99.39h-9.55V95h15Z"/><path class="ae270421-6a72-448a-a6ae-a34dc98eafdc" d="M1152.18,115.48a10.73,10.73,0,0,1-.74-3.23,11.7,11.7,0,0,1-8.72,3.8,10.84,10.84,0,0,1-7.44-2.57,8.3,8.3,0,0,1-2.9-6.5,8.64,8.64,0,0,1,3.64-7.43q3.63-2.65,10.24-2.65h5.09V94.49a5.84,5.84,0,0,0-1.64-4.37,6.57,6.57,0,0,0-4.84-1.63,7.59,7.59,0,0,0-4.7,1.42,4.15,4.15,0,0,0-1.9,3.42H1133a7.21,7.21,0,0,1,1.63-4.43,11.18,11.18,0,0,1,4.42-3.38,14.86,14.86,0,0,1,6.13-1.25q5.29,0,8.3,2.65a9.51,9.51,0,0,1,3.11,7.29v14.1a17.2,17.2,0,0,0,1.08,6.72v.45Zm-8.7-4a9.2,9.2,0,0,0,4.67-1.28,7.65,7.65,0,0,0,3.2-3.31v-6.29h-4.1q-9.63,0-9.63,5.64a4.79,4.79,0,0,0,1.64,3.85A6.35,6.35,0,0,0,1143.48,111.49Z"/><path class="ae270421-6a72-448a-a6ae-a34dc98eafdc" d="M1179.62,89.54a16.08,16.08,0,0,0-2.58-.2q-5.16,0-7,4.39v21.75h-5.23V84.84h5.09l.09,3.54a8.15,8.15,0,0,1,7.3-4.11,5.3,5.3,0,0,1,2.33.4Z"/><path class="ae270421-6a72-448a-a6ae-a34dc98eafdc" d="M1202.22,115.48a11,11,0,0,1-.74-3.23,11.7,11.7,0,0,1-8.72,3.8,10.84,10.84,0,0,1-7.44-2.57,8.3,8.3,0,0,1-2.9-6.5,8.64,8.64,0,0,1,3.64-7.43q3.64-2.65,10.24-2.65h5.1V94.49a5.85,5.85,0,0,0-1.65-4.37,6.57,6.57,0,0,0-4.84-1.63,7.59,7.59,0,0,0-4.7,1.42,4.15,4.15,0,0,0-1.9,3.42H1183a7.27,7.27,0,0,1,1.63-4.43,11.18,11.18,0,0,1,4.42-3.38,14.86,14.86,0,0,1,6.13-1.25q5.29,0,8.3,2.65a9.51,9.51,0,0,1,3.11,7.29v14.1a17.2,17.2,0,0,0,1.08,6.72v.45Zm-8.7-4a9.24,9.24,0,0,0,4.68-1.28,7.77,7.77,0,0,0,3.2-3.31v-6.29h-4.11q-9.63,0-9.63,5.64a4.79,4.79,0,0,0,1.64,3.85A6.35,6.35,0,0,0,1193.52,111.49Z"/><path class="ae270421-6a72-448a-a6ae-a34dc98eafdc" d="M1213.6,99.9q0-7.16,3.32-11.4a11.42,11.42,0,0,1,17.53-.26l.25-3.4h4.79v29.9q0,6-3.53,9.38t-9.47,3.42a15.85,15.85,0,0,1-6.49-1.41,11.22,11.22,0,0,1-4.84-3.88l2.72-3.15a10.22,10.22,0,0,0,8.24,4.17,8,8,0,0,0,6-2.15,8.23,8.23,0,0,0,2.14-6.07v-2.63a10.77,10.77,0,0,1-8.58,3.63,10.47,10.47,0,0,1-8.71-4.34Q1213.6,107.38,1213.6,99.9Zm5.27.6c0,3.45.71,6.17,2.12,8.14a6.92,6.92,0,0,0,6,3,7.68,7.68,0,0,0,7.28-4.5v-14a7.76,7.76,0,0,0-7.22-4.39,7,7,0,0,0-6,3Q1218.88,94.66,1218.87,100.5Z"/><path class="ae270421-6a72-448a-a6ae-a34dc98eafdc" d="M1260.1,116.05A13.4,13.4,0,0,1,1250,112q-3.9-4.08-3.9-10.94v-1a18.4,18.4,0,0,1,1.74-8.14,13.52,13.52,0,0,1,4.87-5.6,12.27,12.27,0,0,1,6.78-2q6,0,9.29,3.94t3.31,11.27v2.18H1251.3a10.86,10.86,0,0,0,2.64,7.32,8.33,8.33,0,0,0,6.45,2.79,9.19,9.19,0,0,0,4.7-1.13,11.87,11.87,0,0,0,3.37-3l3.2,2.5Q1267.8,116,1260.1,116.05Zm-.65-27.47a7,7,0,0,0-5.32,2.3,11.2,11.2,0,0,0-2.66,6.47h15.35V97a10,10,0,0,0-2.16-6.19A6.58,6.58,0,0,0,1259.45,88.58Z"/><path class="ae270421-6a72-448a-a6ae-a34dc98eafdc" d="M1293.29,115.48V74.25h11.65a18.8,18.8,0,0,1,9.51,2.37,16.13,16.13,0,0,1,6.39,6.77,22.07,22.07,0,0,1,2.28,10.08v2.64a22.08,22.08,0,0,1-2.25,10.22,15.92,15.92,0,0,1-6.43,6.74,20,20,0,0,1-9.73,2.41Zm5.44-36.79V111h5.72q6.29,0,9.79-3.91t3.5-11.14V93.57c0-4.68-1.1-8.33-3.3-10.92s-5.32-3.92-9.36-4Z"/><path class="ae270421-6a72-448a-a6ae-a34dc98eafdc" d="M1329.12,99.88a18.05,18.05,0,0,1,1.77-8.1,13.23,13.23,0,0,1,4.93-5.56,13.43,13.43,0,0,1,7.21-2,12.91,12.91,0,0,1,10.12,4.33q3.87,4.34,3.87,11.53v.37a18.17,18.17,0,0,1-1.72,8,12.93,12.93,0,0,1-4.9,5.53,13.57,13.57,0,0,1-7.32,2,12.87,12.87,0,0,1-10.09-4.34q-3.87-4.33-3.87-11.47Zm5.27.62a13.14,13.14,0,0,0,2.36,8.18,8,8,0,0,0,12.68,0c1.56-2.09,2.35-5,2.35-8.76a13.08,13.08,0,0,0-2.4-8.18,7.6,7.6,0,0,0-6.35-3.12,7.5,7.5,0,0,0-6.26,3.08Q1334.39,94.75,1334.39,100.5Z"/><path class="ae270421-6a72-448a-a6ae-a34dc98eafdc" d="M1362.2,99.88a18.05,18.05,0,0,1,1.77-8.1,13.23,13.23,0,0,1,4.93-5.56,13.4,13.4,0,0,1,7.2-2,12.92,12.92,0,0,1,10.13,4.33q3.87,4.34,3.86,11.53v.37a18.3,18.3,0,0,1-1.71,8,12.93,12.93,0,0,1-4.9,5.53,13.57,13.57,0,0,1-7.32,2,12.91,12.91,0,0,1-10.1-4.34q-3.86-4.33-3.86-11.47Zm5.27.62a13.07,13.07,0,0,0,2.36,8.18,8,8,0,0,0,12.67,0q2.36-3.14,2.36-8.76a13.08,13.08,0,0,0-2.4-8.18,7.6,7.6,0,0,0-6.36-3.12,7.5,7.5,0,0,0-6.25,3.08Q1367.47,94.75,1367.47,100.5Z"/><path class="ae270421-6a72-448a-a6ae-a34dc98eafdc" d="M1411.48,89.54a16.08,16.08,0,0,0-2.58-.2q-5.16,0-7,4.39v21.75h-5.24V84.84h5.1l.09,3.54a8.14,8.14,0,0,1,7.3-4.11,5.3,5.3,0,0,1,2.33.4Z"/><path class="ae270421-6a72-448a-a6ae-a34dc98eafdc" d="M1463.19,96.19a25.51,25.51,0,0,1-2,10.58,15.45,15.45,0,0,1-5.78,6.9,15.94,15.94,0,0,1-8.72,2.38,15.41,15.41,0,0,1-14.49-9.22A24.51,24.51,0,0,1,1430,96.56v-3a25.18,25.18,0,0,1,2.06-10.51,15.29,15.29,0,0,1,14.5-9.4,16,16,0,0,1,8.74,2.39,15.45,15.45,0,0,1,5.82,6.94,25.64,25.64,0,0,1,2,10.58Zm-5.41-2.66q0-7.34-3-11.26a9.72,9.72,0,0,0-8.24-3.92,9.62,9.62,0,0,0-8.11,3.92q-3,3.93-3,10.89v3q0,7.11,3,11.18a10.48,10.48,0,0,0,16.39.22q2.88-3.84,3-11Z"/><path class="ae270421-6a72-448a-a6ae-a34dc98eafdc" d="M1496.41,100.5q0,7-3.2,11.27a10.27,10.27,0,0,1-8.67,4.28,11.25,11.25,0,0,1-8.78-3.54v14.75h-5.24V84.84h4.79l.25,3.4a10.79,10.79,0,0,1,8.9-4,10.45,10.45,0,0,1,8.73,4.16q3.22,4.17,3.22,11.59Zm-5.24-.6q0-5.18-2.21-8.18a7.11,7.11,0,0,0-6.06-3,7.7,7.7,0,0,0-7.14,4.22v14.64a7.73,7.73,0,0,0,7.2,4.19,7.1,7.1,0,0,0,6-3Q1491.17,105.8,1491.17,99.9Z"/><path class="ae270421-6a72-448a-a6ae-a34dc98eafdc" d="M1515.78,116.05a13.4,13.4,0,0,1-10.14-4.1q-3.9-4.08-3.91-10.94v-1a18.4,18.4,0,0,1,1.74-8.14,13.61,13.61,0,0,1,4.88-5.6,12.22,12.22,0,0,1,6.78-2q6,0,9.29,3.94t3.31,11.27v2.18H1507a10.91,10.91,0,0,0,2.65,7.32,8.32,8.32,0,0,0,6.44,2.79,9.16,9.16,0,0,0,4.7-1.13,11.74,11.74,0,0,0,3.37-3l3.2,2.5Q1523.49,116,1515.78,116.05Zm-.65-27.47a7,7,0,0,0-5.33,2.3,11.27,11.27,0,0,0-2.66,6.47h15.35V97a10,10,0,0,0-2.15-6.19A6.59,6.59,0,0,0,1515.13,88.58Z"/><path class="ae270421-6a72-448a-a6ae-a34dc98eafdc" d="M1538.75,84.84l.17,3.85a11.15,11.15,0,0,1,9.17-4.42q9.72,0,9.8,11v20.25h-5.24V95.2a7.07,7.07,0,0,0-1.51-4.9,6.1,6.1,0,0,0-4.63-1.58,7.56,7.56,0,0,0-4.48,1.36,9.23,9.23,0,0,0-3,3.56v21.84h-5.24V84.84Z"/><path class="ae270421-6a72-448a-a6ae-a34dc98eafdc" d="M1578.51,116.05a13.4,13.4,0,0,1-10.14-4.1q-3.9-4.08-3.91-10.94v-1a18.4,18.4,0,0,1,1.74-8.14,13.61,13.61,0,0,1,4.88-5.6,12.22,12.22,0,0,1,6.78-2q6,0,9.29,3.94t3.31,11.27v2.18H1569.7a10.91,10.91,0,0,0,2.65,7.32,8.32,8.32,0,0,0,6.44,2.79,9.16,9.16,0,0,0,4.7-1.13,11.74,11.74,0,0,0,3.37-3l3.2,2.5C1587.5,114.07,1583.64,116.05,1578.51,116.05Zm-.65-27.47a7,7,0,0,0-5.33,2.3,11.27,11.27,0,0,0-2.66,6.47h15.35V97a10,10,0,0,0-2.15-6.19A6.58,6.58,0,0,0,1577.86,88.58Z"/><path class="ae270421-6a72-448a-a6ae-a34dc98eafdc" d="M1611.33,89.54a15.86,15.86,0,0,0-2.57-.2q-5.16,0-7,4.39v21.75h-5.24V84.84h5.1l.08,3.54a8.17,8.17,0,0,1,7.31-4.11,5.25,5.25,0,0,1,2.32.4Z"/></g><g id="be177273-4b31-49b5-b88b-087084e53d1b" data-name="myq"><path class="b06f4a7a-3a99-4eb3-b994-162d1423e517" d="M1048.21,137.46l-10.1-12.87a56.36,56.36,0,1,0-101.36-29.8c2.14,30.62,30.06,54.11,60.69,52.3l1.69-.1a10.49,10.49,0,1,0-.92-21l-.33,0h0l-2.09.13a35.85,35.85,0,0,1-38.07-31.64,35.41,35.41,0,1,1,66.6,12.6l-7.3-9.33a10.79,10.79,0,0,0-17.21,13L1031,150.53a10.79,10.79,0,0,0,17.33-12.82.47.47,0,0,0-.16-.25ZM858.69,89.66v27.93h-7.13V90c0-10.08-5.25-15.85-14-15.85a17.63,17.63,0,0,0-15.52,9.35,29.29,29.29,0,0,1,.63,6.19v27.91h-7.13V90c0-10.08-5.35-15.85-14-15.85a17.82,17.82,0,0,0-15,8.81v34.64h-7.12V69.1h7.09v5.56a20.19,20.19,0,0,1,16.29-7.09,18.68,18.68,0,0,1,16.57,9,23.58,23.58,0,0,1,19.41-9c11.65,0,19.87,8.49,19.87,22.11Zm28.76,53.93h-7.72l10.69-23.48-24.72-51h7.77l20.77,42.71,19.41-42.71h7.65Z"/></g></svg>