<svg id="bafab3a5-4c0f-49e1-b381-12b8c78e8937" data-name="Ebene 1" xmlns="http://www.w3.org/2000/svg" viewBox="0 0 1680 200"><defs><style>.fd5625bf-2879-45b9-af0f-da6be1598ab2{fill:none;stroke:#ccc;stroke-miterlimit:10;}.a8f0311f-18ce-45c4-a683-0bd34cdac398{fill:#f9b213;}.afe76f3b-ac41-43a0-a4d9-23327932ef47{fill:#2298fe;}.a4a1854f-9d0b-45a4-b4d4-57db30d5da8b{font-size:106.53px;fill:#ccc;font-family:Roboto-Regular, Roboto;letter-spacing:-0.05em;}.e98d1909-196d-4969-af93-3872cbc03741{letter-spacing:-0.05em;}</style></defs><title>synology Kopie</title><g id="b490106e-db1a-46ac-9d76-5817634e5234" data-name="Stroke"><line class="fd5625bf-2879-45b9-af0f-da6be1598ab2" x1="700.5" y1="60" x2="700.5" y2="140"/></g><path class="a8f0311f-18ce-45c4-a683-0bd34cdac398" d="M154.17,41.5h-78A19.5,19.5,0,0,0,56.67,61v78a19.5,19.5,0,0,0,19.5,19.5h78a19.5,19.5,0,0,0,19.5-19.5V61A19.5,19.5,0,0,0,154.17,41.5Zm2,59.26a3.24,3.24,0,0,1-4.59,0,3.21,3.21,0,0,1-.95-2.09l-8.82-8.82V69.92a1.63,1.63,0,0,0-1.63-1.63h-3.25a1.63,1.63,0,0,0-1.62,1.63V83.6l-4.88-5.13-15-15a1.62,1.62,0,0,0-2.3,0L78.59,97.89a1.64,1.64,0,0,0,0,2.3l2.3,2.3a1.64,1.64,0,0,0,2.3,0l26.43-26.43a6.49,6.49,0,0,1,9.19,0l26.43,26.43a6.51,6.51,0,0,1,0,9.19l-2.3,2.3a6.49,6.49,0,0,1-9.19,0L115.36,95.59a1.64,1.64,0,0,0-2.3,0L94.68,114a1.62,1.62,0,0,0,0,2.3l2.3,2.29a1.61,1.61,0,0,0,2.29,0l10.35-10.34a6.49,6.49,0,0,1,9.19,0l10.34,10.34a6.51,6.51,0,0,1,0,9.2L118,138.89a3.21,3.21,0,0,1-1,2.09,3.25,3.25,0,1,1-2.5-5.54l11.12-11.12a1.62,1.62,0,0,0,0-2.3l-10.34-10.34a1.62,1.62,0,0,0-2.3,0L102.72,122a6.49,6.49,0,0,1-9.19,0l-2.3-2.3a6.49,6.49,0,0,1,0-9.19l18.39-18.38a6.49,6.49,0,0,1,9.19,0l18.38,18.38a1.64,1.64,0,0,0,2.3,0l2.3-2.3a1.64,1.64,0,0,0,0-2.3L115.36,79.51a1.62,1.62,0,0,0-2.3,0L86.63,105.93a6.49,6.49,0,0,1-9.19,0l-2.3-2.29a6.52,6.52,0,0,1,0-9.2L109.62,60a6.49,6.49,0,0,1,9.19,0l11.6,11.61V69.92a6.5,6.5,0,0,1,6.5-6.5h3.25a6.5,6.5,0,0,1,6.5,6.5V87.83l7.4,7.39a3.25,3.25,0,0,1,2.09,5.54Z"/><path class="a8f0311f-18ce-45c4-a683-0bd34cdac398" d="M612.42,61H624.1v3.65h-3.71v11H616.1v-11h-3.68Zm13.09,0h4.72l3.34,7.78L637,61h4.72V75.62h-3.85V67.39l-2.77,6.81h-2.92l-2.77-6.81v8.23h-3.85Z"/><path class="a8f0311f-18ce-45c4-a683-0bd34cdac398" d="M271.65,61v78H254.31V107h-34v32H202.92V61h17.35V91.75h34V61Zm10.65,39c0-22.41,16.77-39,39.65-39s39.64,16.48,39.64,39S344.72,139,322,139,282.3,122.41,282.3,100Zm62.09.39c0-14.19-9.63-23.9-22.44-23.9s-22.45,9.71-22.45,23.9,9.64,23.89,22.45,23.89S344.39,114.57,344.39,100.39ZM368.8,100c0-22.41,16.77-39,39.65-39s39.64,16.48,39.64,39-16.87,39-39.64,39S368.8,122.41,368.8,100Zm62.09.39c0-14.19-9.63-23.9-22.44-23.9S386,86.2,386,100.39s9.64,23.89,22.45,23.89S430.89,114.57,430.89,100.39Zm96.58,17.33c0,13.48-10.28,21.28-30,21.28H458.74V61h36.61c18.74,0,28.38,8.13,28.38,20.28a18.86,18.86,0,0,1-10,17.16C522.12,101.23,527.47,107.91,527.47,117.72ZM476.71,76.06V93.67h16.5c8.1,0,12.5-3,12.5-8.86s-4.4-8.75-12.5-8.75Zm32.59,39.47c0-6.29-4.61-9.28-13.22-9.28H476.71v18.46h19.37C504.69,124.71,509.3,121.93,509.3,115.53Zm23.38,14.74,5.69-13.14A41.52,41.52,0,0,0,562.28,125c9.94,0,14-3.44,14-8.08,0-14.11-42.13-4.41-42.13-32.42,0-12.82,9.94-23.49,30.53-23.49,9.11,0,18.43,2.26,25.16,6.68l-5.18,13.25A39.67,39.67,0,0,0,564.56,75c-9.94,0-13.77,3.87-13.77,8.61,0,13.9,42.13,4.31,42.13,32,0,12.61-10,23.38-30.74,23.38C550.69,139,539.1,135.44,532.68,130.27Z"/><path class="afe76f3b-ac41-43a0-a4d9-23327932ef47" d="M878.82,40H801.18A21.17,21.17,0,0,0,780,61.17v77.65A21.18,21.18,0,0,0,801.18,160h77.64A21.18,21.18,0,0,0,900,138.82V61.17A21.17,21.17,0,0,0,878.82,40Zm-13.9,36.85a1.75,1.75,0,0,1,1.94-1.1,15,15,0,0,1,9.19,6.49,1.6,1.6,0,0,1-.53,2.38,1.52,1.52,0,0,1-2.22-.35,14.09,14.09,0,0,0-7.38-5.2A1.57,1.57,0,0,1,864.92,76.85Zm13.45,50.78c0,2.62-.69,3.32-3.2,3.36s-5.16,0-7.74,0c-2.37,0-3.08-.77-3.09-3.2q0-11,0-22a11.44,11.44,0,0,0-2-6.85c-2.31-3.27-5.46-5-9.46-4.25-4.28.76-6.84,3.57-8,7.67a15.28,15.28,0,0,0-.41,4.22q0,10.36,0,20.73c0,3.13-.54,3.67-3.59,3.69-2.59,0-5.17,0-7.75,0-1.7,0-2.75-.87-2.74-2.57-.49-2.3,0-33.1.1-35.41a12.63,12.63,0,0,0-4.66-11c-8.37-4.64-15.43,2.34-15.26,9.92.25,11.58.06,23.16.06,34.74,0,3.9-.43,4.33-4.25,4.34h-5.75c-3.58,0-4.09-.49-4.1-4,0-4.5,0-9,0-13.49,0-7.42-.09-14.83,0-22.24.19-12.32,8.14-22.36,19.57-24.47,8.58-1.58,16,.89,21.79,7.53,2.67,2.43,3.94,5.7,5.35,8.88,12.53-6.23,24.78-1.11,30.85,8a24.16,24.16,0,0,1,4.2,13.4C878.42,112.31,878.39,120,878.37,127.63Zm4.26-45.71c-1.32.84-2.13-.07-2.81-1.15a19.48,19.48,0,0,0-12.92-9c-1.16-.24-2.13-.73-1.93-2.12a1.71,1.71,0,0,1,1.94-1.47,21.68,21.68,0,0,1,6.23,2,23,23,0,0,1,9.68,8.76C883.47,79.93,883.94,81.09,882.63,81.92Z"/><text class="a4a1854f-9d0b-45a4-b4d4-57db30d5da8b" transform="translate(928.11 139)">M<tspan class="e98d1909-196d-4969-af93-3872cbc03741" x="88.1" y="0">A</tspan><tspan x="142.66" y="0">GIC HOME</tspan></text></svg>