<svg id="ace236e8-714f-4cca-9f6d-44a1f3b29bce" data-name="Ebene 1" xmlns="http://www.w3.org/2000/svg" viewBox="0 0 1680 200"><defs><style>.ba235f3b-817a-46fa-bbaf-aae1269eb3da{fill:none;stroke:#ccc;stroke-miterlimit:10;}.a6646416-bdc8-4f9e-bc26-bbe96eea6361{fill:#f9b213;}.aa8796fa-3c93-424c-a584-4d74d06c7834{fill:#3083d6;}.b3239fa4-64d1-41ef-b7d5-d347a110fa52{fill:#1976d1;}.eedbff77-46c6-423f-830b-71b4c8275c66{fill:#1a76d1;}.e51a239c-fad8-4375-b9fa-0c65ee94e619{fill:#eff0f1;}.bb6ceda0-e532-4a45-af71-9ddc8db5065b{fill:#accae7;}.a9b8ec40-a487-4942-8384-78159c1585fe{fill:#fbfcfe;}.b04f39e4-2172-4fb1-bd36-af2a9b537f6c{fill:#ccc;}</style></defs><title>HOOBS_x_ewelink</title><g id="b539ae08-89da-462a-beab-29f9a18e75c1" data-name="Stroke"><line class="ba235f3b-817a-46fa-bbaf-aae1269eb3da" x1="700.5" y1="60" x2="700.5" y2="140"/></g><path class="a6646416-bdc8-4f9e-bc26-bbe96eea6361" d="M154.17,41.5h-78A19.5,19.5,0,0,0,56.67,61v78a19.5,19.5,0,0,0,19.5,19.5h78a19.5,19.5,0,0,0,19.5-19.5V61A19.5,19.5,0,0,0,154.17,41.5Zm2,59.26a3.24,3.24,0,0,1-4.59,0,3.21,3.21,0,0,1-.95-2.09l-8.82-8.82V69.92a1.63,1.63,0,0,0-1.63-1.63h-3.25a1.63,1.63,0,0,0-1.62,1.63V83.6l-4.88-5.13-15-15a1.62,1.62,0,0,0-2.3,0L78.59,97.89a1.64,1.64,0,0,0,0,2.3l2.3,2.3a1.64,1.64,0,0,0,2.3,0l26.43-26.43a6.49,6.49,0,0,1,9.19,0l26.43,26.43a6.51,6.51,0,0,1,0,9.19l-2.3,2.3a6.49,6.49,0,0,1-9.19,0L115.36,95.59a1.64,1.64,0,0,0-2.3,0L94.68,114a1.62,1.62,0,0,0,0,2.3l2.3,2.29a1.61,1.61,0,0,0,2.29,0l10.35-10.34a6.49,6.49,0,0,1,9.19,0l10.34,10.34a6.51,6.51,0,0,1,0,9.2L118,138.89a3.21,3.21,0,0,1-1,2.09,3.25,3.25,0,1,1-2.5-5.54l11.12-11.12a1.62,1.62,0,0,0,0-2.3l-10.34-10.34a1.62,1.62,0,0,0-2.3,0L102.72,122a6.49,6.49,0,0,1-9.19,0l-2.3-2.3a6.49,6.49,0,0,1,0-9.19l18.39-18.38a6.49,6.49,0,0,1,9.19,0l18.38,18.38a1.64,1.64,0,0,0,2.3,0l2.3-2.3a1.64,1.64,0,0,0,0-2.3L115.36,79.51a1.62,1.62,0,0,0-2.3,0L86.63,105.93a6.49,6.49,0,0,1-9.19,0l-2.3-2.29a6.52,6.52,0,0,1,0-9.2L109.62,60a6.49,6.49,0,0,1,9.19,0l11.6,11.61V69.92a6.5,6.5,0,0,1,6.5-6.5h3.25a6.5,6.5,0,0,1,6.5,6.5V87.83l7.4,7.39a3.25,3.25,0,0,1,2.09,5.54Z"/><path class="a6646416-bdc8-4f9e-bc26-bbe96eea6361" d="M612.42,61H624.1v3.65h-3.71v11H616.1v-11h-3.68Zm13.09,0h4.72l3.34,7.78L637,61h4.72V75.62h-3.85V67.39l-2.77,6.81h-2.92l-2.77-6.81v8.23h-3.85Z"/><path class="a6646416-bdc8-4f9e-bc26-bbe96eea6361" d="M271.65,61v78H254.31V107h-34v32H202.92V61h17.35V91.75h34V61Zm10.65,39c0-22.41,16.77-39,39.65-39s39.64,16.48,39.64,39S344.72,139,322,139,282.3,122.41,282.3,100Zm62.09.39c0-14.19-9.63-23.9-22.44-23.9s-22.45,9.71-22.45,23.9,9.64,23.89,22.45,23.89S344.39,114.57,344.39,100.39ZM368.8,100c0-22.41,16.77-39,39.65-39s39.64,16.48,39.64,39-16.87,39-39.64,39S368.8,122.41,368.8,100Zm62.09.39c0-14.19-9.63-23.9-22.44-23.9S386,86.2,386,100.39s9.64,23.89,22.45,23.89S430.89,114.57,430.89,100.39Zm96.58,17.33c0,13.48-10.28,21.28-30,21.28H458.74V61h36.61c18.74,0,28.38,8.13,28.38,20.28a18.86,18.86,0,0,1-10,17.16C522.12,101.23,527.47,107.91,527.47,117.72ZM476.71,76.06V93.67h16.5c8.1,0,12.5-3,12.5-8.86s-4.4-8.75-12.5-8.75Zm32.59,39.47c0-6.29-4.61-9.28-13.22-9.28H476.71v18.46h19.37C504.69,124.71,509.3,121.93,509.3,115.53Zm23.38,14.74,5.69-13.14A41.52,41.52,0,0,0,562.28,125c9.94,0,14-3.44,14-8.08,0-14.11-42.13-4.41-42.13-32.42,0-12.82,9.94-23.49,30.53-23.49,9.11,0,18.43,2.26,25.16,6.68l-5.18,13.25A39.67,39.67,0,0,0,564.56,75c-9.94,0-13.77,3.87-13.77,8.61,0,13.9,42.13,4.31,42.13,32,0,12.61-10,23.38-30.74,23.38C550.69,139,539.1,135.44,532.68,130.27Z"/><path class="aa8796fa-3c93-424c-a584-4d74d06c7834" d="M891.49,110v6.16a1.15,1.15,0,0,1-.84-.59,43.43,43.43,0,0,0-6.48-6.66c-.39-.35-.73-.44-1.09,0-2.33,3.06-4.67,6.09-7.26,8.95a110.3,110.3,0,0,1-8.83,9,1.14,1.14,0,0,0-.43,1.34c.31,1,.74,2,1.05,3,1.08,3.62,2.26,7.22,3.07,10.92a80.87,80.87,0,0,1,1.68,9.1c.1,1,.62,1.29,1.51,1a55.16,55.16,0,0,0,11.15-4,2.25,2.25,0,0,1,1.33-.41,24.24,24.24,0,0,1-9.21,8.37c-.09-.62-.5-.69-.94-.45a4.67,4.67,0,0,1-1.69.45c-1.1.15-1.6.7-1.42,1.82a12.09,12.09,0,0,1-4,1.22c0-1.79-.13-2-1.46-1.68s-2.47.32-3.7.5a92.72,92.72,0,0,1-10.38.86c-3.1.1-6.21,0-9.31,0-.69,0-1.27.1-1.41.91h-4.27c-.28-.41.73-1.31-.38-1.34-1.81,0-3.58-.31-5.37-.5-2.22-.23-4.43-.45-6.63-.84a6.49,6.49,0,0,0-4.87.55,12.9,12.9,0,0,1-2.83,1.41c-.32.11-.9.15-1,.73H806.85c.08-.12.13-.33.24-.36,2.66-.91,5.2-2.09,7.75-3.24.32-.15.95-.08.86-.61s-.66-.4-1.08-.49c-3.79-.75-7.55-1.61-11.26-2.67-1.3-.37-2.61-.71-3.93-1.06-.13.54.24.82.46,1.09,1.48,1.87,3,3.71,4.53,5.54.48.56,1.14,1,1.25,1.8h-5.21a1.43,1.43,0,0,0-.15-.44c-1.95-2.26-3.74-4.64-5.57-7-1.32-1.69-2.27-3.85-4.8-4.19a5,5,0,0,1-1.11-.36c-3.4-1.29-6.84-2.48-10.14-4-.9-.42-1.18-.05-1.18.87a25.56,25.56,0,0,1-.09,4,24.32,24.32,0,0,1-5.3-12.24,7,7,0,0,0,.83.4c.55.17,1,0,1-.62a43.6,43.6,0,0,1,.51-5.48c.17-2,.37-4,.73-5.93a7.7,7.7,0,0,0-.64-5.44c-.42-.75-.63-1.63-1.11-2.33-.73-1-.72-2.47-1.79-3.3V99.55c.11,0,.26,0,.34-.09q5.07-4.36,10.48-8.31a3.17,3.17,0,0,0,1.19-1.58,127.47,127.47,0,0,1,4.71-12.23c.63-1.38.6-1.41-1-1.44a113.33,113.33,0,0,0-15.73.72V72.35c3.11.13,6.17-.58,9.28-.49,3,.1,5.91,0,8.87,0,.64,0,1.14-.09,1.43-.77.87-2,1.91-4,3-5.9a116.54,116.54,0,0,1,9.14-14.49c.53-.71.46-1-.25-1.46a49.13,49.13,0,0,0-12.22-5.64,9.55,9.55,0,0,1-3-.92,19.56,19.56,0,0,1,7.37-2.29c.16.65.79.72,1.25.91a53.52,53.52,0,0,1,9.2,4.78c.71.46,1,.34,1.43-.17,1.39-1.7,3-3.2,4.52-4.78.37-.38,1-.57,1.1-1.16h6.16a.87.87,0,0,1-.41.69c-2.9,2.07-5.13,4.85-7.72,7.26-.74.69-.74,1.09.15,1.69a92.64,92.64,0,0,1,11,9.13c2.22,2.07,4.34,4.24,6.43,6.44a1.67,1.67,0,0,0,2.06.49A74.18,74.18,0,0,1,838,63.27a91.36,91.36,0,0,1,15-3.22c.8-.09,1.31-.37,1-1.39-.49-1.41-.79-2.88-1.23-4.3a44.19,44.19,0,0,0-4.77-10.44c-.86-1.36-2-2.49-2.76-3.92h5.22a3.49,3.49,0,0,0,.22.53,46.45,46.45,0,0,1,3.12,5.38A62.37,62.37,0,0,1,858,58.21a1.32,1.32,0,0,0,1.7,1.14,45,45,0,0,1,9.28,0,40.29,40.29,0,0,1,11.72,2.59A20.74,20.74,0,0,1,891,70.15a.61.61,0,0,0,.47.31V94.59a.5.5,0,0,0-.43.34,62.05,62.05,0,0,1-5,9.48c-.43.7.22,1,.55,1.2,1.06.77,1.87,1.78,2.84,2.63C890.13,108.82,890.56,109.69,891.49,110Zm-37.27,0c.07-.86-.61-1.35-.93-2a180,180,0,0,0-12.43-20.76A5.61,5.61,0,0,0,837,84.3a9.09,9.09,0,0,1-1.91-.53c-3-1.14-6.14-1.76-9.22-2.6-3.47-.93-7-1.54-10.54-2.31-2.35-.52-4.65-.9-6.8.74a10.1,10.1,0,0,1-1.5.9,186.58,186.58,0,0,0-18.37,11.13,5.61,5.61,0,0,0-2.62,3.19c-.65,2.41-1.31,4.83-2,7.23-1.56,5.38-2.64,10.87-3.79,16.35a6.49,6.49,0,0,0,1,5.31,3,3,0,0,1,.2.29,177,177,0,0,0,12.65,20.74,2.57,2.57,0,0,0,1.28,1.15c1.52.48,3,1,4.56,1.43a211.18,211.18,0,0,0,22,5.14,2.08,2.08,0,0,0,1.46-.19c2.79-1.5,5.59-3,8.34-4.56a175,175,0,0,0,14.87-9.5,2.82,2.82,0,0,0,1.06-1.37c.4-1.1.6-2.27,1-3.34a55.25,55.25,0,0,0,1.69-5.69c1-3.85,1.88-7.75,2.74-11.65C853.51,114.1,853.83,112,854.22,109.94Zm6.33-27.87c0,1,0,1.89,0,2.84.08,1.39-.55,3,.27,4.13s2.4,1.37,3.65,2q5.4,2.73,10.49,6c2.39,1.51,4.7,3.12,7,4.75.39.28.7.5,1-.09,1.17-2.07,2.33-4.14,3.34-6.3a39.78,39.78,0,0,0,2.95-8.34,22.28,22.28,0,0,0,.55-8.83A16.09,16.09,0,0,0,886.73,71a18.07,18.07,0,0,0-8.23-5.7,41.66,41.66,0,0,0-12.88-2.2c-1.86-.09-3.69.24-5.53.23-.92,0-1,.34-.88,1.15a44,44,0,0,1,.82,5.57C860.25,74.07,860.86,78.05,860.55,82.07ZM810,73.79a4.82,4.82,0,0,0,1.9-.33,109,109,0,0,1,12.22-5.4c.73-.25.89-.69.24-1.29-1.78-1.66-3.48-3.41-5.26-5.08-3.36-3.15-6.91-6-10.55-8.84-.92-.71-1.43-.44-2,.34a120.63,120.63,0,0,0-10.61,17.57c-.61,1.27-.44,1.59,1,1.59a52.93,52.93,0,0,1,6.65.67C805.7,73.29,807.88,73.54,810,73.79Zm46.55,8.56c0-2-.11-3.92-.19-5.88a111.61,111.61,0,0,0-1.19-11.68c-.14-.89-.59-1.06-1.28-.92-3.3.64-6.62,1.2-9.87,2-3.62.91-7.24,1.88-10.78,3.11-.92.33-.83.54-.32,1.17,2.82,3.46,5.73,6.86,8.26,10.55a3.65,3.65,0,0,0,2,1.37c2.86.87,5.62,2,8.4,3.13,1.3.51,2.59,1,3.87,1.58.82.34,1.15.14,1.1-.78C856.48,84.8,856.52,83.57,856.52,82.35Zm2.11,25.84c-.19,1.61.79,2.82,1.41,4.15,1.54,3.25,3,6.52,4.3,9.88.28.74.59,1,1.25.34s1.5-1.27,2.17-2c1.59-1.68,3.09-3.44,4.69-5.12a96.54,96.54,0,0,0,7.43-9.09c.37-.5.32-.8-.18-1.15-1.26-.87-2.45-1.84-3.72-2.68a139.75,139.75,0,0,0-14.51-8.43c-1.17-.58-1.4-.45-1.39.92a49.62,49.62,0,0,1-.67,6.88C859.14,104,858.89,106.09,858.63,108.19ZM849.81,155c2.84-.17,6-.39,9.18-.52,2.87-.11,5.68-.59,8.51-.94,1-.13,1.24-.68,1-1.55-.56-2.07-.81-4.21-1.26-6.32a117,117,0,0,0-3.78-13.75c-.43-1.26-.54-1.3-1.58-.42-3.28,2.79-6.63,5.51-10.13,8a3.5,3.5,0,0,0-1.37,1.74c-.56,1.7-1.12,3.4-1.76,5.08-.93,2.45-2,4.87-2.92,7.3-.19.5-.46,1,.48,1.16C847.29,155,848.39,154.79,849.81,155ZM779,128.5c-.26,0-.33.25-.3.49a12.12,12.12,0,0,1-.24,2.33,53,53,0,0,1-.56,6.18c-.27,1.36.18,1.83,1.29,2.25,2.51.95,4.91,2.16,7.48,3,.35.11.72.56,1,.22s-.19-.7-.38-1a139.36,139.36,0,0,1-7.72-12.86A1.21,1.21,0,0,0,779,128.5ZM840,154.59c.65.18.92-.25,1.13-.74q.78-1.77,1.53-3.54c.67-1.57,1.32-3.15,2-4.72a.86.86,0,0,0,0-.9c-.21-.27-.4,0-.58.14-2.71,1.94-5.58,3.63-8.46,5.29a44.57,44.57,0,0,1-4.92,2.73c-.25.11-.51.31-.48.61s.35.23.58.26Zm-36-77.25c-.1-.3-.37-.23-.59-.26-1.31-.16-2.65-.23-4-.49-1.62-.31-3.29,0-4.9-.42-.93-.24-1.42.33-1.72,1-1.1,2.67-2.15,5.36-3.23,8-.1.25-.28.53,0,.73s.44,0,.64-.17c.63-.45,1.26-.94,1.93-1.33,3.76-2.24,7.42-4.68,11.34-6.66C803.67,77.73,803.88,77.63,803.91,77.34ZM780.82,98.5c0-.26.09-.54-.13-.68s-.42.09-.59.23c-.73.59-1.46,1.18-2.18,1.78-1.6,1.33-3.2,2.65-4.77,4-.35.29-.72.57-.45,1.18,1.21,2.78,2.38,5.58,3.56,8.37.1.23.1.59.48.56s.49-.33.54-.67a93.23,93.23,0,0,1,2.1-9.48C779.84,102,780.34,100.25,780.82,98.5Zm80.64,27.62a1.8,1.8,0,0,0-.06-.22q-1.78-4.41-3.6-8.81a.56.56,0,0,0-.54-.39c-.32,0-.22.35-.27.57-.69,2.89-1.35,5.79-2.07,8.68-.5,2-1.09,4.08-1.64,6.13-.08.3-.18.66.06.89s.42-.05.59-.2c2.3-1.9,4.6-3.79,6.88-5.71C861.1,126.82,861.45,126.58,861.46,126.12ZM827.64,71l-.4.16-8.43,3.53c-.22.09-.5.2-.49.46,0,.41.4.26.64.32,4.4,1,8.81,1.88,13.11,3.23.63.19,1.29.33,1.94.49.22,0,.49.12.62-.14s-.09-.35-.21-.5c-.53-.68-1.06-1.36-1.61-2q-2.07-2.48-4.17-4.94C828.4,71.28,828.15,70.93,827.64,71Zm28.64,21.56c.12-.94-.63-1.2-1.25-1.46-2.54-1.07-5.1-2.09-7.64-3.15-.3-.12-.62-.34-.86-.07s.06.58.22.83c.82,1.29,1.68,2.56,2.47,3.86,1.91,3.1,3.8,6.21,5.48,9.44a.49.49,0,0,0,.34.28c.25,0,.28-.21.3-.41C855.65,98.76,856,95.65,856.28,92.54Z"/><path class="b3239fa4-64d1-41ef-b7d5-d347a110fa52" d="M845.16,40c.75,1.43,1.9,2.56,2.76,3.92a44.19,44.19,0,0,1,4.77,10.44c.44,1.42.74,2.89,1.23,4.3.35,1-.16,1.3-1,1.39a91.36,91.36,0,0,0-15,3.22,74.18,74.18,0,0,0-7.53,2.43,1.67,1.67,0,0,1-2.06-.49c-2.09-2.2-4.21-4.37-6.43-6.44a92.64,92.64,0,0,0-11-9.13c-.89-.6-.89-1-.15-1.69,2.59-2.41,4.82-5.19,7.72-7.26a.87.87,0,0,0,.41-.69Z"/><path class="b3239fa4-64d1-41ef-b7d5-d347a110fa52" d="M886.35,147.81a2.25,2.25,0,0,0-1.33.41,55.16,55.16,0,0,1-11.15,4c-.89.24-1.41,0-1.51-1a80.87,80.87,0,0,0-1.68-9.1c-.81-3.7-2-7.3-3.07-10.92-.31-1-.74-2-1.05-3a1.14,1.14,0,0,1,.43-1.34,110.3,110.3,0,0,0,8.83-9c2.59-2.86,4.93-5.89,7.26-8.95.36-.47.7-.38,1.09,0a43.43,43.43,0,0,1,6.48,6.66,1.15,1.15,0,0,0,.84.59c0,6.07.28,12.15-.09,18.2A23.87,23.87,0,0,1,886.35,147.81Z"/><path class="eedbff77-46c6-423f-830b-71b4c8275c66" d="M787.89,42.71a9.55,9.55,0,0,0,3,.92,49.13,49.13,0,0,1,12.22,5.64c.71.45.78.75.25,1.46a116.54,116.54,0,0,0-9.14,14.49c-1.06,1.94-2.1,3.88-3,5.9-.29.68-.79.77-1.43.77-3,0-5.92.07-8.87,0-3.11-.09-6.17.62-9.28.49-.37-6,.27-11.92,3.2-17.38a28.16,28.16,0,0,1,12.27-12A4.61,4.61,0,0,1,787.89,42.71Z"/><path class="eedbff77-46c6-423f-830b-71b4c8275c66" d="M891.49,70.46a.61.61,0,0,1-.47-.31,20.74,20.74,0,0,0-10.35-8.24A40.29,40.29,0,0,0,869,59.32a45,45,0,0,0-9.28,0,1.32,1.32,0,0,1-1.7-1.14,62.37,62.37,0,0,0-4.25-12.3,46.45,46.45,0,0,0-3.12-5.38,3.49,3.49,0,0,1-.22-.53c5.32,0,10.67-.37,16,.11a26.84,26.84,0,0,1,17.81,9,28.27,28.27,0,0,1,7,14.44A40.33,40.33,0,0,1,891.49,70.46Z"/><path class="b3239fa4-64d1-41ef-b7d5-d347a110fa52" d="M771.64,76.62a113.33,113.33,0,0,1,15.73-.72c1.6,0,1.63.06,1,1.44a127.47,127.47,0,0,0-4.71,12.23,3.17,3.17,0,0,1-1.19,1.58Q777.06,95.1,772,99.46c-.08.07-.23.06-.34.09Z"/><path class="eedbff77-46c6-423f-830b-71b4c8275c66" d="M777.42,148.69a25.56,25.56,0,0,0,.09-4c0-.92.28-1.29,1.18-.87,3.3,1.56,6.74,2.75,10.14,4a5,5,0,0,0,1.11.36c2.53.34,3.48,2.5,4.8,4.19,1.83,2.35,3.62,4.73,5.57,7a1.43,1.43,0,0,1,.15.44c-9.22.16-16.71-3.43-22.61-10.44A4.1,4.1,0,0,1,777.42,148.69Z"/><path class="b3239fa4-64d1-41ef-b7d5-d347a110fa52" d="M771.65,113.75c1.07.83,1.06,2.26,1.79,3.3.48.7.69,1.58,1.11,2.33a7.7,7.7,0,0,1,.64,5.44c-.36,2-.56,3.94-.73,5.93a43.6,43.6,0,0,0-.51,5.48c0,.62-.45.79-1,.62a7,7,0,0,1-.83-.4c0-.23-.07-.46-.1-.69.53-.75.23-1.36-.35-1.92Z"/><path class="eedbff77-46c6-423f-830b-71b4c8275c66" d="M805.67,159.82c-.11-.81-.77-1.24-1.25-1.8-1.53-1.83-3-3.67-4.53-5.54-.22-.27-.59-.55-.46-1.09,1.32.35,2.63.69,3.93,1.06,3.71,1.06,7.47,1.92,11.26,2.67.42.09,1,0,1.08.49s-.54.46-.86.61c-2.55,1.15-5.09,2.33-7.75,3.24-.11,0-.16.24-.24.36Z"/><path class="b3239fa4-64d1-41ef-b7d5-d347a110fa52" d="M812.76,40c-.15.59-.73.78-1.1,1.16-1.52,1.58-3.13,3.08-4.52,4.78-.42.51-.72.63-1.43.17a53.52,53.52,0,0,0-9.2-4.78c-.46-.19-1.09-.26-1.25-.91l.45-.05c.76.53,1.36.23,1.92-.35Z"/><path class="b3239fa4-64d1-41ef-b7d5-d347a110fa52" d="M891.49,110c-.93-.27-1.36-1.14-2-1.72-1-.85-1.78-1.86-2.84-2.63-.33-.24-1-.5-.55-1.2a62.05,62.05,0,0,0,5-9.48.5.5,0,0,1,.43-.34Z"/><path class="eedbff77-46c6-423f-830b-71b4c8275c66" d="M817.5,159.83c.06-.58.64-.62,1-.73a12.9,12.9,0,0,0,2.83-1.41,6.49,6.49,0,0,1,4.87-.55c2.2.39,4.41.61,6.63.84,1.79.19,3.56.45,5.37.5,1.11,0,.1.93.38,1.34Z"/><path class="eedbff77-46c6-423f-830b-71b4c8275c66" d="M842.81,159.82c.14-.81.72-.91,1.41-.91,3.1,0,6.21.09,9.31,0a92.72,92.72,0,0,0,10.38-.86c1.23-.18,2.47-.24,3.7-.5s1.43-.11,1.46,1.68a3.81,3.81,0,0,1-1.64.24c-.76-.54-1.37-.23-1.93.34l-17.73.06C846.12,159.87,844.46,159.84,842.81,159.82Z"/><path class="eedbff77-46c6-423f-830b-71b4c8275c66" d="M873.09,158c-.18-1.12.32-1.67,1.42-1.82a4.67,4.67,0,0,0,1.69-.45c.44-.24.85-.17.94.45A11.23,11.23,0,0,1,873.09,158Z"/><path class="aa8796fa-3c93-424c-a584-4d74d06c7834" d="M865.5,159.8c.56-.57,1.17-.88,1.93-.34A2.52,2.52,0,0,1,865.5,159.8Z"/><path class="aa8796fa-3c93-424c-a584-4d74d06c7834" d="M797.63,40c-.56.58-1.16.88-1.92.35A2.5,2.5,0,0,1,797.63,40Z"/><path class="aa8796fa-3c93-424c-a584-4d74d06c7834" d="M771.67,133.84c.58.56.88,1.17.35,1.92A2.46,2.46,0,0,1,771.67,133.84Z"/><path class="eedbff77-46c6-423f-830b-71b4c8275c66" d="M854.22,109.94c-.39,2.08-.71,4.16-1.16,6.22-.86,3.9-1.72,7.8-2.74,11.65a55.25,55.25,0,0,1-1.69,5.69c-.42,1.07-.62,2.24-1,3.34a2.82,2.82,0,0,1-1.06,1.37,175,175,0,0,1-14.87,9.5c-2.75,1.58-5.55,3.06-8.34,4.56a2.08,2.08,0,0,1-1.46.19,211.18,211.18,0,0,1-22-5.14c-1.53-.45-3-.95-4.56-1.43a2.57,2.57,0,0,1-1.28-1.15A177,177,0,0,1,781.44,124a3,3,0,0,0-.2-.29,6.49,6.49,0,0,1-1-5.31c1.15-5.48,2.23-11,3.79-16.35.7-2.4,1.36-4.82,2-7.23a5.61,5.61,0,0,1,2.62-3.19A186.58,186.58,0,0,1,807.06,80.5a10.1,10.1,0,0,0,1.5-.9c2.15-1.64,4.45-1.26,6.8-.74,3.51.77,7.07,1.38,10.54,2.31,3.08.84,6.23,1.46,9.22,2.6a9.09,9.09,0,0,0,1.91.53,5.61,5.61,0,0,1,3.83,2.87,180,180,0,0,1,12.43,20.76C853.61,108.59,854.29,109.08,854.22,109.94Zm-62.91,8.3c.29.42.09,1,.46,1.41l.09.68a1.55,1.55,0,0,0,.37,1.45l.08.44a1.16,1.16,0,0,0,.4,1.21l.12.44a1.1,1.1,0,0,0,.44,1.09l.16.35a2.13,2.13,0,0,0,.75,1.57l.18.33a.57.57,0,0,0,.33.59l.22.33a.41.41,0,0,0,.33.55l.78,1.13a.83.83,0,0,0,.61.79l.31.4a.84.84,0,0,0,.67.74l1.9,1.88a.48.48,0,0,0,.49.44l.4.31c.23.42.49.81,1.05.79l.88.6a2,2,0,0,0,1.47.87l.33.18a10.85,10.85,0,0,0,4.66,1.87l.44.09a2,2,0,0,0,1.68.41l.44,0c.4.38,1,.17,1.42.48,0,.48.36.53.74.53,2.34,0,4.69,0,7,0,.38,0,.71-.05.74-.54.42-.3,1-.08,1.41-.46l.68-.09a2,2,0,0,0,1.68-.4l.44-.09a11.05,11.05,0,0,0,4.66-1.84l.33-.19a1.77,1.77,0,0,0,1.33-.76l.31-.22a.43.43,0,0,0,.54-.37l.43-.29a.84.84,0,0,0,.78-.62l.64-.55a1.21,1.21,0,0,0,1-.9l.23-.23a1.71,1.71,0,0,0,1.13-1.22l.78-.9c1.18-.94,1.16-1.2-.16-1.87a3.29,3.29,0,0,0-1.32-.45l-.68-.28a4.73,4.73,0,0,0-2.39-1.15l-.36-.15A6.27,6.27,0,0,0,830,125.4l-.36-.15a.54.54,0,0,0-.6-.29.78.78,0,0,0-.67-.17c-.69,0-.92.53-1.23,1l-.4.33-4.28,2.36-.43.11a.86.86,0,0,0-1,.35l-.67.1a5.41,5.41,0,0,0-2.64.39h-1.91a5.79,5.79,0,0,0-2.64-.37l-.67-.11a.86.86,0,0,0-1-.35l-.43-.11a.4.4,0,0,0-.5-.22l-.68-.28a6.08,6.08,0,0,0-2.15-1.39l-.4-.34a2.44,2.44,0,0,0-1.2-1.19l-1.34-1.81a2.71,2.71,0,0,0-.88-1.69l-.12-.43c.19-.37-.14-.64-.18-1,.33-1.86,1.77-1.45,3-1.45q16.86,0,33.73,0c.43,0,1.08.32,1.25-.48a.38.38,0,0,1,0-.18c.29-.08.32-.31.33-.55a28.83,28.83,0,0,0-.31-5.65c-.18-1,.09-2.07-.67-2.92l0-.37a1.23,1.23,0,0,0-.43-1.52l-.06-.38c.21-.47,0-.78-.39-1.05l-.08-.36a2,2,0,0,0-.7-1.7l-.2-.39a.38.38,0,0,0-.27-.57l-.21-.37a1.4,1.4,0,0,0-.73-1.29l-.58-.87a.45.45,0,0,0-.37-.55.44.44,0,0,0-.12-.15c0-.43-.25-.64-.6-.78l-.34-.4a1.69,1.69,0,0,0-1.09-1.24l-.23-.23a1.83,1.83,0,0,0-1.23-1.13l-1.57-1.26a3.82,3.82,0,0,0-2.24-1.44l-.37-.21a.39.39,0,0,0-.57-.29l-.37-.2a.63.63,0,0,0-.42-.36,26.07,26.07,0,0,0-10-2.35,2,2,0,0,0-2.84,0,20.47,20.47,0,0,0-6.46,1.1,9.74,9.74,0,0,0-4,1.83l-.37.14a1.06,1.06,0,0,0-1,.62.45.45,0,0,0-.17.11.43.43,0,0,0-.55.35.45.45,0,0,0-.16.12.41.41,0,0,0-.53.36l-1.85,1.48a.79.79,0,0,0-.74.67l-.47.47a2.34,2.34,0,0,0-1.34,1.46.26.26,0,0,0-.11.14.83.83,0,0,0-.63.79l-.32.4a.5.5,0,0,0-.38.55.3.3,0,0,0-.11.14.54.54,0,0,0-.37.57.31.31,0,0,0-.1.15.5.5,0,0,0-.34.57l-.2.33a4.31,4.31,0,0,0-1.23,2.5l-.16.35a5.08,5.08,0,0,0-.95,2.74l-.08.44a2,2,0,0,0-.4,1.69c0,.22-.05.45-.08.68-.37.32-.12.85-.42,1.2-.49,0-.57.29-.57.69v5.41C790.76,117.9,790.83,118.22,791.31,118.24Z"/><path class="b3239fa4-64d1-41ef-b7d5-d347a110fa52" d="M860.55,82.07c.31-4-.3-8-.52-12a44,44,0,0,0-.82-5.57c-.15-.81,0-1.16.88-1.15,1.84,0,3.67-.32,5.53-.23a41.66,41.66,0,0,1,12.88,2.2,18.07,18.07,0,0,1,8.23,5.7,16.09,16.09,0,0,1,3.12,7.19,22.28,22.28,0,0,1-.55,8.83,39.78,39.78,0,0,1-2.95,8.34c-1,2.16-2.17,4.23-3.34,6.3-.33.59-.64.37-1,.09-2.31-1.63-4.62-3.24-7-4.75q-5.1-3.24-10.49-6c-1.25-.64-2.85-.94-3.65-2s-.19-2.74-.27-4.13C860.5,84,860.55,83,860.55,82.07Z"/><path class="b3239fa4-64d1-41ef-b7d5-d347a110fa52" d="M810,73.79c-2.09-.25-4.27-.5-6.44-.77a52.93,52.93,0,0,0-6.65-.67c-1.4,0-1.57-.32-1-1.59a120.63,120.63,0,0,1,10.61-17.57c.56-.78,1.07-1,2-.34,3.64,2.8,7.19,5.69,10.55,8.84,1.78,1.67,3.48,3.42,5.26,5.08.65.6.49,1-.24,1.29a109,109,0,0,0-12.22,5.4A4.82,4.82,0,0,1,810,73.79Z"/><path class="b3239fa4-64d1-41ef-b7d5-d347a110fa52" d="M856.52,82.35c0,1.22,0,2.45,0,3.67.05.92-.28,1.12-1.1.78-1.28-.54-2.57-1.07-3.87-1.58-2.78-1.09-5.54-2.26-8.4-3.13a3.65,3.65,0,0,1-2-1.37c-2.53-3.69-5.44-7.09-8.26-10.55-.51-.63-.6-.84.32-1.17,3.54-1.23,7.16-2.2,10.78-3.11,3.25-.82,6.57-1.38,9.87-2,.69-.14,1.14,0,1.28.92a111.61,111.61,0,0,1,1.19,11.68C856.41,78.43,856.51,80.39,856.52,82.35Z"/><path class="b3239fa4-64d1-41ef-b7d5-d347a110fa52" d="M858.63,108.19c.26-2.1.51-4.19.78-6.28a49.62,49.62,0,0,0,.67-6.88c0-1.37.22-1.5,1.39-.92A139.75,139.75,0,0,1,876,102.54c1.27.84,2.46,1.81,3.72,2.68.5.35.55.65.18,1.15a96.54,96.54,0,0,1-7.43,9.09c-1.6,1.68-3.1,3.44-4.69,5.12-.67.71-1.47,1.29-2.17,2s-1,.4-1.25-.34c-1.27-3.36-2.76-6.63-4.3-9.88C859.42,111,858.44,109.8,858.63,108.19Z"/><path class="b3239fa4-64d1-41ef-b7d5-d347a110fa52" d="M849.81,155c-1.42-.17-2.52,0-3.62-.2-.94-.19-.67-.66-.48-1.16,1-2.43,2-4.85,2.92-7.3.64-1.68,1.2-3.38,1.76-5.08a3.5,3.5,0,0,1,1.37-1.74c3.5-2.51,6.85-5.23,10.13-8,1-.88,1.15-.84,1.58.42a117,117,0,0,1,3.78,13.75c.45,2.11.7,4.25,1.26,6.32.23.87,0,1.42-1,1.55-2.83.35-5.64.83-8.51.94C855.82,154.57,852.65,154.79,849.81,155Z"/><path class="eedbff77-46c6-423f-830b-71b4c8275c66" d="M779,128.5a1.21,1.21,0,0,1,.61.61A139.36,139.36,0,0,0,787.34,142c.19.28.74.59.38,1s-.69-.11-1-.22c-2.57-.82-5-2-7.48-3-1.11-.42-1.56-.89-1.29-2.25a53,53,0,0,0,.56-6.18,12.12,12.12,0,0,0,.24-2.33C778.68,128.75,778.75,128.53,779,128.5Z"/><path class="eedbff77-46c6-423f-830b-71b4c8275c66" d="M840,154.59l-9.22-.87c-.23,0-.54.05-.58-.26s.23-.5.48-.61a44.57,44.57,0,0,0,4.92-2.73c2.88-1.66,5.75-3.35,8.46-5.29.18-.13.37-.41.58-.14a.86.86,0,0,1,0,.9c-.66,1.57-1.31,3.15-2,4.72q-.75,1.77-1.53,3.54C840.87,154.34,840.6,154.77,840,154.59Z"/><path class="eedbff77-46c6-423f-830b-71b4c8275c66" d="M803.91,77.34c0,.29-.24.39-.45.49-3.92,2-7.58,4.42-11.34,6.66-.67.39-1.3.88-1.93,1.33-.2.14-.41.32-.64.17s-.13-.48,0-.73c1.08-2.68,2.13-5.37,3.23-8,.3-.72.79-1.29,1.72-1,1.61.42,3.28.11,4.9.42,1.3.26,2.64.33,4,.49C803.54,77.11,803.81,77,803.91,77.34Z"/><path class="eedbff77-46c6-423f-830b-71b4c8275c66" d="M780.82,98.5c-.48,1.75-1,3.51-1.44,5.29a93.23,93.23,0,0,0-2.1,9.48c0,.34-.15.63-.54.67s-.38-.33-.48-.56c-1.18-2.79-2.35-5.59-3.56-8.37-.27-.61.1-.89.45-1.18,1.57-1.35,3.17-2.67,4.77-4,.72-.6,1.45-1.19,2.18-1.78.17-.14.34-.4.59-.23S780.82,98.24,780.82,98.5Z"/><path class="eedbff77-46c6-423f-830b-71b4c8275c66" d="M861.46,126.12c0,.46-.36.7-.65.94-2.28,1.92-4.58,3.81-6.88,5.71-.17.15-.38.41-.59.2s-.14-.59-.06-.89c.55-2.05,1.14-4.08,1.64-6.13.72-2.89,1.38-5.79,2.07-8.68,0-.22,0-.53.27-.57a.56.56,0,0,1,.54.39q1.82,4.39,3.6,8.81A1.8,1.8,0,0,1,861.46,126.12Z"/><path class="eedbff77-46c6-423f-830b-71b4c8275c66" d="M827.64,71c.51,0,.76.3,1,.59q2.1,2.46,4.17,4.94c.55.66,1.08,1.34,1.61,2,.12.15.33.28.21.5s-.4.19-.62.14c-.65-.16-1.31-.3-1.94-.49-4.3-1.35-8.71-2.25-13.11-3.23-.24-.06-.62.09-.64-.32,0-.26.27-.37.49-.46l8.43-3.53Z"/><path class="eedbff77-46c6-423f-830b-71b4c8275c66" d="M856.28,92.54c-.31,3.11-.63,6.22-.94,9.32,0,.2-.05.43-.3.41a.49.49,0,0,1-.34-.28c-1.68-3.23-3.57-6.34-5.48-9.44-.79-1.3-1.65-2.57-2.47-3.86-.16-.25-.48-.54-.22-.83s.56,0,.86.07c2.54,1.06,5.1,2.08,7.64,3.15C855.65,91.34,856.4,91.6,856.28,92.54Z"/><path class="e51a239c-fad8-4375-b9fa-0c65ee94e619" d="M802.33,135.76l-.88-.6c-.21-.46-.47-.83-1.05-.79l-.4-.31a.42.42,0,0,0-.49-.44l-1.9-1.88a.68.68,0,0,0-.67-.74l-.31-.4c.06-.47-.18-.7-.61-.79l-.78-1.13a.45.45,0,0,0-.33-.55l-.22-.33c.1-.31,0-.53-.33-.59l-.18-.33a1.72,1.72,0,0,0-.75-1.57c0-.12-.11-.23-.16-.35a.77.77,0,0,0-.44-1.09l-.12-.44c.34-.56,0-.9-.4-1.21l-.08-.44a1,1,0,0,0-.37-1.45l-.09-.68a5.05,5.05,0,0,0-.39-3.58,9.16,9.16,0,0,1,0-2.28,5.34,5.34,0,0,0,.38-3.58c0-.23,0-.46.08-.68a1.24,1.24,0,0,0,.4-1.69c0-.14.06-.29.08-.44a4,4,0,0,0,.95-2.74c.05-.12.1-.23.16-.35a4.34,4.34,0,0,0,1.23-2.5c.07-.11.14-.22.2-.33a.41.41,0,0,0,.34-.57.31.31,0,0,1,.1-.15c.33-.05.44-.25.37-.57a.3.3,0,0,1,.11-.14c.32,0,.42-.25.38-.55l.32-.4a.67.67,0,0,0,.63-.79.26.26,0,0,1,.11-.14,2.22,2.22,0,0,0,1.34-1.46l.47-.47a.7.7,0,0,0,.74-.67l1.85-1.48a.44.44,0,0,0,.53-.36.45.45,0,0,1,.16-.12.43.43,0,0,0,.55-.35.45.45,0,0,1,.17-.11c.45,0,.85-.13,1-.62l.37-.14a1.5,1.5,0,0,0,.56-.09,23.45,23.45,0,0,1,7.15-2.14,30.33,30.33,0,0,1,11,.44c1.77.36,3.37,1.23,5.13,1.57l.37.2a.46.46,0,0,0,.57.29l.37.21a4.52,4.52,0,0,0,2.24,1.44l1.57,1.26a1.51,1.51,0,0,0,1.23,1.13l.23.23a1.56,1.56,0,0,0,1.09,1.24l.34.4a.7.7,0,0,0,.6.78.44.44,0,0,1,.12.15.43.43,0,0,0,.37.55c.2.29.39.58.58.87a1.41,1.41,0,0,0,.73,1.29l.21.37a.48.48,0,0,0,.27.57c.06.13.13.26.2.39a2.19,2.19,0,0,0,.7,1.7c0,.12,0,.24.08.36a1,1,0,0,0,.39,1.05l.06.38a2.24,2.24,0,0,0,.43,1.52c0,.12,0,.25,0,.37a1.51,1.51,0,0,0-.07.46,52.44,52.44,0,0,1,.72,8.66.38.38,0,0,0,0,.18H804.26a5.63,5.63,0,0,0-.81.11c-.77.28-.07.75-.16,1.12.05.6-.21,1.31.54,1.69l.12.43a1.89,1.89,0,0,0,.88,1.69l1.34,1.81a1.27,1.27,0,0,0,1.2,1.19l.4.34a2.83,2.83,0,0,0,2.15,1.39l.68.28c.07.28.18.47.5.22l.43.11c.23.4.5.7,1,.35l.67.11a2.47,2.47,0,0,0,2.64.37h1.91c.92.13,1.88.58,2.64-.39l.67-.1c.5.37.76,0,1-.35l.43-.11a6.82,6.82,0,0,0,4.28-2.36l.4-.33c.66,0,1-.5,1.23-1a.78.78,0,0,1,.67.17c.09.32.3.39.6.29l.36.15a4.41,4.41,0,0,0,2.71,1.27l.36.15a3.81,3.81,0,0,0,2.39,1.15l.68.28c.06.41.45.4.71.51.89.35,1.46.81.77,1.81l-.78.9a1.52,1.52,0,0,0-1.13,1.22l-.23.23a1.06,1.06,0,0,0-1,.9l-.64.55a.66.66,0,0,0-.78.62l-.43.29a.45.45,0,0,0-.54.37l-.31.22c-.68-.14-1,.29-1.33.76l-.33.19a9.48,9.48,0,0,0-3.07,1.1c-.53.25-1.33-.06-1.59.74l-.44.09a1.27,1.27,0,0,0-1.68.4l-.68.09a4,4,0,0,0-3.1.39,32.1,32.1,0,0,1-5.37,0,3.35,3.35,0,0,0-2.87-.4l-.44,0a1.32,1.32,0,0,0-1.68-.41l-.44-.09c-.24-.82-1-.53-1.58-.74a12.93,12.93,0,0,0-3.08-1.13l-.33-.18A1.83,1.83,0,0,0,802.33,135.76Zm27.24-26.93a1.09,1.09,0,0,0-.38-1l-.13-.44a.74.74,0,0,0-.38-.62,7.77,7.77,0,0,0-2.16-3c-4.18-3.84-9.07-4.6-14.37-3.08a12.26,12.26,0,0,0-8.23,7.64c-.2.14-.16.34-.15.54,0,.61.35.67.84.67h24.1C829.19,109.49,829.59,109.45,829.57,108.83Z"/><path class="b3239fa4-64d1-41ef-b7d5-d347a110fa52" d="M803.45,118.32a5.63,5.63,0,0,1,.81-.11h37.36c-.17.8-.82.48-1.25.48q-16.87,0-33.73,0c-1.22,0-2.66-.41-3,1.45,0-.24-.09-.49-.14-.73C804,119,803.58,118.69,803.45,118.32Z"/><path class="bb6ceda0-e532-4a45-af71-9ddc8db5065b" d="M828.2,92.17c-1.76-.34-3.36-1.21-5.13-1.57a30.33,30.33,0,0,0-11-.44A23.45,23.45,0,0,0,805,92.3a1.5,1.5,0,0,1-.56.09,9.74,9.74,0,0,1,4-1.83,20.47,20.47,0,0,1,6.46-1.1h2.84a26.07,26.07,0,0,1,10,2.35A.63.63,0,0,1,828.2,92.17Z"/><path class="bb6ceda0-e532-4a45-af71-9ddc8db5065b" d="M841.65,118a52.44,52.44,0,0,0-.72-8.66,1.51,1.51,0,0,1,.07-.46c.76.85.49,1.94.67,2.92a28.83,28.83,0,0,1,.31,5.65C842,117.73,841.94,118,841.65,118Z"/><path class="b3239fa4-64d1-41ef-b7d5-d347a110fa52" d="M814.22,139.63a32.1,32.1,0,0,0,5.37,0,5.31,5.31,0,0,0,1.69.07c0,.49-.36.54-.74.54-2.34,0-4.69,0-7,0-.38,0-.72-.05-.74-.53C813.25,139.66,813.75,139.84,814.22,139.63Z"/><path class="b3239fa4-64d1-41ef-b7d5-d347a110fa52" d="M791.38,113.79a9.16,9.16,0,0,0,0,2.28,7.9,7.9,0,0,0-.07,2.17c-.48,0-.55-.34-.54-.73V112.1c0-.4.08-.71.57-.69A8.26,8.26,0,0,0,791.38,113.79Z"/><path class="bb6ceda0-e532-4a45-af71-9ddc8db5065b" d="M825.49,138.66c.26-.8,1.06-.49,1.59-.74a9.48,9.48,0,0,1,3.07-1.1A11.05,11.05,0,0,1,825.49,138.66Z"/><path class="bb6ceda0-e532-4a45-af71-9ddc8db5065b" d="M804.13,136.81a12.93,12.93,0,0,1,3.08,1.13c.53.21,1.34-.08,1.58.74A10.85,10.85,0,0,1,804.13,136.81Z"/><path class="bb6ceda0-e532-4a45-af71-9ddc8db5065b" d="M826.75,126.11a6.82,6.82,0,0,1-4.28,2.36Z"/><path class="bb6ceda0-e532-4a45-af71-9ddc8db5065b" d="M791.31,118.24a7.9,7.9,0,0,1,.07-2.17,5.05,5.05,0,0,1,.39,3.58C791.4,119.25,791.6,118.66,791.31,118.24Z"/><path class="bb6ceda0-e532-4a45-af71-9ddc8db5065b" d="M791.38,113.79a8.26,8.26,0,0,1,0-2.38c.3-.35,0-.88.42-1.2A5.34,5.34,0,0,1,791.38,113.79Z"/><path class="bb6ceda0-e532-4a45-af71-9ddc8db5065b" d="M837.63,130.57c.69-1,.12-1.46-.77-1.81-.26-.11-.65-.1-.71-.51a3.29,3.29,0,0,1,1.32.45C838.79,129.37,838.81,129.63,837.63,130.57Z"/><path class="bb6ceda0-e532-4a45-af71-9ddc8db5065b" d="M821.28,139.7a5.31,5.31,0,0,1-1.69-.07,4,4,0,0,1,3.1-.39C822.29,139.62,821.7,139.4,821.28,139.7Z"/><path class="bb6ceda0-e532-4a45-af71-9ddc8db5065b" d="M814.22,139.63c-.47.21-1,0-1.45.08-.42-.31-1-.1-1.42-.48A3.35,3.35,0,0,1,814.22,139.63Z"/><path class="bb6ceda0-e532-4a45-af71-9ddc8db5065b" d="M820.38,129c-.76,1-1.72.52-2.64.39A5.41,5.41,0,0,1,820.38,129Z"/><path class="b3239fa4-64d1-41ef-b7d5-d347a110fa52" d="M817.73,89.46h-2.84A2,2,0,0,1,817.73,89.46Z"/><path class="bb6ceda0-e532-4a45-af71-9ddc8db5065b" d="M793.27,104.66a4,4,0,0,1-.95,2.74A5.08,5.08,0,0,1,793.27,104.66Z"/><path class="bb6ceda0-e532-4a45-af71-9ddc8db5065b" d="M815.83,129.42a2.47,2.47,0,0,1-2.64-.37A5.79,5.79,0,0,1,815.83,129.42Z"/><path class="bb6ceda0-e532-4a45-af71-9ddc8db5065b" d="M832.72,126.67A4.41,4.41,0,0,1,830,125.4,6.27,6.27,0,0,1,832.72,126.67Z"/><path class="bb6ceda0-e532-4a45-af71-9ddc8db5065b" d="M831.75,94.31a4.52,4.52,0,0,1-2.24-1.44A3.82,3.82,0,0,1,831.75,94.31Z"/><path class="bb6ceda0-e532-4a45-af71-9ddc8db5065b" d="M794.66,101.81a4.34,4.34,0,0,1-1.23,2.5A4.31,4.31,0,0,1,794.66,101.81Z"/><path class="bb6ceda0-e532-4a45-af71-9ddc8db5065b" d="M809.92,128a2.83,2.83,0,0,1-2.15-1.39A6.08,6.08,0,0,1,809.92,128Z"/><path class="bb6ceda0-e532-4a45-af71-9ddc8db5065b" d="M835.47,128a3.81,3.81,0,0,1-2.39-1.15A4.73,4.73,0,0,1,835.47,128Z"/><path class="bb6ceda0-e532-4a45-af71-9ddc8db5065b" d="M792.24,107.84a1.24,1.24,0,0,1-.4,1.69A2,2,0,0,1,792.24,107.84Z"/><path class="bb6ceda0-e532-4a45-af71-9ddc8db5065b" d="M823.37,139.15a1.27,1.27,0,0,1,1.68-.4A2,2,0,0,1,823.37,139.15Z"/><path class="bb6ceda0-e532-4a45-af71-9ddc8db5065b" d="M798.56,96.71a2.22,2.22,0,0,1-1.34,1.46A2.34,2.34,0,0,1,798.56,96.71Z"/><path class="bb6ceda0-e532-4a45-af71-9ddc8db5065b" d="M804.83,123.25a1.89,1.89,0,0,1-.88-1.69A2.71,2.71,0,0,1,804.83,123.25Z"/><path class="bb6ceda0-e532-4a45-af71-9ddc8db5065b" d="M809.23,138.77a1.32,1.32,0,0,1,1.68.41A2,2,0,0,1,809.23,138.77Z"/><path class="bb6ceda0-e532-4a45-af71-9ddc8db5065b" d="M840,105.24a2.19,2.19,0,0,1-.7-1.7A2,2,0,0,1,840,105.24Z"/><path class="bb6ceda0-e532-4a45-af71-9ddc8db5065b" d="M835.87,98.17a1.56,1.56,0,0,1-1.09-1.24A1.69,1.69,0,0,1,835.87,98.17Z"/><path class="bb6ceda0-e532-4a45-af71-9ddc8db5065b" d="M791.86,120.33a1,1,0,0,1,.37,1.45A1.55,1.55,0,0,1,791.86,120.33Z"/><path class="bb6ceda0-e532-4a45-af71-9ddc8db5065b" d="M828.38,124.79c-.28.49-.57,1-1.23,1C827.46,125.32,827.69,124.77,828.38,124.79Z"/><path class="bb6ceda0-e532-4a45-af71-9ddc8db5065b" d="M807.37,126.25a1.27,1.27,0,0,1-1.2-1.19A2.44,2.44,0,0,1,807.37,126.25Z"/><path class="bb6ceda0-e532-4a45-af71-9ddc8db5065b" d="M834.55,96.7a1.51,1.51,0,0,1-1.23-1.13A1.83,1.83,0,0,1,834.55,96.7Z"/><path class="bb6ceda0-e532-4a45-af71-9ddc8db5065b" d="M835.72,132.69a1.52,1.52,0,0,1,1.13-1.22A1.71,1.71,0,0,1,835.72,132.69Z"/><path class="bb6ceda0-e532-4a45-af71-9ddc8db5065b" d="M803.51,119.44c0,.24.09.49.14.73s.37.59.18,1c-.75-.38-.49-1.09-.54-1.69h.22Z"/><path class="bb6ceda0-e532-4a45-af71-9ddc8db5065b" d="M841,108.55a2.24,2.24,0,0,1-.43-1.52A1.23,1.23,0,0,1,841,108.55Z"/><path class="bb6ceda0-e532-4a45-af71-9ddc8db5065b" d="M793.43,125.31a1.72,1.72,0,0,1,.75,1.57A2.13,2.13,0,0,1,793.43,125.31Z"/><path class="bb6ceda0-e532-4a45-af71-9ddc8db5065b" d="M802.33,135.76a1.83,1.83,0,0,1,1.47.87A2,2,0,0,1,802.33,135.76Z"/><path class="bb6ceda0-e532-4a45-af71-9ddc8db5065b" d="M792.31,122.22c.43.31.74.65.4,1.21A1.16,1.16,0,0,1,792.31,122.22Z"/><path class="bb6ceda0-e532-4a45-af71-9ddc8db5065b" d="M830.48,136.63c.32-.47.65-.9,1.33-.76A1.77,1.77,0,0,1,830.48,136.63Z"/><path class="bb6ceda0-e532-4a45-af71-9ddc8db5065b" d="M838.61,102.21a1.41,1.41,0,0,1-.73-1.29A1.4,1.4,0,0,1,838.61,102.21Z"/><path class="bb6ceda0-e532-4a45-af71-9ddc8db5065b" d="M800.4,134.37c.58,0,.84.33,1.05.79C800.89,135.18,800.63,134.79,800.4,134.37Z"/><path class="bb6ceda0-e532-4a45-af71-9ddc8db5065b" d="M834.51,133.82a1.06,1.06,0,0,1,1-.9A1.21,1.21,0,0,1,834.51,133.82Z"/><path class="bb6ceda0-e532-4a45-af71-9ddc8db5065b" d="M822,128.58c-.23.4-.49.72-1,.35A.86.86,0,0,1,822,128.58Z"/><path class="bb6ceda0-e532-4a45-af71-9ddc8db5065b" d="M812.52,128.94c-.49.35-.76.05-1-.35A.86.86,0,0,1,812.52,128.94Z"/><path class="bb6ceda0-e532-4a45-af71-9ddc8db5065b" d="M792.83,123.87a.77.77,0,0,1,.44,1.09A1.1,1.1,0,0,1,792.83,123.87Z"/><path class="bb6ceda0-e532-4a45-af71-9ddc8db5065b" d="M840.46,106.65a1,1,0,0,1-.39-1.05C840.43,105.87,840.67,106.18,840.46,106.65Z"/><path class="bb6ceda0-e532-4a45-af71-9ddc8db5065b" d="M804,92.53c-.16.49-.56.58-1,.62A1.06,1.06,0,0,1,804,92.53Z"/><path class="bb6ceda0-e532-4a45-af71-9ddc8db5065b" d="M796,129.81c.43.09.67.32.61.79A.83.83,0,0,1,796,129.81Z"/><path class="bb6ceda0-e532-4a45-af71-9ddc8db5065b" d="M796.94,131a.68.68,0,0,1,.67.74A.84.84,0,0,1,796.94,131Z"/><path class="bb6ceda0-e532-4a45-af71-9ddc8db5065b" d="M797.11,98.31a.67.67,0,0,1-.63.79A.83.83,0,0,1,797.11,98.31Z"/><path class="bb6ceda0-e532-4a45-af71-9ddc8db5065b" d="M833.09,135a.66.66,0,0,1,.78-.62A.84.84,0,0,1,833.09,135Z"/><path class="bb6ceda0-e532-4a45-af71-9ddc8db5065b" d="M836.81,99.35a.7.7,0,0,1-.6-.78C836.56,98.71,836.84,98.92,836.81,99.35Z"/><path class="bb6ceda0-e532-4a45-af71-9ddc8db5065b" d="M799.77,95.57a.7.7,0,0,1-.74.67A.79.79,0,0,1,799.77,95.57Z"/><path class="bb6ceda0-e532-4a45-af71-9ddc8db5065b" d="M839.09,103.15a.48.48,0,0,1-.27-.57A.38.38,0,0,1,839.09,103.15Z"/><path class="bb6ceda0-e532-4a45-af71-9ddc8db5065b" d="M799.51,133.62a.42.42,0,0,1,.49.44A.48.48,0,0,1,799.51,133.62Z"/><path class="bb6ceda0-e532-4a45-af71-9ddc8db5065b" d="M837.3,100.05a.43.43,0,0,1-.37-.55A.45.45,0,0,1,837.3,100.05Z"/><path class="bb6ceda0-e532-4a45-af71-9ddc8db5065b" d="M832.12,135.65a.45.45,0,0,1,.54-.37A.43.43,0,0,1,832.12,135.65Z"/><path class="bb6ceda0-e532-4a45-af71-9ddc8db5065b" d="M811.1,128.48c-.32.25-.43.06-.5-.22A.4.4,0,0,1,811.1,128.48Z"/><path class="bb6ceda0-e532-4a45-af71-9ddc8db5065b" d="M794.91,128.13a.45.45,0,0,1,.33.55A.41.41,0,0,1,794.91,128.13Z"/><path class="bb6ceda0-e532-4a45-af71-9ddc8db5065b" d="M794.36,127.21c.35.06.43.28.33.59A.57.57,0,0,1,794.36,127.21Z"/><path class="bb6ceda0-e532-4a45-af71-9ddc8db5065b" d="M795.2,100.91a.41.41,0,0,1-.34.57A.5.5,0,0,1,795.2,100.91Z"/><path class="bb6ceda0-e532-4a45-af71-9ddc8db5065b" d="M796.16,99.5c0,.3-.06.5-.38.55A.5.5,0,0,1,796.16,99.5Z"/><path class="bb6ceda0-e532-4a45-af71-9ddc8db5065b" d="M802.15,93.73a.44.44,0,0,1-.53.36A.41.41,0,0,1,802.15,93.73Z"/><path class="bb6ceda0-e532-4a45-af71-9ddc8db5065b" d="M802.86,93.26a.43.43,0,0,1-.55.35A.43.43,0,0,1,802.86,93.26Z"/><path class="bb6ceda0-e532-4a45-af71-9ddc8db5065b" d="M795.67,100.19c.07.32,0,.52-.37.57A.54.54,0,0,1,795.67,100.19Z"/><path class="bb6ceda0-e532-4a45-af71-9ddc8db5065b" d="M829.14,92.66a.46.46,0,0,1-.57-.29A.39.39,0,0,1,829.14,92.66Z"/><path class="bb6ceda0-e532-4a45-af71-9ddc8db5065b" d="M829.65,125.25c-.3.1-.51,0-.6-.29A.54.54,0,0,1,829.65,125.25Z"/><path class="eedbff77-46c6-423f-830b-71b4c8275c66" d="M803.92,108.28a12.26,12.26,0,0,1,8.23-7.64c5.3-1.52,10.19-.76,14.37,3.08a7.77,7.77,0,0,1,2.16,3c-.08.34,0,.58.38.62,0,.15.08.3.13.44a.44.44,0,0,0-.33.5Z"/><path class="a9b8ec40-a487-4942-8384-78159c1585fe" d="M829.57,108.83c0,.62-.38.66-.86.66h-24.1c-.49,0-.87-.06-.84-.67,4.55,0,9.11,0,13.66,0l11.65,0Z"/><path class="b3239fa4-64d1-41ef-b7d5-d347a110fa52" d="M829.08,108.77l-11.65,0c-4.55,0-9.11,0-13.66,0,0-.2,0-.4.15-.54l24.94,0A.5.5,0,0,1,829.08,108.77Z"/><path class="eedbff77-46c6-423f-830b-71b4c8275c66" d="M803.51,119.44h-.22c.09-.37-.61-.84.16-1.12C803.58,118.69,804,119,803.51,119.44Z"/><path class="aa8796fa-3c93-424c-a584-4d74d06c7834" d="M829.08,108.77a.5.5,0,0,0-.22-.47.44.44,0,0,1,.33-.5,1.09,1.09,0,0,1,.38,1Z"/><path class="aa8796fa-3c93-424c-a584-4d74d06c7834" d="M829.06,107.36c-.39,0-.46-.28-.38-.62A.74.74,0,0,1,829.06,107.36Z"/><path class="b04f39e4-2172-4fb1-bd36-af2a9b537f6c" d="M943,131q-9.3,0-15.14-5.71t-5.84-15.19V109a25.51,25.51,0,0,1,2.46-11.38,18.05,18.05,0,0,1,7-7.74,19.52,19.52,0,0,1,10.29-2.71q8.67,0,13.65,5.47t5,15.51v4.6H933.5a10.45,10.45,0,0,0,3.3,6.65,10,10,0,0,0,7,2.5,12.2,12.2,0,0,0,10.2-4.73l5.54,6.21a17,17,0,0,1-6.87,5.61A22.59,22.59,0,0,1,943,131Zm-1.29-34.73a7,7,0,0,0-5.45,2.28,11.75,11.75,0,0,0-2.68,6.51h15.71v-.9a8.46,8.46,0,0,0-2-5.83A7.32,7.32,0,0,0,941.74,96.26Z"/><path class="b04f39e4-2172-4fb1-bd36-af2a9b537f6c" d="M1011.86,113.8l7.65-40.47h11.68l-12.61,56.88h-11.8l-9.26-38.05-9.26,38.05H976.47L963.85,73.33h11.68l7.69,40.39,9.38-40.39h9.92Z"/><path class="b04f39e4-2172-4fb1-bd36-af2a9b537f6c" d="M1055,131q-9.3,0-15.14-5.71T1034,110.09V109a25.51,25.51,0,0,1,2.46-11.38,18.12,18.12,0,0,1,7-7.74,19.57,19.57,0,0,1,10.29-2.71q8.67,0,13.65,5.47t5,15.51v4.6h-26.91a10.45,10.45,0,0,0,3.3,6.65,10,10,0,0,0,7,2.5,12.2,12.2,0,0,0,10.2-4.73l5.54,6.21a17,17,0,0,1-6.87,5.61A22.56,22.56,0,0,1,1055,131Zm-1.29-34.73a7,7,0,0,0-5.45,2.28,11.75,11.75,0,0,0-2.67,6.51h15.7v-.9a8.41,8.41,0,0,0-2-5.83A7.29,7.29,0,0,0,1053.73,96.26Z"/><path class="b04f39e4-2172-4fb1-bd36-af2a9b537f6c" d="M1091.27,120.79h24.88v9.42h-36.6V73.33h11.72Z"/><path class="b04f39e4-2172-4fb1-bd36-af2a9b537f6c" d="M1122.05,77a5.58,5.58,0,0,1,1.7-4.18,7.33,7.33,0,0,1,9.24,0,6,6,0,0,1,0,8.4,7.24,7.24,0,0,1-9.18,0A5.53,5.53,0,0,1,1122.05,77Zm12,53.21h-11.32V87.94H1134Z"/><path class="b04f39e4-2172-4fb1-bd36-af2a9b537f6c" d="M1153.73,87.94l.35,4.88a14.77,14.77,0,0,1,12.15-5.66q6.72,0,10,3.94t3.36,11.8v27.31H1168.3v-27q0-3.58-1.56-5.21t-5.2-1.62a7.75,7.75,0,0,0-7.14,4.06v29.81h-11.29V87.94Z"/><path class="b04f39e4-2172-4fb1-bd36-af2a9b537f6c" d="M1203.5,113.25l-4.07,4.06v12.9h-11.28v-60h11.28v33.24l2.19-2.81,10.82-12.7H1226l-15.28,17.62,16.61,24.65h-13Z"/></svg>