<svg id="b6ae618b-4216-4bbc-91f8-5cc679d3de98" data-name="Ebene 1" xmlns="http://www.w3.org/2000/svg" xmlns:xlink="http://www.w3.org/1999/xlink" viewBox="0 0 1680 200"><defs><style>.ec532dde-68c2-4c96-9be8-e06e6f177e9f{fill:none;stroke:#ccc;stroke-miterlimit:10;}.b2fce80c-b7cc-49f9-a515-7d3b4b4d4dfc{fill:#f9b213;}.fdedec14-26ce-4e42-b0b3-defb453f2843{fill:url(#a3e26138-0e26-4ea3-a567-6d5e59c2b222);}.b0f41cae-6bd0-4d9d-84f7-305ba0873408{fill:#fff;}</style><linearGradient id="a3e26138-0e26-4ea3-a567-6d5e59c2b222" x1="179.77" y1="5930.81" x2="179.77" y2="5915.35" gradientTransform="translate(-555.01 -45862.2) scale(7.76)" gradientUnits="userSpaceOnUse"><stop offset="0" stop-color="#c8e63c"/><stop offset="0.02" stop-color="#c3e43b"/><stop offset="0.26" stop-color="#7fd02d"/><stop offset="0.37" stop-color="#64c828"/><stop offset="0.48" stop-color="#5ec727"/><stop offset="0.62" stop-color="#4ec424"/><stop offset="0.78" stop-color="#32be1e"/><stop offset="0.95" stop-color="#0cb616"/><stop offset="1" stop-color="#00b414"/></linearGradient></defs><title>HOOBS_x_wemo</title><g id="e7a4b053-854c-4d76-95ff-935d653b1830" data-name="Stroke"><line class="ec532dde-68c2-4c96-9be8-e06e6f177e9f" x1="700.5" y1="60" x2="700.5" y2="140"/></g><path class="b2fce80c-b7cc-49f9-a515-7d3b4b4d4dfc" d="M154.17,41.5h-78A19.5,19.5,0,0,0,56.67,61v78a19.5,19.5,0,0,0,19.5,19.5h78a19.5,19.5,0,0,0,19.5-19.5V61A19.5,19.5,0,0,0,154.17,41.5Zm2,59.26a3.24,3.24,0,0,1-4.59,0,3.21,3.21,0,0,1-.95-2.09l-8.82-8.82V69.92a1.63,1.63,0,0,0-1.63-1.63h-3.25a1.63,1.63,0,0,0-1.62,1.63V83.6l-4.88-5.13-15-15a1.62,1.62,0,0,0-2.3,0L78.59,97.89a1.64,1.64,0,0,0,0,2.3l2.3,2.3a1.64,1.64,0,0,0,2.3,0l26.43-26.43a6.49,6.49,0,0,1,9.19,0l26.43,26.43a6.51,6.51,0,0,1,0,9.19l-2.3,2.3a6.49,6.49,0,0,1-9.19,0L115.36,95.59a1.64,1.64,0,0,0-2.3,0L94.68,114a1.62,1.62,0,0,0,0,2.3l2.3,2.29a1.61,1.61,0,0,0,2.29,0l10.35-10.34a6.49,6.49,0,0,1,9.19,0l10.34,10.34a6.51,6.51,0,0,1,0,9.2L118,138.89a3.21,3.21,0,0,1-1,2.09,3.25,3.25,0,1,1-2.5-5.54l11.12-11.12a1.62,1.62,0,0,0,0-2.3l-10.34-10.34a1.62,1.62,0,0,0-2.3,0L102.72,122a6.49,6.49,0,0,1-9.19,0l-2.3-2.3a6.49,6.49,0,0,1,0-9.19l18.39-18.38a6.49,6.49,0,0,1,9.19,0l18.38,18.38a1.64,1.64,0,0,0,2.3,0l2.3-2.3a1.64,1.64,0,0,0,0-2.3L115.36,79.51a1.62,1.62,0,0,0-2.3,0L86.63,105.93a6.49,6.49,0,0,1-9.19,0l-2.3-2.29a6.52,6.52,0,0,1,0-9.2L109.62,60a6.49,6.49,0,0,1,9.19,0l11.6,11.61V69.92a6.5,6.5,0,0,1,6.5-6.5h3.25a6.5,6.5,0,0,1,6.5,6.5V87.83l7.4,7.39a3.25,3.25,0,0,1,2.09,5.54Z"/><path class="b2fce80c-b7cc-49f9-a515-7d3b4b4d4dfc" d="M612.42,61H624.1v3.65h-3.71v11H616.1v-11h-3.68Zm13.09,0h4.72l3.34,7.78L637,61h4.72V75.62h-3.85V67.39l-2.77,6.81h-2.92l-2.77-6.81v8.23h-3.85Z"/><path class="b2fce80c-b7cc-49f9-a515-7d3b4b4d4dfc" d="M271.65,61v78H254.31V107h-34v32H202.92V61h17.35V91.75h34V61Zm10.65,39c0-22.41,16.77-39,39.65-39s39.64,16.48,39.64,39S344.72,139,322,139,282.3,122.41,282.3,100Zm62.09.39c0-14.19-9.63-23.9-22.44-23.9s-22.45,9.71-22.45,23.9,9.64,23.89,22.45,23.89S344.39,114.57,344.39,100.39ZM368.8,100c0-22.41,16.77-39,39.65-39s39.64,16.48,39.64,39-16.87,39-39.64,39S368.8,122.41,368.8,100Zm62.09.39c0-14.19-9.63-23.9-22.44-23.9S386,86.2,386,100.39s9.64,23.89,22.45,23.89S430.89,114.57,430.89,100.39Zm96.58,17.33c0,13.48-10.28,21.28-30,21.28H458.74V61h36.61c18.74,0,28.38,8.13,28.38,20.28a18.86,18.86,0,0,1-10,17.16C522.12,101.23,527.47,107.91,527.47,117.72ZM476.71,76.06V93.67h16.5c8.1,0,12.5-3,12.5-8.86s-4.4-8.75-12.5-8.75Zm32.59,39.47c0-6.29-4.61-9.28-13.22-9.28H476.71v18.46h19.37C504.69,124.71,509.3,121.93,509.3,115.53Zm23.38,14.74,5.69-13.14A41.52,41.52,0,0,0,562.28,125c9.94,0,14-3.44,14-8.08,0-14.11-42.13-4.41-42.13-32.42,0-12.82,9.94-23.49,30.53-23.49,9.11,0,18.43,2.26,25.16,6.68l-5.18,13.25A39.67,39.67,0,0,0,564.56,75c-9.94,0-13.77,3.87-13.77,8.61,0,13.9,42.13,4.31,42.13,32,0,12.61-10,23.38-30.74,23.38C550.69,139,539.1,135.44,532.68,130.27Z"/><g id="a358e0bb-0fd0-42fc-8474-147b761cd175" data-name="wemo"><path class="fdedec14-26ce-4e42-b0b3-defb453f2843" d="M900,138.88a21.53,21.53,0,0,1-21.51,21.51h-77A21.53,21.53,0,0,1,780,138.88v-77a21.48,21.48,0,0,1,21.49-21.5h77A21.49,21.49,0,0,1,900,61.87v77Z"/><path class="b0f41cae-6bd0-4d9d-84f7-305ba0873408" d="M828.34,96.74a12.84,12.84,0,0,1-8.8-3.57l-.84-.81-.84.81a12.65,12.65,0,0,1-21.46-9.09V61.89h6V84a6.62,6.62,0,0,0,13.23,0V61.89h6V84a6.62,6.62,0,1,0,13.24,0h0V61.89h6V84A12.69,12.69,0,0,1,828.34,96.74Z"/><path class="b0f41cae-6bd0-4d9d-84f7-305ba0873408" d="M835,138.64V116.49a6.62,6.62,0,0,0-13.24,0h0v22.15h-6V116.49a6.62,6.62,0,0,0-13.23,0v22.15h-6V116.49A12.66,12.66,0,0,1,818,107.4l.83.81.84-.81a12.66,12.66,0,0,1,21.46,9.09v22.15Z"/><path class="b0f41cae-6bd0-4d9d-84f7-305ba0873408" d="M866.07,139.3c-10.45,0-18.94-8.1-18.94-18.07s8.49-18,18.94-18,19,8.09,19,18S876.51,139.3,866.07,139.3Zm0-30.28c-7.11,0-12.89,5.48-12.89,12.22s5.78,12.21,12.89,12.21S879,128,879,121.24,873.17,109,866.07,109Z"/><path class="b0f41cae-6bd0-4d9d-84f7-305ba0873408" d="M866.08,97.36c-10.45,0-19-8.1-19-18.06s8.51-18.07,19-18.07S885,69.33,885,79.3v1.39l-.08.88H853.27l.57,1.63a12.86,12.86,0,0,0,12.24,8.31,13.17,13.17,0,0,0,10.48-5.12l.55-.73L882.06,89l-.6.8A19.29,19.29,0,0,1,866.08,97.36Zm0-30.35a13.22,13.22,0,0,0-11.68,6.73l-1,1.8h25.28l-1-1.8A13.21,13.21,0,0,0,866.08,67Z"/></g></svg>