<svg id="b1a28aaa-ea24-4715-b2f3-4093dcab1f9e" data-name="Ebene 1" xmlns="http://www.w3.org/2000/svg" viewBox="0 0 1680 200"><defs><style>.afd398c8-77a9-4d64-8171-16451093d486{fill:none;stroke:#ccc;stroke-miterlimit:10;}.e3737626-39f7-45fc-8a3c-f539d5b826e1{fill:#f9b213;}.bf43783f-c9cd-4d2a-b6bc-265c9c8cd3be{isolation:isolate;}.e825cb62-e8e0-44dc-b40c-22eb0b3ed1ba{fill:#ccc;}.bd579613-09b7-46c7-a6e5-e430dcdfe699{fill:#75a928;}.f43cb863-b7e1-457e-b920-b76e172ec463{fill:#bc1142;}</style></defs><title>HOOBS_x_rpi</title><g id="bce07119-22fe-4495-a013-1f049f6df517" data-name="Stroke"><line class="afd398c8-77a9-4d64-8171-16451093d486" x1="700.5" y1="60" x2="700.5" y2="140"/></g><path class="e3737626-39f7-45fc-8a3c-f539d5b826e1" d="M154.17,41.5h-78A19.5,19.5,0,0,0,56.67,61v78a19.5,19.5,0,0,0,19.5,19.5h78a19.5,19.5,0,0,0,19.5-19.5V61A19.5,19.5,0,0,0,154.17,41.5Zm2,59.26a3.24,3.24,0,0,1-4.59,0,3.21,3.21,0,0,1-.95-2.09l-8.82-8.82V69.92a1.63,1.63,0,0,0-1.63-1.63h-3.25a1.63,1.63,0,0,0-1.62,1.63V83.6l-4.88-5.13-15-15a1.62,1.62,0,0,0-2.3,0L78.59,97.89a1.64,1.64,0,0,0,0,2.3l2.3,2.3a1.64,1.64,0,0,0,2.3,0l26.43-26.43a6.49,6.49,0,0,1,9.19,0l26.43,26.43a6.51,6.51,0,0,1,0,9.19l-2.3,2.3a6.49,6.49,0,0,1-9.19,0L115.36,95.59a1.64,1.64,0,0,0-2.3,0L94.68,114a1.62,1.62,0,0,0,0,2.3l2.3,2.29a1.61,1.61,0,0,0,2.29,0l10.35-10.34a6.49,6.49,0,0,1,9.19,0l10.34,10.34a6.51,6.51,0,0,1,0,9.2L118,138.89a3.21,3.21,0,0,1-1,2.09,3.25,3.25,0,1,1-2.5-5.54l11.12-11.12a1.62,1.62,0,0,0,0-2.3l-10.34-10.34a1.62,1.62,0,0,0-2.3,0L102.72,122a6.49,6.49,0,0,1-9.19,0l-2.3-2.3a6.49,6.49,0,0,1,0-9.19l18.39-18.38a6.49,6.49,0,0,1,9.19,0l18.38,18.38a1.64,1.64,0,0,0,2.3,0l2.3-2.3a1.64,1.64,0,0,0,0-2.3L115.36,79.51a1.62,1.62,0,0,0-2.3,0L86.63,105.93a6.49,6.49,0,0,1-9.19,0l-2.3-2.29a6.52,6.52,0,0,1,0-9.2L109.62,60a6.49,6.49,0,0,1,9.19,0l11.6,11.61V69.92a6.5,6.5,0,0,1,6.5-6.5h3.25a6.5,6.5,0,0,1,6.5,6.5V87.83l7.4,7.39a3.25,3.25,0,0,1,2.09,5.54Z"/><path class="e3737626-39f7-45fc-8a3c-f539d5b826e1" d="M612.42,61H624.1v3.65h-3.71v11H616.1v-11h-3.68Zm13.09,0h4.72l3.34,7.78L637,61h4.72V75.62h-3.85V67.39l-2.77,6.81h-2.92l-2.77-6.81v8.23h-3.85Z"/><path class="e3737626-39f7-45fc-8a3c-f539d5b826e1" d="M271.65,61v78H254.31V107h-34v32H202.92V61h17.35V91.75h34V61Zm10.65,39c0-22.41,16.77-39,39.65-39s39.64,16.48,39.64,39S344.72,139,322,139,282.3,122.41,282.3,100Zm62.09.39c0-14.19-9.63-23.9-22.44-23.9s-22.45,9.71-22.45,23.9,9.64,23.89,22.45,23.89S344.39,114.57,344.39,100.39ZM368.8,100c0-22.41,16.77-39,39.65-39s39.64,16.48,39.64,39-16.87,39-39.64,39S368.8,122.41,368.8,100Zm62.09.39c0-14.19-9.63-23.9-22.44-23.9S386,86.2,386,100.39s9.64,23.89,22.45,23.89S430.89,114.57,430.89,100.39Zm96.58,17.33c0,13.48-10.28,21.28-30,21.28H458.74V61h36.61c18.74,0,28.38,8.13,28.38,20.28a18.86,18.86,0,0,1-10,17.16C522.12,101.23,527.47,107.91,527.47,117.72ZM476.71,76.06V93.67h16.5c8.1,0,12.5-3,12.5-8.86s-4.4-8.75-12.5-8.75Zm32.59,39.47c0-6.29-4.61-9.28-13.22-9.28H476.71v18.46h19.37C504.69,124.71,509.3,121.93,509.3,115.53Zm23.38,14.74,5.69-13.14A41.52,41.52,0,0,0,562.28,125c9.94,0,14-3.44,14-8.08,0-14.11-42.13-4.41-42.13-32.42,0-12.82,9.94-23.49,30.53-23.49,9.11,0,18.43,2.26,25.16,6.68l-5.18,13.25A39.67,39.67,0,0,0,564.56,75c-9.94,0-13.77,3.87-13.77,8.61,0,13.9,42.13,4.31,42.13,32,0,12.61-10,23.38-30.74,23.38C550.69,139,539.1,135.44,532.68,130.27Z"/><g class="bf43783f-c9cd-4d2a-b6bc-265c9c8cd3be"><path class="e825cb62-e8e0-44dc-b40c-22eb0b3ed1ba" d="M934.53,110.24H928.7v13h-7.33V87.7h13.21q6.3,0,9.72,2.81a9.69,9.69,0,0,1,3.42,7.93,10.94,10.94,0,0,1-1.58,6.07,10.74,10.74,0,0,1-4.77,3.87l7.69,14.53v.34H941.2Zm-5.83-5.94h5.91a6,6,0,0,0,4.27-1.4A5,5,0,0,0,940.39,99a5.32,5.32,0,0,0-1.43-4,5.93,5.93,0,0,0-4.38-1.45H928.7Z"/><path class="e825cb62-e8e0-44dc-b40c-22eb0b3ed1ba" d="M968.13,123.25a7.81,7.81,0,0,1-.71-2.37,8.53,8.53,0,0,1-6.67,2.86,9.37,9.37,0,0,1-6.43-2.25,7.22,7.22,0,0,1-2.55-5.66,7.49,7.49,0,0,1,3.11-6.45c2.08-1.5,5.08-2.25,9-2.27h3.25V105.6a4.39,4.39,0,0,0-.94-2.93,3.72,3.72,0,0,0-3-1.1,4.22,4.22,0,0,0-2.8.85,2.93,2.93,0,0,0-1,2.35h-7a7.11,7.11,0,0,1,1.41-4.25,9.39,9.39,0,0,1,4-3.06,14.41,14.41,0,0,1,5.81-1.12,11.53,11.53,0,0,1,7.75,2.46,8.58,8.58,0,0,1,2.87,6.9v11.45a12.42,12.42,0,0,0,1,5.68v.42Zm-5.84-4.91a6.12,6.12,0,0,0,2.88-.69,4.67,4.67,0,0,0,2-1.87v-4.54h-2.64q-5.29,0-5.64,3.66l0,.41a2.83,2.83,0,0,0,.92,2.18A3.61,3.61,0,0,0,962.29,118.34Z"/><path class="e825cb62-e8e0-44dc-b40c-22eb0b3ed1ba" d="M993.93,116a2.27,2.27,0,0,0-1.28-2,14.43,14.43,0,0,0-4.11-1.33q-9.43-2-9.43-8A7.28,7.28,0,0,1,982,98.7a11.79,11.79,0,0,1,7.63-2.36,12.65,12.65,0,0,1,8,2.37,7.47,7.47,0,0,1,3,6.16h-7.06a3.43,3.43,0,0,0-1-2.51,4.13,4.13,0,0,0-3.05-1,4.21,4.21,0,0,0-2.76.81,2.55,2.55,0,0,0-1,2,2.17,2.17,0,0,0,1.11,1.89,11.41,11.41,0,0,0,3.75,1.25,30.31,30.31,0,0,1,4.44,1.18q5.59,2.06,5.59,7.11a6.87,6.87,0,0,1-3.1,5.84,13.37,13.37,0,0,1-8,2.24,14,14,0,0,1-5.89-1.19,9.86,9.86,0,0,1-4-3.24,7.54,7.54,0,0,1-1.47-4.46H985a3.71,3.71,0,0,0,1.39,2.88,5.52,5.52,0,0,0,3.47,1,5.1,5.1,0,0,0,3.07-.77A2.38,2.38,0,0,0,993.93,116Z"/><path class="e825cb62-e8e0-44dc-b40c-22eb0b3ed1ba" d="M1029.11,110.29q0,6.09-2.77,9.77a8.88,8.88,0,0,1-7.48,3.68,8.21,8.21,0,0,1-6.47-2.79v12.46h-7.06V96.83h6.55l.24,2.59a8.3,8.3,0,0,1,6.69-3.08,8.93,8.93,0,0,1,7.59,3.62q2.71,3.62,2.71,10Zm-7-.52a10.44,10.44,0,0,0-1.31-5.69,4.25,4.25,0,0,0-3.79-2,4.63,4.63,0,0,0-4.57,2.54v10.82a4.69,4.69,0,0,0,4.61,2.61Q1022.06,118.05,1022.06,109.77Z"/><path class="e825cb62-e8e0-44dc-b40c-22eb0b3ed1ba" d="M1057.29,110.29q0,6.34-2.71,9.89a9,9,0,0,1-7.57,3.56,8.24,8.24,0,0,1-6.86-3.3l-.32,2.81h-6.35V85.75h7.06V99.2a8.06,8.06,0,0,1,6.42-2.86,9.05,9.05,0,0,1,7.58,3.56c1.83,2.36,2.75,5.7,2.75,10Zm-7.06-.52q0-4-1.27-5.85a4.3,4.3,0,0,0-3.78-1.84,4.66,4.66,0,0,0-4.64,2.76v10.43a4.72,4.72,0,0,0,4.69,2.78,4.36,4.36,0,0,0,4.49-3.37A17.46,17.46,0,0,0,1050.23,109.77Z"/><path class="e825cb62-e8e0-44dc-b40c-22eb0b3ed1ba" d="M1073.79,123.74a13,13,0,0,1-9.46-3.57,12.66,12.66,0,0,1-3.65-9.49V110a15.87,15.87,0,0,1,1.54-7.11,11.22,11.22,0,0,1,4.36-4.84,12.23,12.23,0,0,1,6.43-1.7,11,11,0,0,1,8.53,3.42q3.12,3.42,3.12,9.7v2.88h-16.83a6.57,6.57,0,0,0,2.07,4.15,6.22,6.22,0,0,0,4.35,1.56,7.63,7.63,0,0,0,6.38-3l3.46,3.89a10.63,10.63,0,0,1-4.29,3.5A14.09,14.09,0,0,1,1073.79,123.74ZM1073,102a4.42,4.42,0,0,0-3.41,1.43,7.3,7.3,0,0,0-1.67,4.07h9.81V107a5.21,5.21,0,0,0-1.27-3.64A4.53,4.53,0,0,0,1073,102Z"/><path class="e825cb62-e8e0-44dc-b40c-22eb0b3ed1ba" d="M1103.5,103.45a19.2,19.2,0,0,0-2.54-.2c-2.67,0-4.42.91-5.25,2.71v17.29h-7V96.83h6.66l.2,3.15a6.56,6.56,0,0,1,5.88-3.64,7.45,7.45,0,0,1,2.2.32Z"/><path class="e825cb62-e8e0-44dc-b40c-22eb0b3ed1ba" d="M1121.74,103.45a19.32,19.32,0,0,0-2.54-.2c-2.67,0-4.42.91-5.25,2.71v17.29h-7V96.83h6.66l.2,3.15a6.53,6.53,0,0,1,5.88-3.64,7.5,7.5,0,0,1,2.2.32Z"/><path class="e825cb62-e8e0-44dc-b40c-22eb0b3ed1ba" d="M1135.44,113.26l4.88-16.43h7.57l-10.62,30.52-.59,1.39a8.05,8.05,0,0,1-7.81,5.18,11.11,11.11,0,0,1-3.13-.47v-5.34l1.08,0a5.78,5.78,0,0,0,3-.61,4,4,0,0,0,1.55-2l.83-2.18-9.25-26.49h7.59Z"/><path class="e825cb62-e8e0-44dc-b40c-22eb0b3ed1ba" d="M1170.91,110.72v12.53h-7.32V87.7h13.86a16,16,0,0,1,7,1.47,10.76,10.76,0,0,1,4.67,4.16,11.6,11.6,0,0,1,1.64,6.14,10.2,10.2,0,0,1-3.58,8.24q-3.57,3-9.9,3Zm0-5.93h6.54a6.37,6.37,0,0,0,4.43-1.37,5,5,0,0,0,1.53-3.9,5.87,5.87,0,0,0-1.54-4.23,5.78,5.78,0,0,0-4.25-1.66h-6.71Z"/><path class="e825cb62-e8e0-44dc-b40c-22eb0b3ed1ba" d="M1195.32,90a3.5,3.5,0,0,1,1.07-2.62,4,4,0,0,1,2.89-1,4,4,0,0,1,2.88,1,3.74,3.74,0,0,1,0,5.25,4.51,4.51,0,0,1-5.74,0A3.47,3.47,0,0,1,1195.32,90Zm7.5,33.25h-7.08V96.83h7.08Z"/></g><path d="M804.89,40a3.33,3.33,0,0,0-2,.83c-1.82-.7-3.58-.95-5.16.48-2.43-.32-3.22.34-3.81,1.1-.54,0-4-.55-5.58,1.81-4-.47-5.25,2.35-3.82,5-.82,1.26-1.66,2.5.24,4.9-.67,1.34-.25,2.8,1.33,4.55A3.87,3.87,0,0,0,788,62.9c-.27,2.57,2.37,4.07,3.15,4.6.31,1.5.94,2.92,4,3.7.49,2.24,2.31,2.62,4.06,3.09-5.8,3.37-10.77,7.8-10.73,18.68l-.85,1.51c-6.65,4-12.62,17-3.28,27.59a53,53,0,0,0,2.55,8.3c1.36,10.58,10.26,15.54,12.61,16.13a42.61,42.61,0,0,0,12.06,6.84c4.68,4.82,9.74,6.66,14.83,6.66h.23c5.09,0,10.15-1.84,14.82-6.66a42.53,42.53,0,0,0,12.07-6.84c2.34-.59,11.24-5.55,12.61-16.13a52,52,0,0,0,2.54-8.3c9.35-10.56,3.37-23.55-3.27-27.59L864.47,93c0-10.88-4.94-15.31-10.73-18.68,1.75-.47,3.56-.85,4.06-3.09,3-.78,3.64-2.2,3.94-3.7.79-.53,3.43-2,3.15-4.6a3.85,3.85,0,0,0,1.88-4.25c1.59-1.75,2-3.21,1.34-4.55,1.9-2.4,1.06-3.64.24-4.9,1.43-2.63.17-5.45-3.82-5-1.58-2.36-5-1.83-5.58-1.81-.6-.76-1.39-1.42-3.82-1.1-1.57-1.43-3.33-1.18-5.15-.48-2.15-1.7-3.58-.34-5.21.18-2.61-.86-3.21.31-4.49.79-2.85-.6-3.71.71-5.08,2.09l-1.59,0c-4.29,2.53-6.42,7.68-7.18,10.33-.76-2.65-2.88-7.8-7.18-10.33l-1.58,0c-1.37-1.38-2.24-2.69-5.08-2.09-1.28-.48-1.88-1.65-4.49-.79C807,40.67,806.05,40,804.89,40Z"/><path class="bd579613-09b7-46c7-a6e5-e430dcdfe699" d="M796.34,51.13C807.73,57,814.35,61.76,818,65.8c-1.86,7.45-11.55,7.79-15.09,7.58A2.66,2.66,0,0,0,804.43,72c-.89-.63-4-.07-6.24-1.31a2,2,0,0,0,1.63-1c-2.08-.66-4.32-1.23-5.63-2.33a3.19,3.19,0,0,0,2.3-.48c-1.86-1-3.85-1.8-5.4-3.34,1,0,2,0,2.31-.36a20.63,20.63,0,0,1-4.34-3.52c1.35.16,1.92,0,2.25-.21-1.29-1.32-2.92-2.44-3.7-4.06a2.77,2.77,0,0,0,2.58,0c-.44-1-2.32-1.57-3.4-3.88,1.05.1,2.17.23,2.4,0A11.27,11.27,0,0,0,787,47.25c2.26,0,5.67,0,5.52-.18l-1.39-1.42c2.2-.6,4.45.09,6.09.6.73-.58,0-1.31-.91-2.06a22.31,22.31,0,0,1,5.09,1.27c.82-.73-.53-1.47-1.18-2.21a13,13,0,0,1,5.33,2.09c.89-.84,0-1.56-.54-2.3a13,13,0,0,1,4.48,2.88c.41-.54,1-.94.28-2.24a11.24,11.24,0,0,1,3.57,3.12c1-.61.57-1.45.58-2.21a34.87,34.87,0,0,1,3.88,4.06,3.53,3.53,0,0,0,.67-1.79c3.84,3.72,9.26,13.1,1.39,16.82C813.2,58.16,805.2,54.14,796.34,51.13Z"/><path class="bd579613-09b7-46c7-a6e5-e430dcdfe699" d="M856.79,51.13c-11.4,5.88-18,10.63-21.65,14.67,1.86,7.45,11.55,7.79,15.1,7.58A2.68,2.68,0,0,1,848.69,72c.89-.63,4-.07,6.25-1.31a2,2,0,0,1-1.64-1c2.08-.66,4.32-1.23,5.64-2.33a3.21,3.21,0,0,1-2.31-.48c1.87-1,3.86-1.8,5.4-3.34-1,0-2,0-2.3-.36a20.82,20.82,0,0,0,4.33-3.52c-1.35.16-1.92,0-2.24-.21,1.29-1.32,2.92-2.44,3.7-4.06a2.77,2.77,0,0,1-2.58,0c.44-1,2.31-1.57,3.39-3.88-1.05.1-2.17.23-2.39,0a11.41,11.41,0,0,1,2.15-4.28c-2.25,0-5.67,0-5.51-.18L862,45.65c-2.2-.6-4.46.09-6.09.6-.74-.58,0-1.31.91-2.06a22.26,22.26,0,0,0-5.1,1.27c-.81-.73.53-1.47,1.19-2.21a13.07,13.07,0,0,0-5.34,2.09c-.88-.84,0-1.56.55-2.3a13.08,13.08,0,0,0-4.49,2.88c-.4-.54-1-.94-.27-2.24a11.28,11.28,0,0,0-3.58,3.12c-1-.61-.57-1.45-.58-2.21a35.73,35.73,0,0,0-3.88,4.06,3.46,3.46,0,0,1-.66-1.79c-3.84,3.72-9.26,13.1-1.4,16.82,6.7-5.52,14.69-9.54,23.56-12.55Z"/><path class="f43cb863-b7e1-457e-b920-b76e172ec463" d="M840.36,127c0,6.95-6.11,12.58-13.65,12.58s-13.64-5.63-13.64-12.58,6.11-12.59,13.64-12.59S840.36,120,840.36,127Z"/><path class="f43cb863-b7e1-457e-b920-b76e172ec463" d="M818.82,91c5.65,3.7,6.67,12.1,2.27,18.76s-12.54,9-18.2,5.34h0c-5.65-3.71-6.67-12.11-2.27-18.76s12.54-9,18.2-5.34Z"/><path class="f43cb863-b7e1-457e-b920-b76e172ec463" d="M834.08,90.35c-5.66,3.7-6.68,12.1-2.28,18.75s12.55,9.05,18.2,5.34h0c5.65-3.7,6.67-12.1,2.28-18.75s-12.55-9-18.2-5.34Z"/><path class="f43cb863-b7e1-457e-b920-b76e172ec463" d="M790.56,97.08c6.1-1.64,2.06,25.25-2.91,23C782.19,115.73,780.43,102.86,790.56,97.08Z"/><path class="f43cb863-b7e1-457e-b920-b76e172ec463" d="M861.1,96.74C855,95.11,859,122,864,119.79,869.47,115.4,871.23,102.53,861.1,96.74Z"/><path class="f43cb863-b7e1-457e-b920-b76e172ec463" d="M840.36,76.72c10.54-1.78,19.3,4.48,18.95,15.9C859,97,836.48,77.37,840.36,76.72Z"/><path class="f43cb863-b7e1-457e-b920-b76e172ec463" d="M811.26,76.38c-10.54-1.78-19.31,4.48-19,15.91C792.65,96.67,815.14,77,811.26,76.38Z"/><path class="f43cb863-b7e1-457e-b920-b76e172ec463" d="M826.39,73.72c-6.29-.17-12.32,4.66-12.34,7.47,0,3.4,5,6.88,12.38,7,7.57.06,12.39-2.79,12.42-6.3,0-4-6.88-8.2-12.46-8.14Z"/><path class="f43cb863-b7e1-457e-b920-b76e172ec463" d="M826.87,144.37c5.49-.24,12.84,1.77,12.86,4.43s-6.67,8.42-13.22,8.3c-6.78.29-13.42-5.55-13.34-7.58C813.07,146.55,821.43,144.23,826.87,144.37Z"/><path class="f43cb863-b7e1-457e-b920-b76e172ec463" d="M806.52,127.76c3.91,4.7,5.69,13,2.43,15.4-3.08,1.86-10.57,1.09-15.89-6.55-3.58-6.41-3.12-12.93-.6-14.85C796.23,119.47,802,122.56,806.52,127.76Z"/><path class="f43cb863-b7e1-457e-b920-b76e172ec463" d="M846.24,126.27c-4.22,5-6.57,14-3.49,16.88,2.94,2.25,10.85,1.94,16.69-6.17,4.24-5.44,2.82-14.53.4-16.94C856.24,117.25,851.07,120.81,846.24,126.27Z"/></svg>