<svg id="a0313b83-bbcb-4448-ae0d-0ea2b18013d9" data-name="Ebene 1" xmlns="http://www.w3.org/2000/svg" viewBox="0 0 1680 200"><defs><style>.ba4cb29c-b94d-4f02-b144-3fe1816e2218{fill:none;stroke:#ccc;stroke-miterlimit:10;}.e6bf058b-519a-424c-9038-d8719389f581{fill:#f9b213;}.ffa0578c-70eb-4c3c-853c-7411274fd1e8{fill:#ccc;}.e9929703-a856-4b26-91ab-4ff5d67e7ecb{fill:#3d89c9;}</style></defs><title>HOOBS_x_skybell</title><g id="b94fc87e-6db2-4259-9f38-e40f3b517973" data-name="Stroke"><line class="ba4cb29c-b94d-4f02-b144-3fe1816e2218" x1="700.5" y1="60" x2="700.5" y2="140"/></g><path class="e6bf058b-519a-424c-9038-d8719389f581" d="M154.17,41.5h-78A19.5,19.5,0,0,0,56.67,61v78a19.5,19.5,0,0,0,19.5,19.5h78a19.5,19.5,0,0,0,19.5-19.5V61A19.5,19.5,0,0,0,154.17,41.5Zm2,59.26a3.24,3.24,0,0,1-4.59,0,3.21,3.21,0,0,1-.95-2.09l-8.82-8.82V69.92a1.63,1.63,0,0,0-1.63-1.63h-3.25a1.63,1.63,0,0,0-1.62,1.63V83.6l-4.88-5.13-15-15a1.62,1.62,0,0,0-2.3,0L78.59,97.89a1.64,1.64,0,0,0,0,2.3l2.3,2.3a1.64,1.64,0,0,0,2.3,0l26.43-26.43a6.49,6.49,0,0,1,9.19,0l26.43,26.43a6.51,6.51,0,0,1,0,9.19l-2.3,2.3a6.49,6.49,0,0,1-9.19,0L115.36,95.59a1.64,1.64,0,0,0-2.3,0L94.68,114a1.62,1.62,0,0,0,0,2.3l2.3,2.29a1.61,1.61,0,0,0,2.29,0l10.35-10.34a6.49,6.49,0,0,1,9.19,0l10.34,10.34a6.51,6.51,0,0,1,0,9.2L118,138.89a3.21,3.21,0,0,1-1,2.09,3.25,3.25,0,1,1-2.5-5.54l11.12-11.12a1.62,1.62,0,0,0,0-2.3l-10.34-10.34a1.62,1.62,0,0,0-2.3,0L102.72,122a6.49,6.49,0,0,1-9.19,0l-2.3-2.3a6.49,6.49,0,0,1,0-9.19l18.39-18.38a6.49,6.49,0,0,1,9.19,0l18.38,18.38a1.64,1.64,0,0,0,2.3,0l2.3-2.3a1.64,1.64,0,0,0,0-2.3L115.36,79.51a1.62,1.62,0,0,0-2.3,0L86.63,105.93a6.49,6.49,0,0,1-9.19,0l-2.3-2.29a6.52,6.52,0,0,1,0-9.2L109.62,60a6.49,6.49,0,0,1,9.19,0l11.6,11.61V69.92a6.5,6.5,0,0,1,6.5-6.5h3.25a6.5,6.5,0,0,1,6.5,6.5V87.83l7.4,7.39a3.25,3.25,0,0,1,2.09,5.54Z"/><path class="e6bf058b-519a-424c-9038-d8719389f581" d="M612.42,61H624.1v3.65h-3.71v11H616.1v-11h-3.68Zm13.09,0h4.72l3.34,7.78L637,61h4.72V75.62h-3.85V67.39l-2.77,6.81h-2.92l-2.77-6.81v8.23h-3.85Z"/><path class="e6bf058b-519a-424c-9038-d8719389f581" d="M271.65,61v78H254.31V107h-34v32H202.92V61h17.35V91.75h34V61Zm10.65,39c0-22.41,16.77-39,39.65-39s39.64,16.48,39.64,39S344.72,139,322,139,282.3,122.41,282.3,100Zm62.09.39c0-14.19-9.63-23.9-22.44-23.9s-22.45,9.71-22.45,23.9,9.64,23.89,22.45,23.89S344.39,114.57,344.39,100.39ZM368.8,100c0-22.41,16.77-39,39.65-39s39.64,16.48,39.64,39-16.87,39-39.64,39S368.8,122.41,368.8,100Zm62.09.39c0-14.19-9.63-23.9-22.44-23.9S386,86.2,386,100.39s9.64,23.89,22.45,23.89S430.89,114.57,430.89,100.39Zm96.58,17.33c0,13.48-10.28,21.28-30,21.28H458.74V61h36.61c18.74,0,28.38,8.13,28.38,20.28a18.86,18.86,0,0,1-10,17.16C522.12,101.23,527.47,107.91,527.47,117.72ZM476.71,76.06V93.67h16.5c8.1,0,12.5-3,12.5-8.86s-4.4-8.75-12.5-8.75Zm32.59,39.47c0-6.29-4.61-9.28-13.22-9.28H476.71v18.46h19.37C504.69,124.71,509.3,121.93,509.3,115.53Zm23.38,14.74,5.69-13.14A41.52,41.52,0,0,0,562.28,125c9.94,0,14-3.44,14-8.08,0-14.11-42.13-4.41-42.13-32.42,0-12.82,9.94-23.49,30.53-23.49,9.11,0,18.43,2.26,25.16,6.68l-5.18,13.25A39.67,39.67,0,0,0,564.56,75c-9.94,0-13.77,3.87-13.77,8.61,0,13.9,42.13,4.31,42.13,32,0,12.61-10,23.38-30.74,23.38C550.69,139,539.1,135.44,532.68,130.27Z"/><path class="ffa0578c-70eb-4c3c-853c-7411274fd1e8" d="M1147.45,95.52q0-13.32,0-26.62c0-3.11,0-3.12,3.21-3.12h48a35.1,35.1,0,0,1,3.7.13q10,1.06,10,11c0,2.54,0,5.09,0,7.64a8.56,8.56,0,0,1-4.14,8c-1.93,1.21-2.12,3.21-.31,4.29,3.68,2.22,4.9,5.59,5,9.56.08,2.62.15,5.26,0,7.87-.38,6.19-3.7,9.66-10.34,10.79a43.25,43.25,0,0,1-6.91.58c-15.16,0-30.31,0-45.46.08-2.28,0-2.88-.69-2.85-2.89C1147.51,113.73,1147.45,104.62,1147.45,95.52Zm31.75,3.68c-5,0-9.9,0-14.84,0-3.26,0-4,.81-4.07,4.13q0,4.17,0,8.33c0,3.28.85,4.12,4.11,4.12q12.76,0,25.51,0a53.93,53.93,0,0,0,6.23-.31c3-.37,4.31-1.83,4.47-4.89.08-1.46,0-2.93,0-4.4,0-5.35-1.45-6.88-6.84-7C1188.94,99.14,1184.07,99.2,1179.2,99.2Zm-.2-9c4.94,0,9.88.06,14.82,0s6.51-1.78,6.52-6.57V81.5c0-5.11-1.61-6.8-6.76-6.83-10,0-19.92,0-29.88,0-2.42,0-3.34.9-3.4,3.36-.06,2.85,0,5.7,0,8.55s.89,3.57,3.64,3.58C1169,90.18,1174,90.16,1179,90.16Z"/><path class="ffa0578c-70eb-4c3c-853c-7411274fd1e8" d="M964.43,125.59c-7.27,0-14.53.1-21.79-.07a18.4,18.4,0,0,1-6.5-1.41,8.55,8.55,0,0,1-3.48-3.15c-1.18-1.76-1.08-3.49.91-5,2.21-1.67,4.14-3.7,6.25-5.51.47-.41,1.27-.86,1.75-.72s.73,1.05.79,1.66c.33,3.38.87,3.92,4.3,3.92q18,0,35.94,0c3.27,0,4.08-.83,4.09-4.11,0-2.24,0-4.47,0-6.71,0-3.49-.81-4.29-4.41-4.3-11.74,0-23.49,0-35.24,0a32.53,32.53,0,0,1-5.75-.52c-4.56-.87-7.06-3.1-7.36-7.67a131.42,131.42,0,0,1,0-18c.34-4.68,2.92-6.86,7.6-7.7a24.16,24.16,0,0,1,4.14-.45c13.91,0,27.82-.14,41.73.1a18.11,18.11,0,0,1,8.06,2.35c3,1.65,3,3.57.51,5.94-2,1.87-3.89,3.75-5.89,5.56a6.23,6.23,0,0,1-1.79.81,7.05,7.05,0,0,1-.73-1.77c-.29-2.84-.9-3.49-3.76-3.5q-17.73,0-35.47,0c-2.9,0-3.59.71-3.62,3.55,0,2.39,0,4.79,0,7.18,0,2.7.73,3.38,3.48,3.38,11.67,0,23.34,0,35,0a46.14,46.14,0,0,1,7.14.67c4.34.72,7.11,3.43,7.33,7.74a164.87,164.87,0,0,1,0,19.38c-.31,4.74-3,7-7.77,7.82a42.2,42.2,0,0,1-6.45.53c-6.34.07-12.67,0-19,0Z"/><path class="ffa0578c-70eb-4c3c-853c-7411274fd1e8" d="M1253.3,125.67c-9.28,0-18.55-.06-27.83,0-2.15,0-2.76-.63-2.75-2.75q.1-27.21,0-54.4c0-2.3.76-2.83,2.93-2.82,18.17.08,36.33,0,54.5.08a10.29,10.29,0,0,1,2.67.75c-.51.8-1,1.63-1.53,2.4-3.88,5.44-9.19,6.67-15.68,6.28-8.62-.52-17.31-.14-26-.13-2.91,0-3.7.81-3.72,3.69,0,2.47,0,4.94,0,7.41,0,2.69.76,3.46,3.44,3.47,7.34,0,14.69.07,22,0,2.12,0,2.82.63,2.8,2.79-.08,6.66,0,6.66-6.74,6.66-6,0-11.9,0-17.86,0-2.91,0-3.66.78-3.67,3.73,0,2.62,0,5.25,0,7.87,0,4,.61,4.59,4.51,4.59h37.11c6.32,0,6.33,0,6.32,6.26,0,4.69.33,4.06-4.11,4.07C1270.93,125.69,1262.12,125.67,1253.3,125.67Z"/><path class="ffa0578c-70eb-4c3c-853c-7411274fd1e8" d="M1021,113.75c0,3.24,0,6.48,0,9.72,0,1.54-.5,2.26-2.15,2.22q-4.63-.12-9.27,0c-1.54,0-2-.6-2-2.07q0-27.9,0-55.78c0-1.7.7-2.12,2.22-2.08,2.94.08,5.88.11,8.82,0,1.86-.07,2.41.7,2.39,2.45-.06,5.79-.1,11.58,0,17.36,0,1.12.66,2.82,1.48,3.16s2.52-.33,3.34-1.09c7.21-6.75,14.28-13.65,21.48-20.42a5.4,5.4,0,0,1,3.18-1.36c3.55-.17,7.12-.11,10.67,0a8.39,8.39,0,0,1,2.26.69,7.76,7.76,0,0,1-1.16,2.06c-8,7.58-16.1,15.1-24.15,22.65-2.53,2.38-2.51,3.28.18,5.53q15.18,12.72,30.39,25.4a10.31,10.31,0,0,1,1.74,1.53c.7.94.59,1.91-.77,1.94q-7.42.1-14.85,0a3.49,3.49,0,0,1-1.74-1q-13.15-10.8-26.28-21.65a4.87,4.87,0,0,0-1.26-1c-1-.36-2.33-1-3.11-.68A3.72,3.72,0,0,0,1021,104C1020.84,107.26,1021,110.51,1021,113.75Z"/><path class="ffa0578c-70eb-4c3c-853c-7411274fd1e8" d="M1097.65,111.72c0-3.62.12-7.25-.06-10.87a6.51,6.51,0,0,0-1.39-3.68c-8-9.5-16.13-18.9-24.17-28.37a10,10,0,0,1-1.14-2.34,11.08,11.08,0,0,1,2.53-.65c3.94-.07,7.88-.12,11.82,0a4.27,4.27,0,0,1,2.82,1.39c4.6,5.81,9.06,11.73,13.57,17.6,2,2.67,3.38,2.68,5.41,0,4.27-5.58,8.59-11.12,12.72-16.79a5,5,0,0,1,4.82-2.34c3.7.18,7.42,0,11.13.09a7,7,0,0,1,2,.68,7.52,7.52,0,0,1-.9,2c-7.83,9.14-15.67,18.28-23.6,27.33a8.2,8.2,0,0,0-2.27,6c.16,7,0,14,.11,21.06.05,2.3-.74,3-2.92,2.82-2.78-.15-5.57-.1-8.35,0-1.61,0-2.2-.58-2.17-2.17C1097.7,119.59,1097.66,115.66,1097.65,111.72Z"/><path class="ffa0578c-70eb-4c3c-853c-7411274fd1e8" d="M1293.59,95.49c0-9,0-18,0-27.08,0-2,.46-2.8,2.59-2.67a68.57,68.57,0,0,0,8.11,0c2.11-.12,2.61.74,2.6,2.7-.07,14.27,0,28.54,0,42.82,0,3.36.68,4,4,4,13.06,0,26.13,0,39.19,0,1.92,0,2.64.53,2.49,2.47s-.07,4,0,6c0,1.35-.46,1.92-1.89,1.92q-27.6-.06-55.2,0c-1.91,0-1.85-1.13-1.85-2.43Q1293.59,109.39,1293.59,95.49Z"/><path class="ffa0578c-70eb-4c3c-853c-7411274fd1e8" d="M1362.49,95.68c0-9.18,0-18.36,0-27.54,0-1.84.56-2.47,2.38-2.39a66.82,66.82,0,0,0,7.88,0c2.35-.17,3.06.63,3,3-.1,13.88,0,27.77,0,41.65,0,4.57.38,5,5.06,5,12.68,0,25.36,0,38,0,2,0,2.85.41,2.64,2.54a41.29,41.29,0,0,0,0,5.78c.06,1.47-.42,2.08-2,2.08q-27.48-.06-55,0c-1.71,0-2.06-.74-2-2.24C1362.51,114.19,1362.49,104.93,1362.49,95.68Z"/><path class="e9929703-a856-4b26-91ab-4ff5d67e7ecb" d="M839.62,39.18a60,60,0,1,0,60,60A60,60,0,0,0,839.62,39.18Zm0,16.85a15,15,0,1,1-15,15A15,15,0,0,1,839.62,56Zm0,87.33a22.5,22.5,0,1,1,22.5-22.5A22.5,22.5,0,0,1,839.62,143.36Z"/></svg>