<svg id="ed6de2f2-152e-4236-a41b-ba062e27e4af" data-name="Ebene 1" xmlns="http://www.w3.org/2000/svg" viewBox="0 0 1680 200"><defs><style>.e09f1e86-6ff7-450b-bb76-f5fb5d8be809{fill:none;stroke:#ccc;stroke-miterlimit:10;}.a1f71e5c-7a26-48fe-bffe-799e0d07b9f9{fill:#f9b213;}.ec07a1df-5404-4fa4-a108-e0e6fa03426b{fill:#0581b2;}.a074db0f-3558-4177-8f22-f565fe0a6675{fill:#ccc;}</style></defs><title>HOOBS_x_balboa-spa</title><g id="af7b8d11-8684-4bfb-a62a-eb8dcea9d57e" data-name="Stroke"><line class="e09f1e86-6ff7-450b-bb76-f5fb5d8be809" x1="700.5" y1="60" x2="700.5" y2="140"/></g><path class="a1f71e5c-7a26-48fe-bffe-799e0d07b9f9" d="M154.17,41.5h-78A19.5,19.5,0,0,0,56.67,61v78a19.5,19.5,0,0,0,19.5,19.5h78a19.5,19.5,0,0,0,19.5-19.5V61A19.5,19.5,0,0,0,154.17,41.5Zm2,59.26a3.24,3.24,0,0,1-4.59,0,3.21,3.21,0,0,1-.95-2.09l-8.82-8.82V69.92a1.63,1.63,0,0,0-1.63-1.63h-3.25a1.63,1.63,0,0,0-1.62,1.63V83.6l-4.88-5.13-15-15a1.62,1.62,0,0,0-2.3,0L78.59,97.89a1.64,1.64,0,0,0,0,2.3l2.3,2.3a1.64,1.64,0,0,0,2.3,0l26.43-26.43a6.49,6.49,0,0,1,9.19,0l26.43,26.43a6.51,6.51,0,0,1,0,9.19l-2.3,2.3a6.49,6.49,0,0,1-9.19,0L115.36,95.59a1.64,1.64,0,0,0-2.3,0L94.68,114a1.62,1.62,0,0,0,0,2.3l2.3,2.29a1.61,1.61,0,0,0,2.29,0l10.35-10.34a6.49,6.49,0,0,1,9.19,0l10.34,10.34a6.51,6.51,0,0,1,0,9.2L118,138.89a3.21,3.21,0,0,1-1,2.09,3.25,3.25,0,1,1-2.5-5.54l11.12-11.12a1.62,1.62,0,0,0,0-2.3l-10.34-10.34a1.62,1.62,0,0,0-2.3,0L102.72,122a6.49,6.49,0,0,1-9.19,0l-2.3-2.3a6.49,6.49,0,0,1,0-9.19l18.39-18.38a6.49,6.49,0,0,1,9.19,0l18.38,18.38a1.64,1.64,0,0,0,2.3,0l2.3-2.3a1.64,1.64,0,0,0,0-2.3L115.36,79.51a1.62,1.62,0,0,0-2.3,0L86.63,105.93a6.49,6.49,0,0,1-9.19,0l-2.3-2.29a6.52,6.52,0,0,1,0-9.2L109.62,60a6.49,6.49,0,0,1,9.19,0l11.6,11.61V69.92a6.5,6.5,0,0,1,6.5-6.5h3.25a6.5,6.5,0,0,1,6.5,6.5V87.83l7.4,7.39a3.25,3.25,0,0,1,2.09,5.54Z"/><path class="a1f71e5c-7a26-48fe-bffe-799e0d07b9f9" d="M612.42,61H624.1v3.65h-3.71v11H616.1v-11h-3.68Zm13.09,0h4.72l3.34,7.78L637,61h4.72V75.62h-3.85V67.39l-2.77,6.81h-2.92l-2.77-6.81v8.23h-3.85Z"/><path class="a1f71e5c-7a26-48fe-bffe-799e0d07b9f9" d="M271.65,61v78H254.31V107h-34v32H202.92V61h17.35V91.75h34V61Zm10.65,39c0-22.41,16.77-39,39.65-39s39.64,16.48,39.64,39S344.72,139,322,139,282.3,122.41,282.3,100Zm62.09.39c0-14.19-9.63-23.9-22.44-23.9s-22.45,9.71-22.45,23.9,9.64,23.89,22.45,23.89S344.39,114.57,344.39,100.39ZM368.8,100c0-22.41,16.77-39,39.65-39s39.64,16.48,39.64,39-16.87,39-39.64,39S368.8,122.41,368.8,100Zm62.09.39c0-14.19-9.63-23.9-22.44-23.9S386,86.2,386,100.39s9.64,23.89,22.45,23.89S430.89,114.57,430.89,100.39Zm96.58,17.33c0,13.48-10.28,21.28-30,21.28H458.74V61h36.61c18.74,0,28.38,8.13,28.38,20.28a18.86,18.86,0,0,1-10,17.16C522.12,101.23,527.47,107.91,527.47,117.72ZM476.71,76.06V93.67h16.5c8.1,0,12.5-3,12.5-8.86s-4.4-8.75-12.5-8.75Zm32.59,39.47c0-6.29-4.61-9.28-13.22-9.28H476.71v18.46h19.37C504.69,124.71,509.3,121.93,509.3,115.53Zm23.38,14.74,5.69-13.14A41.52,41.52,0,0,0,562.28,125c9.94,0,14-3.44,14-8.08,0-14.11-42.13-4.41-42.13-32.42,0-12.82,9.94-23.49,30.53-23.49,9.11,0,18.43,2.26,25.16,6.68l-5.18,13.25A39.67,39.67,0,0,0,564.56,75c-9.94,0-13.77,3.87-13.77,8.61,0,13.9,42.13,4.31,42.13,32,0,12.61-10,23.38-30.74,23.38C550.69,139,539.1,135.44,532.68,130.27Z"/><path class="ec07a1df-5404-4fa4-a108-e0e6fa03426b" d="M1313.35,52.14a44.68,44.68,0,0,0-8.51,7.86,47.58,47.58,0,0,0-6.45,10,27.83,27.83,0,0,0-1.82,4.48c-.26,1-.79,1.87-1,2.88a4.66,4.66,0,0,0-.22.45,47,47,0,0,0-1.43,18.08c0,.16-.08.32.08.44a.59.59,0,0,0,0,.14,2.18,2.18,0,0,0,0,.51,47.35,47.35,0,0,0,2.31,9.46,43.7,43.7,0,0,0,3.36,7.37,20.4,20.4,0,0,0,1.78,3,33.12,33.12,0,0,0,4,5.2.3.3,0,0,0,.29.28v0a.27.27,0,0,0,.28.27v0a.26.26,0,0,0,.28.27v0a.27.27,0,0,0,.28.28h0a.26.26,0,0,0,.27.28l0,0a.47.47,0,0,0,.29.41,28.17,28.17,0,0,0,4.82,4.24c.19.18.37.39.57.55,1.09.85,2.26,1.57,3.42,2.32a43.24,43.24,0,0,0,6.92,3.51,47,47,0,0,0,9.15,2.73,40.39,40.39,0,0,0,5.88.74c1.94.09,3.88,0,5.83,0a4.4,4.4,0,0,0,1.51-.29.67.67,0,0,0-.39-.13c-1.85-.11-3.71-.15-5.55-.44a43.15,43.15,0,0,1-6.85-1.51,45.2,45.2,0,0,1-5.55-2.06,46.4,46.4,0,0,1-7.71-4.43c-1.11-.82-2.2-1.66-3.29-2.49-1.4-1.37-2.82-2.71-4.13-4.17a42.86,42.86,0,0,1-4.56-6.1c-.84-1.36-1.59-2.77-2.38-4.15a23,23,0,0,1-1.21-2.85,44.5,44.5,0,0,1-3-12.18c-.2-2-.23-4.06-.27-6.09a2.07,2.07,0,0,0,.08-.42A41.14,41.14,0,0,1,1301.7,82c.37-1.63,1-3.19,1.38-4.81.77-1.84,1.51-3.7,2.44-5.47a44.65,44.65,0,0,1,9.59-12.46,43.93,43.93,0,0,1,7.78-5.7,45.4,45.4,0,0,1,16.69-5.66,45,45,0,0,1,30.68,7.1,58.36,58.36,0,0,1,5,3.76l.15.15.16.12c.46.46.91.92,1.38,1.37.07.07.11.23.27.14s.09-.24,0-.36a4.92,4.92,0,0,0-1.29-1.51h0l-.14-.15a.13.13,0,0,0-.07-.09l-.21-.22a1.09,1.09,0,0,0-.13-.17,47.44,47.44,0,0,0-42.67-14A47.4,47.4,0,0,0,1313.35,52.14Z"/><path class="ec07a1df-5404-4fa4-a108-e0e6fa03426b" d="M1281.33,88.86a5,5,0,0,0-.1.56,48,48,0,0,0-.11,6.89,23.6,23.6,0,0,0,.49,4.52,13.11,13.11,0,0,0,.33,2.16,2.1,2.1,0,0,0,0,.5,52.71,52.71,0,0,0,6.78,17.73.73.73,0,0,0,.06.21,54,54,0,0,0,10.88,12.89,16.27,16.27,0,0,0,2.45,1.91,23.23,23.23,0,0,0,3.63,2.62,52.41,52.41,0,0,0,9.9,5,36.63,36.63,0,0,0,6.15,1.86,41.69,41.69,0,0,0,9.54,1.56c2.07.16,4.17,0,6.26,0a35.79,35.79,0,0,0,6.11-.65,55.85,55.85,0,0,0,12.53-3.78,55.22,55.22,0,0,0,9.24-5.15,47.32,47.32,0,0,0,8.11-7c.52-.57,1-1.18,1.55-1.72a37.31,37.31,0,0,0,3.7-4.72c.08-.11.26-.23.12-.37s-.31,0-.42.13a60.57,60.57,0,0,1-5.06,5.2,46.33,46.33,0,0,1-7,5.21,50.88,50.88,0,0,1-9.23,4.51,49.69,49.69,0,0,1-11.58,2.8,72.73,72.73,0,0,1-8.61.32,45.08,45.08,0,0,1-7.52-.94,8.93,8.93,0,0,0-1.78-.29c0,.21.08.27.2.3-.12,0-.21-.09-.2-.3s-.3-.12-.46-.14a.28.28,0,0,0-.29-.12c-.65.1-1.16-.3-1.72-.47a50.71,50.71,0,0,1-13-5.87c-1.27-.84-2.52-1.71-3.78-2.56l-.16-.14a.3.3,0,0,0-.27-.18l-.15-.12a.8.8,0,0,0-.46-.41c-1.29-1.13-2.65-2.19-3.85-3.41a52.39,52.39,0,0,1-4.07-4.61,30.3,30.3,0,0,1-2.11-2.74c-.9-1.54-1.86-3-2.76-4.58a3.42,3.42,0,0,0-.17-.4,52.75,52.75,0,0,1-3.72-8.88,48.33,48.33,0,0,1-1.2-4.92c-.3-1.42-.5-2.85-.75-4.28-.08-1.26-.21-2.51-.26-3.77a51.2,51.2,0,0,1,5.34-24.8,49.76,49.76,0,0,1,11.39-15,50.55,50.55,0,0,1,26.31-12.58c1.28-.2,2.56-.34,3.88-.51-.21-.45-.54-.29-.8-.3a51.4,51.4,0,0,0-19.19,3.52,53.59,53.59,0,0,0-33.17,38.32A44.52,44.52,0,0,0,1281.33,88.86Z"/><path class="ec07a1df-5404-4fa4-a108-e0e6fa03426b" d="M1372.88,61.45c-1.29-1.28-2.87-2.19-4.22-3.39a14,14,0,0,0-2.45-1.54c-.48-.27-1.37,0-1.22.35.35.69.21,1.53.67,2.17a1.06,1.06,0,0,1,.14.9,9.5,9.5,0,0,0-.21,2,19.75,19.75,0,0,0,.28,2.7,6.84,6.84,0,0,0,0,1.28,23.32,23.32,0,0,1-.2,9.7,21.79,21.79,0,0,1-2.84,7.61,19.67,19.67,0,0,1-3.84,4.5c-.46.35-.91.72-1.38,1a40.58,40.58,0,0,1-9.74,4.77,34.7,34.7,0,0,0-4.19,1.59,1.94,1.94,0,0,0-.43.06A38.19,38.19,0,0,0,1335.6,99a1.63,1.63,0,0,0-.54.47,2.36,2.36,0,0,1,.28,0,2.36,2.36,0,0,0-.28,0,13.41,13.41,0,0,0-3.41,3.31,12.44,12.44,0,0,0-1.94,3.42,21.18,21.18,0,0,0-1.35,12.92,17.26,17.26,0,0,0,7.7,10,26.29,26.29,0,0,0,11.43,4,25.05,25.05,0,0,0,9.34-.33A39.35,39.35,0,0,0,1381,114.56a33.34,33.34,0,0,0,3-6.2,41.92,41.92,0,0,0,1.39-4.33,26.38,26.38,0,0,0,1.17-7.43c0-.08.12-.16.12-.24a46,46,0,0,0-.22-7.61c-.29-2.06-.72-4.1-1.1-6.15a5.91,5.91,0,0,0-.47-1.57,41,41,0,0,0-1.76-5.25,35.77,35.77,0,0,0-1.84-3.66,5.7,5.7,0,0,0-.78-1.46,40.93,40.93,0,0,0-4.82-6.38C1374.73,63.34,1373.82,62.38,1372.88,61.45Z"/><path class="ec07a1df-5404-4fa4-a108-e0e6fa03426b" d="M1396,99.18a49.44,49.44,0,0,0-.18-5.44c-.24-2-.51-3.92-.87-5.86-.28-1.56-.69-3.1-1.06-4.65,0-.17-.12-.42-.35-.4s-.16.27-.14.42c.32,2.07.6,4.14.75,6.24a54.2,54.2,0,0,1-.1,8.92,53.66,53.66,0,0,1-1.51,8.59,57.87,57.87,0,0,1-3.57,10.09c-.65,1.38-1.34,2.73-2,4.1-.06.08-.13.15-.18.23a64.07,64.07,0,0,1-6.71,9.41,58.92,58.92,0,0,1-8.57,8.14c-1.34,1-2.72,2-4.08,3a14.15,14.15,0,0,1,.79,1.49,14.15,14.15,0,0,0-.79-1.49l-.12.05a.8.8,0,0,0-.44.28,62.89,62.89,0,0,1-10.67,5.41,47.44,47.44,0,0,1-4.78,1.67,14.16,14.16,0,0,0-2.63.77,40.93,40.93,0,0,1-5.88,1.13,53.54,53.54,0,0,1-10.59.52c-1-.07-1.93-.1-2.9-.14l-2.91-.31-4.92-.9h0a2.22,2.22,0,0,0-1.18-.28l-1.26-.35A56.45,56.45,0,0,1,1293,134.35a58.17,58.17,0,0,1-16.56-39.1,56.14,56.14,0,0,1,2.8-19.62,59.18,59.18,0,0,1,4.53-10.43c.86-1.56,1.88-3,2.83-4.55a.21.21,0,0,0,.18-.22l.07-.13c.21-.22.66-.47.34-.76s-.45.27-.68.43c0,0-.06.13-.09.19a44.13,44.13,0,0,0-4.49,5.9,59.41,59.41,0,0,0-9.79,28.3,58.21,58.21,0,0,0,.77,15.65,61.2,61.2,0,0,0,23.72,37.76,61.51,61.51,0,0,0,22.85,10.53,55.4,55.4,0,0,0,10.49,1.51,1.62,1.62,0,0,0,.92.13c1.57,0,3.15.09,4.72,0a70.3,70.3,0,0,0,7.1-.59c1.24-.17,2.45-.52,3.68-.72a38.93,38.93,0,0,0,5.15-1.21,32.78,32.78,0,0,0,4.11-1.32,40.84,40.84,0,0,0,4.34-1.79c1.43-.59,2.75-1.4,4.13-2.1a44.79,44.79,0,0,0,6.08-3.79,6.37,6.37,0,0,0,.63-.35,68.81,68.81,0,0,0,6-4.93,58.58,58.58,0,0,0,9-10.6,43.78,43.78,0,0,0,3.9-6.86c.13-.21.27-.4.38-.62a53.82,53.82,0,0,0,2.82-6.91A59,59,0,0,0,1396,99.18Z"/><path class="a074db0f-3558-4177-8f22-f565fe0a6675" d="M826.42,137.44h-39.2c-5.68,0-7.74-1.92-7.75-7.55q-.06-36.33,0-72.66c0-5.85,2.14-7.94,7.94-7.94q37.94,0,75.85,0c10.43,0,18.51,4.64,23.15,13.84s4.06,18.45-2.43,26.75c-2.16,2.77-2.27,4.46,0,7.33,6.4,8,7.5,17,3,26.18s-12.06,14-22.41,14c-12.73,0-25.45,0-38.18,0Zm4.06-75.56v-.21c-10,0-20.05.1-30.07-.06-3.59-.06-5.3.87-5.08,4.85a153.42,153.42,0,0,1,0,15.76c-.2,4.14,1.22,5.61,5.52,5.57,19.53-.2,39.07-.08,58.61-.13a27.35,27.35,0,0,0,5.55-.61,12.44,12.44,0,0,0,9.18-16.78c-2-5.35-6-8.25-11.6-8.34C851.88,61.76,841.18,61.88,830.48,61.88Zm0,63.19c10.18,0,20.37.21,30.55-.07,8.14-.21,13.12-5.3,13-12.59-.06-6.92-5.15-12.2-12.92-12.29-20.71-.23-41.42,0-62.13-.11-3.24,0-4,1.55-3.93,4.42.13,5.42.16,10.84,0,16.26-.11,3.25.94,4.49,4.35,4.43C809.75,124.94,820.1,125.06,830.46,125.07Z"/><path class="a074db0f-3558-4177-8f22-f565fe0a6675" d="M1189.89,137.4c-13.25,0-26.5,0-39.75,0-5.54,0-7.09-1.47-7.1-6.87q-.07-37.14,0-74.27c0-5.23,1.78-6.92,7.16-6.93,25.82,0,51.64-.09,77.46,0,10.11,0,17.54,5.19,22.06,13.92,4.68,9,4,18.18-2.27,26.3-2.49,3.26-2.15,5.09.2,8.16,6.1,7.94,7,16.79,2.49,25.81s-12,13.64-22,13.8C1215.38,137.55,1202.63,137.4,1189.89,137.4Zm-31.05-75.35c0,7.42.18,14.51-.08,21.58-.13,3.31,1.21,4.11,4.12,4.1,20.73,0,41.45.1,62.18-.13,8.84-.1,14.15-6.71,13-15.18-.91-6.44-6.44-10.65-14.55-10.69-19.71-.11-39.41-.09-59.12-.09C1162.69,61.64,1161,61.88,1158.84,62.05Zm34.33,63.08V125c10.52,0,21,.24,31.54-.08,7.7-.23,12.65-5.52,12.57-12.46s-5.09-12.21-12.82-12.29c-20.68-.22-41.37-.07-62.06-.16-3.21,0-4.11,1.48-4.07,4.35.08,4.91.24,9.84-.08,14.73-.31,4.53,1.11,6.31,5.93,6.14C1173.83,124.89,1183.51,125.13,1193.17,125.13Z"/><path class="a074db0f-3558-4177-8f22-f565fe0a6675" d="M1496.26,105.67l-27.6-40.11c-1.44,1.81-2.51,3-3.44,4.35q-22.71,32.52-45.37,65.08c-1.93,2.78-4.06,5.19-7.87,4.21-4.22-1.08-5.6-5.49-2.92-9.74,5.89-9.31,11.91-18.54,17.92-27.77q14.57-22.38,29.2-44.7c7-10.74,16-11,23.47-.51q25,35.28,49.68,70.76c3.26,4.67,2.8,9-1,11.63s-7.59,1.64-11.16-3.23c-2.9-4-5.84-7.91-8.51-12-1.86-2.89-4.16-3.89-7.6-3.85q-22.41.27-44.84,0c-2,0-4-1.19-6-1.82.69-1.83,1.25-3.71,2.1-5.46,2-4.11,5.22-5.55,9.91-5.41,11,.33,22,.11,33,.11C1495.62,106.68,1495.94,106.18,1496.26,105.67Z"/><path class="a074db0f-3558-4177-8f22-f565fe0a6675" d="M987.41,105.6,959.79,65.51c-1.69,2.19-2.95,3.7-4.08,5.31q-21.94,31.49-43.86,63c-.58.84-1.17,1.67-1.78,2.48-2.19,2.89-4.91,4.36-8.33,2.24-3.61-2.23-3.71-5.52-1.66-8.82,4.48-7.18,9.12-14.28,13.74-21.38q16.65-25.56,33.33-51.08c7.18-11,16.31-11.35,23.8-.68q24.52,35,49,70c.39.55.85,1.06,1.2,1.63,2.5,4.13,1.84,8.34-1.67,10.8s-7.12,1.7-10.15-2.26c-3.29-4.3-6.51-8.68-9.48-13.22a7.48,7.48,0,0,0-7.12-3.69c-15.29.14-30.57.1-45.85,0-1.71,0-3.41-.91-5.12-1.4a42.41,42.41,0,0,1,1.67-5.41c2.08-4.53,5.6-6.09,10.67-5.87,9,.39,18,.11,27,.1h5.42C986.81,106.66,987.11,106.13,987.41,105.6Z"/><path class="a074db0f-3558-4177-8f22-f565fe0a6675" d="M1092.34,137.4q-13.23,0-26.47,0c-21.4,0-35.44-13.76-35.59-35.2-.11-14.91.22-29.81.46-44.72.09-5.61,3-8.78,7.6-8.87,4.31-.07,7.5,3.61,7.52,9,.06,15.41,0,30.83.06,46.25,0,13.54,7.46,20.94,21.1,21,18,0,36,0,54,0,7,0,10.41,2,10.48,6.22s-3.29,6.39-10.1,6.4Q1106.85,137.42,1092.34,137.4Z"/></svg>