<svg id="b507eab6-ea4d-48c9-b4ac-9d9e3ab259c0" data-name="Ebene 1" xmlns="http://www.w3.org/2000/svg" viewBox="0 0 1680 200"><defs><style>.ae0191f2-eec1-423a-8c5c-43b3f4a1ec97{fill:none;stroke:#ccc;stroke-miterlimit:10;}.b206b7ca-82ec-4840-9033-a0927fc2e62e{fill:#f9b213;}.fbd4f683-4cc5-4f87-9c73-589f7946fae1{fill:#535556;}.ab0d2b95-5653-46c9-96d3-6110a430dfe6{fill:#1c9ad6;}</style></defs><title>HOOBS_x_ring</title><g id="b29b0b07-f4a9-4516-963f-3d6ab94cfb1d" data-name="Stroke"><line class="ae0191f2-eec1-423a-8c5c-43b3f4a1ec97" x1="700.5" y1="60" x2="700.5" y2="140"/></g><path class="b206b7ca-82ec-4840-9033-a0927fc2e62e" d="M154.17,41.5h-78A19.5,19.5,0,0,0,56.67,61v78a19.5,19.5,0,0,0,19.5,19.5h78a19.5,19.5,0,0,0,19.5-19.5V61A19.5,19.5,0,0,0,154.17,41.5Zm2,59.26a3.24,3.24,0,0,1-4.59,0,3.21,3.21,0,0,1-.95-2.09l-8.82-8.82V69.92a1.63,1.63,0,0,0-1.63-1.63h-3.25a1.63,1.63,0,0,0-1.62,1.63V83.6l-4.88-5.13-15-15a1.62,1.62,0,0,0-2.3,0L78.59,97.89a1.64,1.64,0,0,0,0,2.3l2.3,2.3a1.64,1.64,0,0,0,2.3,0l26.43-26.43a6.49,6.49,0,0,1,9.19,0l26.43,26.43a6.51,6.51,0,0,1,0,9.19l-2.3,2.3a6.49,6.49,0,0,1-9.19,0L115.36,95.59a1.64,1.64,0,0,0-2.3,0L94.68,114a1.62,1.62,0,0,0,0,2.3l2.3,2.29a1.61,1.61,0,0,0,2.29,0l10.35-10.34a6.49,6.49,0,0,1,9.19,0l10.34,10.34a6.51,6.51,0,0,1,0,9.2L118,138.89a3.21,3.21,0,0,1-1,2.09,3.25,3.25,0,1,1-2.5-5.54l11.12-11.12a1.62,1.62,0,0,0,0-2.3l-10.34-10.34a1.62,1.62,0,0,0-2.3,0L102.72,122a6.49,6.49,0,0,1-9.19,0l-2.3-2.3a6.49,6.49,0,0,1,0-9.19l18.39-18.38a6.49,6.49,0,0,1,9.19,0l18.38,18.38a1.64,1.64,0,0,0,2.3,0l2.3-2.3a1.64,1.64,0,0,0,0-2.3L115.36,79.51a1.62,1.62,0,0,0-2.3,0L86.63,105.93a6.49,6.49,0,0,1-9.19,0l-2.3-2.29a6.52,6.52,0,0,1,0-9.2L109.62,60a6.49,6.49,0,0,1,9.19,0l11.6,11.61V69.92a6.5,6.5,0,0,1,6.5-6.5h3.25a6.5,6.5,0,0,1,6.5,6.5V87.83l7.4,7.39a3.25,3.25,0,0,1,2.09,5.54Z"/><path class="b206b7ca-82ec-4840-9033-a0927fc2e62e" d="M612.42,61H624.1v3.65h-3.71v11H616.1v-11h-3.68Zm13.09,0h4.72l3.34,7.78L637,61h4.72V75.62h-3.85V67.39l-2.77,6.81h-2.92l-2.77-6.81v8.23h-3.85Z"/><path class="b206b7ca-82ec-4840-9033-a0927fc2e62e" d="M271.65,61v78H254.31V107h-34v32H202.92V61h17.35V91.75h34V61Zm10.65,39c0-22.41,16.77-39,39.65-39s39.64,16.48,39.64,39S344.72,139,322,139,282.3,122.41,282.3,100Zm62.09.39c0-14.19-9.63-23.9-22.44-23.9s-22.45,9.71-22.45,23.9,9.64,23.89,22.45,23.89S344.39,114.57,344.39,100.39ZM368.8,100c0-22.41,16.77-39,39.65-39s39.64,16.48,39.64,39-16.87,39-39.64,39S368.8,122.41,368.8,100Zm62.09.39c0-14.19-9.63-23.9-22.44-23.9S386,86.2,386,100.39s9.64,23.89,22.45,23.89S430.89,114.57,430.89,100.39Zm96.58,17.33c0,13.48-10.28,21.28-30,21.28H458.74V61h36.61c18.74,0,28.38,8.13,28.38,20.28a18.86,18.86,0,0,1-10,17.16C522.12,101.23,527.47,107.91,527.47,117.72ZM476.71,76.06V93.67h16.5c8.1,0,12.5-3,12.5-8.86s-4.4-8.75-12.5-8.75Zm32.59,39.47c0-6.29-4.61-9.28-13.22-9.28H476.71v18.46h19.37C504.69,124.71,509.3,121.93,509.3,115.53Zm23.38,14.74,5.69-13.14A41.52,41.52,0,0,0,562.28,125c9.94,0,14-3.44,14-8.08,0-14.11-42.13-4.41-42.13-32.42,0-12.82,9.94-23.49,30.53-23.49,9.11,0,18.43,2.26,25.16,6.68l-5.18,13.25A39.67,39.67,0,0,0,564.56,75c-9.94,0-13.77,3.87-13.77,8.61,0,13.9,42.13,4.31,42.13,32,0,12.61-10,23.38-30.74,23.38C550.69,139,539.1,135.44,532.68,130.27Z"/><g id="badedd65-4ee0-4018-9bf5-7ffcb7bf6de8" data-name="ring"><path class="fbd4f683-4cc5-4f87-9c73-589f7946fae1" d="M819.27,65.15a3.94,3.94,0,0,1-6.76,2.8c-2.79-2.79-7.58-4-10.37-4q-7.17,0-10.76,4.77c-2.79,3.19-4,7.58-4,13.56v41.84a3.55,3.55,0,0,1-1.2,2.79c-.78.8-1.58.8-2.78.8a7.3,7.3,0,0,1-2.79-.8,3.61,3.61,0,0,1-1.19-2.79V82.29a29.91,29.91,0,0,1,6-18.33,19.24,19.24,0,0,1,7.16-5.58,21.16,21.16,0,0,1,10-2,30.7,30.7,0,0,1,8.37,1.6,17.43,17.43,0,0,1,7.57,4.78,4.27,4.27,0,0,1,.79,2.39Z"/><path class="fbd4f683-4cc5-4f87-9c73-589f7946fae1" d="M838.41,124.13a3.59,3.59,0,0,1-1.2,2.79,4.18,4.18,0,0,1-5.18,0,3.59,3.59,0,0,1-1.2-2.79V61.57a3.59,3.59,0,0,1,1.2-2.79,4.18,4.18,0,0,1,5.18,0,3.59,3.59,0,0,1,1.2,2.79Z"/><path class="fbd4f683-4cc5-4f87-9c73-589f7946fae1" d="M905.37,124.13a3.62,3.62,0,0,1-1.2,2.79,4.18,4.18,0,0,1-5.18,0,3.59,3.59,0,0,1-1.2-2.79V81.49a18.92,18.92,0,0,0-1.19-6.78,17.32,17.32,0,0,0-9.17-9.17,16.2,16.2,0,0,0-13.55,0,17.25,17.25,0,0,0-9.17,9.17,18.5,18.5,0,0,0-1.19,6.78v42.64a3.59,3.59,0,0,1-1.2,2.79,4.18,4.18,0,0,1-5.18,0,3.59,3.59,0,0,1-1.2-2.79V81.49a25.78,25.78,0,0,1,2-9.57,33.94,33.94,0,0,1,5.19-8,21,21,0,0,1,8-5.18A24.91,24.91,0,0,1,903.77,72a27.62,27.62,0,0,1,2,9.57Z"/><path class="fbd4f683-4cc5-4f87-9c73-589f7946fae1" d="M970.72,128.51a29.49,29.49,0,0,1-2,10,23.74,23.74,0,0,1-13.15,13.16,27.85,27.85,0,0,1-9.57,2c-2,0-4-.4-5.58-.4a34.34,34.34,0,0,1-6-1.59,21.58,21.58,0,0,1-5.18-2.79,19.2,19.2,0,0,1-4-4,6.93,6.93,0,0,1-.8-2,4.09,4.09,0,0,1,4-4,2.37,2.37,0,0,1,1.59.4,5.66,5.66,0,0,1,1.6,1.19c1.59,2.4,4.77,4,7.16,4.79a23.56,23.56,0,0,0,7.58,1.19,18.67,18.67,0,0,0,6.78-1.19,17.29,17.29,0,0,0,9.17-9.17,19.09,19.09,0,0,0,1.59-6.78v-8.76a26.18,26.18,0,0,1-17.54,7.17,29.34,29.34,0,0,1-10-2,23.62,23.62,0,0,1-13.14-13.14,27.64,27.64,0,0,1-2-10V82.29a25.58,25.58,0,0,1,2-9.57,34.17,34.17,0,0,1,5.18-8,21.19,21.19,0,0,1,8-5.18,24.9,24.9,0,0,1,32.68,13.14h0a27.17,27.17,0,0,1,2,9.57l-.4,46.22Zm-8-47a18.89,18.89,0,0,0-1.2-6.78,17.29,17.29,0,0,0-9.17-9.17,16.22,16.22,0,0,0-13.56,0,17.22,17.22,0,0,0-9.15,9.17,18.47,18.47,0,0,0-1.2,6.78v22.32a18.43,18.43,0,0,0,1.2,6.78,15.58,15.58,0,0,0,9.15,9.17,16.15,16.15,0,0,0,13.56,0,17.22,17.22,0,0,0,9.17-9.17,13,13,0,0,0,1.19-6.78Z"/><circle class="ab0d2b95-5653-46c9-96d3-6110a430dfe6" cx="834.82" cy="40.44" r="6.78"/></g></svg>