<svg id="b04ef511-5361-45fd-af28-32ca1d9763b6" data-name="Ebene 1" xmlns="http://www.w3.org/2000/svg" viewBox="0 0 1680 200"><defs><style>.ec481761-91f7-4ba8-a13a-8bdf7b9f6622{fill:none;stroke:#ccc;stroke-miterlimit:10;}.b2bcba88-286d-403f-b493-e51b810b9346{fill:#f9b213;}.bc00169d-6329-4b51-af1a-f3c0201ad4a5{fill:#72b636;}.f07ae12e-1c4b-4574-8910-adc2a43d3575{fill:#ccc;}</style></defs><title>HOOBS_x_gogogate2</title><g id="a1295722-c1a2-4c60-8c3b-49bc28a2f745" data-name="Stroke"><line class="ec481761-91f7-4ba8-a13a-8bdf7b9f6622" x1="700.5" y1="60" x2="700.5" y2="140"/></g><path class="b2bcba88-286d-403f-b493-e51b810b9346" d="M154.17,41.5h-78A19.5,19.5,0,0,0,56.67,61v78a19.5,19.5,0,0,0,19.5,19.5h78a19.5,19.5,0,0,0,19.5-19.5V61A19.5,19.5,0,0,0,154.17,41.5Zm2,59.26a3.24,3.24,0,0,1-4.59,0,3.21,3.21,0,0,1-.95-2.09l-8.82-8.82V69.92a1.63,1.63,0,0,0-1.63-1.63h-3.25a1.63,1.63,0,0,0-1.62,1.63V83.6l-4.88-5.13-15-15a1.62,1.62,0,0,0-2.3,0L78.59,97.89a1.64,1.64,0,0,0,0,2.3l2.3,2.3a1.64,1.64,0,0,0,2.3,0l26.43-26.43a6.49,6.49,0,0,1,9.19,0l26.43,26.43a6.51,6.51,0,0,1,0,9.19l-2.3,2.3a6.49,6.49,0,0,1-9.19,0L115.36,95.59a1.64,1.64,0,0,0-2.3,0L94.68,114a1.62,1.62,0,0,0,0,2.3l2.3,2.29a1.61,1.61,0,0,0,2.29,0l10.35-10.34a6.49,6.49,0,0,1,9.19,0l10.34,10.34a6.51,6.51,0,0,1,0,9.2L118,138.89a3.21,3.21,0,0,1-1,2.09,3.25,3.25,0,1,1-2.5-5.54l11.12-11.12a1.62,1.62,0,0,0,0-2.3l-10.34-10.34a1.62,1.62,0,0,0-2.3,0L102.72,122a6.49,6.49,0,0,1-9.19,0l-2.3-2.3a6.49,6.49,0,0,1,0-9.19l18.39-18.38a6.49,6.49,0,0,1,9.19,0l18.38,18.38a1.64,1.64,0,0,0,2.3,0l2.3-2.3a1.64,1.64,0,0,0,0-2.3L115.36,79.51a1.62,1.62,0,0,0-2.3,0L86.63,105.93a6.49,6.49,0,0,1-9.19,0l-2.3-2.29a6.52,6.52,0,0,1,0-9.2L109.62,60a6.49,6.49,0,0,1,9.19,0l11.6,11.61V69.92a6.5,6.5,0,0,1,6.5-6.5h3.25a6.5,6.5,0,0,1,6.5,6.5V87.83l7.4,7.39a3.25,3.25,0,0,1,2.09,5.54Z"/><path class="b2bcba88-286d-403f-b493-e51b810b9346" d="M612.42,61H624.1v3.65h-3.71v11H616.1v-11h-3.68Zm13.09,0h4.72l3.34,7.78L637,61h4.72V75.62h-3.85V67.39l-2.77,6.81h-2.92l-2.77-6.81v8.23h-3.85Z"/><path class="b2bcba88-286d-403f-b493-e51b810b9346" d="M271.65,61v78H254.31V107h-34v32H202.92V61h17.35V91.75h34V61Zm10.65,39c0-22.41,16.77-39,39.65-39s39.64,16.48,39.64,39S344.72,139,322,139,282.3,122.41,282.3,100Zm62.09.39c0-14.19-9.63-23.9-22.44-23.9s-22.45,9.71-22.45,23.9,9.64,23.89,22.45,23.89S344.39,114.57,344.39,100.39ZM368.8,100c0-22.41,16.77-39,39.65-39s39.64,16.48,39.64,39-16.87,39-39.64,39S368.8,122.41,368.8,100Zm62.09.39c0-14.19-9.63-23.9-22.44-23.9S386,86.2,386,100.39s9.64,23.89,22.45,23.89S430.89,114.57,430.89,100.39Zm96.58,17.33c0,13.48-10.28,21.28-30,21.28H458.74V61h36.61c18.74,0,28.38,8.13,28.38,20.28a18.86,18.86,0,0,1-10,17.16C522.12,101.23,527.47,107.91,527.47,117.72ZM476.71,76.06V93.67h16.5c8.1,0,12.5-3,12.5-8.86s-4.4-8.75-12.5-8.75Zm32.59,39.47c0-6.29-4.61-9.28-13.22-9.28H476.71v18.46h19.37C504.69,124.71,509.3,121.93,509.3,115.53Zm23.38,14.74,5.69-13.14A41.52,41.52,0,0,0,562.28,125c9.94,0,14-3.44,14-8.08,0-14.11-42.13-4.41-42.13-32.42,0-12.82,9.94-23.49,30.53-23.49,9.11,0,18.43,2.26,25.16,6.68l-5.18,13.25A39.67,39.67,0,0,0,564.56,75c-9.94,0-13.77,3.87-13.77,8.61,0,13.9,42.13,4.31,42.13,32,0,12.61-10,23.38-30.74,23.38C550.69,139,539.1,135.44,532.68,130.27Z"/><path class="bc00169d-6329-4b51-af1a-f3c0201ad4a5" d="M1374,65.46h-62.3c-8.8,0-15.93,7.94-15.93,17.72v53.18c0,9.78,7.13,17.71,15.93,17.71H1374c8.8,0,15.94-7.93,15.94-17.71V83.18C1390,73.4,1382.83,65.46,1374,65.46Zm-12.93,59.89v11.24h-36.21v-9.52l19.18-20.39a21.44,21.44,0,0,0,3.85-4.83,9.93,9.93,0,0,0,1.35-4.9,5.47,5.47,0,0,0-.44-2.11,5.68,5.68,0,0,0-1.26-1.86,6.16,6.16,0,0,0-2-1.32,7,7,0,0,0-2.69-.5,7.88,7.88,0,0,0-3.13.57,6.37,6.37,0,0,0-2.24,1.55,7,7,0,0,0-1.37,2.31,8.61,8.61,0,0,0-.51,2.78h-11a19.69,19.69,0,0,1,1.42-7.7A16.42,16.42,0,0,1,1330,85a16.83,16.83,0,0,1,5.88-3.53,21.07,21.07,0,0,1,7.21-1.21,21.36,21.36,0,0,1,6.9,1.1,17.45,17.45,0,0,1,5.79,3.22,15.42,15.42,0,0,1,4,5.23,16.8,16.8,0,0,1,1.46,7.18,13.52,13.52,0,0,1-1.34,6,22.65,22.65,0,0,1-3.6,5.29l-15.82,17.09Z"/><path class="f07ae12e-1c4b-4574-8910-adc2a43d3575" d="M1096.86,76.62l-5.77,7.46c-4-2.62-8.75-3.18-13.36-3.18-16.3,0-29.47,10.88-29.47,28.91s11.29,28.68,29.47,28.68c7.22,0,14.79,4.12,14.79,13.14,0,8-6.51,12.86-14.79,12.86-8.26-.6-15.24-5.46-15.24-12.86h-14.23c0,15.38,12.58,25.45,29.47,25.45s29.12-9.73,29.12-25.45c0-8.36-2.35-15.74-12-20.39,9.51-4.2,12.22-14.26,12.22-21.43,0-6.34-1.65-12.09-6.11-17.11l6.45-7.94Zm-19.13,49.29c-8.39,0-15.24-6-15.24-16.1s6.85-16.32,15.24-16.32,15.13,6.34,15.13,16.32-6.85,16.1-15.13,16.1"/><path class="f07ae12e-1c4b-4574-8910-adc2a43d3575" d="M1142.06,80.89c-16.67,0-29.79,10.29-29.79,30.88,0,20.88,12.54,31,29.43,31h.3c6.43-.1,15.4-3.25,18.68-9.77l.71,7.21H1175V83.48h-13.88l-.46,6.67c-3.28-5.67-10.63-9.25-18.32-9.25h-.3m1.58,48.87c-9.46,0-17-6.71-17-18s7.57-17.85,17-17.85c22.48,0,22.48,35.84,0,35.84"/><path class="f07ae12e-1c4b-4574-8910-adc2a43d3575" d="M1203.9,65.89l-14.34,1.59V82.9h-10.81V95.44h10.81v24.44c0,13.65,7.71,20.64,19.61,20.64l1.19,0a32.48,32.48,0,0,0,11.86-2.4l-4-11.91a16.57,16.57,0,0,1-6.94,1.72c-4.46,0-7.51-2.63-7.51-8V95.44h16.09V82.9h-16Z"/><path class="f07ae12e-1c4b-4574-8910-adc2a43d3575" d="M1253.51,80.9c-18.8,0-30.79,12.59-30.79,30.29,0,19.68,11.87,31.58,31.84,31.58,8.82,0,18.8-2.94,24.91-9.06l-9.16-9.36c-3.29,3.68-10.22,5.84-15.5,5.84-10.11,0-16.34-5.58-17.27-13.33h45.22c2.24-24.07-9.86-36-29.25-36m-15.74,23.77c2.12-7.46,8.46-11.18,16.21-11.18,8.23,0,14.1,3.72,15,11.18Z"/><path class="bc00169d-6329-4b51-af1a-f3c0201ad4a5" d="M845.83,72.82a36.84,36.84,0,0,0-25.49-10.19c-23.22,0-35.11,17-35,35.33,0,18.69,11.9,34.77,35,34.77a35.7,35.7,0,0,0,24.13-9.18V101.36H816.83V96h33.42v29.68c-8.27,8.27-18.13,12.8-29.91,12.8-27,0-40.89-18.8-40.89-40.44-.11-24.8,16.77-41,40.89-41a41.25,41.25,0,0,1,29,11.89Z"/><path class="bc00169d-6329-4b51-af1a-f3c0201ad4a5" d="M911.77,109.63c0-14.5-10.31-23.9-23-23.9s-23,9.4-23,23.9,10.31,23.21,23,23.21,23-8.72,23-23.21m-51.43,0c0-17.78,12.68-29.11,28.43-29.11s28.43,11.33,28.43,29.11-12.68,28.65-28.43,28.65-28.43-10.87-28.43-28.65"/><path class="bc00169d-6329-4b51-af1a-f3c0201ad4a5" d="M930.12,107.82c0,11.55,7.93,21.51,20.73,21.51,11.56,0,21-10,21-21.51,0-14.16-9.4-21.75-21-21.75s-20.73,7.13-20.73,21.75m42-28.55,3.63,3.18-5.44,6.34c4,4.3,6.91,10,6.91,19,0,9.73-5.78,19.58-15.07,23.78,9.86,3.51,15.3,10.42,15.3,20,0,15.06-11.79,22.31-26.63,22.31s-26.5-8.15-26.5-22.31h5.54c0,11.44,9.75,16.88,21,16.88s21.19-5,21.19-16.88-10.77-16.76-21.19-16.76c-16.2,0-26.28-12.12-26.28-27.06,0-17.45,11.78-27.3,26.28-27.3a28.38,28.38,0,0,1,15.86,5.1Z"/><path class="bc00169d-6329-4b51-af1a-f3c0201ad4a5" d="M1034.69,109.63c0-14.5-10.31-23.9-23-23.9s-23,9.4-23,23.9,10.31,23.21,23,23.21,23-8.72,23-23.21m-51.43,0c0-17.78,12.68-29.11,28.43-29.11s28.43,11.33,28.43,29.11-12.68,28.65-28.43,28.65-28.43-10.87-28.43-28.65"/></svg>