<svg id="f039a95d-254a-4ac6-9a05-807a2d713302" data-name="Ebene 1" xmlns="http://www.w3.org/2000/svg" viewBox="0 0 1680 200"><defs><style>.e488b662-ee76-453e-a208-8ee54c63660c{fill:none;stroke:#ccc;stroke-miterlimit:10;}.b3a3dacb-2168-443a-9edf-9358e78e2c82{fill:#f9b213;}.b73b5c7b-b4a9-4814-8bee-e03e277452c8{fill:#ccc;}.b34f25ab-0b5e-41c2-9519-27940badb761{fill:#008ca9;}</style></defs><title>HOOBS_x_thekeys</title><g id="a8b28a1f-8ba1-4ef4-85c2-a62413cbd0d6" data-name="Stroke"><line class="e488b662-ee76-453e-a208-8ee54c63660c" x1="700.5" y1="60" x2="700.5" y2="140"/></g><path class="b3a3dacb-2168-443a-9edf-9358e78e2c82" d="M154.17,41.5h-78A19.5,19.5,0,0,0,56.67,61v78a19.5,19.5,0,0,0,19.5,19.5h78a19.5,19.5,0,0,0,19.5-19.5V61A19.5,19.5,0,0,0,154.17,41.5Zm2,59.26a3.24,3.24,0,0,1-4.59,0,3.21,3.21,0,0,1-.95-2.09l-8.82-8.82V69.92a1.63,1.63,0,0,0-1.63-1.63h-3.25a1.63,1.63,0,0,0-1.62,1.63V83.6l-4.88-5.13-15-15a1.62,1.62,0,0,0-2.3,0L78.59,97.89a1.64,1.64,0,0,0,0,2.3l2.3,2.3a1.64,1.64,0,0,0,2.3,0l26.43-26.43a6.49,6.49,0,0,1,9.19,0l26.43,26.43a6.51,6.51,0,0,1,0,9.19l-2.3,2.3a6.49,6.49,0,0,1-9.19,0L115.36,95.59a1.64,1.64,0,0,0-2.3,0L94.68,114a1.62,1.62,0,0,0,0,2.3l2.3,2.29a1.61,1.61,0,0,0,2.29,0l10.35-10.34a6.49,6.49,0,0,1,9.19,0l10.34,10.34a6.51,6.51,0,0,1,0,9.2L118,138.89a3.21,3.21,0,0,1-1,2.09,3.25,3.25,0,1,1-2.5-5.54l11.12-11.12a1.62,1.62,0,0,0,0-2.3l-10.34-10.34a1.62,1.62,0,0,0-2.3,0L102.72,122a6.49,6.49,0,0,1-9.19,0l-2.3-2.3a6.49,6.49,0,0,1,0-9.19l18.39-18.38a6.49,6.49,0,0,1,9.19,0l18.38,18.38a1.64,1.64,0,0,0,2.3,0l2.3-2.3a1.64,1.64,0,0,0,0-2.3L115.36,79.51a1.62,1.62,0,0,0-2.3,0L86.63,105.93a6.49,6.49,0,0,1-9.19,0l-2.3-2.29a6.52,6.52,0,0,1,0-9.2L109.62,60a6.49,6.49,0,0,1,9.19,0l11.6,11.61V69.92a6.5,6.5,0,0,1,6.5-6.5h3.25a6.5,6.5,0,0,1,6.5,6.5V87.83l7.4,7.39a3.25,3.25,0,0,1,2.09,5.54Z"/><path class="b3a3dacb-2168-443a-9edf-9358e78e2c82" d="M612.42,61H624.1v3.65h-3.71v11H616.1v-11h-3.68Zm13.09,0h4.72l3.34,7.78L637,61h4.72V75.62h-3.85V67.39l-2.77,6.81h-2.92l-2.77-6.81v8.23h-3.85Z"/><path class="b3a3dacb-2168-443a-9edf-9358e78e2c82" d="M271.65,61v78H254.31V107h-34v32H202.92V61h17.35V91.75h34V61Zm10.65,39c0-22.41,16.77-39,39.65-39s39.64,16.48,39.64,39S344.72,139,322,139,282.3,122.41,282.3,100Zm62.09.39c0-14.19-9.63-23.9-22.44-23.9s-22.45,9.71-22.45,23.9,9.64,23.89,22.45,23.89S344.39,114.57,344.39,100.39ZM368.8,100c0-22.41,16.77-39,39.65-39s39.64,16.48,39.64,39-16.87,39-39.64,39S368.8,122.41,368.8,100Zm62.09.39c0-14.19-9.63-23.9-22.44-23.9S386,86.2,386,100.39s9.64,23.89,22.45,23.89S430.89,114.57,430.89,100.39Zm96.58,17.33c0,13.48-10.28,21.28-30,21.28H458.74V61h36.61c18.74,0,28.38,8.13,28.38,20.28a18.86,18.86,0,0,1-10,17.16C522.12,101.23,527.47,107.91,527.47,117.72ZM476.71,76.06V93.67h16.5c8.1,0,12.5-3,12.5-8.86s-4.4-8.75-12.5-8.75Zm32.59,39.47c0-6.29-4.61-9.28-13.22-9.28H476.71v18.46h19.37C504.69,124.71,509.3,121.93,509.3,115.53Zm23.38,14.74,5.69-13.14A41.52,41.52,0,0,0,562.28,125c9.94,0,14-3.44,14-8.08,0-14.11-42.13-4.41-42.13-32.42,0-12.82,9.94-23.49,30.53-23.49,9.11,0,18.43,2.26,25.16,6.68l-5.18,13.25A39.67,39.67,0,0,0,564.56,75c-9.94,0-13.77,3.87-13.77,8.61,0,13.9,42.13,4.31,42.13,32,0,12.61-10,23.38-30.74,23.38C550.69,139,539.1,135.44,532.68,130.27Z"/><g id="ab22e4bf-cd09-4e79-b9e4-f2a03f40f6f9" data-name="the keys"><path class="b73b5c7b-b4a9-4814-8bee-e03e277452c8" d="M1074.7,127.44c-6.23,1.86-9.71-.35-12.64-5.14-3.76-6.13-8.37-11.73-12.45-17.68-1.64-2.4-2.56-2.07-5-.54-7.53,4.75-5.86,12-6.06,18.84,0,1.66,1,3.8-1.22,4.92-2.86,1.45-5.66-.27-5.67-3.6-.06-14.92,0-29.84-.07-44.76,0-2.88,1.13-3.73,3.9-3.73,3,0,3.15,1.64,3.13,3.87-.06,6.84,0,13.69,0,20.46,2,.87,2.64-.75,3.48-1.57,6.14-6,12.43-11.79,18.25-18.06,3.53-3.8,7.25-5.76,12.71-4.25-.88,2.53-3.28,3.88-5.06,5.67-3.54,3.57-6.88,7.48-10.94,10.38-4.88,3.49-4.14,6.15-.8,10.3C1062.65,110.48,1068.43,118.89,1074.7,127.44Z"/><path class="b73b5c7b-b4a9-4814-8bee-e03e277452c8" d="M1162.44,89.58c5.62,0,10.82.91,13.56,6.67.7,1.45,1.9,3.55,0,4.44-1.69.82-3.92,1.22-5.64-1.33-3.06-4.53-8-5.68-12.8-3.65-1.63.68-3,1.53-3.16,3.51a4,4,0,0,0,2.79,4.32c3.64,1.24,7.38,2.19,11.11,3.19,7.62,2,10.68,5.14,10.51,10.78s-3.92,9.22-11.24,10.86a23.15,23.15,0,0,1-11.94-.54c-3.88-1.17-7-3.52-8-7.61-.32-1.22-2.31-3.42.57-4,1.73-.38,3.82-.94,5.24,1.55,3,5.25,10.12,7.14,15.59,4.55a4.56,4.56,0,0,0,3-4.24,4.49,4.49,0,0,0-2.62-4.47c-3-1.58-6.37-2-9.64-2.8-9.17-2.14-13-6-12.13-12S1154,89.5,1162.44,89.58Z"/><path class="b73b5c7b-b4a9-4814-8bee-e03e277452c8" d="M1126.82,120.77l8.9-25.77a25.53,25.53,0,0,1,1.21-3.3c1.2-2.43,3.55-1.89,5.33-1.4,2.49.68.71,2.5.28,3.66-5.11,13.47-10.25,26.93-15.52,40.34-1.92,4.89-4.7,9-10.91,8.77-2.18-.08-3.9-.32-4-3.24s1.55-2.54,3.53-2.6c4.94-.15,8.78-6.88,6.8-12-3.81-9.85-7.89-19.59-11.61-29.46-.61-1.63-3.57-4-.4-5.4s5.56-.06,6.75,3.78c2.32,7.51,5.19,14.86,7.85,22.27C1125.44,117.48,1125.91,118.52,1126.82,120.77Z"/><path class="b73b5c7b-b4a9-4814-8bee-e03e277452c8" d="M929.48,103.38c0-7.06-.08-14.11,0-21.16,0-2.59-.83-3.63-3.48-3.5-3.53.16-7.08.15-10.61,0-1.42-.06-4,1.06-3.91-1.56,0-2.08,2.37-1.32,3.74-1.33,7.74-.07,15.49,0,23.24,0h10.1c1.13,0,2.64-.2,2.71,1.45s-1.49,1.48-2.58,1.49c-3.87,0-7.76.2-11.62,0-3.12-.19-4,.93-4,4,.14,13.6.11,27.2,0,40.8,0,1.56,1.18,4.32-1.77,4.33s-1.77-2.74-1.8-4.31C929.41,116.81,929.48,110.09,929.48,103.38Z"/><path class="b73b5c7b-b4a9-4814-8bee-e03e277452c8" d="M957.38,97.13c3.79-4.79,7.48-7.14,12.34-7.41,9.09-.52,14,3.78,14.24,12.86.2,7.21.11,14.43.07,21.64,0,1.21.62,3.31-1.07,3.36-2.34.07-1.36-2.26-1.4-3.52-.24-7.21-.26-14.42-.46-21.62-.14-5-2-8.72-7.44-10A12.71,12.71,0,0,0,960,97.65a16.52,16.52,0,0,0-2.6,9.55v18.12c0,1.16.08,2.63-1.67,2.44S954.5,126,954.5,125q-.06-23.16,0-46.31c0-1-.39-2.72,1.41-2.6,1.51.1,1.49,1.58,1.49,2.76C957.38,84.53,957.38,90.19,957.38,97.13Z"/><path class="b34f25ab-0b5e-41c2-9519-27940badb761" d="M898.73,87.58c-6.89-31.94-38.34-52.49-70.94-46-15.41,3.06-27.72,11.21-37.62,24.88,13,0,24.81-.06,36.59.07,1.48,0,4.42-1.39,4.27,1.61-.13,2.7-2.93,1.3-4.49,1.38a94.91,94.91,0,0,1-12.62,0c-3.83-.32-4.8,1-4.75,4.73.21,16.44.13,32.89,0,49.33,0,1.53,1.28,4.25-1.65,4.38-3.17.13-1.81-2.7-1.82-4.19-.11-13.6,0-27.19-.11-40.78,0-4.31,1.91-9.94-.85-12.58s-8.35-.41-12.66-.86c-3.2-.33-4.85,1-6.12,3.79-10.19,22.41-8.85,44,6.31,63.51,15.4,19.83,36.41,27.23,61,21.83a59.64,59.64,0,0,0,45.47-71Zm-37.11,34.34c-2.78-5.15-6.39-9.84-9.55-14.79-1.15-1.79-1.93-2.12-3.8-.56-3.43,2.85-5.69,5.88-4.94,10.64.36,2.29,0,4.69.09,7,.15,2.49-.09,4-3.36,4-3.07,0-4-.8-4-3.94q.23-26.94,0-53.85c0-2.91.52-4.06,3.81-4.11,3.71-.06,3.5,1.89,3.49,4.37v32.38l15-14.33c5.75-5.47,5.76-5.46,14.88-5-5.06,4.64-9.36,8.93-14,12.76-2.87,2.35-2.88,4-.78,7,5.54,7.75,10.69,15.78,16.22,24C868.17,129.55,864.47,127.19,861.62,121.92Z"/><path class="b73b5c7b-b4a9-4814-8bee-e03e277452c8" d="M1093.56,89.66c-13.8-1.2-22.88,10.57-19.42,25.16q2.94,12.39,15.15,14c7,.92,13.81-2.19,16.69-7.88.74-1.46,2.68-3.65.58-4.69-1.6-.79-4.42-1.4-5.84,1.86-2.31,5.29-7.18,5.63-12,4.8-4.63-.8-7.1-4-8.28-8.44-.75-2.82.16-3.63,2.87-3.52,3.53.13,7.07,0,10.6,0h11.61c1.42,0,2.44-.14,2.77-2C1109.71,100.53,1102.09,90.4,1093.56,89.66Zm4.35,16c-2.5-.14-5,0-7.52,0h-5.52c-5.08,0-5.68-1-3.2-5.44a10,10,0,0,1,9.55-5.29,10.21,10.21,0,0,1,9.4,6.39c1.2,2.6,1,4.56-2.71,4.36Z"/><path class="b73b5c7b-b4a9-4814-8bee-e03e277452c8" d="M1022.17,115.45c-2-.74-2,1.81-2.57,3-3.08,6.1-7.85,8.57-14.9,7.58-5.22-.74-9.67-5.46-10.74-11.26-.62-3.37-.22-5.31,4.1-5.11,7.38.34,14.79.08,22.18.1,2,0,3.62,0,3.69-2.78.25-9.71-6.83-17.27-16.43-17.33-6.69,0-11.78,2.87-14.47,9-3.33,7.55-3.67,15.3.5,22.71,3.33,5.92,8.93,8,15.39,7.47,6-.48,11-3.06,13.26-9.16C1022.66,118.33,1024.49,116.31,1022.17,115.45ZM994.1,103.53c1.47-6.48,7.5-11.74,13.47-11.51,6.43.24,11.76,5.32,12.94,12,.39,2.22,0,3.11-2.31,3.06-3.69-.09-7.38,0-11.06,0-3.36,0-6.71-.11-10.06,0-2.74.11-3.59-.89-3-3.55Z"/></g></svg>