<svg id="f8657305-b02b-4045-82ef-0924775b1219" data-name="Ebene 1" xmlns="http://www.w3.org/2000/svg" viewBox="0 0 1680 200"><defs><style>.a6f8d59d-e5df-4345-b5ea-495c21ad2bb2{fill:none;stroke:#ccc;stroke-miterlimit:10;}.ac1f20e8-377a-4388-bd15-7ea9d8b9dd28{fill:#f9b213;}.ad5ccf0e-4b94-42cc-97ec-f30051108ea8{fill:#ccc;}</style></defs><title>HOOBS_x_sonoff</title><g id="f706e89e-01a4-40f6-b3ee-e4dbe6bb4868" data-name="Stroke"><line class="a6f8d59d-e5df-4345-b5ea-495c21ad2bb2" x1="700.5" y1="60" x2="700.5" y2="140"/></g><path class="ac1f20e8-377a-4388-bd15-7ea9d8b9dd28" d="M154.17,41.5h-78A19.5,19.5,0,0,0,56.67,61v78a19.5,19.5,0,0,0,19.5,19.5h78a19.5,19.5,0,0,0,19.5-19.5V61A19.5,19.5,0,0,0,154.17,41.5Zm2,59.26a3.24,3.24,0,0,1-4.59,0,3.21,3.21,0,0,1-.95-2.09l-8.82-8.82V69.92a1.63,1.63,0,0,0-1.63-1.63h-3.25a1.63,1.63,0,0,0-1.62,1.63V83.6l-4.88-5.13-15-15a1.62,1.62,0,0,0-2.3,0L78.59,97.89a1.64,1.64,0,0,0,0,2.3l2.3,2.3a1.64,1.64,0,0,0,2.3,0l26.43-26.43a6.49,6.49,0,0,1,9.19,0l26.43,26.43a6.51,6.51,0,0,1,0,9.19l-2.3,2.3a6.49,6.49,0,0,1-9.19,0L115.36,95.59a1.64,1.64,0,0,0-2.3,0L94.68,114a1.62,1.62,0,0,0,0,2.3l2.3,2.29a1.61,1.61,0,0,0,2.29,0l10.35-10.34a6.49,6.49,0,0,1,9.19,0l10.34,10.34a6.51,6.51,0,0,1,0,9.2L118,138.89a3.21,3.21,0,0,1-1,2.09,3.25,3.25,0,1,1-2.5-5.54l11.12-11.12a1.62,1.62,0,0,0,0-2.3l-10.34-10.34a1.62,1.62,0,0,0-2.3,0L102.72,122a6.49,6.49,0,0,1-9.19,0l-2.3-2.3a6.49,6.49,0,0,1,0-9.19l18.39-18.38a6.49,6.49,0,0,1,9.19,0l18.38,18.38a1.64,1.64,0,0,0,2.3,0l2.3-2.3a1.64,1.64,0,0,0,0-2.3L115.36,79.51a1.62,1.62,0,0,0-2.3,0L86.63,105.93a6.49,6.49,0,0,1-9.19,0l-2.3-2.29a6.52,6.52,0,0,1,0-9.2L109.62,60a6.49,6.49,0,0,1,9.19,0l11.6,11.61V69.92a6.5,6.5,0,0,1,6.5-6.5h3.25a6.5,6.5,0,0,1,6.5,6.5V87.83l7.4,7.39a3.25,3.25,0,0,1,2.09,5.54Z"/><path class="ac1f20e8-377a-4388-bd15-7ea9d8b9dd28" d="M612.42,61H624.1v3.65h-3.71v11H616.1v-11h-3.68Zm13.09,0h4.72l3.34,7.78L637,61h4.72V75.62h-3.85V67.39l-2.77,6.81h-2.92l-2.77-6.81v8.23h-3.85Z"/><path class="ac1f20e8-377a-4388-bd15-7ea9d8b9dd28" d="M271.65,61v78H254.31V107h-34v32H202.92V61h17.35V91.75h34V61Zm10.65,39c0-22.41,16.77-39,39.65-39s39.64,16.48,39.64,39S344.72,139,322,139,282.3,122.41,282.3,100Zm62.09.39c0-14.19-9.63-23.9-22.44-23.9s-22.45,9.71-22.45,23.9,9.64,23.89,22.45,23.89S344.39,114.57,344.39,100.39ZM368.8,100c0-22.41,16.77-39,39.65-39s39.64,16.48,39.64,39-16.87,39-39.64,39S368.8,122.41,368.8,100Zm62.09.39c0-14.19-9.63-23.9-22.44-23.9S386,86.2,386,100.39s9.64,23.89,22.45,23.89S430.89,114.57,430.89,100.39Zm96.58,17.33c0,13.48-10.28,21.28-30,21.28H458.74V61h36.61c18.74,0,28.38,8.13,28.38,20.28a18.86,18.86,0,0,1-10,17.16C522.12,101.23,527.47,107.91,527.47,117.72ZM476.71,76.06V93.67h16.5c8.1,0,12.5-3,12.5-8.86s-4.4-8.75-12.5-8.75Zm32.59,39.47c0-6.29-4.61-9.28-13.22-9.28H476.71v18.46h19.37C504.69,124.71,509.3,121.93,509.3,115.53Zm23.38,14.74,5.69-13.14A41.52,41.52,0,0,0,562.28,125c9.94,0,14-3.44,14-8.08,0-14.11-42.13-4.41-42.13-32.42,0-12.82,9.94-23.49,30.53-23.49,9.11,0,18.43,2.26,25.16,6.68l-5.18,13.25A39.67,39.67,0,0,0,564.56,75c-9.94,0-13.77,3.87-13.77,8.61,0,13.9,42.13,4.31,42.13,32,0,12.61-10,23.38-30.74,23.38C550.69,139,539.1,135.44,532.68,130.27Z"/><g id="be24acd5-e32a-456c-b753-ab1e4b736fff" data-name="sonoff"><path class="ad5ccf0e-4b94-42cc-97ec-f30051108ea8" d="M779.47,86.19V58.8c0-1.77.44-2.24,2.23-2.23q25.15.12,50.32,0c2,0,2.43.55,2.35,2.4-.15,3.38-.16,6.77,0,10.14.08,1.84-.54,2.22-2.28,2.21-11.52-.08-23,0-34.57-.11-2.34,0-2.74.68-2.71,2.82q.21,11.67,0,23.32c0,2.21.4,3,2.84,3,11.36-.14,22.71,0,34-.11,2,0,2.5.55,2.49,2.51q-.12,25.25,0,50.48c0,1.86-.29,2.6-2.44,2.58q-25-.15-50.07,0c-1.76,0-2.32-.42-2.24-2.22a91,91,0,0,0,0-9.63c-.11-2,.33-2.69,2.54-2.66,11.52.13,23,0,34.57.12,2.17,0,2.63-.6,2.59-2.66-.14-6.76-.12-13.52,0-20.28,0-1.78-.49-2.27-2.26-2.26-11.61.08-23.22,0-34.83.1-2.18,0-2.62-.62-2.59-2.68C779.54,104.45,779.47,95.32,779.47,86.19Z"/><path class="ad5ccf0e-4b94-42cc-97ec-f30051108ea8" d="M904.55,128.62V154c0,1.66-.42,2.09-2.08,2.08q-25.41-.09-50.82,0c-1.64,0-2.11-.39-2.1-2.07q.11-25.35,0-50.72c0-1.66.44-2.09,2.09-2.08q25.41.09,50.82,0c1.64,0,2.11.4,2.09,2.07C904.5,111.71,904.55,120.16,904.55,128.62Zm-27.32-12.28c-3.55,0-7.1,0-10.65,0-1.29,0-1.74.3-1.73,1.67q.1,10.5,0,21c0,1.22.37,1.58,1.58,1.57q10.65-.06,21.3,0c1.2,0,1.6-.32,1.59-1.56q-.09-10.5,0-21c0-1.33-.37-1.73-1.7-1.69C884.16,116.39,880.7,116.34,877.23,116.34Z"/><path class="ad5ccf0e-4b94-42cc-97ec-f30051108ea8" d="M982.92,128.11V103.25c0-1.59.33-2.17,2.07-2.16q25.44.12,50.84,0c1.64,0,1.94.53,1.93,2q-.08,25.25,0,50.48c0,1.5-.29,2-1.93,2q-25.42-.09-50.84,0c-1.74,0-2.08-.56-2.07-2.16ZM1010,140.59c3.38,0,6.77-.06,10.15,0,1.47,0,2.1-.28,2.08-1.93q-.13-10.12,0-20.26c0-1.54-.4-2-2-2-6.77.09-13.54.07-20.31,0-1.35,0-1.92.24-1.9,1.76.08,6.84.1,13.68,0,20.52,0,1.71.66,1.91,2.08,1.88,3.27,0,6.57,0,9.87,0Z"/><path class="ad5ccf0e-4b94-42cc-97ec-f30051108ea8" d="M1076.6,101.25c8.21,0,16.43.11,24.64-.07,2.35,0,2.83.69,2.69,2.82a53.93,53.93,0,0,0,0,8.62c.28,2.73-.81,3.1-3.22,3.08-11.35-.13-22.69,0-34-.11-2,0-2.8.34-2.71,2.57.18,4.48,0,4.48,4.51,4.48,11,0,22,0,33-.08,1.93,0,2.44.48,2.35,2.37-.16,3.63-.15,7.27,0,10.9.07,1.89-.34,2.54-2.43,2.52-11.68-.11-23.37,0-35-.1-1.87,0-2.46.4-2.39,2.34.16,4.48,0,9,.08,13.44,0,1.44-.43,1.9-1.88,1.87-3.55-.09-7.11-.14-10.66,0-1.88.08-2.46-.42-2.44-2.36.11-9.29,0-18.59,0-27.88,0-7.35.06-14.71,0-22.07,0-1.84.38-2.43,2.35-2.4C1059.83,101.32,1068.21,101.25,1076.6,101.25Z"/><path class="ad5ccf0e-4b94-42cc-97ec-f30051108ea8" d="M1142.93,101.25c8.39,0,16.78.07,25.16,0,2,0,2.41.56,2.32,2.4-.15,3.3-.16,6.61,0,9.89.09,1.86-.59,2.19-2.29,2.18-11.68-.07-23.37,0-35.07-.09-2.28,0-2.89.59-2.77,2.82.24,4.24.11,4.25,4.32,4.24,11.1,0,22.2,0,33.3-.07,1.86,0,2.5.39,2.41,2.35-.17,3.63-.16,7.27,0,10.9.09,2-.43,2.55-2.48,2.53-11.68-.11-23.38,0-35.07-.11-2.06,0-2.55.59-2.48,2.54.15,4.14-.11,8.29.11,12.42.12,2.36-.7,2.83-2.85,2.71a81.88,81.88,0,0,0-9.4,0c-2.06.12-2.7-.42-2.69-2.58q.15-24.72,0-49.45c0-2.39.76-2.7,2.84-2.67C1126.51,101.32,1134.72,101.25,1142.93,101.25Z"/><path class="ad5ccf0e-4b94-42cc-97ec-f30051108ea8" d="M943.77,101.2h25.4c1.65,0,2.11.41,2.1,2.08q-.09,25.1,0,50.21c0,1.84-.54,2.25-2.27,2.18-3.39-.13-6.77-.13-10.16,0-1.76.07-2.29-.42-2.28-2.22.09-11.5,0-23,.08-34.49,0-1.86-.3-2.59-2.42-2.54-7,.15-14,.12-21.08,0-1.76,0-2.25.39-2.24,2.19.09,11.58,0,23.16.09,34.74,0,1.89-.33,2.67-2.44,2.56-3.46-.2-6.94-.1-10.42,0-1.31,0-1.76-.4-1.76-1.74q.06-25.6,0-51.22c0-1.63.72-1.72,2-1.71Q931.06,101.21,943.77,101.2Z"/><path class="ad5ccf0e-4b94-42cc-97ec-f30051108ea8" d="M875.8,63.68a38.9,38.9,0,0,1-10.42,26.63c-.75.82-1.53,2.16-2.68.46-.76-1.12-3.13-1.53-1-3.84,12.36-13.36,12.42-32.71.11-46.11-2.15-2.33,0-2.83.92-4,1.29-1.7,2-.16,2.66.59A38.16,38.16,0,0,1,875.8,63.68Z"/><path class="ad5ccf0e-4b94-42cc-97ec-f30051108ea8" d="M863.91,63.58a27,27,0,0,1-7.22,18.62c-.69.76-1.48,1.72-2.25.27-.58-1.11-3.42-1.26-1.4-3.59,8.07-9.32,8.12-20.9.06-30-2-2.32.62-2.55,1.25-3.61.94-1.59,1.73-.43,2.46.38A26.54,26.54,0,0,1,863.91,63.58Z"/><path class="ad5ccf0e-4b94-42cc-97ec-f30051108ea8" d="M850.91,63.75a13.75,13.75,0,0,1-3.61,9.45c-.48.55-1.07,1.4-1.73.36s-3.27-1.68-2-3.34c3.37-4.44,3.3-8.47-.06-12.87-1.16-1.52,1.32-2,2-3.14s1.17-.53,1.76.13A13.89,13.89,0,0,1,850.91,63.75Z"/></g></svg>