<svg id="a93919b1-ce9a-4d98-8531-8a526c1ff7df" data-name="Ebene 1" xmlns="http://www.w3.org/2000/svg" viewBox="0 0 1680 200"><defs><style>.f82e6f99-87e4-45a2-b6a9-027d41a94630{fill:none;stroke:#ccc;stroke-miterlimit:10;}.b89ad846-410d-4c31-a97e-5a4f93051262{fill:#f9b213;}.f5446d5c-8e69-49f6-8d00-059403811375{isolation:isolate;}.b1481a78-a402-4919-990d-373d5c01ffec{fill:#ccc;}.b3f5c817-e05b-4d99-a583-eb0a19b25446{fill:#1246d5;}</style></defs><title>HOOBS_x_bond</title><g id="f5e5b230-8350-49c1-84a3-1fa92d28eef7" data-name="Stroke"><line class="f82e6f99-87e4-45a2-b6a9-027d41a94630" x1="700.5" y1="60" x2="700.5" y2="140"/></g><path class="b89ad846-410d-4c31-a97e-5a4f93051262" d="M154.17,41.5h-78A19.5,19.5,0,0,0,56.67,61v78a19.5,19.5,0,0,0,19.5,19.5h78a19.5,19.5,0,0,0,19.5-19.5V61A19.5,19.5,0,0,0,154.17,41.5Zm2,59.26a3.24,3.24,0,0,1-4.59,0,3.21,3.21,0,0,1-.95-2.09l-8.82-8.82V69.92a1.63,1.63,0,0,0-1.63-1.63h-3.25a1.63,1.63,0,0,0-1.62,1.63V83.6l-4.88-5.13-15-15a1.62,1.62,0,0,0-2.3,0L78.59,97.89a1.64,1.64,0,0,0,0,2.3l2.3,2.3a1.64,1.64,0,0,0,2.3,0l26.43-26.43a6.49,6.49,0,0,1,9.19,0l26.43,26.43a6.51,6.51,0,0,1,0,9.19l-2.3,2.3a6.49,6.49,0,0,1-9.19,0L115.36,95.59a1.64,1.64,0,0,0-2.3,0L94.68,114a1.62,1.62,0,0,0,0,2.3l2.3,2.29a1.61,1.61,0,0,0,2.29,0l10.35-10.34a6.49,6.49,0,0,1,9.19,0l10.34,10.34a6.51,6.51,0,0,1,0,9.2L118,138.89a3.21,3.21,0,0,1-1,2.09,3.25,3.25,0,1,1-2.5-5.54l11.12-11.12a1.62,1.62,0,0,0,0-2.3l-10.34-10.34a1.62,1.62,0,0,0-2.3,0L102.72,122a6.49,6.49,0,0,1-9.19,0l-2.3-2.3a6.49,6.49,0,0,1,0-9.19l18.39-18.38a6.49,6.49,0,0,1,9.19,0l18.38,18.38a1.64,1.64,0,0,0,2.3,0l2.3-2.3a1.64,1.64,0,0,0,0-2.3L115.36,79.51a1.62,1.62,0,0,0-2.3,0L86.63,105.93a6.49,6.49,0,0,1-9.19,0l-2.3-2.29a6.52,6.52,0,0,1,0-9.2L109.62,60a6.49,6.49,0,0,1,9.19,0l11.6,11.61V69.92a6.5,6.5,0,0,1,6.5-6.5h3.25a6.5,6.5,0,0,1,6.5,6.5V87.83l7.4,7.39a3.25,3.25,0,0,1,2.09,5.54Z"/><path class="b89ad846-410d-4c31-a97e-5a4f93051262" d="M612.42,61H624.1v3.65h-3.71v11H616.1v-11h-3.68Zm13.09,0h4.72l3.34,7.78L637,61h4.72V75.62h-3.85V67.39l-2.77,6.81h-2.92l-2.77-6.81v8.23h-3.85Z"/><path class="b89ad846-410d-4c31-a97e-5a4f93051262" d="M271.65,61v78H254.31V107h-34v32H202.92V61h17.35V91.75h34V61Zm10.65,39c0-22.41,16.77-39,39.65-39s39.64,16.48,39.64,39S344.72,139,322,139,282.3,122.41,282.3,100Zm62.09.39c0-14.19-9.63-23.9-22.44-23.9s-22.45,9.71-22.45,23.9,9.64,23.89,22.45,23.89S344.39,114.57,344.39,100.39ZM368.8,100c0-22.41,16.77-39,39.65-39s39.64,16.48,39.64,39-16.87,39-39.64,39S368.8,122.41,368.8,100Zm62.09.39c0-14.19-9.63-23.9-22.44-23.9S386,86.2,386,100.39s9.64,23.89,22.45,23.89S430.89,114.57,430.89,100.39Zm96.58,17.33c0,13.48-10.28,21.28-30,21.28H458.74V61h36.61c18.74,0,28.38,8.13,28.38,20.28a18.86,18.86,0,0,1-10,17.16C522.12,101.23,527.47,107.91,527.47,117.72ZM476.71,76.06V93.67h16.5c8.1,0,12.5-3,12.5-8.86s-4.4-8.75-12.5-8.75Zm32.59,39.47c0-6.29-4.61-9.28-13.22-9.28H476.71v18.46h19.37C504.69,124.71,509.3,121.93,509.3,115.53Zm23.38,14.74,5.69-13.14A41.52,41.52,0,0,0,562.28,125c9.94,0,14-3.44,14-8.08,0-14.11-42.13-4.41-42.13-32.42,0-12.82,9.94-23.49,30.53-23.49,9.11,0,18.43,2.26,25.16,6.68l-5.18,13.25A39.67,39.67,0,0,0,564.56,75c-9.94,0-13.77,3.87-13.77,8.61,0,13.9,42.13,4.31,42.13,32,0,12.61-10,23.38-30.74,23.38C550.69,139,539.1,135.44,532.68,130.27Z"/><g class="f5446d5c-8e69-49f6-8d00-059403811375"><path class="b1481a78-a402-4919-990d-373d5c01ffec" d="M921.71,114.44V78.89h12.45q6.47,0,9.81,2.48a8.47,8.47,0,0,1,3.35,7.26,8.05,8.05,0,0,1-1.34,4.6,7.76,7.76,0,0,1-3.74,2.92,7.56,7.56,0,0,1,4.31,2.76,8.13,8.13,0,0,1,1.57,5.08q0,5.12-3.27,7.76t-9.32,2.69ZM929,93.78h5.42c3.7-.06,5.55-1.54,5.55-4.42a4.08,4.08,0,0,0-1.41-3.48,7.42,7.42,0,0,0-4.43-1.06H929ZM929,99v9.59h6.28a6.08,6.08,0,0,0,4-1.23,4.23,4.23,0,0,0,1.45-3.41q0-4.87-5-5Z"/><path class="b1481a78-a402-4919-990d-373d5c01ffec" d="M951.06,101a15.62,15.62,0,0,1,1.51-7,11.05,11.05,0,0,1,4.36-4.76,12.61,12.61,0,0,1,6.6-1.69,12,12,0,0,1,8.73,3.27A13.16,13.16,0,0,1,976,99.69l.05,1.81q0,6.07-3.39,9.75a13.17,13.17,0,0,1-18.23,0q-3.4-3.66-3.4-10Zm7.05.5a9.82,9.82,0,0,0,1.42,5.76,5.07,5.07,0,0,0,8.05,0q1.44-2,1.44-6.3a9.77,9.77,0,0,0-1.44-5.72,4.69,4.69,0,0,0-4.05-2,4.59,4.59,0,0,0-4,2Q958.11,97.25,958.11,101.48Z"/><path class="b1481a78-a402-4919-990d-373d5c01ffec" d="M985.92,88l.22,3a9.23,9.23,0,0,1,7.59-3.54c2.8,0,4.89.82,6.25,2.47s2.07,4.1,2.1,7.37v17.07H995V97.54a4.59,4.59,0,0,0-1-3.26,4.39,4.39,0,0,0-3.25-1,4.88,4.88,0,0,0-4.47,2.54v18.63h-7.05V88Z"/><path class="b1481a78-a402-4919-990d-373d5c01ffec" d="M1005.33,101c0-4.11.92-7.4,2.77-9.84a9,9,0,0,1,7.58-3.66,8.08,8.08,0,0,1,6.37,2.88V76.94h7.08v37.5h-6.37l-.34-2.81a8.29,8.29,0,0,1-6.79,3.29,9,9,0,0,1-7.48-3.67Q1005.33,107.57,1005.33,101Zm7.06.53a10.42,10.42,0,0,0,1.29,5.69,4.2,4.2,0,0,0,3.76,2,4.72,4.72,0,0,0,4.61-2.77V96a4.65,4.65,0,0,0-4.56-2.76Q1012.39,93.27,1012.39,101.56Z"/><path class="b1481a78-a402-4919-990d-373d5c01ffec" d="M1074.45,114.44h-7.33V99.2h-14.28v15.24h-7.32V78.89h7.32v14.4h14.28V78.89h7.33Z"/><path class="b1481a78-a402-4919-990d-373d5c01ffec" d="M1078.28,101a15.63,15.63,0,0,1,1.52-7,11,11,0,0,1,4.35-4.76,12.67,12.67,0,0,1,6.61-1.69,12.05,12.05,0,0,1,8.73,3.27,13.16,13.16,0,0,1,3.77,8.89l0,1.81q0,6.07-3.4,9.75a13.15,13.15,0,0,1-18.22,0q-3.4-3.66-3.41-10Zm7.06.5a9.9,9.9,0,0,0,1.41,5.76,5.08,5.08,0,0,0,8.06,0q1.44-2,1.44-6.3a9.77,9.77,0,0,0-1.44-5.72,4.69,4.69,0,0,0-4-2,4.61,4.61,0,0,0-4,2Q1085.34,97.25,1085.34,101.48Z"/><path class="b1481a78-a402-4919-990d-373d5c01ffec" d="M1113.27,88l.22,3a9.29,9.29,0,0,1,7.59-3.44q5.1,0,7,4a9.05,9.05,0,0,1,7.93-4c2.87,0,5,.84,6.4,2.5s2.1,4.18,2.1,7.54v16.87h-7.08V97.59a5,5,0,0,0-.88-3.28,3.87,3.87,0,0,0-3.1-1,4.41,4.41,0,0,0-4.4,3l0,18.14H1122V97.61a5,5,0,0,0-.9-3.32,4,4,0,0,0-3.08-1,4.56,4.56,0,0,0-4.34,2.49v18.68h-7.06V88Z"/><path class="b1481a78-a402-4919-990d-373d5c01ffec" d="M1161.1,114.92a12.93,12.93,0,0,1-9.46-3.56,12.65,12.65,0,0,1-3.65-9.5v-.68a16,16,0,0,1,1.53-7.12,11.31,11.31,0,0,1,4.36-4.83,12.27,12.27,0,0,1,6.44-1.7,11,11,0,0,1,8.53,3.42q3.11,3.42,3.11,9.69v2.88h-16.82a6.58,6.58,0,0,0,2.06,4.15,6.25,6.25,0,0,0,4.36,1.57,7.61,7.61,0,0,0,6.37-3l3.47,3.88a10.6,10.6,0,0,1-4.3,3.51A14.19,14.19,0,0,1,1161.1,114.92Zm-.81-21.7a4.39,4.39,0,0,0-3.4,1.42,7.37,7.37,0,0,0-1.68,4.07H1165v-.56a5.3,5.3,0,0,0-1.27-3.64A4.56,4.56,0,0,0,1160.29,93.22Z"/></g><path class="b3f5c817-e05b-4d99-a583-eb0a19b25446" d="M898.93,63.22c-1.25-9.45-6.2-16.27-14.67-20.55-4.79-2.41-10-2.76-15.23-2.78-17.17-.08-34.34,0-51.51-.06-.26,0-.52,0-.78,0a94.72,94.72,0,0,0-14.29.52,24.3,24.3,0,0,0-13.42,6l-.22.19a12.25,12.25,0,0,0-2.66,2.67l-.2.23c-.36.28-.77.53-.83,1.06h0a14,14,0,0,0-2.53,3.84c-2.5,4.77-3.09,10-3.1,15.22,0,19.43,0,38.86,0,58.29a64.78,64.78,0,0,0,.5,8.58c1.24,9.45,6.18,16.27,14.64,20.56,4.78,2.42,10,2.78,15.22,2.8,19,.07,38,0,57,0a75.09,75.09,0,0,0,9.36-.52,24.59,24.59,0,0,0,13.69-6l.22-.19a11.41,11.41,0,0,0,2.63-2.65.87.87,0,0,0,.52-.81l.23-.24a1.24,1.24,0,0,0,.8-1.06.75.75,0,0,0,.52-.78.75.75,0,0,0,.52-.78c.14-.05.25-.11.21-.29a.3.3,0,0,0,0-.21,19.74,19.74,0,0,0,2.51-5.53A38,38,0,0,0,899.39,130q.06-29,0-57.89A68.9,68.9,0,0,0,898.93,63.22ZM809,68.41a13.63,13.63,0,1,1,13,13.93C814.65,82.42,808.76,75.31,809,68.41Zm54.14,64.26c-.13.17-.24.36-.36.54a30.24,30.24,0,0,1-16.15,10.29,29.87,29.87,0,0,1-17.8-1,30.38,30.38,0,0,1-19.05-35.35,30,30,0,0,1,7.42-13.75c.82-.9,1.64-1.78,2.46-2.67.68.11.79-.58,1.2-.86,9.3-6.3,19.3-8.06,29.8-3.73,10,4.09,16.13,11.66,18.24,22.31C870.68,117.36,868.57,125.42,863.15,132.67Z"/><path class="b3f5c817-e05b-4d99-a583-eb0a19b25446" d="M829.49,98.87a17.58,17.58,0,0,0-8.33,15.93,18.09,18.09,0,0,0,32.93,9.64,17,17,0,0,0,2.79-14.7A18.06,18.06,0,0,0,829.49,98.87ZM841.26,126a11.53,11.53,0,0,1-12-5c-2.88-4.09-3-8.49-.6-12.89a11.17,11.17,0,0,1,4.55-4.61,12.53,12.53,0,0,1,9.58-.9,12.06,12.06,0,0,1,7.4,16.39c-.12.27-.21.56-.32.84h0C847.81,123,845.11,125.34,841.26,126Z"/></svg>