<svg id="bfbc659b-efb8-4618-9661-3b2b67f2f0c1" data-name="Ebene 1" xmlns="http://www.w3.org/2000/svg" viewBox="0 0 1680 200"><defs><style>.a29ed37f-499d-4ade-a9e3-b03fccbd39b8{fill:none;stroke:#ccc;stroke-miterlimit:10;}.faf267c7-5e1f-478c-b0af-972ba3924ed3{fill:#f9b213;}.af0767f5-02f5-40f5-ba2e-77e17aa3a6d5{fill:#ccc;}.e5dc53d2-f529-454c-9977-63e50d6712b6{fill:#e96e4b;}.b5d3b964-a69f-4b2a-8a34-31d70a81d9a4{isolation:isolate;}</style></defs><title>HOOBS_x_weatherstation</title><g id="e030aa5f-ec5c-485f-a326-10e212be3ff9" data-name="Stroke"><line class="a29ed37f-499d-4ade-a9e3-b03fccbd39b8" x1="700.5" y1="60" x2="700.5" y2="140"/></g><path class="faf267c7-5e1f-478c-b0af-972ba3924ed3" d="M154.17,41.5h-78A19.5,19.5,0,0,0,56.67,61v78a19.5,19.5,0,0,0,19.5,19.5h78a19.5,19.5,0,0,0,19.5-19.5V61A19.5,19.5,0,0,0,154.17,41.5Zm2,59.26a3.24,3.24,0,0,1-4.59,0,3.21,3.21,0,0,1-.95-2.09l-8.82-8.82V69.92a1.63,1.63,0,0,0-1.63-1.63h-3.25a1.63,1.63,0,0,0-1.62,1.63V83.6l-4.88-5.13-15-15a1.62,1.62,0,0,0-2.3,0L78.59,97.89a1.64,1.64,0,0,0,0,2.3l2.3,2.3a1.64,1.64,0,0,0,2.3,0l26.43-26.43a6.49,6.49,0,0,1,9.19,0l26.43,26.43a6.51,6.51,0,0,1,0,9.19l-2.3,2.3a6.49,6.49,0,0,1-9.19,0L115.36,95.59a1.64,1.64,0,0,0-2.3,0L94.68,114a1.62,1.62,0,0,0,0,2.3l2.3,2.29a1.61,1.61,0,0,0,2.29,0l10.35-10.34a6.49,6.49,0,0,1,9.19,0l10.34,10.34a6.51,6.51,0,0,1,0,9.2L118,138.89a3.21,3.21,0,0,1-1,2.09,3.25,3.25,0,1,1-2.5-5.54l11.12-11.12a1.62,1.62,0,0,0,0-2.3l-10.34-10.34a1.62,1.62,0,0,0-2.3,0L102.72,122a6.49,6.49,0,0,1-9.19,0l-2.3-2.3a6.49,6.49,0,0,1,0-9.19l18.39-18.38a6.49,6.49,0,0,1,9.19,0l18.38,18.38a1.64,1.64,0,0,0,2.3,0l2.3-2.3a1.64,1.64,0,0,0,0-2.3L115.36,79.51a1.62,1.62,0,0,0-2.3,0L86.63,105.93a6.49,6.49,0,0,1-9.19,0l-2.3-2.29a6.52,6.52,0,0,1,0-9.2L109.62,60a6.49,6.49,0,0,1,9.19,0l11.6,11.61V69.92a6.5,6.5,0,0,1,6.5-6.5h3.25a6.5,6.5,0,0,1,6.5,6.5V87.83l7.4,7.39a3.25,3.25,0,0,1,2.09,5.54Z"/><path class="faf267c7-5e1f-478c-b0af-972ba3924ed3" d="M612.42,61H624.1v3.65h-3.71v11H616.1v-11h-3.68Zm13.09,0h4.72l3.34,7.78L637,61h4.72V75.62h-3.85V67.39l-2.77,6.81h-2.92l-2.77-6.81v8.23h-3.85Z"/><path class="faf267c7-5e1f-478c-b0af-972ba3924ed3" d="M271.65,61v78H254.31V107h-34v32H202.92V61h17.35V91.75h34V61Zm10.65,39c0-22.41,16.77-39,39.65-39s39.64,16.48,39.64,39S344.72,139,322,139,282.3,122.41,282.3,100Zm62.09.39c0-14.19-9.63-23.9-22.44-23.9s-22.45,9.71-22.45,23.9,9.64,23.89,22.45,23.89S344.39,114.57,344.39,100.39ZM368.8,100c0-22.41,16.77-39,39.65-39s39.64,16.48,39.64,39-16.87,39-39.64,39S368.8,122.41,368.8,100Zm62.09.39c0-14.19-9.63-23.9-22.44-23.9S386,86.2,386,100.39s9.64,23.89,22.45,23.89S430.89,114.57,430.89,100.39Zm96.58,17.33c0,13.48-10.28,21.28-30,21.28H458.74V61h36.61c18.74,0,28.38,8.13,28.38,20.28a18.86,18.86,0,0,1-10,17.16C522.12,101.23,527.47,107.91,527.47,117.72ZM476.71,76.06V93.67h16.5c8.1,0,12.5-3,12.5-8.86s-4.4-8.75-12.5-8.75Zm32.59,39.47c0-6.29-4.61-9.28-13.22-9.28H476.71v18.46h19.37C504.69,124.71,509.3,121.93,509.3,115.53Zm23.38,14.74,5.69-13.14A41.52,41.52,0,0,0,562.28,125c9.94,0,14-3.44,14-8.08,0-14.11-42.13-4.41-42.13-32.42,0-12.82,9.94-23.49,30.53-23.49,9.11,0,18.43,2.26,25.16,6.68l-5.18,13.25A39.67,39.67,0,0,0,564.56,75c-9.94,0-13.77,3.87-13.77,8.61,0,13.9,42.13,4.31,42.13,32,0,12.61-10,23.38-30.74,23.38C550.69,139,539.1,135.44,532.68,130.27Z"/><g id="f4b5b670-624e-4a89-9d1e-5a7b74d2a841" data-name="weather"><path class="af0767f5-02f5-40f5-ba2e-77e17aa3a6d5" d="M805.53,127.58a2.36,2.36,0,0,0-3.25.65l-9.37,14.07a2.34,2.34,0,1,0,3.9,2.6l9.37-14.07a2.34,2.34,0,0,0-.65-3.25Z"/><path class="af0767f5-02f5-40f5-ba2e-77e17aa3a6d5" d="M807.62,159.61a2.36,2.36,0,0,0,3.25-.65l4.69-7a2.34,2.34,0,0,0-3.9-2.6h0l-4.69,7a2.35,2.35,0,0,0,.64,3.25Z"/><path class="af0767f5-02f5-40f5-ba2e-77e17aa3a6d5" d="M823.38,128.23l-4.69,7a2.34,2.34,0,0,0,3.9,2.6l4.69-7a2.34,2.34,0,1,0-3.9-2.6Z"/><path class="af0767f5-02f5-40f5-ba2e-77e17aa3a6d5" d="M835.74,145.55a2.36,2.36,0,0,0,3.25-.65l9.38-14.07a2.34,2.34,0,1,0-3.9-2.6l-9.4,14.07a2.36,2.36,0,0,0,.65,3.25Z"/><path class="af0767f5-02f5-40f5-ba2e-77e17aa3a6d5" d="M849.81,159.61a2.36,2.36,0,0,0,3.25-.65l4.68-7a2.34,2.34,0,0,0-3.9-2.6l-4.68,7a2.35,2.35,0,0,0,.64,3.25Z"/><path class="af0767f5-02f5-40f5-ba2e-77e17aa3a6d5" d="M865.56,128.23l-4.68,7a2.34,2.34,0,0,0,3.9,2.6l4.68-7a2.34,2.34,0,1,0-3.9-2.6Z"/><path class="af0767f5-02f5-40f5-ba2e-77e17aa3a6d5" d="M886.66,128.23l-9.38,14.07a2.34,2.34,0,1,0,3.9,2.6l9.38-14.07a2.34,2.34,0,1,0-3.9-2.6Z"/><circle class="af0767f5-02f5-40f5-ba2e-77e17aa3a6d5" cx="839.39" cy="112.66" r="2.34"/><path class="e5dc53d2-f529-454c-9977-63e50d6712b6" d="M796.26,115h32.58a2.34,2.34,0,0,0,0-4.68H796.26c-6.6,0-12.18-5.37-12.18-11.72,0-6.6,5.9-11.88,12.48-11.72a2.37,2.37,0,0,0,2.35-2.81,15,15,0,0,1,4.46-13.88,15.64,15.64,0,0,1,12.47-4.33,29.64,29.64,0,0,0-.36,4.61,2.35,2.35,0,0,0,4.69.31v-.31c0-14.4,12.24-25.78,26.25-25.78,13.71,0,25.4,10.58,26.61,23.56-11.76,1.19-21.45,11.11-21.45,23.32a2.34,2.34,0,0,0,4.68,0c0-10.17,8.8-18.75,19.22-18.75s19.22,8.62,19.22,18.75-8.8,18.75-19.22,18.75H849.93a2.34,2.34,0,1,0,0,4.68h25.55c13,0,23.91-10.52,23.91-23.43,0-12.26-9.77-22.22-21.65-23.34C876.51,52.16,862.16,40,846.42,40A31.15,31.15,0,0,0,817,61.27a20.29,20.29,0,0,0-16.82,5.53A19.79,19.79,0,0,0,794,82.35c-8,1.13-14.57,7.94-14.57,16.25,0,9.13,7.88,16.4,16.87,16.4Z"/></g><path class="e5dc53d2-f529-454c-9977-63e50d6712b6" d="M997.6,139.69H985c-1.13,0-2.21-.11-2.19-1.55s1.12-1.52,2.23-1.51c1.59,0,3.18,0,4.76,0,1.1,0,2.23-.05,2.26-1.49s-1.07-1.55-2.18-1.55h-8c-1.07,0-2.1-.2-2.19-1.46s.76-1.68,1.92-1.71a1.4,1.4,0,0,0,1.5-1.58,1.47,1.47,0,0,0-1.68-1.41c-1.7,0-3.4,0-5.09,0-1,0-1.78-.37-1.89-1.41a1.47,1.47,0,0,1,1.57-1.71c1.38,0,.88-1,.85-1.63-.28-8,3-14,10.16-17.67,12.45-6.33,26.81,3.08,26.42,17.2,0,2.06,0,2.06,2,2.06h1.81c1,0,1.9.47,1.88,1.61s-.82,1.55-1.9,1.55c-2.52,0-5,0-7.55,0-2.3,0-4.6,0-6.9,0-1,0-1.94.17-2,1.38s.64,1.64,1.76,1.64,1.68.5,1.67,1.59-.74,1.5-1.73,1.55c-.43,0-.87,0-1.31,0-1,0-1.6.41-1.65,1.42s.67,1.57,1.67,1.59c1.47,0,3,0,4.43,0s3.06,0,4.59,0c1.12,0,2.2.05,2.24,1.51s-1,1.55-2.16,1.55Z"/><path class="af0767f5-02f5-40f5-ba2e-77e17aa3a6d5" d="M1024.14,155.31c.42-2.17.85-4.34,1.26-6.52.29-1.5.63-3,.8-4.52.15-1.25.61-1.72,2-1.68,3.08.11,3.07,0,3.61,3s1.16,6.08,1.73,9.11c.72,0,.58-.53.63-.85.51-3.34,1.08-6.69,1.48-10.05.23-1.95,1.61-1.08,2.48-1.11,1.23,0,.53,1,.46,1.46-.61,4.33-1.33,8.65-2,13-.15,1-.5,1.45-1.64,1.44-3.55-.05-3.54,0-4.18-3.52a88.1,88.1,0,0,0-2-9.14l-1.59,8.33c-.05.26-.07.54-.12.81-.72,3.69-.72,3.66-4.52,3.51-.83,0-1.13-.32-1.25-1.11-.66-4.49-1.39-9-2-13.46-.06-.46-.66-1.4.48-1.29.84.08,2.21-.85,2.46.94.44,3.14.91,6.27,1.37,9.41.11.75.24,1.5.36,2.25Z"/><path class="af0767f5-02f5-40f5-ba2e-77e17aa3a6d5" d="M978.81,150.7c0,.43,0,.87,0,1.31-.07,5.12-3.76,7.9-8.71,6.53A5.31,5.31,0,0,1,966,154.3a18.36,18.36,0,0,1,0-7.16c.61-3.14,3-4.87,6.45-4.81s5.63,1.84,6.2,4.94a32.38,32.38,0,0,1,.25,3.42Zm-3,0h0a18.93,18.93,0,0,0,0-2.61,3.29,3.29,0,0,0-3.44-3,3.2,3.2,0,0,0-3.42,3,26.63,26.63,0,0,0,0,4.89c.18,2.18,1.47,3.2,3.61,3.13a3.2,3.2,0,0,0,3.35-3.28C975.85,152.11,975.8,151.39,975.8,150.68Z"/><path class="af0767f5-02f5-40f5-ba2e-77e17aa3a6d5" d="M983.62,157c0,1.76-.09,3.3,0,4.81s-.77,1.12-1.56,1.17-1.4,0-1.38-1.16c.08-4.31,0-8.63.06-12.94,0-.57-.55-1.62.66-1.63.94,0,2.42-.75,2.2,1.37,3-2.26,5.59-2.19,7.52.07a6.64,6.64,0,0,1-.24,8.56C989,159.31,986.33,159.27,983.62,157Zm6.08-4.23a3,3,0,1,0-6.07.05c0,2.07,1.27,3.45,3.14,3.39S989.72,154.81,989.7,152.81Z"/><path class="af0767f5-02f5-40f5-ba2e-77e17aa3a6d5" d="M1076.79,149.2c1.68-2.23,3.56-2.5,5.55-1.74s2.65,2.58,2.63,4.65c0,1.75-.08,3.51,0,5.25.07,1.19-.57,1.18-1.41,1.17s-1.62.11-1.54-1.22c.12-1.69.06-3.39,0-5.08s-.78-2.53-2.28-2.63a2.47,2.47,0,0,0-2.87,2.29,40.53,40.53,0,0,0-.09,5.4c0,1.08-.37,1.33-1.33,1.24-.78-.08-1.61.24-1.59-1.16q.12-6.81,0-13.62c0-1.38.82-1.06,1.6-1.13,1-.1,1.38.17,1.32,1.23C1076.72,145.48,1076.79,147.12,1076.79,149.2Z"/><path class="af0767f5-02f5-40f5-ba2e-77e17aa3a6d5" d="M1059.43,156.7c-1.72,2.35-3.64,2.37-5.63,1.81a3.08,3.08,0,0,1-2.37-3,3,3,0,0,1,2.19-3.11,19.55,19.55,0,0,1,4.51-.71c.43-.07,1.08.14,1.2-.55a1.5,1.5,0,0,0-.81-1.5,3,3,0,0,0-3.93.91c-1,1.52-1.71.15-2.34-.23-1.06-.64.08-1.11.4-1.44a6.09,6.09,0,0,1,6.61-1.61,4.08,4.08,0,0,1,3,4c0,1.85,0,3.71,0,5.56,0,.63.5,1.68-.88,1.63C1060.41,158.47,1059.11,159,1059.43,156.7Zm-3.06-.3a2.94,2.94,0,0,0,2.36-.9,1.64,1.64,0,0,0,.58-1.61c-.27-.77-.93-.2-1.41-.2a8.87,8.87,0,0,0-1.78.17c-.79.17-1.78.32-1.65,1.41S1055.51,156.4,1056.37,156.4Z"/><path class="af0767f5-02f5-40f5-ba2e-77e17aa3a6d5" d="M1046.31,153.69c-1,0-2.08,0-3.12,0s-1,.44-.66,1.19a2.83,2.83,0,0,0,4.6.58c1.22-1.3,2-.08,2.54.41.83.72-.33,1.18-.75,1.57a6,6,0,0,1-7.57.11,6.41,6.41,0,0,1-1.28-7.93,5.57,5.57,0,0,1,10.33,3.32c-.08.69-.42.78-1,.77C1048.39,153.68,1047.35,153.69,1046.31,153.69Zm-1.45-1.93a2,2,0,0,0,.65,0c.58-.2,1.62.56,1.73-.46s-.72-1.57-1.65-1.77a2.58,2.58,0,0,0-2.7.72c-.32.36-.71.81-.51,1.29s.77.18,1.17.22A11.43,11.43,0,0,0,1044.86,151.76Z"/><path class="af0767f5-02f5-40f5-ba2e-77e17aa3a6d5" d="M1000.63,153.69c-.93,0-1.86,0-2.78,0-1.35-.06-1.16.6-.7,1.39a2.82,2.82,0,0,0,4.52.34c1.17-1.27,1.81,0,2.43.39,1,.65-.16,1.11-.5,1.45a6,6,0,0,1-7.66.36,6.38,6.38,0,0,1-1.36-8,5.66,5.66,0,0,1,7.17-2.16,5.53,5.53,0,0,1,3.1,5.48c-.07.69-.38.8-.94.79C1002.82,153.68,1001.72,153.69,1000.63,153.69Zm-1.33-1.93a3.13,3.13,0,0,0,.81,0c.56-.14,1.5.45,1.63-.41s-.61-1.48-1.42-1.75a2.75,2.75,0,0,0-2.5.26c-.55.38-1.1.91-.91,1.58s.93.23,1.42.32A5.23,5.23,0,0,0,999.3,151.76Z"/><path class="af0767f5-02f5-40f5-ba2e-77e17aa3a6d5" d="M1093.6,153.69c-1,0-2,0-2.95,0s-1,.54-.68,1.23a2.85,2.85,0,0,0,4.61.53c1.23-1.33,2,0,2.54.44.76.59-.29,1.09-.67,1.46a6,6,0,0,1-7.68.2,6.42,6.42,0,0,1-1.28-7.92,5.66,5.66,0,0,1,7.15-2.21,5.5,5.5,0,0,1,3.14,5.46c-.06.66-.32.84-.91.83C1095.78,153.67,1094.69,153.69,1093.6,153.69Zm-1.31-1.93a2,2,0,0,0,.65,0c.58-.2,1.62.56,1.73-.46s-.72-1.56-1.63-1.76a2.64,2.64,0,0,0-2.7.67c-.33.35-.68.79-.49,1.29s.75.22,1.15.26A11.09,11.09,0,0,0,1092.29,151.76Z"/><path class="af0767f5-02f5-40f5-ba2e-77e17aa3a6d5" d="M1009.51,148.91a4.44,4.44,0,0,1,5.43-1.48c2.09.76,2.7,2.54,2.7,4.6,0,1.8-.06,3.6,0,5.4.07,1.26-.7,1.09-1.46,1.09s-1.56.19-1.49-1.08c.09-1.69,0-3.38,0-5.08s-.76-2.66-2.3-2.76a2.54,2.54,0,0,0-2.9,2.46,33.81,33.81,0,0,0,0,5.23c.08,1.3-.61,1.22-1.49,1.24s-1.5-.08-1.46-1.29c.09-2.78,0-5.57,0-8.35,0-.73-.36-1.7,1.07-1.67C1008.76,147.24,1009.76,147.16,1009.51,148.91Z"/><path class="af0767f5-02f5-40f5-ba2e-77e17aa3a6d5" d="M1066.12,153.49a10.44,10.44,0,0,1,0-1.48c.23-1.6-.09-2.63-2.07-2.31-1,.17-.82-.62-.81-1.2s-.2-1.41.78-1.22c2.23.43,2.27-.92,2.08-2.44-.16-1.34.77-1,1.47-1s1.61-.15,1.4,1.1c0,.32,0,.66,0,1-.15,1.06.25,1.48,1.35,1.38.87-.08,1.83-.34,1.81,1.25s-.9,1.26-1.72,1.18c-1.17-.11-1.57.33-1.45,1.47a19.09,19.09,0,0,1,0,2.62c0,1.32-.18,2.58,1.85,2.32.86-.12.58.74.6,1.22s.19,1.19-.69,1.18a23.93,23.93,0,0,1-2.94-.12,1.92,1.92,0,0,1-1.66-2.11C1066.11,155.35,1066.12,154.42,1066.12,153.49Z"/><path class="af0767f5-02f5-40f5-ba2e-77e17aa3a6d5" d="M1102.4,148.83a3,3,0,0,1,2.43-1.56c.68,0,1.71-.59,1.75.91,0,1.1-.1,1.68-1.46,1.63-2-.08-2.71.69-2.74,2.76,0,1.53-.08,3.07,0,4.59.07,1.06-.22,1.46-1.33,1.38-1-.06-1.66,0-1.61-1.33.11-2.83,0-5.68,0-8.52,0-.79-.11-1.57,1.12-1.45C1101.54,147.33,1102.83,146.87,1102.4,148.83Z"/><path class="e5dc53d2-f529-454c-9977-63e50d6712b6" d="M1018.34,133.62c-.54,0-1.09,0-1.63,0a1.51,1.51,0,0,1-1.57-1.56,1.49,1.49,0,0,1,1.54-1.58c1-.05,2.07,0,3.11,0a1.49,1.49,0,0,1,1.64,1.64,1.52,1.52,0,0,1-1.61,1.52C1019.33,133.65,1018.84,133.62,1018.34,133.62Z"/><path class="e5dc53d2-f529-454c-9977-63e50d6712b6" d="M1009.52,130.47c.54,0,1.09,0,1.63,0a1.49,1.49,0,0,1,1.51,1.59,1.42,1.42,0,0,1-1.4,1.52,21.82,21.82,0,0,1-3.43,0,1.43,1.43,0,0,1-1.42-1.65,1.46,1.46,0,0,1,1.47-1.46C1008.42,130.43,1009,130.47,1009.52,130.47Z"/><g class="b5d3b964-a69f-4b2a-8a34-31d70a81d9a4"><path class="af0767f5-02f5-40f5-ba2e-77e17aa3a6d5" d="M940.09,106.16a6.16,6.16,0,0,1,1.19,3.91,6.82,6.82,0,0,1-1.18,4.11,4.26,4.26,0,0,1-5.41,1.1,4.07,4.07,0,0,1-1.05-1.09v1.34H930.9V101.15h2.78v5.12a4.28,4.28,0,0,1,1.17-1.13,3.48,3.48,0,0,1,1.93-.49A4,4,0,0,1,940.09,106.16Zm-2.33,6.49a4,4,0,0,0,.6-2.29,5.25,5.25,0,0,0-.29-1.87,2.26,2.26,0,0,0-4.17,0,5.07,5.07,0,0,0-.29,1.89,3.94,3.94,0,0,0,.61,2.27,2.08,2.08,0,0,0,1.86.9A1.93,1.93,0,0,0,937.76,112.65Z"/><path class="af0767f5-02f5-40f5-ba2e-77e17aa3a6d5" d="M943.63,117.57l.36,0a5,5,0,0,0,.78,0,1.36,1.36,0,0,0,.62-.23,1.44,1.44,0,0,0,.46-.69A1.67,1.67,0,0,0,946,116l-3.91-11.12h3.09l2.33,7.85,2.19-7.85h3L949,115.35a14.72,14.72,0,0,1-1.67,3.76,3.19,3.19,0,0,1-2.46.72h-.6l-.68,0Z"/></g><g class="b5d3b964-a69f-4b2a-8a34-31d70a81d9a4"><path class="af0767f5-02f5-40f5-ba2e-77e17aa3a6d5" d="M956,74.61l4.78-25.29H968l-7.88,35.54h-7.38L947,61.08l-5.79,23.78h-7.37L926,49.32h7.3l4.81,25.24,5.86-25.24h6.2Z"/><path class="af0767f5-02f5-40f5-ba2e-77e17aa3a6d5" d="M981.94,85.35a12.93,12.93,0,0,1-9.46-3.56,12.65,12.65,0,0,1-3.65-9.5v-.68a16,16,0,0,1,1.53-7.12,11.31,11.31,0,0,1,4.36-4.83,12.26,12.26,0,0,1,6.43-1.7,11,11,0,0,1,8.54,3.42q3.1,3.42,3.11,9.69V74H976A6.53,6.53,0,0,0,978,78.1a6.25,6.25,0,0,0,4.36,1.56,7.6,7.6,0,0,0,6.37-3l3.47,3.88a10.5,10.5,0,0,1-4.3,3.5A14.08,14.08,0,0,1,981.94,85.35Zm-.81-21.7a4.41,4.41,0,0,0-3.41,1.42,7.43,7.43,0,0,0-1.67,4.07h9.82v-.56a5.29,5.29,0,0,0-1.27-3.64A4.56,4.56,0,0,0,981.13,63.65Z"/><path class="af0767f5-02f5-40f5-ba2e-77e17aa3a6d5" d="M1011.11,84.86a8,8,0,0,1-.71-2.36,8.54,8.54,0,0,1-6.66,2.85,9.4,9.4,0,0,1-6.43-2.24,7.22,7.22,0,0,1-2.56-5.67A7.45,7.45,0,0,1,997.87,71q3.11-2.25,9-2.27h3.25V67.21a4.35,4.35,0,0,0-.94-2.93,3.72,3.72,0,0,0-3-1.1,4.19,4.19,0,0,0-2.79.86,2.88,2.88,0,0,0-1,2.34h-7.06a7.08,7.08,0,0,1,1.42-4.25,9.3,9.3,0,0,1,4-3.06,14.58,14.58,0,0,1,5.81-1.11,11.54,11.54,0,0,1,7.75,2.45,8.61,8.61,0,0,1,2.87,6.9V78.76a12.74,12.74,0,0,0,1,5.69v.41Zm-5.83-4.9a6,6,0,0,0,2.88-.7,4.53,4.53,0,0,0,2-1.87V72.85h-2.64q-5.29,0-5.64,3.66l0,.42a2.81,2.81,0,0,0,.93,2.17A3.6,3.6,0,0,0,1005.28,80Z"/><path class="af0767f5-02f5-40f5-ba2e-77e17aa3a6d5" d="M1030.06,52v6.5h4.51v5.17h-4.51V76.81a3.14,3.14,0,0,0,.56,2.1,2.83,2.83,0,0,0,2.15.63,10.69,10.69,0,0,0,2.07-.17v5.35a14.57,14.57,0,0,1-4.27.63q-7.43,0-7.57-7.49V63.62h-3.86V58.45H1023V52Z"/><path class="af0767f5-02f5-40f5-ba2e-77e17aa3a6d5" d="M1044.39,61.33a8.79,8.79,0,0,1,7.06-3.37q8.58,0,8.71,10V84.86h-7.05V68.14a4.94,4.94,0,0,0-1-3.36,4.2,4.2,0,0,0-3.25-1.08,4.81,4.81,0,0,0-4.49,2.39V84.86h-7.06V47.36h7.06Z"/><path class="af0767f5-02f5-40f5-ba2e-77e17aa3a6d5" d="M1076.64,85.35a13,13,0,0,1-9.46-3.56,12.69,12.69,0,0,1-3.65-9.5v-.68a15.92,15.92,0,0,1,1.54-7.12,11.25,11.25,0,0,1,4.36-4.83,12.23,12.23,0,0,1,6.43-1.7,11,11,0,0,1,8.53,3.42q3.12,3.42,3.12,9.69V74h-16.83a6.54,6.54,0,0,0,2.07,4.15,6.25,6.25,0,0,0,4.36,1.56,7.62,7.62,0,0,0,6.37-3l3.46,3.88a10.47,10.47,0,0,1-4.29,3.5A14.09,14.09,0,0,1,1076.64,85.35Zm-.8-21.7a4.41,4.41,0,0,0-3.41,1.42,7.36,7.36,0,0,0-1.67,4.07h9.81v-.56a5.19,5.19,0,0,0-1.27-3.64A4.53,4.53,0,0,0,1075.84,63.65Z"/><path class="af0767f5-02f5-40f5-ba2e-77e17aa3a6d5" d="M1105.35,65.06a19,19,0,0,0-2.54-.19q-4,0-5.24,2.71V84.86h-7.06V58.45h6.66l.2,3.15a6.54,6.54,0,0,1,5.88-3.64,7.4,7.4,0,0,1,2.2.32Z"/><path class="af0767f5-02f5-40f5-ba2e-77e17aa3a6d5" d="M1119.64,69q-6-1.74-8.78-4.26a8.14,8.14,0,0,1-2.75-6.24,8.58,8.58,0,0,1,3.36-6.94,13.36,13.36,0,0,1,8.73-2.75,14.48,14.48,0,0,1,6.53,1.42,10.7,10.7,0,0,1,4.44,3.9,10,10,0,0,1,1.58,5.45H1128a6.51,6.51,0,0,0-2.06-5.09,8.33,8.33,0,0,0-5.78-1.85,8.53,8.53,0,0,0-5.41,1.53,5.1,5.1,0,0,0-1.94,4.24,4.6,4.6,0,0,0,1.84,3.69,18.1,18.1,0,0,0,6.28,2.75,28.73,28.73,0,0,1,6.93,2.75,10.48,10.48,0,0,1,3.71,3.5,8.88,8.88,0,0,1,1.21,4.71,8.29,8.29,0,0,1-3.37,6.92c-2.24,1.74-5.25,2.6-9,2.6a16.76,16.76,0,0,1-6.83-1.4,11.53,11.53,0,0,1-4.9-3.85,9.34,9.34,0,0,1-1.72-5.54h4.71a6.13,6.13,0,0,0,2.38,5.09,10,10,0,0,0,6.36,1.87,9.2,9.2,0,0,0,5.69-1.51,4.92,4.92,0,0,0,2-4.13,4.83,4.83,0,0,0-1.83-4A21.27,21.27,0,0,0,1119.64,69Z"/><path class="af0767f5-02f5-40f5-ba2e-77e17aa3a6d5" d="M1143.25,52.05v6.4h4.93v3.49h-4.93v16.4a3.68,3.68,0,0,0,.66,2.39,2.77,2.77,0,0,0,2.24.79,11.31,11.31,0,0,0,2.15-.29v3.64a13.3,13.3,0,0,1-3.47.48,5.61,5.61,0,0,1-4.56-1.83,7.83,7.83,0,0,1-1.54-5.2V61.94h-4.81V58.45h4.81v-6.4Z"/><path class="af0767f5-02f5-40f5-ba2e-77e17aa3a6d5" d="M1168.76,84.86a9.62,9.62,0,0,1-.64-2.78,10,10,0,0,1-7.51,3.27,9.29,9.29,0,0,1-6.41-2.21,7.14,7.14,0,0,1-2.51-5.6,7.47,7.47,0,0,1,3.14-6.41q3.14-2.28,8.83-2.28h4.39V66.77a5.1,5.1,0,0,0-1.41-3.77,5.74,5.74,0,0,0-4.18-1.4,6.54,6.54,0,0,0-4,1.22,3.6,3.6,0,0,0-1.64,2.95h-4.54a6.21,6.21,0,0,1,1.41-3.82,9.56,9.56,0,0,1,3.8-2.92,13,13,0,0,1,5.29-1.07,10.44,10.44,0,0,1,7.15,2.28,8.24,8.24,0,0,1,2.69,6.29V78.69a14.81,14.81,0,0,0,.93,5.78v.39Zm-7.5-3.44a7.86,7.86,0,0,0,4-1.1,6.63,6.63,0,0,0,2.76-2.85V72.05h-3.54q-8.29,0-8.3,4.86a4.11,4.11,0,0,0,1.42,3.32A5.45,5.45,0,0,0,1161.26,81.42Z"/><path class="af0767f5-02f5-40f5-ba2e-77e17aa3a6d5" d="M1184.78,52.05v6.4h4.93v3.49h-4.93v16.4a3.68,3.68,0,0,0,.66,2.39,2.79,2.79,0,0,0,2.24.79,11.31,11.31,0,0,0,2.15-.29v3.64a13.3,13.3,0,0,1-3.47.48,5.61,5.61,0,0,1-4.56-1.83,7.83,7.83,0,0,1-1.54-5.2V61.94h-4.81V58.45h4.81v-6.4Z"/><path class="af0767f5-02f5-40f5-ba2e-77e17aa3a6d5" d="M1194,51.44a2.67,2.67,0,0,1,.67-1.85,2.49,2.49,0,0,1,2-.76,2.54,2.54,0,0,1,2,.76,2.67,2.67,0,0,1,.68,1.85,2.43,2.43,0,0,1-2.68,2.56,2.55,2.55,0,0,1-2-.73A2.6,2.6,0,0,1,1194,51.44Zm4.88,33.42h-4.52V58.45h4.52Z"/><path class="af0767f5-02f5-40f5-ba2e-77e17aa3a6d5" d="M1203.92,71.41a15.69,15.69,0,0,1,1.52-7,11.48,11.48,0,0,1,4.25-4.79,11.62,11.62,0,0,1,6.22-1.68,11.14,11.14,0,0,1,8.72,3.74q3.34,3.73,3.34,9.93V72a15.8,15.8,0,0,1-1.48,6.92,11.26,11.26,0,0,1-4.22,4.77,11.7,11.7,0,0,1-6.31,1.71,11.11,11.11,0,0,1-8.71-3.73q-3.33-3.74-3.33-9.89Zm4.54.54a11.27,11.27,0,0,0,2,7,6.89,6.89,0,0,0,10.92,0q2-2.7,2-7.56a11.32,11.32,0,0,0-2.06-7,6.86,6.86,0,0,0-10.88,0Q1208.46,67,1208.46,72Z"/><path class="af0767f5-02f5-40f5-ba2e-77e17aa3a6d5" d="M1236.9,58.45l.15,3.32A9.62,9.62,0,0,1,1245,58q8.37,0,8.45,9.45V84.86h-4.52V67.38a6.07,6.07,0,0,0-1.31-4.22,5.22,5.22,0,0,0-4-1.37,6.5,6.5,0,0,0-3.85,1.17,8,8,0,0,0-2.59,3.08V84.86h-4.52V58.45Z"/></g></svg>