<svg id="b1bea9d9-e17e-4388-a3f2-8445c2fb24cd" data-name="Ebene 1" xmlns="http://www.w3.org/2000/svg" viewBox="0 0 1680 200"><defs><style>.a59ddb54-eb77-4b05-b750-de4012b856de{fill:none;stroke:#ccc;stroke-miterlimit:10;}.ac9311fd-23cf-4b93-9142-d88656e3dc4a{fill:#f9b213;}.ee50f1d0-e5ad-402c-a6ce-032b8f85c452{fill:#ccc;}.b65e7ae1-ce57-4ede-b40e-207fc76ea3b5{fill:#e60026;}</style></defs><title>HOOBS_x_roborock</title><g id="e60b3195-d7d3-4459-8989-cd086ffee0f1" data-name="Stroke"><line class="a59ddb54-eb77-4b05-b750-de4012b856de" x1="700.5" y1="60" x2="700.5" y2="140"/></g><path class="ac9311fd-23cf-4b93-9142-d88656e3dc4a" d="M154.17,41.5h-78A19.5,19.5,0,0,0,56.67,61v78a19.5,19.5,0,0,0,19.5,19.5h78a19.5,19.5,0,0,0,19.5-19.5V61A19.5,19.5,0,0,0,154.17,41.5Zm2,59.26a3.24,3.24,0,0,1-4.59,0,3.21,3.21,0,0,1-.95-2.09l-8.82-8.82V69.92a1.63,1.63,0,0,0-1.63-1.63h-3.25a1.63,1.63,0,0,0-1.62,1.63V83.6l-4.88-5.13-15-15a1.62,1.62,0,0,0-2.3,0L78.59,97.89a1.64,1.64,0,0,0,0,2.3l2.3,2.3a1.64,1.64,0,0,0,2.3,0l26.43-26.43a6.49,6.49,0,0,1,9.19,0l26.43,26.43a6.51,6.51,0,0,1,0,9.19l-2.3,2.3a6.49,6.49,0,0,1-9.19,0L115.36,95.59a1.64,1.64,0,0,0-2.3,0L94.68,114a1.62,1.62,0,0,0,0,2.3l2.3,2.29a1.61,1.61,0,0,0,2.29,0l10.35-10.34a6.49,6.49,0,0,1,9.19,0l10.34,10.34a6.51,6.51,0,0,1,0,9.2L118,138.89a3.21,3.21,0,0,1-1,2.09,3.25,3.25,0,1,1-2.5-5.54l11.12-11.12a1.62,1.62,0,0,0,0-2.3l-10.34-10.34a1.62,1.62,0,0,0-2.3,0L102.72,122a6.49,6.49,0,0,1-9.19,0l-2.3-2.3a6.49,6.49,0,0,1,0-9.19l18.39-18.38a6.49,6.49,0,0,1,9.19,0l18.38,18.38a1.64,1.64,0,0,0,2.3,0l2.3-2.3a1.64,1.64,0,0,0,0-2.3L115.36,79.51a1.62,1.62,0,0,0-2.3,0L86.63,105.93a6.49,6.49,0,0,1-9.19,0l-2.3-2.29a6.52,6.52,0,0,1,0-9.2L109.62,60a6.49,6.49,0,0,1,9.19,0l11.6,11.61V69.92a6.5,6.5,0,0,1,6.5-6.5h3.25a6.5,6.5,0,0,1,6.5,6.5V87.83l7.4,7.39a3.25,3.25,0,0,1,2.09,5.54Z"/><path class="ac9311fd-23cf-4b93-9142-d88656e3dc4a" d="M612.42,61H624.1v3.65h-3.71v11H616.1v-11h-3.68Zm13.09,0h4.72l3.34,7.78L637,61h4.72V75.62h-3.85V67.39l-2.77,6.81h-2.92l-2.77-6.81v8.23h-3.85Z"/><path class="ac9311fd-23cf-4b93-9142-d88656e3dc4a" d="M271.65,61v78H254.31V107h-34v32H202.92V61h17.35V91.75h34V61Zm10.65,39c0-22.41,16.77-39,39.65-39s39.64,16.48,39.64,39S344.72,139,322,139,282.3,122.41,282.3,100Zm62.09.39c0-14.19-9.63-23.9-22.44-23.9s-22.45,9.71-22.45,23.9,9.64,23.89,22.45,23.89S344.39,114.57,344.39,100.39ZM368.8,100c0-22.41,16.77-39,39.65-39s39.64,16.48,39.64,39-16.87,39-39.64,39S368.8,122.41,368.8,100Zm62.09.39c0-14.19-9.63-23.9-22.44-23.9S386,86.2,386,100.39s9.64,23.89,22.45,23.89S430.89,114.57,430.89,100.39Zm96.58,17.33c0,13.48-10.28,21.28-30,21.28H458.74V61h36.61c18.74,0,28.38,8.13,28.38,20.28a18.86,18.86,0,0,1-10,17.16C522.12,101.23,527.47,107.91,527.47,117.72ZM476.71,76.06V93.67h16.5c8.1,0,12.5-3,12.5-8.86s-4.4-8.75-12.5-8.75Zm32.59,39.47c0-6.29-4.61-9.28-13.22-9.28H476.71v18.46h19.37C504.69,124.71,509.3,121.93,509.3,115.53Zm23.38,14.74,5.69-13.14A41.52,41.52,0,0,0,562.28,125c9.94,0,14-3.44,14-8.08,0-14.11-42.13-4.41-42.13-32.42,0-12.82,9.94-23.49,30.53-23.49,9.11,0,18.43,2.26,25.16,6.68l-5.18,13.25A39.67,39.67,0,0,0,564.56,75c-9.94,0-13.77,3.87-13.77,8.61,0,13.9,42.13,4.31,42.13,32,0,12.61-10,23.38-30.74,23.38C550.69,139,539.1,135.44,532.68,130.27Z"/><g id="b9be09c5-9625-4de4-af5e-4ab077c118ac" data-name="roborock"><path class="ee50f1d0-e5ad-402c-a6ce-032b8f85c452" d="M931.64,137.13V64.47h32.12a47.21,47.21,0,0,1,14.85,2,16.37,16.37,0,0,1,8,6.82,20.2,20.2,0,0,1,3.23,10.85,17.85,17.85,0,0,1-5.25,13.23c-3.21,3.61-8.43,5.62-15.65,6.82a22.73,22.73,0,0,1,5.61,3.62,39,39,0,0,1,8,9.63l12.85,19.67h-12l-9.6-15.23c-2.81-4.42-5.22-7.63-6.82-10a18.12,18.12,0,0,0-4.82-4.82,14.9,14.9,0,0,0-4.41-2,18.31,18.31,0,0,0-5.22-.4H941.27v32.51Zm9.63-40.54h20.88a35,35,0,0,0,10.44-1.22A10.36,10.36,0,0,0,978.21,91a12.15,12.15,0,0,0,2-6.42,10.38,10.38,0,0,0-3.62-8.43c-2.41-2.41-6.42-3.21-12-3.21H941.67V96.59Z"/><path class="ee50f1d0-e5ad-402c-a6ce-032b8f85c452" d="M1000.69,110.64c0-9.64,2.81-16.86,8-21.68a23.77,23.77,0,0,1,16.45-6c7.24,0,13.26,2.41,17.67,7.23s6.82,11.23,6.82,19.66c0,6.83-1.2,12-3.21,16.07a21.72,21.72,0,0,1-8.83,9.23,27.8,27.8,0,0,1-12.85,3.21,24.53,24.53,0,0,1-18.06-7.23Q1000.7,124.5,1000.69,110.64Zm9.23,0c0,6.82,1.61,11.64,4.42,15.26a14.93,14.93,0,0,0,11.23,5.21,14.26,14.26,0,0,0,11.25-5.21c2.81-3.21,4.42-8.44,4.42-15.67,0-6.42-1.61-11.63-4.42-14.85a14.91,14.91,0,0,0-11.22-5.21,14.21,14.21,0,0,0-11.26,5.2C1011.13,99,1009.92,103.81,1009.92,110.64Z"/><path class="ee50f1d0-e5ad-402c-a6ce-032b8f85c452" d="M1068.94,137.13h-8.44V64.47h8.84v26.1a17.13,17.13,0,0,1,14.45-7.2,23.67,23.67,0,0,1,9.23,2,19.38,19.38,0,0,1,7.22,5.62,27.85,27.85,0,0,1,4.38,8.38,30.69,30.69,0,0,1,1.6,10.83c0,9.24-2.41,16.07-6.82,20.88a21.39,21.39,0,0,1-16,7.23c-6.42,0-11.24-2.41-14.85-7.63v6.42Zm-.4-26.9c0,6.43.8,10.85,2.41,13.66,2.8,4.41,6.82,6.82,11.23,6.82,4,0,7.23-1.6,10-5.22,2.81-3.21,4.41-8.43,4.41-15.26s-1.2-12-4-15.25a12.73,12.73,0,0,0-10-4.81c-4,0-7.22,1.6-10,5.21s-4,8.43-4,14.85Z"/><path class="ee50f1d0-e5ad-402c-a6ce-032b8f85c452" d="M1113.9,110.64c0-9.64,2.81-16.86,8-21.68a23.75,23.75,0,0,1,16.45-6c7.22,0,13.25,2.41,17.67,7.23s6.82,11.23,6.82,19.66c0,6.83-1.2,12-3.21,16.07a21.72,21.72,0,0,1-8.83,9.23,27.8,27.8,0,0,1-12.85,3.21,24.47,24.47,0,0,1-18.06-7.23C1116.31,126.7,1113.9,119.88,1113.9,110.64Zm9.23,0c0,6.82,1.6,11.64,4.41,15.26a15,15,0,0,0,11.24,5.21A14.26,14.26,0,0,0,1150,125.9c2.81-3.21,4.41-8.44,4.41-15.67,0-6.42-1.6-11.63-4.41-14.85a14.93,14.93,0,0,0-11.25-5.21,14.25,14.25,0,0,0-11.24,5.2C1124.33,99,1123.13,103.81,1123.13,110.64Z"/><path class="ee50f1d0-e5ad-402c-a6ce-032b8f85c452" d="M1173.71,137.13V84.55h8v8a23.58,23.58,0,0,1,5.63-7.22,9.21,9.21,0,0,1,5.62-1.6,16.51,16.51,0,0,1,9.23,2.8L1199,95a13.34,13.34,0,0,0-6.42-2,8.38,8.38,0,0,0-8.42,6.41,43.82,43.82,0,0,0-1.6,10.43v27.3Z"/><path class="ee50f1d0-e5ad-402c-a6ce-032b8f85c452" d="M1203.82,110.64c0-9.64,2.81-16.86,8-21.68a23.8,23.8,0,0,1,16.47-6c7.22,0,13.24,2.41,17.66,7.23s6.82,11.23,6.82,19.66c0,6.83-1.2,12-3.21,16.07a21.78,21.78,0,0,1-8.83,9.23,27.79,27.79,0,0,1-12.84,3.21,24.48,24.48,0,0,1-18.07-7.23C1206.23,126.7,1203.82,119.88,1203.82,110.64Zm9.23,0c0,6.82,1.6,11.64,4.41,15.26a15,15,0,0,0,11.25,5.21A14.26,14.26,0,0,0,1240,125.9c2.81-3.21,4.41-8.44,4.41-15.67,0-6.42-1.6-11.63-4.41-14.85a14.93,14.93,0,0,0-11.24-5.21,14.25,14.25,0,0,0-11.25,5.2C1214.25,99,1213.05,103.81,1213.05,110.64Z"/><path class="ee50f1d0-e5ad-402c-a6ce-032b8f85c452" d="M1298.15,117.86l8.83,1.21a22.62,22.62,0,0,1-7.22,14.05,21.9,21.9,0,0,1-14.45,5.22c-7.22,0-12.84-2.41-17.26-7.23s-6.43-11.64-6.43-20.47c0-5.62.8-10.84,2.81-14.85s4.83-7.63,8.44-9.64a27.42,27.42,0,0,1,12.44-3.21,22.56,22.56,0,0,1,14,4.42c3.61,2.81,6,6.82,6.82,12.44l-8.83,1.2a15.47,15.47,0,0,0-4.41-8,10.55,10.55,0,0,0-7.63-2.81A13.73,13.73,0,0,0,1274.42,95c-2.81,3.21-4.41,8.43-4.41,15.25,0,7.23,1.2,12.46,4,15.67a13.73,13.73,0,0,0,10.84,4.81,13.22,13.22,0,0,0,8.83-3.21C1296.15,125.49,1297.35,122.28,1298.15,117.86Z"/><path class="ee50f1d0-e5ad-402c-a6ce-032b8f85c452" d="M1314.62,137.13V64.47h8.83v41.75L1344.68,85h11.65l-20.08,19.67,22.08,33.32H1347.5L1330.23,111l-6.42,6v20.07Z"/><path class="b65e7ae1-ce57-4ede-b40e-207fc76ea3b5" d="M875.44,55.24H799.17c-.4-.4-.4-.8-.8-1.2,3.21-3.21,6.42-5.62,9.23-9.23,3.21-4,7.22-4.42,12-4.42h73.46c4,0,7.63.8,9.23,4.82s-.4,6.82-3.21,9.63c-30.1,28.91-59.81,57.8-89.52,86.71a21.85,21.85,0,0,1-3.61,2.81c.4.4.4.8.81.8h87.91c-10.84-11.24-22.08-22.88-32.92-34.93,3.21-3.21,6.83-6.42,10.44-10,6,5.62,12,11.64,18.46,18.07,9.24,9.23,18.88,18.46,28.11,27.69,2.81,2.81,4.81,5.62,3.21,9.63s-5.18,4.77-9.19,4.77H789.55c-4,0-8-.4-9.64-4.83s.8-7.22,3.61-10c29.71-28.9,59.82-57.8,89.53-86.71A23.16,23.16,0,0,0,876.26,56,.86.86,0,0,1,875.44,55.24Z"/></g></svg>