<svg id="a969454e-d295-4dd6-b545-9908f217f5a1" data-name="Ebene 1" xmlns="http://www.w3.org/2000/svg" xmlns:xlink="http://www.w3.org/1999/xlink" viewBox="0 0 1680 200"><defs><style>.bf581b01-8efb-42bb-a544-26d6dcc0e571,.eda30731-77e6-4c80-b4a0-0e6d514bb9a7{fill:none;}.a57bd93a-73ce-4793-b2ff-12f8527da845{isolation:isolate;}.ea3084a1-133d-4e1b-a72f-50c32c4a89de{fill:#ccc;}.bf581b01-8efb-42bb-a544-26d6dcc0e571{stroke:#ccc;stroke-miterlimit:10;}.a98e198c-09d5-4d29-8f3b-a9bf930b5574{fill:#f9b213;}.f10ee78c-e178-4867-b413-9abb76afa9b8{fill:#ffe500;}.bbbadd4f-ebf1-45b7-bde4-6c71582d915e{clip-path:url(#b5a0aaf4-6fe6-472d-ab8b-2ac1446aca01);}.a46a0597-9fb9-49d6-9b63-515942cee825{fill:#ffe600;}.be042ddd-9f63-4b99-a0e0-cf572dc9e0bf{fill:#ffe707;}.a8505b53-7155-4d10-a585-8d7d0da01b06{fill:#ffe71c;}.b5d90562-3c0f-43aa-a83f-e980ac1fa3e1{fill:#ffe829;}.a7d2f163-aa62-4039-a1b9-95d7c7754ca9{fill:#ffe833;}.f11f254f-ee15-4d9b-9dd1-1878ab66ba0c{fill:#ffe93c;}.b9100473-8697-4feb-a13e-5311eb130ff6{fill:#ffe944;}.b0161f28-b80d-492d-9ead-efa431125801{fill:#ffea4b;}.fd964325-2676-4e70-91c2-4af007b2fc5b{fill:#ffea52;}.bab1d320-ac18-44ec-ac2f-67501af8f2f1{fill:#ffeb58;}.a531628f-3663-45f4-8f7c-2e9de89859fd{fill:#ffeb5e;}.b2618159-eb1a-46d9-b18b-e4c1628f6aab{fill:#ffec64;}.a56f8082-faa7-4690-9043-3a17a809a770{fill:#ffec6a;}.b7e56aca-05d8-4227-b7a3-7534ad2ff0b0{fill:#ffed75;}.e11b89e7-0b5e-49ac-a05f-a7f278e78e2b{fill:#ffee7b;}.a6a02488-5ab1-45c2-83ef-67b1b20ff7d6{fill:#ffee80;}.b59b97dc-f7ff-411d-a1b5-96f7d5801249{fill:#ffef85;}.b023daa7-f84e-4b2a-b7c1-ae0d5d498b61{fill:#fff08a;}.a8a7445a-40f1-4700-893f-a92291cfa612{fill:#fff08f;}.b996b0e1-9288-496f-a718-d7a83b2c40ac{fill:#fff194;}.b41f5bb7-90ae-484c-b262-11e05be943ad{fill:#fff199;}.e603c81c-3901-4adb-8fb9-9de8b6f76231{fill:#fff29e;}.e93ae847-0566-4aca-8030-15d7dfd650a5{fill:#fff2a3;}.edaeb79c-9bd1-4162-bad7-4b8cf89ab510{fill:#fff3a8;}.a2d2f0af-a01b-414b-b098-9402838bf6b9{fill:#fff4ac;}.a46ebac3-745b-4b77-a200-f15031d61deb{fill:#fff4b1;}.b089a616-2027-48de-8873-f0bf0a0cb4b7{fill:#fff5b5;}.aea7d936-a3d0-4154-8f87-a53f69abceda{fill:#fff5b9;}.b7dc2fa7-f520-44a8-8d56-4c64dbe67fe2{fill:#fff6be;}.a5100a72-16fb-4af5-a464-1789b59a89f2{fill:#fff6c2;}.b18e96cc-8851-410d-8c64-c5441ea10687{fill:#fff7c6;}.e874a0e2-6952-43aa-97f2-269fdb853e0e{fill:#ffe400;}.f4c50ba8-4fb7-436a-8411-6e421fa9a474{fill:#ffe100;}.a163ab20-cda4-4a7e-9826-ac017a0d8a39{fill:#ffde00;}.af74f9d4-6f8d-4a99-b655-6271ab360188{fill:#ffda00;}.bfd561bf-3f9b-4863-a276-ddf5bd2fcd85{fill:#ffd800;}.a7afa877-daa7-4c78-bdfc-dd9d487db416{fill:gold;}.b5a94db9-e619-499c-967c-3f09e3cecfef{fill:#fed500;}.b65dfb43-cada-4b38-bf2d-a07b306bfbb1{fill:#fed400;}.f66c1e6e-754c-436e-a03b-984b1bfdefeb{fill:#fdd200;}.a6751c81-8466-4827-8432-9b466cda6c81{fill:#fdd000;}.e8e6a1ea-b191-45ec-886b-dde41bdd6f93{fill:#fcce00;}.f4b095be-62dc-4825-a8d4-0b4f34420cc9{fill:#fbcd00;}.b9ec31a5-9de5-48da-bfdb-2078fe326bc5{fill:#fbcb00;}.b4658dd5-5f8c-40b9-bf9c-7f00834038ad,.e71e1e19-199c-402f-86b8-debf813e16ce{fill-rule:evenodd;}.b4658dd5-5f8c-40b9-bf9c-7f00834038ad,.f868b8c4-512a-46ed-8a3e-7d565fabf7d5{fill:#e2001a;}</style><clipPath id="b5a0aaf4-6fe6-472d-ab8b-2ac1446aca01"><path class="eda30731-77e6-4c80-b4a0-0e6d514bb9a7" d="M847,41.73h0M905.94,96c-3.45-3.9-10.86-11.81-27.82-27.5C852.43,44.65,847.72,42.08,847,41.73c-.69.25-5.33,2.82-30.65,26.67-12.87,12.11-22,21.09-27.25,26.62-2.26,2.38-3.83,4.27-4,4.46.5.87,4.08,6,31.65,31.5,11.81,10.92,20.47,18.64,25.88,23,.75.62,4.33,3.32,4.33,3.32h.11c.38-.06,4.46-1.57,31.22-26.73,16.45-15.51,23.87-23.41,27.51-27.37l.12-7.28m-121,4.16a.71.71,0,0,0,.13-.44h0l-.13.44"/></clipPath></defs><title>HOOBS_x_fritzbox</title><g class="a57bd93a-73ce-4793-b2ff-12f8527da845"><path class="ea3084a1-133d-4e1b-a72f-50c32c4a89de" d="M1028.59,100.19h-23.87v25.12h-7.5V68.44h35.24v6.13h-27.74V94.06h23.87Z"/><path class="ea3084a1-133d-4e1b-a72f-50c32c4a89de" d="M1059.72,89.53a21.89,21.89,0,0,0-3.55-.27q-7.11,0-9.65,6v30h-7.23V83h7l.12,4.89a11.25,11.25,0,0,1,10.08-5.67,7.45,7.45,0,0,1,3.2.55Z"/><path class="ea3084a1-133d-4e1b-a72f-50c32c4a89de" d="M1066.4,71.83a4.31,4.31,0,0,1,1.07-3,4,4,0,0,1,3.19-1.22,4.09,4.09,0,0,1,3.2,1.22,4.24,4.24,0,0,1,1.1,3,4.11,4.11,0,0,1-1.1,2.93,4.18,4.18,0,0,1-3.2,1.18,4.13,4.13,0,0,1-3.19-1.18A4.18,4.18,0,0,1,1066.4,71.83Zm7.81,53.48H1067V83h7.22Z"/><path class="ea3084a1-133d-4e1b-a72f-50c32c4a89de" d="M1095.58,72.81V83h7.89v5.59h-7.89v26.25a5.89,5.89,0,0,0,1.05,3.81,4.46,4.46,0,0,0,3.6,1.27,17.78,17.78,0,0,0,3.44-.47v5.83a21.44,21.44,0,0,1-5.55.77c-3.23,0-5.66-1-7.31-2.93s-2.46-4.72-2.46-8.32V88.63h-7.69V83h7.69V72.81Z"/><path class="ea3084a1-133d-4e1b-a72f-50c32c4a89de" d="M1118.71,119.41h24.72v5.9h-33.55V120l23.32-31h-23V83h32v5.12Z"/><path class="ea3084a1-133d-4e1b-a72f-50c32c4a89de" d="M1151.17,125.31V68.44h19.92q10.35,0,15.7,4T1192.14,84a12.77,12.77,0,0,1-2.15,7.36,12.35,12.35,0,0,1-6,4.67,12,12,0,0,1,6.89,4.42,13,13,0,0,1,2.52,8.12q0,8.2-5.23,12.42t-14.92,4.3Zm11.71-33h8.68q8.87-.15,8.86-7.07c0-2.57-.75-4.43-2.24-5.56s-3.86-1.7-7.09-1.7h-8.21Zm0,8.28V115.9h10a9.68,9.68,0,0,0,6.47-2,6.75,6.75,0,0,0,2.32-5.45q0-7.8-8.08-7.93Z"/><path class="ea3084a1-133d-4e1b-a72f-50c32c4a89de" d="M1199.72,103.79a25.1,25.1,0,0,1,2.42-11.21,17.72,17.72,0,0,1,7-7.62,20.28,20.28,0,0,1,10.56-2.7q8.55,0,14,5.24t6,14.22l.08,2.89q0,9.72-5.43,15.6t-14.57,5.88q-9.13,0-14.59-5.86t-5.45-15.94Zm11.29.8c0,4,.75,7.09,2.27,9.21a8.14,8.14,0,0,0,12.89,0q2.3-3.15,2.3-10.07,0-5.91-2.3-9.16a7.51,7.51,0,0,0-6.49-3.24,7.36,7.36,0,0,0-6.4,3.22Q1211,97.83,1211,104.59Z"/><path class="ea3084a1-133d-4e1b-a72f-50c32c4a89de" d="M1262,95.66,1269.1,83h12.07l-12,20.71,12.54,21.56h-12.11L1262,112l-7.5,13.28h-12.15l12.54-21.56-12-20.71H1255Z"/><path class="ea3084a1-133d-4e1b-a72f-50c32c4a89de" d="M1316.17,103v22.27h-7.5V68.44h21q9.34,0,14.63,4.76a16.15,16.15,0,0,1,5.29,12.62q0,8.28-5.17,12.75T1329.56,103Zm0-6.13h13.47q6,0,9.22-2.83c2.14-1.9,3.2-4.63,3.2-8.2a10.69,10.69,0,0,0-3.2-8.14c-2.13-2-5.06-3.09-8.79-3.17h-13.9Z"/><path class="ea3084a1-133d-4e1b-a72f-50c32c4a89de" d="M1365.85,125.31h-7.22v-60h7.22Z"/><path class="ea3084a1-133d-4e1b-a72f-50c32c4a89de" d="M1403.51,125.31a15,15,0,0,1-1-4.45,16.12,16.12,0,0,1-12,5.23,15,15,0,0,1-10.25-3.53,11.45,11.45,0,0,1-4-9,11.94,11.94,0,0,1,5-10.25q5-3.66,14.13-3.65h7V96.37a8.13,8.13,0,0,0-2.27-6q-2.27-2.25-6.68-2.25a10.53,10.53,0,0,0-6.48,2,5.74,5.74,0,0,0-2.62,4.72h-7.27a10,10,0,0,1,2.25-6.11A15.38,15.38,0,0,1,1385.4,84a20.64,20.64,0,0,1,8.46-1.72q7.31,0,11.45,3.66t4.29,10v19.46a23.81,23.81,0,0,0,1.49,9.26v.62Zm-12-5.51A12.62,12.62,0,0,0,1398,118a10.67,10.67,0,0,0,4.42-4.57V104.8h-5.67q-13.28,0-13.28,7.78a6.59,6.59,0,0,0,2.27,5.31A8.68,8.68,0,0,0,1391.52,119.8Z"/><path class="ea3084a1-133d-4e1b-a72f-50c32c4a89de" d="M1430.74,72.81V83h7.89v5.59h-7.89v26.25a5.89,5.89,0,0,0,1,3.81,4.42,4.42,0,0,0,3.59,1.27,17.68,17.68,0,0,0,3.44-.47v5.83a21.36,21.36,0,0,1-5.54.77c-3.23,0-5.67-1-7.31-2.93s-2.46-4.72-2.46-8.32V88.63h-7.7V83h7.7V72.81Z"/><path class="ea3084a1-133d-4e1b-a72f-50c32c4a89de" d="M1450.62,125.31V88.63h-6.68V83h6.68V78.71q0-6.79,3.63-10.51t10.28-3.71a19.1,19.1,0,0,1,5,.66L1469.1,71a21.22,21.22,0,0,0-3.91-.35,7.07,7.07,0,0,0-5.43,2.06,8.33,8.33,0,0,0-1.91,5.9V83h9v5.59h-9v36.68Z"/><path class="ea3084a1-133d-4e1b-a72f-50c32c4a89de" d="M1472.92,103.79a24.91,24.91,0,0,1,2.45-11.17,18.18,18.18,0,0,1,6.79-7.66,18.5,18.5,0,0,1,9.94-2.7,17.85,17.85,0,0,1,14,6q5.33,6,5.33,15.9v.51a25.26,25.26,0,0,1-2.36,11.07,18,18,0,0,1-6.76,7.64,18.75,18.75,0,0,1-10.1,2.73,17.77,17.77,0,0,1-13.92-6q-5.34-6-5.34-15.83Zm7.27.86q0,7,3.26,11.29a11.06,11.06,0,0,0,17.48-.06q3.24-4.32,3.24-12.09,0-7-3.3-11.27a11,11,0,0,0-17.4-.06Q1480.19,96.72,1480.19,104.65Z"/><path class="ea3084a1-133d-4e1b-a72f-50c32c4a89de" d="M1540.89,89.53a21.89,21.89,0,0,0-3.55-.27q-7.11,0-9.65,6v30h-7.23V83h7l.12,4.89a11.25,11.25,0,0,1,10.08-5.67,7.42,7.42,0,0,1,3.2.55Z"/><path class="ea3084a1-133d-4e1b-a72f-50c32c4a89de" d="M1554.33,83l.2,4.69q4.63-5.46,12.53-5.47,8.88,0,12.07,6.8a16.08,16.08,0,0,1,5.49-4.92,16.25,16.25,0,0,1,8-1.88q13.91,0,14.14,14.73v28.32h-7.22V97.42c0-3-.7-5.28-2.07-6.78s-3.7-2.24-7-2.24a9.59,9.59,0,0,0-6.68,2.4,9.72,9.72,0,0,0-3.08,6.46v28.05h-7.27V97.62q0-9.23-9-9.22-7.11,0-9.73,6v30.86h-7.23V83Z"/></g><g id="eaa4551e-e912-43c9-85f5-d99dc9140865" data-name="Stroke"><line class="bf581b01-8efb-42bb-a544-26d6dcc0e571" x1="700.5" y1="60" x2="700.5" y2="140"/></g><path class="a98e198c-09d5-4d29-8f3b-a9bf930b5574" d="M154.17,41.5h-78A19.5,19.5,0,0,0,56.67,61v78a19.5,19.5,0,0,0,19.5,19.5h78a19.5,19.5,0,0,0,19.5-19.5V61A19.5,19.5,0,0,0,154.17,41.5Zm2,59.26a3.24,3.24,0,0,1-4.59,0,3.21,3.21,0,0,1-.95-2.09l-8.82-8.82V69.92a1.63,1.63,0,0,0-1.63-1.63h-3.25a1.63,1.63,0,0,0-1.62,1.63V83.6l-4.88-5.13-15-15a1.62,1.62,0,0,0-2.3,0L78.59,97.89a1.64,1.64,0,0,0,0,2.3l2.3,2.3a1.64,1.64,0,0,0,2.3,0l26.43-26.43a6.49,6.49,0,0,1,9.19,0l26.43,26.43a6.51,6.51,0,0,1,0,9.19l-2.3,2.3a6.49,6.49,0,0,1-9.19,0L115.36,95.59a1.64,1.64,0,0,0-2.3,0L94.68,114a1.62,1.62,0,0,0,0,2.3l2.3,2.29a1.61,1.61,0,0,0,2.29,0l10.35-10.34a6.49,6.49,0,0,1,9.19,0l10.34,10.34a6.51,6.51,0,0,1,0,9.2L118,138.89a3.21,3.21,0,0,1-1,2.09,3.25,3.25,0,1,1-2.5-5.54l11.12-11.12a1.62,1.62,0,0,0,0-2.3l-10.34-10.34a1.62,1.62,0,0,0-2.3,0L102.72,122a6.49,6.49,0,0,1-9.19,0l-2.3-2.3a6.49,6.49,0,0,1,0-9.19l18.39-18.38a6.49,6.49,0,0,1,9.19,0l18.38,18.38a1.64,1.64,0,0,0,2.3,0l2.3-2.3a1.64,1.64,0,0,0,0-2.3L115.36,79.51a1.62,1.62,0,0,0-2.3,0L86.63,105.93a6.49,6.49,0,0,1-9.19,0l-2.3-2.29a6.52,6.52,0,0,1,0-9.2L109.62,60a6.49,6.49,0,0,1,9.19,0l11.6,11.61V69.92a6.5,6.5,0,0,1,6.5-6.5h3.25a6.5,6.5,0,0,1,6.5,6.5V87.83l7.4,7.39a3.25,3.25,0,0,1,2.09,5.54Z"/><path class="a98e198c-09d5-4d29-8f3b-a9bf930b5574" d="M612.42,61H624.1v3.65h-3.71v11H616.1v-11h-3.68Zm13.09,0h4.72l3.34,7.78L637,61h4.72V75.62h-3.85V67.39l-2.77,6.81h-2.92l-2.77-6.81v8.23h-3.85Z"/><path class="a98e198c-09d5-4d29-8f3b-a9bf930b5574" d="M271.65,61v78H254.31V107h-34v32H202.92V61h17.35V91.75h34V61Zm10.65,39c0-22.41,16.77-39,39.65-39s39.64,16.48,39.64,39S344.72,139,322,139,282.3,122.41,282.3,100Zm62.09.39c0-14.19-9.63-23.9-22.44-23.9s-22.45,9.71-22.45,23.9,9.64,23.89,22.45,23.89S344.39,114.57,344.39,100.39ZM368.8,100c0-22.41,16.77-39,39.65-39s39.64,16.48,39.64,39-16.87,39-39.64,39S368.8,122.41,368.8,100Zm62.09.39c0-14.19-9.63-23.9-22.44-23.9S386,86.2,386,100.39s9.64,23.89,22.45,23.89S430.89,114.57,430.89,100.39Zm96.58,17.33c0,13.48-10.28,21.28-30,21.28H458.74V61h36.61c18.74,0,28.38,8.13,28.38,20.28a18.86,18.86,0,0,1-10,17.16C522.12,101.23,527.47,107.91,527.47,117.72ZM476.71,76.06V93.67h16.5c8.1,0,12.5-3,12.5-8.86s-4.4-8.75-12.5-8.75Zm32.59,39.47c0-6.29-4.61-9.28-13.22-9.28H476.71v18.46h19.37C504.69,124.71,509.3,121.93,509.3,115.53Zm23.38,14.74,5.69-13.14A41.52,41.52,0,0,0,562.28,125c9.94,0,14-3.44,14-8.08,0-14.11-42.13-4.41-42.13-32.42,0-12.82,9.94-23.49,30.53-23.49,9.11,0,18.43,2.26,25.16,6.68l-5.18,13.25A39.67,39.67,0,0,0,564.56,75c-9.94,0-13.77,3.87-13.77,8.61,0,13.9,42.13,4.31,42.13,32,0,12.61-10,23.38-30.74,23.38C550.69,139,539.1,135.44,532.68,130.27Z"/><g id="f416d7a1-1c54-44e6-bff4-e78cf0ad92c7" data-name="fritz"><path d="M901.23,104l6-10.79c-4.52-4.72-12-12-24.55-23.67-29.27-27.12-31-27-31.73-27s-2.13-.5-31.27,26.92C786.87,100.27,788,101.34,788,101.34s-1,1.69,32,32.13c29.58,27.37,30.15,26.62,31,26.62s2.59.44,31.79-27c15.76-14.81,23.61-22.72,27.45-26.92l-8.93-2.2"/><path d="M901.23,104l.32.13,6-11-.18-.18c-4.52-4.72-12-12-24.55-23.68-14.49-13.42-22.22-20.13-26.43-23.51a38.67,38.67,0,0,0-4.09-3,4,4,0,0,0-.88-.44,1.21,1.21,0,0,0-.5-.07h-.06a1.21,1.21,0,0,0-.5.07c-.76.25-2.32,1.19-6.78,5s-11.81,10.35-24.12,22C804.14,83.73,796.22,91.63,792.14,96c-2,2.13-3.14,3.45-3.71,4.2a6.59,6.59,0,0,0-.56.82.5.5,0,0,0-.13.37.24.24,0,0,0,.13.25l.25-.25-.44-.12a.22.22,0,0,0-.06.19,1.69,1.69,0,0,0,.12.44c.32.62,1.51,2.32,6,7s12.33,12.29,26,24.86c14,12.93,21.55,19.58,25.63,23a40.9,40.9,0,0,0,4,3.08,3.06,3.06,0,0,0,.88.45,2.15,2.15,0,0,0,.5.12h.19a2.62,2.62,0,0,0,.57-.06c.81-.25,2.46-1.2,7-5s12-10.42,24.37-22c15.76-14.81,23.61-22.72,27.45-27l.37-.38-9.38-2.2-.07.25.32.13-.32-.13-.06.32,8.86,2.13.06-.31-.25-.19c-3.84,4.2-11.62,12.11-27.44,26.92-14.14,13.24-21.8,20-26,23.41a30.34,30.34,0,0,1-4.21,3,2.2,2.2,0,0,1-.82.38.82.82,0,0,1-.38.06h-.19a.85.85,0,0,1-.31-.06,8.37,8.37,0,0,1-1.76-1.13c-3-2.2-10.17-8.35-28.51-25.35-15.51-14.31-23.56-22.28-27.64-26.68a51.68,51.68,0,0,1-3.7-4.27c-.25-.37-.44-.62-.5-.75v-.13h-.31l.25.12a.34.34,0,0,0,.06-.12h-.31l.25.12.12-.25-.19-.19-.18.19h.31c0-.06,0-.13-.13-.19l-.18.19h.12l.19.06v-.06h-.19l.19.06h0v-.06a7.64,7.64,0,0,1,1.19-1.57c2.4-2.9,9.52-10.49,30.29-29.91,14-13.24,21.67-20,25.81-23.34a35.07,35.07,0,0,1,4.08-3,3.73,3.73,0,0,1,.75-.37.71.71,0,0,1,.32-.07h.06a.64.64,0,0,1,.31.07,6.52,6.52,0,0,1,1.76,1c3,2.07,10.37,8.22,29.47,25.8,12.55,11.61,20,19,24.55,23.67l.25-.25-.32-.13-6.15,11.17.44.13.06-.38"/><path class="f10ee78c-e178-4867-b413-9abb76afa9b8" d="M901.23,104l5.09-9.29c-3.83-4.27-11.69-12.18-27.57-26.87-29.08-26.86-30.65-27-31.72-27s-2.07-.56-31.27,26.93c-32.71,30.83-31.59,31.84-31.59,31.84s-1,1.69,32,32.13c29.4,27.18,30.09,26.61,31,26.61s2.58.44,31.78-27c15-14.13,22.8-22,26.82-26.3L901.23,104"/><path d="M901.23,104l.44.25,5.09-9.29-.07-.56C902.87,90.09,895,82.18,879.12,67.5c-14.57-13.43-22.22-20.21-26.38-23.6a32.44,32.44,0,0,0-4.08-3,2.89,2.89,0,0,0-.94-.44,1.91,1.91,0,0,0-.63-.07H847a1.26,1.26,0,0,0-.63.13,7.62,7.62,0,0,0-2.13,1.21c-3.14,2.26-10.37,8.41-28.77,25.73C800.12,81.9,792.2,89.81,788.12,94.15a43.41,43.41,0,0,0-3.7,4.2,6,6,0,0,0-.57.82,1.43,1.43,0,0,0-.18.5.89.89,0,0,0,.12.38l.38-.44-.44-.25a.36.36,0,0,0-.06.25,1.46,1.46,0,0,0,.12.5,12.21,12.21,0,0,0,1.44,2c2.7,3.26,10.11,11.11,30.46,29.94,14.13,13,21.6,19.7,25.69,23.09,2.07,1.7,3.27,2.58,4,3.08a3.62,3.62,0,0,0,.88.44,2.66,2.66,0,0,0,.56.12H847a2.25,2.25,0,0,0,.63-.06,7.56,7.56,0,0,0,2.13-1.19c3.27-2.2,10.68-8.41,29.27-25.8,15-14.12,22.8-22,26.88-26.29l-.25-.82-4.46-1.07V104l.44.25-.44-.25-.12.44,4.46,1.07.12-.44-.38-.32c-4,4.34-11.81,12.18-26.82,26.3-14.13,13.24-21.78,20-26,23.41a35.74,35.74,0,0,1-4.14,3,5.07,5.07,0,0,1-.82.38.81.81,0,0,1-.31.06H847a.37.37,0,0,1-.25-.06,5,5,0,0,1-1.7-1.07c-2.88-2.13-10-8.22-28.57-25.35C801,117,793,109.13,788.89,104.73a38.8,38.8,0,0,1-3.64-4.26c-.25-.38-.44-.63-.5-.76s-.12-.12-.12-.12h0l-.25.06h.25v-.06l-.25.06h-.19l.37.19a.38.38,0,0,0,.07-.25h-.44l.37.25-.06-.63-.31.38h.44c0-.06,0-.25-.13-.32l-.31.32h.12l.32.06v-.06h-.32l.32.06h-.13l.13.06h-.13l.13.07a7.3,7.3,0,0,1,.88-1.26c2.19-2.7,9-10.11,30.58-30.39,14-13.18,21.54-19.89,25.69-23.34a33.38,33.38,0,0,1,4-3l.75-.38a.82.82,0,0,1,.38-.06H847a.82.82,0,0,1,.38.06,6.67,6.67,0,0,1,1.76,1c3,2.07,10.24,8.16,29.26,25.8C894.32,82.87,902.14,90.78,905.94,95l.38-.32-.44-.25-5.08,9.31.31.69.12-.44"/><g class="bbbadd4f-ebf1-45b7-bde4-6c71582d915e"><path class="f10ee78c-e178-4867-b413-9abb76afa9b8" d="M836.48,146.46l-3.14-3.72-3.25-3.68-2.2-2.26c-11.62-11.61-35.24-35.34-35.49-35.53-.06-.06-.13-.12-.13-.19h0c0-.06.07-.12.07-.18,1-1,24.12-23.24,36.68-33.9l19.46-15.76-.56-11.92L818.4,65.61C807.59,75.09,787,97.74,786.8,97.88a2.46,2.46,0,0,0-.81,1.89,2.42,2.42,0,0,0,.88,1.88l.12.13c3.58,3.38,21.73,20.71,31,29.56,3.14,3,4.27,4,5.4,4.89l5,4.14Z"/></g><g class="bbbadd4f-ebf1-45b7-bde4-6c71582d915e"><path class="f10ee78c-e178-4867-b413-9abb76afa9b8" d="M833.21,142.74h0c-.06-.07-.44-.51-3.26-3.64l-2.2-2.26-30.52-30.57-5-5-.12-.25.12-.25c2.45-2.38,24.5-23.54,36.69-33.9,0,0,19-15.31,19.34-15.63,0-.06-.57-11.3-.57-11.67-.25.25-29.27,26.11-29.27,26.11C807.65,75.15,787.06,97.74,786.87,98a2.35,2.35,0,0,0-.76,1.82,2.59,2.59,0,0,0,.82,1.82h0l.13.15c3.58,3.39,21.73,20.71,31,29.56,3.07,2.95,4.2,3.89,5.33,4.84l5.09,4.14s5.59,4.2,7.47,5.65Z"/></g><g class="bbbadd4f-ebf1-45b7-bde4-6c71582d915e"><path class="a46a0597-9fb9-49d6-9b63-515942cee825" d="M833.15,142.74h0s-.31-.32-3.26-3.64l-2.2-2.26-30.52-30.57-5-5L792,101h0a1.66,1.66,0,0,1,.12-.31c2.45-2.39,24.43-23.48,36.75-33.9,0,0,19-15.32,19.27-15.63,0-.06-.56-11-.56-11.42-.31.25-29.21,26-29.21,26-10.76,9.59-31.35,32.19-31.54,32.38a2.26,2.26,0,0,0-.76,1.76,2.14,2.14,0,0,0,.82,1.76l.13.15c6.47,6.15,22.48,21.4,31,29.56,3.07,2.95,4.2,3.89,5.33,4.84l5.09,4.14s5.9,4.45,6.85,5.14Z"/></g><g class="bbbadd4f-ebf1-45b7-bde4-6c71582d915e"><path class="a46a0597-9fb9-49d6-9b63-515942cee825" d="M833.09,142.82l.06.06c-.12-.06-.31-.37-3.33-3.7l-2.19-2.26-30.57-30.56-5-5-.19-.32h0a2.2,2.2,0,0,1,.19-.3c.25-.25,23.74-22.92,36.74-34l19.3-15.55c0-.06-.57-10.8-.57-11.17-.18.19-28.95,25.79-28.95,25.79C808,75.09,787.81,97.19,787,98a2.28,2.28,0,0,0-.16,3.23,1.21,1.21,0,0,0,.16.16l.13.12c6.46,6.15,22.41,21.34,31,29.56a60.27,60.27,0,0,0,5.33,4.77l5.1,4.15,6.21,4.7C834.09,144,833.09,142.82,833.09,142.82Z"/></g><g class="bbbadd4f-ebf1-45b7-bde4-6c71582d915e"><path class="a46a0597-9fb9-49d6-9b63-515942cee825" d="M833,142.88l.12.07c-.12-.07-.25-.25-3.14-3.52l-.19-.19L827.63,137l-30.57-30.56-5-5-.19-.31h0c0-.17.08-.34.13-.5s23.8-23,36.8-34c0,0,18.9-15.25,19.22-15.56,0-.07-.57-10.55-.57-10.92-.31.25-28.89,25.73-28.89,25.73-10.49,9.43-30.69,31.47-31.5,32.28a2.27,2.27,0,0,0-.7,1.61,2.08,2.08,0,0,0,.76,1.63l.12.12c6.47,6.15,22.42,21.34,31,29.56a61.85,61.85,0,0,0,5.34,4.77l5.09,4.15,5.53,4.2C833.65,143.64,833,142.88,833,142.88Z"/></g><g class="bbbadd4f-ebf1-45b7-bde4-6c71582d915e"><path class="be042ddd-9f63-4b99-a0e0-cf572dc9e0bf" d="M833,143h0c-.25-.25-.81-.94-3.07-3.46l-.19-.18-2.2-2.26-30.44-30.57-5-5-.19-.31h0c0-.07.12-.57.12-.57.13-.19,23.75-22.92,36.81-34,0,0,18.84-15.19,19.22-15.51,0-.06-.57-10.29-.57-10.73C847.14,40.6,818.69,66,818.69,66c-10.62,9.32-30.76,31.36-31.57,32.17a2,2,0,0,0-.69,1.57,2.23,2.23,0,0,0,.69,1.57l.12.13c6.47,6.15,22.36,21.27,31,29.56a63.56,63.56,0,0,0,5.34,4.77l5.09,4.14s4.08,3.14,4.9,3.7A6.76,6.76,0,0,1,833,143Z"/></g><g class="bbbadd4f-ebf1-45b7-bde4-6c71582d915e"><path class="a8505b53-7155-4d10-a585-8d7d0da01b06" d="M832.9,143h0l-3.26-3.64-2.14-2.26L797,106.54l-5-5-.19-.38h0a4.13,4.13,0,0,1,.13-.63c.13-.12,23.49-22.73,36.81-34.09,0,0,18.84-15.19,19.15-15.5,0-.06-.56-10-.56-10.48-.32.25-28.58,25.48-28.58,25.48-10.37,9.1-29.52,30.2-31.59,32.27a2,2,0,0,0-.69,1.51,2.07,2.07,0,0,0,.69,1.5l.13.13c6.4,6.09,22.29,21.21,31,29.56,3.07,3,4.2,3.89,5.27,4.77l5.09,4.14s3.39,2.57,4.27,3.2Z"/></g><g class="bbbadd4f-ebf1-45b7-bde4-6c71582d915e"><path class="b5d90562-3c0f-43aa-a83f-e980ac1fa3e1" d="M829.57,139.43l-2.13-2.26-30.53-30.56-5-5-.25-.38h0c0-.12.06-.69.06-.69s23.6-22.81,36.91-34.11c0,0,18.78-15.19,19.15-15.44,0-.06-.56-9.85-.56-10.23-.31.25-28.45,25.36-28.45,25.36-10.37,9.1-29.52,30.13-31.59,32.2a2,2,0,0,0-.06,2.82l.06.07.13.13c6.4,6.08,22.22,21.15,31,29.56a66.5,66.5,0,0,0,5.27,4.77l5.09,4.2s2.39,1.76,3.58,2.7C831.58,141.74,829.57,139.43,829.57,139.43Z"/></g><g class="bbbadd4f-ebf1-45b7-bde4-6c71582d915e"><path class="a7d2f163-aa62-4039-a1b9-95d7c7754ca9" d="M829.51,139.49l-2.13-2.25-30.54-30.57-5-5-.25-.37h0c0-.13.06-.76.06-.76s23.24-22.6,36.87-34.15c0,0,18.78-15.13,19.09-15.44,0-.06-.57-9.6-.57-10-.31.25-28.26,25.17-28.26,25.17-10.3,9-29.52,30.13-31.59,32.21a2,2,0,0,0-.63,1.38,1.76,1.76,0,0,0,.63,1.38l.13.12c6.34,6.09,22.16,21.09,31,29.56,3.07,2.95,4.2,3.89,5.27,4.77h-.12c.12,0,.62.44,4.71,3.77l.51.44,2.82,2.13A30.61,30.61,0,0,0,829.51,139.49Z"/></g><g class="bbbadd4f-ebf1-45b7-bde4-6c71582d915e"><path class="f11f254f-ee15-4d9b-9dd1-1878ab66ba0c" d="M829.45,139.49h0l-2.14-2.25-30.53-30.57-5-5-.25-.44h0c0-.12.07-.75.07-.75s23.24-22.67,36.87-34.22L847.6,50.87c0-.07-.57-9.36-.57-9.73-.31.25-28.14,25-28.14,25-10.3,9-29.51,30.13-31.58,32.21a1.65,1.65,0,0,0-.57,1.31,1.75,1.75,0,0,0,.57,1.32l.12.13c6.4,6.09,22.17,21.09,31,29.56a68.09,68.09,0,0,0,5.27,4.77h0c.32.19,1.2.88,4.6,3.7l.5.44,2.07,1.57C830.64,140.88,829.45,139.49,829.45,139.49Z"/></g><g class="bbbadd4f-ebf1-45b7-bde4-6c71582d915e"><path class="b9100473-8697-4feb-a13e-5311eb130ff6" d="M829.39,139.56h0l-2.14-2.2L796.72,106.8l-5-5-.31-.44v0l.06-.82c.06-.06,23-22.48,36.93-34.28,0,0,18.72-15.06,19-15.37,0-.07-.56-9.1-.56-9.48C846.59,41.64,819,66.3,819,66.3c-10.3,9-29.52,30.14-31.59,32.21a1.56,1.56,0,0,0-.56,1.26,1.73,1.73,0,0,0,.56,1.25l.13.13c6.4,6,22.16,21,31,29.5a58,58,0,0,0,5.27,4.77l5.09,4.14s.69.5,1.26.94Z"/></g><g class="bbbadd4f-ebf1-45b7-bde4-6c71582d915e"><path class="b0161f28-b80d-492d-9ead-efa431125801" d="M829.26,139.62h0l-2.13-2.2-30.54-30.56-5-5-.26-.44v-.08l.07-.82c.12-.31,23.68-23.11,37-34.34,0,0,18.65-15.06,19-15.38,0-.06-.56-8.85-.56-9.22-.34.25-27.85,24.79-27.85,24.79-10.3,9-29.52,30.13-31.59,32.2a1.74,1.74,0,0,0-.5,1.2,1.45,1.45,0,0,0,.5,1.13l.13.12c6.4,6.09,22.16,21.09,31,29.56a68.09,68.09,0,0,0,5.27,4.77l5.16,4.21a4.29,4.29,0,0,1,.5.37A2.42,2.42,0,0,0,829.26,139.62Z"/></g><g class="bbbadd4f-ebf1-45b7-bde4-6c71582d915e"><path class="fd964325-2676-4e70-91c2-4af007b2fc5b" d="M827.09,137.49l-30.53-30.57-5-5-.25-.5-.06-.19.06-.81c.13-.25,23.68-23.11,37-34.41,0,0,18.65-15,19-15.31,0-.06-.56-8.6-.56-9-.34.32-27.66,24.73-27.66,24.73-10.3,9-29.45,30.14-31.52,32.21a1.53,1.53,0,0,0-.5,1.1,1.32,1.32,0,0,0,.5,1l.12.13c6.34,6.08,22.17,21.08,31,29.56a70.13,70.13,0,0,0,5.28,4.77l4.65,3.83C827.94,138.43,827.09,137.49,827.09,137.49Z"/></g><g class="bbbadd4f-ebf1-45b7-bde4-6c71582d915e"><path class="bab1d320-ac18-44ec-ac2f-67501af8f2f1" d="M827,137.55,796.47,107l-5-5-.31-.51-.07-.18c0-.07.07-.82.07-.82.12-.31,23.68-23.17,37-34.47l19-15.31c0-.06-.57-8.35-.57-8.72-.31.25-27.5,24.54-27.5,24.54C809,75.47,789.75,96.63,787.68,98.74a1.31,1.31,0,0,0-.5,1,1.48,1.48,0,0,0,.44,1l.12.12c6.34,6,22.11,21,31,29.56a62.72,62.72,0,0,0,5.21,4.71s3.27,2.64,3.52,2.83A3.23,3.23,0,0,1,827,137.55Z"/></g><g class="bbbadd4f-ebf1-45b7-bde4-6c71582d915e"><path class="a531628f-3663-45f4-8f7c-2e9de89859fd" d="M796.41,107.05l-5-5-.32-.5-.06-.13v-.08l.06-.82c.13-.31,23.68-23.17,37-34.53l19-15.26c0-.06-.56-8.1-.56-8.47-.25.19-27.26,24.29-27.26,24.29-10.21,9-29.46,30.19-31.54,32.19a1.17,1.17,0,0,0-.43.94,1.14,1.14,0,0,0,.43,1l.13.12c6.34,6,22,21,31,29.56a62.88,62.88,0,0,0,5.25,4.68s1.2.94,2.21,1.76C823.6,134.22,813.62,124.24,796.41,107.05Z"/></g><g class="bbbadd4f-ebf1-45b7-bde4-6c71582d915e"><path class="b2618159-eb1a-46d9-b18b-e4c1628f6aab" d="M791.38,102.15l-.31-.5-.06-.19v-.12l.06-.88c.13-.32,23.68-23.23,37.12-34.59,0,0,18.53-14.94,18.9-15.26,0-.06-.56-7.84-.56-8.22-.31.25-27.2,24.23-27.2,24.23-10.24,9-29.45,30.13-31.52,32.21a1.31,1.31,0,0,0-.44.87,1.23,1.23,0,0,0,.37.88l.13.13c6.34,6,22.1,21,31,29.56A62.72,62.72,0,0,0,824,135l.75.62Z"/></g><g class="bbbadd4f-ebf1-45b7-bde4-6c71582d915e"><path class="b2618159-eb1a-46d9-b18b-e4c1628f6aab" d="M791.32,102.21h0l-.37-.5-.07-.25v-.12l.07-.88c.11-.32,23.68-23.23,37.14-34.66l18.84-15.19c0-.06-.57-7.59-.57-8-.31.25-27,24.1-27,24.1-10.18,8.92-29.46,30.14-31.53,32.21a1.19,1.19,0,0,0-.38.82,1,1,0,0,0,.38.81l.13.13c6.33,6,22.1,21,31,29.56,2.44,2.38,3.64,3.39,4.58,4.2Z"/></g><g class="bbbadd4f-ebf1-45b7-bde4-6c71582d915e"><path class="a56f8082-faa7-4690-9043-3a17a809a770" d="M791.26,102.28h0l-.38-.57-.06-.19v-.12l.06-.88c.18-.31,23.68-23.29,37.21-34.72,0,0,18.46-14.87,18.84-15.19,0-.06-.57-7.34-.57-7.72-.31.19-26.88,23.85-26.88,23.85C809.3,75.74,790,96.88,788,99a1,1,0,0,0-.37.75,1,1,0,0,0,.37.76l.13.12c5,4.71,21.72,20.71,31,29.56,1,1,1.82,1.76,2.45,2.33Z"/></g><g class="bbbadd4f-ebf1-45b7-bde4-6c71582d915e"><path class="a56f8082-faa7-4690-9043-3a17a809a770" d="M791.2,102.34h0l-.38-.56-.06-.26-.07-.18.07-.88c.06-.32,23.68-23.36,37.24-34.78,0,0,18.47-14.88,18.78-15.19,0-.06-.56-7.09-.56-7.47-.32.25-26.7,23.85-26.7,23.85C809.34,75.78,790.07,97,788,99.08a1,1,0,0,0-.32.69,1,1,0,0,0,.32.69l.12.12c4.39,4.21,18.34,17.45,27.82,26.55C808.53,119.66,791.2,102.34,791.2,102.34Z"/></g><g class="bbbadd4f-ebf1-45b7-bde4-6c71582d915e"><path class="b7e56aca-05d8-4227-b7a3-7534ad2ff0b0" d="M791.13,102.4h0l-.37-.56-.13-.25-.06-.19.06-.94c.06-.32,23.68-23.36,37.25-34.85,0,0,18.4-14.81,18.77-15.12,0-.06-.56-6.84-.56-7.22-.25.19-26.51,23.66-26.51,23.66C809.41,75.84,790.13,97,788.06,99.08a1,1,0,0,0-.32.62.88.88,0,0,0,.32.63l22.41,21.41Z"/></g><g class="bbbadd4f-ebf1-45b7-bde4-6c71582d915e"><path class="e11b89e7-0b5e-49ac-a05f-a7f278e78e2b" d="M791.06,102.47l-.06-.07-.32-.5-.12-.25-.06-.25.06-.94c.06-.32,23.68-23.42,37.31-34.91,0,0,18.4-14.81,18.71-15.12,0-.07-.56-6.66-.56-7C845.7,43.68,819.64,67,819.64,67,809.46,75.88,790.18,97,788.11,99.11a.88.88,0,0,0-.31.56.79.79,0,0,0,.25.57s11.24,10.73,17,16.13Z"/></g><g class="bbbadd4f-ebf1-45b7-bde4-6c71582d915e"><path class="a6a02488-5ab1-45c2-83ef-67b1b20ff7d6" d="M791.06,102.53l-.06-.06-.32-.51-.12-.25-.07-.25.07-.94c.06-.31,23.68-23.48,37.31-35,0,0,18.33-14.81,18.71-15.06,0-.06-.57-6.4-.57-6.78C845.7,43.86,819.76,67,819.76,67c-10.11,8.85-29.45,30.07-31.53,32.14a.64.64,0,0,0-.1.9l.1.1s7.41,7,11.44,10.92Z"/></g><g class="bbbadd4f-ebf1-45b7-bde4-6c71582d915e"><path class="b59b97dc-f7ff-411d-a1b5-96f7d5801249" d="M791,102.59l-.07-.12h0c-.06-.07-.12-.19-.37-.57l-.13-.31-.06-.25.06-1c.06-.31,23.74-23.48,37.37-35,0,0,18.34-14.75,18.65-15.06,0-.06-.56-6.15-.56-6.53-.31.25-26.13,23.29-26.13,23.29-10,8.91-29.39,30.13-31.46,32.2a.75.75,0,0,0-.25.44.67.67,0,0,0,.18.44s4.27,4,6,5.65Z"/></g><g class="bbbadd4f-ebf1-45b7-bde4-6c71582d915e"><path class="b023daa7-f84e-4b2a-b7c1-ae0d5d498b61" d="M790.44,102l-.12-.32-.06-.31h0l.06-1c.06-.31,23.74-23.54,37.37-35.09,0,0,18.27-14.75,18.65-15,0-.06-.56-5.9-.56-6.28-.32.26-25.94,23.16-25.94,23.16C809.72,76,790.38,97.27,788.31,99.34a.52.52,0,0,0-.19.37.58.58,0,0,0,.19.38s1.57,1.51,2.38,2.26C790.57,102.21,790.44,102,790.44,102Z"/></g><g class="bbbadd4f-ebf1-45b7-bde4-6c71582d915e"><path class="a8a7445a-40f1-4700-893f-a92291cfa612" d="M790.19,101.71l-.06-.25h0l.06-1c.07-.32,23.75-23.61,37.44-35.16,0,0,18.27-14.69,18.59-15,0-.06-.57-5.65-.57-6-.31.25-25.81,23-25.81,23-10,8.85-29.4,30.07-31.53,32.14a.51.51,0,0,0-.19.32c0,.12.06.18.13.31s1.38,1.32,1.94,1.82Z"/></g><g class="bbbadd4f-ebf1-45b7-bde4-6c71582d915e"><path class="b996b0e1-9288-496f-a718-d7a83b2c40ac" d="M790.06,101.46c0-.06.06-1.07.06-1.07.06-.31,23.74-23.6,37.44-35.21,0,0,18.21-14.69,18.58-15,0-.07-.56-5.4-.56-5.78-.32.25-25.63,22.85-25.63,22.85-10,8.78-29.39,30.07-31.53,32.14l-.12.31.12.25s1.45,1.39,1.7,1.57Z"/></g><g class="bbbadd4f-ebf1-45b7-bde4-6c71582d915e"><path class="b41f5bb7-90ae-484c-b262-11e05be943ad" d="M790,100.39c.07-.31,23.75-23.67,37.5-35.28.19-.12,17.9-14.43,18.53-14.93,0-.07-.07-1.26-.07-1.26s-.5-3.89-.5-4.27c-.31.25-25.5,22.72-25.5,22.72-7.78,6.84-21.35,21.36-27.9,28.37l-3.65,3.83h0a.94.94,0,0,1-.12.18l.06.19s1.07,1,1.51,1.45A3.45,3.45,0,0,0,790,100.39Z"/></g><g class="bbbadd4f-ebf1-45b7-bde4-6c71582d915e"><path class="e603c81c-3901-4adb-8fb9-9de8b6f76231" d="M789.94,100.39h0c.06-.31,23.75-23.73,37.5-35.34,0,0,18.15-14.62,18.52-14.94,0-.06-.06-1.25-.06-1.25s-.44-3.2-.5-4c-.3.23-25.32,22.57-25.32,22.57-7.84,6.85-21.34,21.3-27.82,28.31l-3.7,3.83v-.06l-.13.25.07.12h-.07a15,15,0,0,1,1.39,1.26C789.88,100.9,789.94,100.39,789.94,100.39Z"/></g><g class="bbbadd4f-ebf1-45b7-bde4-6c71582d915e"><path class="e93ae847-0566-4aca-8030-15d7dfd650a5" d="M789.82,100.39h0c.06-.31,23.8-23.79,37.56-35.47l18.46-14.87c0-.06-.06-1.19-.06-1.19s-.44-3.08-.51-3.83c-.31.25-25.18,22.47-25.18,22.47-7.79,6.84-21.35,21.34-27.83,28.24l-3.64,3.89h0v.11l.07.13-.07-.06a12.13,12.13,0,0,1,1.26,1.13A2.57,2.57,0,0,1,789.82,100.39Z"/></g><g class="bbbadd4f-ebf1-45b7-bde4-6c71582d915e"><path class="edaeb79c-9bd1-4162-bad7-4b8cf89ab510" d="M789.75,100.39h0c.07-.31,23.81-23.86,37.56-35.53l10-8.28L845.73,50c0-.07-.51-4-.51-4.77-.31.25-25,22.34-25,22.34-7.84,6.9-21.35,21.34-27.82,28.25h0a3.84,3.84,0,0,1-.57.57l-3.12,3.36.06.07c.12.12.44.37,1,.94Z"/></g><g class="bbbadd4f-ebf1-45b7-bde4-6c71582d915e"><path class="a2d2f0af-a01b-414b-b098-9402838bf6b9" d="M789.63,100.39v-.06c.06-.25,23.8-23.8,37.62-35.47h0a1.61,1.61,0,0,1,.32-.25L845.65,50c.07-.06-.5-4.21-.5-4.58-.32.25-24.87,22.21-24.87,22.21-7.79,6.84-21.35,21.28-27.83,28.26l-.5.56c-.06.06-2.82,3-3.08,3.26.26.28.53.56.82.82Z"/></g><g class="bbbadd4f-ebf1-45b7-bde4-6c71582d915e"><path class="a46ebac3-745b-4b77-a200-f15031d61deb" d="M820.34,67.73C812.49,74.57,799,89,792.51,95.92l-.5.5-3,3.2q.3.3.63.57c.06-.32,23.87-23.86,37.62-35.54l.32-.25s17.64-14.24,18.08-14.56c0-.06-.12-1.07-.12-1.07-.13-1.13-.32-2.76-.38-3.26C844.83,45.84,820.34,67.73,820.34,67.73Z"/></g><g class="bbbadd4f-ebf1-45b7-bde4-6c71582d915e"><path class="b089a616-2027-48de-8873-f0bf0a0cb4b7" d="M820.4,67.81c-7.78,6.84-21.29,21.28-27.82,28.25,0,0-3.14,3.33-3.52,3.71.16.15.32.3.5.44,1.57-1.7,24.25-24.18,37.53-35.48l.31-.26s17.52-14.12,18-14.56c0-.06-.12-1-.12-1s-.25-2.45-.32-3.08C844.77,46,820.4,67.81,820.4,67.81Z"/></g><g class="bbbadd4f-ebf1-45b7-bde4-6c71582d915e"><path class="aea7d936-a3d0-4154-8f87-a53f69abceda" d="M820.4,67.87c-7.78,6.86-21.33,21.28-27.76,28.19l-3.45,3.68a2.3,2.3,0,0,0,.37.32c2-2.07,24.38-24.3,37.5-35.41l.32-.25s17.89-14.44,18-14.5-.13-.94-.13-.94S845,46.7,845,46.07C844.65,46.22,820.4,67.87,820.4,67.87Z"/></g><g class="bbbadd4f-ebf1-45b7-bde4-6c71582d915e"><path class="b7dc2fa7-f520-44a8-8d56-4c64dbe67fe2" d="M820.46,67.94c-7.78,6.84-21.22,21.27-27.76,28.19,0,0-3.26,3.45-3.39,3.57.07.07.19.19.25.19,2.2-2.38,24.31-24.23,37.44-35.41l.31-.25,10-8.09s7.85-6.34,7.91-6.4a4.56,4.56,0,0,0-.12-1s-.25-2.44-.32-2.76C844.58,46.41,820.46,67.94,820.46,67.94Z"/></g><g class="bbbadd4f-ebf1-45b7-bde4-6c71582d915e"><path class="a5100a72-16fb-4af5-a464-1789b59a89f2" d="M820.53,68c-7.79,6.84-21.23,21.28-27.76,28.19L791.06,98l-1.62,1.73.06.07c2.45-2.64,24.37-24.24,37.38-35.35l.31-.25v.06c.06-.06.38-.31,1.76-1.44l16.2-13a4,4,0,0,0-.13-.88s-.25-2.33-.31-2.58C844.52,46.6,820.53,68,820.53,68Z"/></g><g class="bbbadd4f-ebf1-45b7-bde4-6c71582d915e"><path class="b18e96cc-8851-410d-8c64-c5441ea10687" d="M820.59,68.06c-7.78,6.84-21.22,21.28-27.76,28.19h0c0,.06-.13.13-.32.38,0,0-.56.63-1,1.07,6.29-6.29,24.12-23.74,35.37-33.28l.31-.25v.06c.06-.12.25-.31,1.76-1.5l16.14-13.06a3,3,0,0,0-.07-.81s-.25-2.2-.25-2.39C844.46,46.79,820.59,68.06,820.59,68.06Z"/></g><g class="bbbadd4f-ebf1-45b7-bde4-6c71582d915e"><path class="f10ee78c-e178-4867-b413-9abb76afa9b8" d="M857.59,53.44l3.13,3.76L864,60.84l2.19,2.33c11.62,11.61,35.24,35.34,35.49,35.57a.29.29,0,0,1,.13.19h0c0,.06-.06.12-.06.19-1,.94-24.12,23.22-36.69,33.89l-19.34,15.63.57,11.93,29.52-26.31c10.8-9.47,31.4-32.07,31.59-32.26a2.51,2.51,0,0,0,.81-1.88,2.58,2.58,0,0,0-.81-1.88l-.13-.13c-3.58-3.39-21.73-20.72-31-29.57-3.14-3-4.27-4-5.4-4.89l-5-4.15-8.28-6"/></g><g class="bbbadd4f-ebf1-45b7-bde4-6c71582d915e"><path class="f10ee78c-e178-4867-b413-9abb76afa9b8" d="M905.69,103.16l-8.22,8.78c2.82-2.88,5-5.14,6.53-6.84a9.71,9.71,0,0,1,.75-.81,13.09,13.09,0,0,1,.94-1v-.12m-46.91-48.6c.69.81,2.13,2.57,2.13,2.57l-.06-.06c.06.06.38.38,3.33,3.7L866.37,63,896.9,93.62l5,5,.13.26h0a2,2,0,0,1-.13.31c-2.51,2.38-24.43,23.47-36.74,33.89,0,0-19,15.31-19.28,15.63,0,.06.25,4.77.38,8.16l.18.19c-.18-3.21-.44-8.16-.44-8.23l19.22-15.56c12.94-11,36.56-33.77,36.75-34a2.27,2.27,0,0,0,.12-.5h0l-.19-.31-5-5L866.37,62.89l-2.07-2.26-.19-.19C861.23,57.17,861,57,861,56.92l.13.07s-.63-.76-1.07-1.32l5.53,4.2L870.65,64A60.27,60.27,0,0,1,876,68.79c8.11,7.84,23,22,30,28.69v-.25c-7-6.7-21.87-20.76-29.88-28.5-3.08-3-4.2-3.89-5.33-4.83l-5.11-4.17c-.12,0-6-4.45-6.9-5.14"/></g><g class="bbbadd4f-ebf1-45b7-bde4-6c71582d915e"><path class="e874a0e2-6952-43aa-97f2-269fdb853e0e" d="M905.69,102.84c-2.45,2.64-8,8.66-14.13,15,2.26-2.19,4.21-4.14,5.91-5.9l8.22-8.78v-.32M859.91,55.73c.5.56,1.06,1.32,1.06,1.32l-.12-.07c.12.07.25.25,3.14,3.52l.31.19L866.5,63,897,93.52l5,5,.17.22h0c0,.07-.12.5-.12.5-.19.19-23.81,23-36.75,34,0,0-18.9,15.25-19.21,15.56,0,.07.25,5,.44,8.23l.18.18c-.18-3.07-.43-8.28-.43-8.34.37-.32,19.15-15.51,19.15-15.51,13.28-11.31,36.74-33.91,36.74-34.1s.09-.42.12-.62h0l-.19-.38-5-5L866.62,62.73l-2.13-2.26-3.33-3.58h0l0-.06c.88.63,4.27,3.2,4.27,3.2l5.09,4.14a56.7,56.7,0,0,1,5.27,4.77c8.36,8,23.25,22.28,30.15,28.82v-.25c-7-6.67-21.85-20.85-30-28.69a63.56,63.56,0,0,0-5.34-4.77l-5.09-4.15c.06,0-3.89-3-5.52-4.2"/></g><g class="bbbadd4f-ebf1-45b7-bde4-6c71582d915e"><path class="e874a0e2-6952-43aa-97f2-269fdb853e0e" d="M869.12,139.12c-3.4,3-7.66,6.84-11.55,10.29,2.95-2.57,6.71-5.9,11.55-10.29m36.55-36.53c-2.95,3.14-11,11.86-18.84,19.83,1.7-1.63,3.27-3.13,4.71-4.58,6.1-6.34,11.68-12.36,14.13-15v-.25M861.11,56.83l.06.06h0l3.27,3.64,2.13,2.26,30.57,30.57,5,5,.19.38h0a4.7,4.7,0,0,1-.13.63c-.12.12-23.49,22.72-36.8,34.08,0,0-18.84,15.19-19.16,15.5,0,.06.32,5.27.44,8.35.06.06.19.12.19.18-.13-2.82-.44-8.34-.44-8.41l19.09-15.43c13.63-11.55,36.81-34.08,36.87-34.15a2.7,2.7,0,0,0,.06-.75h0l-.25-.38-5-5L866.62,62.79l-2.13-2.26s-1.38-1.51-2.13-2.38c.5.37,2.76,2.13,2.82,2.13l.5.44c4.09,3.33,4.59,3.76,4.72,3.76h-.13a56.82,56.82,0,0,1,5.28,4.77C884,77.48,899,91.73,905.75,98.13v-.25c-6.84-6.53-21.78-20.72-30.14-28.81a70.54,70.54,0,0,0-5.27-4.77l-5.1-4.15a38.71,38.71,0,0,0-4.13-3.32"/></g><g class="bbbadd4f-ebf1-45b7-bde4-6c71582d915e"><path class="f4c50ba8-4fb7-436a-8411-6e421fa9a474" d="M876.12,132.65a9.24,9.24,0,0,0-1.07,1s-13.56,12.11-21.85,19.45c1.19-1,2.64-2.2,4.4-3.64,3.89-3.51,8.22-7.34,11.55-10.29,2.14-1.95,4.46-4.14,7-6.47m29.64-30.37c-3.57,3.76-15.63,16.94-25,26,2.27-2.13,4.34-4.14,6.23-6,7.84-8,15.88-16.69,18.83-19.83v-.25M862.5,58.05c.75.82,2.13,2.39,2.13,2.39l2.06,2.29L897.22,93.3l5,5,.25.38h0c0,.12-.07.75-.07.75s-23.28,22.55-36.91,34.1c0,0-18.77,15.13-19.09,15.44,0,.06.32,5.59.44,8.41l.07.06H847c-.12-2.51-.5-8.28-.5-8.34.38-.32,19-15.38,19-15.38,13.94-11.86,36.93-34.2,36.93-34.27l.06-.81v-.07l-.25-.44-5-5L866.87,62.54l-2.13-2.26h0s-.44-.5-.88-.94c.57.44,1.26.94,1.26.94s4.84,4,5.09,4.14a68.09,68.09,0,0,1,5.27,4.77c8.55,8.22,23.62,22.6,30.34,29V98c-6.78-6.48-21.69-20.72-30.21-28.88a70.54,70.54,0,0,0-5.27-4.77h.12c-.12,0-.63-.44-4.72-3.77l-.5-.44c0,.06-2.32-1.63-2.82-2"/></g><g class="bbbadd4f-ebf1-45b7-bde4-6c71582d915e"><path class="a163ab20-cda4-4a7e-9826-ac017a0d8a39" d="M905.75,102c-4.14,4.33-21.28,23.09-30.83,31.44,0,0-16.58,14.75-24,21.46.69-.5,1.44-1.13,2.33-1.82,8.22-7.34,21.85-19.45,21.85-19.45.38-.32.69-.63,1.07-.94.69-.63,1.38-1.32,2.07-1.95.82-.82,1.63-1.57,2.45-2.32,9.42-9.16,21.48-22.28,25-26l.06-.37M863.86,59.34c.44.44.88.94.88.94h0l2.13,2.26,30.54,30.57,5,5,.26.44v.06l-.07.82c-.06.06-23,22.47-36.93,34.27,0,0-18.71,15.06-19,15.37,0,.07.38,5.84.5,8.35a.22.22,0,0,0,.19-.06c-.12-2.2-.5-8.16-.5-8.22.38-.32,19-15.32,19-15.32,13.32-11.29,36.94-34.14,37-34.39l.06-.82-.06-.18-.31-.44-5-5L867.05,62.41s-.88-.94-1.51-1.57l4.58,3.83c1.07.88,2.2,1.82,5.28,4.77,8.57,8.29,23.74,22.79,30.42,29.13v-.25c-6.72-6.41-21.85-20.78-30.34-29a56.7,56.7,0,0,0-5.27-4.77l-5.1-4.13a9.25,9.25,0,0,0-1.26-1.07"/></g><g class="bbbadd4f-ebf1-45b7-bde4-6c71582d915e"><path class="af74f9d4-6f8d-4a99-b655-6271ab360188" d="M905.75,101.74c-3.82,4.08-21.35,23.16-31,31.57,0,0-19.34,17.26-25.5,22.72.44-.31.94-.69,1.57-1.13,7.48-6.65,24-21.46,24-21.46,9.55-8.35,26.69-27.12,30.83-31.45v-.25m-40.28-40.9c.63.63,1.51,1.57,1.51,1.57L897.47,93l5,5,.31.44.06.18-.06.82c-.12.31-23.68,23.1-37,34.39,0,0-18.65,15-19,15.32,0,.06.38,6,.5,8.22.07,0,.13-.06.19-.13-.12-1.75-.5-8-.5-8L865.83,134c13.38-11.36,37-34.27,37-34.52l.06-.82v-.12l-.06-.13-.31-.5-5-5c-17.22-17.26-27.2-27.24-29.77-29.81,1,.82,2.19,1.76,2.19,1.76,1.07.88,2.2,1.82,5.21,4.71,8.74,8.41,24,23,30.59,29.25v-.25c-6.65-6.35-21.85-20.85-30.46-29.13a69.23,69.23,0,0,0-5.19-4.8l-4.72-3.77"/></g><g class="bbbadd4f-ebf1-45b7-bde4-6c71582d915e"><path class="bfd561bf-3f9b-4863-a276-ddf5bd2fcd85" d="M905.75,101.46c-3.51,3.7-21.41,23.22-31.08,31.76,0,0-22.62,20.21-26.51,23.6.31-.19.69-.44,1.13-.76,6.16-5.46,25.5-22.72,25.5-22.72,9.61-8.41,27.14-27.55,31-31.56v-.32M867.83,63c2.63,2.63,12.55,12.61,29.76,29.81l5,5,.32.5.06.13v.12l-.06.82c-.13.31-23.68,23.16-37,34.52L847,149.14c0,.06.44,6.21.5,8,.06,0,.12-.06.19-.12-.07-1.13-.57-7.79-.57-7.85L865.94,134c13.44-11.42,37-34.39,37.12-34.64l.06-.88v-.13l-.06-.19-.31-.5h0s-29.84-29.83-32.23-32.28a54.53,54.53,0,0,1,4.59,4.21C883.84,78,899.35,92.73,905.82,99v-.21C899.29,92.52,884,78,875.23,69.48A60.13,60.13,0,0,0,870,64.73c0,.06-1.19-1-2.19-1.76"/></g><g class="bbbadd4f-ebf1-45b7-bde4-6c71582d915e"><path class="a7afa877-daa7-4c78-bdfc-dd9d487db416" d="M870.52,65.43c2.39,2.38,32.16,32.31,32.16,32.31h0l.31.5.06.19v.12l-.06.88c-.12.31-23.68,23.22-37.12,34.64L847,149.26c0,.07.5,6.66.57,7.85.12-.06.31-.19.56-.32,3.83-3.45,26.51-23.59,26.51-23.59,9.67-8.48,27.57-28,31.08-31.7v-.25c-3.2,3.33-21.41,23.28-31.21,31.88,0,0-26.38,23.54-26.69,23.85,0-.37-.57-7.4-.57-7.47l18.83-15.22c13.45-11.49,37-34.55,37.13-34.77l.07-.88-.07-.19-.06-.25-.31-.5-.07-.07s-17.33-17.39-24.68-24.74c9.42,9,23.18,22.11,27.7,26.44v-.25c-6.53-6.22-22-20.91-30.71-29.39-2.45-2.44-3.64-3.45-4.59-4.26"/></g><g class="bbbadd4f-ebf1-45b7-bde4-6c71582d915e"><path class="b5a94db9-e619-499c-967c-3f09e3cecfef" d="M878.18,72.83c7.35,7.41,24.69,24.74,24.69,24.74l.06.06.31.5.07.26.06.18-.06.88c-.07.32-23.69,23.35-37.19,34.77,0,0-18.46,14.88-18.77,15.19,0,.06.56,7.09.56,7.47.31-.25,26.69-23.85,26.69-23.85,9.8-8.6,28.08-28.56,31.22-31.88v-.25c-2.7,2.76-21.42,23.28-31.34,32,0,0-26.13,23.29-26.38,23.54,0-.38-.57-6.9-.57-7l18.72-15.12c13.56-11.49,37.18-34.65,37.24-34.9l.07-.94-.07-.25-.12-.25-.32-.5-.06-.07s-8.36-8.35-13.94-14c5.33,5.08,15.57,14.88,16.83,16.08v-.26c-4.58-4.33-18.34-17.39-27.7-26.43"/></g><g class="bbbadd4f-ebf1-45b7-bde4-6c71582d915e"><path class="b65dfb43-cada-4b38-bf2d-a07b306bfbb1" d="M889.05,83.44c5.58,5.58,13.94,14,13.94,14l.06.07.32.5.12.25.07.25-.07.94c-.06.32-23.68,23.41-37.24,34.9,0,0-18.4,14.81-18.72,15.12,0,.07.57,6.66.57,7,.31-.25,26.38-23.54,26.38-23.54,9.92-8.72,28.64-29.24,31.34-32v-.25c-2.14,2.13-21.42,23.28-31.53,32.13,0,0-25.82,23-26,23.28,0-.37-.56-6.4-.56-6.52.38-.32,18.65-15.07,18.65-15.07,13.63-11.54,37.25-34.77,37.31-35l.06-.94-.06-.25-.13-.31c-.25-.32-.31-.51-.37-.57h0l-.07-.12-3.2-3.2,5.9,5.64v-.25c-1.19-1.13-11.43-10.93-16.7-16"/></g><g class="bbbadd4f-ebf1-45b7-bde4-6c71582d915e"><path class="f66c1e6e-754c-436e-a03b-984b1bfdefeb" d="M903.68,97.82h0m-3.76-3.76,3.2,3.2.06.12h0a5.65,5.65,0,0,1,.38.57l.12.31.07.25-.07.94c-.06.32-23.74,23.48-37.31,35,0,0-18.33,14.75-18.65,15.07,0,.06.57,6.15.57,6.52.31-.25,26-23.28,26-23.28,10.12-8.85,29.33-30,31.53-32.13v-.32a.3.3,0,0,1-.13.19c-2.07,2.07-21.47,23.35-31.52,32.13l-25.82,23c0-.38-.56-5.9-.56-6,.37-.31,18.58-15,18.58-15,13.73-11.58,37.36-34.89,37.48-35.11l.06-1h0l-.06-.31-.06-.13c.56.57,1.94,1.82,1.94,1.82s.07.13.13.13v-.29c-.25-.12-4.33-4-6-5.64"/></g><g class="bbbadd4f-ebf1-45b7-bde4-6c71582d915e"><path class="a6751c81-8466-4827-8432-9b466cda6c81" d="M848.54,155.25c0-.38-.44-4.27-.44-4.27s-.13-1.19-.13-1.26c.63-.5,18.34-14.81,18.53-14.93,13.69-11.61,37.37-35,37.5-35.27,0,0,.06-.69.06-.88.44.37,1.51,1.44,1.51,1.44h0l.06.19a.91.91,0,0,0-.13.19h0l-3.64,3.83c-6.52,7-20,21.4-27.82,28.3,0-.06-25.19,22.41-25.5,22.66m55.27-57.18.06.13.06.31h0l-.06,1c-.06.31-23.74,23.59-37.44,35.14,0,0-18.27,14.69-18.58,15,0,.06.56,5.65.56,6,.32-.25,25.82-23,25.82-23,10-8.85,29.39-30.06,31.52-32.13a.3.3,0,0,0,.13-.19V100a.13.13,0,0,0-.13-.13h0c-.06,0-1.38-1.32-1.94-1.82m-.13-.25h0"/></g><g class="bbbadd4f-ebf1-45b7-bde4-6c71582d915e"><path class="e8e6a1ea-b191-45ec-886b-dde41bdd6f93" d="M848.73,154.87c0-.81-.38-3.76-.38-3.76s-.13-1.2-.13-1.26L866.69,135c13.75-11.68,37.45-35.15,37.45-35.4V99a15,15,0,0,0,1.26,1.13l-.06-.06.06.13v.06h0c-3.51,3.7-3.64,3.89-3.64,3.89h0c-6.46,7-20,21.4-27.82,28.24-.07-.06-24.94,22.22-25.25,22.47M904,98.57c0,.19-.06.88-.06.88-.07.32-23.75,23.66-37.5,35.27-.19.13-17.9,14.44-18.53,14.94,0,.06.13,1.26.13,1.26s.37,3.89.44,4.27c.31-.26,25.5-22.72,25.5-22.72,7.79-6.85,21.36-21.34,27.82-28.31l3.64-3.83h0a1.27,1.27,0,0,1,.13-.19l-.06-.19h0c0,.07-1.07-1-1.51-1.38"/></g><g class="bbbadd4f-ebf1-45b7-bde4-6c71582d915e"><path class="f4b095be-62dc-4825-a8d4-0b4f34420cc9" d="M866.81,135c13.76-11.68,37.5-35.21,37.56-35.46v-.19a7.93,7.93,0,0,1,.82.82c-.32.31-3.08,3.26-3.08,3.26l-.5.5c-6.46,7-20,21.4-27.82,28.24,0,0-24.62,22-24.88,22.22,0-.37-.5-4.45-.5-4.58s18.09-14.62,18.09-14.62a.63.63,0,0,0,.31-.19h0m37.44-36v.57c-.07.25-23.81,23.72-37.5,35.4,0,0-18.09,14.56-18.46,14.87,0,.06.12,1.26.12,1.26s.38,3,.38,3.76c.31-.25,25.19-22.47,25.19-22.47,7.79-6.84,21.36-21.27,27.82-28.24h0s.13-.19,3.64-3.89h0v-.06l-.06-.13.06.06L904.25,99"/></g><g class="bbbadd4f-ebf1-45b7-bde4-6c71582d915e"><path class="b9ec31a5-9de5-48da-bfdb-2078fe326bc5" d="M904.37,99.39v.19c-.06.25-23.8,23.78-37.56,35.46h0a1.26,1.26,0,0,1-.31.25l-18.09,14.62c-.08.06.5,4.21.5,4.58.32-.25,24.88-22.21,24.88-22.21,7.79-6.84,21.28-21.28,27.82-28.25l.5-.5c.07-.06,2.83-3,3.08-3.26a4.29,4.29,0,0,0-.82-.88"/></g><rect class="f10ee78c-e178-4867-b413-9abb76afa9b8" x="789" y="81.22" width="8.22" height="7.97" transform="translate(171.12 584.62) rotate(-44.89)"/><rect class="f10ee78c-e178-4867-b413-9abb76afa9b8" x="896.59" y="80.18" width="1.63" height="6.34"/><polygon class="e71e1e19-199c-402f-86b8-debf813e16ce" points="854.76 78.67 854.76 115.71 843.83 115.71 843.77 85.38 848.48 84.26 847.09 78.73 854.76 78.67"/><path class="e71e1e19-199c-402f-86b8-debf813e16ce" d="M810.6,86.73c4.53-.19,11.12-.5,15.27,0,5.27.63,12.18,2,12.74,9.43.25,3.51-.94,6.52-5.9,10.48,0,0,5,5.46,9.61,10.67,0,0-5.72,5.39-8.86,8l-11.24-18.64c2.51-2,5.53-4.77,5.53-8.1a4.84,4.84,0,0,0-4.09-4.71h-2.32V125H810.6Z"/><polygon class="e71e1e19-199c-402f-86b8-debf813e16ce" points="867.5 124.75 867.5 95.5 856.96 95.5 856.96 86.07 889.11 86.07 889.11 95.5 878.62 95.5 878.62 124.75 867.5 124.75"/><path d="M806.46,77l-.07,9.35H795.06v8.67l10.5-.06v8.91H795.25v15H783.92V77.54C795.21,77,806.46,77,806.46,77Z"/><polygon class="e71e1e19-199c-402f-86b8-debf813e16ce" points="923.35 100.65 930.63 100.9 933.51 82.12 924.48 81.37 923.35 100.65"/><polygon points="920.07 104.79 925.79 100.14 931.82 107.68 926.11 112.26 921.52 106.55 920.07 104.79"/><polygon class="e71e1e19-199c-402f-86b8-debf813e16ce" points="852.24 113.57 839.43 113.57 839.37 81.56 843.89 80.43 842.45 74.65 852.24 74.65 852.24 113.57"/><path class="e71e1e19-199c-402f-86b8-debf813e16ce" d="M863.11,93.36l-9.48.26-1.08.12V82.06h34.11V93.74h-1.13l-9.36-.38v29.25h-13V93.36Z"/><path class="e71e1e19-199c-402f-86b8-debf813e16ce" d="M886,72.73h.38c3.7,0,14.45-.19,29,.63l1.63.12L901.67,102c3.14.06,7.22.12,12.63-.25l1.19-.07v11.55H883L898.22,84c-3.27,0-7.16,0-11.87.25l-.44.07V72.73Z"/><path d="M804,73.84V84.32H792.51v6.41l10.5-.06v10.92H792.7v15H779.51v-43l.88-.07c11.31-.5,23.24-.44,23.24-.44"/><path class="e71e1e19-199c-402f-86b8-debf813e16ce" d="M818.83,102.34c2.32-2,4.58-4.27,4.58-7a3.9,3.9,0,0,0-3.2-3.77h-1.38Zm3.7-19.61c5.16.62,12.94,2.07,13.57,10.3.25,3.7-1,6.84-5.46,10.67l9.61,11.23-.56.57a96.17,96.17,0,0,1-8.74,7.78l-.81.69-11.25-18.64v17.41H806.21v-40h.86A128.62,128.62,0,0,1,822.53,82.73Z"/><polygon class="e71e1e19-199c-402f-86b8-debf813e16ce" points="920.32 78.61 931.38 79.48 928.18 100.14 919.07 99.83 920.32 78.61"/><path d="M929.69,106.17,923.85,99l-7.23,5.84h-1.13v1.13c-5.14.25-9,.12-11.87.06L919,77.41c-14.57-.81-25.13-.62-32.79-.44v9.61c9.49-.51,13.57-.44,17.09-.51l-15.18,29.26h30v-8.79l4.39,5.47Z"/><polygon class="b4658dd5-5f8c-40b9-bf9c-7f00834038ad" points="851.3 75.59 851.3 112.57 840.38 112.57 840.32 82.31 845.02 81.18 843.64 75.59 851.3 75.59"/><path class="b4658dd5-5f8c-40b9-bf9c-7f00834038ad" d="M807.15,83.63c4.53-.19,11.12-.51,15.26,0,5.28.62,12.18,2,12.75,9.42.25,3.52-.94,6.53-5.9,10.48l9.67,11.3a103.17,103.17,0,0,1-8.6,7.72l-11.5-19.08c2.51-2,5.52-4.77,5.52-8.1a4.84,4.84,0,0,0-4.07-4.71H818V121.8h-10.8Z"/><polygon class="b4658dd5-5f8c-40b9-bf9c-7f00834038ad" points="864.05 121.67 864.05 92.42 853.5 92.67 853.5 83 885.66 83 885.66 92.67 875.17 92.42 875.17 121.67 864.05 121.67"/><path class="b4658dd5-5f8c-40b9-bf9c-7f00834038ad" d="M886.73,83.31V73.73c3.7,0,14.25-.19,28.82.63L900.14,102.9c3.32.07,8,.19,14.44-.25v9.61h-30L899.76,83C896.28,83.06,892.19,83.06,886.73,83.31Z"/><polygon class="f868b8c4-512a-46ed-8a3e-7d565fabf7d5" points="803.01 79.8 803.01 83.25 791.57 83.25 791.57 91.92 802.06 91.86 802.06 100.77 791.7 100.77 791.7 115.77 780.45 115.77 780.45 74.46 803.01 74.02 803.01 79.8"/><polygon class="b4658dd5-5f8c-40b9-bf9c-7f00834038ad" points="920.07 98.89 927.36 99.14 930.25 80.36 921.2 79.61 920.07 98.89"/><rect class="f868b8c4-512a-46ed-8a3e-7d565fabf7d5" x="919.51" y="101.92" width="7.34" height="7.34" transform="translate(139.23 604.43) rotate(-38.99)"/></g></svg>