<svg id="b076ffe0-fc51-4043-b481-6befbe4a1c1c" data-name="Ebene 1" xmlns="http://www.w3.org/2000/svg" xmlns:xlink="http://www.w3.org/1999/xlink" viewBox="0 0 1680 200"><defs><style>.b0631aa4-6562-4e98-a6c6-3abcb2e326ee,.be614f69-42dd-43c8-b6e5-87e035ee2593{fill:none;}.b0631aa4-6562-4e98-a6c6-3abcb2e326ee{stroke:#ccc;stroke-miterlimit:10;}.b2e7ce44-b023-40ac-987c-339d641a5c90{fill:#3f3b3c;}.b2e7ce44-b023-40ac-987c-339d641a5c90,.b5cb56b9-7c25-40b6-9c68-3fda5859bbbc{fill-rule:evenodd;}.b601de97-132a-4b64-bb43-186458d26871{fill:#ccc;}.a5805550-560e-40cb-bceb-e8d80d849629{clip-path:url(#b465f094-e091-4f33-9911-75e05c3495c6);}.bb0c57b9-3d5d-4a11-8e69-184bc28b641a{clip-path:url(#b0c83bf2-358c-44b6-b981-16d6916d53db);}.f7bb8319-085e-42e1-bbfe-9d078acfddd1{clip-path:url(#ab3f0165-e1a4-4ee7-9068-db583e86f5bf);}.a5717ae0-b555-4aed-a3b8-40b93935624a{clip-path:url(#e631db91-8683-4eee-aab3-4b280062750b);}.b69e4cdc-db31-434d-ae5f-f90763b87f67{clip-path:url(#b96cd01f-1c35-4418-95b6-c4eb38782672);}.baff4a4c-084f-4751-974c-eb0ea282726f{clip-path:url(#bd2c94ab-fb65-467f-953a-246a70fa4335);}.bff2f0d9-073b-487e-acff-128c0983daa1{clip-path:url(#f4a00fd6-ffa4-4877-b156-87226670f8d4);}.b5cb56b9-7c25-40b6-9c68-3fda5859bbbc,.bf1ada46-5f94-4cc3-824e-b292eff203eb{fill:#5fcaf4;}.e85a3181-b22a-4b1f-898b-f839097019c2{clip-path:url(#efa00e6d-b5e2-4d98-8e8d-2f47ff6c8a99);}.e712cd94-271e-4a46-a6d1-ba1801f5fc33{fill:#f9b213;}</style><clipPath id="b465f094-e091-4f33-9911-75e05c3495c6"><path class="be614f69-42dd-43c8-b6e5-87e035ee2593" d="M973.55,105.63q-16.11,0-16.09,12.42,0,10.8,11.39,10.82a29.13,29.13,0,0,0,9.42-1.74,46.59,46.59,0,0,0,10.23-5V107.69a58.53,58.53,0,0,0-15-2.06M975.17,74Q995,74,995.05,91.13v40.72a1.53,1.53,0,0,1-1.29,1.72,1.55,1.55,0,0,1-.43,0h-2.42a1.63,1.63,0,0,1-1.83-1.42c0-.1,0-.2,0-.3l-.45-4.94q-9.92,8-20.69,8-8,0-12.6-4.55a16.14,16.14,0,0,1-4.66-12.13,16.44,16.44,0,0,1,5.7-13.23q5.68-4.81,15.69-4.83a51.14,51.14,0,0,1,8,.7,59,59,0,0,1,8.39,1.94V93.09q0-7-3.34-10.06t-11-3.06A54.05,54.05,0,0,0,959,82.28a21,21,0,0,0-2,.63,3.46,3.46,0,0,1-1.22.29c-.92,0-1.33-.51-1.33-1.51V79.85A2.22,2.22,0,0,1,956,77.56a50.56,50.56,0,0,1,9.34-2.67,54,54,0,0,1,9.84-.93"/></clipPath><clipPath id="b0c83bf2-358c-44b6-b981-16d6916d53db"><path class="be614f69-42dd-43c8-b6e5-87e035ee2593" d="M1076.91,74q8,0,12.08,4.44t4.14,13v40.37a1.53,1.53,0,0,1-1.29,1.72,1.55,1.55,0,0,1-.43,0h-3.11a1.52,1.52,0,0,1-1.73-1.3,1.48,1.48,0,0,1,0-.42V94.24q0-7.6-2.59-10.93c-1.73-2.23-4.53-3.34-8.44-3.34a34.2,34.2,0,0,0-20.81,7.26,45.27,45.27,0,0,1,.34,5.33v39.23a1.51,1.51,0,0,1-1.29,1.72,1.62,1.62,0,0,1-.44,0h-3.09a1.54,1.54,0,0,1-1.74-1.28,1.62,1.62,0,0,1,0-.44V94.24q0-7.6-2.58-10.93T1037.47,80A34.66,34.66,0,0,0,1017,87v44.86a1.53,1.53,0,0,1-1.32,1.72,1.41,1.41,0,0,1-.41,0h-3.11a1.52,1.52,0,0,1-1.72-1.29,1.55,1.55,0,0,1,0-.43V77.44a1.52,1.52,0,0,1,1.29-1.72,1.55,1.55,0,0,1,.43,0h2.31a1.76,1.76,0,0,1,1.93,1.56.92.92,0,0,1,0,.16l.47,4.6a45.75,45.75,0,0,1,10.8-5.92A31.55,31.55,0,0,1,1038.86,74q10.8,0,14.48,8.86a42,42,0,0,1,11.56-6.66,34.2,34.2,0,0,1,12-2.26"/></clipPath><clipPath id="ab3f0165-e1a4-4ee7-9068-db583e86f5bf"><path class="be614f69-42dd-43c8-b6e5-87e035ee2593" d="M1127.73,105.63q-16.08,0-16.1,12.42,0,10.8,11.39,10.82a29.19,29.19,0,0,0,9.43-1.74,46.08,46.08,0,0,0,10.22-5V107.69a58.45,58.45,0,0,0-14.94-2.06M1129.34,74q19.89,0,19.89,17.14v40.72a1.52,1.52,0,0,1-1.29,1.72,1.55,1.55,0,0,1-.43,0h-2.41a1.62,1.62,0,0,1-1.83-1.39,1.82,1.82,0,0,1,0-.33l-.47-4.94q-9.87,8-20.69,8-8,0-12.59-4.55a16.13,16.13,0,0,1-4.66-12.13,16.44,16.44,0,0,1,5.69-13.23q5.68-4.81,15.69-4.83a51,51,0,0,1,8,.7,58.66,58.66,0,0,1,8.39,1.94V93.09q0-7-3.33-10.06c-2.23-2-5.9-3.06-11-3.06a54.49,54.49,0,0,0-15.06,2.31c-.84.23-1.52.44-2,.63a3.4,3.4,0,0,1-1.21.29c-.92,0-1.34-.51-1.34-1.51V79.85a2.23,2.23,0,0,1,1.5-2.29,50.24,50.24,0,0,1,9.33-2.67,54,54,0,0,1,9.83-.93"/></clipPath><clipPath id="e631db91-8683-4eee-aab3-4b280062750b"><path class="be614f69-42dd-43c8-b6e5-87e035ee2593" d="M1204.19,129.55v2.3a1.52,1.52,0,0,1-1.29,1.73,1.31,1.31,0,0,1-.44,0h-40.52a1.51,1.51,0,0,1-1.72-1.29,1.55,1.55,0,0,1,0-.43v-2.41a4.79,4.79,0,0,1,.28-1.84,5.87,5.87,0,0,1,1.09-1.61l35-44.52h-33.47a1.52,1.52,0,0,1-1.72-1.29,1.55,1.55,0,0,1,0-.43V77.44a1.52,1.52,0,0,1,1.29-1.72,1.55,1.55,0,0,1,.43,0h39.09A1.52,1.52,0,0,1,1204,77a1.55,1.55,0,0,1,0,.43v2.41a5.16,5.16,0,0,1-.28,1.74,6.25,6.25,0,0,1-1.21,1.84l-35.07,44.4h35.07a1.51,1.51,0,0,1,1.73,1.27,1.7,1.7,0,0,1,0,.45"/></clipPath><clipPath id="b96cd01f-1c35-4418-95b6-c4eb38782672"><path class="be614f69-42dd-43c8-b6e5-87e035ee2593" d="M1237.94,129.32q19.88,0,19.89-24.73T1237.94,80q-19.9,0-19.89,24.62t19.89,24.73m0,6q-12.54,0-19.61-8t-7.07-22.67q0-14.67,7.07-22.67t19.61-8q12.52,0,19.6,8t7.07,22.67q0,14.74-7.07,22.67t-19.6,8"/></clipPath><clipPath id="bd2c94ab-fb65-467f-953a-246a70fa4335"><path class="be614f69-42dd-43c8-b6e5-87e035ee2593" d="M1307.66,74q8.5,0,12.88,4.44t4.37,13v40.37a1.53,1.53,0,0,1-1.32,1.72,1.41,1.41,0,0,1-.41,0h-3.11a1.51,1.51,0,0,1-1.72-1.29,1.55,1.55,0,0,1,0-.43V94.24q0-7.6-2.88-10.93T1306.29,80a35.87,35.87,0,0,0-11.62,1.9,46.72,46.72,0,0,0-10.81,5.46v44.52a1.52,1.52,0,0,1-1.29,1.72,1.55,1.55,0,0,1-.43,0H1279a1.51,1.51,0,0,1-1.72-1.29,1.55,1.55,0,0,1,0-.43V77.44a1.52,1.52,0,0,1,1.29-1.72,1.55,1.55,0,0,1,.43,0h2.31a1.77,1.77,0,0,1,1.94,1.56.81.81,0,0,0,0,.16l.46,5a46.27,46.27,0,0,1,11.72-6.22A36.71,36.71,0,0,1,1307.66,74"/></clipPath><clipPath id="f4a00fd6-ffa4-4877-b156-87226670f8d4"><path class="be614f69-42dd-43c8-b6e5-87e035ee2593" d="M1579.35,105.63q-16.1,0-16.09,12.42,0,10.8,11.39,10.82a29.13,29.13,0,0,0,9.42-1.74,46.59,46.59,0,0,0,10.23-5V107.69A58.53,58.53,0,0,0,1579.35,105.63ZM1581,74q19.88,0,19.89,17.14v40.72a1.53,1.53,0,0,1-1.32,1.72,1.41,1.41,0,0,1-.41,0h-2.42a1.63,1.63,0,0,1-1.83-1.42c0-.1,0-.2,0-.3l-.45-4.94q-9.9,8-20.69,8-8,0-12.6-4.55a16.2,16.2,0,0,1-4.66-12.13,16.48,16.48,0,0,1,5.7-13.23q5.68-4.81,15.69-4.83a51.14,51.14,0,0,1,8,.7,59,59,0,0,1,8.39,1.94V93.09q0-7-3.34-10.06t-11-3.06a54.05,54.05,0,0,0-15,2.31,21,21,0,0,0-2,.63,3.46,3.46,0,0,1-1.22.29c-.92,0-1.33-.51-1.33-1.51V79.85a2.22,2.22,0,0,1,1.49-2.29,50.56,50.56,0,0,1,9.34-2.67,53,53,0,0,1,9.82-.93ZM1525.13,108l-16.68,24.27a2.86,2.86,0,0,1-2.42,1.33h-3.21c-1,0-1.49-.41-1.49-1.33a3.14,3.14,0,0,1,.8-1.5l19.66-27.32-17.94-25.08a3.37,3.37,0,0,1-.68-1.33c0-.85.49-1.33,1.49-1.33h3.56a2.82,2.82,0,0,1,2.41,1.33l15.07,21.33,15-21.33a2.74,2.74,0,0,1,2.31-1.33h3.11c1,0,1.49.41,1.49,1.33a3.29,3.29,0,0,1-.69,1.49l-17.71,24.51,19.67,27.83a3.5,3.5,0,0,1,.68,1.49c0,.85-.5,1.33-1.5,1.33h-3.5a2.67,2.67,0,0,1-2.3-1.33ZM1472,79.85q-8.61,0-13.61,5.07t-6,14.84a70.61,70.61,0,0,0,8.9,1.72,68.12,68.12,0,0,0,8.91.57q8.64,0,12.65-2.52a8.8,8.8,0,0,0,4-8q0-11.61-14.84-11.62Zm14.67,47.51a21.41,21.41,0,0,0,2.17-.75,3.45,3.45,0,0,1,1.27-.28c.92,0,1.33.5,1.33,1.5v1.61a2.36,2.36,0,0,1-1.33,2.41,45.4,45.4,0,0,1-17.59,3.46q-13.21,0-20.19-7.66t-6.94-22.37a43.33,43.33,0,0,1,1.82-13,27.85,27.85,0,0,1,5.34-9.9,22.8,22.8,0,0,1,8.57-6.21A29.21,29.21,0,0,1,1472.53,74q10,0,15.45,4.6c3.64,3,5.47,7.37,5.47,12.89s-1.94,9.45-5.8,12-9.88,3.85-18,3.85a78.26,78.26,0,0,1-8.8-.5,54.58,54.58,0,0,1-8.79-1.79q0,12.42,5.23,18.35t15.69,5.92a48.85,48.85,0,0,0,13.65-2ZM1424,50.19a1.51,1.51,0,0,1,1.27-1.73,1.36,1.36,0,0,1,.45,0h3.11a1.52,1.52,0,0,1,1.72,1.29,1.69,1.69,0,0,1,0,.45v73.33a5.15,5.15,0,0,0,1,3.56,4.73,4.73,0,0,0,3.51,1,10.25,10.25,0,0,0,1.56-.12,13.54,13.54,0,0,1,1.44-.11,1.42,1.42,0,0,1,1.6,1.2,2.67,2.67,0,0,1,0,.4v2.19a1.67,1.67,0,0,1-1.5,1.73,9.84,9.84,0,0,1-2,.35c-.88.07-1.67.11-2.36.11a9.45,9.45,0,0,1-7.17-2.67,10.4,10.4,0,0,1-2.59-7.53Zm-36.68,55.44q-16.11,0-16.09,12.42,0,10.8,11.37,10.82a29.19,29.19,0,0,0,9.43-1.74,46.88,46.88,0,0,0,10.24-5V107.69A58.59,58.59,0,0,0,1387.34,105.63ZM1389,74q19.89,0,19.88,17.14v40.72a1.52,1.52,0,0,1-1.29,1.72,1.55,1.55,0,0,1-.43,0h-2.41a1.63,1.63,0,0,1-1.83-1.42,1.51,1.51,0,0,1,0-.3l-.45-4.94q-9.9,8-20.71,8-7.92,0-12.59-4.55a16.14,16.14,0,0,1-4.65-12.13,16.44,16.44,0,0,1,5.69-13.23q5.68-4.81,15.7-4.83a51.14,51.14,0,0,1,8,.7,57.77,57.77,0,0,1,8.4,1.94V93.09c0-4.68-1.12-8-3.34-10.06s-5.9-3.06-11-3.06a54.49,54.49,0,0,0-15.06,2.31c-.84.23-1.51.44-2,.63a3.46,3.46,0,0,1-1.22.29c-.92,0-1.33-.51-1.33-1.51V79.85a2.23,2.23,0,0,1,1.51-2.29,50.24,50.24,0,0,1,9.33-2.67,53.24,53.24,0,0,1,9.84-.93Z"/></clipPath><clipPath id="efa00e6d-b5e2-4d98-8e8d-2f47ff6c8a99"><path class="be614f69-42dd-43c8-b6e5-87e035ee2593" d="M839.41,37.52a60,60,0,0,0-8,119.47v-12.1a8,8,0,0,0-5.34-7.54,42,42,0,1,1,55.36-39.83v1.57a2,2,0,0,1,0,.35,8.69,8.69,0,0,1-.08,1.44v.47a4.5,4.5,0,0,1-.09,1c-.09.33-.09.74-.15,1.12v.5c-5.14,33.88-49.24,52.91-49.48,53a61.19,61.19,0,0,0,8,.53,60,60,0,0,0,0-120"/></clipPath></defs><title>HOOBS_x_alexa</title><g id="b869e2bf-5743-469c-bdda-e91d63d8efa4" data-name="Stroke"><line class="b0631aa4-6562-4e98-a6c6-3abcb2e326ee" x1="700.5" y1="60" x2="700.5" y2="140"/></g><g id="a3e8cb5b-3760-49f1-bda1-d0bf00e07931" data-name="alexa"><g id="fb208d12-1629-44f0-9776-d89365d082cc" data-name="g12"><path id="a7759799-a181-434c-81ec-b177c83c6de7" data-name="path14" class="b2e7ce44-b023-40ac-987c-339d641a5c90" d="M973.55,105.63q-16.11,0-16.09,12.42,0,10.8,11.39,10.82a29.13,29.13,0,0,0,9.42-1.74,46.59,46.59,0,0,0,10.23-5V107.69a58.53,58.53,0,0,0-15-2.06M975.17,74Q995,74,995.05,91.13v40.72a1.53,1.53,0,0,1-1.29,1.72,1.55,1.55,0,0,1-.43,0h-2.42a1.63,1.63,0,0,1-1.83-1.42c0-.1,0-.2,0-.3l-.45-4.94q-9.92,8-20.69,8-8,0-12.6-4.55a16.14,16.14,0,0,1-4.66-12.13,16.44,16.44,0,0,1,5.7-13.23q5.68-4.81,15.69-4.83a51.14,51.14,0,0,1,8,.7,59,59,0,0,1,8.39,1.94V93.09q0-7-3.34-10.06t-11-3.06A54.05,54.05,0,0,0,959,82.28a21,21,0,0,0-2,.63,3.46,3.46,0,0,1-1.22.29c-.92,0-1.33-.51-1.33-1.51V79.85A2.22,2.22,0,0,1,956,77.56a50.56,50.56,0,0,1,9.34-2.67,54,54,0,0,1,9.84-.93"/><g id="a6e0bdc2-968e-453f-a4aa-ca85eebe3c28" data-name="g16"><path class="b601de97-132a-4b64-bb43-186458d26871" d="M973.55,105.63q-16.11,0-16.09,12.42,0,10.8,11.39,10.82a29.13,29.13,0,0,0,9.42-1.74,46.59,46.59,0,0,0,10.23-5V107.69a58.53,58.53,0,0,0-15-2.06M975.17,74Q995,74,995.05,91.13v40.72a1.53,1.53,0,0,1-1.29,1.72,1.55,1.55,0,0,1-.43,0h-2.42a1.63,1.63,0,0,1-1.83-1.42c0-.1,0-.2,0-.3l-.45-4.94q-9.92,8-20.69,8-8,0-12.6-4.55a16.14,16.14,0,0,1-4.66-12.13,16.44,16.44,0,0,1,5.7-13.23q5.68-4.81,15.69-4.83a51.14,51.14,0,0,1,8,.7,59,59,0,0,1,8.39,1.94V93.09q0-7-3.34-10.06t-11-3.06A54.05,54.05,0,0,0,959,82.28a21,21,0,0,0-2,.63,3.46,3.46,0,0,1-1.22.29c-.92,0-1.33-.51-1.33-1.51V79.85A2.22,2.22,0,0,1,956,77.56a50.56,50.56,0,0,1,9.34-2.67,54,54,0,0,1,9.84-.93"/><g class="a5805550-560e-40cb-bceb-e8d80d849629"><g id="facbec60-f726-4170-8ee8-b8bc32a8ead7" data-name="g18"><path id="edc889fe-f2b5-4bfe-897b-a6e096690993" data-name="path24" class="b601de97-132a-4b64-bb43-186458d26871" d="M941.57,144h62.58V64.83H941.57v79.06"/></g></g></g><path id="b85f9559-5dcb-49e2-b5e0-7e351a1aeeaf" data-name="path26" class="b2e7ce44-b023-40ac-987c-339d641a5c90" d="M1076.91,74q8,0,12.08,4.44t4.14,13v40.37a1.53,1.53,0,0,1-1.29,1.72,1.55,1.55,0,0,1-.43,0h-3.11a1.52,1.52,0,0,1-1.73-1.3,1.48,1.48,0,0,1,0-.42V94.24q0-7.6-2.59-10.93c-1.73-2.23-4.53-3.34-8.44-3.34a34.2,34.2,0,0,0-20.81,7.26,45.27,45.27,0,0,1,.34,5.33v39.23a1.51,1.51,0,0,1-1.29,1.72,1.62,1.62,0,0,1-.44,0h-3.09a1.54,1.54,0,0,1-1.74-1.28,1.62,1.62,0,0,1,0-.44V94.24q0-7.6-2.58-10.93T1037.47,80A34.66,34.66,0,0,0,1017,87v44.86a1.53,1.53,0,0,1-1.32,1.72,1.41,1.41,0,0,1-.41,0h-3.11a1.52,1.52,0,0,1-1.72-1.29,1.55,1.55,0,0,1,0-.43V77.44a1.52,1.52,0,0,1,1.29-1.72,1.55,1.55,0,0,1,.43,0h2.31a1.76,1.76,0,0,1,1.93,1.56.92.92,0,0,1,0,.16l.47,4.6a45.75,45.75,0,0,1,10.8-5.92A31.55,31.55,0,0,1,1038.86,74q10.8,0,14.48,8.86a42,42,0,0,1,11.56-6.66,34.2,34.2,0,0,1,12-2.26"/><g id="ef06f760-1606-42ac-93c8-53c9273f709a" data-name="g28"><path class="b601de97-132a-4b64-bb43-186458d26871" d="M1076.91,74q8,0,12.08,4.44t4.14,13v40.37a1.53,1.53,0,0,1-1.29,1.72,1.55,1.55,0,0,1-.43,0h-3.11a1.52,1.52,0,0,1-1.73-1.3,1.48,1.48,0,0,1,0-.42V94.24q0-7.6-2.59-10.93c-1.73-2.23-4.53-3.34-8.44-3.34a34.2,34.2,0,0,0-20.81,7.26,45.27,45.27,0,0,1,.34,5.33v39.23a1.51,1.51,0,0,1-1.29,1.72,1.62,1.62,0,0,1-.44,0h-3.09a1.54,1.54,0,0,1-1.74-1.28,1.62,1.62,0,0,1,0-.44V94.24q0-7.6-2.58-10.93T1037.47,80A34.66,34.66,0,0,0,1017,87v44.86a1.53,1.53,0,0,1-1.32,1.72,1.41,1.41,0,0,1-.41,0h-3.11a1.52,1.52,0,0,1-1.72-1.29,1.55,1.55,0,0,1,0-.43V77.44a1.52,1.52,0,0,1,1.29-1.72,1.55,1.55,0,0,1,.43,0h2.31a1.76,1.76,0,0,1,1.93,1.56.92.92,0,0,1,0,.16l.47,4.6a45.75,45.75,0,0,1,10.8-5.92A31.55,31.55,0,0,1,1038.86,74q10.8,0,14.48,8.86a42,42,0,0,1,11.56-6.66,34.2,34.2,0,0,1,12-2.26"/><g class="bb0c57b9-3d5d-4a11-8e69-184bc28b641a"><g id="e2afb33a-4005-480d-9205-4ad36b619ee9" data-name="g30"><path id="f023692d-3686-4a3e-a17c-1d62ae22eefc" data-name="path36" class="b601de97-132a-4b64-bb43-186458d26871" d="M1001.35,142.68h100.88V64.83H1001.35v77.8"/></g></g></g><path id="e81169d5-02d6-4b81-97e4-236dc955e942" data-name="path38" class="b2e7ce44-b023-40ac-987c-339d641a5c90" d="M1127.73,105.63q-16.08,0-16.1,12.42,0,10.8,11.39,10.82a29.19,29.19,0,0,0,9.43-1.74,46.08,46.08,0,0,0,10.22-5V107.69a58.45,58.45,0,0,0-14.94-2.06M1129.34,74q19.89,0,19.89,17.14v40.72a1.52,1.52,0,0,1-1.29,1.72,1.55,1.55,0,0,1-.43,0h-2.41a1.62,1.62,0,0,1-1.83-1.39,1.82,1.82,0,0,1,0-.33l-.47-4.94q-9.87,8-20.69,8-8,0-12.59-4.55a16.13,16.13,0,0,1-4.66-12.13,16.44,16.44,0,0,1,5.69-13.23q5.68-4.81,15.69-4.83a51,51,0,0,1,8,.7,58.66,58.66,0,0,1,8.39,1.94V93.09q0-7-3.33-10.06c-2.23-2-5.9-3.06-11-3.06a54.49,54.49,0,0,0-15.06,2.31c-.84.23-1.52.44-2,.63a3.4,3.4,0,0,1-1.21.29c-.92,0-1.34-.51-1.34-1.51V79.85a2.23,2.23,0,0,1,1.5-2.29,50.24,50.24,0,0,1,9.33-2.67,54,54,0,0,1,9.83-.93"/><g id="a771ab4e-bac1-4ef9-b0b8-f2f51c9e94ef" data-name="g40"><path class="b601de97-132a-4b64-bb43-186458d26871" d="M1127.73,105.63q-16.08,0-16.1,12.42,0,10.8,11.39,10.82a29.19,29.19,0,0,0,9.43-1.74,46.08,46.08,0,0,0,10.22-5V107.69a58.45,58.45,0,0,0-14.94-2.06M1129.34,74q19.89,0,19.89,17.14v40.72a1.52,1.52,0,0,1-1.29,1.72,1.55,1.55,0,0,1-.43,0h-2.41a1.62,1.62,0,0,1-1.83-1.39,1.82,1.82,0,0,1,0-.33l-.47-4.94q-9.87,8-20.69,8-8,0-12.59-4.55a16.13,16.13,0,0,1-4.66-12.13,16.44,16.44,0,0,1,5.69-13.23q5.68-4.81,15.69-4.83a51,51,0,0,1,8,.7,58.66,58.66,0,0,1,8.39,1.94V93.09q0-7-3.33-10.06c-2.23-2-5.9-3.06-11-3.06a54.49,54.49,0,0,0-15.06,2.31c-.84.23-1.52.44-2,.63a3.4,3.4,0,0,1-1.21.29c-.92,0-1.34-.51-1.34-1.51V79.85a2.23,2.23,0,0,1,1.5-2.29,50.24,50.24,0,0,1,9.33-2.67,54,54,0,0,1,9.83-.93"/><g class="f7bb8319-085e-42e1-bbfe-9d078acfddd1"><g id="b763515c-8200-4f8c-937c-020aa055bdea" data-name="g42"><path id="b61b1525-732a-4494-97dd-1728b1d0f2a8" data-name="path48" class="b601de97-132a-4b64-bb43-186458d26871" d="M1095.74,144h62.6V64.83h-62.6v79.06"/></g></g></g><path id="ecdf7d8f-1d52-4dd4-88da-0e8f185c5119" data-name="path50" class="b2e7ce44-b023-40ac-987c-339d641a5c90" d="M1204.19,129.55v2.3a1.52,1.52,0,0,1-1.29,1.73,1.31,1.31,0,0,1-.44,0h-40.52a1.51,1.51,0,0,1-1.72-1.29,1.55,1.55,0,0,1,0-.43v-2.41a4.79,4.79,0,0,1,.28-1.84,5.87,5.87,0,0,1,1.09-1.61l35-44.52h-33.47a1.52,1.52,0,0,1-1.72-1.29,1.55,1.55,0,0,1,0-.43V77.44a1.52,1.52,0,0,1,1.29-1.72,1.55,1.55,0,0,1,.43,0h39.09A1.52,1.52,0,0,1,1204,77a1.55,1.55,0,0,1,0,.43v2.41a5.16,5.16,0,0,1-.28,1.74,6.25,6.25,0,0,1-1.21,1.84l-35.07,44.4h35.07a1.51,1.51,0,0,1,1.73,1.27,1.7,1.7,0,0,1,0,.45"/><g id="bf912978-942d-4b80-9cd6-5cfdc9e24bd7" data-name="g52"><path class="b601de97-132a-4b64-bb43-186458d26871" d="M1204.19,129.55v2.3a1.52,1.52,0,0,1-1.29,1.73,1.31,1.31,0,0,1-.44,0h-40.52a1.51,1.51,0,0,1-1.72-1.29,1.55,1.55,0,0,1,0-.43v-2.41a4.79,4.79,0,0,1,.28-1.84,5.87,5.87,0,0,1,1.09-1.61l35-44.52h-33.47a1.52,1.52,0,0,1-1.72-1.29,1.55,1.55,0,0,1,0-.43V77.44a1.52,1.52,0,0,1,1.29-1.72,1.55,1.55,0,0,1,.43,0h39.09A1.52,1.52,0,0,1,1204,77a1.55,1.55,0,0,1,0,.43v2.41a5.16,5.16,0,0,1-.28,1.74,6.25,6.25,0,0,1-1.21,1.84l-35.07,44.4h35.07a1.51,1.51,0,0,1,1.73,1.27,1.7,1.7,0,0,1,0,.45"/><g class="a5717ae0-b555-4aed-a3b8-40b93935624a"><g id="b2186b43-1c6b-4a9f-8f9d-3bfeeeb8e372" data-name="g54"><path id="ae04e70e-d746-4c51-a958-d41e5fa17fbd" data-name="path60" class="b601de97-132a-4b64-bb43-186458d26871" d="M1151.17,142.68h62.13v-76h-62.13v76"/></g></g></g><path id="f445c804-4992-4d45-8df6-dce2c134c729" data-name="path62" class="b2e7ce44-b023-40ac-987c-339d641a5c90" d="M1237.94,129.32q19.88,0,19.89-24.73T1237.94,80q-19.9,0-19.89,24.62t19.89,24.73m0,6q-12.54,0-19.61-8t-7.07-22.67q0-14.67,7.07-22.67t19.61-8q12.52,0,19.6,8t7.07,22.67q0,14.74-7.07,22.67t-19.6,8"/><g id="ea89884d-87c1-429f-8340-11e27e8fc29b" data-name="g64"><path class="b601de97-132a-4b64-bb43-186458d26871" d="M1237.94,129.32q19.88,0,19.89-24.73T1237.94,80q-19.9,0-19.89,24.62t19.89,24.73m0,6q-12.54,0-19.61-8t-7.07-22.67q0-14.67,7.07-22.67t19.61-8q12.52,0,19.6,8t7.07,22.67q0,14.74-7.07,22.67t-19.6,8"/><g class="b69e4cdc-db31-434d-ae5f-f90763b87f67"><g id="fb1f758c-674f-4c95-b854-916ce9684104" data-name="g66"><path id="fdd7bafc-f061-4cfe-bbb7-bbb2c9925a09" data-name="path72" class="b601de97-132a-4b64-bb43-186458d26871" d="M1202.21,144.41h71.56V64.83h-71.56v79.53"/></g></g></g><path id="ee917333-1085-4076-a121-560d2e77ce33" data-name="path74" class="b2e7ce44-b023-40ac-987c-339d641a5c90" d="M1307.66,74q8.5,0,12.88,4.44t4.37,13v40.37a1.53,1.53,0,0,1-1.32,1.72,1.41,1.41,0,0,1-.41,0h-3.11a1.51,1.51,0,0,1-1.72-1.29,1.55,1.55,0,0,1,0-.43V94.24q0-7.6-2.88-10.93T1306.29,80a35.87,35.87,0,0,0-11.62,1.9,46.72,46.72,0,0,0-10.81,5.46v44.52a1.52,1.52,0,0,1-1.29,1.72,1.55,1.55,0,0,1-.43,0H1279a1.51,1.51,0,0,1-1.72-1.29,1.55,1.55,0,0,1,0-.43V77.44a1.52,1.52,0,0,1,1.29-1.72,1.55,1.55,0,0,1,.43,0h2.31a1.77,1.77,0,0,1,1.94,1.56.81.81,0,0,0,0,.16l.46,5a46.27,46.27,0,0,1,11.72-6.22A36.71,36.71,0,0,1,1307.66,74"/><g id="f70ef8af-9d1a-4942-9320-edd2ab7203be" data-name="g76"><path class="b601de97-132a-4b64-bb43-186458d26871" d="M1307.66,74q8.5,0,12.88,4.44t4.37,13v40.37a1.53,1.53,0,0,1-1.32,1.72,1.41,1.41,0,0,1-.41,0h-3.11a1.51,1.51,0,0,1-1.72-1.29,1.55,1.55,0,0,1,0-.43V94.24q0-7.6-2.88-10.93T1306.29,80a35.87,35.87,0,0,0-11.62,1.9,46.72,46.72,0,0,0-10.81,5.46v44.52a1.52,1.52,0,0,1-1.29,1.72,1.55,1.55,0,0,1-.43,0H1279a1.51,1.51,0,0,1-1.72-1.29,1.55,1.55,0,0,1,0-.43V77.44a1.52,1.52,0,0,1,1.29-1.72,1.55,1.55,0,0,1,.43,0h2.31a1.77,1.77,0,0,1,1.94,1.56.81.81,0,0,0,0,.16l.46,5a46.27,46.27,0,0,1,11.72-6.22A36.71,36.71,0,0,1,1307.66,74"/><g class="baff4a4c-084f-4751-974c-eb0ea282726f"><g id="b3e9cf09-eff2-40f1-aed3-0af691251783" data-name="g78"><path id="be4ffdc7-665c-40db-a9f0-4639ec934244" data-name="path84" class="b601de97-132a-4b64-bb43-186458d26871" d="M1268.21,142.68H1334V64.83h-65.8v77.8"/></g></g></g><path id="b683187d-f699-4c6d-a9a9-4547225680b1" data-name="path86" class="b2e7ce44-b023-40ac-987c-339d641a5c90" d="M1579.35,105.63q-16.1,0-16.09,12.42,0,10.8,11.39,10.82a29.13,29.13,0,0,0,9.42-1.74,46.59,46.59,0,0,0,10.23-5V107.69A58.53,58.53,0,0,0,1579.35,105.63ZM1581,74q19.88,0,19.89,17.14v40.72a1.53,1.53,0,0,1-1.32,1.72,1.41,1.41,0,0,1-.41,0h-2.42a1.63,1.63,0,0,1-1.83-1.42c0-.1,0-.2,0-.3l-.45-4.94q-9.9,8-20.69,8-8,0-12.6-4.55a16.2,16.2,0,0,1-4.66-12.13,16.48,16.48,0,0,1,5.7-13.23q5.68-4.81,15.69-4.83a51.14,51.14,0,0,1,8,.7,59,59,0,0,1,8.39,1.94V93.09q0-7-3.34-10.06t-11-3.06a54.05,54.05,0,0,0-15,2.31,21,21,0,0,0-2,.63,3.46,3.46,0,0,1-1.22.29c-.92,0-1.33-.51-1.33-1.51V79.85a2.22,2.22,0,0,1,1.49-2.29,50.56,50.56,0,0,1,9.34-2.67,53,53,0,0,1,9.82-.93ZM1525.13,108l-16.68,24.27a2.86,2.86,0,0,1-2.42,1.33h-3.21c-1,0-1.49-.41-1.49-1.33a3.14,3.14,0,0,1,.8-1.5l19.66-27.32-17.94-25.08a3.37,3.37,0,0,1-.68-1.33c0-.85.49-1.33,1.49-1.33h3.56a2.82,2.82,0,0,1,2.41,1.33l15.07,21.33,15-21.33a2.74,2.74,0,0,1,2.31-1.33h3.11c1,0,1.49.41,1.49,1.33a3.29,3.29,0,0,1-.69,1.49l-17.71,24.51,19.67,27.83a3.5,3.5,0,0,1,.68,1.49c0,.85-.5,1.33-1.5,1.33h-3.5a2.67,2.67,0,0,1-2.3-1.33ZM1472,79.85q-8.61,0-13.61,5.07t-6,14.84a70.61,70.61,0,0,0,8.9,1.72,68.12,68.12,0,0,0,8.91.57q8.64,0,12.65-2.52a8.8,8.8,0,0,0,4-8q0-11.61-14.84-11.62Zm14.67,47.51a21.41,21.41,0,0,0,2.17-.75,3.45,3.45,0,0,1,1.27-.28c.92,0,1.33.5,1.33,1.5v1.61a2.36,2.36,0,0,1-1.33,2.41,45.4,45.4,0,0,1-17.59,3.46q-13.21,0-20.19-7.66t-6.94-22.37a43.33,43.33,0,0,1,1.82-13,27.85,27.85,0,0,1,5.34-9.9,22.8,22.8,0,0,1,8.57-6.21A29.21,29.21,0,0,1,1472.53,74q10,0,15.45,4.6c3.64,3,5.47,7.37,5.47,12.89s-1.94,9.45-5.8,12-9.88,3.85-18,3.85a78.26,78.26,0,0,1-8.8-.5,54.58,54.58,0,0,1-8.79-1.79q0,12.42,5.23,18.35t15.69,5.92a48.85,48.85,0,0,0,13.65-2ZM1424,50.19a1.51,1.51,0,0,1,1.27-1.73,1.36,1.36,0,0,1,.45,0h3.11a1.52,1.52,0,0,1,1.72,1.29,1.69,1.69,0,0,1,0,.45v73.33a5.15,5.15,0,0,0,1,3.56,4.73,4.73,0,0,0,3.51,1,10.25,10.25,0,0,0,1.56-.12,13.54,13.54,0,0,1,1.44-.11,1.42,1.42,0,0,1,1.6,1.2,2.67,2.67,0,0,1,0,.4v2.19a1.67,1.67,0,0,1-1.5,1.73,9.84,9.84,0,0,1-2,.35c-.88.07-1.67.11-2.36.11a9.45,9.45,0,0,1-7.17-2.67,10.4,10.4,0,0,1-2.59-7.53Zm-36.68,55.44q-16.11,0-16.09,12.42,0,10.8,11.37,10.82a29.19,29.19,0,0,0,9.43-1.74,46.88,46.88,0,0,0,10.24-5V107.69A58.59,58.59,0,0,0,1387.34,105.63ZM1389,74q19.89,0,19.88,17.14v40.72a1.52,1.52,0,0,1-1.29,1.72,1.55,1.55,0,0,1-.43,0h-2.41a1.63,1.63,0,0,1-1.83-1.42,1.51,1.51,0,0,1,0-.3l-.45-4.94q-9.9,8-20.71,8-7.92,0-12.59-4.55a16.14,16.14,0,0,1-4.65-12.13,16.44,16.44,0,0,1,5.69-13.23q5.68-4.81,15.7-4.83a51.14,51.14,0,0,1,8,.7,57.77,57.77,0,0,1,8.4,1.94V93.09c0-4.68-1.12-8-3.34-10.06s-5.9-3.06-11-3.06a54.49,54.49,0,0,0-15.06,2.31c-.84.23-1.51.44-2,.63a3.46,3.46,0,0,1-1.22.29c-.92,0-1.33-.51-1.33-1.51V79.85a2.23,2.23,0,0,1,1.51-2.29,50.24,50.24,0,0,1,9.33-2.67,53.24,53.24,0,0,1,9.84-.93"/><g id="e0c661c0-278d-4106-aa54-8f42eb5025e6" data-name="g88"><path class="b601de97-132a-4b64-bb43-186458d26871" d="M1579.35,105.63q-16.1,0-16.09,12.42,0,10.8,11.39,10.82a29.13,29.13,0,0,0,9.42-1.74,46.59,46.59,0,0,0,10.23-5V107.69A58.53,58.53,0,0,0,1579.35,105.63ZM1581,74q19.88,0,19.89,17.14v40.72a1.53,1.53,0,0,1-1.32,1.72,1.41,1.41,0,0,1-.41,0h-2.42a1.63,1.63,0,0,1-1.83-1.42c0-.1,0-.2,0-.3l-.45-4.94q-9.9,8-20.69,8-8,0-12.6-4.55a16.2,16.2,0,0,1-4.66-12.13,16.48,16.48,0,0,1,5.7-13.23q5.68-4.81,15.69-4.83a51.14,51.14,0,0,1,8,.7,59,59,0,0,1,8.39,1.94V93.09q0-7-3.34-10.06t-11-3.06a54.05,54.05,0,0,0-15,2.31,21,21,0,0,0-2,.63,3.46,3.46,0,0,1-1.22.29c-.92,0-1.33-.51-1.33-1.51V79.85a2.22,2.22,0,0,1,1.49-2.29,50.56,50.56,0,0,1,9.34-2.67,53,53,0,0,1,9.82-.93ZM1525.13,108l-16.68,24.27a2.86,2.86,0,0,1-2.42,1.33h-3.21c-1,0-1.49-.41-1.49-1.33a3.14,3.14,0,0,1,.8-1.5l19.66-27.32-17.94-25.08a3.37,3.37,0,0,1-.68-1.33c0-.85.49-1.33,1.49-1.33h3.56a2.82,2.82,0,0,1,2.41,1.33l15.07,21.33,15-21.33a2.74,2.74,0,0,1,2.31-1.33h3.11c1,0,1.49.41,1.49,1.33a3.29,3.29,0,0,1-.69,1.49l-17.71,24.51,19.67,27.83a3.5,3.5,0,0,1,.68,1.49c0,.85-.5,1.33-1.5,1.33h-3.5a2.67,2.67,0,0,1-2.3-1.33ZM1472,79.85q-8.61,0-13.61,5.07t-6,14.84a70.61,70.61,0,0,0,8.9,1.72,68.12,68.12,0,0,0,8.91.57q8.64,0,12.65-2.52a8.8,8.8,0,0,0,4-8q0-11.61-14.84-11.62Zm14.67,47.51a21.41,21.41,0,0,0,2.17-.75,3.45,3.45,0,0,1,1.27-.28c.92,0,1.33.5,1.33,1.5v1.61a2.36,2.36,0,0,1-1.33,2.41,45.4,45.4,0,0,1-17.59,3.46q-13.21,0-20.19-7.66t-6.94-22.37a43.33,43.33,0,0,1,1.82-13,27.85,27.85,0,0,1,5.34-9.9,22.8,22.8,0,0,1,8.57-6.21A29.21,29.21,0,0,1,1472.53,74q10,0,15.45,4.6c3.64,3,5.47,7.37,5.47,12.89s-1.94,9.45-5.8,12-9.88,3.85-18,3.85a78.26,78.26,0,0,1-8.8-.5,54.58,54.58,0,0,1-8.79-1.79q0,12.42,5.23,18.35t15.69,5.92a48.85,48.85,0,0,0,13.65-2ZM1424,50.19a1.51,1.51,0,0,1,1.27-1.73,1.36,1.36,0,0,1,.45,0h3.11a1.52,1.52,0,0,1,1.72,1.29,1.69,1.69,0,0,1,0,.45v73.33a5.15,5.15,0,0,0,1,3.56,4.73,4.73,0,0,0,3.51,1,10.25,10.25,0,0,0,1.56-.12,13.54,13.54,0,0,1,1.44-.11,1.42,1.42,0,0,1,1.6,1.2,2.67,2.67,0,0,1,0,.4v2.19a1.67,1.67,0,0,1-1.5,1.73,9.84,9.84,0,0,1-2,.35c-.88.07-1.67.11-2.36.11a9.45,9.45,0,0,1-7.17-2.67,10.4,10.4,0,0,1-2.59-7.53Zm-36.68,55.44q-16.11,0-16.09,12.42,0,10.8,11.37,10.82a29.19,29.19,0,0,0,9.43-1.74,46.88,46.88,0,0,0,10.24-5V107.69A58.59,58.59,0,0,0,1387.34,105.63ZM1389,74q19.89,0,19.88,17.14v40.72a1.52,1.52,0,0,1-1.29,1.72,1.55,1.55,0,0,1-.43,0h-2.41a1.63,1.63,0,0,1-1.83-1.42,1.51,1.51,0,0,1,0-.3l-.45-4.94q-9.9,8-20.71,8-7.92,0-12.59-4.55a16.14,16.14,0,0,1-4.65-12.13,16.44,16.44,0,0,1,5.69-13.23q5.68-4.81,15.7-4.83a51.14,51.14,0,0,1,8,.7,57.77,57.77,0,0,1,8.4,1.94V93.09c0-4.68-1.12-8-3.34-10.06s-5.9-3.06-11-3.06a54.49,54.49,0,0,0-15.06,2.31c-.84.23-1.51.44-2,.63a3.46,3.46,0,0,1-1.22.29c-.92,0-1.33-.51-1.33-1.51V79.85a2.23,2.23,0,0,1,1.51-2.29,50.24,50.24,0,0,1,9.33-2.67,53.24,53.24,0,0,1,9.84-.93Z"/><g class="bff2f0d9-073b-487e-acff-128c0983daa1"><g id="ba0b5802-15a7-4f89-8e11-c80aa76bd86c" data-name="g90"><path id="ae2a1438-eeec-4948-9660-ba0f2a56d562" data-name="path96" class="b601de97-132a-4b64-bb43-186458d26871" d="M1355.35,144.41H1610V39.35H1355.35V144.41"/></g></g></g><path id="f60e1745-484d-42e0-a86e-9fb27733a02d" data-name="path98" class="b5cb56b9-7c25-40b6-9c68-3fda5859bbbc" d="M839.41,37.52a60,60,0,0,0-8,119.47v-12.1a8,8,0,0,0-5.34-7.54,42,42,0,1,1,55.36-39.83v1.57a2,2,0,0,1,0,.35,8.69,8.69,0,0,1-.08,1.44v.47a4.5,4.5,0,0,1-.09,1c-.09.33-.09.74-.15,1.12v.5c-5.14,33.88-49.24,52.91-49.48,53a61.19,61.19,0,0,0,8,.53,60,60,0,0,0,0-120"/><g id="bae59c49-e40a-41c0-8f8e-9f532ea0d768" data-name="g100"><g class="e85a3181-b22a-4b1f-898b-f839097019c2"><g id="ff8f7407-c529-4172-b247-d1938b4d7dc3" data-name="g102"><path id="a5c0454e-77f8-4462-9a5b-d1c7f3f17f0e" data-name="path108" class="bf1ada46-5f94-4cc3-824e-b292eff203eb" d="M770.34,166.63H908.49V28.41H770.34V166.63"/></g></g></g></g></g><path class="e712cd94-271e-4a46-a6d1-ba1801f5fc33" d="M154.17,41.5h-78A19.5,19.5,0,0,0,56.67,61v78a19.5,19.5,0,0,0,19.5,19.5h78a19.5,19.5,0,0,0,19.5-19.5V61A19.5,19.5,0,0,0,154.17,41.5Zm2,59.26a3.24,3.24,0,0,1-4.59,0,3.21,3.21,0,0,1-.95-2.09l-8.82-8.82V69.92a1.63,1.63,0,0,0-1.63-1.63h-3.25a1.63,1.63,0,0,0-1.62,1.63V83.6l-4.88-5.13-15-15a1.62,1.62,0,0,0-2.3,0L78.59,97.89a1.64,1.64,0,0,0,0,2.3l2.3,2.3a1.64,1.64,0,0,0,2.3,0l26.43-26.43a6.49,6.49,0,0,1,9.19,0l26.43,26.43a6.51,6.51,0,0,1,0,9.19l-2.3,2.3a6.49,6.49,0,0,1-9.19,0L115.36,95.59a1.64,1.64,0,0,0-2.3,0L94.68,114a1.62,1.62,0,0,0,0,2.3l2.3,2.29a1.61,1.61,0,0,0,2.29,0l10.35-10.34a6.49,6.49,0,0,1,9.19,0l10.34,10.34a6.51,6.51,0,0,1,0,9.2L118,138.89a3.21,3.21,0,0,1-1,2.09,3.25,3.25,0,1,1-2.5-5.54l11.12-11.12a1.62,1.62,0,0,0,0-2.3l-10.34-10.34a1.62,1.62,0,0,0-2.3,0L102.72,122a6.49,6.49,0,0,1-9.19,0l-2.3-2.3a6.49,6.49,0,0,1,0-9.19l18.39-18.38a6.49,6.49,0,0,1,9.19,0l18.38,18.38a1.64,1.64,0,0,0,2.3,0l2.3-2.3a1.64,1.64,0,0,0,0-2.3L115.36,79.51a1.62,1.62,0,0,0-2.3,0L86.63,105.93a6.49,6.49,0,0,1-9.19,0l-2.3-2.29a6.52,6.52,0,0,1,0-9.2L109.62,60a6.49,6.49,0,0,1,9.19,0l11.6,11.61V69.92a6.5,6.5,0,0,1,6.5-6.5h3.25a6.5,6.5,0,0,1,6.5,6.5V87.83l7.4,7.39a3.25,3.25,0,0,1,2.09,5.54Z"/><path class="e712cd94-271e-4a46-a6d1-ba1801f5fc33" d="M612.42,61H624.1v3.65h-3.71v11H616.1v-11h-3.68Zm13.09,0h4.72l3.34,7.78L637,61h4.72V75.62h-3.85V67.39l-2.77,6.81h-2.92l-2.77-6.81v8.23h-3.85Z"/><path class="e712cd94-271e-4a46-a6d1-ba1801f5fc33" d="M271.65,61v78H254.31V107h-34v32H202.92V61h17.35V91.75h34V61Zm10.65,39c0-22.41,16.77-39,39.65-39s39.64,16.48,39.64,39S344.72,139,322,139,282.3,122.41,282.3,100Zm62.09.39c0-14.19-9.63-23.9-22.44-23.9s-22.45,9.71-22.45,23.9,9.64,23.89,22.45,23.89S344.39,114.57,344.39,100.39ZM368.8,100c0-22.41,16.77-39,39.65-39s39.64,16.48,39.64,39-16.87,39-39.64,39S368.8,122.41,368.8,100Zm62.09.39c0-14.19-9.63-23.9-22.44-23.9S386,86.2,386,100.39s9.64,23.89,22.45,23.89S430.89,114.57,430.89,100.39Zm96.58,17.33c0,13.48-10.28,21.28-30,21.28H458.74V61h36.61c18.74,0,28.38,8.13,28.38,20.28a18.86,18.86,0,0,1-10,17.16C522.12,101.23,527.47,107.91,527.47,117.72ZM476.71,76.06V93.67h16.5c8.1,0,12.5-3,12.5-8.86s-4.4-8.75-12.5-8.75Zm32.59,39.47c0-6.29-4.61-9.28-13.22-9.28H476.71v18.46h19.37C504.69,124.71,509.3,121.93,509.3,115.53Zm23.38,14.74,5.69-13.14A41.52,41.52,0,0,0,562.28,125c9.94,0,14-3.44,14-8.08,0-14.11-42.13-4.41-42.13-32.42,0-12.82,9.94-23.49,30.53-23.49,9.11,0,18.43,2.26,25.16,6.68l-5.18,13.25A39.67,39.67,0,0,0,564.56,75c-9.94,0-13.77,3.87-13.77,8.61,0,13.9,42.13,4.31,42.13,32,0,12.61-10,23.38-30.74,23.38C550.69,139,539.1,135.44,532.68,130.27Z"/></svg>