<svg id="bfdf2e44-3869-4841-a66d-f7037be00d28" data-name="Ebene 1" xmlns="http://www.w3.org/2000/svg" viewBox="0 0 1680 200"><defs><style>.a1a569ee-1bde-44fe-8f9d-254d8019b79c{fill:none;stroke:#ccc;stroke-miterlimit:10;}.a138e737-1180-43c5-ad53-b28288d8c00d{fill:#f9b213;}.bcc80fad-665a-4e98-ba22-cf522f005403{isolation:isolate;}.fe2846fc-59bd-4469-87b4-00ac5e88d13c{fill:#ccc;}.b638570d-f11d-46d5-86e5-c4b782a7ab0a{fill:#42b07e;}</style></defs><title>HOOBS_x_milighthub</title><g id="a74dde5e-a52d-4a3f-abb4-f1dffb128965" data-name="Stroke"><line class="a1a569ee-1bde-44fe-8f9d-254d8019b79c" x1="700.5" y1="60" x2="700.5" y2="140"/></g><path class="a138e737-1180-43c5-ad53-b28288d8c00d" d="M154.17,41.5h-78A19.5,19.5,0,0,0,56.67,61v78a19.5,19.5,0,0,0,19.5,19.5h78a19.5,19.5,0,0,0,19.5-19.5V61A19.5,19.5,0,0,0,154.17,41.5Zm2,59.26a3.24,3.24,0,0,1-4.59,0,3.21,3.21,0,0,1-.95-2.09l-8.82-8.82V69.92a1.63,1.63,0,0,0-1.63-1.63h-3.25a1.63,1.63,0,0,0-1.62,1.63V83.6l-4.88-5.13-15-15a1.62,1.62,0,0,0-2.3,0L78.59,97.89a1.64,1.64,0,0,0,0,2.3l2.3,2.3a1.64,1.64,0,0,0,2.3,0l26.43-26.43a6.49,6.49,0,0,1,9.19,0l26.43,26.43a6.51,6.51,0,0,1,0,9.19l-2.3,2.3a6.49,6.49,0,0,1-9.19,0L115.36,95.59a1.64,1.64,0,0,0-2.3,0L94.68,114a1.62,1.62,0,0,0,0,2.3l2.3,2.29a1.61,1.61,0,0,0,2.29,0l10.35-10.34a6.49,6.49,0,0,1,9.19,0l10.34,10.34a6.51,6.51,0,0,1,0,9.2L118,138.89a3.21,3.21,0,0,1-1,2.09,3.25,3.25,0,1,1-2.5-5.54l11.12-11.12a1.62,1.62,0,0,0,0-2.3l-10.34-10.34a1.62,1.62,0,0,0-2.3,0L102.72,122a6.49,6.49,0,0,1-9.19,0l-2.3-2.3a6.49,6.49,0,0,1,0-9.19l18.39-18.38a6.49,6.49,0,0,1,9.19,0l18.38,18.38a1.64,1.64,0,0,0,2.3,0l2.3-2.3a1.64,1.64,0,0,0,0-2.3L115.36,79.51a1.62,1.62,0,0,0-2.3,0L86.63,105.93a6.49,6.49,0,0,1-9.19,0l-2.3-2.29a6.52,6.52,0,0,1,0-9.2L109.62,60a6.49,6.49,0,0,1,9.19,0l11.6,11.61V69.92a6.5,6.5,0,0,1,6.5-6.5h3.25a6.5,6.5,0,0,1,6.5,6.5V87.83l7.4,7.39a3.25,3.25,0,0,1,2.09,5.54Z"/><path class="a138e737-1180-43c5-ad53-b28288d8c00d" d="M612.42,61H624.1v3.65h-3.71v11H616.1v-11h-3.68Zm13.09,0h4.72l3.34,7.78L637,61h4.72V75.62h-3.85V67.39l-2.77,6.81h-2.92l-2.77-6.81v8.23h-3.85Z"/><path class="a138e737-1180-43c5-ad53-b28288d8c00d" d="M271.65,61v78H254.31V107h-34v32H202.92V61h17.35V91.75h34V61Zm10.65,39c0-22.41,16.77-39,39.65-39s39.64,16.48,39.64,39S344.72,139,322,139,282.3,122.41,282.3,100Zm62.09.39c0-14.19-9.63-23.9-22.44-23.9s-22.45,9.71-22.45,23.9,9.64,23.89,22.45,23.89S344.39,114.57,344.39,100.39ZM368.8,100c0-22.41,16.77-39,39.65-39s39.64,16.48,39.64,39-16.87,39-39.64,39S368.8,122.41,368.8,100Zm62.09.39c0-14.19-9.63-23.9-22.44-23.9S386,86.2,386,100.39s9.64,23.89,22.45,23.89S430.89,114.57,430.89,100.39Zm96.58,17.33c0,13.48-10.28,21.28-30,21.28H458.74V61h36.61c18.74,0,28.38,8.13,28.38,20.28a18.86,18.86,0,0,1-10,17.16C522.12,101.23,527.47,107.91,527.47,117.72ZM476.71,76.06V93.67h16.5c8.1,0,12.5-3,12.5-8.86s-4.4-8.75-12.5-8.75Zm32.59,39.47c0-6.29-4.61-9.28-13.22-9.28H476.71v18.46h19.37C504.69,124.71,509.3,121.93,509.3,115.53Zm23.38,14.74,5.69-13.14A41.52,41.52,0,0,0,562.28,125c9.94,0,14-3.44,14-8.08,0-14.11-42.13-4.41-42.13-32.42,0-12.82,9.94-23.49,30.53-23.49,9.11,0,18.43,2.26,25.16,6.68l-5.18,13.25A39.67,39.67,0,0,0,564.56,75c-9.94,0-13.77,3.87-13.77,8.61,0,13.9,42.13,4.31,42.13,32,0,12.61-10,23.38-30.74,23.38C550.69,139,539.1,135.44,532.68,130.27Z"/><g class="bcc80fad-665a-4e98-ba22-cf522f005403"><path class="fe2846fc-59bd-4469-87b4-00ac5e88d13c" d="M939.31,79.14l9.13,25.78,9.09-25.78h9.61v35.54H959.8V105l.73-16.78-9.6,26.49h-5l-9.57-26.46.74,16.75v9.71h-7.33V79.14Z"/><path class="fe2846fc-59bd-4469-87b4-00ac5e88d13c" d="M973,81.43a3.45,3.45,0,0,1,1.06-2.61,4.56,4.56,0,0,1,5.77,0,3.72,3.72,0,0,1,0,5.25,4.53,4.53,0,0,1-5.73,0A3.45,3.45,0,0,1,973,81.43Zm7.49,33.25h-7.08V88.27h7.08Z"/><path class="fe2846fc-59bd-4469-87b4-00ac5e88d13c" d="M994.12,108.8h15.55v5.88H986.8V79.14h7.32Z"/><path class="fe2846fc-59bd-4469-87b4-00ac5e88d13c" d="M1013.36,81.43a3.45,3.45,0,0,1,1.06-2.61,4.57,4.57,0,0,1,5.78,0,3.73,3.73,0,0,1,0,5.25,4.53,4.53,0,0,1-5.73,0A3.45,3.45,0,0,1,1013.36,81.43Zm7.5,33.25h-7.08V88.27h7.08Z"/><path class="fe2846fc-59bd-4469-87b4-00ac5e88d13c" d="M1025.64,101.28q0-6.07,2.89-9.79a9.39,9.39,0,0,1,7.8-3.71,8.22,8.22,0,0,1,6.77,3l.29-2.49h6.4V113.8a11.25,11.25,0,0,1-1.58,6,10.1,10.1,0,0,1-4.43,3.91,15.48,15.48,0,0,1-6.69,1.34,14.34,14.34,0,0,1-5.66-1.16,10.08,10.08,0,0,1-4.18-3l3.13-4.29a8.24,8.24,0,0,0,6.39,3,6.05,6.05,0,0,0,4.37-1.5,5.6,5.6,0,0,0,1.57-4.26v-1.42a8.17,8.17,0,0,1-6.42,2.76,9.36,9.36,0,0,1-7.71-3.72q-2.94-3.72-2.94-9.88Zm7.06.53a9.63,9.63,0,0,0,1.44,5.63,4.58,4.58,0,0,0,3.95,2,4.9,4.9,0,0,0,4.62-2.42V95.94a4.89,4.89,0,0,0-4.57-2.42,4.6,4.6,0,0,0-4,2.08Q1032.7,97.67,1032.7,101.81Z"/><path class="fe2846fc-59bd-4469-87b4-00ac5e88d13c" d="M1062.09,91.15a8.79,8.79,0,0,1,7.06-3.37q8.6,0,8.71,10v16.92h-7V98a4.94,4.94,0,0,0-1-3.36,4.2,4.2,0,0,0-3.25-1.08,4.8,4.8,0,0,0-4.49,2.39v18.77h-7V77.18h7Z"/><path class="fe2846fc-59bd-4469-87b4-00ac5e88d13c" d="M1091.63,81.77v6.5h4.52v5.17h-4.52v13.19a3.2,3.2,0,0,0,.56,2.1,2.84,2.84,0,0,0,2.15.63,11.74,11.74,0,0,0,2.08-.17v5.35a14.68,14.68,0,0,1-4.28.63c-4.94,0-7.47-2.5-7.56-7.49V93.44h-3.86V88.27h3.86v-6.5Z"/><path class="fe2846fc-59bd-4469-87b4-00ac5e88d13c" d="M1141.92,114.68h-7.32V99.45h-14.28v15.23H1113V79.14h7.33v14.4h14.28V79.14h7.32Z"/><path class="fe2846fc-59bd-4469-87b4-00ac5e88d13c" d="M1163.68,112a8.86,8.86,0,0,1-7.23,3.17,8.34,8.34,0,0,1-6.48-2.44q-2.23-2.45-2.28-7.15V88.27h7v17.08c0,2.76,1.26,4.13,3.76,4.13s4-.83,4.93-2.49V88.27h7.08v26.41h-6.64Z"/><path class="fe2846fc-59bd-4469-87b4-00ac5e88d13c" d="M1199.64,101.72q0,6.34-2.71,9.9a9,9,0,0,1-7.57,3.55,8.27,8.27,0,0,1-6.86-3.29l-.32,2.8h-6.34V77.18h7.05V90.64a8,8,0,0,1,6.42-2.86,9,9,0,0,1,7.58,3.55q2.74,3.56,2.75,10Zm-7.06-.51q0-4-1.27-5.85a4.27,4.27,0,0,0-3.78-1.84,4.66,4.66,0,0,0-4.64,2.76V106.7a4.71,4.71,0,0,0,4.69,2.78,4.35,4.35,0,0,0,4.49-3.37A17.42,17.42,0,0,0,1192.58,101.21Z"/></g><path class="b638570d-f11d-46d5-86e5-c4b782a7ab0a" d="M779.66,114.68c-.21-1.77-.52-3.38-.58-5-.11-2.69-.08-5.38-.08-8.07V41.74c0-1.7,0-1.7,1.74-1.7,5,0,10.07.1,15.09,0a15.32,15.32,0,0,1,6.62,1.47c6.07,2.61,12.17,5.15,18.25,7.72,3.34,1.42,6.68,2.83,10,4.3a4,4,0,0,0,3.48.07c5.6-2.39,11.23-4.72,16.84-7.1,4.73-2,9.45-4.05,14.18-6.05a4.61,4.61,0,0,1,1.76-.35c5.81,0,11.62,0,17.44,0,1.13,0,1.58.27,1.58,1.51-.06,9,0,18,0,27.07a1.52,1.52,0,0,1-1.06,1.66c-3.83,1.6-7.63,3.25-11.44,4.88-1.82.78-3.65,1.54-5.47,2.35s-2,.64-2-1.21q0-6.51,0-13c0-1.35-.28-1.52-1.41-1-4.92,2.12-9.84,4.24-14.77,6.32-5.4,2.29-10.85,4.5-16.23,6.86a3.2,3.2,0,0,1-2.82-.31Q818.35,69.9,806,64.65c-1.71-.72-3.42-1.45-5.1-2.24-1.51-.7-1.82-.55-1.82,1.12q0,19.73,0,39.44c0,3.58,0,3.56-3.32,5-4.89,2.08-9.76,4.19-14.64,6.28C780.74,114.4,780.32,114.48,779.66,114.68Z"/><path class="b638570d-f11d-46d5-86e5-c4b782a7ab0a" d="M885.86,84.54c0,.68.06,1.1.06,1.52,0,6.94,0,13.88,0,20.82a53.83,53.83,0,0,1-3,17.32,52.9,52.9,0,0,1-16.91,24,51.34,51.34,0,0,1-16.52,9,53.49,53.49,0,0,1-59.91-18.88c-2.19-2.91-3.81-6.27-5.68-9.43-.42-.71-.22-1.15.59-1.49,5.19-2.15,10.39-4.26,15.52-6.56,1.4-.63,1.94-.51,2.63.87a31.88,31.88,0,0,0,7,9.3,34,34,0,0,0,9.25,6.14,33.57,33.57,0,0,0,45.46-20A29.69,29.69,0,0,0,866,107.07c-.06-4.2,0-8.41,0-12.62a2,2,0,0,1,1.42-2.16c4.54-1.91,9.07-3.86,13.6-5.77C882.49,85.87,884.05,85.27,885.86,84.54Z"/></svg>