<svg id="b86151f2-71cb-4d9d-9f16-1d13e308cda0" data-name="Ebene 1" xmlns="http://www.w3.org/2000/svg" viewBox="0 0 1680 200"><defs><style>.a0ae6976-461b-422f-89b1-c637385c5b24{fill:none;stroke:#ccc;stroke-miterlimit:10;}.a6644163-3e31-450b-a4dc-d8b5dcb8bd76{fill:#f9b213;}.babbe8e6-53cd-4bb2-9365-f1e20ed38c11{fill:#64a70a;}.b7fc326b-44fd-4930-898d-67ec5c16c69d{isolation:isolate;}.b845aafd-cc14-435b-a319-0c78da015e52{fill:#ccc;}</style></defs><title>HOOBS_x_roomba</title><g id="fb9f3e82-acc8-4f76-abc4-eae41b5d89ff" data-name="Stroke"><line class="a0ae6976-461b-422f-89b1-c637385c5b24" x1="700.5" y1="60" x2="700.5" y2="140"/></g><path class="a6644163-3e31-450b-a4dc-d8b5dcb8bd76" d="M154.17,41.5h-78A19.5,19.5,0,0,0,56.67,61v78a19.5,19.5,0,0,0,19.5,19.5h78a19.5,19.5,0,0,0,19.5-19.5V61A19.5,19.5,0,0,0,154.17,41.5Zm2,59.26a3.24,3.24,0,0,1-4.59,0,3.21,3.21,0,0,1-.95-2.09l-8.82-8.82V69.92a1.63,1.63,0,0,0-1.63-1.63h-3.25a1.63,1.63,0,0,0-1.62,1.63V83.6l-4.88-5.13-15-15a1.62,1.62,0,0,0-2.3,0L78.59,97.89a1.64,1.64,0,0,0,0,2.3l2.3,2.3a1.64,1.64,0,0,0,2.3,0l26.43-26.43a6.49,6.49,0,0,1,9.19,0l26.43,26.43a6.51,6.51,0,0,1,0,9.19l-2.3,2.3a6.49,6.49,0,0,1-9.19,0L115.36,95.59a1.64,1.64,0,0,0-2.3,0L94.68,114a1.62,1.62,0,0,0,0,2.3l2.3,2.29a1.61,1.61,0,0,0,2.29,0l10.35-10.34a6.49,6.49,0,0,1,9.19,0l10.34,10.34a6.51,6.51,0,0,1,0,9.2L118,138.89a3.21,3.21,0,0,1-1,2.09,3.25,3.25,0,1,1-2.5-5.54l11.12-11.12a1.62,1.62,0,0,0,0-2.3l-10.34-10.34a1.62,1.62,0,0,0-2.3,0L102.72,122a6.49,6.49,0,0,1-9.19,0l-2.3-2.3a6.49,6.49,0,0,1,0-9.19l18.39-18.38a6.49,6.49,0,0,1,9.19,0l18.38,18.38a1.64,1.64,0,0,0,2.3,0l2.3-2.3a1.64,1.64,0,0,0,0-2.3L115.36,79.51a1.62,1.62,0,0,0-2.3,0L86.63,105.93a6.49,6.49,0,0,1-9.19,0l-2.3-2.29a6.52,6.52,0,0,1,0-9.2L109.62,60a6.49,6.49,0,0,1,9.19,0l11.6,11.61V69.92a6.5,6.5,0,0,1,6.5-6.5h3.25a6.5,6.5,0,0,1,6.5,6.5V87.83l7.4,7.39a3.25,3.25,0,0,1,2.09,5.54Z"/><path class="a6644163-3e31-450b-a4dc-d8b5dcb8bd76" d="M612.42,61H624.1v3.65h-3.71v11H616.1v-11h-3.68Zm13.09,0h4.72l3.34,7.78L637,61h4.72V75.62h-3.85V67.39l-2.77,6.81h-2.92l-2.77-6.81v8.23h-3.85Z"/><path class="a6644163-3e31-450b-a4dc-d8b5dcb8bd76" d="M271.65,61v78H254.31V107h-34v32H202.92V61h17.35V91.75h34V61Zm10.65,39c0-22.41,16.77-39,39.65-39s39.64,16.48,39.64,39S344.72,139,322,139,282.3,122.41,282.3,100Zm62.09.39c0-14.19-9.63-23.9-22.44-23.9s-22.45,9.71-22.45,23.9,9.64,23.89,22.45,23.89S344.39,114.57,344.39,100.39ZM368.8,100c0-22.41,16.77-39,39.65-39s39.64,16.48,39.64,39-16.87,39-39.64,39S368.8,122.41,368.8,100Zm62.09.39c0-14.19-9.63-23.9-22.44-23.9S386,86.2,386,100.39s9.64,23.89,22.45,23.89S430.89,114.57,430.89,100.39Zm96.58,17.33c0,13.48-10.28,21.28-30,21.28H458.74V61h36.61c18.74,0,28.38,8.13,28.38,20.28a18.86,18.86,0,0,1-10,17.16C522.12,101.23,527.47,107.91,527.47,117.72ZM476.71,76.06V93.67h16.5c8.1,0,12.5-3,12.5-8.86s-4.4-8.75-12.5-8.75Zm32.59,39.47c0-6.29-4.61-9.28-13.22-9.28H476.71v18.46h19.37C504.69,124.71,509.3,121.93,509.3,115.53Zm23.38,14.74,5.69-13.14A41.52,41.52,0,0,0,562.28,125c9.94,0,14-3.44,14-8.08,0-14.11-42.13-4.41-42.13-32.42,0-12.82,9.94-23.49,30.53-23.49,9.11,0,18.43,2.26,25.16,6.68l-5.18,13.25A39.67,39.67,0,0,0,564.56,75c-9.94,0-13.77,3.87-13.77,8.61,0,13.9,42.13,4.31,42.13,32,0,12.61-10,23.38-30.74,23.38C550.69,139,539.1,135.44,532.68,130.27Z"/><g id="b1763890-1df8-49bc-b316-008784e44db3" data-name="g12"><path id="a540149d-d277-4263-a58d-ac1d4f1e97c5" data-name="path320" class="babbe8e6-53cd-4bb2-9365-f1e20ed38c11" d="M1157.63,98h14.86l3.54-17.1h-14.86l3.93-18.94h-21.82L1132,116.69a32,32,0,0,0-.85,7.8,11.37,11.37,0,0,0,3,7.23,14.82,14.82,0,0,0,5.62,4.09,19.65,19.65,0,0,0,7.13,1.11h16.94l3.41-16.4h-8.69a7.35,7.35,0,0,1-4.53-1.08c-.28-.25-.73-.63-.42-2.09l4-19.4Z"/><path id="bba706ef-4b2c-4181-a8b7-9ae9e866a0f1" data-name="path322" class="babbe8e6-53cd-4bb2-9365-f1e20ed38c11" d="M794.94,61.46l-3.76,18.11h23.61l3.74-18.13Z"/><path id="e5eb8c60-e333-43fb-ad78-9878ca107d5e" data-name="path324" class="babbe8e6-53cd-4bb2-9365-f1e20ed38c11" d="M866.75,110l14.55,26.45h27.21L891.69,107a49.55,49.55,0,0,0,7.7-5.4,29.38,29.38,0,0,0,8.11-14.12c1.49-7.15.18-13.32-3.85-18.35-4.53-5.6-13.24-7.59-19.25-7.59H828.83L825,79.57h46.63c3.85,0,6.64.66,8.39,1.94a3.35,3.35,0,0,1,1.28,3.91c-.43,2-2,3.71-4.8,5.14a18.22,18.22,0,0,1-8.35,2H846.41l1.71-7.38H823.73l-10.86,51.34h24.29l5.46-26.45Z"/><path id="ac39f5a0-16d0-4211-a8a3-87ec01bd1b3b" data-name="path326" class="babbe8e6-53cd-4bb2-9365-f1e20ed38c11" d="M790.23,85.13l-10.84,51.34h23.73l10.72-51.34Z"/><path id="f7e59f7d-646c-4587-97a6-4757bc04e823" data-name="path328" class="babbe8e6-53cd-4bb2-9365-f1e20ed38c11" d="M953.29,107.54a19.47,19.47,0,0,1-5.57,10.63,15,15,0,0,1-10.59,3.62c-3.7,0-6.36-1.08-8.14-3.29s-2.25-5.21-1.44-9.14a14.24,14.24,0,0,1,5.44-8.64,15.94,15.94,0,0,1,10.14-3.44c4,0,6.78,1,8.55,3a7.88,7.88,0,0,1,1.61,7.29m18.59-20c-5.67-4.89-14-7.38-24.63-7.38a50.73,50.73,0,0,0-25.67,6.61c-8.76,5-14.11,12-15.91,20.65-2.22,10.7.17,18.88,7.08,24.39,5.61,4.43,13.94,6.67,24.77,6.67,9.94,0,18.53-2.17,25.56-6.41a30.05,30.05,0,0,0,14.48-20.17l.61-2.88c1.86-9-.25-16.22-6.29-21.44"/><path id="f96a45c5-dcae-4214-ae49-6186b2108d45" data-name="path330" class="babbe8e6-53cd-4bb2-9365-f1e20ed38c11" d="M1106.33,107.54a19,19,0,0,1-5.56,10.63,15,15,0,0,1-10.6,3.62c-3.69,0-6.35-1.08-8.13-3.29s-2.25-5.21-1.43-9.14a14.13,14.13,0,0,1,5.43-8.64,15.92,15.92,0,0,1,10.14-3.44c4,0,6.77,1,8.54,3a7.86,7.86,0,0,1,1.61,7.28m17.07-20c-5.66-4.89-14-7.38-24.63-7.38a50.73,50.73,0,0,0-25.67,6.61c-8.76,5-14.12,12-15.93,20.65-2.21,10.7.18,18.88,7.09,24.39,5.62,4.43,14,6.67,24.78,6.67,9.93,0,18.53-2.17,25.55-6.41a30.11,30.11,0,0,0,14.49-20.17l.59-2.88c1.86-9-.24-16.22-6.27-21.44"/><path id="bce1ac5d-7376-4eda-8136-524b67ad1927" data-name="path332" class="babbe8e6-53cd-4bb2-9365-f1e20ed38c11" d="M1030,107.54a19.07,19.07,0,0,1-5.56,10.63,15,15,0,0,1-10.57,3.62c-3.71,0-6.42-1.08-8.14-3.29-.41-.49-.45-1.28-.42-3a53.13,53.13,0,0,1,2.43-11.71,6.71,6.71,0,0,1,2-3.11,15.89,15.89,0,0,1,10.13-3.44c4,0,6.8,1,8.56,3a7.87,7.87,0,0,1,1.59,7.29m17-20c-5.86-4.86-14.12-7.34-24.58-7.34a57.26,57.26,0,0,0-11.81,1.29l4.74-20h-23.1l-8.63,38.65c-.28,1.28-2.73,13-2.65,17.66a18.2,18.2,0,0,0,7,14.12c5.6,4.42,13.94,6.67,24.79,6.67,9.92,0,18.5-2.17,25.52-6.42a30,30,0,0,0,14.48-20.28V112c.16-.67,3.85-16.53-5.71-24.47"/></g><g class="b7fc326b-44fd-4930-898d-67ec5c16c69d"><path class="b845aafd-cc14-435b-a319-0c78da015e52" d="M1234.67,93.87a42,42,0,0,0-5.41-.41q-8.52,0-11.18,5.77v36.83h-15V79.78h14.2l.41,6.71q4.53-7.76,12.54-7.75a15.81,15.81,0,0,1,4.68.67Z"/><path class="b845aafd-cc14-435b-a319-0c78da015e52" d="M1237.69,107.4a33.23,33.23,0,0,1,3.23-14.93,23.51,23.51,0,0,1,9.28-10.14,27,27,0,0,1,14.07-3.59q11.38,0,18.6,7t8,18.93l.11,3.85q0,12.95-7.23,20.78t-19.41,7.83q-12.16,0-19.42-7.8t-7.26-21.23Zm15,1.06q0,8,3,12.27a10.82,10.82,0,0,0,17.16,0q3.07-4.19,3.07-13.41,0-7.86-3.07-12.19a10,10,0,0,0-8.63-4.32,9.81,9.81,0,0,0-8.53,4.29Q1252.72,99.45,1252.72,108.46Z"/><path class="b845aafd-cc14-435b-a319-0c78da015e52" d="M1297.92,107.4a33.37,33.37,0,0,1,3.23-14.93,23.57,23.57,0,0,1,9.28-10.14,27,27,0,0,1,14.07-3.59q11.4,0,18.6,7t8,18.93l.1,3.85q0,12.95-7.23,20.78t-19.4,7.83q-12.18,0-19.43-7.8t-7.26-21.23Zm15,1.06q0,8,3,12.27a10.83,10.83,0,0,0,17.17,0q3.06-4.19,3.07-13.41,0-7.86-3.07-12.19a10,10,0,0,0-8.64-4.32,9.82,9.82,0,0,0-8.53,4.29Q1313,99.45,1313,108.46Z"/><path class="b845aafd-cc14-435b-a319-0c78da015e52" d="M1374.6,79.78l.46,6.29q6-7.33,16.18-7.33,10.88,0,14.93,8.58,5.92-8.58,16.9-8.58,9.17,0,13.63,5.33t4.48,16v36h-15.09V100.17q0-4.78-1.87-7T1417.61,91q-6.77,0-9.36,6.45l0,38.65h-15V100.22q0-4.89-1.93-7.07T1384.79,91q-6.39,0-9.26,5.31v39.79h-15V79.78Z"/><path class="b845aafd-cc14-435b-a319-0c78da015e52" d="M1503.44,108.44q0,13.52-5.77,21.09t-16.13,7.57a17.58,17.58,0,0,1-14.62-7l-.67,6h-13.53V56.16h15V84.82a17.12,17.12,0,0,1,13.68-6.08q10.29,0,16.15,7.57t5.85,21.29Zm-15-1.09q0-8.53-2.71-12.46a9.14,9.14,0,0,0-8.06-3.93q-7.19,0-9.88,5.88v22.21q2.74,5.92,10,5.93t9.57-7.18A36.88,36.88,0,0,0,1488.41,107.35Z"/><path class="b845aafd-cc14-435b-a319-0c78da015e52" d="M1545.31,136.06a17,17,0,0,1-1.51-5.05,18.17,18.17,0,0,1-14.2,6.09,20,20,0,0,1-13.7-4.79,15.37,15.37,0,0,1-5.44-12.06q0-9,6.63-13.74t19.17-4.83h6.92V98.45a9.3,9.3,0,0,0-2-6.24q-2-2.34-6.32-2.34a9,9,0,0,0-6,1.82,6.18,6.18,0,0,0-2.16,5h-15a15.06,15.06,0,0,1,3-9.05,20,20,0,0,1,8.53-6.53,31.2,31.2,0,0,1,12.38-2.36q10.39,0,16.51,5.22t6.11,14.7v24.39q.06,8,2.24,12.12v.89Zm-12.43-10.46a13,13,0,0,0,6.14-1.48,9.72,9.72,0,0,0,4.16-4v-9.67h-5.62q-11.28,0-12,7.8l0,.88a6,6,0,0,0,2,4.63A7.65,7.65,0,0,0,1532.88,125.6Z"/></g></svg>