<svg id="f4197bee-0747-4848-b3b9-4e665ea9e473" data-name="Ebene 1" xmlns="http://www.w3.org/2000/svg" viewBox="0 0 1680 200"><defs><style>.ea40802d-d6cd-414c-9b79-09e80ba6efa8{fill:none;stroke:#ccc;stroke-miterlimit:10;}.aa53519f-ff5c-4af8-ad9a-43423e49c759{fill:#f9b213;}.ab26ccd6-d219-41f1-b84f-963063a4b977{isolation:isolate;}.bda5bfcc-90f2-4939-a50f-2e547adc35c0{fill:#ccc;}</style></defs><title>HOOBS_x_dummyswitch</title><g id="e77f4d15-7450-4b33-91f8-fdbcd131da93" data-name="Stroke"><line class="ea40802d-d6cd-414c-9b79-09e80ba6efa8" x1="700.5" y1="60" x2="700.5" y2="140"/></g><path class="aa53519f-ff5c-4af8-ad9a-43423e49c759" d="M154.17,41.5h-78A19.5,19.5,0,0,0,56.67,61v78a19.5,19.5,0,0,0,19.5,19.5h78a19.5,19.5,0,0,0,19.5-19.5V61A19.5,19.5,0,0,0,154.17,41.5Zm2,59.26a3.24,3.24,0,0,1-4.59,0,3.21,3.21,0,0,1-.95-2.09l-8.82-8.82V69.92a1.63,1.63,0,0,0-1.63-1.63h-3.25a1.63,1.63,0,0,0-1.62,1.63V83.6l-4.88-5.13-15-15a1.62,1.62,0,0,0-2.3,0L78.59,97.89a1.64,1.64,0,0,0,0,2.3l2.3,2.3a1.64,1.64,0,0,0,2.3,0l26.43-26.43a6.49,6.49,0,0,1,9.19,0l26.43,26.43a6.51,6.51,0,0,1,0,9.19l-2.3,2.3a6.49,6.49,0,0,1-9.19,0L115.36,95.59a1.64,1.64,0,0,0-2.3,0L94.68,114a1.62,1.62,0,0,0,0,2.3l2.3,2.29a1.61,1.61,0,0,0,2.29,0l10.35-10.34a6.49,6.49,0,0,1,9.19,0l10.34,10.34a6.51,6.51,0,0,1,0,9.2L118,138.89a3.21,3.21,0,0,1-1,2.09,3.25,3.25,0,1,1-2.5-5.54l11.12-11.12a1.62,1.62,0,0,0,0-2.3l-10.34-10.34a1.62,1.62,0,0,0-2.3,0L102.72,122a6.49,6.49,0,0,1-9.19,0l-2.3-2.3a6.49,6.49,0,0,1,0-9.19l18.39-18.38a6.49,6.49,0,0,1,9.19,0l18.38,18.38a1.64,1.64,0,0,0,2.3,0l2.3-2.3a1.64,1.64,0,0,0,0-2.3L115.36,79.51a1.62,1.62,0,0,0-2.3,0L86.63,105.93a6.49,6.49,0,0,1-9.19,0l-2.3-2.29a6.52,6.52,0,0,1,0-9.2L109.62,60a6.49,6.49,0,0,1,9.19,0l11.6,11.61V69.92a6.5,6.5,0,0,1,6.5-6.5h3.25a6.5,6.5,0,0,1,6.5,6.5V87.83l7.4,7.39a3.25,3.25,0,0,1,2.09,5.54Z"/><path class="aa53519f-ff5c-4af8-ad9a-43423e49c759" d="M612.42,61H624.1v3.65h-3.71v11H616.1v-11h-3.68Zm13.09,0h4.72l3.34,7.78L637,61h4.72V75.62h-3.85V67.39l-2.77,6.81h-2.92l-2.77-6.81v8.23h-3.85Z"/><path class="aa53519f-ff5c-4af8-ad9a-43423e49c759" d="M271.65,61v78H254.31V107h-34v32H202.92V61h17.35V91.75h34V61Zm10.65,39c0-22.41,16.77-39,39.65-39s39.64,16.48,39.64,39S344.72,139,322,139,282.3,122.41,282.3,100Zm62.09.39c0-14.19-9.63-23.9-22.44-23.9s-22.45,9.71-22.45,23.9,9.64,23.89,22.45,23.89S344.39,114.57,344.39,100.39ZM368.8,100c0-22.41,16.77-39,39.65-39s39.64,16.48,39.64,39-16.87,39-39.64,39S368.8,122.41,368.8,100Zm62.09.39c0-14.19-9.63-23.9-22.44-23.9S386,86.2,386,100.39s9.64,23.89,22.45,23.89S430.89,114.57,430.89,100.39Zm96.58,17.33c0,13.48-10.28,21.28-30,21.28H458.74V61h36.61c18.74,0,28.38,8.13,28.38,20.28a18.86,18.86,0,0,1-10,17.16C522.12,101.23,527.47,107.91,527.47,117.72ZM476.71,76.06V93.67h16.5c8.1,0,12.5-3,12.5-8.86s-4.4-8.75-12.5-8.75Zm32.59,39.47c0-6.29-4.61-9.28-13.22-9.28H476.71v18.46h19.37C504.69,124.71,509.3,121.93,509.3,115.53Zm23.38,14.74,5.69-13.14A41.52,41.52,0,0,0,562.28,125c9.94,0,14-3.44,14-8.08,0-14.11-42.13-4.41-42.13-32.42,0-12.82,9.94-23.49,30.53-23.49,9.11,0,18.43,2.26,25.16,6.68l-5.18,13.25A39.67,39.67,0,0,0,564.56,75c-9.94,0-13.77,3.87-13.77,8.61,0,13.9,42.13,4.31,42.13,32,0,12.61-10,23.38-30.74,23.38C550.69,139,539.1,135.44,532.68,130.27Z"/><g class="ab26ccd6-d219-41f1-b84f-963063a4b977"><path class="bda5bfcc-90f2-4939-a50f-2e547adc35c0" d="M1001.63,123.81V66.93h16.06a25.89,25.89,0,0,1,13.12,3.28,22.15,22.15,0,0,1,8.81,9.34,30.45,30.45,0,0,1,3.15,13.91v3.63a30.52,30.52,0,0,1-3.11,14.1,21.78,21.78,0,0,1-8.87,9.3,27.46,27.46,0,0,1-13.41,3.32Zm7.5-50.74v44.6h7.9q8.67,0,13.49-5.39t4.83-15.37V93.59q0-9.69-4.56-15.07t-12.91-5.45Z"/><path class="bda5bfcc-90f2-4939-a50f-2e547adc35c0" d="M1079.06,119.63c-2.82,3.31-6.94,5-12.39,5q-6.75,0-10.29-3.93T1052.81,109V81.54H1060v27.31q0,9.6,7.82,9.61,8.28,0,11-6.18V81.54h7.23v42.27h-6.88Z"/><path class="bda5bfcc-90f2-4939-a50f-2e547adc35c0" d="M1103.86,81.54l.2,4.69q4.65-5.48,12.54-5.47,8.87,0,12.07,6.8a16,16,0,0,1,5.48-4.92,16.25,16.25,0,0,1,8-1.88q13.9,0,14.14,14.73v28.32h-7.22V95.92q0-4.53-2.07-6.78t-7-2.25a9.55,9.55,0,0,0-6.68,2.41,9.7,9.7,0,0,0-3.08,6.46v28.05H1123V96.11q0-9.21-9-9.22-7.11,0-9.73,6.06v30.86H1097V81.54Z"/><path class="bda5bfcc-90f2-4939-a50f-2e547adc35c0" d="M1174,81.54l.19,4.69q4.65-5.48,12.54-5.47,8.86,0,12.07,6.8a15.76,15.76,0,0,1,13.48-6.8q13.9,0,14.14,14.73v28.32h-7.23V95.92q0-4.53-2.07-6.78c-1.38-1.5-3.69-2.25-6.95-2.25a9.55,9.55,0,0,0-6.68,2.41,9.75,9.75,0,0,0-3.09,6.46v28.05h-7.26V96.11q0-9.21-9-9.22-7.11,0-9.73,6.06v30.86h-7.23V81.54Z"/><path class="bda5bfcc-90f2-4939-a50f-2e547adc35c0" d="M1251.13,113.22,1261,81.54h7.74l-17,48.79q-3.95,10.54-12.54,10.55l-1.36-.12-2.7-.51v-5.86l2,.16a9.71,9.71,0,0,0,5.73-1.48q2-1.48,3.38-5.43l1.6-4.3-15.08-41.8h7.89Z"/><path class="bda5bfcc-90f2-4939-a50f-2e547adc35c0" d="M1312.85,98.46q-9.66-2.77-14-6.82a13,13,0,0,1-4.39-10,13.75,13.75,0,0,1,5.37-11.11q5.37-4.39,14-4.4a23.3,23.3,0,0,1,10.45,2.27,17.16,17.16,0,0,1,7.11,6.25,16,16,0,0,1,2.52,8.71h-7.54a10.41,10.41,0,0,0-3.28-8.14q-3.29-3-9.26-3c-3.69,0-6.58.82-8.65,2.45a8.15,8.15,0,0,0-3.1,6.79,7.33,7.33,0,0,0,3,5.89q2.94,2.4,10,4.4a46.63,46.63,0,0,1,11.1,4.4,16.8,16.8,0,0,1,5.94,5.61,14.34,14.34,0,0,1,1.93,7.53,13.3,13.3,0,0,1-5.39,11.08q-5.38,4.16-14.42,4.16a26.66,26.66,0,0,1-10.93-2.25,18.31,18.31,0,0,1-7.83-6.15,15,15,0,0,1-2.76-8.87h7.54a9.8,9.8,0,0,0,3.81,8.15q3.81,3,10.17,3,5.94,0,9.11-2.43a7.85,7.85,0,0,0,3.16-6.6,7.73,7.73,0,0,0-2.93-6.46Q1320.55,100.68,1312.85,98.46Z"/><path class="bda5bfcc-90f2-4939-a50f-2e547adc35c0" d="M1379.84,113.85,1388,81.54h7.23l-12.31,42.27H1377l-10.28-32-10,32h-5.86l-12.26-42.27h7.18l8.32,31.64L1364,81.54h5.82Z"/><path class="bda5bfcc-90f2-4939-a50f-2e547adc35c0" d="M1402.57,70.33a4.31,4.31,0,0,1,1.08-3,4,4,0,0,1,3.18-1.21,4.11,4.11,0,0,1,3.2,1.21,4.28,4.28,0,0,1,1.1,3,3.92,3.92,0,0,1-4.3,4.1,4.09,4.09,0,0,1-3.18-1.17A4.16,4.16,0,0,1,1402.57,70.33Zm7.81,53.48h-7.22V81.54h7.22Z"/><path class="bda5bfcc-90f2-4939-a50f-2e547adc35c0" d="M1431.75,71.31V81.54h7.89v5.59h-7.89v26.24a5.84,5.84,0,0,0,1.06,3.82,4.45,4.45,0,0,0,3.59,1.27,17.78,17.78,0,0,0,3.44-.47v5.82a21,21,0,0,1-5.55.78q-4.85,0-7.3-2.93c-1.64-2-2.46-4.73-2.46-8.32V87.13h-7.7V81.54h7.7V71.31Z"/><path class="bda5bfcc-90f2-4939-a50f-2e547adc35c0" d="M1465,118.69a10.43,10.43,0,0,0,6.76-2.34,8.22,8.22,0,0,0,3.2-5.86h6.84a13.07,13.07,0,0,1-2.5,6.91,16.59,16.59,0,0,1-6.15,5.24,17.8,17.8,0,0,1-8.15,2q-8.62,0-13.73-5.76t-5.09-15.76v-1.22a25.43,25.43,0,0,1,2.26-11,17.23,17.23,0,0,1,6.5-7.46,18.51,18.51,0,0,1,10-2.66A17,17,0,0,1,1476.81,85a15.21,15.21,0,0,1,5,11H1475a9.94,9.94,0,0,0-3.1-6.74,9.69,9.69,0,0,0-6.9-2.63,10.11,10.11,0,0,0-8.53,4q-3,4-3,11.47v1.37q0,7.31,3,11.25A10.15,10.15,0,0,0,1465,118.69Z"/><path class="bda5bfcc-90f2-4939-a50f-2e547adc35c0" d="M1497.18,86.66a15.37,15.37,0,0,1,12.5-5.9q13.39,0,13.52,15.12v27.93H1516v-28c0-3-.72-5.3-2.09-6.76s-3.5-2.19-6.39-2.19a10.43,10.43,0,0,0-6.17,1.88,12.74,12.74,0,0,0-4.14,4.92v30.12H1490v-60h7.22Z"/><path class="bda5bfcc-90f2-4939-a50f-2e547adc35c0" d="M1551.56,124.59q-8.6,0-14-5.65t-5.39-15.09v-1.33a25.38,25.38,0,0,1,2.4-11.23,18.82,18.82,0,0,1,6.72-7.74,16.92,16.92,0,0,1,9.36-2.79q8.23,0,12.81,5.43t4.57,15.55v3h-28.63a15,15,0,0,0,3.65,10.09,11.46,11.46,0,0,0,8.89,3.85,12.59,12.59,0,0,0,6.48-1.56,16.29,16.29,0,0,0,4.65-4.14l4.41,3.43Q1562.18,124.6,1551.56,124.59Zm-.9-37.89a9.65,9.65,0,0,0-7.35,3.18q-3,3.18-3.67,8.93h21.17v-.55c-.2-3.67-1.19-6.52-3-8.53A9.09,9.09,0,0,0,1550.66,86.7Z"/><path class="bda5bfcc-90f2-4939-a50f-2e547adc35c0" d="M1601,112.6a5.31,5.31,0,0,0-2.21-4.55c-1.47-1.08-4-2-7.69-2.8a36.35,36.35,0,0,1-8.71-2.81,12.38,12.38,0,0,1-4.77-3.91,9.31,9.31,0,0,1-1.54-5.39,11,11,0,0,1,4.39-8.79,17.21,17.21,0,0,1,11.23-3.59q7.18,0,11.66,3.71a11.81,11.81,0,0,1,4.48,9.49h-7.27a6.52,6.52,0,0,0-2.52-5.11,9.46,9.46,0,0,0-6.35-2.15,9.86,9.86,0,0,0-6.17,1.72,5.41,5.41,0,0,0-2.23,4.49,4.37,4.37,0,0,0,2.07,3.94q2.07,1.34,7.49,2.54a39.65,39.65,0,0,1,8.76,2.89,12.87,12.87,0,0,1,5,4,9.92,9.92,0,0,1,1.62,5.76,10.81,10.81,0,0,1-4.53,9.08q-4.55,3.42-11.76,3.42a21.28,21.28,0,0,1-9-1.8,14.62,14.62,0,0,1-6.11-5,12.11,12.11,0,0,1-2.21-7h7.23a7.48,7.48,0,0,0,2.91,5.76,11.29,11.29,0,0,0,7.17,2.13,11.62,11.62,0,0,0,6.58-1.66A5.11,5.11,0,0,0,1601,112.6Z"/></g><path class="bda5bfcc-90f2-4939-a50f-2e547adc35c0" d="M884.94,40.39H795.06a15.07,15.07,0,0,0-15.06,15v89.93a15.09,15.09,0,0,0,15.06,15.07h89.88A15.09,15.09,0,0,0,900,145.32V55.44A15.07,15.07,0,0,0,884.94,40.39Zm11.06,105a11.06,11.06,0,0,1-11.06,11.06H795.06A11.06,11.06,0,0,1,784,145.37V55.44a11.07,11.07,0,0,1,11.06-11h89.88a11.07,11.07,0,0,1,11.06,11Z"/><path class="bda5bfcc-90f2-4939-a50f-2e547adc35c0" d="M868,52.39H812a22,22,0,0,0,0,44h56a22,22,0,0,0,0-44Zm-56,40a18,18,0,0,1,0-36h43.39a22,22,0,0,0,0,36Zm56,0a18,18,0,1,1,18-18h0A18,18,0,0,1,868,92.41Z"/><path class="bda5bfcc-90f2-4939-a50f-2e547adc35c0" d="M868,104.41H812a22,22,0,0,0,0,44h56a22,22,0,0,0,0-44Zm-74,22a18,18,0,1,1,18,18h0A18,18,0,0,1,794,126.42Zm90.87-6.21a17.3,17.3,0,0,1,.85,9.26,2,2,0,0,0-1.72-1,2,2,0,0,0,0,4,1.84,1.84,0,0,0,1.08-.36,18,18,0,0,1-11.44,11.45,1.91,1.91,0,0,0,.36-1.08,2,2,0,1,0-3,1.72,17.72,17.72,0,0,1-3,.28H824.61a22,22,0,0,0,5.76-30.09,2,2,0,0,0-.4-3.89,2,2,0,0,0-1.77,1.13,21.63,21.63,0,0,0-3.59-3.17H868a17.94,17.94,0,0,1,8.9,2.37,2,2,0,1,0,3,2.16,18.13,18.13,0,0,1,3.21,3.72,2,2,0,0,0-1.1,1.76,2,2,0,0,0,2,2A2,2,0,0,0,884.87,120.21Z"/><circle class="bda5bfcc-90f2-4939-a50f-2e547adc35c0" cx="836" cy="118.42" r="2"/><circle class="bda5bfcc-90f2-4939-a50f-2e547adc35c0" cx="842" cy="112.42" r="2"/><circle class="bda5bfcc-90f2-4939-a50f-2e547adc35c0" cx="854" cy="112.42" r="2"/><circle class="bda5bfcc-90f2-4939-a50f-2e547adc35c0" cx="848" cy="118.42" r="2"/><circle class="bda5bfcc-90f2-4939-a50f-2e547adc35c0" cx="860" cy="118.42" r="2"/><circle class="bda5bfcc-90f2-4939-a50f-2e547adc35c0" cx="866" cy="112.42" r="2"/><circle class="bda5bfcc-90f2-4939-a50f-2e547adc35c0" cx="872" cy="118.42" r="2"/><circle class="bda5bfcc-90f2-4939-a50f-2e547adc35c0" cx="836" cy="130.42" r="2"/><circle class="bda5bfcc-90f2-4939-a50f-2e547adc35c0" cx="836" cy="142.43" r="2"/><circle class="bda5bfcc-90f2-4939-a50f-2e547adc35c0" cx="842" cy="124.42" r="2"/><circle class="bda5bfcc-90f2-4939-a50f-2e547adc35c0" cx="854" cy="124.42" r="2"/><circle class="bda5bfcc-90f2-4939-a50f-2e547adc35c0" cx="842" cy="136.43" r="2"/><circle class="bda5bfcc-90f2-4939-a50f-2e547adc35c0" cx="854" cy="136.43" r="2"/><circle class="bda5bfcc-90f2-4939-a50f-2e547adc35c0" cx="848" cy="130.42" r="2"/><circle class="bda5bfcc-90f2-4939-a50f-2e547adc35c0" cx="860" cy="130.42" r="2"/><circle class="bda5bfcc-90f2-4939-a50f-2e547adc35c0" cx="848" cy="142.43" r="2"/><circle class="bda5bfcc-90f2-4939-a50f-2e547adc35c0" cx="860" cy="142.43" r="2"/><circle class="bda5bfcc-90f2-4939-a50f-2e547adc35c0" cx="866" cy="124.42" r="2"/><circle class="bda5bfcc-90f2-4939-a50f-2e547adc35c0" cx="878" cy="124.42" r="2"/><circle class="bda5bfcc-90f2-4939-a50f-2e547adc35c0" cx="866" cy="136.43" r="2"/><circle class="bda5bfcc-90f2-4939-a50f-2e547adc35c0" cx="878" cy="136.43" r="2"/><circle class="bda5bfcc-90f2-4939-a50f-2e547adc35c0" cx="872" cy="130.42" r="2"/></svg>