<svg id="b665d9f9-2a24-4a28-af59-b7c7ce4ab25a" data-name="Ebene 1" xmlns="http://www.w3.org/2000/svg" viewBox="0 0 1680 200"><defs><style>.add2c73f-03c3-4a73-a6cd-8b860b27ea03{fill:none;stroke:#ccc;stroke-miterlimit:10;}.b92b54b4-f66b-4284-a88a-1c3069759913{fill:#f9b213;}.fd4b97e0-39d6-4f57-9bb6-361673031b01{fill:#ccc;}</style></defs><title>HOOBS_x_meross</title><g id="ba6eff63-75bb-48c2-99df-ff9ed540637c" data-name="Stroke"><line class="add2c73f-03c3-4a73-a6cd-8b860b27ea03" x1="700.5" y1="60" x2="700.5" y2="140"/></g><path class="b92b54b4-f66b-4284-a88a-1c3069759913" d="M154.17,41.5h-78A19.5,19.5,0,0,0,56.67,61v78a19.5,19.5,0,0,0,19.5,19.5h78a19.5,19.5,0,0,0,19.5-19.5V61A19.5,19.5,0,0,0,154.17,41.5Zm2,59.26a3.24,3.24,0,0,1-4.59,0,3.21,3.21,0,0,1-.95-2.09l-8.82-8.82V69.92a1.63,1.63,0,0,0-1.63-1.63h-3.25a1.63,1.63,0,0,0-1.62,1.63V83.6l-4.88-5.13-15-15a1.62,1.62,0,0,0-2.3,0L78.59,97.89a1.64,1.64,0,0,0,0,2.3l2.3,2.3a1.64,1.64,0,0,0,2.3,0l26.43-26.43a6.49,6.49,0,0,1,9.19,0l26.43,26.43a6.51,6.51,0,0,1,0,9.19l-2.3,2.3a6.49,6.49,0,0,1-9.19,0L115.36,95.59a1.64,1.64,0,0,0-2.3,0L94.68,114a1.62,1.62,0,0,0,0,2.3l2.3,2.29a1.61,1.61,0,0,0,2.29,0l10.35-10.34a6.49,6.49,0,0,1,9.19,0l10.34,10.34a6.51,6.51,0,0,1,0,9.2L118,138.89a3.21,3.21,0,0,1-1,2.09,3.25,3.25,0,1,1-2.5-5.54l11.12-11.12a1.62,1.62,0,0,0,0-2.3l-10.34-10.34a1.62,1.62,0,0,0-2.3,0L102.72,122a6.49,6.49,0,0,1-9.19,0l-2.3-2.3a6.49,6.49,0,0,1,0-9.19l18.39-18.38a6.49,6.49,0,0,1,9.19,0l18.38,18.38a1.64,1.64,0,0,0,2.3,0l2.3-2.3a1.64,1.64,0,0,0,0-2.3L115.36,79.51a1.62,1.62,0,0,0-2.3,0L86.63,105.93a6.49,6.49,0,0,1-9.19,0l-2.3-2.29a6.52,6.52,0,0,1,0-9.2L109.62,60a6.49,6.49,0,0,1,9.19,0l11.6,11.61V69.92a6.5,6.5,0,0,1,6.5-6.5h3.25a6.5,6.5,0,0,1,6.5,6.5V87.83l7.4,7.39a3.25,3.25,0,0,1,2.09,5.54Z"/><path class="b92b54b4-f66b-4284-a88a-1c3069759913" d="M612.42,61H624.1v3.65h-3.71v11H616.1v-11h-3.68Zm13.09,0h4.72l3.34,7.78L637,61h4.72V75.62h-3.85V67.39l-2.77,6.81h-2.92l-2.77-6.81v8.23h-3.85Z"/><path class="b92b54b4-f66b-4284-a88a-1c3069759913" d="M271.65,61v78H254.31V107h-34v32H202.92V61h17.35V91.75h34V61Zm10.65,39c0-22.41,16.77-39,39.65-39s39.64,16.48,39.64,39S344.72,139,322,139,282.3,122.41,282.3,100Zm62.09.39c0-14.19-9.63-23.9-22.44-23.9s-22.45,9.71-22.45,23.9,9.64,23.89,22.45,23.89S344.39,114.57,344.39,100.39ZM368.8,100c0-22.41,16.77-39,39.65-39s39.64,16.48,39.64,39-16.87,39-39.64,39S368.8,122.41,368.8,100Zm62.09.39c0-14.19-9.63-23.9-22.44-23.9S386,86.2,386,100.39s9.64,23.89,22.45,23.89S430.89,114.57,430.89,100.39Zm96.58,17.33c0,13.48-10.28,21.28-30,21.28H458.74V61h36.61c18.74,0,28.38,8.13,28.38,20.28a18.86,18.86,0,0,1-10,17.16C522.12,101.23,527.47,107.91,527.47,117.72ZM476.71,76.06V93.67h16.5c8.1,0,12.5-3,12.5-8.86s-4.4-8.75-12.5-8.75Zm32.59,39.47c0-6.29-4.61-9.28-13.22-9.28H476.71v18.46h19.37C504.69,124.71,509.3,121.93,509.3,115.53Zm23.38,14.74,5.69-13.14A41.52,41.52,0,0,0,562.28,125c9.94,0,14-3.44,14-8.08,0-14.11-42.13-4.41-42.13-32.42,0-12.82,9.94-23.49,30.53-23.49,9.11,0,18.43,2.26,25.16,6.68l-5.18,13.25A39.67,39.67,0,0,0,564.56,75c-9.94,0-13.77,3.87-13.77,8.61,0,13.9,42.13,4.31,42.13,32,0,12.61-10,23.38-30.74,23.38C550.69,139,539.1,135.44,532.68,130.27Z"/><path class="fd4b97e0-39d6-4f57-9bb6-361673031b01" d="M1066.09,76.18l-76,52.41c7.28,7,22.65,11.2,36.23,5.7,12.87-5.22,20.48-14.88,23.18-28.54l20.27,3.1c-2,19.89-19.58,44.81-50.58,48.29-29.11,3.27-56.38-16.13-62.68-44.31a57.1,57.1,0,0,1,37.59-66.68C1020.38,37.35,1049.93,46.79,1066.09,76.18Zm-88,35.53,57.82-39.89c-10.61-9.1-29.18-11.67-43.78-1.74C976.68,80.55,973.33,99.11,978.05,111.71Z"/><path class="fd4b97e0-39d6-4f57-9bb6-361673031b01" d="M1208.45,157.48c-31.73,0-57.73-25.7-57.71-57a57.74,57.74,0,0,1,115.47,0C1266.23,131.81,1240.22,157.47,1208.45,157.48Zm-36.83-57.37a36.67,36.67,0,0,0,36.28,36.66c20.66.16,37.47-16.16,37.51-36.41a36.9,36.9,0,0,0-73.79-.25Z"/><path class="fd4b97e0-39d6-4f57-9bb6-361673031b01" d="M1458.05,79.36h-20.53c-1-6.48-5.65-9.72-11.27-11.58-9.15-3-17.91-2.14-25.5,4.23-5,4.23-5,10.17-.18,14.6a15.5,15.5,0,0,0,5.54,3.57A51.09,51.09,0,0,0,1418,92.54c9.73.49,18.71,2.92,26.57,8.77,18.36,13.69,18.17,37.17-.36,50.64-17.48,12.71-44,10.84-58.91-4.14a31.46,31.46,0,0,1-7.45-11.69c-.22-.61-.13-1.79.27-2.08,6.05-4.37,12.18-8.62,18.86-13.3,0,1.72.06,2.92,0,4.11-.29,4.42,1.73,7.66,5.15,10.21,8.26,6.17,22,6.12,30.26-.1,6.55-5,6.64-11.8.09-16.83-4.51-3.47-9.77-4.78-15.39-4.84-10-.1-19.17-2.72-27.26-8.67-18.12-13.35-18.23-36.71-.26-50.26,16.12-12.16,40.86-11.75,56.49,1,6.49,5.29,10.73,12,11.93,20.37.1.73.17,1.47.2,2.2A13.26,13.26,0,0,1,1458.05,79.36Z"/><path class="fd4b97e0-39d6-4f57-9bb6-361673031b01" d="M1280.78,126.6h20.7c1,6.1,5.22,9.25,10.49,11.24a26.18,26.18,0,0,0,23.13-1.63c9.18-5.25,9.17-14,.09-19.4-4.38-2.61-9.19-3.47-14.25-3.56-10.22-.18-19.55-3.12-27.61-9.52-6.54-5.2-11-11.78-12.2-20.19-1.53-10.69,2.36-19.5,10.11-26.64,9-8.31,19.94-11.63,32-11.33a44.1,44.1,0,0,1,28,10.27A31.28,31.28,0,0,1,1360.81,69a2.43,2.43,0,0,1-.33,2.21c-5.94,4.27-12,8.42-18.45,12.92,0-1.39,0-2.37,0-3.34.25-4.07-1.6-7.12-4.66-9.56-8.33-6.62-22.55-6.66-31-.13-6.33,4.93-6.38,11.58-.07,16.55a22.21,22.21,0,0,0,12.47,4.74c6.13.44,12.28.57,18.18,2.63,9.1,3.17,16.7,8.28,21.7,16.69,6.62,11.12,5.24,24.48-3.41,34.38-16.41,18.79-49.6,19.13-66.35.66A30.06,30.06,0,0,1,1280.78,126.6Z"/><path class="fd4b97e0-39d6-4f57-9bb6-361673031b01" d="M800.36,155h-20.9v-2.46q0-33.3,0-66.59a45.62,45.62,0,0,1,91.24-.51q.06,33.63,0,67.25V155H849.82v-2.9c0-22,0-44.09,0-66.14a24.71,24.71,0,0,0-49.41-.69c-.1,22.26,0,44.53,0,66.8Z"/><path class="fd4b97e0-39d6-4f57-9bb6-361673031b01" d="M920.29,155v-2.95q0-32.85,0-65.69c0-12.51-7.88-22.39-20-24.79-8.6-1.7-16.11.75-22.38,6.89-.62.61-1.17,1.29-2,2.26a47.71,47.71,0,0,0-10.6-18.91,44.14,44.14,0,0,1,23.32-10.9c24.53-3.46,46.45,11.84,51.59,36a44,44,0,0,1,.86,9c.07,22.34,0,44.68,0,67,0,.65-.08,1.3-.13,2.07Z"/><path class="fd4b97e0-39d6-4f57-9bb6-361673031b01" d="M1138.58,42.9V63.42c-2.36.34-4.64.56-6.87,1a32.8,32.8,0,0,0-26.24,32c0,18.49,0,37,0,55.47V155h-20.91v-2.39q0-27.61,0-55.24a53.79,53.79,0,0,1,45.34-53.64C1132.69,43.22,1135.57,43.17,1138.58,42.9Z"/></svg>