<svg id="bdb62bb7-03d1-40d4-936e-0e6835884d2f" data-name="Ebene 1" xmlns="http://www.w3.org/2000/svg" viewBox="0 0 1680 200"><defs><style>.fcd3edc3-a8f9-4109-887c-5a5b29d88543{fill:none;stroke:#ccc;stroke-miterlimit:10;}.b7756baf-dd16-4605-8ff4-01cb4a0fba93{fill:#f9b213;}.abab786e-5a18-4759-930f-a0dbec34a48e{isolation:isolate;font-size:80px;fill:#ccc;font-family:Roboto-Bold, Roboto;font-weight:700;}.a13dfc67-8ec7-4eca-93c3-e22d7bc03ef7{fill:#00abea;}</style></defs><title>HOOBS_x_broadlink-rm</title><g id="f366bae1-14bf-4233-b272-03f888d90a91" data-name="Stroke"><line class="fcd3edc3-a8f9-4109-887c-5a5b29d88543" x1="700.5" y1="60" x2="700.5" y2="140"/></g><path class="b7756baf-dd16-4605-8ff4-01cb4a0fba93" d="M154.17,41.5h-78A19.5,19.5,0,0,0,56.67,61v78a19.5,19.5,0,0,0,19.5,19.5h78a19.5,19.5,0,0,0,19.5-19.5V61A19.5,19.5,0,0,0,154.17,41.5Zm2,59.26a3.24,3.24,0,0,1-4.59,0,3.21,3.21,0,0,1-.95-2.09l-8.82-8.82V69.92a1.63,1.63,0,0,0-1.63-1.63h-3.25a1.63,1.63,0,0,0-1.62,1.63V83.6l-4.88-5.13-15-15a1.62,1.62,0,0,0-2.3,0L78.59,97.89a1.64,1.64,0,0,0,0,2.3l2.3,2.3a1.64,1.64,0,0,0,2.3,0l26.43-26.43a6.49,6.49,0,0,1,9.19,0l26.43,26.43a6.51,6.51,0,0,1,0,9.19l-2.3,2.3a6.49,6.49,0,0,1-9.19,0L115.36,95.59a1.64,1.64,0,0,0-2.3,0L94.68,114a1.62,1.62,0,0,0,0,2.3l2.3,2.29a1.61,1.61,0,0,0,2.29,0l10.35-10.34a6.49,6.49,0,0,1,9.19,0l10.34,10.34a6.51,6.51,0,0,1,0,9.2L118,138.89a3.21,3.21,0,0,1-1,2.09,3.25,3.25,0,1,1-2.5-5.54l11.12-11.12a1.62,1.62,0,0,0,0-2.3l-10.34-10.34a1.62,1.62,0,0,0-2.3,0L102.72,122a6.49,6.49,0,0,1-9.19,0l-2.3-2.3a6.49,6.49,0,0,1,0-9.19l18.39-18.38a6.49,6.49,0,0,1,9.19,0l18.38,18.38a1.64,1.64,0,0,0,2.3,0l2.3-2.3a1.64,1.64,0,0,0,0-2.3L115.36,79.51a1.62,1.62,0,0,0-2.3,0L86.63,105.93a6.49,6.49,0,0,1-9.19,0l-2.3-2.29a6.52,6.52,0,0,1,0-9.2L109.62,60a6.49,6.49,0,0,1,9.19,0l11.6,11.61V69.92a6.5,6.5,0,0,1,6.5-6.5h3.25a6.5,6.5,0,0,1,6.5,6.5V87.83l7.4,7.39a3.25,3.25,0,0,1,2.09,5.54Z"/><path class="b7756baf-dd16-4605-8ff4-01cb4a0fba93" d="M612.42,61H624.1v3.65h-3.71v11H616.1v-11h-3.68Zm13.09,0h4.72l3.34,7.78L637,61h4.72V75.62h-3.85V67.39l-2.77,6.81h-2.92l-2.77-6.81v8.23h-3.85Z"/><path class="b7756baf-dd16-4605-8ff4-01cb4a0fba93" d="M271.65,61v78H254.31V107h-34v32H202.92V61h17.35V91.75h34V61Zm10.65,39c0-22.41,16.77-39,39.65-39s39.64,16.48,39.64,39S344.72,139,322,139,282.3,122.41,282.3,100Zm62.09.39c0-14.19-9.63-23.9-22.44-23.9s-22.45,9.71-22.45,23.9,9.64,23.89,22.45,23.89S344.39,114.57,344.39,100.39ZM368.8,100c0-22.41,16.77-39,39.65-39s39.64,16.48,39.64,39-16.87,39-39.64,39S368.8,122.41,368.8,100Zm62.09.39c0-14.19-9.63-23.9-22.44-23.9S386,86.2,386,100.39s9.64,23.89,22.45,23.89S430.89,114.57,430.89,100.39Zm96.58,17.33c0,13.48-10.28,21.28-30,21.28H458.74V61h36.61c18.74,0,28.38,8.13,28.38,20.28a18.86,18.86,0,0,1-10,17.16C522.12,101.23,527.47,107.91,527.47,117.72ZM476.71,76.06V93.67h16.5c8.1,0,12.5-3,12.5-8.86s-4.4-8.75-12.5-8.75Zm32.59,39.47c0-6.29-4.61-9.28-13.22-9.28H476.71v18.46h19.37C504.69,124.71,509.3,121.93,509.3,115.53Zm23.38,14.74,5.69-13.14A41.52,41.52,0,0,0,562.28,125c9.94,0,14-3.44,14-8.08,0-14.11-42.13-4.41-42.13-32.42,0-12.82,9.94-23.49,30.53-23.49,9.11,0,18.43,2.26,25.16,6.68l-5.18,13.25A39.67,39.67,0,0,0,564.56,75c-9.94,0-13.77,3.87-13.77,8.61,0,13.9,42.13,4.31,42.13,32,0,12.61-10,23.38-30.74,23.38C550.69,139,539.1,135.44,532.68,130.27Z"/><text class="abab786e-5a18-4759-930f-a0dbec34a48e" transform="translate(1291.05 141.93)">RM</text><g id="bcf66b03-69f1-4832-b5eb-934659a0f8de" data-name="broadlink"><path class="a13dfc67-8ec7-4eca-93c3-e22d7bc03ef7" d="M1232.27,126.42c-4.43,5.56-8.31,10.46-12.22,15.32-1.75,2.17-14.62,3.89-16.61,2.29-1.09-.88-.59-2-.48-3.06,2.48-23.27,5-46.52,7.48-69.79.26-2.44,1.31-2.91,3.52-3.06,12.09-.84,12.17-.89,10.93,10.91-1.71,16.44-3.57,32.87-5.55,51.06l12.85-16.2c4.6-5.78,9.58-11.3,13.67-17.42,3.39-5,7.44-6.68,14-5-4.72,6-9.09,12-13.9,17.66-2.36,2.76-2.62,5-1.24,8.31,3.56,8.65,6.6,17.51,10.08,26.93-4.8,0-9-.13-13.19.05-2.48.11-3.09-1.39-3.75-3.2C1236.12,136.61,1234.36,131.92,1232.27,126.42Z"/><path class="a13dfc67-8ec7-4eca-93c3-e22d7bc03ef7" d="M1188.09,144.38c-2.36,0-3.85-.08-5.33,0-2.39.15-3.15-.59-2.83-3.19,1.33-10.6,2.3-21.25,3.56-31.87,1-8.82-.29-10.45-9.1-10.46a41.29,41.29,0,0,1-4.45,0c-2.74-.29-3.81.62-4.09,3.56-1.18,12.47-2.81,24.91-4,37.39-.31,3.4-1.12,4.71-4.84,4.69-10.72-.05-10.86.12-9.84-10.35,1.26-13,2.92-26,4.11-39,.3-3.3,1.3-4.34,4.66-4.27,10,.21,20,0,30,.09,9.55.09,14,4.78,13.11,14.3-.94,10.65-2.51,21.25-3.22,31.91C1195.49,143.13,1193.61,146.1,1188.09,144.38Z"/><path class="a13dfc67-8ec7-4eca-93c3-e22d7bc03ef7" d="M1099.37,144.38h-8.87c-15.15-.06-24.54-10.14-23.16-25.15,1-11,2.29-22,3.48-32.91.43-4,1.33-8,1.29-12.06-.06-5.51,2.52-6.51,7.47-6.25,8.19.42,8.33.12,7.52,8.44-1.41,14.28-3,28.53-4.45,42.8a35,35,0,0,0,.19,8.8c1,6.71,3.53,8.66,10.38,8.67h19.42c1.91,0,3.91-.16,3.44,2.76-.36,2.16.6,5.08-3.39,4.93C1108.29,144.25,1103.85,144.38,1099.37,144.38Z"/><path class="a13dfc67-8ec7-4eca-93c3-e22d7bc03ef7" d="M870.5,90.89H886c2,0,3.81.16,3.3,2.92-.39,2.12.68,5.17-3.27,5.07-2.58-.06-5.17,0-7.76,0-9.23,0-13.49,3.69-14.57,12.85-1.13,9.49-2.3,19-3.06,28.51-.27,3.38-1.37,4.23-4.66,4.23-9.75,0-9.89.14-8.93-9.57,1.31-13.35,3-26.66,4.18-40,.32-3.6,1.8-4.14,4.84-4C860.89,91,865.7,90.89,870.5,90.89Z"/><path class="a13dfc67-8ec7-4eca-93c3-e22d7bc03ef7" d="M1130.87,144.38a35.87,35.87,0,0,0-3.88,0c-3,.35-3.67-.75-3.33-3.72,1.75-15.35,3.32-30.73,4.8-46.1.27-2.81,1.35-3.64,4.13-3.76,11.4-.47,11.44-.56,10.35,10.44-1.17,11.9-2.44,23.8-3.66,35.69C1138.53,144.38,1138.54,144.38,1130.87,144.38Z"/><path class="a13dfc67-8ec7-4eca-93c3-e22d7bc03ef7" d="M948.82,89.23a15.3,15.3,0,0,1-15.29-15.29,1.93,1.93,0,0,1,0-.24A15.46,15.46,0,0,1,948.8,58h.58a15.76,15.76,0,0,1,15.37,15.59,15.58,15.58,0,0,1-15.54,15.61Z"/><path class="a13dfc67-8ec7-4eca-93c3-e22d7bc03ef7" d="M992.64,35.82a13,13,0,1,1-.16,0Z"/><path class="a13dfc67-8ec7-4eca-93c3-e22d7bc03ef7" d="M1033.43,45.71a10.73,10.73,0,0,1-10.55-10.53A10.54,10.54,0,0,1,1033,24.87a10.39,10.39,0,0,1,10.76,10,.66.66,0,0,0,0,.14A10.61,10.61,0,0,1,1033.43,45.71Z"/><path class="a13dfc67-8ec7-4eca-93c3-e22d7bc03ef7" d="M1068.77,25a8.55,8.55,0,0,1,8.52,8.29,8.38,8.38,0,0,1-16.76.29A8.58,8.58,0,0,1,1068.77,25Z"/><path class="a13dfc67-8ec7-4eca-93c3-e22d7bc03ef7" d="M1145.94,74c-.17,5.13-4.61,9.33-9.24,9-3.84-.28-6.13-2.33-6.08-6.39,0-4.58,4.41-8.6,9.21-8.39C1143.82,68.37,1145.85,70.54,1145.94,74Z"/><path class="a13dfc67-8ec7-4eca-93c3-e22d7bc03ef7" d="M1098.77,34.52c3.68.27,6,2.13,6.11,5.81.09,4-2.39,6.29-6.2,6.21a5.59,5.59,0,0,1-5.84-5.32,6.06,6.06,0,0,1,0-.74C1092.89,36.8,1095.15,34.89,1098.77,34.52Z"/><path class="a13dfc67-8ec7-4eca-93c3-e22d7bc03ef7" d="M1118.6,49c3.17.12,5,1.52,5.18,4.27a4.19,4.19,0,0,1-3.63,4.7,4.44,4.44,0,0,1-.63,0c-2.78.18-4.52-1.41-4.72-4.22S1116.3,49.52,1118.6,49Z"/><path class="a13dfc67-8ec7-4eca-93c3-e22d7bc03ef7" d="M841.25,116.61c-.74-8-5.53-13.42-12.85-16.65-.64-.28-1.25-.63-2.6-1.32,7.82-2.61,14-5.8,14.75-14.15.72-8-4.11-13.57-13.53-15.23-12.29-2.17-24.75-.68-37.13-1.1-2.24-.07-2.69,1.15-2.89,3.08q-3.69,34.89-7.55,69.74c-.31,2.77.5,3.55,3.2,3.48,7.59-.19,15.21.19,22.76-.32,9.26-.63,18.43-2.13,26.34-7.57C838.75,131.72,842,124.84,841.25,116.61Zm-41.58-20.8c.53-3.8.82-7.64,1.32-11.46,1-7.9,1.08-7.9,9-7.8,1.66,0,3.32-.09,5,0,4.51.3,8.58,1.62,9.69,6.57s-.68,9.11-5,11.91c-5.5,3.61-11.8,3.8-18.1,3.76C799.4,98.78,799.4,97.49,799.67,95.81Zm20.1,36.05c-5.06,3.92-11,5-17.27,4.87-7.13,0-7.17,0-6.43-7.15.65-6.41,1.55-12.81,2-19.23.2-2.86,1.22-3.84,4-3.7,4.24.21,8.5,0,12.68,1.1,5.37,1.44,9.66,4.15,10.61,10A14.17,14.17,0,0,1,819.77,131.86Z"/><path class="a13dfc67-8ec7-4eca-93c3-e22d7bc03ef7" d="M1053.51,68.09c-10.92-.22-10.91-.35-12.12,10.75-.22,2-.83,4-.7,6,.31,4.72-1.44,6.14-6.36,6.18-17.18.13-28.82,11.41-30,28.38-.68,9.44,4.5,18.87,12.72,22.78,6.7,3.19,13.1,4.24,18.14-4.88-3.48,8.57,1.87,7,5.66,7a22.86,22.86,0,0,1,3.88,0c4.35.86,5.26-1.56,5.6-5.15,1-10.27,2.15-20.51,3.23-30.77,1.27-12.09,2.43-24.18,3.81-36.25C1057.68,69.05,1056.73,68.16,1053.51,68.09ZM1038.3,106q-.93,11.85-2.43,23.64c-.32,2.44,1,6.19-2.62,6.91-4.22.86-8.59.54-11.37-3.74-2.5-3.84-3.31-8.14-3.53-12.66a31.18,31.18,0,0,1,4.31-14.65,13.94,13.94,0,0,1,5.92-5.66c3.17-1.48,6.86-1.8,9.67-.43,2.2,1.07.23,4.35,0,6.59Z"/><path class="a13dfc67-8ec7-4eca-93c3-e22d7bc03ef7" d="M986.85,90.92C979.5,91,972.1,90.2,965,93.15c-18.65,7.71-24.92,31.91-11.56,45,7.81,7.68,17.12,8.16,24.41,1.27.89,4.91.89,4.91,6.38,4.92a19.35,19.35,0,0,1,3.88,0c5,1,6.17-1.55,6.55-5.9,1-11.91,2.52-23.78,3.63-35.69S999.24,90.82,986.85,90.92Zm-4.19,13.61c-1.28,9.67-2.28,19.37-3.19,29.08-.22,2.34-1.12,3-3.4,3.18-8.83.65-13.26-2.26-15.16-10.83-1.76-8,.07-15.34,4.88-21.92A11.64,11.64,0,0,1,977.47,99c4.91-1.28,5.76,1.13,5.19,5.56Z"/><path class="a13dfc67-8ec7-4eca-93c3-e22d7bc03ef7" d="M916.2,91c-17,.13-29.62,13-29.45,30,.14,13.82,9.42,23.44,22.57,23.41,16.62,0,29.51-13.18,29.56-30.13C938.93,100.61,929.39,90.89,916.2,91Zm4.86,39.84c-2.77,4.13-6.63,6.53-11.77,5.67-4.86-.81-6.93-4.43-8-8.82a30.12,30.12,0,0,1,2.25-21c3-6.12,7.76-8.81,13.25-7.8,4.62.84,7.56,5,8.26,11.73.15,1.47.2,2.94.21,3.07C925.31,120.7,924.24,126.08,921.06,130.83Z"/></g></svg>