<svg id="fb9e0939-b6bf-42d0-af44-d27b1abcd7e0" data-name="Ebene 1" xmlns="http://www.w3.org/2000/svg" viewBox="0 0 1680 200"><defs><style>.bede96da-5f7e-4c0c-bace-d3c33600f9a3{fill:none;stroke:#ccc;stroke-miterlimit:10;}.b2f8c208-8851-4f27-9acd-6bc851ae54df{fill:#f9b213;}.aa404274-e431-4fef-a780-ee11ab9ecd10{fill:#ae1917;}</style></defs><title>HOOBS_x_tesla</title><g id="aea6c1f0-808b-4ffc-bb7f-0b0be632c2b3" data-name="Stroke"><line class="bede96da-5f7e-4c0c-bace-d3c33600f9a3" x1="700.5" y1="60" x2="700.5" y2="140"/></g><path class="b2f8c208-8851-4f27-9acd-6bc851ae54df" d="M154.17,41.5h-78A19.5,19.5,0,0,0,56.67,61v78a19.5,19.5,0,0,0,19.5,19.5h78a19.5,19.5,0,0,0,19.5-19.5V61A19.5,19.5,0,0,0,154.17,41.5Zm2,59.26a3.24,3.24,0,0,1-4.59,0,3.21,3.21,0,0,1-.95-2.09l-8.82-8.82V69.92a1.63,1.63,0,0,0-1.63-1.63h-3.25a1.63,1.63,0,0,0-1.62,1.63V83.6l-4.88-5.13-15-15a1.62,1.62,0,0,0-2.3,0L78.59,97.89a1.64,1.64,0,0,0,0,2.3l2.3,2.3a1.64,1.64,0,0,0,2.3,0l26.43-26.43a6.49,6.49,0,0,1,9.19,0l26.43,26.43a6.51,6.51,0,0,1,0,9.19l-2.3,2.3a6.49,6.49,0,0,1-9.19,0L115.36,95.59a1.64,1.64,0,0,0-2.3,0L94.68,114a1.62,1.62,0,0,0,0,2.3l2.3,2.29a1.61,1.61,0,0,0,2.29,0l10.35-10.34a6.49,6.49,0,0,1,9.19,0l10.34,10.34a6.51,6.51,0,0,1,0,9.2L118,138.89a3.21,3.21,0,0,1-1,2.09,3.25,3.25,0,1,1-2.5-5.54l11.12-11.12a1.62,1.62,0,0,0,0-2.3l-10.34-10.34a1.62,1.62,0,0,0-2.3,0L102.72,122a6.49,6.49,0,0,1-9.19,0l-2.3-2.3a6.49,6.49,0,0,1,0-9.19l18.39-18.38a6.49,6.49,0,0,1,9.19,0l18.38,18.38a1.64,1.64,0,0,0,2.3,0l2.3-2.3a1.64,1.64,0,0,0,0-2.3L115.36,79.51a1.62,1.62,0,0,0-2.3,0L86.63,105.93a6.49,6.49,0,0,1-9.19,0l-2.3-2.29a6.52,6.52,0,0,1,0-9.2L109.62,60a6.49,6.49,0,0,1,9.19,0l11.6,11.61V69.92a6.5,6.5,0,0,1,6.5-6.5h3.25a6.5,6.5,0,0,1,6.5,6.5V87.83l7.4,7.39a3.25,3.25,0,0,1,2.09,5.54Z"/><path class="b2f8c208-8851-4f27-9acd-6bc851ae54df" d="M612.42,61H624.1v3.65h-3.71v11H616.1v-11h-3.68Zm13.09,0h4.72l3.34,7.78L637,61h4.72V75.62h-3.85V67.39l-2.77,6.81h-2.92l-2.77-6.81v8.23h-3.85Z"/><path class="b2f8c208-8851-4f27-9acd-6bc851ae54df" d="M271.65,61v78H254.31V107h-34v32H202.92V61h17.35V91.75h34V61Zm10.65,39c0-22.41,16.77-39,39.65-39s39.64,16.48,39.64,39S344.72,139,322,139,282.3,122.41,282.3,100Zm62.09.39c0-14.19-9.63-23.9-22.44-23.9s-22.45,9.71-22.45,23.9,9.64,23.89,22.45,23.89S344.39,114.57,344.39,100.39ZM368.8,100c0-22.41,16.77-39,39.65-39s39.64,16.48,39.64,39-16.87,39-39.64,39S368.8,122.41,368.8,100Zm62.09.39c0-14.19-9.63-23.9-22.44-23.9S386,86.2,386,100.39s9.64,23.89,22.45,23.89S430.89,114.57,430.89,100.39Zm96.58,17.33c0,13.48-10.28,21.28-30,21.28H458.74V61h36.61c18.74,0,28.38,8.13,28.38,20.28a18.86,18.86,0,0,1-10,17.16C522.12,101.23,527.47,107.91,527.47,117.72ZM476.71,76.06V93.67h16.5c8.1,0,12.5-3,12.5-8.86s-4.4-8.75-12.5-8.75Zm32.59,39.47c0-6.29-4.61-9.28-13.22-9.28H476.71v18.46h19.37C504.69,124.71,509.3,121.93,509.3,115.53Zm23.38,14.74,5.69-13.14A41.52,41.52,0,0,0,562.28,125c9.94,0,14-3.44,14-8.08,0-14.11-42.13-4.41-42.13-32.42,0-12.82,9.94-23.49,30.53-23.49,9.11,0,18.43,2.26,25.16,6.68l-5.18,13.25A39.67,39.67,0,0,0,564.56,75c-9.94,0-13.77,3.87-13.77,8.61,0,13.9,42.13,4.31,42.13,32,0,12.61-10,23.38-30.74,23.38C550.69,139,539.1,135.44,532.68,130.27Z"/><path class="aa404274-e431-4fef-a780-ee11ab9ecd10" d="M1046.45,111.92h44.61c6.21-1.23,10.82-6.7,12.11-12h-68.84c1.29,5.29,6,10.76,12.12,12ZM930.39,76.29v.12a16.64,16.64,0,0,0,12.09,11.91h18.77l1,.38v47.39h11.73V88.7l1.06-.38h18.8a16.93,16.93,0,0,0,12-11.92v-.11Zm116.06,59.92h44.61c6.21-1.24,10.82-6.7,12.11-12h-68.84c1.29,5.29,6,10.75,12.12,12Zm0-47.94h44.61c6.21-1.24,10.82-6.71,12.11-12h-68.84c1.29,5.29,6,10.76,12.12,12Zm277.14,47.94h11.61v-24.1h42.24v24.1H1389V100.07l-65.44-.06v36.2ZM1189.41,88.14h0c6.2-1.81,11.42-6.54,12.69-11.78h-65.47v35.36h53.59v12.41l-42,0a23.38,23.38,0,0,0-15,12.1l3.4-.06h65.11V100h-53.55V88.14Zm144.5.16h44.62c6.2-1.22,10.81-6.7,12.11-12h-68.85c1.29,5.29,6,10.77,12.12,12Zm-87.29-12h0l-11.66,0v59.85h53.49a16.59,16.59,0,0,0,10.19-11.78h-52.05l0-48.1Z"/><path class="aa404274-e431-4fef-a780-ee11ab9ecd10" d="M839.89,166.27l16.85-94.82c16.08,0,21.14,1.76,21.88,9,0,0,10.78-4,16.22-12.18A119.27,119.27,0,0,0,852.3,57.94L839.86,73.09h0L827.45,57.94a119,119,0,0,0-42.54,10.28c5.43,8.16,16.22,12.18,16.22,12.18.73-7.19,5.8-9,21.76-9l17,94.84Z"/><path class="aa404274-e431-4fef-a780-ee11ab9ecd10" d="M839.88,53.57A138.76,138.76,0,0,1,896.76,65a44.79,44.79,0,0,0,3.37-7,160.5,160.5,0,0,0-120.51,0A58,58,0,0,0,783,65a138.73,138.73,0,0,1,56.88-11.41Z"/></svg>