<svg id="aa2bcbfc-f1e4-446a-b766-9c34ee4da1c9" data-name="Ebene 1" xmlns="http://www.w3.org/2000/svg" viewBox="0 0 1680 200"><defs><style>.e5f5776a-51eb-4bff-b293-34d187000777{fill:none;stroke:#ccc;stroke-miterlimit:10;}.a963ab5e-3f19-44a3-930b-2eb1f8252d81{fill:#f9b213;}.ea779c11-d87d-4cf8-b58d-4169a05739ec{fill:#4accd5;}.ab64b40f-e5e6-4e7b-a9e0-752648cdd609{fill:#ccc;}</style></defs><title>HOOBS_x_tp-link</title><g id="e9496a7e-88aa-493f-b088-2eca4c2a7f32" data-name="Stroke"><line class="e5f5776a-51eb-4bff-b293-34d187000777" x1="700.5" y1="60" x2="700.5" y2="140"/></g><path class="a963ab5e-3f19-44a3-930b-2eb1f8252d81" d="M154.17,41.5h-78A19.5,19.5,0,0,0,56.67,61v78a19.5,19.5,0,0,0,19.5,19.5h78a19.5,19.5,0,0,0,19.5-19.5V61A19.5,19.5,0,0,0,154.17,41.5Zm2,59.26a3.24,3.24,0,0,1-4.59,0,3.21,3.21,0,0,1-.95-2.09l-8.82-8.82V69.92a1.63,1.63,0,0,0-1.63-1.63h-3.25a1.63,1.63,0,0,0-1.62,1.63V83.6l-4.88-5.13-15-15a1.62,1.62,0,0,0-2.3,0L78.59,97.89a1.64,1.64,0,0,0,0,2.3l2.3,2.3a1.64,1.64,0,0,0,2.3,0l26.43-26.43a6.49,6.49,0,0,1,9.19,0l26.43,26.43a6.51,6.51,0,0,1,0,9.19l-2.3,2.3a6.49,6.49,0,0,1-9.19,0L115.36,95.59a1.64,1.64,0,0,0-2.3,0L94.68,114a1.62,1.62,0,0,0,0,2.3l2.3,2.29a1.61,1.61,0,0,0,2.29,0l10.35-10.34a6.49,6.49,0,0,1,9.19,0l10.34,10.34a6.51,6.51,0,0,1,0,9.2L118,138.89a3.21,3.21,0,0,1-1,2.09,3.25,3.25,0,1,1-2.5-5.54l11.12-11.12a1.62,1.62,0,0,0,0-2.3l-10.34-10.34a1.62,1.62,0,0,0-2.3,0L102.72,122a6.49,6.49,0,0,1-9.19,0l-2.3-2.3a6.49,6.49,0,0,1,0-9.19l18.39-18.38a6.49,6.49,0,0,1,9.19,0l18.38,18.38a1.64,1.64,0,0,0,2.3,0l2.3-2.3a1.64,1.64,0,0,0,0-2.3L115.36,79.51a1.62,1.62,0,0,0-2.3,0L86.63,105.93a6.49,6.49,0,0,1-9.19,0l-2.3-2.29a6.52,6.52,0,0,1,0-9.2L109.62,60a6.49,6.49,0,0,1,9.19,0l11.6,11.61V69.92a6.5,6.5,0,0,1,6.5-6.5h3.25a6.5,6.5,0,0,1,6.5,6.5V87.83l7.4,7.39a3.25,3.25,0,0,1,2.09,5.54Z"/><path class="a963ab5e-3f19-44a3-930b-2eb1f8252d81" d="M612.42,61H624.1v3.65h-3.71v11H616.1v-11h-3.68Zm13.09,0h4.72l3.34,7.78L637,61h4.72V75.62h-3.85V67.39l-2.77,6.81h-2.92l-2.77-6.81v8.23h-3.85Z"/><path class="a963ab5e-3f19-44a3-930b-2eb1f8252d81" d="M271.65,61v78H254.31V107h-34v32H202.92V61h17.35V91.75h34V61Zm10.65,39c0-22.41,16.77-39,39.65-39s39.64,16.48,39.64,39S344.72,139,322,139,282.3,122.41,282.3,100Zm62.09.39c0-14.19-9.63-23.9-22.44-23.9s-22.45,9.71-22.45,23.9,9.64,23.89,22.45,23.89S344.39,114.57,344.39,100.39ZM368.8,100c0-22.41,16.77-39,39.65-39s39.64,16.48,39.64,39-16.87,39-39.64,39S368.8,122.41,368.8,100Zm62.09.39c0-14.19-9.63-23.9-22.44-23.9S386,86.2,386,100.39s9.64,23.89,22.45,23.89S430.89,114.57,430.89,100.39Zm96.58,17.33c0,13.48-10.28,21.28-30,21.28H458.74V61h36.61c18.74,0,28.38,8.13,28.38,20.28a18.86,18.86,0,0,1-10,17.16C522.12,101.23,527.47,107.91,527.47,117.72ZM476.71,76.06V93.67h16.5c8.1,0,12.5-3,12.5-8.86s-4.4-8.75-12.5-8.75Zm32.59,39.47c0-6.29-4.61-9.28-13.22-9.28H476.71v18.46h19.37C504.69,124.71,509.3,121.93,509.3,115.53Zm23.38,14.74,5.69-13.14A41.52,41.52,0,0,0,562.28,125c9.94,0,14-3.44,14-8.08,0-14.11-42.13-4.41-42.13-32.42,0-12.82,9.94-23.49,30.53-23.49,9.11,0,18.43,2.26,25.16,6.68l-5.18,13.25A39.67,39.67,0,0,0,564.56,75c-9.94,0-13.77,3.87-13.77,8.61,0,13.9,42.13,4.31,42.13,32,0,12.61-10,23.38-30.74,23.38C550.69,139,539.1,135.44,532.68,130.27Z"/><g id="a21d7bb5-4b7d-4a0d-939b-3ef99c9b803a" data-name="tplink"><g id="a3bf25c8-3d07-48cb-bdde-086872985fb5" data-name="g3777"><path id="b25f7021-2a1e-4c5d-963e-7c705e2645cc" data-name="path3775" class="ea779c11-d87d-4cf8-b58d-4169a05739ec" d="M814.33,159.88a6.82,6.82,0,0,1-4.32-3.53l-.52-1-.11-12.75-.13-12.73-12.83-.13-12.86-.11-1-.6a8,8,0,0,1-2.78-2.87c-.35-.65-.39-1.61-.39-11.92V103.05H836.1V160H825.55C819.74,160,814.69,160,814.33,159.88Z"/><path id="ba37b075-801c-4720-91cd-3851f53e5898" data-name="path3761" class="ea779c11-d87d-4cf8-b58d-4169a05739ec" d="M845.32,128.85c-.06-.17-.09-5.84-.06-12.61l.06-12.31,6.26-.13c6.47-.15,7.17-.23,10.19-1.28,7.62-2.65,12.72-10.87,12.15-19.58-.59-9-5.88-15.4-14.25-17.29a26.83,26.83,0,0,0-8.67,0A19.76,19.76,0,0,0,835.85,80.3c-.28,1.1-.39,2.87-.47,7.53-.1,5.47-.14,6.1-.47,6.11-2,.06-24.54,0-24.6-.11s0-13.33.2-15.06a44.47,44.47,0,0,1,24.42-34A43.57,43.57,0,0,1,855.25,40,44.18,44.18,0,0,1,875,44.24a41.58,41.58,0,0,1,23.22,30.37c3.1,15.83-1.66,31.35-12.91,42.1a44.31,44.31,0,0,1-23.41,11.76c-2.14.38-3.76.48-9.55.57s-7,.06-7.09-.19Z"/></g><g id="ace1f1cf-cac8-4b88-b83c-650a52537b5a" data-name="g3781"><path id="b4996458-c4ee-4e4a-aebf-ed066264f676" data-name="path3773" class="ab64b40f-e5e6-4e7b-a9e0-752648cdd609" d="M940.71,142.52a2.9,2.9,0,0,1-.88-.67c-.44-.48-.44-.8-.44-19.46v-19l1.12-1.29a22.61,22.61,0,0,1,10.42-6.27,16.2,16.2,0,0,1,5.05-.5c3.74,0,5,.28,8,1.76,7.32,3.61,11,12.11,8.81,20.47a16.56,16.56,0,0,1-13.41,12,36.33,36.33,0,0,1-5.31.34c-3.11,0-3.39,0-3.6-.43a20.11,20.11,0,0,1,0-6c.21-.39.49-.43,3.48-.43,4.46,0,6.25-.55,8.43-2.59a11,11,0,0,0,.54-14.93,9.75,9.75,0,0,0-8.78-2.9,11.38,11.38,0,0,0-6.06,2.94l-.91,1v17.76c0,13.53-.06,17.83-.26,18a27.72,27.72,0,0,1-6.22.06Z"/><path id="bb8ca356-cdd2-43f7-8826-c3b0eeae8f75" data-name="path3771" class="ab64b40f-e5e6-4e7b-a9e0-752648cdd609" d="M922.4,129.64a10.54,10.54,0,0,1-4.6-2.18,10,10,0,0,1-2.69-5.51c-.24-1.68-.32-31.7-.09-32.3s7.05-3.92,7.46-3.76c.24.09.32,1.11.36,5l.06,4.9,4.67.06c5.5.07,4.94-.38,4.85,3.9l-.07,2.85-4.72.12c-2.6.07-4.76.14-4.79.17s0,4,0,8.89c.06,8.41.08,8.88.51,9.61a3.63,3.63,0,0,0,1.42,1.27c.92.46,1.24.49,5.5.49,3.22,0,4.6.08,4.79.27s.26,1.19.26,3.14-.08,3-.26,3.14c-.39.39-10.81.33-12.66-.07Z"/><path id="b92faa70-b201-41bd-8f34-2b78b690da5a" data-name="path3769" class="ab64b40f-e5e6-4e7b-a9e0-752648cdd609" d="M999.51,129.41l-.67-.57V84.36l3.54-1.82a20.89,20.89,0,0,1,3.87-1.71c.25.1.3,4,.3,24.5,0,22,0,24.39-.35,24.51a22.36,22.36,0,0,1-3.17.14c-2.71,0-2.84,0-3.5-.57Z"/><path id="a74dec31-cbdd-4649-927a-1db326dcea78" data-name="path3767" class="ab64b40f-e5e6-4e7b-a9e0-752648cdd609" d="M1015,129.74c-1.21-.49-1.17.15-1.11-17.49V96h7.48v16.8c0,13.29,0,16.83-.22,17A26.91,26.91,0,0,1,1015,129.74Z"/><path id="a1e72bbd-1714-48ec-bbce-18408552ffb0" data-name="path3765" class="ab64b40f-e5e6-4e7b-a9e0-752648cdd609" d="M1029.85,129.67c-1.12-.62-1.1-.44-1.11-14,0-10.58,0-12.8.3-13.29a19.39,19.39,0,0,1,4.14-4,25.71,25.71,0,0,1,6.43-2.91,22.42,22.42,0,0,1,8.79-.11A16.06,16.06,0,0,1,1060.16,107c.41,1.61.44,2.43.44,12.22,0,9.36,0,10.5-.35,10.62-.68.26-6.8.15-7.08-.13s-.26-2.74-.26-10.09c0-9.16,0-9.91-.44-11.22a8.11,8.11,0,0,0-7.58-6.06,9.64,9.64,0,0,0-7.4,2.52l-.85.77v11.75c0,7.68-.08,11.89-.23,12.17s-.48.42-3.13.42A10.7,10.7,0,0,1,1029.85,129.67Z"/><path id="fb9971ee-91fd-4214-96d0-08024d55267e" data-name="path3763" class="ab64b40f-e5e6-4e7b-a9e0-752648cdd609" d="M1068.58,129.74c-1.23-.49-1.18.68-1.11-23.31V84.36l3.67-1.86a19.15,19.15,0,0,1,3.85-1.69c.09.1.22,6.72.28,14.72l.11,14.55,6-7.09,6-7.09h4.38c3.64,0,4.38,0,4.38.31s-3,3.75-6.71,7.94-6.69,7.75-6.65,7.9,3.42,4.06,7.51,8.69,7.46,8.57,7.48,8.76-.5.36-4.44.42l-4.45.05-.49-.53c-.27-.29-3.26-3.9-6.64-8s-6.23-7.49-6.32-7.5-.17,3.41-.17,7.59a68.89,68.89,0,0,1-.22,8c-.21.39-.48.42-3.14.41a19.13,19.13,0,0,1-3.38-.21Z"/><path id="f98336c9-e70b-4071-8225-9aea25029c0a" data-name="path3759" class="ab64b40f-e5e6-4e7b-a9e0-752648cdd609" d="M982.08,116.4a44,44,0,0,1-3.36-7.24c.08-.23,1.46-.28,6.87-.23l6.76.06.07,3.72c0,2.83,0,3.76-.22,3.89a39.74,39.74,0,0,1-5,.19C982.92,116.79,982.39,116.74,982.08,116.4Z"/><path id="a700c3e4-f2b0-4ef9-98fd-30d84d3954ab" data-name="path2987" class="ab64b40f-e5e6-4e7b-a9e0-752648cdd609" d="M1013.63,88.11c-.75-.53-1.23-2.09-1.12-3.62a4.68,4.68,0,0,1,2.47-3.85,3.77,3.77,0,0,1,2.63-.66,4.87,4.87,0,0,1,3.91,1.57,5.11,5.11,0,0,1,.23,6.5c-.3.34-.79.39-4,.39-2.89,0-3.75-.07-4.12-.33Z"/></g></g></svg>