<svg id="fc105ef9-8376-4e12-8ca8-2330ba0e2090" data-name="Ebene 1" xmlns="http://www.w3.org/2000/svg" viewBox="0 0 1680 200"><defs><style>.a6cf8085-bdea-4503-b177-a0425bd46611{fill:none;stroke:#ccc;stroke-miterlimit:10;}.f883d564-743f-44bd-9f4b-ffcf5e75ce7a{fill:#f9b213;}.fdf01bb2-62bc-452e-9aa2-0a749af2cc5e{isolation:isolate;}.fd7fd1b3-8dee-4e95-af38-757d792500ad{fill:#ccc;}</style></defs><title>HOOBS_x_blindscmd</title><g id="a3787992-49c8-4876-a939-bb2eac17beeb" data-name="Stroke"><line class="a6cf8085-bdea-4503-b177-a0425bd46611" x1="700.5" y1="60" x2="700.5" y2="140"/></g><path class="f883d564-743f-44bd-9f4b-ffcf5e75ce7a" d="M154.17,41.5h-78A19.5,19.5,0,0,0,56.67,61v78a19.5,19.5,0,0,0,19.5,19.5h78a19.5,19.5,0,0,0,19.5-19.5V61A19.5,19.5,0,0,0,154.17,41.5Zm2,59.26a3.24,3.24,0,0,1-4.59,0,3.21,3.21,0,0,1-.95-2.09l-8.82-8.82V69.92a1.63,1.63,0,0,0-1.63-1.63h-3.25a1.63,1.63,0,0,0-1.62,1.63V83.6l-4.88-5.13-15-15a1.62,1.62,0,0,0-2.3,0L78.59,97.89a1.64,1.64,0,0,0,0,2.3l2.3,2.3a1.64,1.64,0,0,0,2.3,0l26.43-26.43a6.49,6.49,0,0,1,9.19,0l26.43,26.43a6.51,6.51,0,0,1,0,9.19l-2.3,2.3a6.49,6.49,0,0,1-9.19,0L115.36,95.59a1.64,1.64,0,0,0-2.3,0L94.68,114a1.62,1.62,0,0,0,0,2.3l2.3,2.29a1.61,1.61,0,0,0,2.29,0l10.35-10.34a6.49,6.49,0,0,1,9.19,0l10.34,10.34a6.51,6.51,0,0,1,0,9.2L118,138.89a3.21,3.21,0,0,1-1,2.09,3.25,3.25,0,1,1-2.5-5.54l11.12-11.12a1.62,1.62,0,0,0,0-2.3l-10.34-10.34a1.62,1.62,0,0,0-2.3,0L102.72,122a6.49,6.49,0,0,1-9.19,0l-2.3-2.3a6.49,6.49,0,0,1,0-9.19l18.39-18.38a6.49,6.49,0,0,1,9.19,0l18.38,18.38a1.64,1.64,0,0,0,2.3,0l2.3-2.3a1.64,1.64,0,0,0,0-2.3L115.36,79.51a1.62,1.62,0,0,0-2.3,0L86.63,105.93a6.49,6.49,0,0,1-9.19,0l-2.3-2.29a6.52,6.52,0,0,1,0-9.2L109.62,60a6.49,6.49,0,0,1,9.19,0l11.6,11.61V69.92a6.5,6.5,0,0,1,6.5-6.5h3.25a6.5,6.5,0,0,1,6.5,6.5V87.83l7.4,7.39a3.25,3.25,0,0,1,2.09,5.54Z"/><path class="f883d564-743f-44bd-9f4b-ffcf5e75ce7a" d="M612.42,61H624.1v3.65h-3.71v11H616.1v-11h-3.68Zm13.09,0h4.72l3.34,7.78L637,61h4.72V75.62h-3.85V67.39l-2.77,6.81h-2.92l-2.77-6.81v8.23h-3.85Z"/><path class="f883d564-743f-44bd-9f4b-ffcf5e75ce7a" d="M271.65,61v78H254.31V107h-34v32H202.92V61h17.35V91.75h34V61Zm10.65,39c0-22.41,16.77-39,39.65-39s39.64,16.48,39.64,39S344.72,139,322,139,282.3,122.41,282.3,100Zm62.09.39c0-14.19-9.63-23.9-22.44-23.9s-22.45,9.71-22.45,23.9,9.64,23.89,22.45,23.89S344.39,114.57,344.39,100.39ZM368.8,100c0-22.41,16.77-39,39.65-39s39.64,16.48,39.64,39-16.87,39-39.64,39S368.8,122.41,368.8,100Zm62.09.39c0-14.19-9.63-23.9-22.44-23.9S386,86.2,386,100.39s9.64,23.89,22.45,23.89S430.89,114.57,430.89,100.39Zm96.58,17.33c0,13.48-10.28,21.28-30,21.28H458.74V61h36.61c18.74,0,28.38,8.13,28.38,20.28a18.86,18.86,0,0,1-10,17.16C522.12,101.23,527.47,107.91,527.47,117.72ZM476.71,76.06V93.67h16.5c8.1,0,12.5-3,12.5-8.86s-4.4-8.75-12.5-8.75Zm32.59,39.47c0-6.29-4.61-9.28-13.22-9.28H476.71v18.46h19.37C504.69,124.71,509.3,121.93,509.3,115.53Zm23.38,14.74,5.69-13.14A41.52,41.52,0,0,0,562.28,125c9.94,0,14-3.44,14-8.08,0-14.11-42.13-4.41-42.13-32.42,0-12.82,9.94-23.49,30.53-23.49,9.11,0,18.43,2.26,25.16,6.68l-5.18,13.25A39.67,39.67,0,0,0,564.56,75c-9.94,0-13.77,3.87-13.77,8.61,0,13.9,42.13,4.31,42.13,32,0,12.61-10,23.38-30.74,23.38C550.69,139,539.1,135.44,532.68,130.27Z"/><g class="fdf01bb2-62bc-452e-9aa2-0a749af2cc5e"><path class="fd7fd1b3-8dee-4e95-af38-757d792500ad" d="M929.73,115V79.45h12.45q6.47,0,9.81,2.48a8.47,8.47,0,0,1,3.35,7.26,8,8,0,0,1-1.35,4.6,7.73,7.73,0,0,1-3.73,2.92,7.56,7.56,0,0,1,4.31,2.76,8.15,8.15,0,0,1,1.57,5.08c0,3.42-1.09,6-3.27,7.76s-5.29,2.65-9.33,2.69Zm7.32-20.66h5.42c3.7-.06,5.54-1.54,5.54-4.42a4.1,4.1,0,0,0-1.4-3.48,7.44,7.44,0,0,0-4.43-1.06h-5.13Zm0,5.18v9.59h6.28a6.08,6.08,0,0,0,4-1.23,4.26,4.26,0,0,0,1.45-3.41q0-4.87-5.06-5Z"/><path class="fd7fd1b3-8dee-4e95-af38-757d792500ad" d="M967.62,115h-7.08V77.5h7.08Z"/><path class="fd7fd1b3-8dee-4e95-af38-757d792500ad" d="M972.38,81.75a3.49,3.49,0,0,1,1.06-2.62,4.6,4.6,0,0,1,5.78,0,3.5,3.5,0,0,1,1.07,2.62,3.43,3.43,0,0,1-1.09,2.63,4.5,4.5,0,0,1-5.73,0A3.43,3.43,0,0,1,972.38,81.75Zm7.5,33.25h-7.09V88.58h7.09Z"/><path class="fd7fd1b3-8dee-4e95-af38-757d792500ad" d="M991.18,88.58l.22,3A9.23,9.23,0,0,1,999,88.09c2.8,0,4.89.83,6.25,2.47s2.07,4.1,2.1,7.37V115h-7.05V98.1a4.6,4.6,0,0,0-1-3.26,4.39,4.39,0,0,0-3.25-1,4.88,4.88,0,0,0-4.47,2.54V115h-7.05V88.58Z"/><path class="fd7fd1b3-8dee-4e95-af38-757d792500ad" d="M1010.59,101.59q0-6.16,2.77-9.84a9,9,0,0,1,7.58-3.66,8.08,8.08,0,0,1,6.37,2.88V77.5h7.08V115H1028l-.34-2.81a8.3,8.3,0,0,1-6.79,3.3,9,9,0,0,1-7.48-3.68Q1010.59,108.14,1010.59,101.59Zm7.06.53a10.46,10.46,0,0,0,1.29,5.7,4.21,4.21,0,0,0,3.76,2,4.71,4.71,0,0,0,4.61-2.77V96.59a4.65,4.65,0,0,0-4.56-2.76Q1017.65,93.83,1017.65,102.12Z"/><path class="fd7fd1b3-8dee-4e95-af38-757d792500ad" d="M1053.17,107.7a2.28,2.28,0,0,0-1.28-2,14.52,14.52,0,0,0-4.12-1.33q-9.42-2-9.42-8a7.25,7.25,0,0,1,2.92-5.87,11.75,11.75,0,0,1,7.63-2.36,12.65,12.65,0,0,1,8,2.37,7.47,7.47,0,0,1,3,6.15h-7.06a3.41,3.41,0,0,0-1-2.5,4.11,4.11,0,0,0-3.05-1,4.21,4.21,0,0,0-2.76.81,2.53,2.53,0,0,0-1,2,2.17,2.17,0,0,0,1.11,1.89,11.41,11.41,0,0,0,3.75,1.25,31,31,0,0,1,4.44,1.18q5.6,2.06,5.59,7.1a6.89,6.89,0,0,1-3.1,5.85,13.39,13.39,0,0,1-8,2.24,13.92,13.92,0,0,1-5.89-1.19,9.9,9.9,0,0,1-4-3.25,7.57,7.57,0,0,1-1.46-4.45h6.69a3.68,3.68,0,0,0,1.39,2.88,5.5,5.5,0,0,0,3.47,1,5.11,5.11,0,0,0,3.06-.77A2.39,2.39,0,0,0,1053.17,107.7Z"/><path class="fd7fd1b3-8dee-4e95-af38-757d792500ad" d="M1103.39,103.16a12.59,12.59,0,0,1-4.24,9q-3.81,3.3-10.07,3.3-6.82,0-10.75-4.61c-2.61-3.06-3.92-7.28-3.92-12.63V96.08a21.27,21.27,0,0,1,1.81-9,13.5,13.5,0,0,1,5.16-6,14.49,14.49,0,0,1,7.8-2.09q6.15,0,9.91,3.3a13.51,13.51,0,0,1,4.35,9.25h-7.32a7.42,7.42,0,0,0-1.92-5,7.07,7.07,0,0,0-5-1.55,6.22,6.22,0,0,0-5.48,2.62c-1.21,1.75-1.83,4.47-1.87,8.14v2.69c0,3.84.59,6.65,1.75,8.42a6.09,6.09,0,0,0,5.5,2.66,7.19,7.19,0,0,0,5.07-1.55,7,7,0,0,0,1.92-4.79Z"/><path class="fd7fd1b3-8dee-4e95-af38-757d792500ad" d="M1116.77,79.45l9.13,25.78L1135,79.45h9.62V115h-7.35v-9.72l.74-16.77-9.6,26.49h-5l-9.57-26.47.73,16.75V115h-7.32V79.45Z"/><path class="fd7fd1b3-8dee-4e95-af38-757d792500ad" d="M1150,115V79.45h10.94a16.56,16.56,0,0,1,8.38,2.11,14.75,14.75,0,0,1,5.78,6,18.53,18.53,0,0,1,2.07,8.85v1.63a18.57,18.57,0,0,1-2,8.82,14.6,14.6,0,0,1-5.75,6A16.81,16.81,0,0,1,1161,115Zm7.32-29.62v23.73h3.54a8,8,0,0,0,6.57-2.8c1.51-1.88,2.29-4.55,2.32-8V96.39q0-5.42-2.25-8.21a7.89,7.89,0,0,0-6.56-2.8Z"/></g><path class="fd7fd1b3-8dee-4e95-af38-757d792500ad" d="M871.57,52.37V66.45q0,24,0,47.9a1.92,1.92,0,0,0,.93,1.83,5.93,5.93,0,1,1-6.93.07,2.13,2.13,0,0,0,1-2q0-30.12,0-60.25V52.38H781.74c-2.21,0-2.29-.08-2.29-2.26V42.5c0-2,.15-2.11,2.09-2.11H898.15a1.18,1.18,0,0,1,1.31,1.33V51c0,1.2-.74,1.38-1.74,1.38q-12.36,0-24.73,0Z"/><path class="fd7fd1b3-8dee-4e95-af38-757d792500ad" d="M839.46,160.38h-56.7a9.6,9.6,0,0,1-1.07,0,1.17,1.17,0,0,1-1-1.85c1.15-2.08,2.32-4.15,3.6-6.14a2.22,2.22,0,0,1,1.65-.59c10.94,0,21.87,0,32.81,0q36.9,0,73.81,0a2.64,2.64,0,0,1,2.73,1.56c.83,1.62,1.82,3.16,2.72,4.74s.5,2.35-1.36,2.35H839.46Z"/><path class="fd7fd1b3-8dee-4e95-af38-757d792500ad" d="M839.46,145.17h-57c-2,0-2.42-.78-1.43-2.49.9-1.54,1.86-3.05,2.68-4.63a2.7,2.7,0,0,1,2.77-1.54c12.64,0,25.27,0,37.91,0q34.1,0,68.2,0a2.66,2.66,0,0,1,2.73,1.59c.79,1.54,1.78,3,2.58,4.53.31.58.63,1.49.38,1.92s-1.21.59-1.86.6c-8,0-16,0-24,0Z"/><path class="fd7fd1b3-8dee-4e95-af38-757d792500ad" d="M820.07,84.85H782.64a7.55,7.55,0,0,1-.95,0,1.2,1.2,0,0,1-1-1.88c1.15-2.08,2.32-4.15,3.6-6.14a2.23,2.23,0,0,1,1.63-.59c7.49,0,15,0,22.46,0h49.06c2.14,0,2.31.18,2.32,2.29,0,1.5,0,3,0,4.51s-.25,1.85-1.87,1.85H820.07Z"/><path class="fd7fd1b3-8dee-4e95-af38-757d792500ad" d="M820.16,99.89H782.5c-2,0-2.51-.78-1.49-2.54s2-3.25,2.84-4.93a2,2,0,0,1,2.08-1.17q20.73,0,41.46,0h30.05c2.17,0,2.28.11,2.29,2.29V98c0,1.71-.23,1.94-1.91,1.94H820.16Z"/><path class="fd7fd1b3-8dee-4e95-af38-757d792500ad" d="M820,69.63q-18.76,0-37.54,0c-.61,0-1.5-.18-1.76-.59s.08-1.25.36-1.79c.86-1.6,1.9-3.11,2.7-4.74a2.3,2.3,0,0,1,2.44-1.36c10.74,0,21.47,0,32.2,0h39.32c1.85,0,2,.19,2,2.06V67.5c0,2-.19,2.14-2.2,2.14H820Z"/><path class="fd7fd1b3-8dee-4e95-af38-757d792500ad" d="M819.49,115.1q-18.48,0-37,0c-.63,0-1.57-.24-1.81-.67s.07-1.34.37-1.91c.87-1.65,1.9-3.2,2.77-4.85a2,2,0,0,1,2.06-1.18q20.26,0,40.54,0h31.26c1.88,0,2,.14,2,2a6.26,6.26,0,0,0,0,1.3c.48,2.06-.77,3.46-1.89,4.85a2.2,2.2,0,0,1-1.51.4c-8.56,0-17.12,0-25.68,0Z"/><path class="fd7fd1b3-8dee-4e95-af38-757d792500ad" d="M819.49,130.12H781.93c-1.29-.06-1.83-.88-1.21-2,1.13-2,2.29-4.07,3.54-6a1.9,1.9,0,0,1,1.41-.55c6.62,0,13.23,0,19.85,0h48.73c1.85,0,1.8.08,2.3,1.82.42,1.47,1.1,2.86,1.62,4.3.21.59.57,1.39.34,1.8s-1.11.65-1.7.65q-18.66.06-37.32,0Z"/><path class="fd7fd1b3-8dee-4e95-af38-757d792500ad" d="M888.44,69.46c-2.77,0-5.54,0-8.3,0-1.48,0-1.77-.29-1.78-1.71,0-1.7,0-3.4,0-5.1,0-1.39.4-1.8,1.76-1.8,4.39,0,8.78,0,13.16,0a2.26,2.26,0,0,1,1.59.93c1.17,1.78,2.21,3.64,3.26,5.5.74,1.3.25,2.13-1.27,2.14C894.05,69.47,891.25,69.46,888.44,69.46Z"/><path class="fd7fd1b3-8dee-4e95-af38-757d792500ad" d="M888.43,84.67c-2.81,0-5.62,0-8.43,0-1.3,0-1.62-.32-1.64-1.6q0-2.67,0-5.34c0-1.21.45-1.67,1.65-1.67,4.43,0,8.86,0,13.29,0a2.13,2.13,0,0,1,1.52.84c1.19,1.85,2.29,3.78,3.36,5.71.67,1.19.16,2-1.21,2C894.12,84.69,891.27,84.67,888.43,84.67Z"/><path class="fd7fd1b3-8dee-4e95-af38-757d792500ad" d="M888.38,99.89c-2.77,0-5.55,0-8.32,0-1.38,0-1.68-.3-1.7-1.67,0-1.79,0-3.57,0-5.35,0-1.08.39-1.61,1.53-1.61,4.48,0,9,0,13.43,0a2.12,2.12,0,0,1,1.51.85c1.18,1.83,2.25,3.73,3.33,5.62.71,1.25.22,2.1-1.21,2.11-2.86,0-5.71,0-8.56,0Z"/><path class="fd7fd1b3-8dee-4e95-af38-757d792500ad" d="M889.28,115.1H882a4.17,4.17,0,0,1-3.66-3.49c0-1.27,0-2.54,0-3.8a1.19,1.19,0,0,1,1.34-1.31c4.67,0,9.35,0,14,0a1.85,1.85,0,0,1,1.29.84c1.18,1.87,2.28,3.79,3.36,5.72.66,1.18.14,2-1.25,2C894.5,115.12,891.89,115.1,889.28,115.1Z"/><path class="fd7fd1b3-8dee-4e95-af38-757d792500ad" d="M888.67,130.12c-2.57,0-5.14,0-7.71,0a2.13,2.13,0,0,1-1.59-.65c-.22-.32.08-1.07.27-1.59.59-1.62,1.32-3.19,1.83-4.84.32-1,.76-1.52,1.89-1.5,3.2,0,6.41,0,9.61,0a1.83,1.83,0,0,1,1.82,1c1,1.83,2.11,3.62,3.15,5.44.79,1.38.31,2.15-1.33,2.15Z"/><path class="fd7fd1b3-8dee-4e95-af38-757d792500ad" d="M1303.74,131.5V78.16h-71.11V131.5h71.11m0-71.11a8.89,8.89,0,0,1,8.89,8.88V131.5a8.89,8.89,0,0,1-8.89,8.89h-71.11a8.89,8.89,0,0,1-8.89-8.89V69.27a8.88,8.88,0,0,1,8.89-8.88h71.11m-31.11,62.22v-8.89h22.22v8.89h-22.22m-15.2-17.78-17.82-17.78h12.58l14.66,14.67a4.47,4.47,0,0,1,0,6.31l-14.57,14.58H1239.7Z"/></svg>