<svg id="a92c511a-bd83-4026-8153-621ec924d94c" data-name="Ebene 1" xmlns="http://www.w3.org/2000/svg" viewBox="0 0 1680 200"><defs><style>.ad25790e-594c-4548-a86f-f4a5da9c24e3{fill:none;stroke:#ccc;stroke-miterlimit:10;}.e12145fe-0957-4f45-9b95-ce5c6812cab4{fill:#f9b213;}.a10a6852-4ea5-42e9-898a-a74e332cf7d7,.ba067635-164a-48ef-88f2-70d8600985e2{fill:#0099d7;}.ba067635-164a-48ef-88f2-70d8600985e2{fill-rule:evenodd;}</style></defs><title>HOOBS_x_lutron</title><g id="af99168c-688a-4cc2-b1eb-3454b0f1f8c8" data-name="Stroke"><line class="ad25790e-594c-4548-a86f-f4a5da9c24e3" x1="700.5" y1="60" x2="700.5" y2="140"/></g><path class="e12145fe-0957-4f45-9b95-ce5c6812cab4" d="M154.17,41.5h-78A19.5,19.5,0,0,0,56.67,61v78a19.5,19.5,0,0,0,19.5,19.5h78a19.5,19.5,0,0,0,19.5-19.5V61A19.5,19.5,0,0,0,154.17,41.5Zm2,59.26a3.24,3.24,0,0,1-4.59,0,3.21,3.21,0,0,1-.95-2.09l-8.82-8.82V69.92a1.63,1.63,0,0,0-1.63-1.63h-3.25a1.63,1.63,0,0,0-1.62,1.63V83.6l-4.88-5.13-15-15a1.62,1.62,0,0,0-2.3,0L78.59,97.89a1.64,1.64,0,0,0,0,2.3l2.3,2.3a1.64,1.64,0,0,0,2.3,0l26.43-26.43a6.49,6.49,0,0,1,9.19,0l26.43,26.43a6.51,6.51,0,0,1,0,9.19l-2.3,2.3a6.49,6.49,0,0,1-9.19,0L115.36,95.59a1.64,1.64,0,0,0-2.3,0L94.68,114a1.62,1.62,0,0,0,0,2.3l2.3,2.29a1.61,1.61,0,0,0,2.29,0l10.35-10.34a6.49,6.49,0,0,1,9.19,0l10.34,10.34a6.51,6.51,0,0,1,0,9.2L118,138.89a3.21,3.21,0,0,1-1,2.09,3.25,3.25,0,1,1-2.5-5.54l11.12-11.12a1.62,1.62,0,0,0,0-2.3l-10.34-10.34a1.62,1.62,0,0,0-2.3,0L102.72,122a6.49,6.49,0,0,1-9.19,0l-2.3-2.3a6.49,6.49,0,0,1,0-9.19l18.39-18.38a6.49,6.49,0,0,1,9.19,0l18.38,18.38a1.64,1.64,0,0,0,2.3,0l2.3-2.3a1.64,1.64,0,0,0,0-2.3L115.36,79.51a1.62,1.62,0,0,0-2.3,0L86.63,105.93a6.49,6.49,0,0,1-9.19,0l-2.3-2.29a6.52,6.52,0,0,1,0-9.2L109.62,60a6.49,6.49,0,0,1,9.19,0l11.6,11.61V69.92a6.5,6.5,0,0,1,6.5-6.5h3.25a6.5,6.5,0,0,1,6.5,6.5V87.83l7.4,7.39a3.25,3.25,0,0,1,2.09,5.54Z"/><path class="e12145fe-0957-4f45-9b95-ce5c6812cab4" d="M612.42,61H624.1v3.65h-3.71v11H616.1v-11h-3.68Zm13.09,0h4.72l3.34,7.78L637,61h4.72V75.62h-3.85V67.39l-2.77,6.81h-2.92l-2.77-6.81v8.23h-3.85Z"/><path class="e12145fe-0957-4f45-9b95-ce5c6812cab4" d="M271.65,61v78H254.31V107h-34v32H202.92V61h17.35V91.75h34V61Zm10.65,39c0-22.41,16.77-39,39.65-39s39.64,16.48,39.64,39S344.72,139,322,139,282.3,122.41,282.3,100Zm62.09.39c0-14.19-9.63-23.9-22.44-23.9s-22.45,9.71-22.45,23.9,9.64,23.89,22.45,23.89S344.39,114.57,344.39,100.39ZM368.8,100c0-22.41,16.77-39,39.65-39s39.64,16.48,39.64,39-16.87,39-39.64,39S368.8,122.41,368.8,100Zm62.09.39c0-14.19-9.63-23.9-22.44-23.9S386,86.2,386,100.39s9.64,23.89,22.45,23.89S430.89,114.57,430.89,100.39Zm96.58,17.33c0,13.48-10.28,21.28-30,21.28H458.74V61h36.61c18.74,0,28.38,8.13,28.38,20.28a18.86,18.86,0,0,1-10,17.16C522.12,101.23,527.47,107.91,527.47,117.72ZM476.71,76.06V93.67h16.5c8.1,0,12.5-3,12.5-8.86s-4.4-8.75-12.5-8.75Zm32.59,39.47c0-6.29-4.61-9.28-13.22-9.28H476.71v18.46h19.37C504.69,124.71,509.3,121.93,509.3,115.53Zm23.38,14.74,5.69-13.14A41.52,41.52,0,0,0,562.28,125c9.94,0,14-3.44,14-8.08,0-14.11-42.13-4.41-42.13-32.42,0-12.82,9.94-23.49,30.53-23.49,9.11,0,18.43,2.26,25.16,6.68l-5.18,13.25A39.67,39.67,0,0,0,564.56,75c-9.94,0-13.77,3.87-13.77,8.61,0,13.9,42.13,4.31,42.13,32,0,12.61-10,23.38-30.74,23.38C550.69,139,539.1,135.44,532.68,130.27Z"/><g id="e6503a34-1cc9-456b-a893-5a717428bad3" data-name="lutron"><path class="a10a6852-4ea5-42e9-898a-a74e332cf7d7" d="M842.52,70.52a21.31,21.31,0,0,0-3-.13,19.82,19.82,0,0,0-3,.13l-3.14-29.85c2-.15,4.14-.28,6.12-.28s4.12.13,6.11.28Z"/><path class="a10a6852-4ea5-42e9-898a-a74e332cf7d7" d="M830.15,72c-1,.28-2,.7-2.84,1a15.45,15.45,0,0,0-2.67,1.33L810.09,47.92a57.89,57.89,0,0,1,5.55-2.67c2-.81,3.84-1.41,5.69-2.13Z"/><path class="a10a6852-4ea5-42e9-898a-a74e332cf7d7" d="M820.05,77.49c-.7.71-1.56,1.42-2.28,2.14a14.71,14.71,0,0,0-2,2.26l-23.6-18.66a61,61,0,0,1,4.12-4.68,57.44,57.44,0,0,1,4.41-4.14Z"/><path class="a10a6852-4ea5-42e9-898a-a74e332cf7d7" d="M812.8,86.59c-.43.85-.85,1.85-1.33,2.84a22.3,22.3,0,0,0-1,2.85l-28.8-8.39c.56-2,1.33-3.84,2-5.84a48.6,48.6,0,0,1,2.56-5.53Z"/><path class="a10a6852-4ea5-42e9-898a-a74e332cf7d7" d="M809.53,97.68a19.9,19.9,0,0,0-.14,3,19.83,19.83,0,0,0,.14,3l-29.86,3.12c-.14-2-.28-4.12-.28-6.1s.14-4.12.28-6.12Z"/><path class="a10a6852-4ea5-42e9-898a-a74e332cf7d7" d="M811,109.91c.29,1,.72,2,1,2.84a15,15,0,0,0,1.33,2.66L787,129.92c-1-1.85-1.84-3.56-2.66-5.55s-1.43-3.84-2.14-5.69Z"/><path class="a10a6852-4ea5-42e9-898a-a74e332cf7d7" d="M816.36,120c.71.71,1.41,1.56,2.13,2.28a15.94,15.94,0,0,0,2.27,2l-18.67,23.6c-1.56-1.34-3.12-2.56-4.69-4.12a53.92,53.92,0,0,1-4.12-4.42Z"/><path class="a10a6852-4ea5-42e9-898a-a74e332cf7d7" d="M825.45,127.4c.86.43,1.86.85,2.67,1.33a15,15,0,0,0,2.84,1l-8.39,28.87c-2-.58-3.84-1.34-5.82-2A51.57,51.57,0,0,1,811.2,154Z"/><path class="a10a6852-4ea5-42e9-898a-a74e332cf7d7" d="M836.27,130.24a21,21,0,0,0,3,.15,21.32,21.32,0,0,0,3-.15l3.13,29.85c-2,.15-4.12.3-6.12.3s-4.12-.15-6.11-.3Z"/><path class="a10a6852-4ea5-42e9-898a-a74e332cf7d7" d="M848.63,128.84c1-.28,2-.71,2.85-1a15.81,15.81,0,0,0,2.67-1.33l14.66,26.16a60.09,60.09,0,0,1-5.53,2.67c-2,.82-3.84,1.42-5.69,2.13Z"/><path class="a10a6852-4ea5-42e9-898a-a74e332cf7d7" d="M858.72,123.27c.72-.71,1.57-1.42,2.28-2.14a28.45,28.45,0,0,0,2-2.26l23.6,18.48c-1.34,1.56-2.56,3.13-4,4.69s-2.92,2.8-4.39,4.13Z"/><path class="a10a6852-4ea5-42e9-898a-a74e332cf7d7" d="M866,114.17c.43-.85.86-1.85,1.34-2.66a22.82,22.82,0,0,0,1-2.84l28.86,8.38c-.57,2-1.33,3.84-2,5.83a44.18,44.18,0,0,1-2.56,5.55Z"/><path class="a10a6852-4ea5-42e9-898a-a74e332cf7d7" d="M869.39,103.51a20,20,0,0,0,.14-3,19.9,19.9,0,0,0-.14-3l29.85-3.12c.15,2,.29,4.12.29,6.11s-.14,4.12-.29,6.12Z"/><path class="a10a6852-4ea5-42e9-898a-a74e332cf7d7" d="M867.83,91.13c-.28-1-.71-2-1-2.84a17,17,0,0,0-1.34-2.66L891.8,71.12a55.68,55.68,0,0,1,2.67,5.55c.81,2,1.41,3.84,2.13,5.68Z"/><path class="a10a6852-4ea5-42e9-898a-a74e332cf7d7" d="M862.43,81.19c-.72-.71-1.43-1.56-2.14-2.28a15.42,15.42,0,0,0-2.28-2l18.48-23.6a57.48,57.48,0,0,1,4.7,4.12,59.21,59.21,0,0,1,4.12,4.41Z"/><path class="a10a6852-4ea5-42e9-898a-a74e332cf7d7" d="M853.32,73.8c-.85-.43-1.84-.85-2.84-1.33a21.73,21.73,0,0,0-2.84-1L856,42.6c2,.57,3.84,1.33,5.82,2a49.71,49.71,0,0,1,5.55,2.56Z"/><polygon class="a10a6852-4ea5-42e9-898a-a74e332cf7d7" points="1159.44 151.71 1187.01 151.71 1187.01 71.24 1226.25 71.24 1226.25 49.63 1120.05 49.63 1120.05 71.24 1159.44 71.24 1159.44 151.71"/><path class="ba067635-164a-48ef-88f2-70d8600985e2" d="M1343.56,99.67c0,30.42,23.6,54.74,63.69,54.74,39.67,0,63.7-24.32,63.7-54.74,0-31.28-23.6-53.34-63.7-53.34s-63.69,22-63.69,53.34m31.85,2.13c0-18.48,6.82-34.67,31.56-35,25-.28,35,16.06,33.55,34.41-1.33,17.05-9,31.84-33.55,31.84-24,0-31.56-14.79-31.56-31.28"/><polygon class="a10a6852-4ea5-42e9-898a-a74e332cf7d7" points="1479.05 151.71 1506.64 151.71 1506.64 86.59 1507.07 86.59 1559.96 151.71 1591.8 151.71 1591.8 49.48 1563.8 49.63 1563.8 116.16 1563.51 116.16 1510.48 49.63 1479.05 49.63 1479.05 151.71"/><polygon class="a10a6852-4ea5-42e9-898a-a74e332cf7d7" points="913.61 151.85 1000.2 151.85 1000.2 130.09 941.19 130.09 941.19 49.48 913.61 49.48 913.61 151.85"/><path class="a10a6852-4ea5-42e9-898a-a74e332cf7d7" d="M1113.93,49.48h-27.6V112c0,15.64-8.81,21.76-29.14,21.76-19.91,0-29-6.12-29-21.76V49.48h-27.41V112c0,28.57,21.61,42.37,56.45,42.37s56.59-13.93,56.59-42.37V49.48Z"/><path class="ba067635-164a-48ef-88f2-70d8600985e2" d="M1232.23,151.85h25.6V112h41.22c10.67-.15,12.66,5.12,14.36,15.92,2.14,13.33,4,24.32,11.67,23.89h21.61c-6.26,1.34-8.1-16.64-9.33-25-3.56-22.47-7.4-23.6-17.92-24l-.15-.43c13.23-4.12,21.62-14.36,21.34-26.73-.43-16.5-11.8-27.72-38.67-26h-69.81V151.88Zm25.17-81.33h34.12c12.65,0,21.61,1.85,21.61,12,0,10.67-8.81,12.08-21.61,12.08H1257.4Z"/></g></svg>