<svg id="f389b2e2-37ed-4cb3-a82f-183c4aa36144" data-name="Ebene 1" xmlns="http://www.w3.org/2000/svg" viewBox="0 0 1680 200"><defs><style>.b8bee82b-c95e-493d-9ee0-22c87d6cd5a8{fill:none;stroke:#ccc;stroke-miterlimit:10;}.b8b3a482-f703-4de4-8abf-d52aee681192{fill:#f9b213;}.b2c8a2cb-9bcc-405c-b327-3f750bc8eb78{fill:#ccc;}.a9d0401b-3841-44d0-90f5-b6839f48732b{fill:#fab20b;}</style></defs><title>HOOBS_x_jablotron</title><g id="a7797630-6ab9-48f0-993e-e34db953dc9c" data-name="Stroke"><line class="b8bee82b-c95e-493d-9ee0-22c87d6cd5a8" x1="700.5" y1="60" x2="700.5" y2="140"/></g><path class="b8b3a482-f703-4de4-8abf-d52aee681192" d="M154.17,41.5h-78A19.5,19.5,0,0,0,56.67,61v78a19.5,19.5,0,0,0,19.5,19.5h78a19.5,19.5,0,0,0,19.5-19.5V61A19.5,19.5,0,0,0,154.17,41.5Zm2,59.26a3.24,3.24,0,0,1-4.59,0,3.21,3.21,0,0,1-.95-2.09l-8.82-8.82V69.92a1.63,1.63,0,0,0-1.63-1.63h-3.25a1.63,1.63,0,0,0-1.62,1.63V83.6l-4.88-5.13-15-15a1.62,1.62,0,0,0-2.3,0L78.59,97.89a1.64,1.64,0,0,0,0,2.3l2.3,2.3a1.64,1.64,0,0,0,2.3,0l26.43-26.43a6.49,6.49,0,0,1,9.19,0l26.43,26.43a6.51,6.51,0,0,1,0,9.19l-2.3,2.3a6.49,6.49,0,0,1-9.19,0L115.36,95.59a1.64,1.64,0,0,0-2.3,0L94.68,114a1.62,1.62,0,0,0,0,2.3l2.3,2.29a1.61,1.61,0,0,0,2.29,0l10.35-10.34a6.49,6.49,0,0,1,9.19,0l10.34,10.34a6.51,6.51,0,0,1,0,9.2L118,138.89a3.21,3.21,0,0,1-1,2.09,3.25,3.25,0,1,1-2.5-5.54l11.12-11.12a1.62,1.62,0,0,0,0-2.3l-10.34-10.34a1.62,1.62,0,0,0-2.3,0L102.72,122a6.49,6.49,0,0,1-9.19,0l-2.3-2.3a6.49,6.49,0,0,1,0-9.19l18.39-18.38a6.49,6.49,0,0,1,9.19,0l18.38,18.38a1.64,1.64,0,0,0,2.3,0l2.3-2.3a1.64,1.64,0,0,0,0-2.3L115.36,79.51a1.62,1.62,0,0,0-2.3,0L86.63,105.93a6.49,6.49,0,0,1-9.19,0l-2.3-2.29a6.52,6.52,0,0,1,0-9.2L109.62,60a6.49,6.49,0,0,1,9.19,0l11.6,11.61V69.92a6.5,6.5,0,0,1,6.5-6.5h3.25a6.5,6.5,0,0,1,6.5,6.5V87.83l7.4,7.39a3.25,3.25,0,0,1,2.09,5.54Z"/><path class="b8b3a482-f703-4de4-8abf-d52aee681192" d="M612.42,61H624.1v3.65h-3.71v11H616.1v-11h-3.68Zm13.09,0h4.72l3.34,7.78L637,61h4.72V75.62h-3.85V67.39l-2.77,6.81h-2.92l-2.77-6.81v8.23h-3.85Z"/><path class="b8b3a482-f703-4de4-8abf-d52aee681192" d="M271.65,61v78H254.31V107h-34v32H202.92V61h17.35V91.75h34V61Zm10.65,39c0-22.41,16.77-39,39.65-39s39.64,16.48,39.64,39S344.72,139,322,139,282.3,122.41,282.3,100Zm62.09.39c0-14.19-9.63-23.9-22.44-23.9s-22.45,9.71-22.45,23.9,9.64,23.89,22.45,23.89S344.39,114.57,344.39,100.39ZM368.8,100c0-22.41,16.77-39,39.65-39s39.64,16.48,39.64,39-16.87,39-39.64,39S368.8,122.41,368.8,100Zm62.09.39c0-14.19-9.63-23.9-22.44-23.9S386,86.2,386,100.39s9.64,23.89,22.45,23.89S430.89,114.57,430.89,100.39Zm96.58,17.33c0,13.48-10.28,21.28-30,21.28H458.74V61h36.61c18.74,0,28.38,8.13,28.38,20.28a18.86,18.86,0,0,1-10,17.16C522.12,101.23,527.47,107.91,527.47,117.72ZM476.71,76.06V93.67h16.5c8.1,0,12.5-3,12.5-8.86s-4.4-8.75-12.5-8.75Zm32.59,39.47c0-6.29-4.61-9.28-13.22-9.28H476.71v18.46h19.37C504.69,124.71,509.3,121.93,509.3,115.53Zm23.38,14.74,5.69-13.14A41.52,41.52,0,0,0,562.28,125c9.94,0,14-3.44,14-8.08,0-14.11-42.13-4.41-42.13-32.42,0-12.82,9.94-23.49,30.53-23.49,9.11,0,18.43,2.26,25.16,6.68l-5.18,13.25A39.67,39.67,0,0,0,564.56,75c-9.94,0-13.77,3.87-13.77,8.61,0,13.9,42.13,4.31,42.13,32,0,12.61-10,23.38-30.74,23.38C550.69,139,539.1,135.44,532.68,130.27Z"/><g id="bf9441f5-c972-456c-9dac-8e9fcc5fbc67" data-name="g8080"><g id="b30894f0-5920-434e-8aff-de1c126cf095" data-name="g8086"><path id="bb2aaa6c-61da-4d57-badf-2cf189509614" data-name="path8088" class="b2c8a2cb-9bcc-405c-b327-3f750bc8eb78" d="M1388.3,57.74v48.72l-31.06-48.72h-24V136h18.43V84.56L1383.72,136h22.79V57.74ZM1260.93,96.85a22,22,0,1,1,22,22,21.75,21.75,0,0,1-22-22m-18.66,0a40.67,40.67,0,1,0,40.67-40.67,40.25,40.25,0,0,0-40.67,40.67m-34.86-23.13a9.57,9.57,0,0,1,9.72,9.28c0,4.35-2.68,9.49-11.85,9.49h-9.82V73.72ZM1218.14,136h22.23l-17.66-30.83a24.93,24.93,0,0,0,14.09-22.68c0-12.4-10.62-24.7-27.93-24.7h-32.63V136h19.22V108.47h8.71Zm-110.5-78.21v16h20.78V136H1148V73.72h22.13v-16Zm-42.9-1.56h1.45a40.67,40.67,0,1,1-40.67,40.67,56.09,56.09,0,0,1,.33-6.15l18.33,5.59v.56a22,22,0,1,0,24.36-21.68ZM996,120V57.74H976.36V136h48.71V120ZM937.59,73.72c5.81,0,8.82,3.35,8.82,7.6s-3.68,7.48-9.49,7.48H925.53V73.72Zm0,31.06c5.58,0,9.94,3.35,9.94,7.6s-4.13,7.6-9.94,7.6H925.53v-15.2ZM906.3,136h31.29c16.54,0,29.72-9.49,29.72-21.67,0-10.06-6.48-16.09-14.86-18.55,7.93-2.57,13.18-9,13.18-18.55,0-12-9.71-19.44-28-19.44H906.3ZM859.72,78.53l9.38,27.15H850.33Zm10.94-20.79H849.1L819.72,136h20.11l4.92-14.3h29.83l5,14.3h21.67ZM778.38,136a82.14,82.14,0,0,0,13,1.23c19.66,0,27-11,27-28.26V57.74H799.05v46.48c0,12.74-5.26,15.87-11.4,15.87a33.38,33.38,0,0,1-8.15-1Z"/></g><g id="ff01cf4f-6877-4ac3-b592-f1aaf0040406" data-name="g8090"><path id="fab29976-645e-489f-be95-355be8fc0fe5" data-name="path8092" class="a9d0401b-3841-44d0-90f5-b6839f48732b" d="M1066.64,97.3l-10.51-50.62a50.45,50.45,0,0,0-38.77,34.86Z"/></g><g id="a526f021-8de8-40ee-976d-93c84b07f13b" data-name="g8094"><path id="b84861c2-4e99-44b1-82aa-deba4d5e77c6" data-name="path8096" class="b2c8a2cb-9bcc-405c-b327-3f750bc8eb78" d="M1403.57,162c0,.87-1,1.32-2.37,1.32a10.34,10.34,0,0,1-2.94-.53l-.13,3.43a20,20,0,0,0,4.18.42c3.61,0,5-2.4,5-4.77,0-4.37-5.77-4.1-5.77-6.23,0-.9,1-1.15,2.17-1.15a7.09,7.09,0,0,1,2.75.53l.13-3.43a13.07,13.07,0,0,0-3.5-.45c-3.28,0-5.31,1.92-5.31,4.63,0,4.71,5.76,4.2,5.76,6.23m-24.42,4.37h3.58l3.24-9.49v9.49h3.63V151.48h-5l-3.67,10.13-3.73-10.13h-5v14.93h3.52v-9.47Zm-20.75-11.88a1.82,1.82,0,0,1,1.85,1.77c0,.83-.51,1.81-2.26,1.81h-1.88v-3.58Zm2,11.88h4.24l-3.37-5.89a4.75,4.75,0,0,0,2.68-4.33c0-2.37-2-4.71-5.33-4.71h-6.22v14.93h3.66v-5.25h1.67Zm-23.19-11,1.79,5.18h-3.58Zm2.09-4h-4.12l-5.61,14.93h3.84l.94-2.73h5.7l1,2.73h4.13Zm-20.24,11.88V151.48h-3.75v14.93h9.29v-3Zm-18.95-7.91,1.8,5.18h-3.59Zm2.1-4h-4.12l-5.61,14.93h3.84l.94-2.73H1303l1,2.73h4.14Zm-31.7,7.46h-3.62v4.31c-2.57,0-4.62-1.34-4.62-4.26a4.23,4.23,0,0,1,4.42-4.36,9.23,9.23,0,0,1,3.45.54l.14-3.54a13.33,13.33,0,0,0-3.74-.45,7.61,7.61,0,0,0-7.84,7.83c0,4.54,3.34,7.67,8,7.67a16.13,16.13,0,0,0,3.8-.44Zm-23.33-7.46v9.3l-5.93-9.3h-4.59v14.93h3.52V156.6l6.12,9.81h4.35V151.48Zm-23.15,14.93h3.67V151.48h-3.67Zm-19.6-14.93v3.05h4v11.88h3.73V154.53h4.22v-3.05Zm-12.41,4,1.79,5.18h-3.59Zm2.09-4H1190l-5.61,14.93h3.84l.94-2.73h5.69l1,2.73H1200Zm-26.47,14.93h9.91v-3h-6.25v-2.92h6v-3.05h-6v-2.86h6.25v-3.05h-9.91Zm-13.87-11.88a1.82,1.82,0,0,1,1.86,1.77c0,.83-.51,1.81-2.26,1.81h-1.88v-3.58Zm2,11.88h4.24l-3.36-5.89a4.75,4.75,0,0,0,2.68-4.33c0-2.37-2-4.71-5.33-4.71h-6.23v14.93h3.67v-5.25h1.67Zm-16.45-3.69a8.37,8.37,0,0,1-3,.53,4.31,4.31,0,1,1-.13-8.62,7.16,7.16,0,0,1,3,.54l.13-3.54a10.88,10.88,0,0,0-3.31-.45,7.75,7.75,0,1,0,0,15.5,12.83,12.83,0,0,0,3.37-.42Z"/></g></g></svg>