<svg id="b3958b3a-4f29-4ea4-a5b2-6e2d321854df" data-name="Ebene 1" xmlns="http://www.w3.org/2000/svg" viewBox="0 0 1680 200"><defs><style>.e387b2d9-915a-49e4-9fcc-2da3ed7a8cc1{fill:none;stroke:#ccc;stroke-miterlimit:10;}.aa1f41d1-76b6-40b9-a28e-32d162b8ce78{fill:#f9b213;}.e3e5035f-73b4-4a22-8012-f1ba2d10ac7d{isolation:isolate;}.badcd1fe-da11-45f1-a8a4-5fda588a5bcf{fill:#ccc;}.b7d4a602-b1ba-4347-af5b-b8138cc1b2ee{fill:#42b07e;}</style></defs><title>HOOBS_x_mihome-gateway</title><g id="f59fb888-7905-45ab-ac35-d2174a77da9e" data-name="Stroke"><line class="e387b2d9-915a-49e4-9fcc-2da3ed7a8cc1" x1="700.5" y1="60" x2="700.5" y2="140"/></g><path class="aa1f41d1-76b6-40b9-a28e-32d162b8ce78" d="M154.17,41.5h-78A19.5,19.5,0,0,0,56.67,61v78a19.5,19.5,0,0,0,19.5,19.5h78a19.5,19.5,0,0,0,19.5-19.5V61A19.5,19.5,0,0,0,154.17,41.5Zm2,59.26a3.24,3.24,0,0,1-4.59,0,3.21,3.21,0,0,1-.95-2.09l-8.82-8.82V69.92a1.63,1.63,0,0,0-1.63-1.63h-3.25a1.63,1.63,0,0,0-1.62,1.63V83.6l-4.88-5.13-15-15a1.62,1.62,0,0,0-2.3,0L78.59,97.89a1.64,1.64,0,0,0,0,2.3l2.3,2.3a1.64,1.64,0,0,0,2.3,0l26.43-26.43a6.49,6.49,0,0,1,9.19,0l26.43,26.43a6.51,6.51,0,0,1,0,9.19l-2.3,2.3a6.49,6.49,0,0,1-9.19,0L115.36,95.59a1.64,1.64,0,0,0-2.3,0L94.68,114a1.62,1.62,0,0,0,0,2.3l2.3,2.29a1.61,1.61,0,0,0,2.29,0l10.35-10.34a6.49,6.49,0,0,1,9.19,0l10.34,10.34a6.51,6.51,0,0,1,0,9.2L118,138.89a3.21,3.21,0,0,1-1,2.09,3.25,3.25,0,1,1-2.5-5.54l11.12-11.12a1.62,1.62,0,0,0,0-2.3l-10.34-10.34a1.62,1.62,0,0,0-2.3,0L102.72,122a6.49,6.49,0,0,1-9.19,0l-2.3-2.3a6.49,6.49,0,0,1,0-9.19l18.39-18.38a6.49,6.49,0,0,1,9.19,0l18.38,18.38a1.64,1.64,0,0,0,2.3,0l2.3-2.3a1.64,1.64,0,0,0,0-2.3L115.36,79.51a1.62,1.62,0,0,0-2.3,0L86.63,105.93a6.49,6.49,0,0,1-9.19,0l-2.3-2.29a6.52,6.52,0,0,1,0-9.2L109.62,60a6.49,6.49,0,0,1,9.19,0l11.6,11.61V69.92a6.5,6.5,0,0,1,6.5-6.5h3.25a6.5,6.5,0,0,1,6.5,6.5V87.83l7.4,7.39a3.25,3.25,0,0,1,2.09,5.54Z"/><path class="aa1f41d1-76b6-40b9-a28e-32d162b8ce78" d="M612.42,61H624.1v3.65h-3.71v11H616.1v-11h-3.68Zm13.09,0h4.72l3.34,7.78L637,61h4.72V75.62h-3.85V67.39l-2.77,6.81h-2.92l-2.77-6.81v8.23h-3.85Z"/><path class="aa1f41d1-76b6-40b9-a28e-32d162b8ce78" d="M271.65,61v78H254.31V107h-34v32H202.92V61h17.35V91.75h34V61Zm10.65,39c0-22.41,16.77-39,39.65-39s39.64,16.48,39.64,39S344.72,139,322,139,282.3,122.41,282.3,100Zm62.09.39c0-14.19-9.63-23.9-22.44-23.9s-22.45,9.71-22.45,23.9,9.64,23.89,22.45,23.89S344.39,114.57,344.39,100.39ZM368.8,100c0-22.41,16.77-39,39.65-39s39.64,16.48,39.64,39-16.87,39-39.64,39S368.8,122.41,368.8,100Zm62.09.39c0-14.19-9.63-23.9-22.44-23.9S386,86.2,386,100.39s9.64,23.89,22.45,23.89S430.89,114.57,430.89,100.39Zm96.58,17.33c0,13.48-10.28,21.28-30,21.28H458.74V61h36.61c18.74,0,28.38,8.13,28.38,20.28a18.86,18.86,0,0,1-10,17.16C522.12,101.23,527.47,107.91,527.47,117.72ZM476.71,76.06V93.67h16.5c8.1,0,12.5-3,12.5-8.86s-4.4-8.75-12.5-8.75Zm32.59,39.47c0-6.29-4.61-9.28-13.22-9.28H476.71v18.46h19.37C504.69,124.71,509.3,121.93,509.3,115.53Zm23.38,14.74,5.69-13.14A41.52,41.52,0,0,0,562.28,125c9.94,0,14-3.44,14-8.08,0-14.11-42.13-4.41-42.13-32.42,0-12.82,9.94-23.49,30.53-23.49,9.11,0,18.43,2.26,25.16,6.68l-5.18,13.25A39.67,39.67,0,0,0,564.56,75c-9.94,0-13.77,3.87-13.77,8.61,0,13.9,42.13,4.31,42.13,32,0,12.61-10,23.38-30.74,23.38C550.69,139,539.1,135.44,532.68,130.27Z"/><g class="e3e5035f-73b4-4a22-8012-f1ba2d10ac7d"><path class="badcd1fe-da11-45f1-a8a4-5fda588a5bcf" d="M939.31,79.14l9.13,25.78,9.09-25.78h9.61v35.54H959.8V105l.73-16.77-9.6,26.48h-5l-9.57-26.46.74,16.75v9.71h-7.33V79.14Z"/><path class="badcd1fe-da11-45f1-a8a4-5fda588a5bcf" d="M973,81.43a3.47,3.47,0,0,1,1.06-2.61,4.56,4.56,0,0,1,5.77,0,3.72,3.72,0,0,1,0,5.25,4.53,4.53,0,0,1-5.73,0A3.44,3.44,0,0,1,973,81.43Zm7.49,33.25h-7.08V88.27h7.08Z"/><path class="badcd1fe-da11-45f1-a8a4-5fda588a5bcf" d="M1015.73,114.68h-7.33V99.45H994.12v15.23H986.8V79.14h7.32v14.4h14.28V79.14h7.33Z"/><path class="badcd1fe-da11-45f1-a8a4-5fda588a5bcf" d="M1020.56,101.23a15.63,15.63,0,0,1,1.52-7,11.06,11.06,0,0,1,4.35-4.77,12.76,12.76,0,0,1,6.61-1.68,12.05,12.05,0,0,1,8.73,3.27,13.16,13.16,0,0,1,3.77,8.89l0,1.81q0,6.07-3.4,9.75a13.15,13.15,0,0,1-18.22,0q-3.4-3.66-3.41-10Zm7.06.5a9.92,9.92,0,0,0,1.41,5.76,5.1,5.1,0,0,0,8.06,0c1-1.32,1.44-3.41,1.44-6.3a9.77,9.77,0,0,0-1.44-5.72,4.69,4.69,0,0,0-4-2,4.61,4.61,0,0,0-4,2Q1027.62,97.5,1027.62,101.73Z"/><path class="badcd1fe-da11-45f1-a8a4-5fda588a5bcf" d="M1056.55,88.27l.22,3a9.29,9.29,0,0,1,7.59-3.44q5.1,0,7,4a9.05,9.05,0,0,1,7.93-4q4.31,0,6.4,2.5t2.1,7.53v16.87h-7.08V97.84a5,5,0,0,0-.88-3.28,3.87,3.87,0,0,0-3.1-1,4.42,4.42,0,0,0-4.4,3l0,18.14h-7.06V97.86a5,5,0,0,0-.9-3.32,4,4,0,0,0-3.08-1A4.56,4.56,0,0,0,1057,96v18.67h-7.06V88.27Z"/><path class="badcd1fe-da11-45f1-a8a4-5fda588a5bcf" d="M1105.38,115.17a12.93,12.93,0,0,1-9.46-3.56,12.65,12.65,0,0,1-3.65-9.5v-.68a16,16,0,0,1,1.53-7.12,11.31,11.31,0,0,1,4.36-4.83,12.27,12.27,0,0,1,6.44-1.7,11,11,0,0,1,8.53,3.42q3.11,3.42,3.11,9.69v2.88h-16.82a6.58,6.58,0,0,0,2.06,4.15,6.25,6.25,0,0,0,4.36,1.56,7.6,7.6,0,0,0,6.37-3l3.47,3.88a10.6,10.6,0,0,1-4.3,3.51A14.19,14.19,0,0,1,1105.38,115.17Zm-.81-21.7a4.39,4.39,0,0,0-3.4,1.42,7.37,7.37,0,0,0-1.68,4.07h9.82V98.4a5.24,5.24,0,0,0-1.27-3.64A4.56,4.56,0,0,0,1104.57,93.47Z"/><path class="badcd1fe-da11-45f1-a8a4-5fda588a5bcf" d="M1161.29,110.19a12.74,12.74,0,0,1-5.6,3.68,23.35,23.35,0,0,1-8,1.3,15.91,15.91,0,0,1-8.1-2,13.39,13.39,0,0,1-5.37-5.85,20.55,20.55,0,0,1-1.94-9V95.89a21.82,21.82,0,0,1,1.8-9.22,13.26,13.26,0,0,1,5.17-6,15,15,0,0,1,7.92-2.06q6.33,0,9.89,3t4.23,8.77h-7.13A7.17,7.17,0,0,0,1152,86a6.94,6.94,0,0,0-4.61-1.41,6.46,6.46,0,0,0-5.68,2.81q-2,2.8-2,8.34V98c0,3.72.71,6.54,2.12,8.44a7.27,7.27,0,0,0,6.23,2.86q4.13,0,5.88-1.76V101.4h-6.66V96h14Z"/><path class="badcd1fe-da11-45f1-a8a4-5fda588a5bcf" d="M1182.06,114.68a8,8,0,0,1-.71-2.36,8.54,8.54,0,0,1-6.66,2.85,9.4,9.4,0,0,1-6.43-2.24,7.22,7.22,0,0,1-2.56-5.67,7.45,7.45,0,0,1,3.12-6.44q3.11-2.25,9-2.27h3.25V97a4.35,4.35,0,0,0-.94-2.93,3.72,3.72,0,0,0-3-1.1,4.19,4.19,0,0,0-2.79.86,2.88,2.88,0,0,0-1,2.34h-7.06a7,7,0,0,1,1.42-4.24,9.24,9.24,0,0,1,4-3.07,14.61,14.61,0,0,1,5.81-1.11,11.54,11.54,0,0,1,7.75,2.45,8.61,8.61,0,0,1,2.87,6.9v11.45a12.74,12.74,0,0,0,1,5.69v.41Zm-5.83-4.9a6,6,0,0,0,2.88-.7,4.47,4.47,0,0,0,2-1.87v-4.54h-2.64q-5.3,0-5.64,3.66l0,.42a2.81,2.81,0,0,0,.93,2.17A3.6,3.6,0,0,0,1176.23,109.78Z"/><path class="badcd1fe-da11-45f1-a8a4-5fda588a5bcf" d="M1202,81.77v6.5h4.51v5.17H1202v13.19a3.2,3.2,0,0,0,.56,2.1,2.83,2.83,0,0,0,2.15.63,10.69,10.69,0,0,0,2.07-.17v5.35a14.57,14.57,0,0,1-4.27.63q-7.43,0-7.57-7.49V93.44h-3.86V88.27H1195v-6.5Z"/><path class="badcd1fe-da11-45f1-a8a4-5fda588a5bcf" d="M1222.61,115.17a13,13,0,0,1-9.46-3.56,12.69,12.69,0,0,1-3.65-9.5v-.68a16.05,16.05,0,0,1,1.54-7.12,11.31,11.31,0,0,1,4.36-4.83,12.23,12.23,0,0,1,6.43-1.7,11,11,0,0,1,8.54,3.42q3.11,3.42,3.11,9.69v2.88h-16.82a6.48,6.48,0,0,0,2.06,4.15,6.25,6.25,0,0,0,4.36,1.56,7.62,7.62,0,0,0,6.37-3l3.47,3.88a10.6,10.6,0,0,1-4.3,3.51A14.24,14.24,0,0,1,1222.61,115.17Zm-.8-21.7a4.41,4.41,0,0,0-3.41,1.42,7.36,7.36,0,0,0-1.67,4.07h9.81V98.4a5.19,5.19,0,0,0-1.27-3.64A4.53,4.53,0,0,0,1221.81,93.47Z"/><path class="badcd1fe-da11-45f1-a8a4-5fda588a5bcf" d="M1260.46,105.09l3.46-16.82h6.81L1264,114.68h-5.91l-5-16.62-5,16.62h-5.89l-6.73-26.41h6.81l3.44,16.8,4.83-16.8h5.11Z"/><path class="badcd1fe-da11-45f1-a8a4-5fda588a5bcf" d="M1289.53,114.68a8,8,0,0,1-.71-2.36,8.53,8.53,0,0,1-6.66,2.85,9.4,9.4,0,0,1-6.43-2.24,7.25,7.25,0,0,1-2.56-5.67,7.45,7.45,0,0,1,3.12-6.44q3.11-2.25,9-2.27h3.25V97a4.35,4.35,0,0,0-.94-2.93,3.71,3.71,0,0,0-3-1.1,4.19,4.19,0,0,0-2.79.86,2.88,2.88,0,0,0-1,2.34h-7.06a7,7,0,0,1,1.42-4.24,9.3,9.3,0,0,1,4-3.07,14.61,14.61,0,0,1,5.81-1.11,11.54,11.54,0,0,1,7.75,2.45,8.58,8.58,0,0,1,2.87,6.9v11.45a12.74,12.74,0,0,0,1.05,5.69v.41Zm-5.83-4.9a6,6,0,0,0,2.88-.7,4.47,4.47,0,0,0,2-1.87v-4.54h-2.64q-5.3,0-5.64,3.66l0,.42a2.81,2.81,0,0,0,.93,2.17A3.6,3.6,0,0,0,1283.7,109.78Z"/><path class="badcd1fe-da11-45f1-a8a4-5fda588a5bcf" d="M1310.53,104.7l4.88-16.43H1323l-10.62,30.52-.59,1.39a8,8,0,0,1-7.81,5.17,11,11,0,0,1-3.12-.46v-5.35l1.07,0a5.89,5.89,0,0,0,3-.61,4,4,0,0,0,1.55-2l.83-2.17L1298,88.27h7.59Z"/></g><path class="b7d4a602-b1ba-4347-af5b-b8138cc1b2ee" d="M779.66,114.68c-.21-1.77-.52-3.38-.58-5-.11-2.69-.08-5.38-.08-8.07V41.74c0-1.7,0-1.7,1.74-1.7,5,0,10.07.1,15.09,0a15.29,15.29,0,0,1,6.62,1.47c6.07,2.61,12.17,5.15,18.26,7.73,3.33,1.41,6.67,2.82,10,4.3a4,4,0,0,0,3.48.06c5.6-2.39,11.23-4.72,16.84-7.1,4.73-2,9.45-4.05,14.18-6.05a4.8,4.8,0,0,1,1.76-.35c5.81,0,11.62,0,17.44,0,1.13,0,1.58.27,1.58,1.51-.06,9,0,18,0,27.08a1.51,1.51,0,0,1-1.06,1.65c-3.83,1.6-7.63,3.25-11.44,4.88-1.82.78-3.65,1.55-5.46,2.35s-2,.64-2-1.21q0-6.51,0-13c0-1.35-.28-1.52-1.41-1-4.92,2.12-9.84,4.24-14.76,6.32-5.41,2.29-10.86,4.5-16.24,6.86a3.17,3.17,0,0,1-2.82-.31c-8.24-3.45-16.46-7-24.69-10.44-1.71-.72-3.42-1.45-5.1-2.23-1.51-.71-1.82-.56-1.82,1.11q0,19.73,0,39.44c0,3.58,0,3.56-3.32,5-4.89,2.07-9.76,4.19-14.64,6.27C780.74,114.4,780.32,114.48,779.66,114.68Z"/><path class="b7d4a602-b1ba-4347-af5b-b8138cc1b2ee" d="M885.86,84.54c0,.68.06,1.1.06,1.52,0,6.94,0,13.88,0,20.83a53.92,53.92,0,0,1-3,17.32,52.93,52.93,0,0,1-16.91,24,51.15,51.15,0,0,1-16.52,9,53.49,53.49,0,0,1-59.91-18.88c-2.19-2.91-3.81-6.27-5.68-9.43-.42-.71-.22-1.15.59-1.49,5.19-2.14,10.4-4.26,15.52-6.56,1.4-.63,2-.51,2.63.88a31.84,31.84,0,0,0,7,9.29,34,34,0,0,0,9.25,6.14,33.57,33.57,0,0,0,45.46-20A29.69,29.69,0,0,0,866,107.07c-.06-4.2,0-8.41,0-12.62a2,2,0,0,1,1.42-2.16c4.54-1.91,9.07-3.86,13.6-5.77C882.49,85.87,884.05,85.27,885.86,84.54Z"/></svg>