<svg id="e68c6856-dad3-45c4-8746-a7aee0bcb658" data-name="Ebene 1" xmlns="http://www.w3.org/2000/svg" viewBox="0 0 1680 200"><defs><style>.f2da6f76-2dae-41cc-bd34-e523e4a855e1{fill:none;stroke:#ccc;stroke-miterlimit:10;}.ee75397c-811b-4a5d-928d-e8b2b8bc930b{fill:#f9b213;}.b7049adf-eca6-4ddf-b235-c5d855af13f9{fill:#ccc;}.e3184280-70f5-42e5-805e-33cc6d8fbb41{isolation:isolate;}</style></defs><title>HOOBS_x_denonheos</title><g id="b8d0c24f-d317-4e32-8b10-2829089bca26" data-name="Stroke"><line class="f2da6f76-2dae-41cc-bd34-e523e4a855e1" x1="700.5" y1="60" x2="700.5" y2="140"/></g><path class="ee75397c-811b-4a5d-928d-e8b2b8bc930b" d="M154.17,41.5h-78A19.5,19.5,0,0,0,56.67,61v78a19.5,19.5,0,0,0,19.5,19.5h78a19.5,19.5,0,0,0,19.5-19.5V61A19.5,19.5,0,0,0,154.17,41.5Zm2,59.26a3.24,3.24,0,0,1-4.59,0,3.21,3.21,0,0,1-.95-2.09l-8.82-8.82V69.92a1.63,1.63,0,0,0-1.63-1.63h-3.25a1.63,1.63,0,0,0-1.62,1.63V83.6l-4.88-5.13-15-15a1.62,1.62,0,0,0-2.3,0L78.59,97.89a1.64,1.64,0,0,0,0,2.3l2.3,2.3a1.64,1.64,0,0,0,2.3,0l26.43-26.43a6.49,6.49,0,0,1,9.19,0l26.43,26.43a6.51,6.51,0,0,1,0,9.19l-2.3,2.3a6.49,6.49,0,0,1-9.19,0L115.36,95.59a1.64,1.64,0,0,0-2.3,0L94.68,114a1.62,1.62,0,0,0,0,2.3l2.3,2.29a1.61,1.61,0,0,0,2.29,0l10.35-10.34a6.49,6.49,0,0,1,9.19,0l10.34,10.34a6.51,6.51,0,0,1,0,9.2L118,138.89a3.21,3.21,0,0,1-1,2.09,3.25,3.25,0,1,1-2.5-5.54l11.12-11.12a1.62,1.62,0,0,0,0-2.3l-10.34-10.34a1.62,1.62,0,0,0-2.3,0L102.72,122a6.49,6.49,0,0,1-9.19,0l-2.3-2.3a6.49,6.49,0,0,1,0-9.19l18.39-18.38a6.49,6.49,0,0,1,9.19,0l18.38,18.38a1.64,1.64,0,0,0,2.3,0l2.3-2.3a1.64,1.64,0,0,0,0-2.3L115.36,79.51a1.62,1.62,0,0,0-2.3,0L86.63,105.93a6.49,6.49,0,0,1-9.19,0l-2.3-2.29a6.52,6.52,0,0,1,0-9.2L109.62,60a6.49,6.49,0,0,1,9.19,0l11.6,11.61V69.92a6.5,6.5,0,0,1,6.5-6.5h3.25a6.5,6.5,0,0,1,6.5,6.5V87.83l7.4,7.39a3.25,3.25,0,0,1,2.09,5.54Z"/><path class="ee75397c-811b-4a5d-928d-e8b2b8bc930b" d="M612.42,61H624.1v3.65h-3.71v11H616.1v-11h-3.68Zm13.09,0h4.72l3.34,7.78L637,61h4.72V75.62h-3.85V67.39l-2.77,6.81h-2.92l-2.77-6.81v8.23h-3.85Z"/><path class="ee75397c-811b-4a5d-928d-e8b2b8bc930b" d="M271.65,61v78H254.31V107h-34v32H202.92V61h17.35V91.75h34V61Zm10.65,39c0-22.41,16.77-39,39.65-39s39.64,16.48,39.64,39S344.72,139,322,139,282.3,122.41,282.3,100Zm62.09.39c0-14.19-9.63-23.9-22.44-23.9s-22.45,9.71-22.45,23.9,9.64,23.89,22.45,23.89S344.39,114.57,344.39,100.39ZM368.8,100c0-22.41,16.77-39,39.65-39s39.64,16.48,39.64,39-16.87,39-39.64,39S368.8,122.41,368.8,100Zm62.09.39c0-14.19-9.63-23.9-22.44-23.9S386,86.2,386,100.39s9.64,23.89,22.45,23.89S430.89,114.57,430.89,100.39Zm96.58,17.33c0,13.48-10.28,21.28-30,21.28H458.74V61h36.61c18.74,0,28.38,8.13,28.38,20.28a18.86,18.86,0,0,1-10,17.16C522.12,101.23,527.47,107.91,527.47,117.72ZM476.71,76.06V93.67h16.5c8.1,0,12.5-3,12.5-8.86s-4.4-8.75-12.5-8.75Zm32.59,39.47c0-6.29-4.61-9.28-13.22-9.28H476.71v18.46h19.37C504.69,124.71,509.3,121.93,509.3,115.53Zm23.38,14.74,5.69-13.14A41.52,41.52,0,0,0,562.28,125c9.94,0,14-3.44,14-8.08,0-14.11-42.13-4.41-42.13-32.42,0-12.82,9.94-23.49,30.53-23.49,9.11,0,18.43,2.26,25.16,6.68l-5.18,13.25A39.67,39.67,0,0,0,564.56,75c-9.94,0-13.77,3.87-13.77,8.61,0,13.9,42.13,4.31,42.13,32,0,12.61-10,23.38-30.74,23.38C550.69,139,539.1,135.44,532.68,130.27Z"/><g id="bb0bde98-2f24-406b-83b8-bb076d7e2c0d" data-name="denon"><g id="b49c4d3a-89f5-457e-9476-9c44f57390a1" data-name="layer1"><g id="a22123f2-6816-43b1-9d78-716761ba0849" data-name="g5872"><path id="bbfd4338-dfbc-489b-be4b-ad07b047053b" data-name="path5098" class="b7049adf-eca6-4ddf-b235-c5d855af13f9" d="M990.65,82.44l76.55,76.25v-115h-17.58v71.72L972.91,40.92V156.05h17.57V83.17l.17-.73"/><path id="bed8dc8a-56e4-431e-9347-c21f687b1678" data-name="path5100" class="b7049adf-eca6-4ddf-b235-c5d855af13f9" d="M889.23,156.05V43.65h62.89V61.18H906.8v26.4h35.1v17.54H906.8v33.39h45v17.54H889.23"/><path id="b1247d35-3979-4e2e-b367-7b97ec5009c4" data-name="path5102" class="b7049adf-eca6-4ddf-b235-c5d855af13f9" d="M1243.59,82.26l77.1,76V43.65h-17.58v72.59l-.11-.33L1225.85,40.8V156.05h17.79V82.26"/><path id="e187056d-5dd7-49da-a051-8539a6185a95" data-name="path5104" class="b7049adf-eca6-4ddf-b235-c5d855af13f9" d="M779.45,43.65v112.4h37.31s52.72-4.39,52.72-56.64c0-53.85-52.83-55.76-52.83-55.76ZM797,139.38V59.92h15.5s39.61-.73,39.61,40.17c0,37.36-36,39.3-36,39.3H797"/><path id="e0a15f72-7477-47ff-b410-772046523f8e" data-name="path5106" class="b7049adf-eca6-4ddf-b235-c5d855af13f9" d="M1104,100.44A42.45,42.45,0,0,1,1146.2,57.8c23.34,0,43.09,16.3,43.09,42.64,0,23.54-19.75,42.63-43.09,42.63A42.46,42.46,0,0,1,1104,100.44ZM1146.2,160c34.55.44,61.32-29.79,61.32-57.52,0-29.85-21.49-62.48-60.45-62.48-29,0-61,23.56-61,60.44,0,27.71,21.16,59.06,60.12,59.56"/></g></g></g><g class="e3184280-70f5-42e5-805e-33cc6d8fbb41"><path class="b7049adf-eca6-4ddf-b235-c5d855af13f9" d="M1380.32,160h-9.23V140.8h-18V160h-9.23V115.21h9.23v18.15h18V115.21h9.23Z"/><path class="b7049adf-eca6-4ddf-b235-c5d855af13f9" d="M1415.33,140.59h-17.72v12h20.8V160h-30V115.21h30v7.47h-20.74v10.68h17.72Z"/><path class="b7049adf-eca6-4ddf-b235-c5d855af13f9" d="M1460.62,138.62a27,27,0,0,1-2.34,11.6,17.61,17.61,0,0,1-6.69,7.69,19.75,19.75,0,0,1-19.92,0,17.75,17.75,0,0,1-6.77-7.65,26.23,26.23,0,0,1-2.43-11.42v-2.22a26.86,26.86,0,0,1,2.38-11.64,17.79,17.79,0,0,1,6.74-7.73,19.77,19.77,0,0,1,19.91,0,17.79,17.79,0,0,1,6.74,7.73,26.78,26.78,0,0,1,2.38,11.61Zm-9.35-2q0-7.05-2.52-10.71a8.91,8.91,0,0,0-14.37,0q-2.54,3.61-2.56,10.6v2.18q0,6.85,2.53,10.65a8.84,8.84,0,0,0,14.4.13q2.49-3.65,2.52-10.63Z"/><path class="b7049adf-eca6-4ddf-b235-c5d855af13f9" d="M1490.56,148.25a4.76,4.76,0,0,0-1.85-4,24.49,24.49,0,0,0-6.65-2.95,47,47,0,0,1-7.59-3.06q-7.63-4.12-7.63-11.11a10.81,10.81,0,0,1,2-6.47,13.37,13.37,0,0,1,5.88-4.45,22,22,0,0,1,8.6-1.6,20.09,20.09,0,0,1,8.55,1.74,13.57,13.57,0,0,1,5.83,4.91,12.87,12.87,0,0,1,2.08,7.2h-9.23a6.05,6.05,0,0,0-1.94-4.79,8,8,0,0,0-5.45-1.71,8.48,8.48,0,0,0-5.26,1.44,4.5,4.5,0,0,0-1.87,3.76,4.3,4.3,0,0,0,2.2,3.66,24.48,24.48,0,0,0,6.47,2.77q7.88,2.37,11.48,5.88a11.71,11.71,0,0,1,3.6,8.74,10.79,10.79,0,0,1-4.4,9.12c-2.94,2.21-6.88,3.31-11.85,3.31a22.89,22.89,0,0,1-9.41-1.89,15,15,0,0,1-6.48-5.19,13.25,13.25,0,0,1-2.23-7.63h9.26q0,7.43,8.86,7.42a8.63,8.63,0,0,0,5.14-1.34A4.36,4.36,0,0,0,1490.56,148.25Z"/></g></svg>