<svg id="a6d053cf-63ff-402d-8ba0-a8bcbd8abd5d" data-name="Ebene 1" xmlns="http://www.w3.org/2000/svg" viewBox="0 0 1680 200"><defs><style>.ba1151b3-5afc-4eae-8582-5b5d551b71d8{fill:none;stroke:#ccc;stroke-miterlimit:10;}.bdb5b399-284f-4ec3-99d9-ebca41ea28da{fill:#f9b213;}.a4f2bca9-5ec5-450f-b3c4-0fedadb62292{fill:#ccc;}.e89024d4-b03a-4f4d-9a45-6c31a89b1b50{fill:#437eed;}</style></defs><title>HOOBS_x_homeconnect</title><g id="e6cf3457-e6a0-4ca8-9219-083e93e0d4af" data-name="Stroke"><line class="ba1151b3-5afc-4eae-8582-5b5d551b71d8" x1="700.5" y1="60" x2="700.5" y2="140"/></g><path class="bdb5b399-284f-4ec3-99d9-ebca41ea28da" d="M154.17,41.5h-78A19.5,19.5,0,0,0,56.67,61v78a19.5,19.5,0,0,0,19.5,19.5h78a19.5,19.5,0,0,0,19.5-19.5V61A19.5,19.5,0,0,0,154.17,41.5Zm2,59.26a3.24,3.24,0,0,1-4.59,0,3.21,3.21,0,0,1-.95-2.09l-8.82-8.82V69.92a1.63,1.63,0,0,0-1.63-1.63h-3.25a1.63,1.63,0,0,0-1.62,1.63V83.6l-4.88-5.13-15-15a1.62,1.62,0,0,0-2.3,0L78.59,97.89a1.64,1.64,0,0,0,0,2.3l2.3,2.3a1.64,1.64,0,0,0,2.3,0l26.43-26.43a6.49,6.49,0,0,1,9.19,0l26.43,26.43a6.51,6.51,0,0,1,0,9.19l-2.3,2.3a6.49,6.49,0,0,1-9.19,0L115.36,95.59a1.64,1.64,0,0,0-2.3,0L94.68,114a1.62,1.62,0,0,0,0,2.3l2.3,2.29a1.61,1.61,0,0,0,2.29,0l10.35-10.34a6.49,6.49,0,0,1,9.19,0l10.34,10.34a6.51,6.51,0,0,1,0,9.2L118,138.89a3.21,3.21,0,0,1-1,2.09,3.25,3.25,0,1,1-2.5-5.54l11.12-11.12a1.62,1.62,0,0,0,0-2.3l-10.34-10.34a1.62,1.62,0,0,0-2.3,0L102.72,122a6.49,6.49,0,0,1-9.19,0l-2.3-2.3a6.49,6.49,0,0,1,0-9.19l18.39-18.38a6.49,6.49,0,0,1,9.19,0l18.38,18.38a1.64,1.64,0,0,0,2.3,0l2.3-2.3a1.64,1.64,0,0,0,0-2.3L115.36,79.51a1.62,1.62,0,0,0-2.3,0L86.63,105.93a6.49,6.49,0,0,1-9.19,0l-2.3-2.29a6.52,6.52,0,0,1,0-9.2L109.62,60a6.49,6.49,0,0,1,9.19,0l11.6,11.61V69.92a6.5,6.5,0,0,1,6.5-6.5h3.25a6.5,6.5,0,0,1,6.5,6.5V87.83l7.4,7.39a3.25,3.25,0,0,1,2.09,5.54Z"/><path class="bdb5b399-284f-4ec3-99d9-ebca41ea28da" d="M612.42,61H624.1v3.65h-3.71v11H616.1v-11h-3.68Zm13.09,0h4.72l3.34,7.78L637,61h4.72V75.62h-3.85V67.39l-2.77,6.81h-2.92l-2.77-6.81v8.23h-3.85Z"/><path class="bdb5b399-284f-4ec3-99d9-ebca41ea28da" d="M271.65,61v78H254.31V107h-34v32H202.92V61h17.35V91.75h34V61Zm10.65,39c0-22.41,16.77-39,39.65-39s39.64,16.48,39.64,39S344.72,139,322,139,282.3,122.41,282.3,100Zm62.09.39c0-14.19-9.63-23.9-22.44-23.9s-22.45,9.71-22.45,23.9,9.64,23.89,22.45,23.89S344.39,114.57,344.39,100.39ZM368.8,100c0-22.41,16.77-39,39.65-39s39.64,16.48,39.64,39-16.87,39-39.64,39S368.8,122.41,368.8,100Zm62.09.39c0-14.19-9.63-23.9-22.44-23.9S386,86.2,386,100.39s9.64,23.89,22.45,23.89S430.89,114.57,430.89,100.39Zm96.58,17.33c0,13.48-10.28,21.28-30,21.28H458.74V61h36.61c18.74,0,28.38,8.13,28.38,20.28a18.86,18.86,0,0,1-10,17.16C522.12,101.23,527.47,107.91,527.47,117.72ZM476.71,76.06V93.67h16.5c8.1,0,12.5-3,12.5-8.86s-4.4-8.75-12.5-8.75Zm32.59,39.47c0-6.29-4.61-9.28-13.22-9.28H476.71v18.46h19.37C504.69,124.71,509.3,121.93,509.3,115.53Zm23.38,14.74,5.69-13.14A41.52,41.52,0,0,0,562.28,125c9.94,0,14-3.44,14-8.08,0-14.11-42.13-4.41-42.13-32.42,0-12.82,9.94-23.49,30.53-23.49,9.11,0,18.43,2.26,25.16,6.68l-5.18,13.25A39.67,39.67,0,0,0,564.56,75c-9.94,0-13.77,3.87-13.77,8.61,0,13.9,42.13,4.31,42.13,32,0,12.61-10,23.38-30.74,23.38C550.69,139,539.1,135.44,532.68,130.27Z"/><path class="a4f2bca9-5ec5-450f-b3c4-0fedadb62292" d="M1053.89,91.2c10.25-7.74,17.47-7.25,26.83,1.65,6.26-7,16-9.06,23.53-4.88a14.78,14.78,0,0,1,8,13.23c.21,8.49,0,17,.09,25.47,0,1.12-.39,1.4-1.42,1.37-2-.07-4-.09-6,0-1.32.07-1.75-.29-1.73-1.69.07-7,0-14,0-20.95a16.82,16.82,0,0,0-.11-2.46c-.88-5.77-4.45-8.75-10.15-8.49s-9.63,4.08-9.8,9.85c-.23,7.18-.18,14.38-.06,21.56,0,1.9-.56,2.35-2.3,2.19a31.21,31.21,0,0,0-4.93,0c-1.42.1-1.88-.33-1.86-1.81.08-6.77,0-13.55,0-20.33a19.2,19.2,0,0,0-.19-3.48c-1-5.61-4.74-8.38-10.58-7.93-5.52.42-9.3,4.56-9.38,10.54-.09,7-.06,14,0,21,0,1.55-.31,2.24-2,2.06-2.3-.24-5.32,1-6.74-.47s-.34-4.3-.35-6.54c0-10.75,0-21.5,0-32.26,0-1.58.45-2,2-1.91a46.88,46.88,0,0,0,5.56,0c1.28-.07,1.74.35,1.6,1.62A27,27,0,0,0,1053.89,91.2Z"/><path class="a4f2bca9-5ec5-450f-b3c4-0fedadb62292" d="M981.52,98c0,9.38,0,18.77,0,28.15,0,1.67-.49,2.13-2.09,2a36.92,36.92,0,0,0-5.76,0c-1.77.16-2-.62-2-2.1.07-7.2,0-14.39.07-21.58,0-1.7-.41-2.18-2.14-2.16q-14.2.14-28.42,0c-1.58,0-1.94.45-1.92,2,.08,7.26,0,14.53.07,21.79,0,1.5-.32,2-1.91,1.94a61.71,61.71,0,0,0-6.38,0c-1.11,0-1.37-.38-1.37-1.42q0-28.57,0-57.14c0-1.18.37-1.53,1.52-1.48,2.2.08,4.4.1,6.59,0,1.37-.08,1.56.5,1.55,1.67,0,7.19,0,14.39,0,21.58,0,1.48.19,2.12,1.95,2.1q14.31-.15,28.63,0c1.59,0,1.9-.46,1.89-2-.08-7.13,0-14.25-.08-21.38,0-1.58.44-2,2-1.89a48.86,48.86,0,0,0,6.17,0c1.41-.08,1.69.44,1.69,1.74C981.5,79.23,981.52,88.61,981.52,98Z"/><path class="a4f2bca9-5ec5-450f-b3c4-0fedadb62292" d="M1209.57,129.1c-15.83,0-28-9.68-30.72-24.83-3.12-17.26,6.47-33.54,24.74-36.65,10-1.69,19.26,0,27.11,6.91,4.77,4.2,4.74,4.51-.37,7.85-1.14.75-2.25,2-3.45,2.1s-1.82-1.76-2.81-2.64c-6.72-6-14.43-7.09-22.6-4s-12.26,9.81-12.88,18.42c-.79,11.13,5.25,20,15.35,22.55,8.47,2.1,15.91.18,21.62-6.76.7-.84,1.13-.93,2-.27,1.88,1.47,3.79,2.93,5.78,4.26,1.06.71.9,1.21.22,2.07-5.71,7.17-13.29,10.5-22.31,10.94C1210.67,129.13,1210.12,129.1,1209.57,129.1Z"/><path class="a4f2bca9-5ec5-450f-b3c4-0fedadb62292" d="M1145.45,110.88c-4.39,0-8.78.09-13.17,0-1.89-.06-2,.55-1.46,2.09,2.13,6.58,8.37,9.63,15.93,7.69a17.92,17.92,0,0,0,6.48-3c.9-.69,1.37-.58,1.92.35s1.25,1.8,1.88,2.69c2,2.82,2,2.82-1,4.74-8.66,5.54-21.44,5-28.42-1.44-6.08-5.61-7.44-12.83-6.28-20.68,2.27-15.38,16.73-19.9,26.9-16.22,7.32,2.64,10.9,8.31,12.27,15.64a35,35,0,0,1,.44,6.13c0,1.56-.43,2.13-2.1,2.08C1154.37,110.8,1149.91,110.88,1145.45,110.88Zm-4.52-7c3,0,6-.06,9,0,1.44,0,1.52-.42,1.18-1.65-1.45-5.36-5.16-8.46-10.22-8.4s-8.78,3.06-10.25,8.4c-.34,1.25-.23,1.69,1.2,1.65C1134.9,103.83,1137.92,103.89,1140.93,103.89Z"/><path class="a4f2bca9-5ec5-450f-b3c4-0fedadb62292" d="M1414.44,110.88c-4.53,0-9.07,0-13.6,0-1.2,0-1.51.21-1.17,1.49,1.76,6.83,8.21,10.24,15.92,8.31a17.11,17.11,0,0,0,6.51-3c1.06-.82,1.57-.57,2.2.47a38.88,38.88,0,0,0,2.83,4c.68.85.59,1.28-.27,1.94a24.64,24.64,0,0,1-11.45,4.74c-9.41,1.51-17.79-1.89-22.25-9-6-9.62-3.52-24.07,5.15-30.24,12.29-8.75,28.7-2,31.16,12.84a33.2,33.2,0,0,1,.4,6.76c0,1.3-.48,1.74-1.84,1.71C1423.5,110.82,1419,110.88,1414.44,110.88Zm-4.41-7c3,0,6,0,9,0,1.15,0,1.6-.21,1.35-1.48a10.48,10.48,0,0,0-20.61,0c-.24,1.14-.1,1.55,1.19,1.51C1404,103.83,1407,103.89,1410,103.89Z"/><path class="a4f2bca9-5ec5-450f-b3c4-0fedadb62292" d="M1013.73,129.1c-12.87,0-22.18-9.06-22.18-21.6s9.53-21.7,22.24-21.63,22.18,9.36,22.13,21.79S1026.47,129.1,1013.73,129.1Zm0-34.66c-7.41,0-12.83,5.56-12.79,13.14s5.53,13.15,12.87,13.14,12.8-5.66,12.8-13.22S1021.16,94.44,1013.69,94.44Z"/><path class="a4f2bca9-5ec5-450f-b3c4-0fedadb62292" d="M1262.31,129.1c-12.73,0-22-9-22.09-21.49s9.48-21.67,22.22-21.74c12.56-.07,22,9.2,22.06,21.59S1275.12,129.1,1262.31,129.1Zm.23-34.66c-7.4,0-12.88,5.49-13,13a12.83,12.83,0,0,0,12.83,13.24c7.34,0,12.83-5.53,12.89-13.13S1270,94.47,1262.54,94.44Z"/><path class="a4f2bca9-5ec5-450f-b3c4-0fedadb62292" d="M1352.27,91.53c7.15-8.26,20-6.42,25.16-.46a17,17,0,0,1,4.08,11.52c0,7.87,0,15.74,0,23.61,0,1.43-.38,1.94-1.84,1.84a36.75,36.75,0,0,0-5.35,0c-1.52.11-2-.36-2-1.93.09-6.7,0-13.41,0-20.12,0-.82,0-1.65-.1-2.46-.58-5.93-3.95-9.14-9.55-9.1-5.78,0-10.08,3.64-10.31,9.26-.3,7.38-.21,14.78-.16,22.17,0,1.65-.34,2.34-2.13,2.18a46.7,46.7,0,0,0-5.55,0c-1,0-1.31-.28-1.31-1.28q0-19.31,0-38.61c0-1,.38-1.29,1.33-1.26a55.13,55.13,0,0,0,5.75,0c1.64-.12,2.07.53,1.88,2A25.57,25.57,0,0,0,1352.27,91.53Z"/><path class="a4f2bca9-5ec5-450f-b3c4-0fedadb62292" d="M1302.56,91.4c5.75-6.09,12.44-6.81,19.47-4.13,6.33,2.41,9.47,7.54,9.6,14.23.17,8.29,0,16.58.08,24.86,0,1.43-.5,1.75-1.79,1.68a40.23,40.23,0,0,0-5.15,0c-1.57.11-2.1-.32-2.08-2,.11-6.64.06-13.29,0-19.93a17.55,17.55,0,0,0-.78-5.67c-1.53-4.45-5.5-6.64-10.69-5.92a9.77,9.77,0,0,0-8.66,9.67q-.19,10.68,0,21.37c0,2-.41,2.73-2.45,2.48s-5.08.9-6.31-.47c-1.08-1.18-.35-4-.35-6.15,0-10.82,0-21.64,0-32.47,0-1.73.47-2.27,2.18-2.11a27.06,27.06,0,0,0,4.93,0c1.65-.15,2.24.45,2,2A22.12,22.12,0,0,0,1302.56,91.4Z"/><path class="a4f2bca9-5ec5-450f-b3c4-0fedadb62292" d="M1484.62,106.34c0-3-.11-6,.05-9,.09-1.78-.54-2.23-2.2-2.08s-3.15,0-4.73,0c-1.11.06-1.42-.38-1.37-1.42.1-2.18-.69-5,.38-6.36s4-.39,6.07-.36c1.42,0,1.9-.33,1.84-1.8-.12-3,0-6-.07-9,0-1.32.39-1.63,1.62-1.57,2,.1,4,.09,6,0,1.08,0,1.42.3,1.4,1.38-.06,3,.09,6-.06,9-.09,1.7.54,2,2.07,2,4.11-.1,8.23,0,12.34-.06,1.14,0,1.57.26,1.5,1.46a43.9,43.9,0,0,0,0,5.13c.08,1.24-.28,1.65-1.58,1.62-4.11-.09-8.23,0-12.35-.06-1.45,0-2,.23-2,1.87.15,5.74,0,11.5.22,17.23.21,4.61,3.23,6.81,7.78,6.2a15.31,15.31,0,0,0,5.58-2c.87-.5,1.37-.58,1.84.5.76,1.75,1.64,3.45,2.55,5.13.41.76.33,1.16-.43,1.63-5.74,3.49-11.83,4.69-18.27,2.39-5.56-2-7.64-6.58-8.06-12-.25-3.26,0-6.56,0-9.85Z"/><path class="a4f2bca9-5ec5-450f-b3c4-0fedadb62292" d="M1457,129.1c-10.18,0-18.25-6.34-20.44-16.54-2.27-10.58,2.48-20.89,11.82-24.73,8.19-3.37,16.06-2.72,23.16,3.08,1.33,1.09,1.38,1.91.13,3.06a27.73,27.73,0,0,0-3.21,3.47c-.86,1.11-1.44,1.13-2.55.21-4.57-3.75-10.15-4.27-14.7-1.53s-6.94,9-5.53,15c1.34,5.65,5.31,9.11,11.13,9.52a13.73,13.73,0,0,0,9.65-3.39c.88-.71,1.38-.73,2.11.17a46.67,46.67,0,0,0,3.69,4.13c.94.94.65,1.49-.19,2.26C1468,127.52,1463.16,129.21,1457,129.1Z"/><path class="e89024d4-b03a-4f4d-9a45-6c31a89b1b50" d="M899,111.78a53.78,53.78,0,0,0-1.84-25.5,52.55,52.55,0,0,0-8.79-17.74,50.6,50.6,0,0,0-12.94-13.12c-4-2.91-8.07-5.67-12.78-7.3a87.21,87.21,0,0,0-12.36-3.66,54.77,54.77,0,0,0-15.65-.75C816.42,45.38,801.81,53.62,791,68.3a54.79,54.79,0,0,0-11.1,29.9c-.83,5.25-.27,10.44.58,15.62a44.49,44.49,0,0,0,4.27,13.79,47.76,47.76,0,0,0,7.79,12.89,49.74,49.74,0,0,0,12.9,12.07,49.65,49.65,0,0,0,16.91,8.16,37.27,37.27,0,0,0,9.7,2.19,48.74,48.74,0,0,0,15.85-.21,9.68,9.68,0,0,0,1.43,0,59.8,59.8,0,0,0,19.14-6.57,5.21,5.21,0,0,1,4.22-.56c6.49,1.68,13,3.24,19.52,4.82,3.88.94,5.55-.72,4.6-4.53-1.58-6.36-3.12-12.73-4.8-19.07a6.38,6.38,0,0,1,.68-5A51.7,51.7,0,0,0,899,111.78Zm-45.41,16.55a1.54,1.54,0,0,0,0-.37c-8.37-.15-16.75-.18-25.13,0a1.55,1.55,0,0,1,0,.37,1.55,1.55,0,0,0,0-.37c-2.32,0-4.65-.08-7-.09-3.73,0-4.47-.76-4.49-4.4,0-2.26,0-4.51-.08-6.77V96.15c0-2.26.1-4.51.07-6.76a3.67,3.67,0,0,1,1.4-3c6.53-5.6,13.08-11.2,19.55-16.89,1.41-1.24,2.75-1.67,4.44-.81,3.56,3.38,7.33,6.53,11.13,9.64a2.47,2.47,0,0,1,.52-.85,2.47,2.47,0,0,0-.52.85c2.5,2.2,4.88,4.55,7.54,6.54a6.8,6.8,0,0,1,3.07,6.78h0c-.15,8.63-.27,17.27-.06,25.9a1.55,1.55,0,0,0,1-.2,1.55,1.55,0,0,1-1,.2c-.05,2.38-.09,4.76-.16,7.14-.06,2.13-1,3.1-3.14,3.17-2.39.08-4.77.09-7.16.13A1.54,1.54,0,0,1,853.63,128.33Z"/></svg>