<svg id="ee7f1aaa-5491-40a0-9f1c-e23e7f4323d2" data-name="Ebene 1" xmlns="http://www.w3.org/2000/svg" viewBox="0 0 1680 200"><defs><style>.a93f3536-2587-4d1e-adf4-89c47a0bb7ab{fill:#e51936;}.a20c7594-8943-420c-b43e-952f3f8f03b6{fill:#ccc;}.a62e0fc3-d455-42b6-9bb0-10afc4550c45{fill:#0295d3;}.b4897906-f323-434f-9557-02e19feaedeb{fill:none;stroke:#ccc;stroke-miterlimit:10;}.b5afd555-053d-406a-9fa0-dcef87b74f26{fill:#f9b213;}</style></defs><title>HOOBS_x_aladdin connect</title><path class="a93f3536-2587-4d1e-adf4-89c47a0bb7ab" d="M943.62,40.49h0a15.56,15.56,0,0,1,7.18-.13,5.36,5.36,0,0,0,1.33,0h70.81a32.22,32.22,0,0,1,18.21,5.06c7.63,5,11.74,12.29,12.66,21.3,1.06,10.24-1.93,19.53-7.5,28-8.13,12.34-19.32,20.6-33.81,24a41.21,41.21,0,0,1-9.45,1.09q-96.25.11-192.5.05a32.43,32.43,0,0,1-17.32-4.5c-8.46-5.18-12.86-12.92-13.69-22.68-.8-9.3,1.84-17.81,6.59-25.71a56.13,56.13,0,0,1,21.66-20.57c.3-.16,10.65-5.48,20.49-6m142.24,61.06c.36,0,.61.06.85.06q22.42,0,44.85,0c.64,0,.85-.24,1-.83.76-3,1.58-5.88,2.37-8.83a4.59,4.59,0,0,0,0-.6H989.05c.43-1.64.84-3.19,1.27-4.8h22.19l2.36-8.79H992.51c.43-1.61.84-3.13,1.26-4.67H995c9.5,0,19,0,28.52,0,.83,0,1.14-.24,1.32-1,.45-2,1-3.93,1.54-5.9.3-1.12.61-2.23.93-3.41-.35,0-.57-.06-.78-.06q-22.47,0-44.94,0a.9.9,0,0,0-1,.8q-4.66,17.67-9.35,35.34C971,99.68,970.76,100.57,970.51,101.52ZM871.78,77.77c.35-1.32.73-2.5,1-3.71.16-.86.59-1,1.37-1,9.57,0,19.15,0,28.72,0a1.09,1.09,0,0,0,1.29-1c.73-2.9,1.53-5.77,2.29-8.65a5.52,5.52,0,0,0,.1-.71,2.4,2.4,0,0,0-.36-.06q-22.67,0-45.33,0c-.64,0-.78.33-.91.83q-4.35,16.33-8.71,32.67c-.47,1.77-.94,3.53-1.43,5.4H893.3c1,0,2.18.31,2.78-.16s.68-1.75.94-2.69c.66-2.41,1.29-4.83,2-7.35H868.31c.36-1.36.75-2.6,1-3.87.16-.81.54-1,1.3-1,6.77,0,13.55,0,20.32,0,.67,0,.93-.19,1.09-.85.6-2.43,1.29-4.84,1.93-7.27a5.06,5.06,0,0,0,.1-.67Zm-18.61,0c-.15,0-.2-.1-.26-.1-6.71,0-13.42,0-20.13,0-.27,0-.68.41-.77.71-.54,1.82-1,3.67-1.49,5.51-.22.82-.42,1.65-.65,2.58H840c-.46,1.66-.89,3.21-1.33,4.77h-21c1.63-6.12,3.24-12.18,4.85-18.26h10.59c6.8,0,13.61,0,20.42,0,.68,0,1-.17,1.16-.88s.38-1.47.57-2.21c.64-2.38,1.27-4.76,1.92-7.2-.32,0-.57-.06-.82-.06-10.56,0-21.12,0-31.68,0-8.09,0-16.44,6-18.92,13.69-1.22,3.77-2.22,7.63-3.06,11.5a10.7,10.7,0,0,0,6.85,12.72,15.73,15.73,0,0,0,5,.91c10.49.08,21,0,31.48,0a.89.89,0,0,0,1-.81c.58-2.31,1.2-4.6,1.81-6.9Zm72.66-5.29c-.63-3-1.25-6-1.81-8.88-.12-.66-.28-1-1-1q-6.59,0-13.17,0c-.66,0-.85.28-1,.84q-4,15.15-8,30.3l-2,7.69c.37,0,.65.06.92.06,3.69,0,7.38,0,11.07,0a1,1,0,0,0,1.16-.89c1.27-4.91,2.59-9.82,3.89-14.73l2.71-10.18c.24.4.4.66.55.93q6.67,12,13.33,24.08a1.38,1.38,0,0,0,1.41.83q8.34-.06,16.7,0a1.15,1.15,0,0,0,1.34-1q4.35-16.43,8.76-32.84.66-2.46,1.3-4.92a3.21,3.21,0,0,0-3.19.89,45.42,45.42,0,0,0-8.39,10.2c-.23.39-.41.72-1,.64-1.5-.2-1.51-.17-2.12,1.27-.26.61-.51,1.23-.72,1.86-.45,1.35-.87,2.71-1.31,4.08l-1.88-.24c-1.16,4.64-1.07,9.3-.77,14.15-7.88-5.58-12.86-13-16-21.9l3.77.54-.77-2.58ZM978,62.78a1.85,1.85,0,0,0-.37-.09c-4,0-8,0-11.93,0-.61,0-.71.32-.84.79q-4.11,15.62-8.26,31.21c-.59,2.26-1.19,4.52-1.8,6.84h12.92C971.09,88.6,974.51,75.73,978,62.78Zm-39.69-7.16c-1,.16-1.82.25-2.65.45-2.69.62-5.38,1.27-8.06,1.93-.46.12-.84.29-.87.93a29.07,29.07,0,0,0,1.16,10c.19.63.48.75,1.08.67a24.19,24.19,0,0,0,9.48-3.31,6.57,6.57,0,0,1,4.86-1A1.58,1.58,0,0,0,945.37,64a10.34,10.34,0,0,1-1.1-1,2,2,0,0,0-2.1-.67c-3.46.69-6.93,1.33-10.4,2a1.62,1.62,0,0,1-1-.28,5.94,5.94,0,0,1-.22-2.82s0-.06.07-.06c.61,0,.3-.47.32-.76s.07-.53.11-.9c2.07.61,4.44.21,5.61,2.56.07.15.55.19.81.13q3-.62,6.06-1.31a1,1,0,0,1,1.27.49c.44.69,1,1.32,1.46,2a7.37,7.37,0,0,1,5-1.33,7.89,7.89,0,0,0-3.7,2.75,4,4,0,0,0-.3,4.49c-1.23-.36-2.21-.88-2.54-2-.23-.77-.65-.89-1.29-.89a5.33,5.33,0,0,1-1.33-.07c-2.05-.57-3,1.14-4.59,2,.94.5,1.65.92,2.4,1.26a21.88,21.88,0,0,0,8.65,1.66,1.21,1.21,0,0,0,1.21-.67,41.8,41.8,0,0,1,6.16-7.86c.19-.2.37-.42.59-.66-.48-.55-.9-1.07-1.35-1.55a25.47,25.47,0,0,0-7.2-5.27c-1.24-.61-1.32-1.24-.41-2.29.14-.15.31-.38.28-.54a3.72,3.72,0,0,0-1.13-2.28,8.46,8.46,0,0,1-1.19.54c-.13,0-.35-.1-.47-.21a8.11,8.11,0,0,1-.58-.69l1.23-.6C945,49,944.54,48.24,944,49c-.65.92-1.22,1.9-1.86,2.93.6.12,1.34-.12,1.31.84h-2.76l1.71-2.9-1.33.44,0-.84c-.21.05-.55,0-.69.18a3.61,3.61,0,0,0-1.24,3.1c.11.91,0,1.84.07,2.76a1,1,0,0,0,.59.73c1,.32,2.12.55,3.18.81l0,.22h-4.35Zm5.51,23.24c.57-1.85,1.12-3.62,1.68-5.42A26,26,0,0,1,937.09,69a.75.75,0,0,0-.67-.06c-1.23.57-2.44,1.19-3.78,1.85.48,2.12,1,4.29,1.48,6.53L931.53,77c.69,3.51,4.5,10,6.68,11.53l1.82-1.1c.25-2.89.5-5.88.76-9Zm9-31.8a2.6,2.6,0,0,0,.26-.58,4.72,4.72,0,0,0-3.1-5.21,8.67,8.67,0,0,0-5.26,0,1.3,1.3,0,0,0-.72.75,4.23,4.23,0,0,0,.45,3.76,27.45,27.45,0,0,0,2.74,3.37c.32.36.61,1.26,1.28.7.27-.23.22-1.09,0-1.54A20.08,20.08,0,0,0,947,45.8c-.11-.18-.28-.34-.53-.66a8.94,8.94,0,0,1,4.32,3.65,5.1,5.1,0,0,0-.12-2.15,12.94,12.94,0,0,0-.95-1.85l.2-.19ZM941,44.53a4.3,4.3,0,0,0-1.49,3.35l1.82-1.9.22.22ZM932,60.45l-.23.34,1.16.65c.55.31,1.09.65,1.66.94a9.26,9.26,0,0,0,1.13.38C935.06,60.59,933.33,60.86,932,60.45Zm10.62-10.68.5-1-2.15-1.07-.59,1.6C941.37,48.6,941.93,49.15,942.58,49.77ZM931.47,61.86a2,2,0,0,0,2.53,1C933.41,61.87,932.4,62.06,931.47,61.86Zm16.77-7.21a7.21,7.21,0,0,0,.7-1c0-.06-.41-.45-.46-.42a2.71,2.71,0,0,0-.74.69S948,54.3,948.24,54.65Z"/><path class="a20c7594-8943-420c-b43e-952f3f8f03b6" d="M789.07,160v-1h256.87l.07,1Z"/><path class="a20c7594-8943-420c-b43e-952f3f8f03b6" d="M1046,137.69v1.05H789.1v-1.05Z"/><path class="a20c7594-8943-420c-b43e-952f3f8f03b6" d="M926.91,143c1.7,0,3.53,0,5.35,0a39.81,39.81,0,0,1,4.38.15c1.94.25,2.87,1.22,3.05,2.86a3.57,3.57,0,0,1-2.29,4.13l-.85.37,3.14,4.3h-4.34c0-.37.15-.86,0-1.05-1.27-1.36-1.63-4.06-4.62-3.21.27,1.38-.43,2.87.49,4.25h-4.25a5,5,0,0,0,.36-1.3q0-4.58,0-9.15A5.35,5.35,0,0,0,926.91,143Zm3.86,5c1.46,0,2.82,0,4.18,0a1.16,1.16,0,0,0,1.29-1.12,1,1,0,0,0-1-1.19c-1.49-.07-3,0-4.49,0Z"/><path class="a20c7594-8943-420c-b43e-952f3f8f03b6" d="M819.67,143.06c3,0,6.23-.11,9.42,0a3.1,3.1,0,0,1,3.3,2.84,3.64,3.64,0,0,1-2.42,4.25c-.2.09-.41.16-.73.29l3.09,4.31H828.1a2.87,2.87,0,0,0-.15-1.15,23.06,23.06,0,0,0-2-2.76,2.59,2.59,0,0,0-1.31-.46,7.39,7.39,0,0,0-1.17,0c.12,1.49-.32,3,.31,4.4h-4.08a6.32,6.32,0,0,0,.33-1.42q0-4.47,0-9A6.08,6.08,0,0,0,819.67,143.06Zm3.79,4.9c1.47,0,2.86,0,4.24,0a1.14,1.14,0,0,0,1.23-1.18,1.08,1.08,0,0,0-1.13-1.16c-1.44-.06-2.88,0-4.34,0Z"/><path class="a20c7594-8943-420c-b43e-952f3f8f03b6" d="M992.19,147.16c0,2.37,0,4.49,0,6.61a3.44,3.44,0,0,0,.42,1H988.8a6.62,6.62,0,0,0,.33-1.45q0-4.52,0-9.05a5.41,5.41,0,0,0-.32-1.24h5.25l-.77.52,5.38,5.93c.36-1.51.2-5.81-.23-6.5h3.77a8.59,8.59,0,0,0-.32,1.65c0,3,0,5.9,0,8.86a6,6,0,0,0,.33,1.25h-3.7c0-.3,0-.7-.12-.88C996.4,151.69,994.37,149.52,992.19,147.16Z"/><path class="a20c7594-8943-420c-b43e-952f3f8f03b6" d="M1022.52,154.82h-4.16a8,8,0,0,0,.31-1.48q0-4.49,0-9a6.8,6.8,0,0,0-.36-1.41h1.92c2.35,0,4.71-.06,7,0,2.68.11,3.93,1.48,3.8,4a3.3,3.3,0,0,1-1.69,2.81c-.43.26-.91.44-1.47.71l3.07,4.25h-4.16c-.11-.45-.07-1-.31-1.23-1.21-1.32-1.6-3.86-4.44-3C1022.29,151.91,1021.69,153.38,1022.52,154.82Zm-.38-6.86c1.44,0,2.83,0,4.22,0a1.16,1.16,0,0,0,1.24-1.19,1.12,1.12,0,0,0-1.16-1.16c-1.42-.05-2.84,0-4.3,0Z"/><path class="a20c7594-8943-420c-b43e-952f3f8f03b6" d="M882.73,154.85a6.67,6.67,0,0,0,.36-1.45q0-4.49,0-9a6,6,0,0,0-.34-1.33c2.76,0,5.72-.22,8.64.06s4.76,2.66,4.7,5.83a5.76,5.76,0,0,1-5.15,5.79,11,11,0,0,1-1.52.07C887.14,154.86,884.86,154.85,882.73,154.85Zm3.81-2.67h2.75c.26,0,.51,0,.76,0a2.85,2.85,0,0,0,2.66-2.94c.08-1.93-.72-3.2-2.4-3.42a27.83,27.83,0,0,0-3.77,0Z"/><path class="a20c7594-8943-420c-b43e-952f3f8f03b6" d="M802.24,144l-1.41,2.85c-.93-1.34-2.34-1.25-3.64-1.41a4.58,4.58,0,0,0-3.61.87,3.31,3.31,0,0,0,.43,5.42,6.85,6.85,0,0,0,5.45.34c.28-.08.36-.85.6-1.48-1.4,0-2.54-.26-3.67.27v-2.79h7.1a15.92,15.92,0,0,0-.06,5.38c-.72.27-1.67.71-2.66,1a14.56,14.56,0,0,1-6.23.4c-3.44-.59-5.54-2.87-5.51-6s2.2-5.29,5.6-5.84a12.09,12.09,0,0,1,6.27.69C801.29,143.82,801.71,143.88,802.24,144Z"/><path class="a20c7594-8943-420c-b43e-952f3f8f03b6" d="M859.82,146.85c-.31-.33-.48-.65-.73-.75a8,8,0,0,0-5.31-.43,3.31,3.31,0,0,0-2.43,3.18,3.25,3.25,0,0,0,2.19,3.16,7.15,7.15,0,0,0,4.85.08c.3-.08.41-.84.72-1.52-1.47.1-2.62-.3-3.74.37v-3c1.11.5,2.3.21,3.46.25s2.41,0,3.62,0a13.87,13.87,0,0,0,0,5.14,2.14,2.14,0,0,1-.46.28,13.92,13.92,0,0,1-9.39,1,5.74,5.74,0,0,1-4.36-7.3,5.52,5.52,0,0,1,3.41-3.72,11,11,0,0,1,8.19.07c.42.16.87.24,1.39.38Z"/><path class="a20c7594-8943-420c-b43e-952f3f8f03b6" d="M918.18,155.07a24,24,0,0,1-2.41-.42,5.89,5.89,0,0,1,.06-11.48,9.16,9.16,0,0,1,4.79,0,5.75,5.75,0,0,1,4.71,6.05,5.83,5.83,0,0,1-5,5.6C919.64,154.92,919,155,918.18,155.07Zm.09-2.85c2.16,0,3.68-1.33,3.7-3.26a3.33,3.33,0,0,0-3.62-3.33c-2.22,0-3.75,1.33-3.74,3.3S916.11,152.21,918.27,152.22Z"/><path class="a20c7594-8943-420c-b43e-952f3f8f03b6" d="M903.41,155.07a23.88,23.88,0,0,1-2.48-.45,5.65,5.65,0,0,1-4.43-5.78,5.72,5.72,0,0,1,4.49-5.65,9.28,9.28,0,0,1,5.35.07,5.75,5.75,0,0,1,4.26,5.93,5.88,5.88,0,0,1-5.06,5.6C904.89,154.92,904.22,155,903.41,155.07Zm.12-9.44c-2.15,0-3.68,1.37-3.69,3.28s1.52,3.29,3.67,3.31,3.74-1.37,3.72-3.33S905.69,145.63,903.53,145.63Z"/><path class="a20c7594-8943-420c-b43e-952f3f8f03b6" d="M953,155.07a23.7,23.7,0,0,1-2.42-.42,5.89,5.89,0,0,1,0-11.46,9,9,0,0,1,5.81.26,5.64,5.64,0,0,1,3.72,6.1,5.8,5.8,0,0,1-4.91,5.22C954.53,154.92,953.83,155,953,155.07Zm.55-9.43c-2.37,0-3.9,1.1-4.13,2.84a3.19,3.19,0,0,0,2.56,3.6,3.87,3.87,0,0,0,4.09-1.13,3,3,0,0,0,.42-3.39A3.3,3.3,0,0,0,953.56,145.64Z"/><path class="a20c7594-8943-420c-b43e-952f3f8f03b6" d="M1008.62,150v2.15c2.36,0,4.67,0,7,0,.26,0,.52-.34.83-.55v3.62a6.21,6.21,0,0,0-1.33-.29c-3.15,0-6.29,0-9.44,0h-.88a6.26,6.26,0,0,0,.37-1.37c0-3,0-6,0-9a7.24,7.24,0,0,0-.35-1.45h5.54c1.59,0,3.18,0,4.77,0a5.91,5.91,0,0,0,1.34-.35V146a5.61,5.61,0,0,0-1.37-.34c-2.12,0-4.25,0-6.44,0v1.87c1.64-.17,3.33.35,5-.38v3.24C1012.07,149.61,1010.36,150.26,1008.62,150Z"/><path class="a20c7594-8943-420c-b43e-952f3f8f03b6" d="M875.55,151.7v3.39a13.79,13.79,0,0,0-1.66-.23c-3.37,0-6.73,0-10,0a7.22,7.22,0,0,0,.31-1.43q0-4.48,0-9a7.61,7.61,0,0,0-.32-1.48h3.63c2.26,0,4.51,0,6.77,0a5.38,5.38,0,0,0,1.19-.31V146a4.75,4.75,0,0,0-1.28-.34c-2.15,0-4.31,0-6.5,0v1.89c1.71-.22,3.41.38,5.06-.43v3.3c-1.64-.8-3.34-.19-5-.43v2.12h3.5c1,0,2,0,3,0A6.55,6.55,0,0,0,875.55,151.7Z"/><path class="a20c7594-8943-420c-b43e-952f3f8f03b6" d="M984.17,147.17v3.25c-1.64-.8-3.33-.19-5-.43v2.12h2.35c1.36,0,2.73,0,4.1,0a5.71,5.71,0,0,0,1.35-.4v3.46a7.66,7.66,0,0,0-1.46-.28c-3.43,0-6.86,0-10.14,0a9.51,9.51,0,0,0,.35-1.75q0-4.33,0-8.67a6.06,6.06,0,0,0-.39-1.45h1.32c3,0,6,0,9.06,0a5.35,5.35,0,0,0,1.25-.32V146a5.72,5.72,0,0,0-1.37-.34c-2.12,0-4.24,0-6.42,0v1.89C980.8,147.36,982.46,147.86,984.17,147.17Z"/><path class="a20c7594-8943-420c-b43e-952f3f8f03b6" d="M1044.68,143.75l-1.37,2.74a6.69,6.69,0,0,0-1.73-.9c-1.43-.23-2.89-.31-4.34-.4a1.75,1.75,0,0,0-1,.28,1.26,1.26,0,0,0-.56.76c0,.18.36.53.62.59.8.18,1.62.25,2.44.37,1.25.2,2.52.32,3.75.64a3,3,0,0,1,2.44,2.71,3.18,3.18,0,0,1-1.78,3.4,9.09,9.09,0,0,1-3.81,1,47.58,47.58,0,0,1-5.92-.72L1032,154l1.68-4.06c.11,1.28.88,1.55,1.63,1.82a9.06,9.06,0,0,0,5,.41,2.21,2.21,0,0,0,1-.38c.26-.23.56-.63.52-.92s-.48-.58-.79-.63c-1.44-.24-2.89-.36-4.34-.58a10.26,10.26,0,0,1-2.12-.52,2.79,2.79,0,0,1-.82-5,5.7,5.7,0,0,1,4.09-1.3c1.7.1,3.39.46,5.08.69C1043.42,143.64,1044,143.68,1044.68,143.75Z"/><path class="a20c7594-8943-420c-b43e-952f3f8f03b6" d="M961.8,154.8a5,5,0,0,0,.35-1.25q0-4.62,0-9.24a5.56,5.56,0,0,0-.34-1.28,2.68,2.68,0,0,1,.4,0c2.58,0,5.15,0,7.72,0a3.8,3.8,0,0,1,3.9,2.87,3.66,3.66,0,0,1-3.56,4.58c-1.51.09-3,0-4.74,0,.28,1.5-.45,3,.52,4.33Zm3.82-6.75c1.4,0,2.7,0,4,0a1.13,1.13,0,0,0,1.18-1.22,1.11,1.11,0,0,0-1.17-1.22c-1.32-.06-2.64,0-4,0Z"/><path class="a20c7594-8943-420c-b43e-952f3f8f03b6" d="M847.62,154.81h-4.2a1.82,1.82,0,0,0-1.7-2.51h-3.15a1.75,1.75,0,0,0-1.41,2.51h-3.65c.79-2.05,1.6-4.12,2.4-6.2.57-1.48,1.14-3,1.67-4.45a3.84,3.84,0,0,0,0-1.13h5.46a3.69,3.69,0,0,0,.09,1.17Q845,149,847,153.72C847.16,154.08,847.4,154.41,847.62,154.81Zm-5.34-4.39-2.15-5.26-2,5.26Z"/><path class="a20c7594-8943-420c-b43e-952f3f8f03b6" d="M813.74,154.77c.79-.79,0-1.38-.2-2-.06-.22-.55-.43-.86-.44-1.2-.06-2.41,0-3.62,0a1.71,1.71,0,0,0-1.39,2.49H803.8c1.05-1.29,4.58-11.1,4.22-11.76h5.52a5,5,0,0,0,.14,1.21q1.89,4.77,3.85,9.52a9,9,0,0,0,.61,1Zm-3.1-9.64-2,5.29h4.11Z"/><path class="a93f3536-2587-4d1e-adf4-89c47a0bb7ab" d="M944.21,54.05a7.2,7.2,0,0,1-2.29,1,6.68,6.68,0,0,1-2.33-.86c.24-.25.36-.5.49-.5,1.33,0,2.65,0,4,0C944.11,53.7,944.16,53.91,944.21,54.05Zm-1.17.18h-2.33A1.76,1.76,0,0,0,943,54.23Z"/><path class="a20c7594-8943-420c-b43e-952f3f8f03b6" d="M1075.47,137.76c.89.46,1-.44,1.23-.82q19.21-28,38.37-56.1c1.75-2.57,1.52-3.43-1.16-5.65.76-.6,1.64-.3,2.44-.3,6.49,0,13,0,19.46,0,3.84,0,4.93.94,5.75,4.67q4,18.33,8,36.67c0,.19.13.37.46,1.25.93-3.57,1.69-6.52,2.45-9.47q3.39-13,6.76-25.94a12.39,12.39,0,0,0,.37-5.77c-.19-.88,0-1.26,1-1.26,7.23,0,14.47,0,21.73,0-4.82,11.09-6.51,22.83-9.75,34.14-.61,2.17-.93,4.42-1.65,6.55-.6,1.77.11,1.92,1.57,1.86,6.45-.26,12.93.6,19.55-.89l-2.67,6.7c1.66-.56,2.34-1.8,3.07-2.87q8.64-12.63,17.21-25.3,4.45-6.57,8.9-13.15c2.47-3.64,2.44-4.06-.52-7.19,8,0,15.86,0,23.72,0,2.46,0,3.44,1.7,3.91,3.9q3.94,18.12,8,36.22c.13.58,0,1.27.83,1.69q4.71-18.31,9.4-36.54a8.27,8.27,0,0,0,.18-1.86c.12-3.45.12-3.45,3.49-3.45q19.35,0,38.68,0c7.26,0,11.75,5.6,10.06,12.59-2.27,9.37-4.77,18.68-6.84,28.09a13.58,13.58,0,0,1-13.34,10.58q-30.71.06-61.42,0c-.38,0-.76-.06-1.33-.11,1.74-4.32-.12-8.32-.72-12.41-.13-.92-.52-1.12-1.35-1.12q-10.79,0-21.57,0a1.74,1.74,0,0,0-1.67,1c-2.08,3.47-4.74,6.72-6.1,10.45-1,2.58-2.31,2.21-4,2.21H1129c2-4.45,0-8.5-.65-12.64-.45-3-1.2-5.93-1.87-9.13-3.43,2.12-6.79,4.06-10,6.22-2.16,1.45-4.4,2.35-7,1.89-3.94-.7-6.22.92-8,4.45-2,4.1-4.69,7.88-7.07,11.81a3.71,3.71,0,0,1-1.48,1.71c-5.53,2.69-11,5.42-16.56,8.12a2.68,2.68,0,0,1-.91.11Zm205.58-20.19h3.51c3.63,0,4-.17,4.87-3.63q3.61-13.5,7.13-27c.57-2.21-.22-3.24-2.56-3.29-3-.06-6.09,0-9.14,0-1,0-1.53.23-1.81,1.3q-4.08,15.67-8.25,31.33c-.26,1,0,1.42,1.09,1.37C1277.61,117.52,1279.33,117.57,1281.05,117.57ZM1230.79,104,1227,85.24,1214.42,104Zm-120.65,0h16.36c-1.27-6.2-2.51-12.27-3.84-18.75Z"/><path class="a20c7594-8943-420c-b43e-952f3f8f03b6" d="M1321.64,159.73c-.39-1.67.26-3.24.58-4.81,1.32-6.39,2.77-12.75,4.06-19.15.29-1.41.77-2,2.27-1.87a46,46,0,0,0,6.32,0c1.54-.12,2,.55,2.26,1.89,1.19,5.29,2.49,10.56,4.15,15.86,1-4.47,1.94-8.94,2.87-13.41,1-4.63,1.5-5,6.31-4.31,1.83.25.73,1.48.61,2.08-1.23,6.16-2.59,12.31-3.91,18.45-.38,1.76-.76,3.51-1.13,5.27h-9.85c-.45-4.26-1.78-8.33-2.7-12.49-.43-1.93-.6-3.94-1.86-6.19-1.37,6.57-2.62,12.62-3.88,18.68Z"/><path class="a20c7594-8943-420c-b43e-952f3f8f03b6" d="M1285.07,159.73c1.72-8.21,3.46-16.42,5.14-24.64.18-.86.54-1.22,1.39-1.16.23,0,.47,0,.7,0,2.65,0,5.89-.85,7.77.37s1.51,4.79,2.2,7.3c.91,3.33,1.62,6.71,2.81,10,1.14-5.29,2.35-10.56,3.37-15.87.29-1.48.86-1.85,2.29-1.84,4.67,0,4.62,0,3.62,4.63-1.52,7.05-3,14.13-4.44,21.2h-9.85q-2.1-9.48-4.21-18.95c-1.54,6.38-3.34,12.57-4.23,18.95Z"/><path class="a20c7594-8943-420c-b43e-952f3f8f03b6" d="M1255.13,158.69a8.23,8.23,0,0,1-4.66-6.55,16.42,16.42,0,0,1,20.22-18.34c5.33,1.34,7.8,5.47,6.74,11.49-1.1,6.24-3.86,11.29-10.29,13.55-.39.14-6.67,2.63-12-.15m14.93-14.58c.07-4.83-2.9-6.89-6.78-5.24a6.67,6.67,0,0,0-3.19,3,16.63,16.63,0,0,0-2.19,8c-.09,4.12,2.95,6,6.78,4.42a6.91,6.91,0,0,0,3.46-3.32A17.78,17.78,0,0,0,1270.06,144.11Z"/><path class="a20c7594-8943-420c-b43e-952f3f8f03b6" d="M1357.75,159.73q1.76-8.68,3.51-17.37c.15-.77.31-1.53.51-2.28.52-2,.11-4.83,1.62-5.82s4.08-.31,6.18-.32c4.06,0,8.12,0,12.18,0a1.8,1.8,0,0,1,.44.12c.06.13.17.26.15.37-.79,4.48-.79,4.48-5.43,4.48h-3.28c-4.61,0-4.61,0-5.42,5,3.13,0,6.23.05,9.33,0,1.4,0,2,.11,1.51,1.78-.86,3.28-.74,3.32-4,3.32h-4.45c-3.89,0-3.84,0-4.39,3.8-.17,1.19.15,1.47,1.29,1.44,2.89-.07,5.79.09,8.67-.07,1.87-.1,2.09.62,1.64,2.14-.34,1.13-.54,2.29-.79,3.44Z"/><path class="a20c7594-8943-420c-b43e-952f3f8f03b6" d="M1220.83,158.91c-4.08-1.83-4.83-5.28-4.71-9.28.25-7.92,4.87-14.37,11.7-15.82a17.73,17.73,0,0,1,10.36.67c2.81,1.11,4.19,3.26,4,5.93-.08,1.07-.35,1.73-1.66,1.58a34.2,34.2,0,0,0-3.51,0c-1.31,0-2.42.33-2.9-1.79-.54-2.4-5.14-2.37-7.16-.08-2.21,2.51-2.81,5.65-3.3,8.82a8.1,8.1,0,0,0-.07,1.39c0,1.77.16,3.61,2.17,4.21s4.37.43,5.52-1.43,2.74-2.21,4.63-2c1.32.16,3.35-.81,3.8.52s-.9,2.86-2,4a11.51,11.51,0,0,1-5.11,3.14c-.45.15-6.55,2.05-11.8.12"/><path class="a20c7594-8943-420c-b43e-952f3f8f03b6" d="M1394.16,158.91c-4.08-1.83-4.83-5.28-4.71-9.28.25-7.92,4.87-14.37,11.7-15.82a17.73,17.73,0,0,1,10.36.67c2.81,1.11,4.18,3.26,4,5.93-.07,1.07-.34,1.73-1.65,1.58a34.22,34.22,0,0,0-3.51,0c-1.31,0-2.42.33-2.9-1.79-.54-2.4-5.14-2.37-7.16-.08-2.21,2.51-2.81,5.65-3.3,8.82a9.26,9.26,0,0,0-.08,1.39c0,1.77.17,3.61,2.18,4.21s4.37.43,5.52-1.43,2.73-2.21,4.62-2c1.33.16,3.35-.81,3.81.52s-.9,2.86-2,4a11.49,11.49,0,0,1-5.12,3.14c-.44.15-6.55,2.05-11.79.12"/><path class="a20c7594-8943-420c-b43e-952f3f8f03b6" d="M1428.09,159.73c1.28-6.33,2.49-12.68,3.9-19,.34-1.53.13-2-1.42-1.84a20.28,20.28,0,0,1-2.34,0c-3.77,0-3.74,0-2.91-3.55a1.59,1.59,0,0,1,1.89-1.47q9.86.09,19.7,0c1.36,0,1.62.44,1.29,1.61-1.08,4,.15,3.37-4,3.4-4.61,0-4.64,0-5.58,4.35-1.19,5.48-2.32,11-3.47,16.46Z"/><path class="a20c7594-8943-420c-b43e-952f3f8f03b6" d="M1309.05,126.08c4.9-9,5.92-19,8.75-28.43,1.55-5.2,2.69-10.52,4.06-15.78a12.76,12.76,0,0,0,.34-7h42.33c7.34,0,11.8,5.35,10.14,12.45q-3.42,14.63-7.17,29.18c-1.52,5.92-6.72,9.62-13.29,9.64q-21.9,0-43.8,0C1310,126.14,1309.52,126.1,1309.05,126.08Zm23.9-8.51c3.79,0,7.37-.08,11,0a3.25,3.25,0,0,0,3.71-2.72c2.44-9.3,4.93-18.58,7.33-27.89.62-2.4-.18-3.34-2.67-3.38-2.89-.05-5.78.09-8.66-.05-1.52-.08-2,.55-2.31,1.88-1,4-2.08,8-3.12,11.94C1336.44,104.05,1334.72,110.71,1333,117.57Z"/><path class="a20c7594-8943-420c-b43e-952f3f8f03b6" d="M1413.67,88.81c-2.69,10.46-5.36,20.76-8,31.07-.42,1.65-.92,3.37-.39,5.06.41,1.31-.3,1.21-1.13,1.21-3.28,0-6.56,0-9.8,0,5.07-14.28,7.94-29.08,12-43.55.6-2.16,1.27-4.36.79-6.65-.18-.87.19-1.08,1-1.08,7,0,13.91,0,20.86,0,1.39,0,1.33,1.1,1.61,1.9q5.85,16.71,11.66,33.43c.32.92.69,1.82,1.22,3.22,1.44-5.44,2.78-10.37,4.06-15.32,1.59-6.17,3.47-12.27,4.67-18.53.1-.53.1-1.09.21-1.62.2-1-.89-2.36-.11-2.84s2.26-.22,3.43-.22c2.63,0,5.26,0,7.9,0-4.32,8.25-5.37,17.28-7.83,25.87-2.25,7.84-4.16,15.77-6.14,23.68-.35,1.42-1,1.78-2.38,1.76-6.1-.08-12.19-.09-18.29,0-1.55,0-2.27-.36-2.8-1.92-3.81-11.33-7.75-22.62-11.64-33.93A2.48,2.48,0,0,0,1413.67,88.81Z"/><path class="a20c7594-8943-420c-b43e-952f3f8f03b6" d="M1370.34,126.07c3.24-12.41,6.42-24.56,9.6-36.72.57-2.18,1.21-4.34,1.7-6.53.28-1.26.77-1.78,2.17-1.75,4.76.1,9.53.08,14.29,0,1.49,0,2,.09,1.5,1.87-3.71,13.78-7.29,27.61-10.87,41.43-.28,1.08-.54,1.74-1.92,1.72C1381.43,126,1376,126.07,1370.34,126.07Z"/><path class="a62e0fc3-d455-42b6-9bb0-10afc4550c45" d="M1401.5,68a9.82,9.82,0,1,1-9.64-9.88A9.64,9.64,0,0,1,1401.5,68Z"/><path class="a62e0fc3-d455-42b6-9bb0-10afc4550c45" d="M1386.8,40.43c3-.85,6-.16,9-.3,6.12,1.42,11.58,4,15.7,8.91a22.54,22.54,0,0,1,5.61,17.2c-2-7.79-6.16-14-13.28-18a24.25,24.25,0,0,0-15.13-2.94c-11.4,1.36-20.13,10.32-22.21,22.68C1361.27,59.3,1373.5,42.75,1386.8,40.43Z"/><path class="a62e0fc3-d455-42b6-9bb0-10afc4550c45" d="M1407.86,66.4c-3-8.09-8.12-13-16.52-12.7s-13.3,5.56-15.69,13.41c-1.41-3.11.44-9,3.84-12.36a17.17,17.17,0,0,1,19-3.5A15.26,15.26,0,0,1,1407.86,66.4Z"/><g id="eeb87743-5347-443d-9359-9df8ca270cc5" data-name="Stroke"><line class="b4897906-f323-434f-9557-02e19feaedeb" x1="700.5" y1="60" x2="700.5" y2="140"/></g><path class="b5afd555-053d-406a-9fa0-dcef87b74f26" d="M154.17,41.5h-78A19.5,19.5,0,0,0,56.67,61v78a19.5,19.5,0,0,0,19.5,19.5h78a19.5,19.5,0,0,0,19.5-19.5V61A19.5,19.5,0,0,0,154.17,41.5Zm2,59.26a3.24,3.24,0,0,1-4.59,0,3.21,3.21,0,0,1-.95-2.09l-8.82-8.82V69.92a1.63,1.63,0,0,0-1.63-1.63h-3.25a1.63,1.63,0,0,0-1.62,1.63V83.6l-4.88-5.13-15-15a1.62,1.62,0,0,0-2.3,0L78.59,97.89a1.64,1.64,0,0,0,0,2.3l2.3,2.3a1.64,1.64,0,0,0,2.3,0l26.43-26.43a6.49,6.49,0,0,1,9.19,0l26.43,26.43a6.51,6.51,0,0,1,0,9.19l-2.3,2.3a6.49,6.49,0,0,1-9.19,0L115.36,95.59a1.64,1.64,0,0,0-2.3,0L94.68,114a1.62,1.62,0,0,0,0,2.3l2.3,2.29a1.61,1.61,0,0,0,2.29,0l10.35-10.34a6.49,6.49,0,0,1,9.19,0l10.34,10.34a6.51,6.51,0,0,1,0,9.2L118,138.89a3.21,3.21,0,0,1-1,2.09,3.25,3.25,0,1,1-2.5-5.54l11.12-11.12a1.62,1.62,0,0,0,0-2.3l-10.34-10.34a1.62,1.62,0,0,0-2.3,0L102.72,122a6.49,6.49,0,0,1-9.19,0l-2.3-2.3a6.49,6.49,0,0,1,0-9.19l18.39-18.38a6.49,6.49,0,0,1,9.19,0l18.38,18.38a1.64,1.64,0,0,0,2.3,0l2.3-2.3a1.64,1.64,0,0,0,0-2.3L115.36,79.51a1.62,1.62,0,0,0-2.3,0L86.63,105.93a6.49,6.49,0,0,1-9.19,0l-2.3-2.29a6.52,6.52,0,0,1,0-9.2L109.62,60a6.49,6.49,0,0,1,9.19,0l11.6,11.61V69.92a6.5,6.5,0,0,1,6.5-6.5h3.25a6.5,6.5,0,0,1,6.5,6.5V87.83l7.4,7.39a3.25,3.25,0,0,1,2.09,5.54Z"/><path class="b5afd555-053d-406a-9fa0-dcef87b74f26" d="M612.42,61H624.1v3.65h-3.71v11H616.1v-11h-3.68Zm13.09,0h4.72l3.34,7.78L637,61h4.72V75.62h-3.85V67.39l-2.77,6.81h-2.92l-2.77-6.81v8.23h-3.85Z"/><path class="b5afd555-053d-406a-9fa0-dcef87b74f26" d="M271.65,61v78H254.31V107h-34v32H202.92V61h17.35V91.75h34V61Zm10.65,39c0-22.41,16.77-39,39.65-39s39.64,16.48,39.64,39S344.72,139,322,139,282.3,122.41,282.3,100Zm62.09.39c0-14.19-9.63-23.9-22.44-23.9s-22.45,9.71-22.45,23.9,9.64,23.89,22.45,23.89S344.39,114.57,344.39,100.39ZM368.8,100c0-22.41,16.77-39,39.65-39s39.64,16.48,39.64,39-16.87,39-39.64,39S368.8,122.41,368.8,100Zm62.09.39c0-14.19-9.63-23.9-22.44-23.9S386,86.2,386,100.39s9.64,23.89,22.45,23.89S430.89,114.57,430.89,100.39Zm96.58,17.33c0,13.48-10.28,21.28-30,21.28H458.74V61h36.61c18.74,0,28.38,8.13,28.38,20.28a18.86,18.86,0,0,1-10,17.16C522.12,101.23,527.47,107.91,527.47,117.72ZM476.71,76.06V93.67h16.5c8.1,0,12.5-3,12.5-8.86s-4.4-8.75-12.5-8.75Zm32.59,39.47c0-6.29-4.61-9.28-13.22-9.28H476.71v18.46h19.37C504.69,124.71,509.3,121.93,509.3,115.53Zm23.38,14.74,5.69-13.14A41.52,41.52,0,0,0,562.28,125c9.94,0,14-3.44,14-8.08,0-14.11-42.13-4.41-42.13-32.42,0-12.82,9.94-23.49,30.53-23.49,9.11,0,18.43,2.26,25.16,6.68l-5.18,13.25A39.67,39.67,0,0,0,564.56,75c-9.94,0-13.77,3.87-13.77,8.61,0,13.9,42.13,4.31,42.13,32,0,12.61-10,23.38-30.74,23.38C550.69,139,539.1,135.44,532.68,130.27Z"/></svg>