<svg id="a8b93e2e-48c9-42a5-b633-37581b1a1d88" data-name="Ebene 1" xmlns="http://www.w3.org/2000/svg" viewBox="0 0 1680 200"><defs><style>.ab3d482a-5dad-40de-a357-8ad94b54b6ae{fill:none;stroke:#ccc;stroke-miterlimit:10;}.ffc8e798-9289-4b81-b96f-1c89ce277a99{fill:#f9b213;}.f55a0dd5-fac9-4400-86c0-16597b7347ae{fill:#2298fe;}.b78e4b50-0764-4d06-9b8c-87be4149142d{fill:#ccc;}</style></defs><title>synology Kopie</title><g id="a0d7a04a-1061-4547-80fc-985acc80ec30" data-name="Stroke"><line class="ab3d482a-5dad-40de-a357-8ad94b54b6ae" x1="700.5" y1="60" x2="700.5" y2="140"/></g><path class="ffc8e798-9289-4b81-b96f-1c89ce277a99" d="M154.17,41.5h-78A19.5,19.5,0,0,0,56.67,61v78a19.5,19.5,0,0,0,19.5,19.5h78a19.5,19.5,0,0,0,19.5-19.5V61A19.5,19.5,0,0,0,154.17,41.5Zm2,59.26a3.24,3.24,0,0,1-4.59,0,3.21,3.21,0,0,1-.95-2.09l-8.82-8.82V69.92a1.63,1.63,0,0,0-1.63-1.63h-3.25a1.63,1.63,0,0,0-1.62,1.63V83.6l-4.88-5.13-15-15a1.62,1.62,0,0,0-2.3,0L78.59,97.89a1.64,1.64,0,0,0,0,2.3l2.3,2.3a1.64,1.64,0,0,0,2.3,0l26.43-26.43a6.49,6.49,0,0,1,9.19,0l26.43,26.43a6.51,6.51,0,0,1,0,9.19l-2.3,2.3a6.49,6.49,0,0,1-9.19,0L115.36,95.59a1.64,1.64,0,0,0-2.3,0L94.68,114a1.62,1.62,0,0,0,0,2.3l2.3,2.29a1.61,1.61,0,0,0,2.29,0l10.35-10.34a6.49,6.49,0,0,1,9.19,0l10.34,10.34a6.51,6.51,0,0,1,0,9.2L118,138.89a3.21,3.21,0,0,1-1,2.09,3.25,3.25,0,1,1-2.5-5.54l11.12-11.12a1.62,1.62,0,0,0,0-2.3l-10.34-10.34a1.62,1.62,0,0,0-2.3,0L102.72,122a6.49,6.49,0,0,1-9.19,0l-2.3-2.3a6.49,6.49,0,0,1,0-9.19l18.39-18.38a6.49,6.49,0,0,1,9.19,0l18.38,18.38a1.64,1.64,0,0,0,2.3,0l2.3-2.3a1.64,1.64,0,0,0,0-2.3L115.36,79.51a1.62,1.62,0,0,0-2.3,0L86.63,105.93a6.49,6.49,0,0,1-9.19,0l-2.3-2.29a6.52,6.52,0,0,1,0-9.2L109.62,60a6.49,6.49,0,0,1,9.19,0l11.6,11.61V69.92a6.5,6.5,0,0,1,6.5-6.5h3.25a6.5,6.5,0,0,1,6.5,6.5V87.83l7.4,7.39a3.25,3.25,0,0,1,2.09,5.54Z"/><path class="ffc8e798-9289-4b81-b96f-1c89ce277a99" d="M612.42,61H624.1v3.65h-3.71v11H616.1v-11h-3.68Zm13.09,0h4.72l3.34,7.78L637,61h4.72V75.62h-3.85V67.39l-2.77,6.81h-2.92l-2.77-6.81v8.23h-3.85Z"/><path class="ffc8e798-9289-4b81-b96f-1c89ce277a99" d="M271.65,61v78H254.31V107h-34v32H202.92V61h17.35V91.75h34V61Zm10.65,39c0-22.41,16.77-39,39.65-39s39.64,16.48,39.64,39S344.72,139,322,139,282.3,122.41,282.3,100Zm62.09.39c0-14.19-9.63-23.9-22.44-23.9s-22.45,9.71-22.45,23.9,9.64,23.89,22.45,23.89S344.39,114.57,344.39,100.39ZM368.8,100c0-22.41,16.77-39,39.65-39s39.64,16.48,39.64,39-16.87,39-39.64,39S368.8,122.41,368.8,100Zm62.09.39c0-14.19-9.63-23.9-22.44-23.9S386,86.2,386,100.39s9.64,23.89,22.45,23.89S430.89,114.57,430.89,100.39Zm96.58,17.33c0,13.48-10.28,21.28-30,21.28H458.74V61h36.61c18.74,0,28.38,8.13,28.38,20.28a18.86,18.86,0,0,1-10,17.16C522.12,101.23,527.47,107.91,527.47,117.72ZM476.71,76.06V93.67h16.5c8.1,0,12.5-3,12.5-8.86s-4.4-8.75-12.5-8.75Zm32.59,39.47c0-6.29-4.61-9.28-13.22-9.28H476.71v18.46h19.37C504.69,124.71,509.3,121.93,509.3,115.53Zm23.38,14.74,5.69-13.14A41.52,41.52,0,0,0,562.28,125c9.94,0,14-3.44,14-8.08,0-14.11-42.13-4.41-42.13-32.42,0-12.82,9.94-23.49,30.53-23.49,9.11,0,18.43,2.26,25.16,6.68l-5.18,13.25A39.67,39.67,0,0,0,564.56,75c-9.94,0-13.77,3.87-13.77,8.61,0,13.9,42.13,4.31,42.13,32,0,12.61-10,23.38-30.74,23.38C550.69,139,539.1,135.44,532.68,130.27Z"/><path class="f55a0dd5-fac9-4400-86c0-16597b7347ae" d="M878.82,40H801.18A21.17,21.17,0,0,0,780,61.17v77.65A21.18,21.18,0,0,0,801.18,160h77.64A21.18,21.18,0,0,0,900,138.82V61.17A21.17,21.17,0,0,0,878.82,40Zm-13.9,36.85a1.75,1.75,0,0,1,1.94-1.1,15,15,0,0,1,9.19,6.49,1.6,1.6,0,0,1-.53,2.38,1.52,1.52,0,0,1-2.22-.35,14.09,14.09,0,0,0-7.38-5.2A1.57,1.57,0,0,1,864.92,76.85Zm13.45,50.78c0,2.62-.69,3.32-3.2,3.36s-5.16,0-7.74,0c-2.37,0-3.08-.77-3.09-3.2q0-11,0-22a11.44,11.44,0,0,0-2-6.85c-2.31-3.27-5.46-5-9.46-4.25-4.28.76-6.84,3.57-8,7.67a15.28,15.28,0,0,0-.41,4.22q0,10.36,0,20.73c0,3.13-.54,3.67-3.59,3.69-2.59,0-5.17,0-7.75,0-1.7,0-2.75-.87-2.74-2.57-.49-2.3,0-33.1.1-35.41a12.63,12.63,0,0,0-4.66-11c-8.37-4.64-15.43,2.34-15.26,9.92.25,11.58.06,23.16.06,34.74,0,3.9-.43,4.33-4.25,4.34h-5.75c-3.58,0-4.09-.49-4.1-4,0-4.5,0-9,0-13.49,0-7.42-.09-14.83,0-22.24.19-12.32,8.14-22.36,19.57-24.47,8.58-1.58,16,.89,21.79,7.53,2.67,2.43,3.94,5.7,5.35,8.88,12.53-6.23,24.78-1.11,30.85,8a24.16,24.16,0,0,1,4.2,13.4C878.42,112.31,878.39,120,878.37,127.63Zm4.26-45.71c-1.32.84-2.13-.07-2.81-1.15a19.48,19.48,0,0,0-12.92-9c-1.16-.24-2.13-.73-1.93-2.12a1.71,1.71,0,0,1,1.94-1.47,21.68,21.68,0,0,1,6.23,2,23,23,0,0,1,9.68,8.76C883.47,79.93,883.94,81.09,882.63,81.92Z"/><path class="b78e4b50-0764-4d06-9b8c-87be4149142d" d="M949.8,63.27l24.76,61.79,24.76-61.79h13V139h-10V109.51l.93-31.84L978.36,139h-7.65L945.9,77.83l1,31.68V139h-10V63.27Z"/><path class="b78e4b50-0764-4d06-9b8c-87be4149142d" d="M1059.81,124.49h-27L1027,139h-9.83l24.91-60.6h8.64l24.55,60.6h-9.78Zm-23.93-7.86h20.86l-10.35-26.47Z"/><path class="b78e4b50-0764-4d06-9b8c-87be4149142d" d="M1126.79,131.2a20.59,20.59,0,0,1-9.49,6.47,41.34,41.34,0,0,1-13.91,2.16q-12.39,0-19.87-7.75t-7.6-20.86v-4.68q0-13.62,6.95-21.3t19.53-7.67q10.39,0,16.69,4.89t7.7,14.3h-9.57q-2-11.28-14.72-11.28-8.26,0-12.59,5.35t-4.31,15.71v4.37q0,9.89,4.81,15.48t13.13,5.59q9.46,0,13.68-3.85V115.75h-14.61v-7.49h24.18Z"/><path class="b78e4b50-0764-4d06-9b8c-87be4149142d" d="M1145.61,139h-9.67V78.4h9.67Z"/><path class="b78e4b50-0764-4d06-9b8c-87be4149142d" d="M1204.33,119.39q-1,9.72-7.6,15.08t-17.42,5.36q-11.65,0-18.7-7.67t-7-21.14v-4.89a33.39,33.39,0,0,1,3.2-15,23.24,23.24,0,0,1,9.2-10,26.93,26.93,0,0,1,13.92-3.54q10.61,0,17,5.49t7.42,15.21h-9.63q-.93-6.76-4.6-9.78t-10.22-3q-8,0-12.3,5.28t-4.4,15.11v5.51q0,9.83,4.14,15.21t12,5.39q7,0,10.69-2.89t4.7-9.7Z"/><path class="b78e4b50-0764-4d06-9b8c-87be4149142d" d="M1291.85,139h-10V104h-38.18v35h-10V63.27h10V95.83h38.18V63.27h10Z"/><path class="b78e4b50-0764-4d06-9b8c-87be4149142d" d="M1353.84,110.49q0,13.59-7.18,21.46t-19.25,7.88q-11.91,0-19.22-8t-7.3-21.64V107q0-13.42,7.25-21.43t19.17-8q12.12,0,19.27,7.91t7.26,21.17Zm-9.52-3.56q0-10.28-4.47-15.74t-12.54-5.45A15.1,15.1,0,0,0,1315,91.3q-4.56,5.55-4.55,15.79v3.43q0,10.13,4.57,15.72a15.23,15.23,0,0,0,12.43,5.58q8.11,0,12.51-5.48t4.4-15.82Z"/><path class="b78e4b50-0764-4d06-9b8c-87be4149142d" d="M1373.65,78.4,1394,125.79l20.24-47.39h12.53V139h-9.57V118.14l1-27.72L1397.47,139h-7.08l-20.65-48.38,1,27.52V139h-9.57V78.4Z"/><path class="b78e4b50-0764-4d06-9b8c-87be4149142d" d="M1473.56,111.64h-27.68v19.51h32.2V139h-41.82V78.4h41.51v8h-31.89v17.37h27.68Z"/></svg>