<svg id="b8f54c2f-a80a-43c1-a657-676f483c5280" data-name="Ebene 1" xmlns="http://www.w3.org/2000/svg" viewBox="0 0 1680 200"><defs><style>.bd30cf16-9141-4e58-9a79-c2c4cda04156{fill:none;stroke:#ccc;stroke-miterlimit:10;}.ab251eb2-fb79-4632-8d6d-98333118a13a{fill:#f9b213;}.acc4d7d6-eb56-43c3-a3cd-f3ce014d3ed8,.adac1d0f-6961-4faa-9c13-859d00ca9a9c{fill:#ccc;}.adac1d0f-6961-4faa-9c13-859d00ca9a9c{font-size:57.46px;font-family:Roboto-BlackItalic, Roboto Black;font-weight:800;font-style:italic;}.baadc563-7ca6-404c-8bde-0655de4f0a82{letter-spacing:-0.01em;}</style></defs><title>HOOBS_x_tado</title><g id="aef6a035-6189-4e14-87eb-fb8ace259ee8" data-name="Stroke"><line class="bd30cf16-9141-4e58-9a79-c2c4cda04156" x1="700.5" y1="60" x2="700.5" y2="140"/></g><path class="ab251eb2-fb79-4632-8d6d-98333118a13a" d="M154.17,41.5h-78A19.5,19.5,0,0,0,56.67,61v78a19.5,19.5,0,0,0,19.5,19.5h78a19.5,19.5,0,0,0,19.5-19.5V61A19.5,19.5,0,0,0,154.17,41.5Zm2,59.26a3.24,3.24,0,0,1-4.59,0,3.21,3.21,0,0,1-.95-2.09l-8.82-8.82V69.92a1.63,1.63,0,0,0-1.63-1.63h-3.25a1.63,1.63,0,0,0-1.62,1.63V83.6l-4.88-5.13-15-15a1.62,1.62,0,0,0-2.3,0L78.59,97.89a1.64,1.64,0,0,0,0,2.3l2.3,2.3a1.64,1.64,0,0,0,2.3,0l26.43-26.43a6.49,6.49,0,0,1,9.19,0l26.43,26.43a6.51,6.51,0,0,1,0,9.19l-2.3,2.3a6.49,6.49,0,0,1-9.19,0L115.36,95.59a1.64,1.64,0,0,0-2.3,0L94.68,114a1.62,1.62,0,0,0,0,2.3l2.3,2.29a1.61,1.61,0,0,0,2.29,0l10.35-10.34a6.49,6.49,0,0,1,9.19,0l10.34,10.34a6.51,6.51,0,0,1,0,9.2L118,138.89a3.21,3.21,0,0,1-1,2.09,3.25,3.25,0,1,1-2.5-5.54l11.12-11.12a1.62,1.62,0,0,0,0-2.3l-10.34-10.34a1.62,1.62,0,0,0-2.3,0L102.72,122a6.49,6.49,0,0,1-9.19,0l-2.3-2.3a6.49,6.49,0,0,1,0-9.19l18.39-18.38a6.49,6.49,0,0,1,9.19,0l18.38,18.38a1.64,1.64,0,0,0,2.3,0l2.3-2.3a1.64,1.64,0,0,0,0-2.3L115.36,79.51a1.62,1.62,0,0,0-2.3,0L86.63,105.93a6.49,6.49,0,0,1-9.19,0l-2.3-2.29a6.52,6.52,0,0,1,0-9.2L109.62,60a6.49,6.49,0,0,1,9.19,0l11.6,11.61V69.92a6.5,6.5,0,0,1,6.5-6.5h3.25a6.5,6.5,0,0,1,6.5,6.5V87.83l7.4,7.39a3.25,3.25,0,0,1,2.09,5.54Z"/><path class="ab251eb2-fb79-4632-8d6d-98333118a13a" d="M612.42,61H624.1v3.65h-3.71v11H616.1v-11h-3.68Zm13.09,0h4.72l3.34,7.78L637,61h4.72V75.62h-3.85V67.39l-2.77,6.81h-2.92l-2.77-6.81v8.23h-3.85Z"/><path class="ab251eb2-fb79-4632-8d6d-98333118a13a" d="M271.65,61v78H254.31V107h-34v32H202.92V61h17.35V91.75h34V61Zm10.65,39c0-22.41,16.77-39,39.65-39s39.64,16.48,39.64,39S344.72,139,322,139,282.3,122.41,282.3,100Zm62.09.39c0-14.19-9.63-23.9-22.44-23.9s-22.45,9.71-22.45,23.9,9.64,23.89,22.45,23.89S344.39,114.57,344.39,100.39ZM368.8,100c0-22.41,16.77-39,39.65-39s39.64,16.48,39.64,39-16.87,39-39.64,39S368.8,122.41,368.8,100Zm62.09.39c0-14.19-9.63-23.9-22.44-23.9S386,86.2,386,100.39s9.64,23.89,22.45,23.89S430.89,114.57,430.89,100.39Zm96.58,17.33c0,13.48-10.28,21.28-30,21.28H458.74V61h36.61c18.74,0,28.38,8.13,28.38,20.28a18.86,18.86,0,0,1-10,17.16C522.12,101.23,527.47,107.91,527.47,117.72ZM476.71,76.06V93.67h16.5c8.1,0,12.5-3,12.5-8.86s-4.4-8.75-12.5-8.75Zm32.59,39.47c0-6.29-4.61-9.28-13.22-9.28H476.71v18.46h19.37C504.69,124.71,509.3,121.93,509.3,115.53Zm23.38,14.74,5.69-13.14A41.52,41.52,0,0,0,562.28,125c9.94,0,14-3.44,14-8.08,0-14.11-42.13-4.41-42.13-32.42,0-12.82,9.94-23.49,30.53-23.49,9.11,0,18.43,2.26,25.16,6.68l-5.18,13.25A39.67,39.67,0,0,0,564.56,75c-9.94,0-13.77,3.87-13.77,8.61,0,13.9,42.13,4.31,42.13,32,0,12.61-10,23.38-30.74,23.38C550.69,139,539.1,135.44,532.68,130.27Z"/><path class="acc4d7d6-eb56-43c3-a3cd-f3ce014d3ed8" d="M973.68,75.29V40.49h16.15v1.62c0,24.53.12,49.05-.06,73.58-.08,11.46-3.2,22.1-10.59,31.14-7.12,8.7-16.48,13-27.65,13.51-10.67.45-20.29-2.32-28.29-9.65-6.78-6.22-10.74-14.08-12.65-23-2.61-12.18-2.13-24.23,2.43-35.91,6-15.43,19-24.17,35.56-24.39,8.88-.13,17,2,24.18,7.35A9.83,9.83,0,0,0,973.68,75.29Zm-48.37,35.82c0,11.43,1.76,18.92,5.12,24.72,4.85,8.41,13.28,12.43,22.79,10.82a20,20,0,0,0,14.56-10.54c8-14.46,7.88-29.19.36-43.8a20.78,20.78,0,0,0-10.33-9.66c-9.49-4.18-20.25-.73-26.26,8.5A39.17,39.17,0,0,0,925.31,111.11Z"/><path class="acc4d7d6-eb56-43c3-a3cd-f3ce014d3ed8" d="M995.48,114.73c0-10.23,1.51-19.12,5.92-27.32,6.29-11.68,16.13-18.21,29.32-19.67,8.48-.94,16.67.1,24.28,4.16,9.63,5.12,15.6,13.3,18.66,23.55,4.24,14.24,4,28.48-2,42.17-6.49,14.8-18.27,22.22-34.39,22.74-9.08.29-17.56-1.73-25-7.22-7.91-5.85-12.38-13.93-14.84-23.27A58.79,58.79,0,0,1,995.48,114.73Zm64.86-1.1c-.07-1.1-.1-2.55-.24-4-.67-6.86-2.52-13.35-6.58-19-5.42-7.55-12.73-10.93-22-9.09-7.2,1.42-12,6.12-15.27,12.41-4.17,7.93-5.35,16.46-4.41,25.28a37.81,37.81,0,0,0,6.11,17.65c4.19,6.14,9.83,9.85,17.45,10,8.2.2,14.24-3.68,18.63-10.32C1058.55,129.75,1060.16,122.05,1060.34,113.63Z"/><path class="acc4d7d6-eb56-43c3-a3cd-f3ce014d3ed8" d="M887.22,99.62c0-4.13.19-8-.05-11.8a7.47,7.47,0,0,0-7.68-6.92c-8.5,0-17,0-25.5,0h-1.72V67.44h29.92a21.17,21.17,0,0,1,21.25,21.22q0,33.63,0,67.28v1.61H887.32v-6.07c-.27.09-.43.09-.5.18-5.65,6.12-12.89,7.9-20.85,7.38A33,33,0,0,1,844.65,150c-6.71-6.45-9.38-14.46-8.53-23.64,1.37-14.69,13.08-24.19,26.27-26.08,5.4-.77,11-.47,16.45-.6C881.57,99.56,884.31,99.62,887.22,99.62Zm0,13.69c-.51,0-.75-.1-1-.1-6.14,0-12.29-.13-18.43.08a15.86,15.86,0,0,0-15.53,13.95c-1,8,2.23,15.38,11.43,17.79a22.33,22.33,0,0,0,13-.68c6.91-2.31,10.56-7.51,10.56-14.79V113.31Z"/><path class="acc4d7d6-eb56-43c3-a3cd-f3ce014d3ed8" d="M822.35,157.64c-.42,0-.76.1-1.09.1-5.4,0-10.8.06-16.2-.09a21.31,21.31,0,0,1-20.39-21.06q0-26.9,0-53.8V81H773.94V67.51h10.69c0-.74.09-1.31.09-1.89q0-9.21,0-18.43c0-.67-.16-1.34.81-1.66,5-1.65,10-3.36,15.26-5.13v27h45.83V80.83H800.79v54.65c0,5.44,3.34,8.79,8.77,8.8h12.79Z"/><path class="acc4d7d6-eb56-43c3-a3cd-f3ce014d3ed8" d="M1073.58,61.93a21.6,21.6,0,1,1,21.57,21.66A21.43,21.43,0,0,1,1073.58,61.93Zm37.84.08a16.24,16.24,0,1,0-16.26,16.21A16.26,16.26,0,0,0,1111.42,62Z"/><text class="adac1d0f-6961-4faa-9c13-859d00ca9a9c" transform="translate(1129.18 83.59)"><tspan class="baadc563-7ca6-404c-8bde-0655de4f0a82">A</tspan><tspan x="37.65" y="0">C</tspan></text></svg>