<svg id="ac0f95ef-27d8-4bf4-80b0-48d539a2c7e9" data-name="Ebene 1" xmlns="http://www.w3.org/2000/svg" viewBox="0 0 1680 200"><defs><style>.a8433877-3e8a-49d9-aaee-08389e58c56f{fill:none;stroke:#ccc;stroke-miterlimit:10;}.b02a3798-6eb0-4dbd-ae7a-81ec7646d59b{fill:#f9b213;}.a65d3534-0f76-423f-879b-4f6f1a89c856,.af9bfa92-0541-4cc7-a1d7-e4107ecb9b26{fill:#ccc;}.a65d3534-0f76-423f-879b-4f6f1a89c856{font-size:53px;font-family:Roboto-Regular, Roboto;}.b8970bf4-7e11-4cde-9ef1-d97bd4996a50{letter-spacing:0.01em;}.ae225b23-1626-4063-a567-164982fceacf{letter-spacing:-0.04em;}.af640d77-aa9c-451b-81f6-3d86ab60ad95{letter-spacing:-0.02em;}.b64a4126-01e8-40c4-85e2-876924a35f72{letter-spacing:-0.01em;}.b4f629ca-2738-4203-a8c4-d44f30d012db{letter-spacing:0em;}.b9f767f2-22e5-48b9-9b9b-a235d2f02269{letter-spacing:-0.01em;}</style></defs><title>HOOBS_x_tado-ac</title><g id="ace1623c-a177-4379-8a1a-485af0aa06aa" data-name="Stroke"><line class="a8433877-3e8a-49d9-aaee-08389e58c56f" x1="700.5" y1="60" x2="700.5" y2="140"/></g><path class="b02a3798-6eb0-4dbd-ae7a-81ec7646d59b" d="M154.17,41.5h-78A19.5,19.5,0,0,0,56.67,61v78a19.5,19.5,0,0,0,19.5,19.5h78a19.5,19.5,0,0,0,19.5-19.5V61A19.5,19.5,0,0,0,154.17,41.5Zm2,59.26a3.24,3.24,0,0,1-4.59,0,3.21,3.21,0,0,1-.95-2.09l-8.82-8.82V69.92a1.63,1.63,0,0,0-1.63-1.63h-3.25a1.63,1.63,0,0,0-1.62,1.63V83.6l-4.88-5.13-15-15a1.62,1.62,0,0,0-2.3,0L78.59,97.89a1.64,1.64,0,0,0,0,2.3l2.3,2.3a1.64,1.64,0,0,0,2.3,0l26.43-26.43a6.49,6.49,0,0,1,9.19,0l26.43,26.43a6.51,6.51,0,0,1,0,9.19l-2.3,2.3a6.49,6.49,0,0,1-9.19,0L115.36,95.59a1.64,1.64,0,0,0-2.3,0L94.68,114a1.62,1.62,0,0,0,0,2.3l2.3,2.29a1.61,1.61,0,0,0,2.29,0l10.35-10.34a6.49,6.49,0,0,1,9.19,0l10.34,10.34a6.51,6.51,0,0,1,0,9.2L118,138.89a3.21,3.21,0,0,1-1,2.09,3.25,3.25,0,1,1-2.5-5.54l11.12-11.12a1.62,1.62,0,0,0,0-2.3l-10.34-10.34a1.62,1.62,0,0,0-2.3,0L102.72,122a6.49,6.49,0,0,1-9.19,0l-2.3-2.3a6.49,6.49,0,0,1,0-9.19l18.39-18.38a6.49,6.49,0,0,1,9.19,0l18.38,18.38a1.64,1.64,0,0,0,2.3,0l2.3-2.3a1.64,1.64,0,0,0,0-2.3L115.36,79.51a1.62,1.62,0,0,0-2.3,0L86.63,105.93a6.49,6.49,0,0,1-9.19,0l-2.3-2.29a6.52,6.52,0,0,1,0-9.2L109.62,60a6.49,6.49,0,0,1,9.19,0l11.6,11.61V69.92a6.5,6.5,0,0,1,6.5-6.5h3.25a6.5,6.5,0,0,1,6.5,6.5V87.83l7.4,7.39a3.25,3.25,0,0,1,2.09,5.54Z"/><path class="b02a3798-6eb0-4dbd-ae7a-81ec7646d59b" d="M612.42,61H624.1v3.65h-3.71v11H616.1v-11h-3.68Zm13.09,0h4.72l3.34,7.78L637,61h4.72V75.62h-3.85V67.39l-2.77,6.81h-2.92l-2.77-6.81v8.23h-3.85Z"/><path class="b02a3798-6eb0-4dbd-ae7a-81ec7646d59b" d="M271.65,61v78H254.31V107h-34v32H202.92V61h17.35V91.75h34V61Zm10.65,39c0-22.41,16.77-39,39.65-39s39.64,16.48,39.64,39S344.72,139,322,139,282.3,122.41,282.3,100Zm62.09.39c0-14.19-9.63-23.9-22.44-23.9s-22.45,9.71-22.45,23.9,9.64,23.89,22.45,23.89S344.39,114.57,344.39,100.39ZM368.8,100c0-22.41,16.77-39,39.65-39s39.64,16.48,39.64,39-16.87,39-39.64,39S368.8,122.41,368.8,100Zm62.09.39c0-14.19-9.63-23.9-22.44-23.9S386,86.2,386,100.39s9.64,23.89,22.45,23.89S430.89,114.57,430.89,100.39Zm96.58,17.33c0,13.48-10.28,21.28-30,21.28H458.74V61h36.61c18.74,0,28.38,8.13,28.38,20.28a18.86,18.86,0,0,1-10,17.16C522.12,101.23,527.47,107.91,527.47,117.72ZM476.71,76.06V93.67h16.5c8.1,0,12.5-3,12.5-8.86s-4.4-8.75-12.5-8.75Zm32.59,39.47c0-6.29-4.61-9.28-13.22-9.28H476.71v18.46h19.37C504.69,124.71,509.3,121.93,509.3,115.53Zm23.38,14.74,5.69-13.14A41.52,41.52,0,0,0,562.28,125c9.94,0,14-3.44,14-8.08,0-14.11-42.13-4.41-42.13-32.42,0-12.82,9.94-23.49,30.53-23.49,9.11,0,18.43,2.26,25.16,6.68l-5.18,13.25A39.67,39.67,0,0,0,564.56,75c-9.94,0-13.77,3.87-13.77,8.61,0,13.9,42.13,4.31,42.13,32,0,12.61-10,23.38-30.74,23.38C550.69,139,539.1,135.44,532.68,130.27Z"/><path class="af9bfa92-0541-4cc7-a1d7-e4107ecb9b26" d="M968.55,74.6V39.78h16.11v1.67c0,24.52.13,49.05,0,73.57-.09,11.57-3.27,22.3-10.81,31.36-7.07,8.51-16.33,12.76-27.32,13.25-10.66.47-20.29-2.26-28.32-9.57-6.84-6.24-10.82-14.14-12.74-23.08-2.61-12.18-2.12-24.23,2.45-35.91,6-15.32,18.83-24,35.29-24.35,8.93-.18,17.1,1.94,24.34,7.28C967.73,74.17,968,74.28,968.55,74.6Zm-48.44,38.55c.1,7.87,1.3,15.19,5.12,21.89,5.13,9,14.68,13.12,24.49,10.55a20.27,20.27,0,0,0,13-10.35c7.79-14.41,7.74-29,.29-43.56a20.85,20.85,0,0,0-10.42-9.75c-9.5-4.16-20.26-.68-26.25,8.56C921.83,97.46,920.21,105.24,920.11,113.15Z"/><path class="af9bfa92-0541-4cc7-a1d7-e4107ecb9b26" d="M990.13,113c.18-9.66,1.86-18.91,6.73-27.36,6.38-11.08,16.08-17.19,28.77-18.56,8.44-.91,16.58.11,24.15,4.13,9.63,5.11,15.62,13.26,18.69,23.52,4.27,14.24,4,28.47-2,42.17-6.47,14.81-18.23,22.25-34.34,22.8-9.14.31-17.67-1.72-25.13-7.26-7.86-5.83-12.31-13.87-14.75-23.15a46.59,46.59,0,0,1-1.22-6.16C990.64,119.71,990.43,116.33,990.13,113Zm65.05,0c-.07-1.09-.1-2.54-.24-4-.67-6.86-2.52-13.35-6.58-19-5.42-7.55-12.73-10.93-22-9.1-7.2,1.42-12,6.12-15.27,12.41-4.17,7.94-5.35,16.46-4.41,25.28a37.77,37.77,0,0,0,6.11,17.65c4.22,6.19,9.91,9.9,17.59,10,8.15.14,14.13-3.73,18.49-10.32C1053.38,129.05,1055,121.35,1055.18,112.92Z"/><path class="af9bfa92-0541-4cc7-a1d7-e4107ecb9b26" d="M882,98.91c0-4.16.25-8.11-.07-12s-3.64-6.69-7.71-6.7c-8.4,0-16.8,0-25.2,0h-1.91V66.74H877A21.18,21.18,0,0,1,898.28,88q0,33.56,0,67.13v1.71H882.15v-5.94c-2.16,1.56-4.08,3.35-6.33,4.51-8.49,4.34-17.24,3.79-25.83.43-9.28-3.62-15.76-10.09-18.28-19.94-3.89-15.17,4.34-29.81,19.49-35a38.54,38.54,0,0,1,12.5-2H882Zm.05,13.73a7.59,7.59,0,0,0-.89-.13c-6.19,0-12.39-.14-18.58.08a15.89,15.89,0,0,0-15.49,14c-.86,6.65,1.34,13.29,8.11,16.53,5.09,2.43,10.36,2.29,15.63.73,7.31-2.15,11.22-7.47,11.22-15V112.64Z"/><path class="af9bfa92-0541-4cc7-a1d7-e4107ecb9b26" d="M779.5,80.17H768.76V66.77h10.72c0-.75.08-1.33.08-1.91,0-6.09,0-12.19,0-18.28a1.67,1.67,0,0,1,1.31-1.94c4.89-1.57,9.74-3.24,14.78-4.93v27h45.86V80.17H795.63v54.52c0,5.6,3.31,8.89,9,8.89h12.67v13.3A11.12,11.12,0,0,1,816,157c-5.39,0-10.8.06-16.19-.09a21.32,21.32,0,0,1-20.33-21q0-27,0-53.94Z"/><path class="af9bfa92-0541-4cc7-a1d7-e4107ecb9b26" d="M1090,39.68a21.6,21.6,0,1,1-21.56,21.6A21.48,21.48,0,0,1,1090,39.68Zm.08,5.37a16.24,16.24,0,1,0,16.2,16.21A16.23,16.23,0,0,0,1090.06,45.05Z"/><text class="a65d3534-0f76-423f-879b-4f6f1a89c856" transform="translate(1152.93 83.37)">S<tspan class="b8970bf4-7e11-4cde-9ef1-d97bd4996a50" x="31.44" y="0">M</tspan><tspan x="78.18" y="0">A</tspan><tspan class="ae225b23-1626-4063-a567-164982fceacf" x="112.75" y="0">R</tspan><tspan class="af640d77-aa9c-451b-81f6-3d86ab60ad95" x="143.32" y="0">T</tspan><tspan x="173.91" y="0"> </tspan><tspan class="b64a4126-01e8-40c4-85e2-876924a35f72"><tspan x="0" y="63.6">A</tspan><tspan class="b4f629ca-2738-4203-a8c4-d44f30d012db" x="34.29" y="63.6">C CO</tspan><tspan class="b9f767f2-22e5-48b9-9b9b-a235d2f02269" x="152.84" y="63.6">N</tspan><tspan class="b4f629ca-2738-4203-a8c4-d44f30d012db" x="189.87" y="63.6">TROL</tspan></tspan></text></svg>