<svg id="bd29b5cb-295d-4c6e-a39c-0faeea41e73f" data-name="Ebene 1" xmlns="http://www.w3.org/2000/svg" viewBox="0 0 1680 200"><defs><style>.f05b519e-2ba0-4d8e-ae29-12427f35a22f{fill:none;stroke:#ccc;stroke-miterlimit:10;}.fbe5dff9-24b9-4fe2-a3e1-21e9c037173f{fill:#f9b213;}.a867b635-2d98-40cc-90a7-5e3728343843{fill:#ccc;}.a3011c0b-cc3c-494f-a995-05a181fb3fc6{fill:#df2027;}.b404a45b-7517-4482-88d2-66b34db55958{fill:#bebdbd;}</style></defs><title>HOOBS_x_switcher</title><g id="bd30109b-7467-401a-9da4-12bb91fcd1f0" data-name="Stroke"><line class="f05b519e-2ba0-4d8e-ae29-12427f35a22f" x1="700.5" y1="60" x2="700.5" y2="140"/></g><path class="fbe5dff9-24b9-4fe2-a3e1-21e9c037173f" d="M154.17,41.5h-78A19.5,19.5,0,0,0,56.67,61v78a19.5,19.5,0,0,0,19.5,19.5h78a19.5,19.5,0,0,0,19.5-19.5V61A19.5,19.5,0,0,0,154.17,41.5Zm2,59.26a3.24,3.24,0,0,1-4.59,0,3.21,3.21,0,0,1-.95-2.09l-8.82-8.82V69.92a1.63,1.63,0,0,0-1.63-1.63h-3.25a1.63,1.63,0,0,0-1.62,1.63V83.6l-4.88-5.13-15-15a1.62,1.62,0,0,0-2.3,0L78.59,97.89a1.64,1.64,0,0,0,0,2.3l2.3,2.3a1.64,1.64,0,0,0,2.3,0l26.43-26.43a6.49,6.49,0,0,1,9.19,0l26.43,26.43a6.51,6.51,0,0,1,0,9.19l-2.3,2.3a6.49,6.49,0,0,1-9.19,0L115.36,95.59a1.64,1.64,0,0,0-2.3,0L94.68,114a1.62,1.62,0,0,0,0,2.3l2.3,2.29a1.61,1.61,0,0,0,2.29,0l10.35-10.34a6.49,6.49,0,0,1,9.19,0l10.34,10.34a6.51,6.51,0,0,1,0,9.2L118,138.89a3.21,3.21,0,0,1-1,2.09,3.25,3.25,0,1,1-2.5-5.54l11.12-11.12a1.62,1.62,0,0,0,0-2.3l-10.34-10.34a1.62,1.62,0,0,0-2.3,0L102.72,122a6.49,6.49,0,0,1-9.19,0l-2.3-2.3a6.49,6.49,0,0,1,0-9.19l18.39-18.38a6.49,6.49,0,0,1,9.19,0l18.38,18.38a1.64,1.64,0,0,0,2.3,0l2.3-2.3a1.64,1.64,0,0,0,0-2.3L115.36,79.51a1.62,1.62,0,0,0-2.3,0L86.63,105.93a6.49,6.49,0,0,1-9.19,0l-2.3-2.29a6.52,6.52,0,0,1,0-9.2L109.62,60a6.49,6.49,0,0,1,9.19,0l11.6,11.61V69.92a6.5,6.5,0,0,1,6.5-6.5h3.25a6.5,6.5,0,0,1,6.5,6.5V87.83l7.4,7.39a3.25,3.25,0,0,1,2.09,5.54Z"/><path class="fbe5dff9-24b9-4fe2-a3e1-21e9c037173f" d="M612.42,61H624.1v3.65h-3.71v11H616.1v-11h-3.68Zm13.09,0h4.72l3.34,7.78L637,61h4.72V75.62h-3.85V67.39l-2.77,6.81h-2.92l-2.77-6.81v8.23h-3.85Z"/><path class="fbe5dff9-24b9-4fe2-a3e1-21e9c037173f" d="M271.65,61v78H254.31V107h-34v32H202.92V61h17.35V91.75h34V61Zm10.65,39c0-22.41,16.77-39,39.65-39s39.64,16.48,39.64,39S344.72,139,322,139,282.3,122.41,282.3,100Zm62.09.39c0-14.19-9.63-23.9-22.44-23.9s-22.45,9.71-22.45,23.9,9.64,23.89,22.45,23.89S344.39,114.57,344.39,100.39ZM368.8,100c0-22.41,16.77-39,39.65-39s39.64,16.48,39.64,39-16.87,39-39.64,39S368.8,122.41,368.8,100Zm62.09.39c0-14.19-9.63-23.9-22.44-23.9S386,86.2,386,100.39s9.64,23.89,22.45,23.89S430.89,114.57,430.89,100.39Zm96.58,17.33c0,13.48-10.28,21.28-30,21.28H458.74V61h36.61c18.74,0,28.38,8.13,28.38,20.28a18.86,18.86,0,0,1-10,17.16C522.12,101.23,527.47,107.91,527.47,117.72ZM476.71,76.06V93.67h16.5c8.1,0,12.5-3,12.5-8.86s-4.4-8.75-12.5-8.75Zm32.59,39.47c0-6.29-4.61-9.28-13.22-9.28H476.71v18.46h19.37C504.69,124.71,509.3,121.93,509.3,115.53Zm23.38,14.74,5.69-13.14A41.52,41.52,0,0,0,562.28,125c9.94,0,14-3.44,14-8.08,0-14.11-42.13-4.41-42.13-32.42,0-12.82,9.94-23.49,30.53-23.49,9.11,0,18.43,2.26,25.16,6.68l-5.18,13.25A39.67,39.67,0,0,0,564.56,75c-9.94,0-13.77,3.87-13.77,8.61,0,13.9,42.13,4.31,42.13,32,0,12.61-10,23.38-30.74,23.38C550.69,139,539.1,135.44,532.68,130.27Z"/><path class="a867b635-2d98-40cc-90a7-5e3728343843" d="M835.73,40.51a56.55,56.55,0,1,0,56.55,56.55A56.55,56.55,0,0,0,835.73,40.51Zm0,95.57a39,39,0,1,1,39-39A39,39,0,0,1,835.73,136.08Z"/><path class="a3011c0b-cc3c-494f-a995-05a181fb3fc6" d="M884.58,68.78a9.63,9.63,0,0,1-2,7.2,9,9,0,0,1-12.06,1.78c-.31-.21-.64-.4-1-.61h0a.45.45,0,0,0-.38-.37h0l-.25-.27A46.84,46.84,0,0,0,859.24,66,39,39,0,0,0,808,69.51a53.54,53.54,0,0,0-7.33,9.82,9.38,9.38,0,0,1-8.59,2.78,9.12,9.12,0,0,1-7.25-8.59c0-.38,0-.76-.05-1.15a42.51,42.51,0,0,1,7.06-11.22C801.31,49.78,813.34,42.64,828,41,868.34,36.47,884.35,68.32,884.58,68.78Z"/><path class="a867b635-2d98-40cc-90a7-5e3728343843" d="M982,130.26c.9-3.17,1.82-6.34,2.71-9.52q7.62-27.09,15.23-54.19c.14-.49.06-1.3.68-1.39a9.32,9.32,0,0,1,2.79,0c.42.06.39.7.5,1.09q3.85,13.74,7.69,27.47,5,17.72,9.92,35.44a1.9,1.9,0,0,0,.6,1.23c.5-2.09,1-4.1,1.46-6.1,4.53-19.48,9.76-38.78,14.57-58.18.23-.93.69-1.07,1.51-1.06,2.51,0,2.5,0,1.89,2.35q-8.71,33.72-17.44,67.44c-.2.76-.19,1.63-1.43,1.47-1.06-.14-2.13.33-2.62-1.35-5-17.28-10.21-34.52-15.27-51.79-1-3.26-1.6-6.6-2.4-9.9-.11-.45-.23-.9-.35-1.36-.61.08-.51.59-.58.89-3.16,13.48-7.45,26.65-11.25,40-2.13,7.46-4.38,14.9-6.47,22.38-.45,1.63-1.55,1-2.48,1.15s-1.2-.31-1.42-1.14q-8.85-34.41-17.77-68.8c-.3-1.16,0-1.34,1.08-1.3,2.29.07,2.3,0,2.84,2.12q6.22,24.44,12.43,48.87c1.1,4.36,2,8.77,3,13.16.08.37.2.73.3,1.09Z"/><path class="a867b635-2d98-40cc-90a7-5e3728343843" d="M1178.63,79.3a31.12,31.12,0,0,1,6.16-9.09c6.91-6.57,15.06-8,23.89-5.06,5.8,1.92,8.84,6.65,10.59,12.27a52.71,52.71,0,0,1,2,15.75c0,14,0,27.9,0,41.85,0,1.1-.35,1.35-1.38,1.31-1.92-.07-1.92,0-1.92-2v-.77c0-13.69,0-27.39,0-41.08a45.55,45.55,0,0,0-1.75-13.73c-2.53-8.07-9.13-12.13-17.55-11.3-9.31.91-14.5,6.56-17.71,14.64a32.41,32.41,0,0,0-2.38,12.42c.1,13.48,0,27,.08,40.45,0,1.49-.73,1.33-1.7,1.36s-1.58,0-1.57-1.37c.06-10.21,0-20.41,0-30.62q0-34.57,0-69.14c0-.51-.34-1.31.31-1.46a6.62,6.62,0,0,1,2.66,0c.42.08.2.76.2,1.16q0,13.47,0,26.92Z"/><path class="a867b635-2d98-40cc-90a7-5e3728343843" d="M1262,98.39c-7.37,0-14.74,0-22.12,0-1,0-1.27.28-1.28,1.28-.06,5.8.11,11.55,2.08,17.11a31,31,0,0,0,6.1,10.52c5.15,5.75,11.65,7.72,19.16,6.54a24.87,24.87,0,0,0,15-7.82c.43-.47.63-.38.91.11,1.44,2.54,1.78,1.77-.35,4-8.66,8.91-24,10.2-33,3.22a32.84,32.84,0,0,1-11.84-18.84c-1.56-6.44-1.46-13-1-19.54a38.9,38.9,0,0,1,4.65-16.8c3.45-6.21,8.06-11.25,15.13-13.29,11.43-3.31,23.33,1,28,14.9,1.76,5.19,2,10.57,2,16,0,2.68,0,2.68-2.67,2.68Zm-1.37-3.56c6.78,0,13.55,0,20.33,0,.93,0,1.25-.21,1.22-1.2-.06-1.91-.06-3.82-.29-5.72-.67-5.61-2.51-10.75-6.37-15-6.34-7-18.5-7.54-26.11-1.11-6.63,5.61-9.4,13.12-10.26,21.52-.12,1.2.22,1.52,1.42,1.51C1247.3,94.8,1254,94.83,1260.67,94.83Z"/><path class="a867b635-2d98-40cc-90a7-5e3728343843" d="M927.92,63.78c5.7.07,11.09,1.14,15.65,4.85s6.56,8.65,6.6,14.45c0,.93-.39,1.24-1.23,1.08-.66-.12-1.69.54-1.72-.94-.12-7-5.62-13.75-14-15.34a26.18,26.18,0,0,0-13.74.79c-9.63,3.38-12.72,14.79-6,22.17,2.18,2.4,5.08,3.66,8,4.85C925,97.1,928.69,97.88,932.3,99a36.74,36.74,0,0,1,12.25,6.13,16,16,0,0,1,6,11.83c1,12.6-7.86,18.8-16.32,20.24-6.34,1.08-12.63.81-18.5-2-6.35-3.06-10.3-8-10.63-15.29-.07-1.58.93-2.24,2.41-1.7.38.14.33.43.38.71.2,1.13.33,2.28.61,3.38a12.89,12.89,0,0,0,6.79,8.66,26.35,26.35,0,0,0,22.46,1.41c6-2.3,9.94-8.11,9.68-13.88s-3.14-9.76-7.82-12.71c-3.87-2.44-8.22-3.64-12.61-4.74A51.1,51.1,0,0,1,915,96.63c-6.1-3.27-8.41-8.52-8.35-15.19.07-8.85,6.91-15.61,15.52-17.15A29.61,29.61,0,0,1,927.92,63.78Z"/><path class="a867b635-2d98-40cc-90a7-5e3728343843" d="M1114.68,100.51c-.11,6.93.55,13.46,3.1,19.66,2,4.77,4.71,9,9.38,11.56,8.13,4.55,20.15,2.55,26.3-4.42,2.93-3.32,4-7.37,4.11-11.66,0-1.6.92-1.2,1.79-1.29,1.11-.12,1.11.51,1.12,1.32a21.78,21.78,0,0,1-18.26,21.59c-12.12,2.21-21.9-3.21-27-15a47.53,47.53,0,0,1-3.66-17.6c-.26-7.51,0-15,2.4-22.19a32.62,32.62,0,0,1,5.63-10.5c5.23-6.43,12.14-8.78,20.21-8.07a22.22,22.22,0,0,1,16.4,9c3.4,4.51,4.36,9.78,4.31,15.3,0,.62-.28.77-.85.8-1.91.12-1.89.14-2-1.68-.35-5.4-1.77-10.36-5.83-14.27-7.93-7.63-21.62-7.64-28.89.08-3.68,3.91-5.67,8.74-6.9,13.89A52.27,52.27,0,0,0,1114.68,100.51Z"/><path class="a867b635-2d98-40cc-90a7-5e3728343843" d="M1083.33,96.18V70.53c0-1.74,0-1.74-1.69-1.74-2.94,0-5.88,0-8.82,0-.83,0-1.2-.15-1.2-1.1,0-2.62,0-2.62,2.59-2.62s5.29,0,7.93,0c1,0,1.22-.27,1.21-1.22,0-5.53,0-11.06,0-16.59,0-1.08.2-1.62,1.38-1.41a1.72,1.72,0,0,0,.64,0c1-.14,1.3.19,1.29,1.23-.06,5.27,0,10.55,0,15.82,0,2.15,0,2.15,2.14,2.15,4.09,0,8.18,0,12.28,0,1,0,1.2.29,1.19,1.22,0,2.51,0,2.51-2.57,2.51-4,0-7.93,0-11.9,0-.87,0-1.16.22-1.16,1.13,0,16.17,0,32.33,0,48.49a28.48,28.48,0,0,0,1.2,9.07c1.58,4.74,4.76,6.93,9.75,6.62,1.36-.08,2.72-.22,4.06-.43.63-.09.8.11.94.66.63,2.51.5,2.77-2.08,3.15a19.81,19.81,0,0,1-7.12,0c-4.25-.93-6.89-3.65-8.35-7.64a33.65,33.65,0,0,1-1.67-11.56C1083.3,110.9,1083.33,103.54,1083.33,96.18Z"/><path class="a867b635-2d98-40cc-90a7-5e3728343843" d="M1302.7,79.11a29.3,29.3,0,0,1,5.91-9.39c5-5,11-6.73,17.87-5.56,1,.17,1.44.58,1.14,1.61a2.41,2.41,0,0,0-.13.88c.06.91-.41,1.07-1.18,1a21,21,0,0,0-7.24.12,17.78,17.78,0,0,0-11.75,8.71,30.21,30.21,0,0,0-4.7,16.16c.05,14.12,0,28.23,0,42.35,0,.45.33,1.21-.31,1.33a4.46,4.46,0,0,1-2.75-.11c-.37-.17-.16-.79-.16-1.2q0-11.41,0-22.83V66.48a1.57,1.57,0,0,1,2.39-1.34c.48.26.29.75.31,1.14C1302.31,70.56,1302.5,74.83,1302.7,79.11Z"/><path class="a867b635-2d98-40cc-90a7-5e3728343843" d="M1060.48,100.79c0,11.4,0,22.79,0,34.18,0,1.35-.56,1.36-1.56,1.37s-1.67,0-1.66-1.43q.07-34.17,0-68.35c0-1.5.65-1.43,1.72-1.51,1.3-.09,1.51.39,1.5,1.57C1060.46,78,1060.48,89.4,1060.48,100.79Z"/><path class="a867b635-2d98-40cc-90a7-5e3728343843" d="M1058.85,51a4.33,4.33,0,0,1,4.49,4.38,4.46,4.46,0,0,1-4.42,4.5,4.56,4.56,0,0,1-4.48-4.5A4.44,4.44,0,0,1,1058.85,51Z"/><path class="b404a45b-7517-4482-88d2-66b34db55958" d="M869.56,77.17c-.37.12-.36-.13-.38-.37A.45.45,0,0,1,869.56,77.17Z"/><path class="b404a45b-7517-4482-88d2-66b34db55958" d="M869.18,76.81l-.25-.28Z"/><path class="a3011c0b-cc3c-494f-a995-05a181fb3fc6" d="M836.06,68.08a32,32,0,0,1,23.55,10.7c2.22,2.41,1.91,6.64-.56,9a5.79,5.79,0,0,1-8.36-.11c-2.92-2.9-6.11-5.32-10.18-6.26-7.3-1.68-13.55.32-18.73,5.64-2.55,2.61-5.46,3.18-8.1,1.43a6.92,6.92,0,0,1-2.32-8.39,5.17,5.17,0,0,1,1.09-1.55A32.06,32.06,0,0,1,836.06,68.08Z"/><path class="a3011c0b-cc3c-494f-a995-05a181fb3fc6" d="M845.28,99.84a9.4,9.4,0,1,1-9.59-9.24A9.42,9.42,0,0,1,845.28,99.84Z"/></svg>