<svg id="a8a14d58-59f0-4a2c-9f20-ba7d70927d9c" data-name="Ebene 1" xmlns="http://www.w3.org/2000/svg" viewBox="0 0 1680 200"><defs><style>.bb1e7422-12e8-446d-b84a-692421b51d7d{fill:none;stroke:#ccc;stroke-miterlimit:10;}.bad27030-8059-47b8-8285-0a3249c3edae{fill:#f9b213;}.e71585a9-0db9-4fab-867e-95e9c7598c7a{fill:#ec5043;}.b33af4f6-29db-4dcc-a5bd-63df6f88a37e{fill:#4586f7;}.b3605f16-dfd6-454c-8325-3b476ace875c{fill:#fdc00d;}.ab7c9b94-3805-454e-be8a-8505fca79265{fill:#3bab59;}.bfbd6085-9099-4d3e-9218-34a8fec53d21{fill:#ccc;}</style></defs><title>HOOBS_x_gsh</title><g id="edda5b57-61f0-45af-958b-a7ef733dacaa" data-name="Stroke"><line class="bb1e7422-12e8-446d-b84a-692421b51d7d" x1="700.5" y1="60" x2="700.5" y2="140"/></g><path class="bad27030-8059-47b8-8285-0a3249c3edae" d="M154.17,41.5h-78A19.5,19.5,0,0,0,56.67,61v78a19.5,19.5,0,0,0,19.5,19.5h78a19.5,19.5,0,0,0,19.5-19.5V61A19.5,19.5,0,0,0,154.17,41.5Zm2,59.26a3.24,3.24,0,0,1-4.59,0,3.21,3.21,0,0,1-.95-2.09l-8.82-8.82V69.92a1.63,1.63,0,0,0-1.63-1.63h-3.25a1.63,1.63,0,0,0-1.62,1.63V83.6l-4.88-5.13-15-15a1.62,1.62,0,0,0-2.3,0L78.59,97.89a1.64,1.64,0,0,0,0,2.3l2.3,2.3a1.64,1.64,0,0,0,2.3,0l26.43-26.43a6.49,6.49,0,0,1,9.19,0l26.43,26.43a6.51,6.51,0,0,1,0,9.19l-2.3,2.3a6.49,6.49,0,0,1-9.19,0L115.36,95.59a1.64,1.64,0,0,0-2.3,0L94.68,114a1.62,1.62,0,0,0,0,2.3l2.3,2.29a1.61,1.61,0,0,0,2.29,0l10.35-10.34a6.49,6.49,0,0,1,9.19,0l10.34,10.34a6.51,6.51,0,0,1,0,9.2L118,138.89a3.21,3.21,0,0,1-1,2.09,3.25,3.25,0,1,1-2.5-5.54l11.12-11.12a1.62,1.62,0,0,0,0-2.3l-10.34-10.34a1.62,1.62,0,0,0-2.3,0L102.72,122a6.49,6.49,0,0,1-9.19,0l-2.3-2.3a6.49,6.49,0,0,1,0-9.19l18.39-18.38a6.49,6.49,0,0,1,9.19,0l18.38,18.38a1.64,1.64,0,0,0,2.3,0l2.3-2.3a1.64,1.64,0,0,0,0-2.3L115.36,79.51a1.62,1.62,0,0,0-2.3,0L86.63,105.93a6.49,6.49,0,0,1-9.19,0l-2.3-2.29a6.52,6.52,0,0,1,0-9.2L109.62,60a6.49,6.49,0,0,1,9.19,0l11.6,11.61V69.92a6.5,6.5,0,0,1,6.5-6.5h3.25a6.5,6.5,0,0,1,6.5,6.5V87.83l7.4,7.39a3.25,3.25,0,0,1,2.09,5.54Z"/><path class="bad27030-8059-47b8-8285-0a3249c3edae" d="M612.42,61H624.1v3.65h-3.71v11H616.1v-11h-3.68Zm13.09,0h4.72l3.34,7.78L637,61h4.72V75.62h-3.85V67.39l-2.77,6.81h-2.92l-2.77-6.81v8.23h-3.85Z"/><path class="bad27030-8059-47b8-8285-0a3249c3edae" d="M271.65,61v78H254.31V107h-34v32H202.92V61h17.35V91.75h34V61Zm10.65,39c0-22.41,16.77-39,39.65-39s39.64,16.48,39.64,39S344.72,139,322,139,282.3,122.41,282.3,100Zm62.09.39c0-14.19-9.63-23.9-22.44-23.9s-22.45,9.71-22.45,23.9,9.64,23.89,22.45,23.89S344.39,114.57,344.39,100.39ZM368.8,100c0-22.41,16.77-39,39.65-39s39.64,16.48,39.64,39-16.87,39-39.64,39S368.8,122.41,368.8,100Zm62.09.39c0-14.19-9.63-23.9-22.44-23.9S386,86.2,386,100.39s9.64,23.89,22.45,23.89S430.89,114.57,430.89,100.39Zm96.58,17.33c0,13.48-10.28,21.28-30,21.28H458.74V61h36.61c18.74,0,28.38,8.13,28.38,20.28a18.86,18.86,0,0,1-10,17.16C522.12,101.23,527.47,107.91,527.47,117.72ZM476.71,76.06V93.67h16.5c8.1,0,12.5-3,12.5-8.86s-4.4-8.75-12.5-8.75Zm32.59,39.47c0-6.29-4.61-9.28-13.22-9.28H476.71v18.46h19.37C504.69,124.71,509.3,121.93,509.3,115.53Zm23.38,14.74,5.69-13.14A41.52,41.52,0,0,0,562.28,125c9.94,0,14-3.44,14-8.08,0-14.11-42.13-4.41-42.13-32.42,0-12.82,9.94-23.49,30.53-23.49,9.11,0,18.43,2.26,25.16,6.68l-5.18,13.25A39.67,39.67,0,0,0,564.56,75c-9.94,0-13.77,3.87-13.77,8.61,0,13.9,42.13,4.31,42.13,32,0,12.61-10,23.38-30.74,23.38C550.69,139,539.1,135.44,532.68,130.27Z"/><path class="e71585a9-0db9-4fab-867e-95e9c7598c7a" d="M828.12,47.12a4.11,4.11,0,0,1,1.75-.4,2.8,2.8,0,0,1,1.47.13,5.76,5.76,0,0,1,2.94,1.78L844.5,58.85a9.86,9.86,0,0,1,1,1.1c-3.84,3.92-7.75,7.77-11.62,11.65-1.31,1.31-2.5,2.54-3.8,3.77-1.7,1.61-3.31,3.3-5,4.95L802.63,103c-3.52,3.57-7.08,7.09-10.6,10.62-3.82,3.81-7.6,7.63-11.42,11.43V95.45c0-.32.22-.57.21-.89l.63-1.13a20.25,20.25,0,0,1,1.84-2l42.78-42.82A5,5,0,0,1,828.12,47.12Z"/><path class="b33af4f6-29db-4dcc-a5bd-63df6f88a37e" d="M834,71.6c3.92-3.92,7.78-7.74,11.61-11.65q15.71,15.69,31.41,31.48a8.07,8.07,0,0,1,2.46,3.23,7.85,7.85,0,0,1,.27,2.81v46.09a5.47,5.47,0,0,1-5.33,5.63H857.72V102.94q-10.2-10.18-20.4-20.4c-2.37-2.39-4.78-4.75-7.13-7.17C831.42,74.14,832.73,72.86,834,71.6Z"/><path class="b3605f16-dfd6-454c-8325-3b476ace875c" d="M792,113.59c3.52-3.53,7.08-7,10.59-10.62v46.22H785.4a5.7,5.7,0,0,1-4.82-4.74V125C784.4,121.22,788.24,117.4,792,113.59Z"/><path class="ab7c9b94-3805-454e-be8a-8505fca79265" d="M802.63,127.14h55.09v22H802.63Z"/><path class="bfbd6085-9099-4d3e-9218-34a8fec53d21" d="M985.82,105.76q0,15.7-9.32,25Q966,141.88,949,141.87a37.58,37.58,0,0,1-27.63-11.3Q910,119.26,910,102.72t11.31-27.84A37.59,37.59,0,0,1,949,63.57a41.65,41.65,0,0,1,15.6,2.93,31.31,31.31,0,0,1,12,8.27l-6.91,6.91a23.24,23.24,0,0,0-9-6.54A29.57,29.57,0,0,0,949,72.79a28.19,28.19,0,0,0-20.72,8.47q-8.38,8.59-8.38,21.46t8.38,21.46A28.16,28.16,0,0,0,949,132.66q11.21,0,18.64-6.28t8.58-17.27H949v-9H985.3A32,32,0,0,1,985.82,105.76Z"/><path class="bfbd6085-9099-4d3e-9218-34a8fec53d21" d="M991.16,114.55q0-11.82,7.43-19.57a25.32,25.32,0,0,1,18.95-7.75q11.42,0,18.84,7.75t7.54,19.57q0,11.94-7.54,19.58t-18.84,7.74a25.35,25.35,0,0,1-18.95-7.74Q991.17,126.38,991.16,114.55Zm9.63,0q0,8.28,4.82,13.4a16.44,16.44,0,0,0,23.86,0q4.82-5.13,4.82-13.4t-4.82-13.29a16.2,16.2,0,0,0-23.86,0Q1000.8,106.39,1000.79,114.55Z"/><path class="bfbd6085-9099-4d3e-9218-34a8fec53d21" d="M1048.53,114.55q0-11.82,7.43-19.57a25.3,25.3,0,0,1,18.94-7.75q11.41,0,18.85,7.75t7.53,19.57q0,11.94-7.53,19.58t-18.85,7.74a25.33,25.33,0,0,1-18.94-7.74Q1048.52,126.38,1048.53,114.55Zm9.63,0q0,8.28,4.81,13.4a16.45,16.45,0,0,0,23.87,0q4.82-5.13,4.81-13.4t-4.81-13.29a16.21,16.21,0,0,0-23.87,0Q1058.16,106.39,1058.16,114.55Z"/><path class="bfbd6085-9099-4d3e-9218-34a8fec53d21" d="M1131.54,164.49a28.7,28.7,0,0,1-8.06-1.1,26.42,26.42,0,0,1-6.86-3.09,22.41,22.41,0,0,1-5.29-4.71,20.12,20.12,0,0,1-3.35-6.07l9.11-3.77a14.42,14.42,0,0,0,5.44,7.22,15.33,15.33,0,0,0,9,2.72q7.85,0,12.24-4.71t4.4-13v-4.92h-.42a18.9,18.9,0,0,1-7.38,6.44,22,22,0,0,1-10.1,2.35A22.64,22.64,0,0,1,1113,134a28.36,28.36,0,0,1-7.12-19.47A28,28,0,0,1,1113,95.19q7.21-8,17.27-8a22,22,0,0,1,10.1,2.36,18.87,18.87,0,0,1,7.38,6.43h.42V88.91h9.21V138q0,12.36-7,19.37T1131.54,164.49Zm.31-31.41a14.74,14.74,0,0,0,11.62-5.13q4.71-5.13,4.71-13.4a19.12,19.12,0,0,0-4.71-13.29A14.81,14.81,0,0,0,1131.85,96a15,15,0,0,0-11.62,5.24,19.12,19.12,0,0,0-4.71,13.29q0,8.17,4.71,13.3A15,15,0,0,0,1131.85,133.08Z"/><path class="bfbd6085-9099-4d3e-9218-34a8fec53d21" d="M1177.49,65.25V140.2h-9.63V65.25Z"/><path class="bfbd6085-9099-4d3e-9218-34a8fec53d21" d="M1210.46,141.87a24.56,24.56,0,0,1-18.63-7.74q-7.32-7.75-7.33-19.58T1191.62,95a23.57,23.57,0,0,1,18.22-7.8q11.4,0,18.16,7.38t6.75,20.68l-.1,1h-40.31a16.73,16.73,0,0,0,5,12.15,16.07,16.07,0,0,0,11.51,4.6q9.21,0,14.45-9.21l8.58,4.19a25.53,25.53,0,0,1-9.58,10.15A26.49,26.49,0,0,1,1210.46,141.87Zm-15.38-33.49h29.41a12.77,12.77,0,0,0-4.34-8.85Q1216.22,96,1209.63,96a14,14,0,0,0-9.37,3.35A16,16,0,0,0,1195.08,108.38Z"/><path class="bfbd6085-9099-4d3e-9218-34a8fec53d21" d="M1276.62,140.2H1267V65.25h9.63V97.39h37.48V65.25h9.63V140.2h-9.63V106.39h-37.48Z"/><path class="bfbd6085-9099-4d3e-9218-34a8fec53d21" d="M1334.19,114.55q0-11.82,7.44-19.57a25.3,25.3,0,0,1,18.94-7.75q11.42,0,18.85,7.75t7.53,19.57q0,11.94-7.53,19.58t-18.85,7.74a25.33,25.33,0,0,1-18.94-7.74Q1334.19,126.38,1334.19,114.55Zm9.64,0q0,8.28,4.81,13.4a16.45,16.45,0,0,0,23.87,0q4.82-5.13,4.81-13.4t-4.81-13.29a16.21,16.21,0,0,0-23.87,0Q1343.83,106.39,1343.83,114.55Z"/><path class="bfbd6085-9099-4d3e-9218-34a8fec53d21" d="M1404.33,140.2h-9.63V88.91h9.21V96h.42a17.24,17.24,0,0,1,6.75-6.28,18.86,18.86,0,0,1,19,.11,15.38,15.38,0,0,1,6.28,7.22q6.39-9.84,17.69-9.84,8.9,0,13.72,5.44t4.81,15.5v32H1463V109.63q0-7.22-2.62-10.41t-8.79-3.2a11.47,11.47,0,0,0-9.31,4.72,17.18,17.18,0,0,0-3.77,11.09V140.2h-9.63V109.63q0-7.22-2.62-10.41t-8.79-3.2a11.49,11.49,0,0,0-9.32,4.72,17.24,17.24,0,0,0-3.77,11.09Z"/><path class="bfbd6085-9099-4d3e-9218-34a8fec53d21" d="M1506.92,141.87a24.56,24.56,0,0,1-18.64-7.74q-7.32-7.75-7.32-19.58T1488.07,95a23.57,23.57,0,0,1,18.22-7.8q11.4,0,18.16,7.38t6.75,20.68l-.1,1h-40.3a16.72,16.72,0,0,0,5,12.15,16.08,16.08,0,0,0,11.52,4.6q9.21,0,14.44-9.21l8.59,4.19a25.67,25.67,0,0,1-9.58,10.15A26.54,26.54,0,0,1,1506.92,141.87Zm-15.39-33.49h29.41a12.77,12.77,0,0,0-4.34-8.85Q1512.67,96,1506.08,96a14,14,0,0,0-9.37,3.35A16,16,0,0,0,1491.53,108.38Z"/></svg>