<svg id="e956aedf-e076-45a3-bb4d-1f1d9753cf39" data-name="Ebene 1" xmlns="http://www.w3.org/2000/svg" viewBox="0 0 1680 200"><defs><style>.a409e1b9-6096-4b46-aa54-d39393165f42{fill:none;stroke:#ccc;stroke-miterlimit:10;}.a9c6966d-9f37-4981-881c-bacea55bfc4a{fill:#f9b213;}.af115085-20d2-4810-901a-3ff106fcf549{fill:#e94335;}.e183ad91-3493-4a13-9163-15f019bf2636{fill:#34a753;}.b953abff-7c61-476c-876b-75da28fec34a{fill:#4284f3;}.e3d74724-11ff-49e4-aa05-a02f2ab48962{fill:#fabb04;}.e75afede-5bc3-4f4e-9b94-3e9d4a903d56{fill:#80868a;}.e35b3a89-8dd9-4e37-aabd-ad63fa984d81{fill:#ccc;}</style></defs><title>HOOBS_x_nestcam</title><g id="acb3d619-abb8-4be0-9d61-8f1eb10ff798" data-name="Stroke"><line class="a409e1b9-6096-4b46-aa54-d39393165f42" x1="700.5" y1="60" x2="700.5" y2="140"/></g><path class="a9c6966d-9f37-4981-881c-bacea55bfc4a" d="M154.17,41.5h-78A19.5,19.5,0,0,0,56.67,61v78a19.5,19.5,0,0,0,19.5,19.5h78a19.5,19.5,0,0,0,19.5-19.5V61A19.5,19.5,0,0,0,154.17,41.5Zm2,59.26a3.24,3.24,0,0,1-4.59,0,3.21,3.21,0,0,1-.95-2.09l-8.82-8.82V69.92a1.63,1.63,0,0,0-1.63-1.63h-3.25a1.63,1.63,0,0,0-1.62,1.63V83.6l-4.88-5.13-15-15a1.62,1.62,0,0,0-2.3,0L78.59,97.89a1.64,1.64,0,0,0,0,2.3l2.3,2.3a1.64,1.64,0,0,0,2.3,0l26.43-26.43a6.49,6.49,0,0,1,9.19,0l26.43,26.43a6.51,6.51,0,0,1,0,9.19l-2.3,2.3a6.49,6.49,0,0,1-9.19,0L115.36,95.59a1.64,1.64,0,0,0-2.3,0L94.68,114a1.62,1.62,0,0,0,0,2.3l2.3,2.29a1.61,1.61,0,0,0,2.29,0l10.35-10.34a6.49,6.49,0,0,1,9.19,0l10.34,10.34a6.51,6.51,0,0,1,0,9.2L118,138.89a3.21,3.21,0,0,1-1,2.09,3.25,3.25,0,1,1-2.5-5.54l11.12-11.12a1.62,1.62,0,0,0,0-2.3l-10.34-10.34a1.62,1.62,0,0,0-2.3,0L102.72,122a6.49,6.49,0,0,1-9.19,0l-2.3-2.3a6.49,6.49,0,0,1,0-9.19l18.39-18.38a6.49,6.49,0,0,1,9.19,0l18.38,18.38a1.64,1.64,0,0,0,2.3,0l2.3-2.3a1.64,1.64,0,0,0,0-2.3L115.36,79.51a1.62,1.62,0,0,0-2.3,0L86.63,105.93a6.49,6.49,0,0,1-9.19,0l-2.3-2.29a6.52,6.52,0,0,1,0-9.2L109.62,60a6.49,6.49,0,0,1,9.19,0l11.6,11.61V69.92a6.5,6.5,0,0,1,6.5-6.5h3.25a6.5,6.5,0,0,1,6.5,6.5V87.83l7.4,7.39a3.25,3.25,0,0,1,2.09,5.54Z"/><path class="a9c6966d-9f37-4981-881c-bacea55bfc4a" d="M612.42,61H624.1v3.65h-3.71v11H616.1v-11h-3.68Zm13.09,0h4.72l3.34,7.78L637,61h4.72V75.62h-3.85V67.39l-2.77,6.81h-2.92l-2.77-6.81v8.23h-3.85Z"/><path class="a9c6966d-9f37-4981-881c-bacea55bfc4a" d="M271.65,61v78H254.31V107h-34v32H202.92V61h17.35V91.75h34V61Zm10.65,39c0-22.41,16.77-39,39.65-39s39.64,16.48,39.64,39S344.72,139,322,139,282.3,122.41,282.3,100Zm62.09.39c0-14.19-9.63-23.9-22.44-23.9s-22.45,9.71-22.45,23.9,9.64,23.89,22.45,23.89S344.39,114.57,344.39,100.39ZM368.8,100c0-22.41,16.77-39,39.65-39s39.64,16.48,39.64,39-16.87,39-39.64,39S368.8,122.41,368.8,100Zm62.09.39c0-14.19-9.63-23.9-22.44-23.9S386,86.2,386,100.39s9.64,23.89,22.45,23.89S430.89,114.57,430.89,100.39Zm96.58,17.33c0,13.48-10.28,21.28-30,21.28H458.74V61h36.61c18.74,0,28.38,8.13,28.38,20.28a18.86,18.86,0,0,1-10,17.16C522.12,101.23,527.47,107.91,527.47,117.72ZM476.71,76.06V93.67h16.5c8.1,0,12.5-3,12.5-8.86s-4.4-8.75-12.5-8.75Zm32.59,39.47c0-6.29-4.61-9.28-13.22-9.28H476.71v18.46h19.37C504.69,124.71,509.3,121.93,509.3,115.53Zm23.38,14.74,5.69-13.14A41.52,41.52,0,0,0,562.28,125c9.94,0,14-3.44,14-8.08,0-14.11-42.13-4.41-42.13-32.42,0-12.82,9.94-23.49,30.53-23.49,9.11,0,18.43,2.26,25.16,6.68l-5.18,13.25A39.67,39.67,0,0,0,564.56,75c-9.94,0-13.77,3.87-13.77,8.61,0,13.9,42.13,4.31,42.13,32,0,12.61-10,23.38-30.74,23.38C550.69,139,539.1,135.44,532.68,130.27Z"/><g id="be5dd89d-1111-44b4-8da1-867963b4105b" data-name="nest"><path class="af115085-20d2-4810-901a-3ff106fcf549" d="M786,72.58C794,57,806.34,46.52,823.2,42c20.39-5.52,39-1.7,55.34,12.08,1.23,1,1.09,1.52,0,2.54-5,4.89-9.92,9.84-14.86,14.8-.71.71-1.16,1.2-2.21.26C847,58.63,821.93,61,809.71,80.37A48.47,48.47,0,0,0,806,88c-.87.32-1.38-.33-1.94-.75Q795.48,80.76,787,74.09C786.52,73.75,785.83,73.43,786,72.58Z"/><path class="e183ad91-3493-4a13-9163-15f019bf2636" d="M879.36,144.75c-6.31,6.2-13.94,10.06-22.38,12.41-28.11,7.82-56.78-4.25-70.52-29.65-.18-.35-.34-.72-.51-1.08,1-1.87,2.89-2.7,4.43-3.91q6.81-5.38,13.71-10.67c.58-.45,1.11-1,1.94-.82,2.78,7.41,7.09,13.74,13.74,18.14,12.7,8.38,25.8,8.4,39.07,1.28l1.22-.66a3.06,3.06,0,0,1,1.77.82c5.38,4.18,10.77,8.34,16.13,12.55C878.51,143.59,879.25,143.91,879.36,144.75Z"/><path class="b953abff-7c61-476c-876b-75da28fec34a" d="M879.36,144.75l-19.3-15a28.58,28.58,0,0,0,11.2-15.55c.67-2.35.65-2.35-1.76-2.35h-28c-1.47,0-2.09-.25-2.06-1.93.1-6.51.08-13,0-19.55,0-1.4.42-1.79,1.81-1.79q26.61.09,53.21,0c1.16,0,1.85.21,2,1.51,2.2,16.49-.09,32.06-9.59,46.12A37.78,37.78,0,0,1,879.36,144.75Z"/><path class="e3d74724-11ff-49e4-aa05-a02f2ab48962" d="M806,111,786,126.43c-8.62-18-8.7-35.92,0-53.86q9.81,8,20,15.48A36.88,36.88,0,0,0,806,111Z"/><path class="e75afede-5bc3-4f4e-9b94-3e9d4a903d56" d="M964.12,84.8c-.62-1.5-.17-3.08-.35-4.61,0-.3.08-.31.77.19C963.73,81.79,964.46,83.34,964.12,84.8Z"/></g><path class="e35b3a89-8dd9-4e37-aabd-ad63fa984d81" d="M948.47,127.79h-8V65.35h9.77l30.35,48.57h.35l-.35-12V65.35h8v62.44h-8.37L948.47,76.86h-.35l.35,12Z"/><path class="e35b3a89-8dd9-4e37-aabd-ad63fa984d81" d="M1017.9,129.19a20.43,20.43,0,0,1-15.53-6.46q-6.11-6.45-6.1-16.31t5.93-16.26a19.62,19.62,0,0,1,15.17-6.5q9.51,0,15.13,6.15t5.63,17.22l-.09.88h-33.58a14,14,0,0,0,4.19,10.11,13.38,13.38,0,0,0,9.6,3.84q7.66,0,12-7.67l7.15,3.48a21.27,21.27,0,0,1-8,8.46A22,22,0,0,1,1017.9,129.19Zm-12.82-27.91h24.5a10.63,10.63,0,0,0-3.62-7.37A12.65,12.65,0,0,0,1017.2,91a11.63,11.63,0,0,0-7.81,2.79A13.28,13.28,0,0,0,1005.08,101.28Z"/><path class="e35b3a89-8dd9-4e37-aabd-ad63fa984d81" d="M1077.55,115.93a11.6,11.6,0,0,1-4.88,9.42,19.31,19.31,0,0,1-12.3,3.84,19.53,19.53,0,0,1-11.34-3.36,18.54,18.54,0,0,1-7-8.85l7.16-3.06a13.29,13.29,0,0,0,4.57,6,11.18,11.18,0,0,0,6.59,2.14,11.66,11.66,0,0,0,6.41-1.66c1.71-1.11,2.57-2.41,2.57-3.93q0-4.1-6.28-6l-7.32-1.84q-12.48-3.13-12.48-12a11.13,11.13,0,0,1,4.76-9.38q4.76-3.52,12.16-3.53a19.79,19.79,0,0,1,10.25,2.7,14.75,14.75,0,0,1,6.41,7.24l-7.15,3a9,9,0,0,0-4-4.23,12.41,12.41,0,0,0-6.15-1.53,10.36,10.36,0,0,0-5.62,1.57,4.53,4.53,0,0,0-2.49,3.84q0,3.66,6.89,5.23l6.46,1.66Q1077.54,106.25,1077.55,115.93Z"/><path class="e35b3a89-8dd9-4e37-aabd-ad63fa984d81" d="M1100,128.49a12.17,12.17,0,0,1-8.67-3.23q-3.45-3.23-3.54-9V92.38h-7.5V85.06h7.5V72h8V85.06h10.46v7.32h-10.46v21.28c0,2.85.55,4.79,1.65,5.8a5.41,5.41,0,0,0,3.76,1.53,7.84,7.84,0,0,0,1.87-.22,8.7,8.7,0,0,0,1.7-.57l2.53,7.16A21.71,21.71,0,0,1,1100,128.49Z"/><path class="e35b3a89-8dd9-4e37-aabd-ad63fa984d81" d="M1143.66,129.19q-13.87,0-23.2-9.33t-9.25-23.29q0-13.95,9.25-23.2,9.24-9.42,23.2-9.42,14.13,0,22.94,10.2l-5.76,5.59a21.33,21.33,0,0,0-17.18-8.12,23.57,23.57,0,0,0-17.36,7q-6.88,6.9-6.89,18t6.89,18a23.57,23.57,0,0,0,17.36,7q10.9,0,18.92-9.16l5.85,5.67a30.36,30.36,0,0,1-10.9,8.25A33.39,33.39,0,0,1,1143.66,129.19Z"/><path class="e35b3a89-8dd9-4e37-aabd-ad63fa984d81" d="M1189.88,83.66q8.89,0,14,4.75t5.15,13v26.34h-7.68v-5.93H1201q-5,7.33-13.25,7.33A17.25,17.25,0,0,1,1176,125a13.36,13.36,0,0,1-4.75-10.46,12.73,12.73,0,0,1,5-10.56q5-3.92,13.39-3.92,7.16,0,11.77,2.61v-1.83a9.13,9.13,0,0,0-3.31-7.11,11.41,11.41,0,0,0-7.76-2.92,12.28,12.28,0,0,0-10.64,5.67L1172.61,92Q1178.46,83.66,1189.88,83.66Zm-10.38,31.05a6.41,6.41,0,0,0,2.66,5.23,9.78,9.78,0,0,0,6.24,2.1,12.81,12.81,0,0,0,9-3.75,11.76,11.76,0,0,0,4-8.81q-3.75-3-10.46-3a13.6,13.6,0,0,0-8.16,2.36A7,7,0,0,0,1179.5,114.71Z"/><path class="e35b3a89-8dd9-4e37-aabd-ad63fa984d81" d="M1225.12,127.79h-8V85.06h7.68V91h.35a14.24,14.24,0,0,1,5.62-5.24,15.72,15.72,0,0,1,15.83.09,12.78,12.78,0,0,1,5.23,6q5.33-8.2,14.74-8.2,7.41,0,11.43,4.54t4,12.9v26.69h-8V102.32q0-6-2.18-8.67c-1.46-1.78-3.9-2.66-7.33-2.66a9.56,9.56,0,0,0-7.76,3.92,14.39,14.39,0,0,0-3.14,9.25v23.63h-8V102.32c0-4-.72-6.9-2.18-8.67S1239.45,91,1236,91a9.56,9.56,0,0,0-7.76,3.92,14.33,14.33,0,0,0-3.14,9.25Z"/></svg>