<svg id="eec24775-56f8-4984-9d69-4dcbdb2e000b" data-name="Ebene 1" xmlns="http://www.w3.org/2000/svg" viewBox="0 0 1680 200"><defs><style>.eeececf0-9acd-47a7-9775-de8559476f8d{fill:none;stroke:#ccc;stroke-miterlimit:10;}.e4882942-9609-4d79-ba84-9fc98f4789e2{fill:#f9b213;}.bb517db2-0a57-4602-b4dc-33ccebd88224{fill:#3990cd;}</style></defs><title>HOOBS_x_shelly</title><g id="b5a16727-faaf-4512-8d94-d238ddc20f94" data-name="Stroke"><line class="eeececf0-9acd-47a7-9775-de8559476f8d" x1="700.5" y1="60" x2="700.5" y2="140"/></g><path class="e4882942-9609-4d79-ba84-9fc98f4789e2" d="M154.17,41.5h-78A19.5,19.5,0,0,0,56.67,61v78a19.5,19.5,0,0,0,19.5,19.5h78a19.5,19.5,0,0,0,19.5-19.5V61A19.5,19.5,0,0,0,154.17,41.5Zm2,59.26a3.24,3.24,0,0,1-4.59,0,3.21,3.21,0,0,1-.95-2.09l-8.82-8.82V69.92a1.63,1.63,0,0,0-1.63-1.63h-3.25a1.63,1.63,0,0,0-1.62,1.63V83.6l-4.88-5.13-15-15a1.62,1.62,0,0,0-2.3,0L78.59,97.89a1.64,1.64,0,0,0,0,2.3l2.3,2.3a1.64,1.64,0,0,0,2.3,0l26.43-26.43a6.49,6.49,0,0,1,9.19,0l26.43,26.43a6.51,6.51,0,0,1,0,9.19l-2.3,2.3a6.49,6.49,0,0,1-9.19,0L115.36,95.59a1.64,1.64,0,0,0-2.3,0L94.68,114a1.62,1.62,0,0,0,0,2.3l2.3,2.29a1.61,1.61,0,0,0,2.29,0l10.35-10.34a6.49,6.49,0,0,1,9.19,0l10.34,10.34a6.51,6.51,0,0,1,0,9.2L118,138.89a3.21,3.21,0,0,1-1,2.09,3.25,3.25,0,1,1-2.5-5.54l11.12-11.12a1.62,1.62,0,0,0,0-2.3l-10.34-10.34a1.62,1.62,0,0,0-2.3,0L102.72,122a6.49,6.49,0,0,1-9.19,0l-2.3-2.3a6.49,6.49,0,0,1,0-9.19l18.39-18.38a6.49,6.49,0,0,1,9.19,0l18.38,18.38a1.64,1.64,0,0,0,2.3,0l2.3-2.3a1.64,1.64,0,0,0,0-2.3L115.36,79.51a1.62,1.62,0,0,0-2.3,0L86.63,105.93a6.49,6.49,0,0,1-9.19,0l-2.3-2.29a6.52,6.52,0,0,1,0-9.2L109.62,60a6.49,6.49,0,0,1,9.19,0l11.6,11.61V69.92a6.5,6.5,0,0,1,6.5-6.5h3.25a6.5,6.5,0,0,1,6.5,6.5V87.83l7.4,7.39a3.25,3.25,0,0,1,2.09,5.54Z"/><path class="e4882942-9609-4d79-ba84-9fc98f4789e2" d="M612.42,61H624.1v3.65h-3.71v11H616.1v-11h-3.68Zm13.09,0h4.72l3.34,7.78L637,61h4.72V75.62h-3.85V67.39l-2.77,6.81h-2.92l-2.77-6.81v8.23h-3.85Z"/><path class="e4882942-9609-4d79-ba84-9fc98f4789e2" d="M271.65,61v78H254.31V107h-34v32H202.92V61h17.35V91.75h34V61Zm10.65,39c0-22.41,16.77-39,39.65-39s39.64,16.48,39.64,39S344.72,139,322,139,282.3,122.41,282.3,100Zm62.09.39c0-14.19-9.63-23.9-22.44-23.9s-22.45,9.71-22.45,23.9,9.64,23.89,22.45,23.89S344.39,114.57,344.39,100.39ZM368.8,100c0-22.41,16.77-39,39.65-39s39.64,16.48,39.64,39-16.87,39-39.64,39S368.8,122.41,368.8,100Zm62.09.39c0-14.19-9.63-23.9-22.44-23.9S386,86.2,386,100.39s9.64,23.89,22.45,23.89S430.89,114.57,430.89,100.39Zm96.58,17.33c0,13.48-10.28,21.28-30,21.28H458.74V61h36.61c18.74,0,28.38,8.13,28.38,20.28a18.86,18.86,0,0,1-10,17.16C522.12,101.23,527.47,107.91,527.47,117.72ZM476.71,76.06V93.67h16.5c8.1,0,12.5-3,12.5-8.86s-4.4-8.75-12.5-8.75Zm32.59,39.47c0-6.29-4.61-9.28-13.22-9.28H476.71v18.46h19.37C504.69,124.71,509.3,121.93,509.3,115.53Zm23.38,14.74,5.69-13.14A41.52,41.52,0,0,0,562.28,125c9.94,0,14-3.44,14-8.08,0-14.11-42.13-4.41-42.13-32.42,0-12.82,9.94-23.49,30.53-23.49,9.11,0,18.43,2.26,25.16,6.68l-5.18,13.25A39.67,39.67,0,0,0,564.56,75c-9.94,0-13.77,3.87-13.77,8.61,0,13.9,42.13,4.31,42.13,32,0,12.61-10,23.38-30.74,23.38C550.69,139,539.1,135.44,532.68,130.27Z"/><g id="accdd642-717b-4917-a1e6-1508bbe806dc" data-name="shelly"><path class="bb517db2-0a57-4602-b4dc-33ccebd88224" d="M905.39,66.45a4.31,4.31,0,0,0,3.6-1.6c8-6.4,6.8-16.4-2.4-21.2a31.64,31.64,0,0,0-5.6-2c-9.19-2.4-18.79-1.6-28.39-1.2a54.7,54.7,0,0,0-16,3.2c-10,4-14.8,11.6-13.6,22.4a80.8,80.8,0,0,0,4,14c2,5.2,4,10,5.2,15.2,1.6,7.6.8,14.8-5.6,20-9.6,7.6-30,7.6-39.6-.4-6-4.8-5.2-12.4.8-16.4a18.93,18.93,0,0,1,6-2.4c4-1.2,8.4-.8,12.4-.8,5.6,0,10.8-1.6,14.4-6.8,1.2-1.6,1.6-3.2-1.6-3.2-11.6,0-23.2-.4-34.8.4-11.2.4-22,2.8-27.2,14.8v9.2c3.2,8.4,10,13.2,18.4,16,13.6,4.8,28,5.6,42.4,4.4a60.6,60.6,0,0,0,27.6-8.8c9.6-6,14-14,13.2-25.2-.4-6.4-2.8-12-4.8-18-2-5.6-4.4-11.2-6-17.2-1.2-6,1.2-9.2,7.2-10,4.4-.8,9.2,0,13.6-.4,2.4,0,2,.8,1.2,2.4-1.6,3.2-3.2,6.8-5.2,10-1.2,2-.8,2.8,1.6,2.8A159.81,159.81,0,0,0,905.39,66.45Z"/><path class="bb517db2-0a57-4602-b4dc-33ccebd88224" d="M1186.17,117.65q.51-1.83,1.2-3.6c3.2-8.8,6.4-18,9.6-26.8.8-2,.4-2.8-2-2.8h-17.6c-2,0-2.8.8-3.6,2.4-2.8,8.4-6.4,16.8-8.8,25.6-1.2,3.6-2.8,6-6.8,5.2h-8c2.8-8.4,5.6-16.8,8.8-24.8h0a27.52,27.52,0,0,0,2-5.2c1.2-3.6,1.2-3.6-2.8-3.2-5.6,0-10.8,0-16.4-.4-2.39,0-3.19.8-4,2.8-2,6-4.4,11.6-6.4,17.6-1.6,4-2,9.6-4.8,11.6-3.2,2.4-8.4.8-13.2.8-4.4,0-4.4,0-2.8-4,7.2-19.6,14-39.2,21.2-58.8,1.2-4,1.2-4-2.4-4h-15.2c-2.8,0-4,.8-4.8,3.6-7.2,20-14.4,40-21.2,60-.8,2-1.6,3.2-4,2.8-4.8-.4-9.6,0-14,0-2.4,0-2.8-.8-2-2.8.4-.8.4-1.6.8-2.4,6.8-19.2,13.6-38.8,20.8-58,.8-2.8.8-3.6-2.4-3.6a101.55,101.55,0,0,1-15.6,0c-2.8,0-4,.8-4.8,3.6-7.2,20-14.4,40.4-21.6,60.4-.8,2.4-2,3.2-4.8,3.2-5.6-.4-11.6,0-17.2,0h-10a8.23,8.23,0,0,1,3.6-2c5.59-2.4,10.79-4.4,16.39-6.8,4.4-2,6.4-6,6.4-10.8s-2.8-7.6-6.8-9.2c-2-.8-4.4-2-6.4-2a82.27,82.27,0,0,0-28,0c-6.4,1.2-12,4-16,8.8-5.6,5.6-6.8,12.4-4.8,19.6.4,2,.4,2.8-2,2.8H960.59c-2.4,0-2.8-.4-2-2.8,2.4-6.4,4.4-12.8,6.8-19.2,2.4-7.2.4-10-7.2-10a26,26,0,0,0-16,5.6c-4.8,4-9.6,8-14.8,12-.8.4-1.2,1.6-2.4,1.2,5.6-16,11.2-32,17.2-48,.8-2.8.8-3.6-2.4-3.6a106.82,106.82,0,0,1-16,0c-2.4,0-3.6.8-4.4,3.2-7.6,21.6-15.2,42.8-22.8,64.4-2.8,8-2.8,7.6,5.6,8,5.6,0,10.4-.8,14.8-4.8,4-3.6,8.4-6.8,12.4-10.4,3.2-2.4,6-4.8,9.2-7.2a18.54,18.54,0,0,1-1.6,6.8,40.2,40.2,0,0,0-2,6.4c-1.6,6,0,8.8,6.4,8.8h23.2c6,0,12,.4,18-.4,1.6,0,2.8.4,4.4.4h84.79c3.2,0,6.4.4,9.2-.4,4-1.2,8-.4,12-.4,12,.4,24.4,2.4,36.8-1.6.4,0,.8-.4,1.2,0,3.2,2.4,6.8,2,11.19,2.4-3.19,3.2-5.59,6.79-6.39,10.79-2.8,9.6.8,17.6,8.79,20.4a21,21,0,0,0,14.8-.4c6-1.2,10-4.8,13.6-9.6a67.41,67.41,0,0,0,10-19.19c.8-2,1.6-2.4,3.6-2.4h14.8a12.37,12.37,0,0,0,11.6-10C1203.37,117.65,1195,117.65,1186.17,117.65Zm-182,0c-2.8-.8-4.8-2.8-4-6,1.6-4.8,3.2-9.6,4.8-14.8a1.68,1.68,0,0,1,2-1.34,1.41,1.41,0,0,1,.44.14h5.2c6.8,0,6.8,0,4.4,6.4l-4.8,13.2c-1.18,3.6-3.18,4-8,2.4ZM1155.75,138h0c-1.2,3.6-2.8,7.2-4,10.8-.8,1.6-1.2,1.6-2.4.4a7.5,7.5,0,0,1-2-5.6c0-6,4.8-12,10.4-13.59,1.22,2.8-1.58,5.19-2,8Z"/></g></svg>