<svg id="a5848b73-2340-4ee7-b19a-2055f505ed52" data-name="Ebene 1" xmlns="http://www.w3.org/2000/svg" viewBox="0 0 1680 200"><defs><style>.f3a90d88-98aa-4e55-a980-d819220f2104{fill:none;stroke:#ccc;stroke-miterlimit:10;}.f5cc8303-9fa1-438b-a0a6-7eacf457894c{fill:#f9b213;}.f5c503cc-734b-44a3-8b50-10b4b1b9d19b{isolation:isolate;}.bd52b1fa-f7ca-493a-8c3f-b8cb5d4031c6{fill:#ccc;}</style></defs><title>HOOBS_x_dyson_link</title><g id="a4eda57a-96c6-4841-b918-00002905229a" data-name="Stroke"><line class="f3a90d88-98aa-4e55-a980-d819220f2104" x1="700.5" y1="60" x2="700.5" y2="140"/></g><path class="f5cc8303-9fa1-438b-a0a6-7eacf457894c" d="M154.17,41.5h-78A19.5,19.5,0,0,0,56.67,61v78a19.5,19.5,0,0,0,19.5,19.5h78a19.5,19.5,0,0,0,19.5-19.5V61A19.5,19.5,0,0,0,154.17,41.5Zm2,59.26a3.24,3.24,0,0,1-4.59,0,3.21,3.21,0,0,1-.95-2.09l-8.82-8.82V69.92a1.63,1.63,0,0,0-1.63-1.63h-3.25a1.63,1.63,0,0,0-1.62,1.63V83.6l-4.88-5.13-15-15a1.62,1.62,0,0,0-2.3,0L78.59,97.89a1.64,1.64,0,0,0,0,2.3l2.3,2.3a1.64,1.64,0,0,0,2.3,0l26.43-26.43a6.49,6.49,0,0,1,9.19,0l26.43,26.43a6.51,6.51,0,0,1,0,9.19l-2.3,2.3a6.49,6.49,0,0,1-9.19,0L115.36,95.59a1.64,1.64,0,0,0-2.3,0L94.68,114a1.62,1.62,0,0,0,0,2.3l2.3,2.29a1.61,1.61,0,0,0,2.29,0l10.35-10.34a6.49,6.49,0,0,1,9.19,0l10.34,10.34a6.51,6.51,0,0,1,0,9.2L118,138.89a3.21,3.21,0,0,1-1,2.09,3.25,3.25,0,1,1-2.5-5.54l11.12-11.12a1.62,1.62,0,0,0,0-2.3l-10.34-10.34a1.62,1.62,0,0,0-2.3,0L102.72,122a6.49,6.49,0,0,1-9.19,0l-2.3-2.3a6.49,6.49,0,0,1,0-9.19l18.39-18.38a6.49,6.49,0,0,1,9.19,0l18.38,18.38a1.64,1.64,0,0,0,2.3,0l2.3-2.3a1.64,1.64,0,0,0,0-2.3L115.36,79.51a1.62,1.62,0,0,0-2.3,0L86.63,105.93a6.49,6.49,0,0,1-9.19,0l-2.3-2.29a6.52,6.52,0,0,1,0-9.2L109.62,60a6.49,6.49,0,0,1,9.19,0l11.6,11.61V69.92a6.5,6.5,0,0,1,6.5-6.5h3.25a6.5,6.5,0,0,1,6.5,6.5V87.83l7.4,7.39a3.25,3.25,0,0,1,2.09,5.54Z"/><path class="f5cc8303-9fa1-438b-a0a6-7eacf457894c" d="M612.42,61H624.1v3.65h-3.71v11H616.1v-11h-3.68Zm13.09,0h4.72l3.34,7.78L637,61h4.72V75.62h-3.85V67.39l-2.77,6.81h-2.92l-2.77-6.81v8.23h-3.85Z"/><path class="f5cc8303-9fa1-438b-a0a6-7eacf457894c" d="M271.65,61v78H254.31V107h-34v32H202.92V61h17.35V91.75h34V61Zm10.65,39c0-22.41,16.77-39,39.65-39s39.64,16.48,39.64,39S344.72,139,322,139,282.3,122.41,282.3,100Zm62.09.39c0-14.19-9.63-23.9-22.44-23.9s-22.45,9.71-22.45,23.9,9.64,23.89,22.45,23.89S344.39,114.57,344.39,100.39ZM368.8,100c0-22.41,16.77-39,39.65-39s39.64,16.48,39.64,39-16.87,39-39.64,39S368.8,122.41,368.8,100Zm62.09.39c0-14.19-9.63-23.9-22.44-23.9S386,86.2,386,100.39s9.64,23.89,22.45,23.89S430.89,114.57,430.89,100.39Zm96.58,17.33c0,13.48-10.28,21.28-30,21.28H458.74V61h36.61c18.74,0,28.38,8.13,28.38,20.28a18.86,18.86,0,0,1-10,17.16C522.12,101.23,527.47,107.91,527.47,117.72ZM476.71,76.06V93.67h16.5c8.1,0,12.5-3,12.5-8.86s-4.4-8.75-12.5-8.75Zm32.59,39.47c0-6.29-4.61-9.28-13.22-9.28H476.71v18.46h19.37C504.69,124.71,509.3,121.93,509.3,115.53Zm23.38,14.74,5.69-13.14A41.52,41.52,0,0,0,562.28,125c9.94,0,14-3.44,14-8.08,0-14.11-42.13-4.41-42.13-32.42,0-12.82,9.94-23.49,30.53-23.49,9.11,0,18.43,2.26,25.16,6.68l-5.18,13.25A39.67,39.67,0,0,0,564.56,75c-9.94,0-13.77,3.87-13.77,8.61,0,13.9,42.13,4.31,42.13,32,0,12.61-10,23.38-30.74,23.38C550.69,139,539.1,135.44,532.68,130.27Z"/><g class="f5c503cc-734b-44a3-8b50-10b4b1b9d19b"><path class="bd52b1fa-f7ca-493a-8c3f-b8cb5d4031c6" d="M1156.33,123.81H1145v-60h11.33Z"/><path class="bd52b1fa-f7ca-493a-8c3f-b8cb5d4031c6" d="M1165.55,70.61a5.57,5.57,0,0,1,1.7-4.18,7.33,7.33,0,0,1,9.24,0,6,6,0,0,1,0,8.4,7.24,7.24,0,0,1-9.18,0A5.55,5.55,0,0,1,1165.55,70.61Zm12,53.2h-11.33V81.54h11.33Z"/><path class="bd52b1fa-f7ca-493a-8c3f-b8cb5d4031c6" d="M1197.23,81.54l.35,4.89a14.75,14.75,0,0,1,12.15-5.67q6.72,0,10,3.95t3.36,11.8v27.3H1211.8v-27c0-2.4-.52-4.13-1.56-5.22s-2.78-1.62-5.2-1.62a7.77,7.77,0,0,0-7.15,4.07v29.8H1186.6V81.54Z"/><path class="bd52b1fa-f7ca-493a-8c3f-b8cb5d4031c6" d="M1247,106.86l-4.07,4.06v12.89h-11.29v-60h11.29V97.05l2.19-2.81,10.82-12.7h13.56l-15.28,17.62,16.6,24.65h-13Z"/></g><path class="bd52b1fa-f7ca-493a-8c3f-b8cb5d4031c6" d="M824.26,98.77a14.51,14.51,0,1,1-14.51-14.51h14.51Zm16.12-59.66H824.26V68.45H809.75a30.32,30.32,0,1,0,30.31,30.32h0V68.45Z"/><path class="bd52b1fa-f7ca-493a-8c3f-b8cb5d4031c6" d="M1000.64,113.28a14.51,14.51,0,1,0-14.51-14.51c.32,8.06,6.77,14.51,14.51,14.51m-30-14.51A30.31,30.31,0,1,1,1001,129.08h0a30.27,30.27,0,0,1-30.31-30.23v-.08"/><path class="bd52b1fa-f7ca-493a-8c3f-b8cb5d4031c6" d="M1081.9,98.77a14.19,14.19,0,1,0-28.38,0v29h-15.8v-29a30.31,30.31,0,1,1,60.62,0v29h-15.8c-.64,0-.64-25.15-.64-29"/><path class="bd52b1fa-f7ca-493a-8c3f-b8cb5d4031c6" d="M933.57,88.45c-2.26-1.61-1.61-4.19,2.26-5.16,4.83-1.29,13.22-.32,20.31,2.9l7.42-10.32c-3.23-2.58-10.32-6.13-20.64-6.77,0,0-17.41-2.26-24.5,11,0,0-6.13,12.25,6.12,20,7.42,4.51,20.32,6.45,24.51,8.38,3.22,1.94,2.25,5.49-2.58,6.45-8.39,1.94-19.35-2.9-22.9-5.48l-7.73,10.64a46.33,46.33,0,0,0,21.92,9s16.45,2.9,25.48-8.38c1.61-1.94,9-15.8-5.81-23.86-7.74-4.2-20-6.13-23.86-8.39"/><path class="bd52b1fa-f7ca-493a-8c3f-b8cb5d4031c6" d="M859.41,139.4c.64.32,8.06,5.48,15.15,5.48,17.41.32,18.38-17.73,18.38-21.93-3.22,3.55-10,5.81-14.19,5.81-16.76,0-30-12.9-30-29.67V69.74h15.8V99.09a14.19,14.19,0,1,0,28.37.75q0-.37,0-.75V69.74h15.8V99.09c0,26.12,1.29,52.88-24.18,59-19,4.52-32.57-7.42-33.54-8.06Z"/></svg>