<svg id="b2de7bd8-14b4-49e6-a662-f31e1de4abec" data-name="Ebene 1" xmlns="http://www.w3.org/2000/svg" viewBox="0 0 1680 200"><defs><style>.a9ccfc96-abbd-4a78-ac85-066a894b059c{fill:none;stroke:#ccc;stroke-miterlimit:10;}.a2f5156f-bfcc-48e2-8a3a-acf86981e43e{fill:#f9b213;}.b94c4111-e410-45a7-bdf5-baacbe0ad149{fill:#ccc;}.b077c527-d857-4479-b882-19243e3a3c9b{isolation:isolate;}</style></defs><title>HOOBS_x_people</title><g id="a552c09a-64fa-41c0-973c-b5931415cdac" data-name="Stroke"><line class="a9ccfc96-abbd-4a78-ac85-066a894b059c" x1="700.5" y1="60" x2="700.5" y2="140"/></g><path class="a2f5156f-bfcc-48e2-8a3a-acf86981e43e" d="M154.17,41.5h-78A19.5,19.5,0,0,0,56.67,61v78a19.5,19.5,0,0,0,19.5,19.5h78a19.5,19.5,0,0,0,19.5-19.5V61A19.5,19.5,0,0,0,154.17,41.5Zm2,59.26a3.24,3.24,0,0,1-4.59,0,3.21,3.21,0,0,1-.95-2.09l-8.82-8.82V69.92a1.63,1.63,0,0,0-1.63-1.63h-3.25a1.63,1.63,0,0,0-1.62,1.63V83.6l-4.88-5.13-15-15a1.62,1.62,0,0,0-2.3,0L78.59,97.89a1.64,1.64,0,0,0,0,2.3l2.3,2.3a1.64,1.64,0,0,0,2.3,0l26.43-26.43a6.49,6.49,0,0,1,9.19,0l26.43,26.43a6.51,6.51,0,0,1,0,9.19l-2.3,2.3a6.49,6.49,0,0,1-9.19,0L115.36,95.59a1.64,1.64,0,0,0-2.3,0L94.68,114a1.62,1.62,0,0,0,0,2.3l2.3,2.29a1.61,1.61,0,0,0,2.29,0l10.35-10.34a6.49,6.49,0,0,1,9.19,0l10.34,10.34a6.51,6.51,0,0,1,0,9.2L118,138.89a3.21,3.21,0,0,1-1,2.09,3.25,3.25,0,1,1-2.5-5.54l11.12-11.12a1.62,1.62,0,0,0,0-2.3l-10.34-10.34a1.62,1.62,0,0,0-2.3,0L102.72,122a6.49,6.49,0,0,1-9.19,0l-2.3-2.3a6.49,6.49,0,0,1,0-9.19l18.39-18.38a6.49,6.49,0,0,1,9.19,0l18.38,18.38a1.64,1.64,0,0,0,2.3,0l2.3-2.3a1.64,1.64,0,0,0,0-2.3L115.36,79.51a1.62,1.62,0,0,0-2.3,0L86.63,105.93a6.49,6.49,0,0,1-9.19,0l-2.3-2.29a6.52,6.52,0,0,1,0-9.2L109.62,60a6.49,6.49,0,0,1,9.19,0l11.6,11.61V69.92a6.5,6.5,0,0,1,6.5-6.5h3.25a6.5,6.5,0,0,1,6.5,6.5V87.83l7.4,7.39a3.25,3.25,0,0,1,2.09,5.54Z"/><path class="a2f5156f-bfcc-48e2-8a3a-acf86981e43e" d="M612.42,61H624.1v3.65h-3.71v11H616.1v-11h-3.68Zm13.09,0h4.72l3.34,7.78L637,61h4.72V75.62h-3.85V67.39l-2.77,6.81h-2.92l-2.77-6.81v8.23h-3.85Z"/><path class="a2f5156f-bfcc-48e2-8a3a-acf86981e43e" d="M271.65,61v78H254.31V107h-34v32H202.92V61h17.35V91.75h34V61Zm10.65,39c0-22.41,16.77-39,39.65-39s39.64,16.48,39.64,39S344.72,139,322,139,282.3,122.41,282.3,100Zm62.09.39c0-14.19-9.63-23.9-22.44-23.9s-22.45,9.71-22.45,23.9,9.64,23.89,22.45,23.89S344.39,114.57,344.39,100.39ZM368.8,100c0-22.41,16.77-39,39.65-39s39.64,16.48,39.64,39-16.87,39-39.64,39S368.8,122.41,368.8,100Zm62.09.39c0-14.19-9.63-23.9-22.44-23.9S386,86.2,386,100.39s9.64,23.89,22.45,23.89S430.89,114.57,430.89,100.39Zm96.58,17.33c0,13.48-10.28,21.28-30,21.28H458.74V61h36.61c18.74,0,28.38,8.13,28.38,20.28a18.86,18.86,0,0,1-10,17.16C522.12,101.23,527.47,107.91,527.47,117.72ZM476.71,76.06V93.67h16.5c8.1,0,12.5-3,12.5-8.86s-4.4-8.75-12.5-8.75Zm32.59,39.47c0-6.29-4.61-9.28-13.22-9.28H476.71v18.46h19.37C504.69,124.71,509.3,121.93,509.3,115.53Zm23.38,14.74,5.69-13.14A41.52,41.52,0,0,0,562.28,125c9.94,0,14-3.44,14-8.08,0-14.11-42.13-4.41-42.13-32.42,0-12.82,9.94-23.49,30.53-23.49,9.11,0,18.43,2.26,25.16,6.68l-5.18,13.25A39.67,39.67,0,0,0,564.56,75c-9.94,0-13.77,3.87-13.77,8.61,0,13.9,42.13,4.31,42.13,32,0,12.61-10,23.38-30.74,23.38C550.69,139,539.1,135.44,532.68,130.27Z"/><path class="b94c4111-e410-45a7-bdf5-baacbe0ad149" d="M898.06,47.56a1.35,1.35,0,0,0-1.91,0h0L879.87,63.79,874,57.41a1.36,1.36,0,0,0-2.08,1.75l.08.09,6.83,7.42a1.36,1.36,0,0,0,1,.44h0a1.4,1.4,0,0,0,1-.4l17.24-17.23A1.36,1.36,0,0,0,898.06,47.56Z"/><path class="b94c4111-e410-45a7-bdf5-baacbe0ad149" d="M897.74,59.28a1.36,1.36,0,0,0-1.36,1.36,15.29,15.29,0,1,1-15.29-15.29h0a1.36,1.36,0,0,0,.23-2.71h-.23a18,18,0,1,0,18,18,1.35,1.35,0,0,0-1.34-1.36Z"/><path class="b94c4111-e410-45a7-bdf5-baacbe0ad149" d="M924.31,91.12A1.36,1.36,0,0,0,923,92.48a15.29,15.29,0,1,1-15.32-15.3,1.36,1.36,0,0,0,0-2.71,18,18,0,1,0,18,18h0A1.36,1.36,0,0,0,924.31,91.12Z"/><path class="b94c4111-e410-45a7-bdf5-baacbe0ad149" d="M868.71,79.4a1.36,1.36,0,0,0-1.92,0L850.52,95.63l-5.88-6.38A1.36,1.36,0,0,0,842.56,91l.08.09,6.83,7.42a1.36,1.36,0,0,0,1,.44h0a1.4,1.4,0,0,0,1-.4l17.24-17.23A1.36,1.36,0,0,0,868.71,79.4Z"/><path class="b94c4111-e410-45a7-bdf5-baacbe0ad149" d="M868.39,91.12A1.36,1.36,0,0,0,867,92.48a15.29,15.29,0,1,1-15.29-15.3,1.36,1.36,0,0,0,.23-2.71.89.89,0,0,0-.23,0,18,18,0,1,0,18,18h0A1.35,1.35,0,0,0,868.39,91.12Z"/><path class="b94c4111-e410-45a7-bdf5-baacbe0ad149" d="M895.64,136.28l-7.22-3.22a1.41,1.41,0,0,1-.84-1.29v-2a10.58,10.58,0,0,0,4-8.26v-2.79a2.57,2.57,0,0,0,1.33-2.25v-.29a10.56,10.56,0,0,0-10.6-10.51h-2.65a10.56,10.56,0,0,0-10.52,10.51v2.46a2.63,2.63,0,0,0,1,2.09l.34.22v.54a10.55,10.55,0,0,0,4,8.26v2a1.41,1.41,0,0,1-.84,1.29l-7.22,3.22a6.56,6.56,0,0,0-3.9,6v16.49a1.25,1.25,0,0,0,2.49,0V141.84l3.3,3.34a2.72,2.72,0,0,1,.81,1.94v11.65a1.24,1.24,0,0,0,2.48,0V147.11a5.23,5.23,0,0,0-1.53-3.7l-4-4a4,4,0,0,1,1.28-.89l7.1-3.16,5.27,5.27v18.1a1.25,1.25,0,0,0,2.49,0v-18.1l5.27-5.27,7.1,3.16a4,4,0,0,1,1.28.89l-4,4a5.19,5.19,0,0,0-1.53,3.7v11.65a1.24,1.24,0,0,0,2.48,0V147.11a2.72,2.72,0,0,1,.81-1.94l3.33-3.33v16.92a1.25,1.25,0,0,0,2.49,0V142.27A6.57,6.57,0,0,0,895.64,136.28ZM881,138.39l-4.62-4.63a3.94,3.94,0,0,0,.55-2v-.51a10.57,10.57,0,0,0,8.15,0v.51a3.94,3.94,0,0,0,.55,2Zm0-8.79a8.08,8.08,0,0,1-8.06-8.07V121a7.53,7.53,0,0,0,2.26-1.47,1.25,1.25,0,0,0,.08-1.75h0a1.26,1.26,0,0,0-1.76-.07,4.38,4.38,0,0,1-1.84,1.1h0v-2.6a8.06,8.06,0,0,1,8.07-8.06h2.56a8.07,8.07,0,0,1,8.1,8v.29a.1.1,0,0,1-.06.08c-7.45,1.47-11.18-1.3-12.44-2.56a1.24,1.24,0,1,0-1.76,1.76c3.86,3.86,9.5,3.93,12.93,3.52v2.24A8.08,8.08,0,0,1,881,129.6Z"/><path class="b94c4111-e410-45a7-bdf5-baacbe0ad149" d="M861,129.51v-2.66a9.24,9.24,0,0,0-4.23-7.74,5.23,5.23,0,1,0-10,0,9.21,9.21,0,0,0-4.23,7.74v2.66a9.22,9.22,0,0,0,4,7.59v2.73a1.43,1.43,0,0,1-.78,1.27l-4.31,2.15a5.18,5.18,0,0,0-2.89,4.68v10.83a1.25,1.25,0,0,0,2.49,0v-10.3l2,2a2.75,2.75,0,0,1,.8,1.94v6.33a1.25,1.25,0,0,0,2.49,0V152.4a5.2,5.2,0,0,0-1.54-3.7L842,145.88h0a2.73,2.73,0,0,1,.6-.4l4.3-2.15a5.73,5.73,0,0,0,.62-.38l3,3v12.78a1.24,1.24,0,0,0,2.48,0h0V146l3-3a4.9,4.9,0,0,0,.62.38l1.19.59a1.32,1.32,0,0,0,.55.14,1.25,1.25,0,0,0,1.23-1.27,1.23,1.23,0,0,0-.67-1.09l-1.19-.59a1.43,1.43,0,0,1-.78-1.27v-2.73A9.24,9.24,0,0,0,861,129.51Zm-9.22-14.71a2.75,2.75,0,0,1,2.74,2.75,4,4,0,0,1,0,.49,9,9,0,0,0-5.4,0,2,2,0,0,1,0-.49A2.75,2.75,0,0,1,851.77,114.8Zm0,5.32a6.74,6.74,0,0,1,6.73,6.73v.45a7.79,7.79,0,0,1-8.39-2.52,1.28,1.28,0,0,0-1.91-.14,8.26,8.26,0,0,1-3.19,2A6.73,6.73,0,0,1,851.77,120.12Zm0,23.58-2.87-2.87a4.29,4.29,0,0,0,.13-1v-1.52a9.15,9.15,0,0,0,5.48,0v1.52a4.29,4.29,0,0,0,.13,1Zm0-7.46a6.74,6.74,0,0,1-6.73-6.73v-.26a9.87,9.87,0,0,0,4-2,11.57,11.57,0,0,0,2.31,1.68,10,10,0,0,0,4.75,1.23,10.79,10.79,0,0,0,2.4-.29A6.74,6.74,0,0,1,851.77,136.24Z"/><path class="b94c4111-e410-45a7-bdf5-baacbe0ad149" d="M920.57,140.59l-7-3.48a1.43,1.43,0,0,1-.78-1.27v-1.76a7.9,7.9,0,0,0,2.66-5.9v-1.41h.09a1.25,1.25,0,0,0,1.24-1.25v-2.66a7.9,7.9,0,0,0-7.89-7.89h-2.58a7.89,7.89,0,0,0-7.89,7.89v2.66a1.25,1.25,0,0,0,1.24,1.25h.09v1.41a7.9,7.9,0,0,0,2.66,5.9v1.76a1.43,1.43,0,0,1-.78,1.27,1.24,1.24,0,0,0-.57,1.66h0a1.23,1.23,0,0,0,1.63.57l0,0a5.73,5.73,0,0,0,.62-.38l3,3v16.77a1.24,1.24,0,0,0,2.48,0V142l3-3a4.17,4.17,0,0,0,.61.38l6.74,3.37-2,2a5.23,5.23,0,0,0-1.53,3.7v10.32a1.25,1.25,0,0,0,2.49,0V148.44a2.71,2.71,0,0,1,.8-1.94l1.94-1.93a2.74,2.74,0,0,1,.09.7v13.49a1.25,1.25,0,0,0,2.49,0V145.27A5.19,5.19,0,0,0,920.57,140.59ZM900.87,124v-1.16h0a5.4,5.4,0,0,1,5.4-5.4h2.66a5.41,5.41,0,0,1,5.4,5.4v1.39a19.1,19.1,0,0,1-8.7-2.42,1.24,1.24,0,0,0-1.57.15A8.16,8.16,0,0,1,900.87,124Zm6.73,15.7-2.87-2.88a4.29,4.29,0,0,0,.13-1v-.26a7.94,7.94,0,0,0,5.48,0v.26a3.81,3.81,0,0,0,.13,1Zm0-6.14a5.4,5.4,0,0,1-5.4-5.4h0v-2h0a11.21,11.21,0,0,0,2.92-1.78,22.56,22.56,0,0,0,7.88,2.24v1.54a5.4,5.4,0,0,1-5.4,5.4Z"/><path class="b94c4111-e410-45a7-bdf5-baacbe0ad149" d="M808.11,84.91H795.05a1.31,1.31,0,1,0,0,2.62h13.06a1.31,1.31,0,0,0,0-2.62Z"/><path class="b94c4111-e410-45a7-bdf5-baacbe0ad149" d="M817.31,84.91H816a1.31,1.31,0,1,0,0,2.62h1.31a1.31,1.31,0,1,0,0-2.62Z"/><path class="b94c4111-e410-45a7-bdf5-baacbe0ad149" d="M803.2,147.61H800a3.6,3.6,0,0,0-3.6,3.6v.64a3.6,3.6,0,0,0,3.6,3.6h3.24a3.61,3.61,0,0,0,3.61-3.6v-.67A3.61,3.61,0,0,0,803.2,147.61Zm1,4.24a1,1,0,0,1-1,1H800a1,1,0,0,1-1-1v-.67a1,1,0,0,1,1-1h3.24a1,1,0,0,1,1,1Z"/><path class="b94c4111-e410-45a7-bdf5-baacbe0ad149" d="M819.07,81h-35a4.72,4.72,0,0,0-4.72,4.73v68.92a4.73,4.73,0,0,0,4.72,4.73h35a4.74,4.74,0,0,0,4.72-4.72V85.72A4.72,4.72,0,0,0,819.07,81Zm2.11,73.65a2.12,2.12,0,0,1-2.11,2.11h-35a2.11,2.11,0,0,1-2.11-2.1V85.72a2.1,2.1,0,0,1,2.11-2.11h35a2.11,2.11,0,0,1,2.11,2.11Z"/><path class="b94c4111-e410-45a7-bdf5-baacbe0ad149" d="M822.48,88.83h-41.8a1.31,1.31,0,0,0-1.3,1.31V145a1.3,1.3,0,0,0,1.3,1.3h41.8a1.31,1.31,0,0,0,1.31-1.3V90.18a1.31,1.31,0,0,0-1.27-1.35Zm-1.3,54.86H782V91.44h39.19Z"/><circle class="b94c4111-e410-45a7-bdf5-baacbe0ad149" cx="801.5" cy="70.89" r="2.63"/><path class="b94c4111-e410-45a7-bdf5-baacbe0ad149" d="M821.54,48.71a27.2,27.2,0,0,0-38.45-1.46c-.51.47-1,1-1.46,1.46A1.59,1.59,0,0,0,784,50.88a24,24,0,0,1,33.91-1.34c.47.43.91.87,1.34,1.34a1.6,1.6,0,0,0,1.16.51,1.7,1.7,0,0,0,1.09-.43,1.59,1.59,0,0,0,.08-2.25Z"/><path class="b94c4111-e410-45a7-bdf5-baacbe0ad149" d="M815.69,55.28a19.49,19.49,0,0,0-27.57-.65c-.22.21-.44.43-.65.65a1.59,1.59,0,0,0,2.26,2.25,16.29,16.29,0,0,1,23-.68c.23.22.45.45.67.68a1.59,1.59,0,0,0,2.26-2.25Z"/><path class="b94c4111-e410-45a7-bdf5-baacbe0ad149" d="M809.31,61.88a11.52,11.52,0,0,0-7.75-3.33h-.12a11.52,11.52,0,0,0-7.75,3.33,1.58,1.58,0,0,0,0,2.23l0,0a1.59,1.59,0,0,0,2.25,0h0a8.28,8.28,0,0,1,5.51-2.4h.12a8.3,8.3,0,0,1,5.51,2.4,1.59,1.59,0,0,0,2.23-2.25Z"/><g class="b077c527-d857-4479-b882-19243e3a3c9b"><path class="b94c4111-e410-45a7-bdf5-baacbe0ad149" d="M973.6,105.37V117.9h-7.33V82.35h13.87a16.1,16.1,0,0,1,7,1.46A10.81,10.81,0,0,1,991.86,88a11.6,11.6,0,0,1,1.63,6.14,10.22,10.22,0,0,1-3.57,8.24q-3.58,3-9.9,3Zm0-5.93h6.54a6.44,6.44,0,0,0,4.43-1.37,5,5,0,0,0,1.53-3.9,5.9,5.9,0,0,0-1.54-4.23,5.8,5.8,0,0,0-4.25-1.66H973.6Z"/><path class="b94c4111-e410-45a7-bdf5-baacbe0ad149" d="M1009.9,118.38a13,13,0,0,1-9.46-3.56,12.69,12.69,0,0,1-3.65-9.5v-.68a15.92,15.92,0,0,1,1.54-7.12,11.19,11.19,0,0,1,4.36-4.83,12.21,12.21,0,0,1,6.43-1.7,11,11,0,0,1,8.53,3.42q3.12,3.42,3.11,9.69V107h-16.82a6.54,6.54,0,0,0,2.07,4.15,6.18,6.18,0,0,0,4.35,1.57,7.63,7.63,0,0,0,6.38-3l3.46,3.88a10.64,10.64,0,0,1-4.29,3.51A14.09,14.09,0,0,1,1009.9,118.38Zm-.81-21.7a4.42,4.42,0,0,0-3.4,1.42,7.36,7.36,0,0,0-1.67,4.07h9.81v-.56a5.26,5.26,0,0,0-1.27-3.64A4.54,4.54,0,0,0,1009.09,96.68Z"/><path class="b94c4111-e410-45a7-bdf5-baacbe0ad149" d="M1023.67,104.44a15.62,15.62,0,0,1,1.51-7,11.05,11.05,0,0,1,4.36-4.76,12.66,12.66,0,0,1,6.6-1.69,12,12,0,0,1,8.73,3.27,13.13,13.13,0,0,1,3.77,8.89l0,1.81q0,6.08-3.39,9.75a13.17,13.17,0,0,1-18.23,0q-3.4-3.66-3.4-10Zm7.05.51a9.86,9.86,0,0,0,1.42,5.75,5.08,5.08,0,0,0,8.06,0q1.44-2,1.44-6.3a9.77,9.77,0,0,0-1.44-5.72,4.69,4.69,0,0,0-4.06-2,4.59,4.59,0,0,0-4,2C1031.2,100,1030.72,102.12,1030.72,105Z"/><path class="b94c4111-e410-45a7-bdf5-baacbe0ad149" d="M1076.82,104.93q0,6.1-2.77,9.78a8.88,8.88,0,0,1-7.49,3.67,8.22,8.22,0,0,1-6.47-2.78v12.45h-7V91.48h6.54l.25,2.59a8.29,8.29,0,0,1,6.69-3.08,9,9,0,0,1,7.59,3.62q2.72,3.6,2.71,10Zm-7.06-.51a10.42,10.42,0,0,0-1.3-5.69,4.27,4.27,0,0,0-3.8-2,4.63,4.63,0,0,0-4.57,2.54v10.81a4.71,4.71,0,0,0,4.62,2.62Q1069.76,112.7,1069.76,104.42Z"/><path class="b94c4111-e410-45a7-bdf5-baacbe0ad149" d="M1088.63,117.9h-7.08V80.4h7.08Z"/><path class="b94c4111-e410-45a7-bdf5-baacbe0ad149" d="M1106.6,118.38a13,13,0,0,1-9.46-3.56,12.69,12.69,0,0,1-3.65-9.5v-.68a16.05,16.05,0,0,1,1.54-7.12,11.31,11.31,0,0,1,4.36-4.83,12.23,12.23,0,0,1,6.43-1.7,11,11,0,0,1,8.54,3.42q3.11,3.42,3.11,9.69V107h-16.82a6.48,6.48,0,0,0,2.06,4.15,6.21,6.21,0,0,0,4.36,1.57,7.61,7.61,0,0,0,6.37-3l3.47,3.88a10.6,10.6,0,0,1-4.3,3.51A14.09,14.09,0,0,1,1106.6,118.38Zm-.8-21.7a4.44,4.44,0,0,0-3.41,1.42,7.36,7.36,0,0,0-1.67,4.07h9.81v-.56a5.21,5.21,0,0,0-1.27-3.64A4.53,4.53,0,0,0,1105.8,96.68Z"/></g></svg>