<svg id="a357c3c8-4fa2-4774-8ea3-1b86164089df" data-name="Ebene 1" xmlns="http://www.w3.org/2000/svg" viewBox="0 0 1680 200"><defs><style>.b7da3742-3a9b-4d6d-b2f5-72530e0a4e54{fill:none;stroke:#ccc;stroke-miterlimit:10;}.bcae7ae0-f660-424c-98eb-b58e47b00b63{fill:#f9b213;}.b2b8955b-4400-48f8-922b-864b989b8087{fill:#ccc;}.a909f6f5-4745-4c42-9212-6d8526d7388a{isolation:isolate;}</style></defs><title>HOOBS_x_awaymode</title><g id="f5de45c6-cdc1-42d2-9263-d65eaba33b6d" data-name="Stroke"><line class="b7da3742-3a9b-4d6d-b2f5-72530e0a4e54" x1="700.5" y1="60" x2="700.5" y2="140"/></g><path class="bcae7ae0-f660-424c-98eb-b58e47b00b63" d="M154.17,41.5h-78A19.5,19.5,0,0,0,56.67,61v78a19.5,19.5,0,0,0,19.5,19.5h78a19.5,19.5,0,0,0,19.5-19.5V61A19.5,19.5,0,0,0,154.17,41.5Zm2,59.26a3.24,3.24,0,0,1-4.59,0,3.21,3.21,0,0,1-.95-2.09l-8.82-8.82V69.92a1.63,1.63,0,0,0-1.63-1.63h-3.25a1.63,1.63,0,0,0-1.62,1.63V83.6l-4.88-5.13-15-15a1.62,1.62,0,0,0-2.3,0L78.59,97.89a1.64,1.64,0,0,0,0,2.3l2.3,2.3a1.64,1.64,0,0,0,2.3,0l26.43-26.43a6.49,6.49,0,0,1,9.19,0l26.43,26.43a6.51,6.51,0,0,1,0,9.19l-2.3,2.3a6.49,6.49,0,0,1-9.19,0L115.36,95.59a1.64,1.64,0,0,0-2.3,0L94.68,114a1.62,1.62,0,0,0,0,2.3l2.3,2.29a1.61,1.61,0,0,0,2.29,0l10.35-10.34a6.49,6.49,0,0,1,9.19,0l10.34,10.34a6.51,6.51,0,0,1,0,9.2L118,138.89a3.21,3.21,0,0,1-1,2.09,3.25,3.25,0,1,1-2.5-5.54l11.12-11.12a1.62,1.62,0,0,0,0-2.3l-10.34-10.34a1.62,1.62,0,0,0-2.3,0L102.72,122a6.49,6.49,0,0,1-9.19,0l-2.3-2.3a6.49,6.49,0,0,1,0-9.19l18.39-18.38a6.49,6.49,0,0,1,9.19,0l18.38,18.38a1.64,1.64,0,0,0,2.3,0l2.3-2.3a1.64,1.64,0,0,0,0-2.3L115.36,79.51a1.62,1.62,0,0,0-2.3,0L86.63,105.93a6.49,6.49,0,0,1-9.19,0l-2.3-2.29a6.52,6.52,0,0,1,0-9.2L109.62,60a6.49,6.49,0,0,1,9.19,0l11.6,11.61V69.92a6.5,6.5,0,0,1,6.5-6.5h3.25a6.5,6.5,0,0,1,6.5,6.5V87.83l7.4,7.39a3.25,3.25,0,0,1,2.09,5.54Z"/><path class="bcae7ae0-f660-424c-98eb-b58e47b00b63" d="M612.42,61H624.1v3.65h-3.71v11H616.1v-11h-3.68Zm13.09,0h4.72l3.34,7.78L637,61h4.72V75.62h-3.85V67.39l-2.77,6.81h-2.92l-2.77-6.81v8.23h-3.85Z"/><path class="bcae7ae0-f660-424c-98eb-b58e47b00b63" d="M271.65,61v78H254.31V107h-34v32H202.92V61h17.35V91.75h34V61Zm10.65,39c0-22.41,16.77-39,39.65-39s39.64,16.48,39.64,39S344.72,139,322,139,282.3,122.41,282.3,100Zm62.09.39c0-14.19-9.63-23.9-22.44-23.9s-22.45,9.71-22.45,23.9,9.64,23.89,22.45,23.89S344.39,114.57,344.39,100.39ZM368.8,100c0-22.41,16.77-39,39.65-39s39.64,16.48,39.64,39-16.87,39-39.64,39S368.8,122.41,368.8,100Zm62.09.39c0-14.19-9.63-23.9-22.44-23.9S386,86.2,386,100.39s9.64,23.89,22.45,23.89S430.89,114.57,430.89,100.39Zm96.58,17.33c0,13.48-10.28,21.28-30,21.28H458.74V61h36.61c18.74,0,28.38,8.13,28.38,20.28a18.86,18.86,0,0,1-10,17.16C522.12,101.23,527.47,107.91,527.47,117.72ZM476.71,76.06V93.67h16.5c8.1,0,12.5-3,12.5-8.86s-4.4-8.75-12.5-8.75Zm32.59,39.47c0-6.29-4.61-9.28-13.22-9.28H476.71v18.46h19.37C504.69,124.71,509.3,121.93,509.3,115.53Zm23.38,14.74,5.69-13.14A41.52,41.52,0,0,0,562.28,125c9.94,0,14-3.44,14-8.08,0-14.11-42.13-4.41-42.13-32.42,0-12.82,9.94-23.49,30.53-23.49,9.11,0,18.43,2.26,25.16,6.68l-5.18,13.25A39.67,39.67,0,0,0,564.56,75c-9.94,0-13.77,3.87-13.77,8.61,0,13.9,42.13,4.31,42.13,32,0,12.61-10,23.38-30.74,23.38C550.69,139,539.1,135.44,532.68,130.27Z"/><path class="b2b8955b-4400-48f8-922b-864b989b8087" d="M854.39,134.44a344.07,344.07,0,0,1,52.5-4.05v30H779.39c0-4.88,24-16,60-23.25V88.39a26.4,26.4,0,0,0-15,11.62,26.23,26.23,0,0,0-45,0c.22-26.85,26.25-48.9,60-51.82v-.3a7.5,7.5,0,1,1,15,0v.3c33.75,2.92,59.7,25,60,51.82a26.23,26.23,0,0,0-45,0,26.9,26.9,0,0,0-15-11.7v46.13"/><g class="a909f6f5-4745-4c42-9212-6d8526d7388a"><path class="b2b8955b-4400-48f8-922b-864b989b8087" d="M994.15,75.71h-16l-3.05,9.16h-9.74l16.54-44.44h8.49L1007,84.87h-9.73Zm-13.58-7.42h11.11L986.1,51.66Z"/><path class="b2b8955b-4400-48f8-922b-864b989b8087" d="M1037,72.87l4.33-21h8.52l-8.42,33H1034l-6.25-20.79-6.26,20.79h-7.36l-8.42-33h8.52l4.3,21,6-21H1031Z"/><path class="b2b8955b-4400-48f8-922b-864b989b8087" d="M1072.1,84.87a10,10,0,0,1-.89-3,10.62,10.62,0,0,1-8.33,3.57,11.74,11.74,0,0,1-8-2.8,9,9,0,0,1-3.19-7.08,9.34,9.34,0,0,1,3.89-8.06c2.6-1.87,6.34-2.82,11.25-2.84h4.06V62.8a5.4,5.4,0,0,0-1.18-3.66,4.6,4.6,0,0,0-3.71-1.37,5.25,5.25,0,0,0-3.49,1.06,3.61,3.61,0,0,0-1.27,2.93h-8.82a8.87,8.87,0,0,1,1.77-5.31,11.79,11.79,0,0,1,5-3.83,18.32,18.32,0,0,1,7.26-1.39q6.11,0,9.69,3.07t3.59,8.62V77.24a15.72,15.72,0,0,0,1.31,7.11v.52Zm-7.3-6.14a7.61,7.61,0,0,0,3.61-.87,5.79,5.79,0,0,0,2.44-2.33V69.85h-3.3q-6.61,0-7,4.58l0,.52a3.54,3.54,0,0,0,1.16,2.71A4.46,4.46,0,0,0,1064.8,78.73Z"/><path class="b2b8955b-4400-48f8-922b-864b989b8087" d="M1097.09,72.38l6.11-20.53h9.46L1099.38,90l-.73,1.74q-3,6.47-9.77,6.47a13.71,13.71,0,0,1-3.9-.58V90.94l1.34,0a7.37,7.37,0,0,0,3.74-.76,5.07,5.07,0,0,0,1.94-2.54l1-2.71-11.56-33.11H1091Z"/><path class="b2b8955b-4400-48f8-922b-864b989b8087" d="M981,115.43l11.41,32.23,11.36-32.23h12v44.44h-9.18V147.72l.91-21-12,33.12h-6.29l-12-33.09.91,20.94v12.15h-9.15V115.43Z"/><path class="b2b8955b-4400-48f8-922b-864b989b8087" d="M1020.61,143.05a19.48,19.48,0,0,1,1.9-8.76,13.82,13.82,0,0,1,5.44-5.95,15.93,15.93,0,0,1,8.26-2.11,15.07,15.07,0,0,1,10.91,4.09q4.23,4.1,4.71,11.11l.06,2.26q0,7.6-4.24,12.19c-2.83,3.07-6.62,4.59-11.38,4.59s-8.56-1.52-11.4-4.57-4.26-7.2-4.26-12.45Zm8.82.63q0,4.69,1.77,7.19a6.34,6.34,0,0,0,10.07,0q1.8-2.46,1.8-7.87a12.23,12.23,0,0,0-1.8-7.15,5.85,5.85,0,0,0-5.06-2.53,5.76,5.76,0,0,0-5,2.52Q1029.43,138.39,1029.43,143.68Z"/><path class="b2b8955b-4400-48f8-922b-864b989b8087" d="M1054.7,143.11q0-7.73,3.47-12.3a11.23,11.23,0,0,1,9.47-4.58,10.13,10.13,0,0,1,8,3.61V113h8.85v46.88h-8l-.42-3.51a10.4,10.4,0,0,1-8.49,4.11,11.19,11.19,0,0,1-9.35-4.59Q1054.71,151.29,1054.7,143.11Zm8.82.66q0,4.65,1.62,7.12a5.27,5.27,0,0,0,4.7,2.48,5.91,5.91,0,0,0,5.77-3.46v-13a5.82,5.82,0,0,0-5.71-3.45Q1063.53,133.41,1063.52,143.77Z"/><path class="b2b8955b-4400-48f8-922b-864b989b8087" d="M1105.24,160.47a16.2,16.2,0,0,1-11.82-4.45q-4.58-4.46-4.57-11.87v-.86a19.82,19.82,0,0,1,1.93-8.89,14,14,0,0,1,5.44-6,15.24,15.24,0,0,1,8-2.13q6.78,0,10.67,4.28t3.89,12.11v3.6h-21a8.23,8.23,0,0,0,2.58,5.19,7.82,7.82,0,0,0,5.45,2,9.55,9.55,0,0,0,8-3.7l4.33,4.85a13.08,13.08,0,0,1-5.37,4.38A17.59,17.59,0,0,1,1105.24,160.47Zm-1-27.12a5.51,5.51,0,0,0-4.25,1.77,9.17,9.17,0,0,0-2.09,5.09h12.26v-.7a6.57,6.57,0,0,0-1.58-4.55A5.67,5.67,0,0,0,1104.23,133.35Z"/></g><g class="a909f6f5-4745-4c42-9212-6d8526d7388a"><path class="b2b8955b-4400-48f8-922b-864b989b8087" d="M1161.94,65.06q-7.53-2.16-11-5.33a10.15,10.15,0,0,1-3.43-7.79,10.76,10.76,0,0,1,4.2-8.69q4.18-3.44,10.91-3.43a18.19,18.19,0,0,1,8.16,1.77,13.43,13.43,0,0,1,5.55,4.88,12.54,12.54,0,0,1,2,6.81h-5.89a8.14,8.14,0,0,0-2.56-6.36q-2.57-2.31-7.23-2.31a10.68,10.68,0,0,0-6.76,1.91,6.38,6.38,0,0,0-2.43,5.31,5.75,5.75,0,0,0,2.3,4.6c1.54,1.25,4.15,2.4,7.85,3.44a36.37,36.37,0,0,1,8.66,3.43,13.12,13.12,0,0,1,4.64,4.38,11.15,11.15,0,0,1,1.51,5.89,10.36,10.36,0,0,1-4.21,8.65Q1170,85.48,1163,85.47a20.85,20.85,0,0,1-8.54-1.75,14.29,14.29,0,0,1-6.12-4.81,11.67,11.67,0,0,1-2.16-6.92H1152a7.67,7.67,0,0,0,3,6.36,12.49,12.49,0,0,0,8,2.33q4.63,0,7.11-1.89a6.14,6.14,0,0,0,2.47-5.16,6,6,0,0,0-2.29-5Q1168,66.8,1161.94,65.06Z"/><path class="b2b8955b-4400-48f8-922b-864b989b8087" d="M1183.83,43.09a3.35,3.35,0,0,1,.83-2.32,3.16,3.16,0,0,1,2.49-1,3.2,3.2,0,0,1,2.5,1,3.33,3.33,0,0,1,.86,2.32,3.34,3.34,0,1,1-6.68,0Zm6.1,41.78h-5.65v-33h5.65Z"/><path class="b2b8955b-4400-48f8-922b-864b989b8087" d="M1203,51.85l.15,3.66a12.21,12.21,0,0,1,9.8-4.28q6.93,0,9.43,5.31a12.33,12.33,0,0,1,10.53-5.31q10.86,0,11,11.51V84.87h-5.65V63.08a7.57,7.57,0,0,0-1.62-5.3q-1.62-1.76-5.43-1.75a7.51,7.51,0,0,0-5.22,1.87,7.67,7.67,0,0,0-2.41,5.05V84.87H1218V63.23q0-7.2-7-7.2-5.57,0-7.6,4.73V84.87h-5.65v-33Z"/><path class="b2b8955b-4400-48f8-922b-864b989b8087" d="M1271.63,81.6q-3.3,3.87-9.68,3.87-5.28,0-8-3.06c-1.84-2-2.77-5.07-2.79-9.08V51.85h5.64V73.18q0,7.5,6.11,7.5,6.47,0,8.6-4.82v-24h5.65v33h-5.37Z"/><path class="b2b8955b-4400-48f8-922b-864b989b8087" d="M1290.58,84.87h-5.65V38h5.65Z"/><path class="b2b8955b-4400-48f8-922b-864b989b8087" d="M1318.75,84.87a11.78,11.78,0,0,1-.79-3.48,12.62,12.62,0,0,1-9.4,4.08,11.68,11.68,0,0,1-8-2.76,8.93,8.93,0,0,1-3.12-7,9.31,9.31,0,0,1,3.92-8q3.92-2.85,11-2.85h5.49v-2.6a6.33,6.33,0,0,0-1.77-4.71,7.11,7.11,0,0,0-5.21-1.76,8.21,8.21,0,0,0-5.07,1.53,4.49,4.49,0,0,0-2,3.69h-5.67a7.8,7.8,0,0,1,1.75-4.78,12,12,0,0,1,4.76-3.64,16,16,0,0,1,6.61-1.35c3.8,0,6.79,1,8.94,2.86a10.27,10.27,0,0,1,3.36,7.86V77.14a18.65,18.65,0,0,0,1.16,7.24v.49Zm-9.37-4.31a10,10,0,0,0,5-1.37,8.36,8.36,0,0,0,3.44-3.57V68.84h-4.42q-10.38,0-10.38,6.08a5.14,5.14,0,0,0,1.77,4.15A6.85,6.85,0,0,0,1309.38,80.56Z"/><path class="b2b8955b-4400-48f8-922b-864b989b8087" d="M1338.77,43.85v8h6.16v4.36h-6.16v20.5a4.57,4.57,0,0,0,.82,3,3.48,3.48,0,0,0,2.81,1,14,14,0,0,0,2.69-.36v4.55a16.67,16.67,0,0,1-4.34.6,7,7,0,0,1-5.7-2.28,9.81,9.81,0,0,1-1.93-6.5V56.21h-6V51.85h6v-8Z"/><path class="b2b8955b-4400-48f8-922b-864b989b8087" d="M1364,85.47a14.4,14.4,0,0,1-10.93-4.41q-4.2-4.41-4.21-11.79v-1a19.82,19.82,0,0,1,1.88-8.77,14.55,14.55,0,0,1,5.25-6,13.13,13.13,0,0,1,7.31-2.19q6.43,0,10,4.25t3.57,12.14V70h-22.37a11.72,11.72,0,0,0,2.85,7.89,9,9,0,0,0,6.94,3,9.86,9.86,0,0,0,5.07-1.22,13,13,0,0,0,3.63-3.24l3.45,2.69Q1372.28,85.48,1364,85.47Zm-.7-29.6a7.52,7.52,0,0,0-5.74,2.49,12.09,12.09,0,0,0-2.87,7h16.54v-.42a10.75,10.75,0,0,0-2.32-6.67A7.07,7.07,0,0,0,1363.28,55.87Z"/><path class="b2b8955b-4400-48f8-922b-864b989b8087" d="M1183,139.08a27.38,27.38,0,0,1-2.2,11.4,16.61,16.61,0,0,1-6.22,7.43,18.34,18.34,0,0,1-18.71,0,17,17,0,0,1-6.3-7.36,26.27,26.27,0,0,1-2.31-11.06v-3.2a27.27,27.27,0,0,1,2.23-11.33,17.52,17.52,0,0,1,25-7.55,16.54,16.54,0,0,1,6.27,7.48,27.51,27.51,0,0,1,2.2,11.4Zm-5.83-2.87q0-7.89-3.17-12.13a10.49,10.49,0,0,0-8.88-4.22,10.38,10.38,0,0,0-8.75,4.22q-3.18,4.23-3.28,11.74v3.26q0,7.66,3.22,12a11.29,11.29,0,0,0,17.66.25q3.11-4.14,3.2-11.86Z"/><path class="b2b8955b-4400-48f8-922b-864b989b8087" d="M1202.93,155.87a8.15,8.15,0,0,0,5.28-1.83,6.47,6.47,0,0,0,2.5-4.58h5.34a10.23,10.23,0,0,1-2,5.4,12.84,12.84,0,0,1-4.81,4.09,13.8,13.8,0,0,1-6.36,1.52,13.61,13.61,0,0,1-10.73-4.5q-4-4.5-4-12.31v-.95a19.86,19.86,0,0,1,1.77-8.57,13.46,13.46,0,0,1,5.08-5.83,14.48,14.48,0,0,1,7.83-2.08,13.23,13.23,0,0,1,9.23,3.33,11.89,11.89,0,0,1,3.92,8.64h-5.34a7.8,7.8,0,0,0-2.42-5.27,7.57,7.57,0,0,0-5.39-2.06,7.92,7.92,0,0,0-6.67,3.1c-1.58,2.07-2.36,5.05-2.36,9V144q0,5.7,2.35,8.79A7.93,7.93,0,0,0,1202.93,155.87Z"/><path class="b2b8955b-4400-48f8-922b-864b989b8087" d="M1234.39,155.87a8.11,8.11,0,0,0,5.28-1.83,6.49,6.49,0,0,0,2.51-4.58h5.34a10.24,10.24,0,0,1-2,5.4,12.89,12.89,0,0,1-4.8,4.09,13.87,13.87,0,0,1-6.37,1.52,13.59,13.59,0,0,1-10.72-4.5q-4-4.5-4-12.31v-.95a19.72,19.72,0,0,1,1.78-8.57,13.4,13.4,0,0,1,5.08-5.83,14.42,14.42,0,0,1,7.82-2.08,13.26,13.26,0,0,1,9.24,3.33,11.93,11.93,0,0,1,3.92,8.64h-5.34a7.86,7.86,0,0,0-2.43-5.27,7.56,7.56,0,0,0-5.39-2.06,7.9,7.9,0,0,0-6.66,3.1c-1.58,2.07-2.37,5.05-2.37,9V144q0,5.7,2.35,8.79A8,8,0,0,0,1234.39,155.87Z"/><path class="b2b8955b-4400-48f8-922b-864b989b8087" d="M1273,156.6q-3.3,3.87-9.67,3.87-5.28,0-8-3.06c-1.85-2-2.78-5.07-2.8-9.08V126.85h5.65v21.33q0,7.5,6.1,7.5,6.46,0,8.61-4.82v-24h5.64v33h-5.37Z"/><path class="b2b8955b-4400-48f8-922b-864b989b8087" d="M1313.71,143.72c0,5-1.15,9.07-3.45,12.15a11.05,11.05,0,0,1-9.34,4.6q-6,0-9.46-3.81v15.9h-5.64V126.85H1291l.27,3.66a11.63,11.63,0,0,1,9.58-4.28,11.27,11.27,0,0,1,9.42,4.49q3.46,4.49,3.46,12.48Zm-5.64-.64c0-3.72-.8-6.66-2.38-8.82a7.67,7.67,0,0,0-6.53-3.23,8.31,8.31,0,0,0-7.7,4.54v15.78a8.33,8.33,0,0,0,7.76,4.52,7.65,7.65,0,0,0,6.45-3.22Q1308.07,149.43,1308.07,143.08Z"/><path class="b2b8955b-4400-48f8-922b-864b989b8087" d="M1340,159.87a11.78,11.78,0,0,1-.79-3.48,12.62,12.62,0,0,1-9.4,4.08,11.64,11.64,0,0,1-8-2.76,8.91,8.91,0,0,1-3.13-7,9.31,9.31,0,0,1,3.92-8q3.92-2.85,11-2.85h5.49v-2.6a6.33,6.33,0,0,0-1.77-4.71,7.11,7.11,0,0,0-5.21-1.76,8.21,8.21,0,0,0-5.07,1.53,4.48,4.48,0,0,0-2,3.69h-5.68a7.8,7.8,0,0,1,1.75-4.78,12,12,0,0,1,4.76-3.64,16,16,0,0,1,6.61-1.35c3.81,0,6.79,1,8.94,2.86a10.27,10.27,0,0,1,3.36,7.86v15.19a18.65,18.65,0,0,0,1.16,7.24v.49Zm-9.37-4.31a10,10,0,0,0,5-1.37,8.36,8.36,0,0,0,3.44-3.57v-6.78h-4.42q-10.38,0-10.38,6.08a5.14,5.14,0,0,0,1.77,4.15A6.85,6.85,0,0,0,1330.65,155.56Z"/><path class="b2b8955b-4400-48f8-922b-864b989b8087" d="M1357.72,126.85l.18,4.15a12,12,0,0,1,9.89-4.77q10.47,0,10.56,11.81v21.83h-5.64V138c0-2.38-.57-4.13-1.64-5.28s-2.73-1.7-5-1.7a8.11,8.11,0,0,0-4.82,1.46,10,10,0,0,0-3.23,3.85v23.53h-5.65v-33Z"/><path class="b2b8955b-4400-48f8-922b-864b989b8087" d="M1398.86,155.87a8.15,8.15,0,0,0,5.28-1.83,6.47,6.47,0,0,0,2.5-4.58H1412a10.23,10.23,0,0,1-2,5.4,12.84,12.84,0,0,1-4.81,4.09,13.8,13.8,0,0,1-6.36,1.52,13.61,13.61,0,0,1-10.73-4.5q-4-4.5-4-12.31v-.95a19.86,19.86,0,0,1,1.77-8.57,13.46,13.46,0,0,1,5.08-5.83,14.48,14.48,0,0,1,7.83-2.08,13.23,13.23,0,0,1,9.23,3.33,11.89,11.89,0,0,1,3.92,8.64h-5.34a7.8,7.8,0,0,0-2.42-5.27,7.57,7.57,0,0,0-5.39-2.06,7.92,7.92,0,0,0-6.67,3.1c-1.58,2.07-2.36,5.05-2.36,9V144q0,5.7,2.35,8.79A7.93,7.93,0,0,0,1398.86,155.87Z"/><path class="b2b8955b-4400-48f8-922b-864b989b8087" d="M1427.88,151.59l7.69-24.74h6L1428.34,165q-3.08,8.25-9.8,8.24l-1.06-.09-2.11-.4v-4.58l1.53.13a7.54,7.54,0,0,0,4.47-1.16,8.41,8.41,0,0,0,2.64-4.24l1.25-3.36-11.78-32.65h6.16Z"/></g></svg>