<svg id="e46eb2db-f967-493c-8192-6db4e20d1abb" data-name="Ebene 1" xmlns="http://www.w3.org/2000/svg" viewBox="0 0 1680 200"><defs><style>.aea6bbe1-c739-4a04-976b-6f2b01a3a0ec{fill:none;stroke:#ccc;stroke-miterlimit:10;}.a1d6b2de-de03-4b31-bb34-86755807b861{fill:#f9b213;}.ff3433da-4094-4296-8a68-b78434885499{fill:#238ec2;}</style></defs><title>HOOBS_x_insteon</title><g id="ace3bdc9-79ea-4291-bc2d-dfa3c9c97444" data-name="Stroke"><line class="aea6bbe1-c739-4a04-976b-6f2b01a3a0ec" x1="700.5" y1="60" x2="700.5" y2="140"/></g><path class="a1d6b2de-de03-4b31-bb34-86755807b861" d="M154.17,41.5h-78A19.5,19.5,0,0,0,56.67,61v78a19.5,19.5,0,0,0,19.5,19.5h78a19.5,19.5,0,0,0,19.5-19.5V61A19.5,19.5,0,0,0,154.17,41.5Zm2,59.26a3.24,3.24,0,0,1-4.59,0,3.21,3.21,0,0,1-.95-2.09l-8.82-8.82V69.92a1.63,1.63,0,0,0-1.63-1.63h-3.25a1.63,1.63,0,0,0-1.62,1.63V83.6l-4.88-5.13-15-15a1.62,1.62,0,0,0-2.3,0L78.59,97.89a1.64,1.64,0,0,0,0,2.3l2.3,2.3a1.64,1.64,0,0,0,2.3,0l26.43-26.43a6.49,6.49,0,0,1,9.19,0l26.43,26.43a6.51,6.51,0,0,1,0,9.19l-2.3,2.3a6.49,6.49,0,0,1-9.19,0L115.36,95.59a1.64,1.64,0,0,0-2.3,0L94.68,114a1.62,1.62,0,0,0,0,2.3l2.3,2.29a1.61,1.61,0,0,0,2.29,0l10.35-10.34a6.49,6.49,0,0,1,9.19,0l10.34,10.34a6.51,6.51,0,0,1,0,9.2L118,138.89a3.21,3.21,0,0,1-1,2.09,3.25,3.25,0,1,1-2.5-5.54l11.12-11.12a1.62,1.62,0,0,0,0-2.3l-10.34-10.34a1.62,1.62,0,0,0-2.3,0L102.72,122a6.49,6.49,0,0,1-9.19,0l-2.3-2.3a6.49,6.49,0,0,1,0-9.19l18.39-18.38a6.49,6.49,0,0,1,9.19,0l18.38,18.38a1.64,1.64,0,0,0,2.3,0l2.3-2.3a1.64,1.64,0,0,0,0-2.3L115.36,79.51a1.62,1.62,0,0,0-2.3,0L86.63,105.93a6.49,6.49,0,0,1-9.19,0l-2.3-2.29a6.52,6.52,0,0,1,0-9.2L109.62,60a6.49,6.49,0,0,1,9.19,0l11.6,11.61V69.92a6.5,6.5,0,0,1,6.5-6.5h3.25a6.5,6.5,0,0,1,6.5,6.5V87.83l7.4,7.39a3.25,3.25,0,0,1,2.09,5.54Z"/><path class="a1d6b2de-de03-4b31-bb34-86755807b861" d="M612.42,61H624.1v3.65h-3.71v11H616.1v-11h-3.68Zm13.09,0h4.72l3.34,7.78L637,61h4.72V75.62h-3.85V67.39l-2.77,6.81h-2.92l-2.77-6.81v8.23h-3.85Z"/><path class="a1d6b2de-de03-4b31-bb34-86755807b861" d="M271.65,61v78H254.31V107h-34v32H202.92V61h17.35V91.75h34V61Zm10.65,39c0-22.41,16.77-39,39.65-39s39.64,16.48,39.64,39S344.72,139,322,139,282.3,122.41,282.3,100Zm62.09.39c0-14.19-9.63-23.9-22.44-23.9s-22.45,9.71-22.45,23.9,9.64,23.89,22.45,23.89S344.39,114.57,344.39,100.39ZM368.8,100c0-22.41,16.77-39,39.65-39s39.64,16.48,39.64,39-16.87,39-39.64,39S368.8,122.41,368.8,100Zm62.09.39c0-14.19-9.63-23.9-22.44-23.9S386,86.2,386,100.39s9.64,23.89,22.45,23.89S430.89,114.57,430.89,100.39Zm96.58,17.33c0,13.48-10.28,21.28-30,21.28H458.74V61h36.61c18.74,0,28.38,8.13,28.38,20.28a18.86,18.86,0,0,1-10,17.16C522.12,101.23,527.47,107.91,527.47,117.72ZM476.71,76.06V93.67h16.5c8.1,0,12.5-3,12.5-8.86s-4.4-8.75-12.5-8.75Zm32.59,39.47c0-6.29-4.61-9.28-13.22-9.28H476.71v18.46h19.37C504.69,124.71,509.3,121.93,509.3,115.53Zm23.38,14.74,5.69-13.14A41.52,41.52,0,0,0,562.28,125c9.94,0,14-3.44,14-8.08,0-14.11-42.13-4.41-42.13-32.42,0-12.82,9.94-23.49,30.53-23.49,9.11,0,18.43,2.26,25.16,6.68l-5.18,13.25A39.67,39.67,0,0,0,564.56,75c-9.94,0-13.77,3.87-13.77,8.61,0,13.9,42.13,4.31,42.13,32,0,12.61-10,23.38-30.74,23.38C550.69,139,539.1,135.44,532.68,130.27Z"/><g id="b85f75a2-2643-472b-85f7-dc9bcb0b6f07" data-name="insteon"><path class="ff3433da-4094-4296-8a68-b78434885499" d="M932.3,116.93V50.85h13.77c.5,0,1.22.86,1.44,1.46a7.73,7.73,0,0,1,.1,2.4V145c0,1.32-.22,3.53-.88,3.77a4.72,4.72,0,0,1-5.5-1.49Q911.72,113.8,882,80.55c-.58-.64-1.22-1.24-2.24-2.24v69.36H864.1V54.57A5.45,5.45,0,0,1,865,51c1.14-1.06,6,0,7,1.1l14.59,16q21.76,23.88,43.65,47.73a18.68,18.68,0,0,0,1.54,1.4Z"/><path class="ff3433da-4094-4296-8a68-b78434885499" d="M1562.41,147.94V51c3.24-.12,6-.76,8.89,2.38,18.65,20.79,37.57,41.33,56.38,62a19.48,19.48,0,0,1,1.54,2.18l1-.46V54.27c0-2.6.56-3.78,3.44-3.54a61.29,61.29,0,0,0,9.19,0c2.48-.16,3.06.84,3,3.12-.12,6,0,12,0,18.11v73.21c0,1.28-.36,3.41-1,3.63a4.64,4.64,0,0,1-5.3-1.39q-28.87-32.75-58-65.32a15.29,15.29,0,0,0-3.87-3.34v65.5c0,3.65,0,3.65-3.68,3.65Z"/><path class="ff3433da-4094-4296-8a68-b78434885499" d="M1473.54,52.33a51.24,51.24,0,0,1,35.58,53.2,52.2,52.2,0,0,1-103.93,1.7,51.47,51.47,0,0,1,35.38-55c1.06,4.88,2.12,9.74,3.2,14.75a37.4,37.4,0,0,0-14.33,10c-9.22,10.92-12,23.31-7.14,36.76a35.35,35.35,0,0,0,29.4,24.16,36.8,36.8,0,0,0,21.61-69.49c-2.32-1.14-2.94-2.18-2.24-4.64C1472.05,60.11,1472.69,56.29,1473.54,52.33Z"/><path class="ff3433da-4094-4296-8a68-b78434885499" d="M1338.11,89.73v10.79h-36.32c-2.39,0-3.09.74-3,3.1q.15,14.85,0,29.72c0,2.33.6,3.09,3,3.07h52.43v11.47h-71.29V51.05h71.35V62c-1,0-2.18.16-3.3.16h-48.69c-2.7,0-3.61.65-3.53,3.45.2,7.12.14,14.23,0,21.35,0,2.28.77,2.9,3,2.88h33Z"/><path class="ff3433da-4094-4296-8a68-b78434885499" d="M1007.52,143.45l6-12a58.47,58.47,0,0,0,21,6.13,28.38,28.38,0,0,0,17-3.08c9.83-5.49,10.53-18,1-24a114.28,114.28,0,0,0-17.34-8c-6.4-2.66-13-4.68-18.67-9-8.75-6.71-11.87-19.62-6.82-29.12,3.62-6.81,9.68-10.69,16.81-13.13,8.32-2.84,16.91-2.58,25.42-1.72A115.57,115.57,0,0,1,1067,52.93c2,.48,2.48,1.64,1.52,3.62-1.4,2.8-2.52,5.74-3.71,8.51-4.6-1.32-8.92-2.75-13.33-3.79a35,35,0,0,0-16-.38c-6.5,1.47-11.08,5.83-11.76,11.17A14,14,0,0,0,1032.08,87c7,3.24,14.35,5.77,21.44,8.83a91.83,91.83,0,0,1,11.26,5.76c12,7.29,16,29.14.78,39.51a46,46,0,0,1-21.59,7.79,68,68,0,0,1-30.9-3.07C1011.31,145.15,1009.61,144.35,1007.52,143.45Z"/><path class="ff3433da-4094-4296-8a68-b78434885499" d="M1182.9,147.8h-16.1V65.52c0-2.8-.82-3.47-3.5-3.43-10.63.14-21.29,0-32,.12-2.86,0-3.64-.92-3.4-3.54.18-2-.12-4,.14-6,0-.7,1.14-1.38,1.88-1.86.4-.24,1.06,0,1.6,0h91.56V62c-1.1,0-2.14.14-3.18.14H1186.1c-2.58,0-3.37.71-3.35,3.33v78.87Z"/><path class="ff3433da-4094-4296-8a68-b78434885499" d="M779.27,147.94V50.85h14.81c.46,0,1.12.8,1.28,1.34a7.86,7.86,0,0,1,.1,2.42V144c0,3.87,0,3.87-4,3.87Z"/><path class="ff3433da-4094-4296-8a68-b78434885499" d="M1453.36,33.67h7.53v69.19h-7.53Z"/></g></svg>