<svg id="a837db80-05e5-412d-bc9b-ea2b37620b97" data-name="Ebene 1" xmlns="http://www.w3.org/2000/svg" viewBox="0 0 1680 200"><defs><style>.ab353f80-5a1b-4281-9e51-e1f3662fd0db{fill:none;stroke:#ccc;stroke-miterlimit:10;}.b00b1227-a326-4417-ad2c-79ab824f9190{fill:#f9b213;}.b72370ec-6dd5-46ad-bc10-e6ae441fc122{isolation:isolate;}.e4294fcd-947a-4398-a6e7-cdb075314991{fill:#ccc;}.fdbca15e-dec9-4bd2-9939-c2579e6967d7{fill:#6f9ef4;}</style></defs><title>HOOBS_x_openwebif</title><g id="b31dc533-de8d-40bb-bccf-e428f8c38c3f" data-name="Stroke"><line class="ab353f80-5a1b-4281-9e51-e1f3662fd0db" x1="700.5" y1="60" x2="700.5" y2="140"/></g><path class="b00b1227-a326-4417-ad2c-79ab824f9190" d="M154.17,41.5h-78A19.5,19.5,0,0,0,56.67,61v78a19.5,19.5,0,0,0,19.5,19.5h78a19.5,19.5,0,0,0,19.5-19.5V61A19.5,19.5,0,0,0,154.17,41.5Zm2,59.26a3.24,3.24,0,0,1-4.59,0,3.21,3.21,0,0,1-.95-2.09l-8.82-8.82V69.92a1.63,1.63,0,0,0-1.63-1.63h-3.25a1.63,1.63,0,0,0-1.62,1.63V83.6l-4.88-5.13-15-15a1.62,1.62,0,0,0-2.3,0L78.59,97.89a1.64,1.64,0,0,0,0,2.3l2.3,2.3a1.64,1.64,0,0,0,2.3,0l26.43-26.43a6.49,6.49,0,0,1,9.19,0l26.43,26.43a6.51,6.51,0,0,1,0,9.19l-2.3,2.3a6.49,6.49,0,0,1-9.19,0L115.36,95.59a1.64,1.64,0,0,0-2.3,0L94.68,114a1.62,1.62,0,0,0,0,2.3l2.3,2.29a1.61,1.61,0,0,0,2.29,0l10.35-10.34a6.49,6.49,0,0,1,9.19,0l10.34,10.34a6.51,6.51,0,0,1,0,9.2L118,138.89a3.21,3.21,0,0,1-1,2.09,3.25,3.25,0,1,1-2.5-5.54l11.12-11.12a1.62,1.62,0,0,0,0-2.3l-10.34-10.34a1.62,1.62,0,0,0-2.3,0L102.72,122a6.49,6.49,0,0,1-9.19,0l-2.3-2.3a6.49,6.49,0,0,1,0-9.19l18.39-18.38a6.49,6.49,0,0,1,9.19,0l18.38,18.38a1.64,1.64,0,0,0,2.3,0l2.3-2.3a1.64,1.64,0,0,0,0-2.3L115.36,79.51a1.62,1.62,0,0,0-2.3,0L86.63,105.93a6.49,6.49,0,0,1-9.19,0l-2.3-2.29a6.52,6.52,0,0,1,0-9.2L109.62,60a6.49,6.49,0,0,1,9.19,0l11.6,11.61V69.92a6.5,6.5,0,0,1,6.5-6.5h3.25a6.5,6.5,0,0,1,6.5,6.5V87.83l7.4,7.39a3.25,3.25,0,0,1,2.09,5.54Z"/><path class="b00b1227-a326-4417-ad2c-79ab824f9190" d="M612.42,61H624.1v3.65h-3.71v11H616.1v-11h-3.68Zm13.09,0h4.72l3.34,7.78L637,61h4.72V75.62h-3.85V67.39l-2.77,6.81h-2.92l-2.77-6.81v8.23h-3.85Z"/><path class="b00b1227-a326-4417-ad2c-79ab824f9190" d="M271.65,61v78H254.31V107h-34v32H202.92V61h17.35V91.75h34V61Zm10.65,39c0-22.41,16.77-39,39.65-39s39.64,16.48,39.64,39S344.72,139,322,139,282.3,122.41,282.3,100Zm62.09.39c0-14.19-9.63-23.9-22.44-23.9s-22.45,9.71-22.45,23.9,9.64,23.89,22.45,23.89S344.39,114.57,344.39,100.39ZM368.8,100c0-22.41,16.77-39,39.65-39s39.64,16.48,39.64,39-16.87,39-39.64,39S368.8,122.41,368.8,100Zm62.09.39c0-14.19-9.63-23.9-22.44-23.9S386,86.2,386,100.39s9.64,23.89,22.45,23.89S430.89,114.57,430.89,100.39Zm96.58,17.33c0,13.48-10.28,21.28-30,21.28H458.74V61h36.61c18.74,0,28.38,8.13,28.38,20.28a18.86,18.86,0,0,1-10,17.16C522.12,101.23,527.47,107.91,527.47,117.72ZM476.71,76.06V93.67h16.5c8.1,0,12.5-3,12.5-8.86s-4.4-8.75-12.5-8.75Zm32.59,39.47c0-6.29-4.61-9.28-13.22-9.28H476.71v18.46h19.37C504.69,124.71,509.3,121.93,509.3,115.53Zm23.38,14.74,5.69-13.14A41.52,41.52,0,0,0,562.28,125c9.94,0,14-3.44,14-8.08,0-14.11-42.13-4.41-42.13-32.42,0-12.82,9.94-23.49,30.53-23.49,9.11,0,18.43,2.26,25.16,6.68l-5.18,13.25A39.67,39.67,0,0,0,564.56,75c-9.94,0-13.77,3.87-13.77,8.61,0,13.9,42.13,4.31,42.13,32,0,12.61-10,23.38-30.74,23.38C550.69,139,539.1,135.44,532.68,130.27Z"/><g class="b72370ec-6dd5-46ad-bc10-e6ae441fc122"><path class="e4294fcd-947a-4398-a6e7-cdb075314991" d="M965.52,87.51a21.6,21.6,0,0,1-1.85,9.21,14,14,0,0,1-5.31,6.1,15.67,15.67,0,0,1-15.81,0,14.06,14.06,0,0,1-5.37-6.06,20.78,20.78,0,0,1-1.93-9.07V86a21.36,21.36,0,0,1,1.89-9.24,14,14,0,0,1,5.35-6.13,15.63,15.63,0,0,1,15.79,0,14.09,14.09,0,0,1,5.35,6.13,21.28,21.28,0,0,1,1.89,9.21ZM958.1,85.9q0-5.59-2-8.5a7.07,7.07,0,0,0-11.4,0c-1.34,1.91-2,4.71-2,8.41v1.73q0,5.44,2,8.45a6.52,6.52,0,0,0,5.76,3,6.45,6.45,0,0,0,5.67-2.89c1.32-1.93,2-4.74,2-8.44Z"/><path class="e4294fcd-947a-4398-a6e7-cdb075314991" d="M994.16,91.52q0,6.09-2.77,9.77A8.91,8.91,0,0,1,983.9,105a8.23,8.23,0,0,1-6.47-2.79v12.46h-7V78.06h6.54l.25,2.59a8.28,8.28,0,0,1,6.69-3.07,8.94,8.94,0,0,1,7.59,3.61q2.7,3.61,2.71,10ZM987.1,91a10.44,10.44,0,0,0-1.3-5.69,4.27,4.27,0,0,0-3.8-2,4.63,4.63,0,0,0-4.57,2.54V96.67a4.71,4.71,0,0,0,4.62,2.61Q987.11,99.28,987.1,91Z"/><path class="e4294fcd-947a-4398-a6e7-cdb075314991" d="M1010.69,105a12.94,12.94,0,0,1-9.46-3.57,12.63,12.63,0,0,1-3.65-9.49v-.69a16,16,0,0,1,1.53-7.11,11.28,11.28,0,0,1,4.36-4.84,12.26,12.26,0,0,1,6.44-1.69,11,11,0,0,1,8.53,3.41q3.1,3.42,3.11,9.7v2.88h-16.82a6.56,6.56,0,0,0,2.06,4.15,6.25,6.25,0,0,0,4.36,1.56,7.63,7.63,0,0,0,6.37-3l3.47,3.88a10.58,10.58,0,0,1-4.3,3.5A14,14,0,0,1,1010.69,105Zm-.81-21.71a4.43,4.43,0,0,0-3.41,1.43,7.37,7.37,0,0,0-1.67,4.07h9.82v-.57a5.3,5.3,0,0,0-1.27-3.64A4.56,4.56,0,0,0,1009.88,83.26Z"/><path class="e4294fcd-947a-4398-a6e7-cdb075314991" d="M1032.05,78.06l.22,3.06a9.23,9.23,0,0,1,7.59-3.54q4.2,0,6.25,2.46c1.37,1.65,2.07,4.1,2.1,7.37v17.07h-7V87.58a4.56,4.56,0,0,0-1-3.25,4.35,4.35,0,0,0-3.25-1,4.88,4.88,0,0,0-4.47,2.54v18.63h-7V78.06Z"/><path class="fdbca15e-dec9-4bd2-9939-c2579e6967d7" d="M1081.71,94.23l4.78-25.3h7.3l-7.88,35.55h-7.38l-5.78-23.78L1067,104.48h-7.37l-7.89-35.55h7.3l4.81,25.25,5.86-25.25h6.2Z"/><path class="fdbca15e-dec9-4bd2-9939-c2579e6967d7" d="M1108.68,105a13,13,0,0,1-9.46-3.57,12.66,12.66,0,0,1-3.65-9.49v-.69a16,16,0,0,1,1.54-7.11,11.28,11.28,0,0,1,4.36-4.84,12.22,12.22,0,0,1,6.43-1.69,11,11,0,0,1,8.54,3.41q3.11,3.42,3.11,9.7v2.88h-16.82a6.56,6.56,0,0,0,2.06,4.15,6.25,6.25,0,0,0,4.36,1.56,7.63,7.63,0,0,0,6.37-3l3.47,3.88a10.58,10.58,0,0,1-4.3,3.5A14.09,14.09,0,0,1,1108.68,105Zm-.8-21.71a4.42,4.42,0,0,0-3.41,1.43,7.3,7.3,0,0,0-1.67,4.07h9.82v-.57a5.3,5.3,0,0,0-1.27-3.64A4.56,4.56,0,0,0,1107.88,83.26Z"/><path class="fdbca15e-dec9-4bd2-9939-c2579e6967d7" d="M1147.36,91.52q0,6.35-2.71,9.9a9,9,0,0,1-7.57,3.55,8.24,8.24,0,0,1-6.86-3.3l-.32,2.81h-6.35V67h7.06V80.43a8,8,0,0,1,6.42-2.85,9,9,0,0,1,7.58,3.55q2.75,3.56,2.75,10ZM1140.3,91q0-4-1.27-5.84a4.3,4.3,0,0,0-3.78-1.85,4.66,4.66,0,0,0-4.64,2.76V96.5a4.72,4.72,0,0,0,4.69,2.78,4.36,4.36,0,0,0,4.49-3.37A17.46,17.46,0,0,0,1140.3,91Z"/><path class="fdbca15e-dec9-4bd2-9939-c2579e6967d7" d="M1151.65,71.23a3.49,3.49,0,0,1,1.06-2.61,4.57,4.57,0,0,1,5.78,0,3.42,3.42,0,0,1,1.07,2.61,3.46,3.46,0,0,1-1.08,2.63,4.51,4.51,0,0,1-5.74,0A3.47,3.47,0,0,1,1151.65,71.23Zm7.5,33.25h-7.08V78.06h7.08Z"/><path class="fdbca15e-dec9-4bd2-9939-c2579e6967d7" d="M1166.89,104.48V83.24H1163V78.06h3.93V75.82a9.14,9.14,0,0,1,2.55-6.9c1.7-1.64,4.08-2.45,7.14-2.45a16.25,16.25,0,0,1,3.59.49l-.07,5.46a9.42,9.42,0,0,0-2.15-.22c-2.66,0-4,1.25-4,3.74v2.12h5.25v5.18H1174v21.24Z"/></g><path class="fdbca15e-dec9-4bd2-9939-c2579e6967d7" d="M834.29,59.57V85H882V59.57Zm-38.18,0V85h28.63V59.57Zm0,31.82v25.46h47.72V91.39Zm85.91,0H853.38v25.46H882Z"/><path class="e4294fcd-947a-4398-a6e7-cdb075314991" d="M888.15,44.57H790a10.94,10.94,0,0,0-10.91,10.91v65.46A10.94,10.94,0,0,0,790,131.85h27.27v10.91h43.64V131.85h27.27A10.9,10.9,0,0,0,899,120.94l0-65.46A10.94,10.94,0,0,0,888.15,44.57Zm0,76.37H790V55.48h98.18Z"/></svg>