<svg id="bdbdf505-2dbb-48af-8994-bd679842e4aa" data-name="Ebene 1" xmlns="http://www.w3.org/2000/svg" viewBox="0 0 1680 200"><defs><style>.ab70782f-e75e-4e87-a825-8ec9656f8fb5{fill:none;stroke:#ccc;stroke-miterlimit:10;}.afb9d3f7-4074-4f2c-b48f-7782010a5750{fill:#f9b213;}.b3eebf81-090b-4013-9a72-614bb25ec605{isolation:isolate;}.b71cecd1-cda5-4859-b95d-0f3fb5cd27d3{fill:#ccc;}</style></defs><title>HOOBS_x_videodoorbell</title><g id="a38e1fff-1667-4bdc-9f4b-fcb964d560c3" data-name="Stroke"><line class="ab70782f-e75e-4e87-a825-8ec9656f8fb5" x1="700.5" y1="60" x2="700.5" y2="140"/></g><path class="afb9d3f7-4074-4f2c-b48f-7782010a5750" d="M154.17,41.5h-78A19.5,19.5,0,0,0,56.67,61v78a19.5,19.5,0,0,0,19.5,19.5h78a19.5,19.5,0,0,0,19.5-19.5V61A19.5,19.5,0,0,0,154.17,41.5Zm2,59.26a3.24,3.24,0,0,1-4.59,0,3.21,3.21,0,0,1-.95-2.09l-8.82-8.82V69.92a1.63,1.63,0,0,0-1.63-1.63h-3.25a1.63,1.63,0,0,0-1.62,1.63V83.6l-4.88-5.13-15-15a1.62,1.62,0,0,0-2.3,0L78.59,97.89a1.64,1.64,0,0,0,0,2.3l2.3,2.3a1.64,1.64,0,0,0,2.3,0l26.43-26.43a6.49,6.49,0,0,1,9.19,0l26.43,26.43a6.51,6.51,0,0,1,0,9.19l-2.3,2.3a6.49,6.49,0,0,1-9.19,0L115.36,95.59a1.64,1.64,0,0,0-2.3,0L94.68,114a1.62,1.62,0,0,0,0,2.3l2.3,2.29a1.61,1.61,0,0,0,2.29,0l10.35-10.34a6.49,6.49,0,0,1,9.19,0l10.34,10.34a6.51,6.51,0,0,1,0,9.2L118,138.89a3.21,3.21,0,0,1-1,2.09,3.25,3.25,0,1,1-2.5-5.54l11.12-11.12a1.62,1.62,0,0,0,0-2.3l-10.34-10.34a1.62,1.62,0,0,0-2.3,0L102.72,122a6.49,6.49,0,0,1-9.19,0l-2.3-2.3a6.49,6.49,0,0,1,0-9.19l18.39-18.38a6.49,6.49,0,0,1,9.19,0l18.38,18.38a1.64,1.64,0,0,0,2.3,0l2.3-2.3a1.64,1.64,0,0,0,0-2.3L115.36,79.51a1.62,1.62,0,0,0-2.3,0L86.63,105.93a6.49,6.49,0,0,1-9.19,0l-2.3-2.29a6.52,6.52,0,0,1,0-9.2L109.62,60a6.49,6.49,0,0,1,9.19,0l11.6,11.61V69.92a6.5,6.5,0,0,1,6.5-6.5h3.25a6.5,6.5,0,0,1,6.5,6.5V87.83l7.4,7.39a3.25,3.25,0,0,1,2.09,5.54Z"/><path class="afb9d3f7-4074-4f2c-b48f-7782010a5750" d="M612.42,61H624.1v3.65h-3.71v11H616.1v-11h-3.68Zm13.09,0h4.72l3.34,7.78L637,61h4.72V75.62h-3.85V67.39l-2.77,6.81h-2.92l-2.77-6.81v8.23h-3.85Z"/><path class="afb9d3f7-4074-4f2c-b48f-7782010a5750" d="M271.65,61v78H254.31V107h-34v32H202.92V61h17.35V91.75h34V61Zm10.65,39c0-22.41,16.77-39,39.65-39s39.64,16.48,39.64,39S344.72,139,322,139,282.3,122.41,282.3,100Zm62.09.39c0-14.19-9.63-23.9-22.44-23.9s-22.45,9.71-22.45,23.9,9.64,23.89,22.45,23.89S344.39,114.57,344.39,100.39ZM368.8,100c0-22.41,16.77-39,39.65-39s39.64,16.48,39.64,39-16.87,39-39.64,39S368.8,122.41,368.8,100Zm62.09.39c0-14.19-9.63-23.9-22.44-23.9S386,86.2,386,100.39s9.64,23.89,22.45,23.89S430.89,114.57,430.89,100.39Zm96.58,17.33c0,13.48-10.28,21.28-30,21.28H458.74V61h36.61c18.74,0,28.38,8.13,28.38,20.28a18.86,18.86,0,0,1-10,17.16C522.12,101.23,527.47,107.91,527.47,117.72ZM476.71,76.06V93.67h16.5c8.1,0,12.5-3,12.5-8.86s-4.4-8.75-12.5-8.75Zm32.59,39.47c0-6.29-4.61-9.28-13.22-9.28H476.71v18.46h19.37C504.69,124.71,509.3,121.93,509.3,115.53Zm23.38,14.74,5.69-13.14A41.52,41.52,0,0,0,562.28,125c9.94,0,14-3.44,14-8.08,0-14.11-42.13-4.41-42.13-32.42,0-12.82,9.94-23.49,30.53-23.49,9.11,0,18.43,2.26,25.16,6.68l-5.18,13.25A39.67,39.67,0,0,0,564.56,75c-9.94,0-13.77,3.87-13.77,8.61,0,13.9,42.13,4.31,42.13,32,0,12.61-10,23.38-30.74,23.38C550.69,139,539.1,135.44,532.68,130.27Z"/><g class="b3eebf81-090b-4013-9a72-614bb25ec605"><path class="b71cecd1-cda5-4859-b95d-0f3fb5cd27d3" d="M903.93,75.63,912,48.9h8.15L907.76,84.45h-7.64L887.79,48.9h8.13Z"/><path class="b71cecd1-cda5-4859-b95d-0f3fb5cd27d3" d="M923,51.2A3.5,3.5,0,0,1,924,48.58a4,4,0,0,1,2.89-1,4,4,0,0,1,2.88,1,3.74,3.74,0,0,1,0,5.25,4.51,4.51,0,0,1-5.74,0A3.47,3.47,0,0,1,923,51.2Zm7.5,33.25h-7.08V58h7.08Z"/><path class="b71cecd1-cda5-4859-b95d-0f3fb5cd27d3" d="M935.18,71q0-6.17,2.77-9.83a9,9,0,0,1,7.58-3.67,8.12,8.12,0,0,1,6.38,2.88V47H959v37.5h-6.38l-.34-2.81a8.3,8.3,0,0,1-6.79,3.3A9,9,0,0,1,938,81.26Q935.18,77.59,935.18,71Zm7.06.53a10.46,10.46,0,0,0,1.29,5.7,4.22,4.22,0,0,0,3.76,2,4.73,4.73,0,0,0,4.62-2.77V66a4.67,4.67,0,0,0-4.57-2.76Q942.24,63.28,942.24,71.57Z"/><path class="b71cecd1-cda5-4859-b95d-0f3fb5cd27d3" d="M976.61,84.94a13,13,0,0,1-9.46-3.57,12.67,12.67,0,0,1-3.65-9.5v-.68A16,16,0,0,1,965,64.07a11.31,11.31,0,0,1,4.36-4.83,12.23,12.23,0,0,1,6.43-1.7A11,11,0,0,1,984.36,61q3.12,3.42,3.12,9.69v2.88H970.66a6.48,6.48,0,0,0,2.06,4.15,6.21,6.21,0,0,0,4.36,1.57,7.63,7.63,0,0,0,6.37-3l3.47,3.88a10.67,10.67,0,0,1-4.3,3.51A14.09,14.09,0,0,1,976.61,84.94Zm-.8-21.71a4.44,4.44,0,0,0-3.41,1.42,7.36,7.36,0,0,0-1.67,4.07h9.81v-.56a5.21,5.21,0,0,0-1.27-3.64A4.53,4.53,0,0,0,975.81,63.23Z"/><path class="b71cecd1-cda5-4859-b95d-0f3fb5cd27d3" d="M990.38,71a15.67,15.67,0,0,1,1.52-7,11,11,0,0,1,4.35-4.76,12.67,12.67,0,0,1,6.61-1.69,12.05,12.05,0,0,1,8.73,3.27,13.18,13.18,0,0,1,3.77,8.89l0,1.81a13.82,13.82,0,0,1-3.4,9.75,13.13,13.13,0,0,1-18.22,0q-3.4-3.66-3.41-10Zm7.06.5a9.86,9.86,0,0,0,1.41,5.75,5.08,5.08,0,0,0,8.06,0q1.44-2,1.44-6.3a9.77,9.77,0,0,0-1.44-5.72,4.69,4.69,0,0,0-4-2,4.61,4.61,0,0,0-4,2C997.91,66.59,997.44,68.68,997.44,71.5Z"/><path class="b71cecd1-cda5-4859-b95d-0f3fb5cd27d3" d="M1032.67,84.45V48.9h10.93A16.6,16.6,0,0,1,1052,51a14.67,14.67,0,0,1,5.77,6,18.42,18.42,0,0,1,2.08,8.85V67.5a18.57,18.57,0,0,1-2,8.82,14.6,14.6,0,0,1-5.75,6,16.81,16.81,0,0,1-8.37,2.15ZM1040,54.83V78.56h3.54a8,8,0,0,0,6.57-2.8c1.51-1.88,2.29-4.55,2.32-8V65.84q0-5.42-2.25-8.21a7.91,7.91,0,0,0-6.57-2.8Z"/><path class="b71cecd1-cda5-4859-b95d-0f3fb5cd27d3" d="M1063.6,71a15.67,15.67,0,0,1,1.51-7,11.11,11.11,0,0,1,4.36-4.76,12.67,12.67,0,0,1,6.61-1.69,12,12,0,0,1,8.72,3.27,13.19,13.19,0,0,1,3.78,8.89l0,1.81q0,6.08-3.39,9.75a13.13,13.13,0,0,1-18.22,0q-3.42-3.66-3.41-10Zm7.06.5a9.86,9.86,0,0,0,1.41,5.75,5.08,5.08,0,0,0,8.06,0q1.44-2,1.44-6.3a9.77,9.77,0,0,0-1.44-5.72,4.69,4.69,0,0,0-4.05-2,4.61,4.61,0,0,0-4,2C1071.13,66.59,1070.66,68.68,1070.66,71.5Z"/><path class="b71cecd1-cda5-4859-b95d-0f3fb5cd27d3" d="M1091.87,71a15.8,15.8,0,0,1,1.51-7,11.11,11.11,0,0,1,4.36-4.76,12.67,12.67,0,0,1,6.61-1.69,12,12,0,0,1,8.72,3.27,13.14,13.14,0,0,1,3.78,8.89l.05,1.81a13.82,13.82,0,0,1-3.4,9.75,13.13,13.13,0,0,1-18.22,0q-3.4-3.66-3.41-10Zm7.06.5a9.86,9.86,0,0,0,1.41,5.75,5.08,5.08,0,0,0,8.06,0q1.44-2,1.44-6.3a9.77,9.77,0,0,0-1.44-5.72,4.69,4.69,0,0,0-4.05-2,4.61,4.61,0,0,0-4,2C1099.4,66.59,1098.93,68.68,1098.93,71.5Z"/><path class="b71cecd1-cda5-4859-b95d-0f3fb5cd27d3" d="M1136.08,64.65a19.19,19.19,0,0,0-2.53-.2c-2.67,0-4.42.91-5.25,2.71V84.45h-7.06V58h6.67l.19,3.15a6.56,6.56,0,0,1,5.89-3.64,7.38,7.38,0,0,1,2.19.32Z"/><path class="b71cecd1-cda5-4859-b95d-0f3fb5cd27d3" d="M1163.28,71.48q0,6.36-2.71,9.9a9,9,0,0,1-7.57,3.56,8.25,8.25,0,0,1-6.86-3.3l-.31,2.81h-6.35V47h7V60.4a8.06,8.06,0,0,1,6.43-2.86,9.07,9.07,0,0,1,7.58,3.56c1.83,2.36,2.74,5.7,2.74,10Zm-7-.51c0-2.67-.43-4.62-1.27-5.85a4.3,4.3,0,0,0-3.79-1.84,4.66,4.66,0,0,0-4.64,2.76V76.46a4.73,4.73,0,0,0,4.69,2.79,4.35,4.35,0,0,0,4.49-3.37A17.06,17.06,0,0,0,1156.23,71Z"/><path class="b71cecd1-cda5-4859-b95d-0f3fb5cd27d3" d="M1179.79,84.94a12.94,12.94,0,0,1-9.46-3.57,12.63,12.63,0,0,1-3.65-9.5v-.68a16.08,16.08,0,0,1,1.53-7.12,11.31,11.31,0,0,1,4.36-4.83,12.26,12.26,0,0,1,6.43-1.7,11,11,0,0,1,8.54,3.42q3.11,3.42,3.11,9.69v2.88h-16.82a6.53,6.53,0,0,0,2.06,4.15,6.21,6.21,0,0,0,4.36,1.57,7.61,7.61,0,0,0,6.37-3l3.47,3.88a10.6,10.6,0,0,1-4.3,3.51A14,14,0,0,1,1179.79,84.94ZM1179,63.23a4.46,4.46,0,0,0-3.41,1.42,7.43,7.43,0,0,0-1.67,4.07h9.82v-.56a5.3,5.3,0,0,0-1.27-3.64A4.56,4.56,0,0,0,1179,63.23Z"/><path class="b71cecd1-cda5-4859-b95d-0f3fb5cd27d3" d="M1202.1,84.45H1195V47h7.08Z"/><path class="b71cecd1-cda5-4859-b95d-0f3fb5cd27d3" d="M1215.36,84.45h-7.08V47h7.08Z"/><path class="b71cecd1-cda5-4859-b95d-0f3fb5cd27d3" d="M904,131.43h-5.84v13H890.8V108.9H904q6.3,0,9.72,2.81a9.67,9.67,0,0,1,3.42,7.93,10.94,10.94,0,0,1-1.58,6.07,10.68,10.68,0,0,1-4.77,3.87l7.69,14.53v.34h-7.86Zm-5.84-5.93H904a6.07,6.07,0,0,0,4.27-1.4,5,5,0,0,0,1.52-3.87,5.39,5.39,0,0,0-1.43-4,6,6,0,0,0-4.39-1.44h-5.88Z"/><path class="b71cecd1-cda5-4859-b95d-0f3fb5cd27d3" d="M922.19,111.2a3.5,3.5,0,0,1,1.07-2.62,4,4,0,0,1,2.89-1,4,4,0,0,1,2.88,1,3.74,3.74,0,0,1,0,5.25,4.51,4.51,0,0,1-5.74,0A3.47,3.47,0,0,1,922.19,111.2Zm7.5,33.25h-7.08V118h7.08Z"/><path class="b71cecd1-cda5-4859-b95d-0f3fb5cd27d3" d="M946.49,139.25a4.6,4.6,0,0,0,3.17-1.08,3.76,3.76,0,0,0,1.27-2.85h6.61a9,9,0,0,1-1.46,4.92,9.68,9.68,0,0,1-3.94,3.46,12.37,12.37,0,0,1-5.53,1.24,11.45,11.45,0,0,1-8.94-3.61q-3.27-3.6-3.27-9.94v-.47q0-6.1,3.25-9.74a11.34,11.34,0,0,1,8.91-3.64,11.14,11.14,0,0,1,8,2.82,10,10,0,0,1,3,7.51h-6.61a4.86,4.86,0,0,0-1.27-3.35,4.72,4.72,0,0,0-6.95.51q-1.25,1.8-1.25,5.83v.73c0,2.73.41,4.68,1.24,5.87A4.31,4.31,0,0,0,946.49,139.25Z"/><path class="b71cecd1-cda5-4859-b95d-0f3fb5cd27d3" d="M968.46,120.91a8.81,8.81,0,0,1,7-3.37q8.6,0,8.72,10v16.92h-7.06V127.72a4.89,4.89,0,0,0-1-3.35,4.18,4.18,0,0,0-3.25-1.09,4.81,4.81,0,0,0-4.49,2.39v18.78H961.4V107h7.06Z"/><path class="b71cecd1-cda5-4859-b95d-0f3fb5cd27d3" d="M1031.37,144.45h-7.32l-14.26-23.39v23.39h-7.32V108.9h7.32l14.28,23.44V108.9h7.3Z"/><path class="b71cecd1-cda5-4859-b95d-0f3fb5cd27d3" d="M1036.21,131a15.67,15.67,0,0,1,1.51-7,11.05,11.05,0,0,1,4.36-4.76,12.64,12.64,0,0,1,6.6-1.69,12,12,0,0,1,8.73,3.27,13.13,13.13,0,0,1,3.77,8.89l0,1.81q0,6.08-3.39,9.75a13.14,13.14,0,0,1-18.23,0q-3.4-3.66-3.4-10Zm7,.5a9.78,9.78,0,0,0,1.42,5.75,4.66,4.66,0,0,0,4,2,4.71,4.71,0,0,0,4-2q1.44-2,1.44-6.3a9.77,9.77,0,0,0-1.44-5.72,4.72,4.72,0,0,0-4.06-2,4.59,4.59,0,0,0-4,2C1043.73,126.59,1043.26,128.68,1043.26,131.5Z"/><path class="b71cecd1-cda5-4859-b95d-0f3fb5cd27d3" d="M1074,111.54V118h4.52v5.18H1074v13.18a3.1,3.1,0,0,0,.57,2.1,2.82,2.82,0,0,0,2.14.63,10.73,10.73,0,0,0,2.08-.17v5.35a14.63,14.63,0,0,1-4.27.64q-7.43,0-7.57-7.5V123.21h-3.86V118H1067v-6.49Z"/><path class="b71cecd1-cda5-4859-b95d-0f3fb5cd27d3" d="M1082.42,111.2a3.53,3.53,0,0,1,1.06-2.62,4.6,4.6,0,0,1,5.78,0,3.5,3.5,0,0,1,1.07,2.62,3.46,3.46,0,0,1-1.08,2.63,4.51,4.51,0,0,1-5.74,0A3.47,3.47,0,0,1,1082.42,111.2Zm7.5,33.25h-7.08V118h7.08Z"/><path class="b71cecd1-cda5-4859-b95d-0f3fb5cd27d3" d="M1097.66,144.45V123.21h-3.93V118h3.93v-2.24a9.11,9.11,0,0,1,2.55-6.9,9.86,9.86,0,0,1,7.14-2.46,16.87,16.87,0,0,1,3.59.49l-.07,5.47a9.42,9.42,0,0,0-2.15-.22c-2.66,0-4,1.25-4,3.74V118H1110v5.18h-5.25v21.24Z"/><path class="b71cecd1-cda5-4859-b95d-0f3fb5cd27d3" d="M1113.6,111.2a3.49,3.49,0,0,1,1.06-2.62,4.6,4.6,0,0,1,5.78,0,3.5,3.5,0,0,1,1.07,2.62,3.43,3.43,0,0,1-1.09,2.63,4.5,4.5,0,0,1-5.73,0A3.43,3.43,0,0,1,1113.6,111.2Zm7.49,33.25H1114V118h7.08Z"/><path class="b71cecd1-cda5-4859-b95d-0f3fb5cd27d3" d="M1137.89,139.25a4.64,4.64,0,0,0,3.18-1.08,3.75,3.75,0,0,0,1.26-2.85H1149a9.08,9.08,0,0,1-1.46,4.92,9.71,9.71,0,0,1-4,3.46,12.34,12.34,0,0,1-5.53,1.24,11.44,11.44,0,0,1-8.93-3.61q-3.27-3.6-3.27-9.94v-.47q0-6.1,3.24-9.74a11.37,11.37,0,0,1,8.91-3.64,11.1,11.1,0,0,1,8,2.82,10,10,0,0,1,3,7.51h-6.62a4.86,4.86,0,0,0-1.26-3.35,4.72,4.72,0,0,0-7,.51q-1.26,1.8-1.26,5.83v.73c0,2.73.42,4.68,1.25,5.87A4.3,4.3,0,0,0,1137.89,139.25Z"/><path class="b71cecd1-cda5-4859-b95d-0f3fb5cd27d3" d="M1168.29,144.45a7.9,7.9,0,0,1-.71-2.37,8.56,8.56,0,0,1-6.67,2.86,9.37,9.37,0,0,1-6.43-2.25,7.23,7.23,0,0,1-2.55-5.66,7.49,7.49,0,0,1,3.11-6.45c2.08-1.5,5.08-2.25,9-2.27h3.25V126.8a4.39,4.39,0,0,0-.94-2.93,3.69,3.69,0,0,0-3-1.1,4.22,4.22,0,0,0-2.8.85,2.92,2.92,0,0,0-1,2.35h-7a7.11,7.11,0,0,1,1.41-4.25,9.41,9.41,0,0,1,4-3.07,14.58,14.58,0,0,1,5.81-1.11,11.53,11.53,0,0,1,7.75,2.46,8.57,8.57,0,0,1,2.87,6.89v11.45a12.44,12.44,0,0,0,1.05,5.69v.42Zm-5.84-4.91a6,6,0,0,0,2.88-.7,4.59,4.59,0,0,0,2-1.86v-4.54h-2.64q-5.3,0-5.64,3.66l0,.41a2.83,2.83,0,0,0,.92,2.18A3.61,3.61,0,0,0,1162.45,139.54Z"/><path class="b71cecd1-cda5-4859-b95d-0f3fb5cd27d3" d="M1188.23,111.54V118h4.52v5.18h-4.52v13.18a3.16,3.16,0,0,0,.56,2.1,2.86,2.86,0,0,0,2.15.63A10.8,10.8,0,0,0,1193,139v5.35a14.68,14.68,0,0,1-4.27.64q-7.43,0-7.57-7.5V123.21h-3.86V118h3.86v-6.49Z"/><path class="b71cecd1-cda5-4859-b95d-0f3fb5cd27d3" d="M1196.63,111.2a3.53,3.53,0,0,1,1.06-2.62,4.6,4.6,0,0,1,5.78,0,3.5,3.5,0,0,1,1.07,2.62,3.46,3.46,0,0,1-1.08,2.63,4.51,4.51,0,0,1-5.74,0A3.43,3.43,0,0,1,1196.63,111.2Zm7.5,33.25h-7.08V118h7.08Z"/><path class="b71cecd1-cda5-4859-b95d-0f3fb5cd27d3" d="M1208.84,131a15.67,15.67,0,0,1,1.51-7,11.05,11.05,0,0,1,4.36-4.76,12.66,12.66,0,0,1,6.6-1.69,12,12,0,0,1,8.73,3.27,13.13,13.13,0,0,1,3.77,8.89l0,1.81q0,6.08-3.39,9.75a13.14,13.14,0,0,1-18.23,0q-3.4-3.66-3.4-10Zm7.05.5a9.86,9.86,0,0,0,1.42,5.75,5.08,5.08,0,0,0,8.06,0q1.44-2,1.44-6.3a9.77,9.77,0,0,0-1.44-5.72,4.69,4.69,0,0,0-4.06-2,4.59,4.59,0,0,0-4,2C1216.37,126.59,1215.89,128.68,1215.89,131.5Z"/><path class="b71cecd1-cda5-4859-b95d-0f3fb5cd27d3" d="M1244.7,118l.22,3a9.23,9.23,0,0,1,7.6-3.54c2.79,0,4.88.83,6.25,2.47s2.06,4.1,2.1,7.37v17.07h-7.06v-16.9a4.6,4.6,0,0,0-1-3.26,4.38,4.38,0,0,0-3.24-1,4.86,4.86,0,0,0-4.47,2.54v18.63h-7.06V118Z"/><path class="b71cecd1-cda5-4859-b95d-0f3fb5cd27d3" d="M1280.52,137.15a2.29,2.29,0,0,0-1.28-2,14.52,14.52,0,0,0-4.12-1.33q-9.42-2-9.42-8a7.25,7.25,0,0,1,2.92-5.87,11.75,11.75,0,0,1,7.63-2.36,12.65,12.65,0,0,1,8,2.37,7.47,7.47,0,0,1,3,6.15h-7.06a3.41,3.41,0,0,0-1-2.5,4.13,4.13,0,0,0-3-1,4.21,4.21,0,0,0-2.76.81,2.54,2.54,0,0,0-1,2.05,2.17,2.17,0,0,0,1.11,1.89,11.42,11.42,0,0,0,3.74,1.25,30.82,30.82,0,0,1,4.45,1.18q5.6,2.06,5.59,7.1a6.89,6.89,0,0,1-3.1,5.85,13.39,13.39,0,0,1-8,2.24,14,14,0,0,1-5.9-1.19,9.93,9.93,0,0,1-4-3.25,7.57,7.57,0,0,1-1.46-4.45h6.69a3.68,3.68,0,0,0,1.39,2.88,5.5,5.5,0,0,0,3.47,1,5.11,5.11,0,0,0,3.06-.77A2.39,2.39,0,0,0,1280.52,137.15Z"/></g><path class="b71cecd1-cda5-4859-b95d-0f3fb5cd27d3" d="M833,57.59,848.27,42.3V84.35L833,69.06V82.44a3.83,3.83,0,0,1-3.83,3.82H783.27a3.82,3.82,0,0,1-3.82-3.82V44.21a3.82,3.82,0,0,1,3.82-3.82h45.88A3.83,3.83,0,0,1,833,44.21V57.59m-11.47,21V74.79c0-5.08-10.21-7.64-15.3-7.64s-15.29,2.56-15.29,7.64v3.83h30.59M806.21,48a7.65,7.65,0,1,0,7.65,7.65A7.65,7.65,0,0,0,806.21,48Z"/><path class="b71cecd1-cda5-4859-b95d-0f3fb5cd27d3" d="M842,147.87V151h-56.3v-3.13l6.25-6.25V122.85a21.86,21.86,0,0,1,15.64-21V101a6.26,6.26,0,1,1,12.52,0v.91a21.86,21.86,0,0,1,15.64,21v18.77l6.25,6.25m-21.89,6.26a6.26,6.26,0,0,1-12.52,0m30.5-55.71-4.44,4.44a28.09,28.09,0,0,1,8.35,20h6.26A34.27,34.27,0,0,0,838.1,98.42m-58.65,24.43h6.26a28.09,28.09,0,0,1,8.35-20l-4.44-4.44A34.27,34.27,0,0,0,779.45,122.85Z"/></svg>