<svg id="b1bb4cc5-2f09-4774-9b90-6516a24169fe" data-name="Ebene 1" xmlns="http://www.w3.org/2000/svg" viewBox="0 0 1680 200"><defs><style>.ab81be1a-26ff-4dcf-8555-4becebaae2e5{fill:none;stroke:#ccc;stroke-miterlimit:10;}.b61f8e99-1ad3-418a-b06f-9aeda7627ac3{fill:#f9b213;}.f95c1c8a-0100-4543-8da8-bbd03c226217{fill:#007afe;}</style></defs><title>HOOBS_x_kuna</title><g id="e0e5eafc-d9b5-4a56-b9cc-0b2590db3c21" data-name="Stroke"><line class="ab81be1a-26ff-4dcf-8555-4becebaae2e5" x1="700.5" y1="60" x2="700.5" y2="140"/></g><path class="b61f8e99-1ad3-418a-b06f-9aeda7627ac3" d="M154.17,41.5h-78A19.5,19.5,0,0,0,56.67,61v78a19.5,19.5,0,0,0,19.5,19.5h78a19.5,19.5,0,0,0,19.5-19.5V61A19.5,19.5,0,0,0,154.17,41.5Zm2,59.26a3.24,3.24,0,0,1-4.59,0,3.21,3.21,0,0,1-.95-2.09l-8.82-8.82V69.92a1.63,1.63,0,0,0-1.63-1.63h-3.25a1.63,1.63,0,0,0-1.62,1.63V83.6l-4.88-5.13-15-15a1.62,1.62,0,0,0-2.3,0L78.59,97.89a1.64,1.64,0,0,0,0,2.3l2.3,2.3a1.64,1.64,0,0,0,2.3,0l26.43-26.43a6.49,6.49,0,0,1,9.19,0l26.43,26.43a6.51,6.51,0,0,1,0,9.19l-2.3,2.3a6.49,6.49,0,0,1-9.19,0L115.36,95.59a1.64,1.64,0,0,0-2.3,0L94.68,114a1.62,1.62,0,0,0,0,2.3l2.3,2.29a1.61,1.61,0,0,0,2.29,0l10.35-10.34a6.49,6.49,0,0,1,9.19,0l10.34,10.34a6.51,6.51,0,0,1,0,9.2L118,138.89a3.21,3.21,0,0,1-1,2.09,3.25,3.25,0,1,1-2.5-5.54l11.12-11.12a1.62,1.62,0,0,0,0-2.3l-10.34-10.34a1.62,1.62,0,0,0-2.3,0L102.72,122a6.49,6.49,0,0,1-9.19,0l-2.3-2.3a6.49,6.49,0,0,1,0-9.19l18.39-18.38a6.49,6.49,0,0,1,9.19,0l18.38,18.38a1.64,1.64,0,0,0,2.3,0l2.3-2.3a1.64,1.64,0,0,0,0-2.3L115.36,79.51a1.62,1.62,0,0,0-2.3,0L86.63,105.93a6.49,6.49,0,0,1-9.19,0l-2.3-2.29a6.52,6.52,0,0,1,0-9.2L109.62,60a6.49,6.49,0,0,1,9.19,0l11.6,11.61V69.92a6.5,6.5,0,0,1,6.5-6.5h3.25a6.5,6.5,0,0,1,6.5,6.5V87.83l7.4,7.39a3.25,3.25,0,0,1,2.09,5.54Z"/><path class="b61f8e99-1ad3-418a-b06f-9aeda7627ac3" d="M612.42,61H624.1v3.65h-3.71v11H616.1v-11h-3.68Zm13.09,0h4.72l3.34,7.78L637,61h4.72V75.62h-3.85V67.39l-2.77,6.81h-2.92l-2.77-6.81v8.23h-3.85Z"/><path class="b61f8e99-1ad3-418a-b06f-9aeda7627ac3" d="M271.65,61v78H254.31V107h-34v32H202.92V61h17.35V91.75h34V61Zm10.65,39c0-22.41,16.77-39,39.65-39s39.64,16.48,39.64,39S344.72,139,322,139,282.3,122.41,282.3,100Zm62.09.39c0-14.19-9.63-23.9-22.44-23.9s-22.45,9.71-22.45,23.9,9.64,23.89,22.45,23.89S344.39,114.57,344.39,100.39ZM368.8,100c0-22.41,16.77-39,39.65-39s39.64,16.48,39.64,39-16.87,39-39.64,39S368.8,122.41,368.8,100Zm62.09.39c0-14.19-9.63-23.9-22.44-23.9S386,86.2,386,100.39s9.64,23.89,22.45,23.89S430.89,114.57,430.89,100.39Zm96.58,17.33c0,13.48-10.28,21.28-30,21.28H458.74V61h36.61c18.74,0,28.38,8.13,28.38,20.28a18.86,18.86,0,0,1-10,17.16C522.12,101.23,527.47,107.91,527.47,117.72ZM476.71,76.06V93.67h16.5c8.1,0,12.5-3,12.5-8.86s-4.4-8.75-12.5-8.75Zm32.59,39.47c0-6.29-4.61-9.28-13.22-9.28H476.71v18.46h19.37C504.69,124.71,509.3,121.93,509.3,115.53Zm23.38,14.74,5.69-13.14A41.52,41.52,0,0,0,562.28,125c9.94,0,14-3.44,14-8.08,0-14.11-42.13-4.41-42.13-32.42,0-12.82,9.94-23.49,30.53-23.49,9.11,0,18.43,2.26,25.16,6.68l-5.18,13.25A39.67,39.67,0,0,0,564.56,75c-9.94,0-13.77,3.87-13.77,8.61,0,13.9,42.13,4.31,42.13,32,0,12.61-10,23.38-30.74,23.38C550.69,139,539.1,135.44,532.68,130.27Z"/><g id="f699464b-a61b-4649-b75a-ad2e2c688c8f" data-name="kuna"><path class="f95c1c8a-0100-4543-8da8-bbd03c226217" d="M1029.91,101.3V57.48c0-10.79,5-15.82,15.62-15.83,11.58,0,11.58,0,11.58,11.4,0,33.79-.07,67.59.1,101.38,0,4.07-1,5.32-5.17,5.22-15.88-.37-14.71,2-25-13.15-10-14.67-20.14-29.27-30.23-43.89-.59-.85-1.28-1.63-2.74-3.46v45.73c0,9.82-4.85,14.67-14.54,14.67-2.81,0-5.65-.21-8.44,0-3.39.32-4.27-1.07-4.24-4.26.13-14.48,0-29,0-43.45,0-21.49.11-43-.08-64.48,0-4.36,1.13-5.48,5.67-6,11.25-1.21,18.28,3.16,24.18,12.65,9.54,15.33,20.35,29.88,30.63,44.75C1027.84,99.67,1028.11,100.77,1029.91,101.3Z"/><path class="f95c1c8a-0100-4543-8da8-bbd03c226217" d="M1067.3,117.65c0-12.14-.32-24.29.07-36.41.65-20.11,19.41-40.79,44.82-39.7,21.49.92,40.36,19.54,40.45,41.24.11,24.12,0,48.24.1,72.36,0,3.42-.76,4.84-4.39,4.47a40,40,0,0,0-8.89,0c-8.22,1-14-6.57-14-13.52.06-6.22-.15-12.45.08-18.67.11-3-.9-3.71-3.71-3.59-5.15.21-10.32-.12-15.47.12-3.57.17-4.63-1.2-4.48-4.62.23-5.44.12-10.89,0-16.34,0-3.11.57-4.53,4.34-3.71,9.31,2,17.79-3.76,19.13-12.56,1.32-8.6-4.89-17-13.2-17.9-9.82-1-17.6,5.21-17.78,15.28-.36,20.38-.2,40.77-.16,61.16,0,5.39-1.84,9.63-6.34,12.75-3.12,2.17-6.6,1.5-10,1.51-10.87.07-10.87,0-10.87-10.59V117.65Z"/><path class="f95c1c8a-0100-4543-8da8-bbd03c226217" d="M956.82,83.05c0,11.37.08,22.73,0,34.1-.18,19.51-13.2,37-31.82,41.34-30.24,7-53.25-14.32-53.75-40.53-.46-24,0-48-.16-71.94,0-3.6,1.37-4.67,4.73-4.41,2.79.21,5.62,0,8.43,0,8.66.08,14,5.36,14,14,0,20.24-.07,40.48,0,60.73.07,11,9,18.39,19.21,16.12,7.36-1.64,12.08-7.83,12.1-16.2.06-19.62,0-39.24,0-58.86,0-10.89,4.82-15.74,15.6-15.75,11.55,0,11.55,0,11.55,11.5Z"/><path class="f95c1c8a-0100-4543-8da8-bbd03c226217" d="M807.16,83c13.12-13.82,25.25-26.57,37.34-39.36,4.51-4.78,4.47-4.82,9.41-.32,12.5,11.38,12.61,16.79,1.07,28.84-15.31,16-30.46,32.13-45.73,48.16a7,7,0,0,0-2.13,5.38c.12,6.23.08,12.46,0,18.69-.08,10.22-5,15.16-15.16,15.16a79,79,0,0,0-8,0c-3.44.36-4.11-1.13-4.1-4.25q.12-54.64,0-109.3c0-3.49,1-4.81,4.5-4.45,2.48.25,5,0,7.5,0,9.73,0,15.06,5.14,15.21,14.88C807.26,64.88,807.16,73.24,807.16,83Z"/><path class="f95c1c8a-0100-4543-8da8-bbd03c226217" d="M859.41,159.54c-7.85,2-12.92-2.89-17.22-10.09-5.73-9.61-12-18.92-18.12-28.28-1.48-2.25-1.88-4,.22-6.08,4.71-4.76,9.29-9.66,13.84-14.57,2.22-2.4,3.85-2,5.5.63,8.13,12.7,16.38,25.34,24.44,38.09,3.69,5.82,1.76,12.42,2,18.7,0,1.44-1.2,1.6-2.35,1.6Z"/></g></svg>