<svg id="bda0ff8b-8d56-4280-9f36-ad691bd8eda1" data-name="Ebene 1" xmlns="http://www.w3.org/2000/svg" viewBox="0 0 1680 200"><defs><style>.a50f46f6-31ea-4dff-84f1-22aa77cb0b3a,.b7022050-7157-48c8-a6ce-891069490724,.e64b44cf-5453-4d60-8413-90c0b9a853a9{fill:none;stroke-miterlimit:10;}.a50f46f6-31ea-4dff-84f1-22aa77cb0b3a{stroke:#ccc;}.bc90846e-b1e2-403c-b6eb-373a7aa42a5e{fill:#f9b213;}.b7022050-7157-48c8-a6ce-891069490724,.e64b44cf-5453-4d60-8413-90c0b9a853a9{stroke:#873e8b;}.b7022050-7157-48c8-a6ce-891069490724{stroke-width:3px;}.ba9df793-3117-4d66-8778-abe418302b6a{fill:#873e8b;}.e64b44cf-5453-4d60-8413-90c0b9a853a9{stroke-width:2px;}</style></defs><title>HOOBS_x_mqtt</title><g id="a8f3d708-a260-4f7f-9daa-6573b3e5a858" data-name="Stroke"><line class="a50f46f6-31ea-4dff-84f1-22aa77cb0b3a" x1="700.5" y1="60" x2="700.5" y2="140"/></g><path class="bc90846e-b1e2-403c-b6eb-373a7aa42a5e" d="M154.17,41.5h-78A19.5,19.5,0,0,0,56.67,61v78a19.5,19.5,0,0,0,19.5,19.5h78a19.5,19.5,0,0,0,19.5-19.5V61A19.5,19.5,0,0,0,154.17,41.5Zm2,59.26a3.24,3.24,0,0,1-4.59,0,3.21,3.21,0,0,1-.95-2.09l-8.82-8.82V69.92a1.63,1.63,0,0,0-1.63-1.63h-3.25a1.63,1.63,0,0,0-1.62,1.63V83.6l-4.88-5.13-15-15a1.62,1.62,0,0,0-2.3,0L78.59,97.89a1.64,1.64,0,0,0,0,2.3l2.3,2.3a1.64,1.64,0,0,0,2.3,0l26.43-26.43a6.49,6.49,0,0,1,9.19,0l26.43,26.43a6.51,6.51,0,0,1,0,9.19l-2.3,2.3a6.49,6.49,0,0,1-9.19,0L115.36,95.59a1.64,1.64,0,0,0-2.3,0L94.68,114a1.62,1.62,0,0,0,0,2.3l2.3,2.29a1.61,1.61,0,0,0,2.29,0l10.35-10.34a6.49,6.49,0,0,1,9.19,0l10.34,10.34a6.51,6.51,0,0,1,0,9.2L118,138.89a3.21,3.21,0,0,1-1,2.09,3.25,3.25,0,1,1-2.5-5.54l11.12-11.12a1.62,1.62,0,0,0,0-2.3l-10.34-10.34a1.62,1.62,0,0,0-2.3,0L102.72,122a6.49,6.49,0,0,1-9.19,0l-2.3-2.3a6.49,6.49,0,0,1,0-9.19l18.39-18.38a6.49,6.49,0,0,1,9.19,0l18.38,18.38a1.64,1.64,0,0,0,2.3,0l2.3-2.3a1.64,1.64,0,0,0,0-2.3L115.36,79.51a1.62,1.62,0,0,0-2.3,0L86.63,105.93a6.49,6.49,0,0,1-9.19,0l-2.3-2.29a6.52,6.52,0,0,1,0-9.2L109.62,60a6.49,6.49,0,0,1,9.19,0l11.6,11.61V69.92a6.5,6.5,0,0,1,6.5-6.5h3.25a6.5,6.5,0,0,1,6.5,6.5V87.83l7.4,7.39a3.25,3.25,0,0,1,2.09,5.54Z"/><path class="bc90846e-b1e2-403c-b6eb-373a7aa42a5e" d="M612.42,61H624.1v3.65h-3.71v11H616.1v-11h-3.68Zm13.09,0h4.72l3.34,7.78L637,61h4.72V75.62h-3.85V67.39l-2.77,6.81h-2.92l-2.77-6.81v8.23h-3.85Z"/><path class="bc90846e-b1e2-403c-b6eb-373a7aa42a5e" d="M271.65,61v78H254.31V107h-34v32H202.92V61h17.35V91.75h34V61Zm10.65,39c0-22.41,16.77-39,39.65-39s39.64,16.48,39.64,39S344.72,139,322,139,282.3,122.41,282.3,100Zm62.09.39c0-14.19-9.63-23.9-22.44-23.9s-22.45,9.71-22.45,23.9,9.64,23.89,22.45,23.89S344.39,114.57,344.39,100.39ZM368.8,100c0-22.41,16.77-39,39.65-39s39.64,16.48,39.64,39-16.87,39-39.64,39S368.8,122.41,368.8,100Zm62.09.39c0-14.19-9.63-23.9-22.44-23.9S386,86.2,386,100.39s9.64,23.89,22.45,23.89S430.89,114.57,430.89,100.39Zm96.58,17.33c0,13.48-10.28,21.28-30,21.28H458.74V61h36.61c18.74,0,28.38,8.13,28.38,20.28a18.86,18.86,0,0,1-10,17.16C522.12,101.23,527.47,107.91,527.47,117.72ZM476.71,76.06V93.67h16.5c8.1,0,12.5-3,12.5-8.86s-4.4-8.75-12.5-8.75Zm32.59,39.47c0-6.29-4.61-9.28-13.22-9.28H476.71v18.46h19.37C504.69,124.71,509.3,121.93,509.3,115.53Zm23.38,14.74,5.69-13.14A41.52,41.52,0,0,0,562.28,125c9.94,0,14-3.44,14-8.08,0-14.11-42.13-4.41-42.13-32.42,0-12.82,9.94-23.49,30.53-23.49,9.11,0,18.43,2.26,25.16,6.68l-5.18,13.25A39.67,39.67,0,0,0,564.56,75c-9.94,0-13.77,3.87-13.77,8.61,0,13.9,42.13,4.31,42.13,32,0,12.61-10,23.38-30.74,23.38C550.69,139,539.1,135.44,532.68,130.27Z"/><g id="a235ed3e-748b-4c96-8a93-5ffb9bd4225b" data-name="mqtt"><path class="b7022050-7157-48c8-a6ce-891069490724" d="M896.3,131.06a25.87,25.87,0,0,1-25.8,25.79H805.85a25.88,25.88,0,0,1-25.8-25.79V66.4a25.88,25.88,0,0,1,25.8-25.79H870.5A25.87,25.87,0,0,1,896.3,66.4Z"/><path class="ba9df793-3117-4d66-8778-abe418302b6a" d="M841.06,155.71v1.14H801.34a21.2,21.2,0,0,1-21.18-21.13l-.11-41A61,61,0,0,1,841.06,155.71Z"/><path class="e64b44cf-5453-4d60-8413-90c0b9a853a9" d="M780.05,70.4a84.85,84.85,0,0,1,84.87,84.85h0v1.59M803.54,40a117.12,117.12,0,0,1,92.16,96.91m-26.41-96.6a144.71,144.71,0,0,1,26.78,28.38"/><path class="ba9df793-3117-4d66-8778-abe418302b6a" d="M1090.58,49.33V63.05s-1-13.72-34.29-13.72-42.12,29.39-42.12,29.39V51.29H982.82l-16.66,56.82-16.65-57.8H918.16V150.39l21.54-1.14V88.52l15.68,60.73H976l17.63-63.67v64.65h20.58V124.76s19.59,27.43,39.18,27.43,26.45-4.9,26.45-4.9,4.9,3.93,8.81,6.86a77.06,77.06,0,0,0,9.8,5.85l10.17-15.34c-4.9-2-14.08-10.1-14.08-10.1S1106,120.85,1106,103.22s-8.58-32.31-8.58-32.31H1117v79.35h24.49V69.91h50v81.3H1218V70.91h26.45V49.33Zm-13.27,76.48c-1.48,2.12-15.46-13.7-15.75-13.41l-9.6,12.79c-.77.34,13.12,10.3,12.32,10.53a19.53,19.53,0,0,1-5.54.8c-13.8,0-25-14.47-25-32.33s11.2-32.28,25-32.28,25,14.47,25,32.32A37.91,37.91,0,0,1,1077.31,125.81Z"/></g></svg>