<svg id="a1f7aa72-14b6-4289-b4cf-480ebc6dc7fb" data-name="Ebene 1" xmlns="http://www.w3.org/2000/svg" viewBox="0 0 1680 200"><defs><style>.b120c80f-b116-4374-b015-1be040531fb8{fill:none;stroke:#ccc;stroke-miterlimit:10;}.bb77effd-3571-45ef-8166-a16cb7415178{fill:#f9b213;}.ac901df7-6478-4c7e-8d66-4bbbb67291a1{isolation:isolate;}.b33f8f6c-798e-45e6-817a-6a916b9ef52f{fill:#ccc;}.f274f299-6b90-45b9-9a4e-3b00d81914a4{fill:#42a6ea;}.b07526fe-6822-4899-9f3b-687ee88d2a74{fill:#43a7ea;}.b6b5ca62-09f1-41e8-95c7-d316f7b9bea4{fill:#fdfdfe;}</style></defs><title>HOOBS_x_messenger</title><g id="baf8f9a5-f871-4dd2-b75d-9a1738dc41a1" data-name="Stroke"><line class="b120c80f-b116-4374-b015-1be040531fb8" x1="700.5" y1="60" x2="700.5" y2="140"/></g><path class="bb77effd-3571-45ef-8166-a16cb7415178" d="M154.17,41.5h-78A19.5,19.5,0,0,0,56.67,61v78a19.5,19.5,0,0,0,19.5,19.5h78a19.5,19.5,0,0,0,19.5-19.5V61A19.5,19.5,0,0,0,154.17,41.5Zm2,59.26a3.24,3.24,0,0,1-4.59,0,3.21,3.21,0,0,1-.95-2.09l-8.82-8.82V69.92a1.63,1.63,0,0,0-1.63-1.63h-3.25a1.63,1.63,0,0,0-1.62,1.63V83.6l-4.88-5.13-15-15a1.62,1.62,0,0,0-2.3,0L78.59,97.89a1.64,1.64,0,0,0,0,2.3l2.3,2.3a1.64,1.64,0,0,0,2.3,0l26.43-26.43a6.49,6.49,0,0,1,9.19,0l26.43,26.43a6.51,6.51,0,0,1,0,9.19l-2.3,2.3a6.49,6.49,0,0,1-9.19,0L115.36,95.59a1.64,1.64,0,0,0-2.3,0L94.68,114a1.62,1.62,0,0,0,0,2.3l2.3,2.29a1.61,1.61,0,0,0,2.29,0l10.35-10.34a6.49,6.49,0,0,1,9.19,0l10.34,10.34a6.51,6.51,0,0,1,0,9.2L118,138.89a3.21,3.21,0,0,1-1,2.09,3.25,3.25,0,1,1-2.5-5.54l11.12-11.12a1.62,1.62,0,0,0,0-2.3l-10.34-10.34a1.62,1.62,0,0,0-2.3,0L102.72,122a6.49,6.49,0,0,1-9.19,0l-2.3-2.3a6.49,6.49,0,0,1,0-9.19l18.39-18.38a6.49,6.49,0,0,1,9.19,0l18.38,18.38a1.64,1.64,0,0,0,2.3,0l2.3-2.3a1.64,1.64,0,0,0,0-2.3L115.36,79.51a1.62,1.62,0,0,0-2.3,0L86.63,105.93a6.49,6.49,0,0,1-9.19,0l-2.3-2.29a6.52,6.52,0,0,1,0-9.2L109.62,60a6.49,6.49,0,0,1,9.19,0l11.6,11.61V69.92a6.5,6.5,0,0,1,6.5-6.5h3.25a6.5,6.5,0,0,1,6.5,6.5V87.83l7.4,7.39a3.25,3.25,0,0,1,2.09,5.54Z"/><path class="bb77effd-3571-45ef-8166-a16cb7415178" d="M612.42,61H624.1v3.65h-3.71v11H616.1v-11h-3.68Zm13.09,0h4.72l3.34,7.78L637,61h4.72V75.62h-3.85V67.39l-2.77,6.81h-2.92l-2.77-6.81v8.23h-3.85Z"/><path class="bb77effd-3571-45ef-8166-a16cb7415178" d="M271.65,61v78H254.31V107h-34v32H202.92V61h17.35V91.75h34V61Zm10.65,39c0-22.41,16.77-39,39.65-39s39.64,16.48,39.64,39S344.72,139,322,139,282.3,122.41,282.3,100Zm62.09.39c0-14.19-9.63-23.9-22.44-23.9s-22.45,9.71-22.45,23.9,9.64,23.89,22.45,23.89S344.39,114.57,344.39,100.39ZM368.8,100c0-22.41,16.77-39,39.65-39s39.64,16.48,39.64,39-16.87,39-39.64,39S368.8,122.41,368.8,100Zm62.09.39c0-14.19-9.63-23.9-22.44-23.9S386,86.2,386,100.39s9.64,23.89,22.45,23.89S430.89,114.57,430.89,100.39Zm96.58,17.33c0,13.48-10.28,21.28-30,21.28H458.74V61h36.61c18.74,0,28.38,8.13,28.38,20.28a18.86,18.86,0,0,1-10,17.16C522.12,101.23,527.47,107.91,527.47,117.72ZM476.71,76.06V93.67h16.5c8.1,0,12.5-3,12.5-8.86s-4.4-8.75-12.5-8.75Zm32.59,39.47c0-6.29-4.61-9.28-13.22-9.28H476.71v18.46h19.37C504.69,124.71,509.3,121.93,509.3,115.53Zm23.38,14.74,5.69-13.14A41.52,41.52,0,0,0,562.28,125c9.94,0,14-3.44,14-8.08,0-14.11-42.13-4.41-42.13-32.42,0-12.82,9.94-23.49,30.53-23.49,9.11,0,18.43,2.26,25.16,6.68l-5.18,13.25A39.67,39.67,0,0,0,564.56,75c-9.94,0-13.77,3.87-13.77,8.61,0,13.9,42.13,4.31,42.13,32,0,12.61-10,23.38-30.74,23.38C550.69,139,539.1,135.44,532.68,130.27Z"/><g class="ac901df7-6478-4c7e-8d66-4bbbb67291a1"><path class="b33f8f6c-798e-45e6-817a-6a916b9ef52f" d="M953,73.8l9.13,25.78,9.08-25.78h9.62v35.54h-7.35V99.63l.73-16.77-9.59,26.48h-5L950,82.88l.73,16.75v9.71h-7.32V73.8Z"/><path class="b33f8f6c-798e-45e6-817a-6a916b9ef52f" d="M998.87,109.83a13,13,0,0,1-9.46-3.56,12.69,12.69,0,0,1-3.65-9.5v-.68A15.92,15.92,0,0,1,987.3,89a11.25,11.25,0,0,1,4.36-4.83,12.23,12.23,0,0,1,6.43-1.7,11,11,0,0,1,8.53,3.42q3.12,3.42,3.11,9.69v2.88H992.91a6.54,6.54,0,0,0,2.07,4.15,6.22,6.22,0,0,0,4.35,1.56,7.62,7.62,0,0,0,6.38-3l3.46,3.88a10.64,10.64,0,0,1-4.29,3.51A14.24,14.24,0,0,1,998.87,109.83Zm-.81-21.7a4.39,4.39,0,0,0-3.4,1.42A7.36,7.36,0,0,0,993,93.62h9.81v-.56a5.24,5.24,0,0,0-1.27-3.64A4.54,4.54,0,0,0,998.06,88.13Z"/><path class="b33f8f6c-798e-45e6-817a-6a916b9ef52f" d="M1028,102a2.25,2.25,0,0,0-1.28-2,14.32,14.32,0,0,0-4.11-1.33q-9.42-2-9.42-8a7.25,7.25,0,0,1,2.91-5.87,11.79,11.79,0,0,1,7.63-2.36,12.68,12.68,0,0,1,8,2.37,7.46,7.46,0,0,1,3,6.15h-7a3.41,3.41,0,0,0-1-2.5,4.13,4.13,0,0,0-3-1,4.21,4.21,0,0,0-2.76.81,2.54,2.54,0,0,0-1,2,2.17,2.17,0,0,0,1.11,1.89,11.45,11.45,0,0,0,3.75,1.24,30.2,30.2,0,0,1,4.44,1.19q5.6,2,5.6,7.1a6.9,6.9,0,0,1-3.11,5.85,13.33,13.33,0,0,1-8,2.23,14,14,0,0,1-5.9-1.18,9.87,9.87,0,0,1-4-3.25,7.5,7.5,0,0,1-1.46-4.45h6.68a3.69,3.69,0,0,0,1.4,2.88,5.47,5.47,0,0,0,3.46,1,5.15,5.15,0,0,0,3.07-.77A2.38,2.38,0,0,0,1028,102Z"/><path class="b33f8f6c-798e-45e6-817a-6a916b9ef52f" d="M1053.75,102a2.25,2.25,0,0,0-1.28-2,14.32,14.32,0,0,0-4.11-1.33q-9.43-2-9.43-8a7.26,7.26,0,0,1,2.92-5.87,11.79,11.79,0,0,1,7.63-2.36,12.65,12.65,0,0,1,8,2.37,7.44,7.44,0,0,1,3,6.15h-7.06a3.41,3.41,0,0,0-1-2.5,4.13,4.13,0,0,0-3-1,4.21,4.21,0,0,0-2.76.81,2.54,2.54,0,0,0-1,2,2.17,2.17,0,0,0,1.11,1.89,11.45,11.45,0,0,0,3.75,1.24,30.2,30.2,0,0,1,4.44,1.19q5.6,2,5.59,7.1a6.89,6.89,0,0,1-3.1,5.85,13.34,13.34,0,0,1-8,2.23,14,14,0,0,1-5.89-1.18,9.8,9.8,0,0,1-4-3.25,7.51,7.51,0,0,1-1.47-4.45h6.69a3.71,3.71,0,0,0,1.39,2.88,5.52,5.52,0,0,0,3.47,1,5.17,5.17,0,0,0,3.07-.77A2.38,2.38,0,0,0,1053.75,102Z"/><path class="b33f8f6c-798e-45e6-817a-6a916b9ef52f" d="M1077.31,109.83a13,13,0,0,1-9.46-3.56,12.69,12.69,0,0,1-3.65-9.5v-.68a15.92,15.92,0,0,1,1.54-7.12,11.31,11.31,0,0,1,4.36-4.83,12.23,12.23,0,0,1,6.43-1.7,11,11,0,0,1,8.53,3.42q3.12,3.42,3.12,9.69v2.88h-16.82a6.48,6.48,0,0,0,2.06,4.15,6.25,6.25,0,0,0,4.36,1.56,7.62,7.62,0,0,0,6.37-3l3.47,3.88a10.67,10.67,0,0,1-4.3,3.51A14.24,14.24,0,0,1,1077.31,109.83Zm-.8-21.7a4.41,4.41,0,0,0-3.41,1.42,7.36,7.36,0,0,0-1.67,4.07h9.81v-.56a5.19,5.19,0,0,0-1.27-3.64A4.53,4.53,0,0,0,1076.51,88.13Z"/><path class="b33f8f6c-798e-45e6-817a-6a916b9ef52f" d="M1098.67,82.93l.22,3a9.23,9.23,0,0,1,7.6-3.54q4.2,0,6.25,2.47t2.1,7.37v17.06h-7.06V92.45a4.54,4.54,0,0,0-1-3.26,4.38,4.38,0,0,0-3.24-1,4.84,4.84,0,0,0-4.47,2.54v18.62H1092V82.93Z"/><path class="b33f8f6c-798e-45e6-817a-6a916b9ef52f" d="M1119.16,95.94q0-6.07,2.89-9.79a9.39,9.39,0,0,1,7.8-3.71,8.2,8.2,0,0,1,6.76,3l.3-2.49h6.39v25.54a11.29,11.29,0,0,1-1.57,6,10.08,10.08,0,0,1-4.43,3.9,15.54,15.54,0,0,1-6.69,1.35,14.39,14.39,0,0,1-5.67-1.17,9.9,9.9,0,0,1-4.17-3l3.12-4.29a8.26,8.26,0,0,0,6.4,3,6.05,6.05,0,0,0,4.37-1.5,5.63,5.63,0,0,0,1.56-4.26v-1.42a8.14,8.14,0,0,1-6.42,2.76,9.35,9.35,0,0,1-7.7-3.72q-2.94-3.72-2.94-9.88Zm7,.53a9.63,9.63,0,0,0,1.44,5.63,4.59,4.59,0,0,0,4,2,4.87,4.87,0,0,0,4.61-2.42V90.6a4.88,4.88,0,0,0-4.56-2.42,4.59,4.59,0,0,0-4,2.08Q1126.22,92.33,1126.21,96.47Z"/><path class="b33f8f6c-798e-45e6-817a-6a916b9ef52f" d="M1160.88,109.83a13,13,0,0,1-9.46-3.56,12.69,12.69,0,0,1-3.65-9.5v-.68a15.92,15.92,0,0,1,1.54-7.12,11.25,11.25,0,0,1,4.36-4.83,12.23,12.23,0,0,1,6.43-1.7,11,11,0,0,1,8.53,3.42q3.12,3.42,3.12,9.69v2.88h-16.83a6.54,6.54,0,0,0,2.07,4.15,6.25,6.25,0,0,0,4.36,1.56,7.62,7.62,0,0,0,6.37-3l3.46,3.88a10.57,10.57,0,0,1-4.29,3.51A14.24,14.24,0,0,1,1160.88,109.83Zm-.8-21.7a4.41,4.41,0,0,0-3.41,1.42,7.36,7.36,0,0,0-1.67,4.07h9.81v-.56a5.19,5.19,0,0,0-1.27-3.64A4.53,4.53,0,0,0,1160.08,88.13Z"/><path class="b33f8f6c-798e-45e6-817a-6a916b9ef52f" d="M1190.59,89.54a20.87,20.87,0,0,0-2.54-.19q-4,0-5.24,2.71v17.28h-7.06V82.93h6.67l.19,3.15a6.54,6.54,0,0,1,5.88-3.64,7.4,7.4,0,0,1,2.2.32Z"/></g><path class="f274f299-6b90-45b9-9a4e-3b00d81914a4" d="M1440.52,69.54c-2,.43-3.93.89-5.9,1.3-1.13.24-1.09,1.27-1.37,2-2.73,7.28-6.63,13.74-13.08,18.38A18.51,18.51,0,0,1,1408.63,95c-4.6-.12-8.48-1.34-9.87-6.56-1.37,1.2-2.55,2.31-3.82,3.32a14.24,14.24,0,0,1-9.21,3.25c-5.91-.07-8.55-3.47-7-9.23,1.11-4.28,3.25-8.13,5.06-12.12a44,44,0,0,0,3.1-7.8c.31-1.28.6-2.66-.59-3.6s-2.63-.43-3.85.26a12.93,12.93,0,0,0-5.29,6.38c-3.54,7.87-7.08,15.74-10.52,23.65-.66,1.53-1.46,2.18-3.2,2a72.66,72.66,0,0,0-7.38,0c-1.42.05-1.84-.26-1.16-1.68,1.13-2.31,2.11-4.7,3.14-7-.68-.57-1,0-1.38.25-3.27,2-6.47,4.07-9.8,6a20.17,20.17,0,0,1-14.6,2.53,7.05,7.05,0,0,1-5.07-3.72c-.6-1.21-1-1.17-2-.34a17.1,17.1,0,0,1-9.7,4.43c-5.37.51-7.51-1.29-7.93-6.72-1,.35-1.52,1.27-2.22,1.9-3.33,3-7,5.08-11.67,4.87-4.11-.18-6.46-2.83-6.19-6.91a22.39,22.39,0,0,1,2.14-7.63c3.52-8,7.1-15.89,10.58-23.86a2.46,2.46,0,0,1,2.73-1.79c3.08.13,6.18,0,9.58,0-2.34,5.31-4.57,10.35-6.81,15.39q-2.49,5.63-5,11.23c-.17.4-.35.8-.48,1.21-.45,1.42-1.3,3.16.09,4.2s3.22.21,4.61-.77a13.74,13.74,0,0,0,4.53-5.94c3.42-7.68,6.93-15.33,10.23-23.06.79-1.86,1.77-2.44,3.7-2.3a57.39,57.39,0,0,0,6.94,0c1.64-.07,1.82.39,1.18,1.81-3.69,8.2-7.31,16.43-11,24.64a9.29,9.29,0,0,0-.6,1.38c-.36,1.51-1.67,3.23.42,4.39,1.78,1,5.35-.26,6-2.17,1.07-3.24,3.16-5.41,5.86-7.46,2.06-1.55,3.41-4,5-6.21a149.18,149.18,0,0,0,9.59-15.64,3.12,3.12,0,0,1,2.65-1.83c3-.33,6-.71,9-1.11,1.12-.15,1.42.31,1.24,1.33q-2.33,13.47-4.64,27c-.16.9-.5,1.78-.87,3.07,2.81-1.37,5.64-2.15,7-5.13q8.17-18.32,16.38-36.62c.35-.78.53-1.64,1.64-1.77,3.63-.45,7.25-.94,11.31-1.46l-8.57,19.1a21.73,21.73,0,0,1,8.24-3.4,11,11,0,0,1,4.29.15c3.33.81,4.92,3.12,4.57,6.52a27.11,27.11,0,0,1-2.58,8.41c-1.4,3.08-2.91,6.11-4.33,9.17-.6,1.31-1.16,2.64-1.63,4s-1.06,2.79.19,3.81,2.94.72,4.32,0a9.27,9.27,0,0,0,4.68-5.66c2.75-8.79,7.33-16.4,14.77-22.08a21.47,21.47,0,0,1,13.29-4.55c5.62,0,8.54,3.3,7.88,8.87-.48,4.13-.43,4.12,3.78,3.2,2.3-.5,3.84-1.53,4.62-3.89s1.89-4.34,2.82-6.52c.34-.8.73-1.3,1.73-1.28,3.33.05,6.65,0,10.32,0-1.73,3.93-3.34,7.65-5,11.37-2.4,5.38-4.86,10.74-7.18,16.16-.59,1.36-1.85,3.05-.32,4.36s3.32.43,4.87-.38a20.48,20.48,0,0,0,6.43-5.71,60.17,60.17,0,0,0,9.51-17.33c.43-1.19.93-2.3-1.29-1.8-1.79.4-2.68-.68-2.78-2.42a5.74,5.74,0,0,1,7.37-5.64c2,.62,2.91,2.49,2.46,5.13a42.29,42.29,0,0,1-2.44,8.47c-3.48,8.81-8.08,16.89-15.63,23-4.11,3.3-8.74,5.28-14.18,5-5.08-.27-7.47-3.11-6.78-8.07.57-4.15,2.83-7.65,4.3-11.46.77-2,2.07-3.77,2.29-6l.21-.13s-.1,0-.12,0A.59.59,0,0,0,1440.52,69.54ZM1411,83.8c-.09,3.14,1.42,4.29,4,3.61a7.71,7.71,0,0,0,3.16-1.82c4.07-3.67,6.56-8.33,8.57-13.31a1.15,1.15,0,0,0,0-1.19c-1.57-2.64-1.16-5.26,1.31-6.78,1.89-1.16,1.51-2.77,1-4.11s-2.15-1.09-3.43-.62a8.35,8.35,0,0,0-2.86,1.91,37.6,37.6,0,0,0-6.85,9.12C1413.48,74.9,1411.49,79.35,1411,83.8Zm-65.3-19.65c-2.86,4.33-5.78,8.49-8.84,12.55a1,1,0,0,0-.12,1.31,4.17,4.17,0,0,1-4.16,6.1c-2-.3-1.83.7-1.71,1.87a2.79,2.79,0,0,0,2.42,2.63,8.14,8.14,0,0,0,9.57-5.82C1344.66,76.74,1344.75,70.39,1345.66,64.15Z"/><path class="f274f299-6b90-45b9-9a4e-3b00d81914a4" d="M1496.48,86.72a50.17,50.17,0,0,1-9,5.9A25.2,25.2,0,0,1,1476.1,95c-6.63-.22-10.22-4.14-8.95-10.57A41.64,41.64,0,0,1,1482.57,59a20.85,20.85,0,0,1,13.51-4.52c5.73.1,7.86,2.91,6.27,8.41s-5.34,9.11-10,11.94a25.57,25.57,0,0,1-10.17,3.53c-1.34.16-2.1.68-2.26,2.06-.08.71-.37,1.39-.52,2.09-.92,4.41.94,6.31,5.53,5.86s8.4-2.79,12-5.56a14.82,14.82,0,0,0,4.73-6.24c2.82-6.68,5.9-13.26,8.78-19.93a2.46,2.46,0,0,1,2.73-1.79c3.08.13,6.18,0,9.46,0-.52,1.4-.95,2.6-1.39,3.79l-.15.43.43-.15c2.69-1.5,5.1-3.52,8.22-4.22,4.28-1,6.68,1.23,5.93,5.48a7.47,7.47,0,0,1-7,6c-1.83,0-2.61-.77-2.67-2.57-.08-2.47-.76-2.9-3-1.92a9.71,9.71,0,0,0-5.63,5.25c-3.65,8.66-7.61,17.19-11.38,25.8a2.55,2.55,0,0,1-2.86,1.87c-2.38-.15-4.77,0-7.15,0s-2.31,0-1.37-2.21c.76-1.78,1.49-3.57,2.22-5.36,0-.15.07-.31.1-.46ZM1482,74.83c7.19-1.48,11.61-5.41,14.13-11.54.56-1.36,1.36-3.2,0-4.21-1.59-1.18-3.17.2-4.4,1.29C1487.32,64.21,1484.57,69.15,1482,74.83Z"/><path class="b07526fe-6822-4899-9f3b-687ee88d2a74" d="M1248.38,94.56l10.37-23.19c3.82-8.53,7.67-17.05,11.44-25.6a2.72,2.72,0,0,1,2.45-2c3.36-.27,6.66-1.08,10.39-1.12l-11.5,25.89a5.07,5.07,0,0,0,3.91-.71c8.68-4.7,13.67-12,14.79-21.72.49-4.18-2-6.77-6.25-7.25-12.8-1.45-25,6.93-27.21,21.53-.14,1,1,2.45-.5,2.89-2.1.62-5.41-1.34-6.06-3.22a7.7,7.7,0,0,1,.32-4.86c1.49-5.17,5.11-8.78,9.28-11.87A40.1,40.1,0,0,1,1285,35a19.45,19.45,0,0,1,4.49.63c7.54,1.92,10.82,7.84,8.73,15.6-2.81,10.42-13.94,19.7-24.74,20.4-2.6.17-4,1-5,3.54-2.38,5.93-5.23,11.67-7.75,17.55a2.61,2.61,0,0,1-2.92,1.83C1254.79,94.48,1251.76,94.56,1248.38,94.56Z"/><path class="b6b5ca62-09f1-41e8-95c7-d316f7b9bea4" d="M1440.52,69.54a.59.59,0,0,1,.06-.16s.08,0,.12,0l-.21.13Z"/><path class="b6b5ca62-09f1-41e8-95c7-d316f7b9bea4" d="M1521.48,58.92l-.43.15.15-.43Z"/><path class="b6b5ca62-09f1-41e8-95c7-d316f7b9bea4" d="M1496.48,86.72l.38-.2c0,.15-.06.31-.1.46A2.27,2.27,0,0,1,1496.48,86.72Z"/><path class="b33f8f6c-798e-45e6-817a-6a916b9ef52f" d="M1247.09,115H1263v50h-15.91Zm36.38,50h-15.91V115h38.65v15.92h-22.74v4.56h15.92v15.91h-15.92V165Zm40.07-50h-12.8v15.92h11.35V165H1338V130.88h11.36V115Zm44,0h-13.64v15.92h11.35V165h15.91V130.88h11.35V115Zm43.21,0h-13.65v15.92h11.35V165h15.92V130.88h11.38V115Z"/><path class="f274f299-6b90-45b9-9a4e-3b00d81914a4" d="M846.12,40.06c-36.67,0-66.67,23.86-66.67,53.33a48.14,48.14,0,0,0,18.33,36.67c0,4-2.8,14.46-18.33,30a73.6,73.6,0,0,0,43.13-16.67,85.06,85.06,0,0,0,23.54,3.33c36.66,0,66.66-23.86,66.66-53.33s-30-53.33-66.66-53.33m0,93.33c-29.47,0-53.34-17.93-53.34-40s23.87-40,53.34-40,53.33,17.93,53.33,40-23.87,40-53.33,40m6.66-53.33V66.72H839.45V80.06h13.33m0,13.33H839.45v26.67h13.33Z"/><path class="b33f8f6c-798e-45e6-817a-6a916b9ef52f" d="M1537.41,121.21a6.27,6.27,0,0,0-6.25-6.25h-50a6.27,6.27,0,0,0-6.25,6.25v37.5a6.27,6.27,0,0,0,6.25,6.25h50a6.27,6.27,0,0,0,6.25-6.25v-37.5m-6.25,0-25,15.63-25-15.63h50m0,37.5h-50V127.46l25,15.63,25-15.63Z"/></svg>