<svg id="f96dcd1c-ad3e-4626-a828-d64c226dad44" data-name="Ebene 1" xmlns="http://www.w3.org/2000/svg" viewBox="0 0 1680 200"><defs><style>.a72cdcf7-f44a-4eb3-a858-f4365f055f27{fill:none;stroke:#ccc;stroke-miterlimit:10;}.fd626600-dbaf-485c-ba04-e48fae5bc486{fill:#f9b213;}.a5475fe9-a71a-402b-9f74-ffc11339ad98{fill:#ccc;}.a7c7ae30-f853-405d-b30a-06208b4a7bfd{isolation:isolate;}</style></defs><title>HOOBS_x_httpbutton</title><g id="b6be65c2-c4d5-4d00-bc1f-182ecf457e09" data-name="Stroke"><line class="a72cdcf7-f44a-4eb3-a858-f4365f055f27" x1="700.5" y1="60" x2="700.5" y2="140"/></g><path class="fd626600-dbaf-485c-ba04-e48fae5bc486" d="M154.17,41.5h-78A19.5,19.5,0,0,0,56.67,61v78a19.5,19.5,0,0,0,19.5,19.5h78a19.5,19.5,0,0,0,19.5-19.5V61A19.5,19.5,0,0,0,154.17,41.5Zm2,59.26a3.24,3.24,0,0,1-4.59,0,3.21,3.21,0,0,1-.95-2.09l-8.82-8.82V69.92a1.63,1.63,0,0,0-1.63-1.63h-3.25a1.63,1.63,0,0,0-1.62,1.63V83.6l-4.88-5.13-15-15a1.62,1.62,0,0,0-2.3,0L78.59,97.89a1.64,1.64,0,0,0,0,2.3l2.3,2.3a1.64,1.64,0,0,0,2.3,0l26.43-26.43a6.49,6.49,0,0,1,9.19,0l26.43,26.43a6.51,6.51,0,0,1,0,9.19l-2.3,2.3a6.49,6.49,0,0,1-9.19,0L115.36,95.59a1.64,1.64,0,0,0-2.3,0L94.68,114a1.62,1.62,0,0,0,0,2.3l2.3,2.29a1.61,1.61,0,0,0,2.29,0l10.35-10.34a6.49,6.49,0,0,1,9.19,0l10.34,10.34a6.51,6.51,0,0,1,0,9.2L118,138.89a3.21,3.21,0,0,1-1,2.09,3.25,3.25,0,1,1-2.5-5.54l11.12-11.12a1.62,1.62,0,0,0,0-2.3l-10.34-10.34a1.62,1.62,0,0,0-2.3,0L102.72,122a6.49,6.49,0,0,1-9.19,0l-2.3-2.3a6.49,6.49,0,0,1,0-9.19l18.39-18.38a6.49,6.49,0,0,1,9.19,0l18.38,18.38a1.64,1.64,0,0,0,2.3,0l2.3-2.3a1.64,1.64,0,0,0,0-2.3L115.36,79.51a1.62,1.62,0,0,0-2.3,0L86.63,105.93a6.49,6.49,0,0,1-9.19,0l-2.3-2.29a6.52,6.52,0,0,1,0-9.2L109.62,60a6.49,6.49,0,0,1,9.19,0l11.6,11.61V69.92a6.5,6.5,0,0,1,6.5-6.5h3.25a6.5,6.5,0,0,1,6.5,6.5V87.83l7.4,7.39a3.25,3.25,0,0,1,2.09,5.54Z"/><path class="fd626600-dbaf-485c-ba04-e48fae5bc486" d="M612.42,61H624.1v3.65h-3.71v11H616.1v-11h-3.68Zm13.09,0h4.72l3.34,7.78L637,61h4.72V75.62h-3.85V67.39l-2.77,6.81h-2.92l-2.77-6.81v8.23h-3.85Z"/><path class="fd626600-dbaf-485c-ba04-e48fae5bc486" d="M271.65,61v78H254.31V107h-34v32H202.92V61h17.35V91.75h34V61Zm10.65,39c0-22.41,16.77-39,39.65-39s39.64,16.48,39.64,39S344.72,139,322,139,282.3,122.41,282.3,100Zm62.09.39c0-14.19-9.63-23.9-22.44-23.9s-22.45,9.71-22.45,23.9,9.64,23.89,22.45,23.89S344.39,114.57,344.39,100.39ZM368.8,100c0-22.41,16.77-39,39.65-39s39.64,16.48,39.64,39-16.87,39-39.64,39S368.8,122.41,368.8,100Zm62.09.39c0-14.19-9.63-23.9-22.44-23.9S386,86.2,386,100.39s9.64,23.89,22.45,23.89S430.89,114.57,430.89,100.39Zm96.58,17.33c0,13.48-10.28,21.28-30,21.28H458.74V61h36.61c18.74,0,28.38,8.13,28.38,20.28a18.86,18.86,0,0,1-10,17.16C522.12,101.23,527.47,107.91,527.47,117.72ZM476.71,76.06V93.67h16.5c8.1,0,12.5-3,12.5-8.86s-4.4-8.75-12.5-8.75Zm32.59,39.47c0-6.29-4.61-9.28-13.22-9.28H476.71v18.46h19.37C504.69,124.71,509.3,121.93,509.3,115.53Zm23.38,14.74,5.69-13.14A41.52,41.52,0,0,0,562.28,125c9.94,0,14-3.44,14-8.08,0-14.11-42.13-4.41-42.13-32.42,0-12.82,9.94-23.49,30.53-23.49,9.11,0,18.43,2.26,25.16,6.68l-5.18,13.25A39.67,39.67,0,0,0,564.56,75c-9.94,0-13.77,3.87-13.77,8.61,0,13.9,42.13,4.31,42.13,32,0,12.61-10,23.38-30.74,23.38C550.69,139,539.1,135.44,532.68,130.27Z"/><path class="a5475fe9-a71a-402b-9f74-ffc11339ad98" d="M884.43,40.1H794.52a15.09,15.09,0,0,0-15.07,15V145a15.08,15.08,0,0,0,15.07,15.06h89.91A15.08,15.08,0,0,0,899.5,145V55.16A15.08,15.08,0,0,0,884.43,40.1Zm11.07,105a11.07,11.07,0,0,1-11.07,11.06H794.52a11.07,11.07,0,0,1-11.07-11.06V55.16a11.07,11.07,0,0,1,11.07-11h89.91a11.07,11.07,0,0,1,11.07,11Z"/><path class="a5475fe9-a71a-402b-9f74-ffc11339ad98" d="M867.49,52.11h-56a22,22,0,1,0,0,44h56a22,22,0,0,0,0-44Zm-56,40a18,18,0,0,1,0-36h43.41a22,22,0,0,0,0,36Zm56,0a18,18,0,1,1,18-18h0A18,18,0,0,1,867.49,92.13Z"/><path class="a5475fe9-a71a-402b-9f74-ffc11339ad98" d="M867.49,104.13h-56a22,22,0,1,0,0,44h56a22,22,0,0,0,0-44Zm-74,22a18,18,0,1,1,18,18h0A18,18,0,0,1,793.46,126.14Zm90.9-6.21a17.2,17.2,0,0,1,.85,9.26,2,2,0,1,0-1.72,3,1.82,1.82,0,0,0,1.08-.36,18,18,0,0,1-11.44,11.45,2,2,0,1,0-2.64.64,17.81,17.81,0,0,1-3,.28H824.08a21.94,21.94,0,0,0,5.76-30.09,2,2,0,0,0-.4-3.89,2,2,0,0,0-1.77,1.12,22,22,0,0,0-3.59-3.16h43.41a17.94,17.94,0,0,1,8.9,2.37,2,2,0,1,0,3,2.15,17.85,17.85,0,0,1,3.21,3.73,2,2,0,1,0,1.77,3.5Z"/><circle class="a5475fe9-a71a-402b-9f74-ffc11339ad98" cx="835.47" cy="118.14" r="2"/><circle class="a5475fe9-a71a-402b-9f74-ffc11339ad98" cx="841.48" cy="112.13" r="2"/><circle class="a5475fe9-a71a-402b-9f74-ffc11339ad98" cx="853.48" cy="112.13" r="2"/><circle class="a5475fe9-a71a-402b-9f74-ffc11339ad98" cx="847.48" cy="118.14" r="2"/><circle class="a5475fe9-a71a-402b-9f74-ffc11339ad98" cx="859.48" cy="118.14" r="2"/><circle class="a5475fe9-a71a-402b-9f74-ffc11339ad98" cx="865.49" cy="112.13" r="2"/><circle class="a5475fe9-a71a-402b-9f74-ffc11339ad98" cx="871.49" cy="118.14" r="2"/><circle class="a5475fe9-a71a-402b-9f74-ffc11339ad98" cx="835.47" cy="130.14" r="2"/><circle class="a5475fe9-a71a-402b-9f74-ffc11339ad98" cx="835.47" cy="142.15" r="2"/><circle class="a5475fe9-a71a-402b-9f74-ffc11339ad98" cx="841.48" cy="124.14" r="2"/><circle class="a5475fe9-a71a-402b-9f74-ffc11339ad98" cx="853.48" cy="124.14" r="2"/><circle class="a5475fe9-a71a-402b-9f74-ffc11339ad98" cx="841.48" cy="136.14" r="2"/><circle class="a5475fe9-a71a-402b-9f74-ffc11339ad98" cx="853.48" cy="136.14" r="2"/><circle class="a5475fe9-a71a-402b-9f74-ffc11339ad98" cx="847.48" cy="130.14" r="2"/><circle class="a5475fe9-a71a-402b-9f74-ffc11339ad98" cx="859.48" cy="130.14" r="2"/><circle class="a5475fe9-a71a-402b-9f74-ffc11339ad98" cx="847.48" cy="142.15" r="2"/><circle class="a5475fe9-a71a-402b-9f74-ffc11339ad98" cx="859.48" cy="142.15" r="2"/><circle class="a5475fe9-a71a-402b-9f74-ffc11339ad98" cx="865.49" cy="124.14" r="2"/><circle class="a5475fe9-a71a-402b-9f74-ffc11339ad98" cx="877.49" cy="124.14" r="2"/><circle class="a5475fe9-a71a-402b-9f74-ffc11339ad98" cx="865.49" cy="136.14" r="2"/><circle class="a5475fe9-a71a-402b-9f74-ffc11339ad98" cx="877.49" cy="136.14" r="2"/><circle class="a5475fe9-a71a-402b-9f74-ffc11339ad98" cx="871.49" cy="130.14" r="2"/><g class="a7c7ae30-f853-405d-b30a-06208b4a7bfd"><path class="a5475fe9-a71a-402b-9f74-ffc11339ad98" d="M971.26,114.72h-7.32V99.48H949.65v15.24h-7.33V79.16h7.33V93.57h14.29V79.16h7.32Z"/><path class="a5475fe9-a71a-402b-9f74-ffc11339ad98" d="M1003.72,85.1H992.83v29.62H985.5V85.1H974.76V79.16h29Z"/><path class="a5475fe9-a71a-402b-9f74-ffc11339ad98" d="M1035.06,85.1h-10.89v29.62h-7.33V85.1h-10.75V79.16h29Z"/><path class="a5475fe9-a71a-402b-9f74-ffc11339ad98" d="M1046.56,102.19v12.53h-7.32V79.16h13.87a16,16,0,0,1,7.05,1.47,10.76,10.76,0,0,1,4.67,4.16,11.63,11.63,0,0,1,1.64,6.14,10.2,10.2,0,0,1-3.58,8.25c-2.38,2-5.69,3-9.9,3Zm0-5.93h6.55a6.44,6.44,0,0,0,4.43-1.37,5,5,0,0,0,1.53-3.91,5.83,5.83,0,0,0-1.54-4.22,5.72,5.72,0,0,0-4.25-1.66h-6.72Z"/><path class="a5475fe9-a71a-402b-9f74-ffc11339ad98" d="M1084,114.72V79.16h12.45q6.48,0,9.82,2.48a8.47,8.47,0,0,1,3.35,7.27,8.07,8.07,0,0,1-1.34,4.6,7.81,7.81,0,0,1-3.74,2.92,7.46,7.46,0,0,1,4.31,2.76,8.15,8.15,0,0,1,1.57,5.08q0,5.13-3.27,7.77t-9.33,2.68Zm7.32-20.66h5.43q5.54-.11,5.54-4.42a4.1,4.1,0,0,0-1.4-3.48,7.41,7.41,0,0,0-4.44-1.06h-5.13Zm0,5.18v9.6h6.28a6.06,6.06,0,0,0,4-1.24,4.23,4.23,0,0,0,1.46-3.4q0-4.89-5.06-5Z"/><path class="a5475fe9-a71a-402b-9f74-ffc11339ad98" d="M1131.24,112a8.86,8.86,0,0,1-7.23,3.17,8.34,8.34,0,0,1-6.48-2.44q-2.23-2.44-2.28-7.16V88.29h7v17.1q0,4.13,3.77,4.13,3.59,0,4.93-2.49V88.29h7.08v26.43h-6.64Z"/><path class="a5475fe9-a71a-402b-9f74-ffc11339ad98" d="M1151.86,81.8v6.49h4.52v5.18h-4.52v13.19a3.11,3.11,0,0,0,.56,2.1,2.79,2.79,0,0,0,2.15.64,11.54,11.54,0,0,0,2.07-.17v5.35a14.57,14.57,0,0,1-4.27.63q-7.42,0-7.57-7.5V93.47h-3.86V88.29h3.86V81.8Z"/><path class="a5475fe9-a71a-402b-9f74-ffc11339ad98" d="M1168.76,81.8v6.49h4.52v5.18h-4.52v13.19a3.16,3.16,0,0,0,.56,2.1,2.79,2.79,0,0,0,2.15.64,11.74,11.74,0,0,0,2.08-.17v5.35a14.68,14.68,0,0,1-4.28.63q-7.43,0-7.57-7.5V93.47h-3.86V88.29h3.86V81.8Z"/><path class="a5475fe9-a71a-402b-9f74-ffc11339ad98" d="M1175.38,101.26a15.7,15.7,0,0,1,1.51-7,11.11,11.11,0,0,1,4.36-4.76,12.76,12.76,0,0,1,6.61-1.68,12.05,12.05,0,0,1,8.73,3.27,13.14,13.14,0,0,1,3.77,8.89l.05,1.81a13.85,13.85,0,0,1-3.39,9.76,13.17,13.17,0,0,1-18.23,0q-3.42-3.67-3.41-10Zm7.06.51a9.92,9.92,0,0,0,1.41,5.76,5.09,5.09,0,0,0,8.06,0q1.44-2,1.44-6.3a9.77,9.77,0,0,0-1.44-5.72,4.66,4.66,0,0,0-4.05-2,4.61,4.61,0,0,0-4,2Q1182.44,97.53,1182.44,101.77Z"/><path class="a5475fe9-a71a-402b-9f74-ffc11339ad98" d="M1211.26,88.29l.22,3.06a9.23,9.23,0,0,1,7.59-3.54q4.2,0,6.26,2.46t2.1,7.38v17.07h-7.06V97.82a4.59,4.59,0,0,0-1-3.26,4.35,4.35,0,0,0-3.25-1,4.86,4.86,0,0,0-4.47,2.54v18.63h-7.06V88.29Z"/></g></svg>