<svg id="b53b8a31-df3b-4e03-9640-20e69818fd2f" data-name="Ebene 1" xmlns="http://www.w3.org/2000/svg" viewBox="0 0 1680 200"><defs><style>.b0094067-be86-4243-97f9-d7444c78b559{fill:none;stroke:#ccc;stroke-miterlimit:10;}.ed54c4e1-67aa-40ae-ad63-041c0a3a749b{fill:#f9b213;}.fad43c4b-3630-43ea-a672-2ca066b07ecc{fill:#ccc;}</style></defs><title>HOOBS_x_harmony</title><g id="b9e65b0f-1287-4b26-9b18-20097e2a5fc5" data-name="Stroke"><line class="b0094067-be86-4243-97f9-d7444c78b559" x1="700.5" y1="60" x2="700.5" y2="140"/></g><path class="ed54c4e1-67aa-40ae-ad63-041c0a3a749b" d="M154.17,41.5h-78A19.5,19.5,0,0,0,56.67,61v78a19.5,19.5,0,0,0,19.5,19.5h78a19.5,19.5,0,0,0,19.5-19.5V61A19.5,19.5,0,0,0,154.17,41.5Zm2,59.26a3.24,3.24,0,0,1-4.59,0,3.21,3.21,0,0,1-.95-2.09l-8.82-8.82V69.92a1.63,1.63,0,0,0-1.63-1.63h-3.25a1.63,1.63,0,0,0-1.62,1.63V83.6l-4.88-5.13-15-15a1.62,1.62,0,0,0-2.3,0L78.59,97.89a1.64,1.64,0,0,0,0,2.3l2.3,2.3a1.64,1.64,0,0,0,2.3,0l26.43-26.43a6.49,6.49,0,0,1,9.19,0l26.43,26.43a6.51,6.51,0,0,1,0,9.19l-2.3,2.3a6.49,6.49,0,0,1-9.19,0L115.36,95.59a1.64,1.64,0,0,0-2.3,0L94.68,114a1.62,1.62,0,0,0,0,2.3l2.3,2.29a1.61,1.61,0,0,0,2.29,0l10.35-10.34a6.49,6.49,0,0,1,9.19,0l10.34,10.34a6.51,6.51,0,0,1,0,9.2L118,138.89a3.21,3.21,0,0,1-1,2.09,3.25,3.25,0,1,1-2.5-5.54l11.12-11.12a1.62,1.62,0,0,0,0-2.3l-10.34-10.34a1.62,1.62,0,0,0-2.3,0L102.72,122a6.49,6.49,0,0,1-9.19,0l-2.3-2.3a6.49,6.49,0,0,1,0-9.19l18.39-18.38a6.49,6.49,0,0,1,9.19,0l18.38,18.38a1.64,1.64,0,0,0,2.3,0l2.3-2.3a1.64,1.64,0,0,0,0-2.3L115.36,79.51a1.62,1.62,0,0,0-2.3,0L86.63,105.93a6.49,6.49,0,0,1-9.19,0l-2.3-2.29a6.52,6.52,0,0,1,0-9.2L109.62,60a6.49,6.49,0,0,1,9.19,0l11.6,11.61V69.92a6.5,6.5,0,0,1,6.5-6.5h3.25a6.5,6.5,0,0,1,6.5,6.5V87.83l7.4,7.39a3.25,3.25,0,0,1,2.09,5.54Z"/><path class="ed54c4e1-67aa-40ae-ad63-041c0a3a749b" d="M612.42,61H624.1v3.65h-3.71v11H616.1v-11h-3.68Zm13.09,0h4.72l3.34,7.78L637,61h4.72V75.62h-3.85V67.39l-2.77,6.81h-2.92l-2.77-6.81v8.23h-3.85Z"/><path class="ed54c4e1-67aa-40ae-ad63-041c0a3a749b" d="M271.65,61v78H254.31V107h-34v32H202.92V61h17.35V91.75h34V61Zm10.65,39c0-22.41,16.77-39,39.65-39s39.64,16.48,39.64,39S344.72,139,322,139,282.3,122.41,282.3,100Zm62.09.39c0-14.19-9.63-23.9-22.44-23.9s-22.45,9.71-22.45,23.9,9.64,23.89,22.45,23.89S344.39,114.57,344.39,100.39ZM368.8,100c0-22.41,16.77-39,39.65-39s39.64,16.48,39.64,39-16.87,39-39.64,39S368.8,122.41,368.8,100Zm62.09.39c0-14.19-9.63-23.9-22.44-23.9S386,86.2,386,100.39s9.64,23.89,22.45,23.89S430.89,114.57,430.89,100.39Zm96.58,17.33c0,13.48-10.28,21.28-30,21.28H458.74V61h36.61c18.74,0,28.38,8.13,28.38,20.28a18.86,18.86,0,0,1-10,17.16C522.12,101.23,527.47,107.91,527.47,117.72ZM476.71,76.06V93.67h16.5c8.1,0,12.5-3,12.5-8.86s-4.4-8.75-12.5-8.75Zm32.59,39.47c0-6.29-4.61-9.28-13.22-9.28H476.71v18.46h19.37C504.69,124.71,509.3,121.93,509.3,115.53Zm23.38,14.74,5.69-13.14A41.52,41.52,0,0,0,562.28,125c9.94,0,14-3.44,14-8.08,0-14.11-42.13-4.41-42.13-32.42,0-12.82,9.94-23.49,30.53-23.49,9.11,0,18.43,2.26,25.16,6.68l-5.18,13.25A39.67,39.67,0,0,0,564.56,75c-9.94,0-13.77,3.87-13.77,8.61,0,13.9,42.13,4.31,42.13,32,0,12.61-10,23.38-30.74,23.38C550.69,139,539.1,135.44,532.68,130.27Z"/><g id="f43bbd77-bd43-4da5-9e49-237f1fe7f1f3" data-name="harmony"><path class="fad43c4b-3630-43ea-a672-2ca066b07ecc" d="M1341.16,74.64c18.75-14.53,30.63-13.91,45.48,2.79,7.5-9.38,17-14.34,29.29-12.59s21,9.57,21.72,22c1,15.39.34,30.89.64,46.33.1,4.91-3,4.13-6,4.34-4.19.29-5-1.85-5-5.53q.24-17.73,0-35.45c-.19-14.94-6.12-22-18.14-22.11s-19.56,8-20,22.15c-.31,11.51-.11,23,0,34.55,0,3.49.39,6.45-4.87,6.52s-6-2.15-5.89-6.55c.21-11.83.29-23.66,0-35.47-.35-13.74-6.37-20.82-17.39-21.19-11.7-.4-19.94,7.32-20.72,20.55-.64,11.8-.22,23.64-.26,35.47,0,3.62.82,7.09-5.11,7.2-6.38.12-5.79-3.47-5.77-7.57V73.72c0-3.55-1.6-8,5.15-8.08,6.5-.16,5.59,3.74,5.81,7.57A5.39,5.39,0,0,0,1341.16,74.64Z"/><path class="fad43c4b-3630-43ea-a672-2ca066b07ecc" d="M1116.48,88.54V46.67c0-3.67,0-6.38,5.1-6.28,4.78,0,6.38,1.59,6.17,6.28-.32,10.31.11,20.72-.19,31-.14,4.78,1.2,6.26,6.09,6.16,14.57-.31,29.17-.36,43.76,0,5.56.15,6.5-2.12,6.37-6.91-.28-10.32,0-20.73-.14-31,0-3.62.7-5.68,5-5.48,3.72.16,6.38.25,6.3,5.22q-.24,43.25,0,86.48c0,4.78-2.13,5.29-6.06,5.47-4.89.22-5.32-2.28-5.26-6.14.18-10-.17-20,.16-30,.16-5.14-.76-7.68-6.84-7.5-14.57.41-29.17.28-43.75,0-4.39-.08-5.76,1.32-5.65,5.67.28,10.6-.15,21.23.21,31.88.16,5-1.59,6.08-6.28,6.16-5.16,0-5-2.71-5-6.38C1116.58,117.05,1116.48,102.78,1116.48,88.54Z"/><path class="fad43c4b-3630-43ea-a672-2ca066b07ecc" d="M1255.77,128.4c-9.09,8.4-19.13,11.66-30.53,10.1-12.4-1.69-20.91-10-21.34-21-.46-11.78,6.38-19.88,18.95-22.95a58.13,58.13,0,0,1,27.1.22c6.76,1.6,7.08-1.27,5.88-6.52-1.89-8.24-7.49-12.18-15.31-13.34a40.46,40.46,0,0,0-22.32,2.87c-3.65,1.59-5.37.73-6.78-3s.29-4.78,3.19-5.84a55,55,0,0,1,33.05-2.55c11.7,2.84,18.49,11.31,18.89,23.66.46,13.93.11,27.86.25,41.81,0,3.43-.19,5.88-4.78,5.68-3.43-.18-6.12-.34-5.68-4.79A20,20,0,0,0,1255.77,128.4Zm-23.18,2.08c10.27.15,19.9-5.49,22.86-13.35,3.83-10.21,1.74-13.92-8.91-15a85.77,85.77,0,0,0-15.37-.37c-11.15.85-16.86,6.59-16.22,15.39.55,7.86,7.73,13.27,17.64,13.4Z"/><path class="fad43c4b-3630-43ea-a672-2ca066b07ecc" d="M1485.83,139a36.48,36.48,0,0,1-37.11-35.83c0-.31,0-.62,0-.93a37.46,37.46,0,1,1,74.92-.38C1523.56,122.88,1507.12,139,1485.83,139Zm26.74-37.38c-.17-15.61-11.68-27.47-26.66-27.45S1459.65,86,1459.8,101.89c.12,15.59,11.71,27.54,26.65,27.48S1512.73,117.35,1512.57,101.57Z"/><path class="fad43c4b-3630-43ea-a672-2ca066b07ecc" d="M1600.2,66.59c8.59-2.59,12.58.55,15.56,8.09,6.6,16.54,14.19,32.69,22,50.46,7-17.85,13.85-34.27,19.72-51,2.49-7.11,5.88-10,13.22-7.76.17.4.7,1,.57,1.34-10.6,26-20.72,52.24-32.07,78-5.71,13-16.49,17.23-29.11,13.25-2.65-.83-7.51,0-6.06-5.58,1.21-4.69,4-5.2,8.18-3.64a15,15,0,0,0,6.26.74,13.52,13.52,0,0,0,11.39-18.88q-12.6-27.68-25.32-55.29C1603.05,73.13,1601.65,69.88,1600.2,66.59Z"/><path class="fad43c4b-3630-43ea-a672-2ca066b07ecc" d="M1543.79,76.25c6.23-7.81,13.34-11.31,21.93-11.76,16.07-.83,28,9.1,28.79,25,.67,14.23.11,28.51.32,42.77,0,3.92-1.18,5.32-5.17,5.32s-6-1.05-5.88-5.63c.27-11.82.19-23.67,0-35.5-.17-14.61-6.82-22-19.54-22s-21,8-21.43,21.93c-.33,10.9,0,21.84-.12,32.76,0,3.94,1.67,8.67-5.66,8.53-7.69-.16-5-5.44-5.07-9-.21-17.9-.26-35.8,0-53.7,0-3.33-3.19-8.7,4.62-9.33C1544.69,65,1542.05,71,1543.79,76.25Z"/><path class="fad43c4b-3630-43ea-a672-2ca066b07ecc" d="M1289.53,82.55c7-9.8,13.35-15.94,23-17.29,2.93-.39,6.55-1.6,6.2,3.61-.21,3.19,1.47,6.78-4.51,7.88-16.15,3-23.77,12.32-24.53,28.87-.38,8.45-.32,16.94-.1,25.41.11,4.36-.65,6.66-5.85,6.63-4.92,0-5.19-2.41-5.16-6.2q.15-29.5,0-59c0-3.91-.19-6.86,5.45-6.79s5.66,3,5.48,6.93C1289.44,75,1289.53,77.39,1289.53,82.55Z"/><path class="fad43c4b-3630-43ea-a672-2ca066b07ecc" d="M1028.14,60.57h10.76V82a10.19,10.19,0,0,0,1.19-.6A18.45,18.45,0,0,1,1059.73,79c6.89,3,9.73,8.86,10,15.94.3,8.77.11,17.54.13,26.33a3.31,3.31,0,0,1-.14.64h-11V98.32c0-6.56-3.33-10.21-9.36-10.25A9.76,9.76,0,0,0,1039,98.36v22.45a4.93,4.93,0,0,1-.08,1h-10.78Z"/><path class="fad43c4b-3630-43ea-a672-2ca066b07ecc" d="M945.69,104.68c.47,3.92,4.79,8.48,10.52,8.78,3.73.21,6.59-1,13.11-5.72a8.71,8.71,0,0,1,.86.75l6.37,6.72a25.58,25.58,0,0,1-14.49,7.62c-8,1.39-15.36.18-21.47-5.45-6.92-6.37-8.84-17.28-5-26.48a22.33,22.33,0,0,1,21.57-13.61c11.16.24,19.42,7.54,21.23,18.81.43,2.73.47,5.53.69,8.58Zm21.56-9c-1.2-5.69-5.82-9-11.91-8.6-5,.32-9.57,4.18-9.9,8.6Z"/><path class="fad43c4b-3630-43ea-a672-2ca066b07ecc" d="M887.29,88.54A22.68,22.68,0,0,1,890,104.82a23.46,23.46,0,0,1-31.88,16.87c-10.68-4.13-16.34-14.88-14-26.58a22.77,22.77,0,0,1,23.44-17.72c3.19.14,6.29,1,9.44,1.19,3.7.21,7.41.11,11.16,0,1.48,0,1.94.46,1.86,1.9a40.83,40.83,0,0,0,0,5.64C890.22,88.13,888.45,87.81,887.29,88.54Zm-20,24a12.15,12.15,0,0,0,12.08-12.24v-.16a12.48,12.48,0,1,0-12.93,12.41C866.68,112.57,867,112.56,867.25,112.55Z"/><path class="fad43c4b-3630-43ea-a672-2ca066b07ecc" d="M816.89,77.27a23,23,0,1,1-23.46,22.6v0C793.41,87.11,803.68,77.24,816.89,77.27Zm-.08,35.28a12.18,12.18,0,0,0,12.34-12v-.35a12.31,12.31,0,1,0-12.4,12.37Z"/><path class="fad43c4b-3630-43ea-a672-2ca066b07ecc" d="M1016.6,106.88l7.39,7.81c-4.11,6.69-15.43,10.31-24.85,7.78a23,23,0,0,1-1.34-43.92c9.85-3.19,21.09,0,26.27,7.4l-7.28,7.47a51.17,51.17,0,0,0-5.23-3.79,12.26,12.26,0,1,0-11.82,21.48,11.93,11.93,0,0,0,2.83,1.12c4.93,1.18,9.07-.6,12.66-3.92C1015.66,107.93,1016,107.47,1016.6,106.88Z"/><path class="fad43c4b-3630-43ea-a672-2ca066b07ecc" d="M932.4,88.54h-5.84v33.37H915.73V88.54H910V79.47c0-.3.78-.79,1.23-.82,1.35-.12,2.72,0,4.33,0V65.45h11.16v13.2h5.74Z"/><path class="fad43c4b-3630-43ea-a672-2ca066b07ecc" d="M789.32,121.91H778.64V60.63h10.68Z"/><path class="fad43c4b-3630-43ea-a672-2ca066b07ecc" d="M879.51,124.76h11.06c-.41,8.07-3.28,14.79-10.19,19.13a23.56,23.56,0,0,1-26,.4c-7.19-4.27-10.58-11-10.72-19.5h11a13.27,13.27,0,0,0,5.32,10,12.25,12.25,0,0,0,7.69,2.33C873.82,136.83,877.61,132.94,879.51,124.76Z"/><path class="fad43c4b-3630-43ea-a672-2ca066b07ecc" d="M894.62,121.84v-43h10.7v43.12Z"/><path class="fad43c4b-3630-43ea-a672-2ca066b07ecc" d="M907.29,66.48a7.26,7.26,0,0,1-7.23,7.28h-.28A7.28,7.28,0,0,1,900,59.2a7.19,7.19,0,0,1,7.27,7.11Z"/></g></svg>