<svg id="a53b0c08-198f-4c70-ad0e-3d7620b0acc1" data-name="Ebene 1" xmlns="http://www.w3.org/2000/svg" viewBox="0 0 1680 200"><defs><style>.e6e01a9a-e432-4620-a6b0-d54b16c7e025{fill:none;stroke:#ccc;stroke-miterlimit:10;}.f21586bc-0c50-4dcc-81a0-d8a83baf2373{fill:#f9b213;}.adb62401-a4c6-4cfa-be07-fa6bc65d65f9{fill:#ccc;}.ae02ac54-8469-4b5f-b643-950618b0a915{isolation:isolate;}</style></defs><title>HOOBS_x_apple-tv-remote</title><g id="a29a6874-4583-4859-be2c-e2125f1bcc50" data-name="Stroke"><line class="e6e01a9a-e432-4620-a6b0-d54b16c7e025" x1="700.5" y1="60" x2="700.5" y2="140"/></g><path class="f21586bc-0c50-4dcc-81a0-d8a83baf2373" d="M154.17,41.5h-78A19.5,19.5,0,0,0,56.67,61v78a19.5,19.5,0,0,0,19.5,19.5h78a19.5,19.5,0,0,0,19.5-19.5V61A19.5,19.5,0,0,0,154.17,41.5Zm2,59.26a3.24,3.24,0,0,1-4.59,0,3.21,3.21,0,0,1-.95-2.09l-8.82-8.82V69.92a1.63,1.63,0,0,0-1.63-1.63h-3.25a1.63,1.63,0,0,0-1.62,1.63V83.6l-4.88-5.13-15-15a1.62,1.62,0,0,0-2.3,0L78.59,97.89a1.64,1.64,0,0,0,0,2.3l2.3,2.3a1.64,1.64,0,0,0,2.3,0l26.43-26.43a6.49,6.49,0,0,1,9.19,0l26.43,26.43a6.51,6.51,0,0,1,0,9.19l-2.3,2.3a6.49,6.49,0,0,1-9.19,0L115.36,95.59a1.64,1.64,0,0,0-2.3,0L94.68,114a1.62,1.62,0,0,0,0,2.3l2.3,2.29a1.61,1.61,0,0,0,2.29,0l10.35-10.34a6.49,6.49,0,0,1,9.19,0l10.34,10.34a6.51,6.51,0,0,1,0,9.2L118,138.89a3.21,3.21,0,0,1-1,2.09,3.25,3.25,0,1,1-2.5-5.54l11.12-11.12a1.62,1.62,0,0,0,0-2.3l-10.34-10.34a1.62,1.62,0,0,0-2.3,0L102.72,122a6.49,6.49,0,0,1-9.19,0l-2.3-2.3a6.49,6.49,0,0,1,0-9.19l18.39-18.38a6.49,6.49,0,0,1,9.19,0l18.38,18.38a1.64,1.64,0,0,0,2.3,0l2.3-2.3a1.64,1.64,0,0,0,0-2.3L115.36,79.51a1.62,1.62,0,0,0-2.3,0L86.63,105.93a6.49,6.49,0,0,1-9.19,0l-2.3-2.29a6.52,6.52,0,0,1,0-9.2L109.62,60a6.49,6.49,0,0,1,9.19,0l11.6,11.61V69.92a6.5,6.5,0,0,1,6.5-6.5h3.25a6.5,6.5,0,0,1,6.5,6.5V87.83l7.4,7.39a3.25,3.25,0,0,1,2.09,5.54Z"/><path class="f21586bc-0c50-4dcc-81a0-d8a83baf2373" d="M612.42,61H624.1v3.65h-3.71v11H616.1v-11h-3.68Zm13.09,0h4.72l3.34,7.78L637,61h4.72V75.62h-3.85V67.39l-2.77,6.81h-2.92l-2.77-6.81v8.23h-3.85Z"/><path class="f21586bc-0c50-4dcc-81a0-d8a83baf2373" d="M271.65,61v78H254.31V107h-34v32H202.92V61h17.35V91.75h34V61Zm10.65,39c0-22.41,16.77-39,39.65-39s39.64,16.48,39.64,39S344.72,139,322,139,282.3,122.41,282.3,100Zm62.09.39c0-14.19-9.63-23.9-22.44-23.9s-22.45,9.71-22.45,23.9,9.64,23.89,22.45,23.89S344.39,114.57,344.39,100.39ZM368.8,100c0-22.41,16.77-39,39.65-39s39.64,16.48,39.64,39-16.87,39-39.64,39S368.8,122.41,368.8,100Zm62.09.39c0-14.19-9.63-23.9-22.44-23.9S386,86.2,386,100.39s9.64,23.89,22.45,23.89S430.89,114.57,430.89,100.39Zm96.58,17.33c0,13.48-10.28,21.28-30,21.28H458.74V61h36.61c18.74,0,28.38,8.13,28.38,20.28a18.86,18.86,0,0,1-10,17.16C522.12,101.23,527.47,107.91,527.47,117.72ZM476.71,76.06V93.67h16.5c8.1,0,12.5-3,12.5-8.86s-4.4-8.75-12.5-8.75Zm32.59,39.47c0-6.29-4.61-9.28-13.22-9.28H476.71v18.46h19.37C504.69,124.71,509.3,121.93,509.3,115.53Zm23.38,14.74,5.69-13.14A41.52,41.52,0,0,0,562.28,125c9.94,0,14-3.44,14-8.08,0-14.11-42.13-4.41-42.13-32.42,0-12.82,9.94-23.49,30.53-23.49,9.11,0,18.43,2.26,25.16,6.68l-5.18,13.25A39.67,39.67,0,0,0,564.56,75c-9.94,0-13.77,3.87-13.77,8.61,0,13.9,42.13,4.31,42.13,32,0,12.61-10,23.38-30.74,23.38C550.69,139,539.1,135.44,532.68,130.27Z"/><path class="adb62401-a4c6-4cfa-be07-fa6bc65d65f9" d="M873.39,40.23h-68a26,26,0,0,0-26,26v68a26,26,0,0,0,26,26h68a26,26,0,0,0,26-26v-68A26,26,0,0,0,873.39,40.23Zm-57,39.1A9.73,9.73,0,0,1,822.74,76,9.59,9.59,0,0,1,820.49,83a8,8,0,0,1-6.4,3.06A9,9,0,0,1,816.39,79.33ZM828.73,114c-1.81,2.64-3.72,5.26-6.63,5.32s-3.84-1.71-7.16-1.71-4.26,1.66-7.1,1.77-5-2.86-6.84-5.48c-3.75-5.38-6.57-15.21-2.75-21.84a10.58,10.58,0,0,1,9-5.43c2.8-.06,5.44,1.88,7.15,1.88s4.93-2.34,8.3-2a10.15,10.15,0,0,1,7.93,4.3,9.81,9.81,0,0,0-4.69,8.25,9.52,9.52,0,0,0,5.79,8.77A24,24,0,0,1,828.73,114Zm22.66-20.93H845.3v18.15h0A2.72,2.72,0,0,0,848,114h2.71v5.38H848a8.13,8.13,0,0,1-8.12-8.12V93.08h-4.72v-5h4.72v-7h5.41v7h6.09Zm19.89,26.15h-5.42L855,86.68h5.42l8.13,24.38,8.12-24.38,5.42,0Z"/><path class="adb62401-a4c6-4cfa-be07-fa6bc65d65f9" d="M961.56,40.23H928a4.79,4.79,0,0,0-4.8,4.8v110.4a4.79,4.79,0,0,0,4.8,4.8h33.6a4.8,4.8,0,0,0,4.8-4.8V45A4.8,4.8,0,0,0,961.56,40.23Zm-26.4,86.4a7.2,7.2,0,1,1,7.2-7.2A7.2,7.2,0,0,1,935.16,126.63Zm0-19.2a7.2,7.2,0,1,1,7.2-7.2,7.2,7.2,0,0,1-7.2,7.2Zm0-19.2a7.2,7.2,0,1,1,7.2-7.2A7.2,7.2,0,0,1,935.16,88.23Zm26.4,31.2a7.2,7.2,0,1,1-14.4,0v-19.2a7.2,7.2,0,1,1,14.4,0Zm-7.2-31.2a7.2,7.2,0,1,1,7.2-7.2A7.2,7.2,0,0,1,954.36,88.23Z"/><g class="ae02ac54-8469-4b5f-b643-950618b0a915"><path class="adb62401-a4c6-4cfa-be07-fa6bc65d65f9" d="M1037.33,115h-14.89l-2.83,8.5h-9l15.35-41.24h7.87l15.44,41.24h-9Zm-12.6-6.88H1035l-5.18-15.43Z"/><path class="adb62401-a4c6-4cfa-be07-fa6bc65d65f9" d="M1078.77,108.46q0,7.08-3.22,11.34a10.3,10.3,0,0,1-8.68,4.26,9.54,9.54,0,0,1-7.5-3.22v14.44h-8.19V92.86h7.59l.29,3a9.6,9.6,0,0,1,7.76-3.57,10.37,10.37,0,0,1,8.8,4.19q3.15,4.18,3.15,11.56Zm-8.19-.59a12,12,0,0,0-1.51-6.6,4.94,4.94,0,0,0-4.41-2.33c-2.56,0-4.33,1-5.29,3v12.55c1,2,2.78,3,5.35,3Q1070.59,117.46,1070.58,107.87Z"/><path class="adb62401-a4c6-4cfa-be07-fa6bc65d65f9" d="M1111.42,108.46q0,7.08-3.21,11.34a10.32,10.32,0,0,1-8.68,4.26,9.56,9.56,0,0,1-7.51-3.22v14.44h-8.18V92.86h7.59l.28,3a9.62,9.62,0,0,1,7.76-3.57,10.39,10.39,0,0,1,8.81,4.19q3.13,4.18,3.14,11.56Zm-8.18-.59a12,12,0,0,0-1.52-6.6,4.94,4.94,0,0,0-4.4-2.33c-2.57,0-4.34,1-5.3,3v12.55c1,2,2.79,3,5.35,3Q1103.24,117.46,1103.24,107.87Z"/><path class="adb62401-a4c6-4cfa-be07-fa6bc65d65f9" d="M1125.13,123.5h-8.22V80h8.22Z"/><path class="adb62401-a4c6-4cfa-be07-fa6bc65d65f9" d="M1146,124.06a15,15,0,0,1-11-4.13q-4.24-4.14-4.24-11v-.79a18.46,18.46,0,0,1,1.79-8.25,13.06,13.06,0,0,1,5-5.61,14.21,14.21,0,0,1,7.46-2q6.3,0,9.9,4c2.41,2.65,3.61,6.39,3.61,11.25v3.34h-19.51a7.6,7.6,0,0,0,2.39,4.81,7.25,7.25,0,0,0,5.06,1.81,8.84,8.84,0,0,0,7.39-3.42l4,4.5a12.38,12.38,0,0,1-5,4.07A16.41,16.41,0,0,1,1146,124.06ZM1145,98.89a5.1,5.1,0,0,0-4,1.65,8.51,8.51,0,0,0-1.94,4.72h11.38v-.65a6.15,6.15,0,0,0-1.47-4.23A5.27,5.27,0,0,0,1145,98.89Z"/><path class="adb62401-a4c6-4cfa-be07-fa6bc65d65f9" d="M1194.8,89.14h-12.64V123.5h-8.49V89.14h-12.46V82.26h33.59Z"/><path class="adb62401-a4c6-4cfa-be07-fa6bc65d65f9" d="M1215.33,113.27l9.34-31h9.46l-14.36,41.24h-8.86l-14.3-41.24H1206Z"/><path class="adb62401-a4c6-4cfa-be07-fa6bc65d65f9" d="M1268.6,106.82h-9.69V123.5h-5.46V82.26h13.65q7,0,10.72,3.18t3.75,9.23a11.1,11.1,0,0,1-2.08,6.71,12.48,12.48,0,0,1-5.79,4.28l9.68,17.5v.34h-5.83Zm-9.69-4.45h8.36a9.42,9.42,0,0,0,6.44-2.1,7.08,7.08,0,0,0,2.39-5.62,7.47,7.47,0,0,0-2.28-5.87q-2.28-2-6.58-2.07h-8.33Z"/><path class="adb62401-a4c6-4cfa-be07-fa6bc65d65f9" d="M1301.08,124.06a13.4,13.4,0,0,1-10.14-4.09Q1287,115.88,1287,109v-1a18.4,18.4,0,0,1,1.75-8.14,13.55,13.55,0,0,1,4.87-5.61,12.21,12.21,0,0,1,6.78-2q6,0,9.29,3.93T1313,107.5v2.18h-20.76a10.91,10.91,0,0,0,2.65,7.32,8.32,8.32,0,0,0,6.44,2.79,9.13,9.13,0,0,0,4.71-1.14,11.81,11.81,0,0,0,3.37-3l3.2,2.49Q1308.78,124.07,1301.08,124.06Zm-.65-27.47a7,7,0,0,0-5.32,2.31,11.21,11.21,0,0,0-2.67,6.47h15.35V105a10,10,0,0,0-2.15-6.19A6.55,6.55,0,0,0,1300.43,96.59Z"/><path class="adb62401-a4c6-4cfa-be07-fa6bc65d65f9" d="M1324,92.86l.14,3.39a11.33,11.33,0,0,1,9.09-4q6.43,0,8.75,4.93a11.51,11.51,0,0,1,4-3.57,11.75,11.75,0,0,1,5.79-1.36q10.1,0,10.26,10.67V123.5h-5.24V103.28a7.06,7.06,0,0,0-1.5-4.92c-1-1.08-2.68-1.63-5-1.63a6.8,6.8,0,0,0-7.08,6.43V123.5h-5.27V103.42q0-6.69-6.54-6.69c-3.44,0-5.79,1.47-7.06,4.39V123.5h-5.24V92.86Z"/><path class="adb62401-a4c6-4cfa-be07-fa6bc65d65f9" d="M1368.54,107.89a18.11,18.11,0,0,1,1.77-8.1,13.2,13.2,0,0,1,4.93-5.55,13.43,13.43,0,0,1,7.21-1.95,12.91,12.91,0,0,1,10.12,4.33q3.87,4.34,3.87,11.53v.37a18.23,18.23,0,0,1-1.72,8,13,13,0,0,1-4.9,5.54,13.56,13.56,0,0,1-7.32,2,12.87,12.87,0,0,1-10.09-4.33q-3.87-4.33-3.87-11.47Zm5.27.63a13.16,13.16,0,0,0,2.36,8.18,8,8,0,0,0,12.68,0c1.56-2.09,2.35-5,2.35-8.77a13.07,13.07,0,0,0-2.4-8.17,7.61,7.61,0,0,0-6.35-3.13,7.51,7.51,0,0,0-6.26,3.09C1374.6,101.74,1373.81,104.68,1373.81,108.52Z"/><path class="adb62401-a4c6-4cfa-be07-fa6bc65d65f9" d="M1410.11,85.44v7.42h5.73v4h-5.73v19a4.28,4.28,0,0,0,.77,2.77,3.23,3.23,0,0,0,2.6.92,13.25,13.25,0,0,0,2.5-.34v4.22a15.09,15.09,0,0,1-4,.56,6.51,6.51,0,0,1-5.3-2.12,9.13,9.13,0,0,1-1.78-6v-19h-5.58v-4h5.58V85.44Z"/><path class="adb62401-a4c6-4cfa-be07-fa6bc65d65f9" d="M1434.67,124.06a13.38,13.38,0,0,1-10.14-4.09q-3.91-4.09-3.91-10.94v-1a18.4,18.4,0,0,1,1.74-8.14,13.62,13.62,0,0,1,4.87-5.61,12.26,12.26,0,0,1,6.79-2q6,0,9.29,3.93t3.31,11.28v2.18h-20.76a10.91,10.91,0,0,0,2.65,7.32,8.32,8.32,0,0,0,6.44,2.79,9.07,9.07,0,0,0,4.7-1.14,11.55,11.55,0,0,0,3.37-3l3.2,2.49C1443.66,122.09,1439.8,124.06,1434.67,124.06ZM1434,96.59a7,7,0,0,0-5.33,2.31,11.27,11.27,0,0,0-2.66,6.47h15.35V105a10,10,0,0,0-2.15-6.19A6.57,6.57,0,0,0,1434,96.59Z"/></g></svg>