<svg id="b3802b58-d6e9-4ddc-b56a-7433f1b72c49" data-name="Ebene 1" xmlns="http://www.w3.org/2000/svg" viewBox="0 0 1680 200"><defs><style>.bb2d4454-0f1d-4e4e-a8c6-68ebb57cb9df{fill:none;stroke:#ccc;stroke-miterlimit:10;}.a98bd7f1-96a3-4057-ae58-4e4912eeeb6f{fill:#f9b213;}.b5992238-3a1d-4a0a-ab9c-99f7eac4f0ca{fill:#4c7abe;}.b3df9075-22c3-4953-8778-8dc5d0bb3910{isolation:isolate;}.e1a00a49-3c67-4ce4-8fb5-35a51583769f{fill:#ccc;}</style></defs><title>HOOBS_x_ecoplug</title><g id="b471ec88-2cc0-454a-b2c6-fa8a99cf71ef" data-name="Stroke"><line class="bb2d4454-0f1d-4e4e-a8c6-68ebb57cb9df" x1="700.5" y1="60" x2="700.5" y2="140"/></g><path class="a98bd7f1-96a3-4057-ae58-4e4912eeeb6f" d="M154.17,41.5h-78A19.5,19.5,0,0,0,56.67,61v78a19.5,19.5,0,0,0,19.5,19.5h78a19.5,19.5,0,0,0,19.5-19.5V61A19.5,19.5,0,0,0,154.17,41.5Zm2,59.26a3.24,3.24,0,0,1-4.59,0,3.21,3.21,0,0,1-.95-2.09l-8.82-8.82V69.92a1.63,1.63,0,0,0-1.63-1.63h-3.25a1.63,1.63,0,0,0-1.62,1.63V83.6l-4.88-5.13-15-15a1.62,1.62,0,0,0-2.3,0L78.59,97.89a1.64,1.64,0,0,0,0,2.3l2.3,2.3a1.64,1.64,0,0,0,2.3,0l26.43-26.43a6.49,6.49,0,0,1,9.19,0l26.43,26.43a6.51,6.51,0,0,1,0,9.19l-2.3,2.3a6.49,6.49,0,0,1-9.19,0L115.36,95.59a1.64,1.64,0,0,0-2.3,0L94.68,114a1.62,1.62,0,0,0,0,2.3l2.3,2.29a1.61,1.61,0,0,0,2.29,0l10.35-10.34a6.49,6.49,0,0,1,9.19,0l10.34,10.34a6.51,6.51,0,0,1,0,9.2L118,138.89a3.21,3.21,0,0,1-1,2.09,3.25,3.25,0,1,1-2.5-5.54l11.12-11.12a1.62,1.62,0,0,0,0-2.3l-10.34-10.34a1.62,1.62,0,0,0-2.3,0L102.72,122a6.49,6.49,0,0,1-9.19,0l-2.3-2.3a6.49,6.49,0,0,1,0-9.19l18.39-18.38a6.49,6.49,0,0,1,9.19,0l18.38,18.38a1.64,1.64,0,0,0,2.3,0l2.3-2.3a1.64,1.64,0,0,0,0-2.3L115.36,79.51a1.62,1.62,0,0,0-2.3,0L86.63,105.93a6.49,6.49,0,0,1-9.19,0l-2.3-2.29a6.52,6.52,0,0,1,0-9.2L109.62,60a6.49,6.49,0,0,1,9.19,0l11.6,11.61V69.92a6.5,6.5,0,0,1,6.5-6.5h3.25a6.5,6.5,0,0,1,6.5,6.5V87.83l7.4,7.39a3.25,3.25,0,0,1,2.09,5.54Z"/><path class="a98bd7f1-96a3-4057-ae58-4e4912eeeb6f" d="M612.42,61H624.1v3.65h-3.71v11H616.1v-11h-3.68Zm13.09,0h4.72l3.34,7.78L637,61h4.72V75.62h-3.85V67.39l-2.77,6.81h-2.92l-2.77-6.81v8.23h-3.85Z"/><path class="a98bd7f1-96a3-4057-ae58-4e4912eeeb6f" d="M271.65,61v78H254.31V107h-34v32H202.92V61h17.35V91.75h34V61Zm10.65,39c0-22.41,16.77-39,39.65-39s39.64,16.48,39.64,39S344.72,139,322,139,282.3,122.41,282.3,100Zm62.09.39c0-14.19-9.63-23.9-22.44-23.9s-22.45,9.71-22.45,23.9,9.64,23.89,22.45,23.89S344.39,114.57,344.39,100.39ZM368.8,100c0-22.41,16.77-39,39.65-39s39.64,16.48,39.64,39-16.87,39-39.64,39S368.8,122.41,368.8,100Zm62.09.39c0-14.19-9.63-23.9-22.44-23.9S386,86.2,386,100.39s9.64,23.89,22.45,23.89S430.89,114.57,430.89,100.39Zm96.58,17.33c0,13.48-10.28,21.28-30,21.28H458.74V61h36.61c18.74,0,28.38,8.13,28.38,20.28a18.86,18.86,0,0,1-10,17.16C522.12,101.23,527.47,107.91,527.47,117.72ZM476.71,76.06V93.67h16.5c8.1,0,12.5-3,12.5-8.86s-4.4-8.75-12.5-8.75Zm32.59,39.47c0-6.29-4.61-9.28-13.22-9.28H476.71v18.46h19.37C504.69,124.71,509.3,121.93,509.3,115.53Zm23.38,14.74,5.69-13.14A41.52,41.52,0,0,0,562.28,125c9.94,0,14-3.44,14-8.08,0-14.11-42.13-4.41-42.13-32.42,0-12.82,9.94-23.49,30.53-23.49,9.11,0,18.43,2.26,25.16,6.68l-5.18,13.25A39.67,39.67,0,0,0,564.56,75c-9.94,0-13.77,3.87-13.77,8.61,0,13.9,42.13,4.31,42.13,32,0,12.61-10,23.38-30.74,23.38C550.69,139,539.1,135.44,532.68,130.27Z"/><path class="b5992238-3a1d-4a0a-ab9c-99f7eac4f0ca" d="M833.38,48.62l-.07.07h.1v-.08h-.08v.08Z"/><g class="b3df9075-22c3-4953-8778-8dc5d0bb3910"><path class="e1a00a49-3c67-4ce4-8fb5-35a51583769f" d="M816.88,104.56H795.41v14.53h25.2v9H784.23V73.81h36.3v9.06H795.41V95.8h21.47Z"/><path class="e1a00a49-3c67-4ce4-8fb5-35a51583769f" d="M869.77,110q-.63,8.76-6.47,13.79t-15.37,5q-10.44,0-16.42-7t-6-19.28V99.19a32.52,32.52,0,0,1,2.76-13.79,20.71,20.71,0,0,1,7.88-9.15,22.11,22.11,0,0,1,11.91-3.18q9.39,0,15.13,5t6.63,14.12H858.66c-.27-3.5-1.25-6-2.92-7.62s-4.23-2.37-7.66-2.37q-5.6,0-8.37,4t-2.85,12.43v4.1q0,8.79,2.66,12.85t8.41,4.07q5.18,0,7.73-2.37t2.93-7.32Z"/><path class="e1a00a49-3c67-4ce4-8fb5-35a51583769f" d="M921.69,102.17a32.72,32.72,0,0,1-2.84,14,21.3,21.3,0,0,1-8.1,9.32,24,24,0,0,1-24.13,0,21.51,21.51,0,0,1-8.2-9.27,31.83,31.83,0,0,1-2.95-13.84V99.79a32.54,32.54,0,0,1,2.89-14.11,21.54,21.54,0,0,1,8.16-9.35,23.94,23.94,0,0,1,24.12,0,21.54,21.54,0,0,1,8.16,9.35,32.56,32.56,0,0,1,2.89,14.07Zm-11.33-2.46q0-8.53-3.06-13a10.79,10.79,0,0,0-17.4,0q-3.06,4.38-3.1,12.84v2.64q0,8.31,3.06,12.9a9.93,9.93,0,0,0,8.79,4.58,9.83,9.83,0,0,0,8.65-4.42q3-4.41,3.06-12.87Z"/><path class="e1a00a49-3c67-4ce4-8fb5-35a51583769f" d="M960,109v19.12H948.82V73.81H970a24.5,24.5,0,0,1,10.75,2.24,16.5,16.5,0,0,1,7.14,6.35,17.77,17.77,0,0,1,2.5,9.37q0,8-5.46,12.58T969.8,109Zm0-9h10q4.44,0,6.76-2.09a7.56,7.56,0,0,0,2.33-6,9,9,0,0,0-2.34-6.45,8.79,8.79,0,0,0-6.49-2.53H960Z"/><path class="e1a00a49-3c67-4ce4-8fb5-35a51583769f" d="M1008.71,128.07H997.9V70.83h10.81Z"/><path class="e1a00a49-3c67-4ce4-8fb5-35a51583769f" d="M1041.74,124q-4,4.84-11,4.85-6.48,0-9.89-3.73t-3.49-10.92V87.75h10.77v26.08q0,6.3,5.74,6.3c3.66,0,6.17-1.26,7.53-3.8V87.75h10.81v40.32H1042Z"/><path class="e1a00a49-3c67-4ce4-8fb5-35a51583769f" d="M1058.73,107.61q0-9.27,4.42-14.94a14.29,14.29,0,0,1,11.9-5.67q6.65,0,10.33,4.55l.45-3.8h9.76v39a17.27,17.27,0,0,1-2.4,9.21,15.55,15.55,0,0,1-6.77,6,23.85,23.85,0,0,1-10.21,2,22.13,22.13,0,0,1-8.65-1.77,15.32,15.32,0,0,1-6.37-4.57l4.77-6.56a12.61,12.61,0,0,0,9.77,4.51,9.23,9.23,0,0,0,6.67-2.29,8.59,8.59,0,0,0,2.38-6.5v-2.16a12.47,12.47,0,0,1-9.8,4.21,14.29,14.29,0,0,1-11.76-5.69q-4.48-5.67-4.49-15.07Zm10.77.81q0,5.47,2.2,8.6a7,7,0,0,0,6,3.11q4.92,0,7-3.69v-17q-2.16-3.7-7-3.7a7,7,0,0,0-6.09,3.18Q1069.5,102.1,1069.5,108.42Z"/></g></svg>