<svg id="a2a7735c-cd09-4552-89ec-3bc67c128b25" data-name="Ebene 1" xmlns="http://www.w3.org/2000/svg" viewBox="0 0 1680 200"><defs><style>.a05906db-d7dd-480d-b034-e9d7f20dae50{fill:none;stroke:#ccc;stroke-miterlimit:10;}.b0d1010c-a8d9-4484-b391-859365b93ca1{fill:#f9b213;}.afa5ed2e-d4b6-4d0f-9940-baff8f2f5880{fill:#50bcf8;}</style></defs><title>HOOBS_x_samrtthings</title><g id="b69edb20-8fbb-4b7b-a897-9d44fc741e9a" data-name="Stroke"><line class="a05906db-d7dd-480d-b034-e9d7f20dae50" x1="700.5" y1="60" x2="700.5" y2="140"/></g><path class="b0d1010c-a8d9-4484-b391-859365b93ca1" d="M154.17,41.5h-78A19.5,19.5,0,0,0,56.67,61v78a19.5,19.5,0,0,0,19.5,19.5h78a19.5,19.5,0,0,0,19.5-19.5V61A19.5,19.5,0,0,0,154.17,41.5Zm2,59.26a3.24,3.24,0,0,1-4.59,0,3.21,3.21,0,0,1-.95-2.09l-8.82-8.82V69.92a1.63,1.63,0,0,0-1.63-1.63h-3.25a1.63,1.63,0,0,0-1.62,1.63V83.6l-4.88-5.13-15-15a1.62,1.62,0,0,0-2.3,0L78.59,97.89a1.64,1.64,0,0,0,0,2.3l2.3,2.3a1.64,1.64,0,0,0,2.3,0l26.43-26.43a6.49,6.49,0,0,1,9.19,0l26.43,26.43a6.51,6.51,0,0,1,0,9.19l-2.3,2.3a6.49,6.49,0,0,1-9.19,0L115.36,95.59a1.64,1.64,0,0,0-2.3,0L94.68,114a1.62,1.62,0,0,0,0,2.3l2.3,2.29a1.61,1.61,0,0,0,2.29,0l10.35-10.34a6.49,6.49,0,0,1,9.19,0l10.34,10.34a6.51,6.51,0,0,1,0,9.2L118,138.89a3.21,3.21,0,0,1-1,2.09,3.25,3.25,0,1,1-2.5-5.54l11.12-11.12a1.62,1.62,0,0,0,0-2.3l-10.34-10.34a1.62,1.62,0,0,0-2.3,0L102.72,122a6.49,6.49,0,0,1-9.19,0l-2.3-2.3a6.49,6.49,0,0,1,0-9.19l18.39-18.38a6.49,6.49,0,0,1,9.19,0l18.38,18.38a1.64,1.64,0,0,0,2.3,0l2.3-2.3a1.64,1.64,0,0,0,0-2.3L115.36,79.51a1.62,1.62,0,0,0-2.3,0L86.63,105.93a6.49,6.49,0,0,1-9.19,0l-2.3-2.29a6.52,6.52,0,0,1,0-9.2L109.62,60a6.49,6.49,0,0,1,9.19,0l11.6,11.61V69.92a6.5,6.5,0,0,1,6.5-6.5h3.25a6.5,6.5,0,0,1,6.5,6.5V87.83l7.4,7.39a3.25,3.25,0,0,1,2.09,5.54Z"/><path class="b0d1010c-a8d9-4484-b391-859365b93ca1" d="M612.42,61H624.1v3.65h-3.71v11H616.1v-11h-3.68Zm13.09,0h4.72l3.34,7.78L637,61h4.72V75.62h-3.85V67.39l-2.77,6.81h-2.92l-2.77-6.81v8.23h-3.85Z"/><path class="b0d1010c-a8d9-4484-b391-859365b93ca1" d="M271.65,61v78H254.31V107h-34v32H202.92V61h17.35V91.75h34V61Zm10.65,39c0-22.41,16.77-39,39.65-39s39.64,16.48,39.64,39S344.72,139,322,139,282.3,122.41,282.3,100Zm62.09.39c0-14.19-9.63-23.9-22.44-23.9s-22.45,9.71-22.45,23.9,9.64,23.89,22.45,23.89S344.39,114.57,344.39,100.39ZM368.8,100c0-22.41,16.77-39,39.65-39s39.64,16.48,39.64,39-16.87,39-39.64,39S368.8,122.41,368.8,100Zm62.09.39c0-14.19-9.63-23.9-22.44-23.9S386,86.2,386,100.39s9.64,23.89,22.45,23.89S430.89,114.57,430.89,100.39Zm96.58,17.33c0,13.48-10.28,21.28-30,21.28H458.74V61h36.61c18.74,0,28.38,8.13,28.38,20.28a18.86,18.86,0,0,1-10,17.16C522.12,101.23,527.47,107.91,527.47,117.72ZM476.71,76.06V93.67h16.5c8.1,0,12.5-3,12.5-8.86s-4.4-8.75-12.5-8.75Zm32.59,39.47c0-6.29-4.61-9.28-13.22-9.28H476.71v18.46h19.37C504.69,124.71,509.3,121.93,509.3,115.53Zm23.38,14.74,5.69-13.14A41.52,41.52,0,0,0,562.28,125c9.94,0,14-3.44,14-8.08,0-14.11-42.13-4.41-42.13-32.42,0-12.82,9.94-23.49,30.53-23.49,9.11,0,18.43,2.26,25.16,6.68l-5.18,13.25A39.67,39.67,0,0,0,564.56,75c-9.94,0-13.77,3.87-13.77,8.61,0,13.9,42.13,4.31,42.13,32,0,12.61-10,23.38-30.74,23.38C550.69,139,539.1,135.44,532.68,130.27Z"/><g id="b472bae5-89c3-4b70-949c-40f1aa2f8a12" data-name="smarthings"><path class="afa5ed2e-d4b6-4d0f-9940-baff8f2f5880" d="M912.83,117.65l12.88-10.19c3.84,6.55,9.76,10.29,16.63,10.29,7.48,0,11.52-4.89,11.52-10.18,0-6.45-7.68-8.42-15.79-10.91C927.9,93.43,916.58,89.48,916.58,75c0-12.15,10.58-21.71,25.13-21.71,12.26,0,19.32,4.68,25.46,11l-11.64,8.82a15.54,15.54,0,0,0-13.71-7.26c-6.87,0-10.6,3.73-10.6,8.62,0,6,7.27,8,15.48,10.67,10.28,3.32,21.92,7.9,21.92,22.45,0,12-9.56,23.57-26.19,23.57C928.72,131.25,919.68,125.43,912.83,117.65Zm63.26-48.21H990v7.07a21.12,21.12,0,0,1,17.34-8.32c9.45,0,16.1,4,19.75,10.49a23.41,23.41,0,0,1,20-10.49c16.32,0,24.73,9.77,24.73,25.45v36.65h-14.38V94.79c0-8.83-4.58-14.44-13.21-14.44-7.58,0-13.4,5.33-13.4,15.89v34.05h-14.23V94.38c0-8.63-4.36-14-12.78-14-7.9,0-13.71,5.33-13.71,16.2v33.74h-14Zm102.68,30.43c0-20.15,14.75-31.68,30.12-31.68a25.5,25.5,0,0,1,19.54,8.52V69.44h14v60.85h-14v-8a25.18,25.18,0,0,1-19.74,9.14c-14.59,0-29.86-11.7-29.86-31.56Zm50.38-.2A18.3,18.3,0,1,0,1111,118.58c10.46,0,18.24-8.41,18.24-19ZM1152,69.44h13.92v9c2.8-6,7.9-9,15.59-9a21.37,21.37,0,0,1,10.67,2.6l-5.33,13.34a14.16,14.16,0,0,0-8.42-2.39c-8.11,0-12.47,4.36-12.47,14.85v32.45h-14Zm43.63,0H1206V60.19l14.14-9.66V69.44h12.36V82h-12.36v22.77c0,10.58,1.45,12.25,12.36,12.25v13.27h-2c-18.8,0-24.52-6-24.52-25.34V82h-10.39Zm63.58-1.56H1239V54.37h54.75V67.88h-20.3v62.41h-14.12Zm42.28-14.55h14V76.71a22.85,22.85,0,0,1,18.19-8.52c15,0,24.1,9.77,24.1,26v36h-14.34V95.72c0-9.45-4.57-15.37-13.7-15.37-7.91,0-14.14,5.92-14.14,16.52v33.34h-14.13Zm72.4-7.58c5.51,0,8.83,3.53,8.83,8.84s-3.32,8.72-8.83,8.72-8.82-3.54-8.82-8.72a8.29,8.29,0,0,1,7.7-8.85,7.88,7.88,0,0,1,1.19,0Zm-7.06,23.69H1381v60.85h-14.13Zm23.28,0H1404V77a22.34,22.34,0,0,1,18.18-8.74c15,0,24.1,9.78,24.1,26v36h-14.24V95.62c0-9.34-4.57-15.27-13.71-15.27-8,0-14.24,5.92-14.24,16.52v33.34h-14Zm113.12,52.67a25.13,25.13,0,0,1-19.84,9.34c-14.67,0-29.93-11.74-29.93-31.59,0-20.15,14.76-31.69,30.14-31.69a24.88,24.88,0,0,1,19.53,9V69.44h14v59.22c0,17-10.8,31-31.36,31-15.8,0-25.56-7.27-31.18-17.45l12.47-7.58c4.36,8.1,9.24,12.15,18.91,12.15,10.6,0,17.24-8.31,17.24-17.55Zm.62-22.44a18.3,18.3,0,1,0-18.17,18.91c10.45,0,18.24-8.41,18.24-19Zm18.39,17,13-6.24a15.83,15.83,0,0,0,14.67,8.84c6.85,0,10.39-3.44,10.39-7.38,0-4.36-6.75-5.34-14.23-7-10.5-2.09-21.34-5.61-21.34-18.29,0-9.76,9.34-18.67,23.9-18.59,12,0,20.15,4.88,24.83,12.57l-12,6a14.41,14.41,0,0,0-12.88-7c-6.67,0-9.78,3.12-9.78,6.55,0,4,4.88,5.09,13.92,7.07,10,2.06,21.34,5.5,21.34,18.28,0,8.52-7.58,20-24.94,19.84-13.09,0-21.92-5.17-26.8-14.75Z"/><path class="afa5ed2e-d4b6-4d0f-9940-baff8f2f5880" d="M798.36,82.5c-5.06,8.61,8.51,12.61,10.58,5.33h0C810.63,80.19,801.71,78,798.36,82.5Z"/><path class="afa5ed2e-d4b6-4d0f-9940-baff8f2f5880" d="M848.32,113.73c-9.51,4-.31,15.06,5.33,10.36S853.77,111.53,848.32,113.73Z"/><path class="afa5ed2e-d4b6-4d0f-9940-baff8f2f5880" d="M838.18,65.43c-.76-8.28-12-6.67-12,0h0C827,73.71,838.29,72,838.18,65.43Z"/><path class="afa5ed2e-d4b6-4d0f-9940-baff8f2f5880" d="M830.43,86.78c-10.22,2.41-8.45,16.9,1.78,17.08h0C844.63,103.51,843,84.18,830.43,86.78Z"/><path class="afa5ed2e-d4b6-4d0f-9940-baff8f2f5880" d="M874.1,51.61c-11-9.77-25.6-12-39.21-12h-4.32c-14.1,0-28.78,2.39-39.18,12-9.75,11-12,25.65-12,39.25V95c0,14.07,2.38,28.89,12,39.29,11.08,9.81,25.78,12,39.44,12h3.8c14.13,0,29-2.36,39.47-12,9.82-11.08,12-25.8,12-39.47V91C886.08,77,883.76,62,874.1,51.61Zm-65.71,75.65c-10-7.35.6-21.6,10.06-16.85l1.73-2.34,3.24,2.3-1.69,2.34C829.81,121.93,816.9,133.82,808.39,127.26ZM818.77,93l-6.83-2.18c-5.66,9.32-20.35,4.08-18.67-6.13,2.57-13.31,21.44-9.15,19.91,2.41L820,89.28a14.2,14.2,0,0,1,10.6-7.1V75.12c-11.74-2.6-10.4-19.23,1.6-19.49,11.65.21,13.5,17.05,2.4,19.49v7.06a13,13,0,0,1,11.24,13h0C845.09,113.78,816.61,112.11,818.77,93Zm35.43,35.27a9.91,9.91,0,0,1-11.49-15.58L841,110.38l3.24-2.31,1.75,2.34a10.2,10.2,0,0,1,4.15-.88h0C860.84,109.62,864,124.45,854.2,128.29Zm-1.74-37.45-2.81.91L848.41,88l2.81-.9c-.78-11.76,16-14.8,19.51-4.13C873.9,95.12,857.76,100.23,852.46,90.84Z"/><path class="afa5ed2e-d4b6-4d0f-9940-baff8f2f5880" d="M856.32,82.58c-4.94,7.92,7.56,12.4,10.22,6.1h0C869.64,81.26,859.76,77.12,856.32,82.58Z"/><path class="afa5ed2e-d4b6-4d0f-9940-baff8f2f5880" d="M810.75,114.57c-7.6,6.61,4.4,14.52,8.4,8.22C822.93,116.7,815.43,110.75,810.75,114.57Z"/></g></svg>