<svg id="ac1b7a77-ab74-4d6f-90ad-c9e409aec6a2" data-name="Ebene 1" xmlns="http://www.w3.org/2000/svg" viewBox="0 0 1680 200"><defs><style>.aca57160-52f6-4f6c-9660-86b88d025d42{fill:none;stroke:#ccc;stroke-miterlimit:10;}.bc7a3f48-5058-46da-9e4a-15590d917cea{fill:#f9b213;}.b6457105-78d4-4df6-a0df-de3e083445f0{fill:#a7a5a6;}.b05a38c5-33b9-45c0-92dc-14474c581137{fill:#ccc;}</style></defs><title>HOOBS_x_synology</title><g id="a3b7f8df-cc63-4678-8dfb-4013503e5d06" data-name="Stroke"><line class="aca57160-52f6-4f6c-9660-86b88d025d42" x1="700.5" y1="60" x2="700.5" y2="140"/></g><path class="bc7a3f48-5058-46da-9e4a-15590d917cea" d="M154.17,41.5h-78A19.5,19.5,0,0,0,56.67,61v78a19.5,19.5,0,0,0,19.5,19.5h78a19.5,19.5,0,0,0,19.5-19.5V61A19.5,19.5,0,0,0,154.17,41.5Zm2,59.26a3.24,3.24,0,0,1-4.59,0,3.21,3.21,0,0,1-.95-2.09l-8.82-8.82V69.92a1.63,1.63,0,0,0-1.63-1.63h-3.25a1.63,1.63,0,0,0-1.62,1.63V83.6l-4.88-5.13-15-15a1.62,1.62,0,0,0-2.3,0L78.59,97.89a1.64,1.64,0,0,0,0,2.3l2.3,2.3a1.64,1.64,0,0,0,2.3,0l26.43-26.43a6.49,6.49,0,0,1,9.19,0l26.43,26.43a6.51,6.51,0,0,1,0,9.19l-2.3,2.3a6.49,6.49,0,0,1-9.19,0L115.36,95.59a1.64,1.64,0,0,0-2.3,0L94.68,114a1.62,1.62,0,0,0,0,2.3l2.3,2.29a1.61,1.61,0,0,0,2.29,0l10.35-10.34a6.49,6.49,0,0,1,9.19,0l10.34,10.34a6.51,6.51,0,0,1,0,9.2L118,138.89a3.21,3.21,0,0,1-1,2.09,3.25,3.25,0,1,1-2.5-5.54l11.12-11.12a1.62,1.62,0,0,0,0-2.3l-10.34-10.34a1.62,1.62,0,0,0-2.3,0L102.72,122a6.49,6.49,0,0,1-9.19,0l-2.3-2.3a6.49,6.49,0,0,1,0-9.19l18.39-18.38a6.49,6.49,0,0,1,9.19,0l18.38,18.38a1.64,1.64,0,0,0,2.3,0l2.3-2.3a1.64,1.64,0,0,0,0-2.3L115.36,79.51a1.62,1.62,0,0,0-2.3,0L86.63,105.93a6.49,6.49,0,0,1-9.19,0l-2.3-2.29a6.52,6.52,0,0,1,0-9.2L109.62,60a6.49,6.49,0,0,1,9.19,0l11.6,11.61V69.92a6.5,6.5,0,0,1,6.5-6.5h3.25a6.5,6.5,0,0,1,6.5,6.5V87.83l7.4,7.39a3.25,3.25,0,0,1,2.09,5.54Z"/><path class="bc7a3f48-5058-46da-9e4a-15590d917cea" d="M612.42,61H624.1v3.65h-3.71v11H616.1v-11h-3.68Zm13.09,0h4.72l3.34,7.78L637,61h4.72V75.62h-3.85V67.39l-2.77,6.81h-2.92l-2.77-6.81v8.23h-3.85Z"/><path class="bc7a3f48-5058-46da-9e4a-15590d917cea" d="M271.65,61v78H254.31V107h-34v32H202.92V61h17.35V91.75h34V61Zm10.65,39c0-22.41,16.77-39,39.65-39s39.64,16.48,39.64,39S344.72,139,322,139,282.3,122.41,282.3,100Zm62.09.39c0-14.19-9.63-23.9-22.44-23.9s-22.45,9.71-22.45,23.9,9.64,23.89,22.45,23.89S344.39,114.57,344.39,100.39ZM368.8,100c0-22.41,16.77-39,39.65-39s39.64,16.48,39.64,39-16.87,39-39.64,39S368.8,122.41,368.8,100Zm62.09.39c0-14.19-9.63-23.9-22.44-23.9S386,86.2,386,100.39s9.64,23.89,22.45,23.89S430.89,114.57,430.89,100.39Zm96.58,17.33c0,13.48-10.28,21.28-30,21.28H458.74V61h36.61c18.74,0,28.38,8.13,28.38,20.28a18.86,18.86,0,0,1-10,17.16C522.12,101.23,527.47,107.91,527.47,117.72ZM476.71,76.06V93.67h16.5c8.1,0,12.5-3,12.5-8.86s-4.4-8.75-12.5-8.75Zm32.59,39.47c0-6.29-4.61-9.28-13.22-9.28H476.71v18.46h19.37C504.69,124.71,509.3,121.93,509.3,115.53Zm23.38,14.74,5.69-13.14A41.52,41.52,0,0,0,562.28,125c9.94,0,14-3.44,14-8.08,0-14.11-42.13-4.41-42.13-32.42,0-12.82,9.94-23.49,30.53-23.49,9.11,0,18.43,2.26,25.16,6.68l-5.18,13.25A39.67,39.67,0,0,0,564.56,75c-9.94,0-13.77,3.87-13.77,8.61,0,13.9,42.13,4.31,42.13,32,0,12.61-10,23.38-30.74,23.38C550.69,139,539.1,135.44,532.68,130.27Z"/><g id="f7647629-a9e9-4109-832b-550890d42ae0" data-name="layer1"><g id="ae3c74ec-ed79-4b8c-9aa9-e24a56b27d4a" data-name="g3051"><g id="a0cfd3c1-1b81-4bf6-b43b-06d33f272844" data-name="g12"><path id="ad306159-ee15-46e4-8e93-8fb96fca47cc" data-name="path14" class="b6457105-78d4-4df6-a0df-de3e083445f0" d="M776,110.73l16.3-1.53q1.5,8.2,6,12.09t12.2,3.83q8.12,0,12.26-3.43c2.74-2.32,4.1-5,4.1-8a7.76,7.76,0,0,0-1.72-5.07,13.77,13.77,0,0,0-6-3.56c-2-.75-6.45-2-13.43-3.73-9-2.21-15.32-5-18.92-8.24a22,22,0,0,1-7.66-16.88,21.19,21.19,0,0,1,3.61-11.94,22.73,22.73,0,0,1,10.42-8.52,42.31,42.31,0,0,1,16.4-2.87q15.66,0,23.6,6.9c5.28,4.68,8,10.81,8.3,18.51l-16.88.57c-.74-4.2-2.24-7.3-4.63-9.2s-5.89-2.83-10.59-2.83c-4.87,0-8.69,1-11.43,3A6,6,0,0,0,795.17,75a6.38,6.38,0,0,0,2.49,5.08c2.1,1.82,7.27,3.68,15.43,5.59s14.21,4,18.12,6a23.43,23.43,0,0,1,9.2,8.55,25.09,25.09,0,0,1,3.33,13.35,24.7,24.7,0,0,1-4,13.47,24.1,24.1,0,0,1-11.26,9.36c-4.86,2-10.9,3-18.14,3-10.54,0-18.66-2.46-24.3-7.39s-9-12-10.09-21.39"/></g><g id="b815ff8b-83a1-49fb-a1b1-48b7f368d4c2" data-name="g16"><path id="afe8c890-0ca3-4c2c-af70-8fd7693f9381" data-name="path18" class="b6457105-78d4-4df6-a0df-de3e083445f0" d="M841.61,77.34h16.92l14.46,43,14.09-43h16.49l-21.2,58.28-3.88,10.63a43.05,43.05,0,0,1-4,8.1,16.65,16.65,0,0,1-4.37,4.57,20.48,20.48,0,0,1-6.06,2.69,31.37,31.37,0,0,1-8.17,1,42.25,42.25,0,0,1-9-1L845.52,149a33.23,33.23,0,0,0,6.74.78c3.68,0,6.43-1.09,8.19-3.25a23.46,23.46,0,0,0,4.08-8.42Z"/></g><g id="e37330e1-2566-43e3-be00-e68a71015686" data-name="g20"><path id="be9ef09b-145c-4536-a452-eaf910ec37f2" data-name="path22" class="b6457105-78d4-4df6-a0df-de3e083445f0" d="M959.06,138H943.13V107.1c0-6.5-.33-10.69-1-12.63A8.85,8.85,0,0,0,938.74,90a9.68,9.68,0,0,0-5.59-1.59,13,13,0,0,0-7.52,2.3,11.37,11.37,0,0,0-4.57,6c-.81,2.53-1.23,7.13-1.23,13.92V138H903.92V77.33h14.73v8.88c5.31-6.71,12-10,20-10a25.11,25.11,0,0,1,9.73,1.87A16.2,16.2,0,0,1,955,82.94a18,18,0,0,1,3.15,6.7,49.6,49.6,0,0,1,.89,10.76Z"/></g><g id="b3ef8d1e-7e9c-4f8c-a9a9-2414c714af03" data-name="g24"><path id="b50b0bea-374b-4904-8ce3-8fc1f3f412b4" data-name="path26" class="b6457105-78d4-4df6-a0df-de3e083445f0" d="M975.47,107.82c0,6.05,1.42,10.68,4.29,13.81a14,14,0,0,0,21.18,0c2.81-3.13,4.23-7.81,4.23-13.89s-1.42-10.57-4.23-13.74a14.06,14.06,0,0,0-21.18,0c-2.87,3.17-4.29,7.8-4.29,13.82M959.15,107a32.87,32.87,0,0,1,4-15.49A27.18,27.18,0,0,1,974.25,80.1a33,33,0,0,1,16.12-3.91q13.77,0,22.52,8.92t8.81,22.56c0,9.17-3,16.74-8.88,22.78s-13.37,9.07-22.35,9.07a35.45,35.45,0,0,1-15.89-3.79,25.76,25.76,0,0,1-11.48-11.06c-2.62-4.82-4-10.71-4-17.66"/></g><g id="ef622773-14fe-4fa3-8e36-54266ed496dd" data-name="g28"><path id="e7aeb03e-8427-47c4-b5c3-a216681fa5b0" data-name="path30" class="b05a38c5-33b9-45c0-92dc-14474c581137" d="M1041.25,46.25v78.27c0,3.74.28,6.21.8,7.39a5.7,5.7,0,0,0,2.48,2.77c1.13.62,3.22.94,6.23.94V138h-28.92v-2.34c2.71,0,4.55-.28,5.59-.87a5.77,5.77,0,0,0,2.29-2.78c.57-1.28.83-3.76.83-7.45V71.11c0-6.72-.14-10.83-.43-12.39a5.19,5.19,0,0,0-1.4-3.11,3.61,3.61,0,0,0-2.47-.91,12.14,12.14,0,0,0-4.13,1.06l-1.1-2.29,17.38-7.22Z"/></g><g id="ab0bb759-f591-4c73-a8b8-d70dbc387dc0" data-name="g32"><path id="ffc602da-ef76-4c55-80c5-5d7d58c717c7" data-name="path34" class="b05a38c5-33b9-45c0-92dc-14474c581137" d="M1077.5,81.48a13,13,0,0,0-6.87,2,14.32,14.32,0,0,0-5.6,7.06,34.42,34.42,0,0,0-2.12,13.06c0,8.58,1.73,15.9,5.12,22.17s7.93,9.3,13.5,9.3a12.61,12.61,0,0,0,10.31-5.15c2.73-3.42,4.09-9.3,4.09-17.68,0-10.47-2.26-18.65-6.77-24.66a13.94,13.94,0,0,0-11.66-6.08m2-4.34c9,0,16.14,3.4,21.58,10.19a31.17,31.17,0,0,1,6.9,20,37.33,37.33,0,0,1-3.79,16,27.16,27.16,0,0,1-25.38,16.36,25.11,25.11,0,0,1-21.26-10.61,32.8,32.8,0,0,1-6.66-20.11,35.38,35.38,0,0,1,4-16.09,28.11,28.11,0,0,1,10.65-11.93,27.68,27.68,0,0,1,13.94-3.8"/></g><g id="bbe6173e-d36c-4cc8-be03-b59585c498b2" data-name="g36"><path id="aaf61bff-6b7b-49d2-856c-47c91dafbb37" data-name="path38" class="b05a38c5-33b9-45c0-92dc-14474c581137" d="M1132.14,80.4a10.1,10.1,0,0,0-8,3.84c-2.12,2.51-3.18,6.29-3.18,11.51q0,10.09,4.35,15.68a10.32,10.32,0,0,0,8.42,4.21,10.09,10.09,0,0,0,8-3.67c2.09-2.44,3.13-6.23,3.13-11.4,0-6.82-1.45-12.1-4.39-15.93a10.3,10.3,0,0,0-8.37-4.24M1120.38,138a29.23,29.23,0,0,0-4.45,6.1,10.45,10.45,0,0,0-1.5,5.09c0,2.11,1.22,3.87,3.71,5.41,4.29,2.63,10.49,4,18.58,4,7.7,0,13.37-1.36,17.06-4.08s5.5-5.55,5.5-8.62a4.85,4.85,0,0,0-3.29-4.7c-2.24-1-6.66-1.5-13.3-1.64-9.67-.29-17.13-.85-22.31-1.55m.53-21.64a20.12,20.12,0,0,1-4.59-32.86c4.41-4.2,10-6.32,16.9-6.32a25.49,25.49,0,0,1,14.57,4.08h12.48a17.48,17.48,0,0,1,3.24.16,1.9,1.9,0,0,1,.63.55,4.21,4.21,0,0,1,.39,2.06,5.84,5.84,0,0,1-.33,2.35,1.16,1.16,0,0,1-.69.5,15.12,15.12,0,0,1-3.26.18h-7.69c2.44,3.1,3.64,7.07,3.64,11.9a18.63,18.63,0,0,1-6.31,14.1c-4.2,3.92-9.84,5.9-16.87,5.9a29.71,29.71,0,0,1-9-1.39,17.08,17.08,0,0,0-3.62,4.32,7,7,0,0,0-1,3.11,3,3,0,0,0,1.08,2.19,7.8,7.8,0,0,0,4.15,1.45,85.11,85.11,0,0,0,9,.52c8.82.28,14.55.62,17.14,1a16.38,16.38,0,0,1,9.57,4.43,12,12,0,0,1,3.56,8.78c0,4.79-2.28,9.35-6.82,13.56q-10,9.3-26.1,9.31c-8.25,0-15.23-1.82-20.92-5.55-3.22-2.15-4.8-4.36-4.8-6.69a7.88,7.88,0,0,1,.67-3.07,35.36,35.36,0,0,1,4.41-6.57c.29-.41,2.46-2.71,6.43-6.92a20.36,20.36,0,0,1-4.69-3.65,5.37,5.37,0,0,1-1.39-3.59,10.56,10.56,0,0,1,1.8-5.29c1.22-2,4-5,8.38-8.6"/></g><g id="f6d83a25-d810-4f92-b761-88e70a84e334" data-name="g40"><path id="f48ca192-442f-4bea-bc1d-ce1ffc10ffd0" data-name="path42" class="b05a38c5-33b9-45c0-92dc-14474c581137" d="M1166.36,78.86H1194v2.36h-1.34a6.75,6.75,0,0,0-4.37,1.26,4,4,0,0,0-1.43,3.11c0,1.71.69,4,2.13,7l14.4,29.87,13.18-32.64a14,14,0,0,0,1.09-5.29,2.91,2.91,0,0,0-.45-1.71,3.42,3.42,0,0,0-1.62-1.11,11.52,11.52,0,0,0-3.85-.46V78.86h19.1v2.36a9.14,9.14,0,0,0-3.67,1,10.6,10.6,0,0,0-2.84,2.86,35.77,35.77,0,0,0-2.21,4.95l-23.92,58.87c-2.34,5.74-5.38,10-9.17,13s-7.43,4.35-10.93,4.35a9,9,0,0,1-6.29-2.18,6.53,6.53,0,0,1-2.45-5,5.58,5.58,0,0,1,1.78-4.3,6.81,6.81,0,0,1,4.91-1.65,18.2,18.2,0,0,1,5.85,1.38,17.24,17.24,0,0,0,3.26,1,6.85,6.85,0,0,0,4.23-2c1.52-1.31,3.06-3.88,4.6-7.66l4.17-10.28-21.25-44.42a36.25,36.25,0,0,0-3.09-5,16.56,16.56,0,0,0-2.65-3.06,16.22,16.22,0,0,0-4.78-1.8Z"/></g><g id="e702152b-544b-4dea-a451-b1907fc61b21" data-name="g44"><path id="b0ce65fd-252a-4e31-afac-34472bd96795" data-name="path46" class="b05a38c5-33b9-45c0-92dc-14474c581137" d="M1232.25,68.37h3.34a3.69,3.69,0,0,0,1.66-.25,1.51,1.51,0,0,0,.91-.68,1.9,1.9,0,0,0,.33-1.08,1.73,1.73,0,0,0-.62-1.36,2.74,2.74,0,0,0-1.88-.53h-3.74ZM1230.7,75V63.13h5.19a6.05,6.05,0,0,1,2.41.38,2.5,2.5,0,0,1,1.3,1.06,3.57,3.57,0,0,1,.48,1.79,2.83,2.83,0,0,1-.82,2.12,3.87,3.87,0,0,1-2.48,1.12,4.09,4.09,0,0,1,.93.58,8.05,8.05,0,0,1,1.28,1.54l2,3.23h-1.93l-1.57-2.44c-.46-.67-.84-1.25-1.13-1.61a5.7,5.7,0,0,0-.79-.85,2.8,2.8,0,0,0-.7-.26,3.17,3.17,0,0,0-.89-.09h-1.78V75Z"/></g><g id="fa2d1ac0-7334-488e-887f-ec67a1000c7f" data-name="g48"><path id="b3fe1ae1-6374-4eab-8ad0-8c050e0148bd" data-name="path50" class="aca57160-52f6-4f6c-9660-86b88d025d42" d="M1243.86,68.59a8.56,8.56,0,1,1-8.55-8.56A8.61,8.61,0,0,1,1243.86,68.59Z"/></g></g></g><path class="b05a38c5-33b9-45c0-92dc-14474c581137" d="M1293.81,40.39a17.07,17.07,0,0,0-17.14,17.14v85.71a17.08,17.08,0,0,0,17.14,17.15H1431a17.08,17.08,0,0,0,17.14-17.15V57.53A17.07,17.07,0,0,0,1431,40.39H1293.81m4.28,17.14a8.57,8.57,0,1,1-8.57,8.57,8.58,8.58,0,0,1,8.57-8.57m21.43,0H1431v85.71H1319.52V57.53m8.57,8.57v68.57h25.72V66.1h-25.72m34.29,0v68.57h25.71V66.1h-25.71m34.29,0v68.57h25.71V66.1h-25.71m-60,8.57h8.57v8.57h-8.57V74.67m34.28,0h8.57v8.57H1371V74.67m34.29,0h8.57v8.57h-8.57Z"/></svg>