<svg id="bc591aec-0aad-4f4f-b0c2-a190cdb39d22" data-name="Ebene 1" xmlns="http://www.w3.org/2000/svg" viewBox="0 0 1680 200"><defs><style>.e107643e-c57c-4f4f-85ac-ee7624b3cac2{isolation:isolate;}.a68dcf6d-3459-4082-b1ec-7f4469438ef3{fill:#ccc;}.eb30bf8c-5c78-44c9-8806-1632ed109c64{fill:#ff6700;fill-rule:evenodd;}.a169554f-4ef4-4617-b156-c6530f353ce6{fill:#fff;}.ae2cfd58-cb72-4f2b-acb1-51df40d86cf1{fill:none;stroke:#ccc;stroke-miterlimit:10;}.b5afe354-66df-400f-9fd7-3c5895b9f5dd{fill:#f9b213;}</style></defs><title>HOOBS_x_dafang</title><g class="e107643e-c57c-4f4f-85ac-ee7624b3cac2"><path class="a68dcf6d-3459-4082-b1ec-7f4469438ef3" d="M916.67,78.63V33.84h13.79A20.84,20.84,0,0,1,941,36.5a18.45,18.45,0,0,1,7.28,7.57,23.38,23.38,0,0,1,2.61,11.15v2.06a23.43,23.43,0,0,1-2.56,11.11,18.48,18.48,0,0,1-7.25,7.54,21.14,21.14,0,0,1-10.55,2.7Zm9.23-37.32V71.22h4.46q5.42,0,8.28-3.54t2.92-10.12V55.19q0-6.84-2.83-10.35t-8.27-3.53Z"/><path class="a68dcf6d-3459-4082-b1ec-7f4469438ef3" d="M976.33,78.63a9.72,9.72,0,0,1-.89-3,10.78,10.78,0,0,1-8.4,3.6,11.86,11.86,0,0,1-8.11-2.83,9.13,9.13,0,0,1-3.22-7.14,9.39,9.39,0,0,1,3.93-8.12q3.92-2.83,11.33-2.86h4.1V56.39a5.47,5.47,0,0,0-1.19-3.69,4.63,4.63,0,0,0-3.74-1.39,5.29,5.29,0,0,0-3.52,1.08,3.66,3.66,0,0,0-1.28,3h-8.89A8.94,8.94,0,0,1,958.24,50a11.78,11.78,0,0,1,5-3.86,18.32,18.32,0,0,1,7.33-1.4q6.15,0,9.76,3.09T984,56.51V70.94a15.93,15.93,0,0,0,1.32,7.17v.52ZM969,72.45a7.55,7.55,0,0,0,3.63-.88,5.8,5.8,0,0,0,2.47-2.35V63.5h-3.33c-4.45,0-6.82,1.53-7.1,4.61l0,.52a3.59,3.59,0,0,0,1.16,2.74A4.54,4.54,0,0,0,969,72.45Z"/><path class="a68dcf6d-3459-4082-b1ec-7f4469438ef3" d="M993.25,78.63V51.87h-5V45.34h5V42.51q0-5.59,3.21-8.69t9-3.09a20.86,20.86,0,0,1,4.53.61l-.1,6.9a11,11,0,0,0-2.7-.28q-5,0-5,4.71v2.67h6.62v6.53h-6.62V78.63Z"/><path class="a68dcf6d-3459-4082-b1ec-7f4469438ef3" d="M1032.69,78.63a9.72,9.72,0,0,1-.89-3,10.75,10.75,0,0,1-8.4,3.6,11.87,11.87,0,0,1-8.11-2.83,9.12,9.12,0,0,1-3.21-7.14,9.4,9.4,0,0,1,3.92-8.12c2.62-1.89,6.39-2.84,11.34-2.86h4.09V56.39a5.47,5.47,0,0,0-1.18-3.69,4.65,4.65,0,0,0-3.74-1.39,5.32,5.32,0,0,0-3.53,1.08,3.65,3.65,0,0,0-1.27,3h-8.89A8.93,8.93,0,0,1,1014.6,50a11.76,11.76,0,0,1,5-3.86,18.24,18.24,0,0,1,7.32-1.4q6.15,0,9.77,3.09t3.61,8.69V70.94a15.78,15.78,0,0,0,1.33,7.17v.52Zm-7.35-6.18a7.61,7.61,0,0,0,3.63-.88,5.72,5.72,0,0,0,2.46-2.35V63.5h-3.32c-4.45,0-6.82,1.53-7.11,4.61l0,.52a3.56,3.56,0,0,0,1.17,2.74A4.52,4.52,0,0,0,1025.34,72.45Z"/><path class="a68dcf6d-3459-4082-b1ec-7f4469438ef3" d="M1055.37,45.34l.27,3.85a11.64,11.64,0,0,1,9.57-4.46q5.3,0,7.88,3.1c1.72,2.08,2.6,5.17,2.64,9.3v21.5h-8.89V57.34a5.76,5.76,0,0,0-1.23-4.1c-.82-.86-2.18-1.28-4.09-1.28a6.12,6.12,0,0,0-5.63,3.2V78.63H1047V45.34Z"/><path class="a68dcf6d-3459-4082-b1ec-7f4469438ef3" d="M1081.18,61.74q0-7.66,3.65-12.34a11.82,11.82,0,0,1,9.83-4.67,10.36,10.36,0,0,1,8.52,3.75l.37-3.14h8.06V77.53a14.13,14.13,0,0,1-2,7.59,12.71,12.71,0,0,1-5.58,4.93,19.75,19.75,0,0,1-8.43,1.69,18.35,18.35,0,0,1-7.14-1.46,12.69,12.69,0,0,1-5.26-3.77l3.94-5.42a10.39,10.39,0,0,0,8.06,3.73,7.61,7.61,0,0,0,5.51-1.9,7.1,7.1,0,0,0,2-5.36V75.77a10.3,10.3,0,0,1-8.1,3.48,11.79,11.79,0,0,1-9.7-4.69q-3.71-4.69-3.71-12.45Zm8.89.66a12.18,12.18,0,0,0,1.82,7.11,5.78,5.78,0,0,0,5,2.57,6.19,6.19,0,0,0,5.82-3V55a6.17,6.17,0,0,0-5.76-3,5.81,5.81,0,0,0-5,2.62Q1090.07,57.19,1090.07,62.4Z"/></g><g class="e107643e-c57c-4f4f-85ac-ee7624b3cac2"><path class="a68dcf6d-3459-4082-b1ec-7f4469438ef3" d="M951.84,139.33q-.52,7.23-5.34,11.38t-12.69,4.16q-8.62,0-13.55-5.8t-4.94-15.92v-2.74A26.94,26.94,0,0,1,917.59,119a17.09,17.09,0,0,1,6.51-7.56,18.27,18.27,0,0,1,9.83-2.63q7.76,0,12.49,4.16t5.48,11.66h-9.23c-.23-2.9-1-5-2.42-6.3s-3.49-2-6.32-2a7.84,7.84,0,0,0-6.91,3.31q-2.28,3.3-2.35,10.26v3.38q0,7.26,2.2,10.62t6.94,3.35q4.28,0,6.38-2c1.41-1.31,2.21-3.32,2.42-6Z"/><path class="a68dcf6d-3459-4082-b1ec-7f4469438ef3" d="M976.6,154.25a10,10,0,0,1-.89-3,10.75,10.75,0,0,1-8.4,3.6,11.83,11.83,0,0,1-8.1-2.83A9.1,9.1,0,0,1,956,144.9a9.41,9.41,0,0,1,3.92-8.12q3.93-2.84,11.34-2.86h4.09V132a5.47,5.47,0,0,0-1.18-3.69,4.65,4.65,0,0,0-3.74-1.39A5.27,5.27,0,0,0,966.9,128a3.66,3.66,0,0,0-1.28,3h-8.89a8.93,8.93,0,0,1,1.78-5.35,11.76,11.76,0,0,1,5-3.86,18.24,18.24,0,0,1,7.32-1.4q6.15,0,9.77,3.09t3.62,8.69v14.43a15.93,15.93,0,0,0,1.32,7.17v.52Zm-7.35-6.18a7.61,7.61,0,0,0,3.63-.88,5.72,5.72,0,0,0,2.46-2.35v-5.72H972c-4.45,0-6.82,1.53-7.11,4.61l0,.52a3.56,3.56,0,0,0,1.17,2.74A4.54,4.54,0,0,0,969.25,148.07Z"/><path class="a68dcf6d-3459-4082-b1ec-7f4469438ef3" d="M999.43,121l.28,3.73a11.68,11.68,0,0,1,9.57-4.34q6.44,0,8.83,5.07a11.44,11.44,0,0,1,10-5.07c3.61,0,6.29,1.05,8.06,3.15s2.64,5.27,2.64,9.49v21.26h-8.92V133a6.37,6.37,0,0,0-1.1-4.13c-.74-.88-2-1.31-3.91-1.31a5.55,5.55,0,0,0-5.54,3.81l0,22.86h-8.89v-21.2a6.25,6.25,0,0,0-1.14-4.18c-.76-.86-2.05-1.29-3.88-1.29a5.75,5.75,0,0,0-5.47,3.14v23.53H991.1V121Z"/><path class="a68dcf6d-3459-4082-b1ec-7f4469438ef3" d="M1061,154.87a16.37,16.37,0,0,1-11.93-4.49q-4.59-4.5-4.6-12v-.86a20.11,20.11,0,0,1,1.94-9,14.22,14.22,0,0,1,5.5-6.09,15.34,15.34,0,0,1,8.1-2.14q6.84,0,10.75,4.31t3.93,12.21v3.63h-21.2a8.26,8.26,0,0,0,2.6,5.23,7.87,7.87,0,0,0,5.49,2,9.6,9.6,0,0,0,8-3.72l4.37,4.89a13.27,13.27,0,0,1-5.41,4.41A17.73,17.73,0,0,1,1061,154.87Zm-1-27.35a5.54,5.54,0,0,0-4.29,1.79,9.25,9.25,0,0,0-2.11,5.13h12.37v-.71a6.59,6.59,0,0,0-1.6-4.59A5.74,5.74,0,0,0,1060,127.52Z"/><path class="a68dcf6d-3459-4082-b1ec-7f4469438ef3" d="M1098.41,129.3a25,25,0,0,0-3.2-.25q-5,0-6.62,3.42v21.78h-8.89V121h8.4l.25,4q2.67-4.58,7.41-4.58a9.18,9.18,0,0,1,2.77.4Z"/><path class="a68dcf6d-3459-4082-b1ec-7f4469438ef3" d="M1121.05,154.25a10,10,0,0,1-.89-3,10.75,10.75,0,0,1-8.4,3.6,11.83,11.83,0,0,1-8.1-2.83,9.1,9.1,0,0,1-3.22-7.14,9.41,9.41,0,0,1,3.92-8.12q3.93-2.84,11.34-2.86h4.09V132a5.47,5.47,0,0,0-1.18-3.69,4.65,4.65,0,0,0-3.74-1.39,5.27,5.27,0,0,0-3.52,1.08,3.66,3.66,0,0,0-1.28,3h-8.89a8.93,8.93,0,0,1,1.78-5.35,11.76,11.76,0,0,1,5-3.86,18.24,18.24,0,0,1,7.32-1.4q6.15,0,9.77,3.09t3.61,8.69v14.43a15.92,15.92,0,0,0,1.33,7.17v.52Zm-7.35-6.18a7.61,7.61,0,0,0,3.63-.88,5.72,5.72,0,0,0,2.46-2.35v-5.72h-3.32c-4.45,0-6.82,1.53-7.11,4.61l0,.52a3.56,3.56,0,0,0,1.17,2.74A4.54,4.54,0,0,0,1113.7,148.07Z"/></g><path class="eb30bf8c-5c78-44c9-8806-1632ed109c64" d="M894.79,153H784a4.56,4.56,0,0,1-4.56-4.56V37.63A4.55,4.55,0,0,1,784,33.08H894.79a4.55,4.55,0,0,1,4.55,4.55V148.48a4.57,4.57,0,0,1-4.55,4.53"/><path class="a169554f-4ef4-4617-b156-c6530f353ce6" d="M873.45,70.81H864a.73.73,0,0,0-.73.72v43.05a.73.73,0,0,0,.73.72h9.44a.73.73,0,0,0,.73-.72v-43a.73.73,0,0,0-.73-.72"/><path class="a169554f-4ef4-4617-b156-c6530f353ce6" d="M841.23,70.81h-36a.73.73,0,0,0-.73.72v43.05a.73.73,0,0,0,.73.72h9.44a.74.74,0,0,0,.74-.72h0V80.79a.71.71,0,0,1,.71-.71h20.35c5.71,0,7.34,4.38,7.34,7.2v27.3a.73.73,0,0,0,.73.72H854a.73.73,0,0,0,.73-.72V84a12.19,12.19,0,0,0-3.55-9.33,12.74,12.74,0,0,0-10-3.9"/><path class="a169554f-4ef4-4617-b156-c6530f353ce6" d="M834.62,88h-9.91a.73.73,0,0,0-.74.71v25.92a.73.73,0,0,0,.74.71h9.91a.72.72,0,0,0,.72-.7h0v-26a.71.71,0,0,0-.71-.71h0"/><g id="b63fcdab-3d4e-4ac1-9769-6953290449c4" data-name="Stroke"><line class="ae2cfd58-cb72-4f2b-acb1-51df40d86cf1" x1="700.5" y1="60" x2="700.5" y2="140"/></g><path class="b5afe354-66df-400f-9fd7-3c5895b9f5dd" d="M154.17,41.5h-78A19.5,19.5,0,0,0,56.67,61v78a19.5,19.5,0,0,0,19.5,19.5h78a19.5,19.5,0,0,0,19.5-19.5V61A19.5,19.5,0,0,0,154.17,41.5Zm2,59.26a3.24,3.24,0,0,1-4.59,0,3.21,3.21,0,0,1-.95-2.09l-8.82-8.82V69.92a1.63,1.63,0,0,0-1.63-1.63h-3.25a1.63,1.63,0,0,0-1.62,1.63V83.6l-4.88-5.13-15-15a1.62,1.62,0,0,0-2.3,0L78.59,97.89a1.64,1.64,0,0,0,0,2.3l2.3,2.3a1.64,1.64,0,0,0,2.3,0l26.43-26.43a6.49,6.49,0,0,1,9.19,0l26.43,26.43a6.51,6.51,0,0,1,0,9.19l-2.3,2.3a6.49,6.49,0,0,1-9.19,0L115.36,95.59a1.64,1.64,0,0,0-2.3,0L94.68,114a1.62,1.62,0,0,0,0,2.3l2.3,2.29a1.61,1.61,0,0,0,2.29,0l10.35-10.34a6.49,6.49,0,0,1,9.19,0l10.34,10.34a6.51,6.51,0,0,1,0,9.2L118,138.89a3.21,3.21,0,0,1-1,2.09,3.25,3.25,0,1,1-2.5-5.54l11.12-11.12a1.62,1.62,0,0,0,0-2.3l-10.34-10.34a1.62,1.62,0,0,0-2.3,0L102.72,122a6.49,6.49,0,0,1-9.19,0l-2.3-2.3a6.49,6.49,0,0,1,0-9.19l18.39-18.38a6.49,6.49,0,0,1,9.19,0l18.38,18.38a1.64,1.64,0,0,0,2.3,0l2.3-2.3a1.64,1.64,0,0,0,0-2.3L115.36,79.51a1.62,1.62,0,0,0-2.3,0L86.63,105.93a6.49,6.49,0,0,1-9.19,0l-2.3-2.29a6.52,6.52,0,0,1,0-9.2L109.62,60a6.49,6.49,0,0,1,9.19,0l11.6,11.61V69.92a6.5,6.5,0,0,1,6.5-6.5h3.25a6.5,6.5,0,0,1,6.5,6.5V87.83l7.4,7.39a3.25,3.25,0,0,1,2.09,5.54Z"/><path class="b5afe354-66df-400f-9fd7-3c5895b9f5dd" d="M612.42,61H624.1v3.65h-3.71v11H616.1v-11h-3.68Zm13.09,0h4.72l3.34,7.78L637,61h4.72V75.62h-3.85V67.39l-2.77,6.81h-2.92l-2.77-6.81v8.23h-3.85Z"/><path class="b5afe354-66df-400f-9fd7-3c5895b9f5dd" d="M271.65,61v78H254.31V107h-34v32H202.92V61h17.35V91.75h34V61Zm10.65,39c0-22.41,16.77-39,39.65-39s39.64,16.48,39.64,39S344.72,139,322,139,282.3,122.41,282.3,100Zm62.09.39c0-14.19-9.63-23.9-22.44-23.9s-22.45,9.71-22.45,23.9,9.64,23.89,22.45,23.89S344.39,114.57,344.39,100.39ZM368.8,100c0-22.41,16.77-39,39.65-39s39.64,16.48,39.64,39-16.87,39-39.64,39S368.8,122.41,368.8,100Zm62.09.39c0-14.19-9.63-23.9-22.44-23.9S386,86.2,386,100.39s9.64,23.89,22.45,23.89S430.89,114.57,430.89,100.39Zm96.58,17.33c0,13.48-10.28,21.28-30,21.28H458.74V61h36.61c18.74,0,28.38,8.13,28.38,20.28a18.86,18.86,0,0,1-10,17.16C522.12,101.23,527.47,107.91,527.47,117.72ZM476.71,76.06V93.67h16.5c8.1,0,12.5-3,12.5-8.86s-4.4-8.75-12.5-8.75Zm32.59,39.47c0-6.29-4.61-9.28-13.22-9.28H476.71v18.46h19.37C504.69,124.71,509.3,121.93,509.3,115.53Zm23.38,14.74,5.69-13.14A41.52,41.52,0,0,0,562.28,125c9.94,0,14-3.44,14-8.08,0-14.11-42.13-4.41-42.13-32.42,0-12.82,9.94-23.49,30.53-23.49,9.11,0,18.43,2.26,25.16,6.68l-5.18,13.25A39.67,39.67,0,0,0,564.56,75c-9.94,0-13.77,3.87-13.77,8.61,0,13.9,42.13,4.31,42.13,32,0,12.61-10,23.38-30.74,23.38C550.69,139,539.1,135.44,532.68,130.27Z"/></svg>