<svg id="b6806770-35e7-4566-835e-ac123b69f27d" data-name="Ebene 1" xmlns="http://www.w3.org/2000/svg" viewBox="0 0 1680 200"><defs><style>.e746424f-2fd2-4a01-a29f-ad28fb835e3b{fill:none;stroke:#ccc;stroke-miterlimit:10;}.e855359f-4fd6-492e-94f5-da6b6f316a32{fill:#f9b213;}.a4ff2c01-f711-452f-a61c-7e4849a79e48{fill:#0061aa;}</style></defs><title>HOOBS_x_adtpulse</title><g id="b81ec5d0-1a3f-4aae-9113-1f7ff872cd6e" data-name="Stroke"><line class="e746424f-2fd2-4a01-a29f-ad28fb835e3b" x1="700.5" y1="60" x2="700.5" y2="140"/></g><path class="e855359f-4fd6-492e-94f5-da6b6f316a32" d="M154.17,41.5h-78A19.5,19.5,0,0,0,56.67,61v78a19.5,19.5,0,0,0,19.5,19.5h78a19.5,19.5,0,0,0,19.5-19.5V61A19.5,19.5,0,0,0,154.17,41.5Zm2,59.26a3.24,3.24,0,0,1-4.59,0,3.21,3.21,0,0,1-.95-2.09l-8.82-8.82V69.92a1.63,1.63,0,0,0-1.63-1.63h-3.25a1.63,1.63,0,0,0-1.62,1.63V83.6l-4.88-5.13-15-15a1.62,1.62,0,0,0-2.3,0L78.59,97.89a1.64,1.64,0,0,0,0,2.3l2.3,2.3a1.64,1.64,0,0,0,2.3,0l26.43-26.43a6.49,6.49,0,0,1,9.19,0l26.43,26.43a6.51,6.51,0,0,1,0,9.19l-2.3,2.3a6.49,6.49,0,0,1-9.19,0L115.36,95.59a1.64,1.64,0,0,0-2.3,0L94.68,114a1.62,1.62,0,0,0,0,2.3l2.3,2.29a1.61,1.61,0,0,0,2.29,0l10.35-10.34a6.49,6.49,0,0,1,9.19,0l10.34,10.34a6.51,6.51,0,0,1,0,9.2L118,138.89a3.21,3.21,0,0,1-1,2.09,3.25,3.25,0,1,1-2.5-5.54l11.12-11.12a1.62,1.62,0,0,0,0-2.3l-10.34-10.34a1.62,1.62,0,0,0-2.3,0L102.72,122a6.49,6.49,0,0,1-9.19,0l-2.3-2.3a6.49,6.49,0,0,1,0-9.19l18.39-18.38a6.49,6.49,0,0,1,9.19,0l18.38,18.38a1.64,1.64,0,0,0,2.3,0l2.3-2.3a1.64,1.64,0,0,0,0-2.3L115.36,79.51a1.62,1.62,0,0,0-2.3,0L86.63,105.93a6.49,6.49,0,0,1-9.19,0l-2.3-2.29a6.52,6.52,0,0,1,0-9.2L109.62,60a6.49,6.49,0,0,1,9.19,0l11.6,11.61V69.92a6.5,6.5,0,0,1,6.5-6.5h3.25a6.5,6.5,0,0,1,6.5,6.5V87.83l7.4,7.39a3.25,3.25,0,0,1,2.09,5.54Z"/><path class="e855359f-4fd6-492e-94f5-da6b6f316a32" d="M612.42,61H624.1v3.65h-3.71v11H616.1v-11h-3.68Zm13.09,0h4.72l3.34,7.78L637,61h4.72V75.62h-3.85V67.39l-2.77,6.81h-2.92l-2.77-6.81v8.23h-3.85Z"/><path class="e855359f-4fd6-492e-94f5-da6b6f316a32" d="M271.65,61v78H254.31V107h-34v32H202.92V61h17.35V91.75h34V61Zm10.65,39c0-22.41,16.77-39,39.65-39s39.64,16.48,39.64,39S344.72,139,322,139,282.3,122.41,282.3,100Zm62.09.39c0-14.19-9.63-23.9-22.44-23.9s-22.45,9.71-22.45,23.9,9.64,23.89,22.45,23.89S344.39,114.57,344.39,100.39ZM368.8,100c0-22.41,16.77-39,39.65-39s39.64,16.48,39.64,39-16.87,39-39.64,39S368.8,122.41,368.8,100Zm62.09.39c0-14.19-9.63-23.9-22.44-23.9S386,86.2,386,100.39s9.64,23.89,22.45,23.89S430.89,114.57,430.89,100.39Zm96.58,17.33c0,13.48-10.28,21.28-30,21.28H458.74V61h36.61c18.74,0,28.38,8.13,28.38,20.28a18.86,18.86,0,0,1-10,17.16C522.12,101.23,527.47,107.91,527.47,117.72ZM476.71,76.06V93.67h16.5c8.1,0,12.5-3,12.5-8.86s-4.4-8.75-12.5-8.75Zm32.59,39.47c0-6.29-4.61-9.28-13.22-9.28H476.71v18.46h19.37C504.69,124.71,509.3,121.93,509.3,115.53Zm23.38,14.74,5.69-13.14A41.52,41.52,0,0,0,562.28,125c9.94,0,14-3.44,14-8.08,0-14.11-42.13-4.41-42.13-32.42,0-12.82,9.94-23.49,30.53-23.49,9.11,0,18.43,2.26,25.16,6.68l-5.18,13.25A39.67,39.67,0,0,0,564.56,75c-9.94,0-13.77,3.87-13.77,8.61,0,13.9,42.13,4.31,42.13,32,0,12.61-10,23.38-30.74,23.38C550.69,139,539.1,135.44,532.68,130.27Z"/><path class="a4ff2c01-f711-452f-a61c-7e4849a79e48" d="M1080.21,99.27q0-28.32,0-56.64c0-1.47.32-1.89,1.85-1.89,12.23.07,24.47-.15,36.7.1a34.67,34.67,0,0,1,26.49,12.5c9.59,11,10.94,28.2,3.85,40.67-6.31,11.09-16.09,17-28.78,17.92-8.07.59-16.18.12-24.27.22-2.68,0-2.68,0-2.68,2.78,0,13.73,0,27.45,0,41.18,0,1.45-.31,2-1.86,1.92q-4.68-.18-9.36,0c-1.55.07-2-.33-2-1.94C1080.23,137.15,1080.21,118.21,1080.21,99.27Zm13.12-22.83c0,7.26,0,14.51,0,21.76,0,1.44.41,1.78,1.8,1.76,7.91-.15,15.82.18,23.73-.2a21.48,21.48,0,0,0,15.1-6.84c4.86-5.17,6.75-11.47,6.24-18.55A22.68,22.68,0,0,0,1117.66,53c-7.55-.07-15.11,0-22.67-.05-1.38,0-1.7.43-1.69,1.74C1093.36,61.94,1093.33,69.19,1093.33,76.44Z"/><path class="a4ff2c01-f711-452f-a61c-7e4849a79e48" d="M1427.5,137.4q0,6.53,0,13c0,.85-.65,1.2-1.24,1.62a45.16,45.16,0,0,1-24.29,8.47c-8.45.55-16.68-.07-24.54-3.51a37.08,37.08,0,0,1-17.7-15.48c-5.34-9.07-6.82-18.94-6.19-29.28a47.44,47.44,0,0,1,4.6-18.42c6.5-13.15,17.24-20.47,31.66-22.47a39.34,39.34,0,0,1,24.32,4,37.11,37.11,0,0,1,17.1,19,49.35,49.35,0,0,1,3.53,22.78c-.11,1.61-1.08,1.1-1.83,1.1q-32,0-64.05,0c-3.07,0-3,0-2.68,3,.71,6.07,2.44,11.75,6.2,16.7a26.27,26.27,0,0,0,18.4,10.59c11.42,1.37,22.24-.49,31.83-7.31C1424.25,140.12,1425.83,138.86,1427.5,137.4Zm-33.43-30.08c8.45,0,16.91-.06,25.36.05,1.77,0,2.15-.6,2-2.13-1.39-10.38-7.1-17.48-16.84-21-9.13-3.26-18-1.7-25.94,3.63-6.36,4.23-10.58,10-11.63,17.85-.19,1.4.14,1.59,1.38,1.58C1376.92,107.3,1385.5,107.32,1394.07,107.32Z"/><path class="a4ff2c01-f711-452f-a61c-7e4849a79e48" d="M1169.3,100.75c0-8.63,0-17.26,0-25.89,0-1.29.27-1.79,1.67-1.74q4.59.16,9.17,0c1.46-.06,1.78.44,1.78,1.82q-.08,24.72,0,49.44c0,5.39,1,10.6,4.17,15.12,4,5.8,9.9,8.23,16.73,8.6a26.81,26.81,0,0,0,13-2c8-3.7,11.55-10.46,11.9-18.77.72-17.18.15-34.38.28-51.57,0-3-.38-2.57,2.55-2.59s5.64,0,8.46,0c1.1,0,1.58.21,1.57,1.46,0,17.08.08,34.17-.07,51.24a35.24,35.24,0,0,1-5.57,19.32,31.07,31.07,0,0,1-19.35,13.43,43.82,43.82,0,0,1-24-.55c-12.18-3.84-19.08-12.3-21.48-24.65a42,42,0,0,1-.74-8Q1169.28,113.07,1169.3,100.75Z"/><path class="a4ff2c01-f711-452f-a61c-7e4849a79e48" d="M1285.34,135.62c2.44,2,4.61,4,7,5.7,8.94,6.36,18.86,8.16,29.46,6,5.24-1.06,9.53-4.66,9.9-10.11.35-5.07-2-8.82-5.9-11.76-4.86-3.64-10.5-5.87-15.85-8.63-4.66-2.4-9.27-4.86-13.29-8.29-11-9.34-9.1-28.2,4-34.53,9.42-4.54,19-4.29,28.73-1a26.1,26.1,0,0,1,2.78,1.19c3.52,1.66,6,3.84,5.17,8.33-.38,2.09,0,4.3-.08,6.46,0,.43.29,1-.34,1.24-.47.16-.68-.38-1-.63-4.64-3.75-9.82-6.37-15.81-7a25.58,25.58,0,0,0-11.36.94c-3.26,1.18-5.76,3.11-6.43,6.78a9.92,9.92,0,0,0,3.34,10c3,2.62,6.7,4.31,10.21,6.18,6.2,3.3,12.6,6.19,18.41,10.25a23.41,23.41,0,0,1,4.88,33.73c-4.29,5.15-9.92,7.75-16.29,8.79-10.85,1.76-21.28.43-31.06-4.89a35.62,35.62,0,0,1-5.57-3.85,2,2,0,0,1-1-1.62C1285.36,144.46,1285.34,140,1285.34,135.62Z"/><path class="a4ff2c01-f711-452f-a61c-7e4849a79e48" d="M1271.11,99.58c0,18.81,0,37.63,0,56.45,0,1.55-.34,2.08-2,2-2.93-.15-5.88-.14-8.81,0-1.56.07-2.06-.48-1.82-1.93a2.16,2.16,0,0,0,0-.36q0-56.36,0-112.72c0-1.78.36-2.4,2.24-2.28a85.65,85.65,0,0,0,8.63,0c1.48-.06,1.76.48,1.76,1.83Q1271.08,71.08,1271.11,99.58Z"/><path class="a4ff2c01-f711-452f-a61c-7e4849a79e48" d="M875.45,98.6a5.16,5.16,0,0,0,.52,2.5q4.17,8.09,8.31,16.2,10.61,20.82,21.18,41.67a2.17,2.17,0,0,0,2.27,1.46c5-.17,9.95.08,14.94-.37a60.15,60.15,0,0,0,26.51-8.79,54.51,54.51,0,0,0,19-19.52A62,62,0,0,0,976.09,95,62.55,62.55,0,0,0,970,72.55a2.15,2.15,0,0,0-2.29-1.38c-7.93,0-15.86,0-23.79.06-1.5,0-2-.29-2-1.9.09-7.3,0-14.6,0-21.9,0-.9,0-1.65-1.07-2.07a65.51,65.51,0,0,0-23.71-4.82c-13.36-.14-26.72,0-40.08-.08-1.48,0-1.71.48-1.7,1.8.06,9.42,0,18.84,0,28.26S875.47,89.24,875.45,98.6Zm26.31-29.92c0-1.38.22-2,1.79-1.91,4.87.11,9.74-.14,14.6.07,16.55.73,29.57,11.68,31.61,28.38,1,7.85,0,15.37-3.83,22.34-4.51,8.11-11.45,13.09-20.45,15.36-4.77,1.21-9.61,1.08-14.45,1.07-2.37,0-4.75-.11-7.11,0-1.67.1-2.18-.33-2.18-2.1.08-17.9,0-35.8,0-53.7C901.79,75,901.85,71.86,901.76,68.68Z"/><path class="a4ff2c01-f711-452f-a61c-7e4849a79e48" d="M948.29,66.75c10.43-.08,20.85,0,31.27-.09,1.9,0,2.34.44,2.34,2.33-.07,29.69,0,59.38-.09,89.08,0,1.77.28,2.43,2.28,2.39,7.3-.15,14.61-.13,21.91,0,1.81,0,2.22-.44,2.22-2.23-.06-29.88,0-59.76-.08-89.64,0-1.58.41-1.92,1.94-1.91,10.55.07,21.1,0,31.65.08,1.68,0,2.09-.49,2.07-2.11q-.12-10.86,0-21.71c0-1.66-.44-2.1-2.09-2.09-15.54.06-31.08,0-46.63,0s-31.08,0-46.62,0c-1.45,0-1.88.33-1.86,1.83.08,7.42.07,14.84,0,22.27C946.6,66.23,946.78,66.76,948.29,66.75Z"/><path class="a4ff2c01-f711-452f-a61c-7e4849a79e48" d="M780.7,160.42q12.63-.06,25.28,0a2.05,2.05,0,0,0,2.13-1.36c1.62-3.26,3.35-6.47,5-9.74a2.05,2.05,0,0,1,2.14-1.31q24.9.06,49.81,0a2.12,2.12,0,0,1,2.21,1.43c1.56,3.24,3.29,6.39,4.81,9.63a2.06,2.06,0,0,0,2.27,1.35c3.37-.07,6.74,0,10.11,0h16.71L840.19,40.87c-1.68,3.17-3.36,6.23-5,9.35q-9.21,18-18.39,36c-4.61,9-9.17,18.11-13.79,27.15q-11.64,22.78-23.35,45.53C779,160.21,779.39,160.43,780.7,160.42Zm59.45-63.86c4.56,9,9,17.65,13.51,26.54H826.45Z"/></svg>