<svg id="afc00e5a-b413-4c79-bd4a-cbb2259e521d" data-name="Ebene 1" xmlns="http://www.w3.org/2000/svg" viewBox="0 0 1680 200"><defs><style>.f6479e7e-e515-442a-b6f5-fa69d9a31535{fill:none;stroke:#ccc;stroke-miterlimit:10;}.fcc959cd-bad3-49a3-9fce-2cab2e15a4f0{fill:#f9b213;}.a0384ce7-86cc-4992-9300-56c9a2814f6d{fill:#22b9ec;}</style></defs><title>HOOBS_x_wink</title><g id="b254946c-eb4f-4549-8c53-ce6b939f6a9b" data-name="Stroke"><line class="f6479e7e-e515-442a-b6f5-fa69d9a31535" x1="700.5" y1="60" x2="700.5" y2="140"/></g><path class="fcc959cd-bad3-49a3-9fce-2cab2e15a4f0" d="M154.17,41.5h-78A19.5,19.5,0,0,0,56.67,61v78a19.5,19.5,0,0,0,19.5,19.5h78a19.5,19.5,0,0,0,19.5-19.5V61A19.5,19.5,0,0,0,154.17,41.5Zm2,59.26a3.24,3.24,0,0,1-4.59,0,3.21,3.21,0,0,1-.95-2.09l-8.82-8.82V69.92a1.63,1.63,0,0,0-1.63-1.63h-3.25a1.63,1.63,0,0,0-1.62,1.63V83.6l-4.88-5.13-15-15a1.62,1.62,0,0,0-2.3,0L78.59,97.89a1.64,1.64,0,0,0,0,2.3l2.3,2.3a1.64,1.64,0,0,0,2.3,0l26.43-26.43a6.49,6.49,0,0,1,9.19,0l26.43,26.43a6.51,6.51,0,0,1,0,9.19l-2.3,2.3a6.49,6.49,0,0,1-9.19,0L115.36,95.59a1.64,1.64,0,0,0-2.3,0L94.68,114a1.62,1.62,0,0,0,0,2.3l2.3,2.29a1.61,1.61,0,0,0,2.29,0l10.35-10.34a6.49,6.49,0,0,1,9.19,0l10.34,10.34a6.51,6.51,0,0,1,0,9.2L118,138.89a3.21,3.21,0,0,1-1,2.09,3.25,3.25,0,1,1-2.5-5.54l11.12-11.12a1.62,1.62,0,0,0,0-2.3l-10.34-10.34a1.62,1.62,0,0,0-2.3,0L102.72,122a6.49,6.49,0,0,1-9.19,0l-2.3-2.3a6.49,6.49,0,0,1,0-9.19l18.39-18.38a6.49,6.49,0,0,1,9.19,0l18.38,18.38a1.64,1.64,0,0,0,2.3,0l2.3-2.3a1.64,1.64,0,0,0,0-2.3L115.36,79.51a1.62,1.62,0,0,0-2.3,0L86.63,105.93a6.49,6.49,0,0,1-9.19,0l-2.3-2.29a6.52,6.52,0,0,1,0-9.2L109.62,60a6.49,6.49,0,0,1,9.19,0l11.6,11.61V69.92a6.5,6.5,0,0,1,6.5-6.5h3.25a6.5,6.5,0,0,1,6.5,6.5V87.83l7.4,7.39a3.25,3.25,0,0,1,2.09,5.54Z"/><path class="fcc959cd-bad3-49a3-9fce-2cab2e15a4f0" d="M612.42,61H624.1v3.65h-3.71v11H616.1v-11h-3.68Zm13.09,0h4.72l3.34,7.78L637,61h4.72V75.62h-3.85V67.39l-2.77,6.81h-2.92l-2.77-6.81v8.23h-3.85Z"/><path class="fcc959cd-bad3-49a3-9fce-2cab2e15a4f0" d="M271.65,61v78H254.31V107h-34v32H202.92V61h17.35V91.75h34V61Zm10.65,39c0-22.41,16.77-39,39.65-39s39.64,16.48,39.64,39S344.72,139,322,139,282.3,122.41,282.3,100Zm62.09.39c0-14.19-9.63-23.9-22.44-23.9s-22.45,9.71-22.45,23.9,9.64,23.89,22.45,23.89S344.39,114.57,344.39,100.39ZM368.8,100c0-22.41,16.77-39,39.65-39s39.64,16.48,39.64,39-16.87,39-39.64,39S368.8,122.41,368.8,100Zm62.09.39c0-14.19-9.63-23.9-22.44-23.9S386,86.2,386,100.39s9.64,23.89,22.45,23.89S430.89,114.57,430.89,100.39Zm96.58,17.33c0,13.48-10.28,21.28-30,21.28H458.74V61h36.61c18.74,0,28.38,8.13,28.38,20.28a18.86,18.86,0,0,1-10,17.16C522.12,101.23,527.47,107.91,527.47,117.72ZM476.71,76.06V93.67h16.5c8.1,0,12.5-3,12.5-8.86s-4.4-8.75-12.5-8.75Zm32.59,39.47c0-6.29-4.61-9.28-13.22-9.28H476.71v18.46h19.37C504.69,124.71,509.3,121.93,509.3,115.53Zm23.38,14.74,5.69-13.14A41.52,41.52,0,0,0,562.28,125c9.94,0,14-3.44,14-8.08,0-14.11-42.13-4.41-42.13-32.42,0-12.82,9.94-23.49,30.53-23.49,9.11,0,18.43,2.26,25.16,6.68l-5.18,13.25A39.67,39.67,0,0,0,564.56,75c-9.94,0-13.77,3.87-13.77,8.61,0,13.9,42.13,4.31,42.13,32,0,12.61-10,23.38-30.74,23.38C550.69,139,539.1,135.44,532.68,130.27Z"/><g id="b64b4752-6f22-415d-b9c3-cfe1b6dc2922" data-name="wink"><g id="b13fd31c-b9c7-43e0-9dbf-b89c896f8346" data-name="Wink-2"><path id="a1495f9f-2c5f-4f3a-86ac-b621f0921d8c" data-name="W" class="a0384ce7-86cc-4992-9300-56c9a2814f6d" d="M779.44,81.06h26.87l14.36,35.77c1.66-6.21,12.68-25.18,19-37.76h1.92c6.62,12.44,18.52,32.3,19.87,37.33l14.71-35.34h24.39L864.65,160h-2.23c-7.43-14.18-20.58-36.13-22.29-42.53C838.34,124.15,824.7,145.82,817,160h-2.1Z"/><path id="a7846038-5475-4d75-8abf-e6ea4b91e57b" data-name="i" class="a0384ce7-86cc-4992-9300-56c9a2814f6d" d="M908.18,49.1,922.83,40l14.69,9.1V68H908.18Zm2.49,32h24.38v76.95H910.67Z"/><path id="e273d7c9-113f-47f2-acc1-f441361d77fc" data-name="n" class="a0384ce7-86cc-4992-9300-56c9a2814f6d" d="M954.52,81.06h24.4l-.4,12.44c9.45-20.88,52.39-21.74,53.25,18.85V158h-24.42l-.07-43.24c.46-19.41-29.74-16.14-28.29,2L978.92,158h-24.4Z"/><path id="be724f9f-720d-4a18-90f7-13fc224e4587" data-name="k" class="a0384ce7-86cc-4992-9300-56c9a2814f6d" d="M1046.81,81.12h24.38l-.07,28,24-28.09h27.08l-27.15,31.43,30.1,45.52h-28.4l-19.12-29-6.47,6.82V158h-24.38Z"/></g></g></svg>