<svg id="bbe90274-2617-40ba-a103-67bd7d4a8c31" data-name="Ebene 1" xmlns="http://www.w3.org/2000/svg" viewBox="0 0 1680 200"><defs><style>.adaacf5a-04e6-4eca-bf53-7c658861f700{fill:none;stroke:#ccc;stroke-miterlimit:10;}.ea7df90b-cdb1-471a-9957-2454246372b2{fill:#f9b213;}.f1e0a485-995d-461e-93d4-d1ccb4f0af43,.f61a407a-eb24-4ae0-b8cd-cbcfd3698dfb{fill:#de1e34;}.f61a407a-eb24-4ae0-b8cd-cbcfd3698dfb{fill-rule:evenodd;}.bd4d23fe-d7f4-4b9f-9855-eb82ee2cbfcc{isolation:isolate;}.b6aff8ba-48ba-47fa-bd91-284ec6fc33f9{fill:#ccc;}</style></defs><title>HOOBS_x_evohome</title><g id="a55f8f11-ba3b-4e4f-8ae3-cb26a45ed0df" data-name="Stroke"><line class="adaacf5a-04e6-4eca-bf53-7c658861f700" x1="700.5" y1="60" x2="700.5" y2="140"/></g><path class="ea7df90b-cdb1-471a-9957-2454246372b2" d="M154.17,41.5h-78A19.5,19.5,0,0,0,56.67,61v78a19.5,19.5,0,0,0,19.5,19.5h78a19.5,19.5,0,0,0,19.5-19.5V61A19.5,19.5,0,0,0,154.17,41.5Zm2,59.26a3.24,3.24,0,0,1-4.59,0,3.21,3.21,0,0,1-.95-2.09l-8.82-8.82V69.92a1.63,1.63,0,0,0-1.63-1.63h-3.25a1.63,1.63,0,0,0-1.62,1.63V83.6l-4.88-5.13-15-15a1.62,1.62,0,0,0-2.3,0L78.59,97.89a1.64,1.64,0,0,0,0,2.3l2.3,2.3a1.64,1.64,0,0,0,2.3,0l26.43-26.43a6.49,6.49,0,0,1,9.19,0l26.43,26.43a6.51,6.51,0,0,1,0,9.19l-2.3,2.3a6.49,6.49,0,0,1-9.19,0L115.36,95.59a1.64,1.64,0,0,0-2.3,0L94.68,114a1.62,1.62,0,0,0,0,2.3l2.3,2.29a1.61,1.61,0,0,0,2.29,0l10.35-10.34a6.49,6.49,0,0,1,9.19,0l10.34,10.34a6.51,6.51,0,0,1,0,9.2L118,138.89a3.21,3.21,0,0,1-1,2.09,3.25,3.25,0,1,1-2.5-5.54l11.12-11.12a1.62,1.62,0,0,0,0-2.3l-10.34-10.34a1.62,1.62,0,0,0-2.3,0L102.72,122a6.49,6.49,0,0,1-9.19,0l-2.3-2.3a6.49,6.49,0,0,1,0-9.19l18.39-18.38a6.49,6.49,0,0,1,9.19,0l18.38,18.38a1.64,1.64,0,0,0,2.3,0l2.3-2.3a1.64,1.64,0,0,0,0-2.3L115.36,79.51a1.62,1.62,0,0,0-2.3,0L86.63,105.93a6.49,6.49,0,0,1-9.19,0l-2.3-2.29a6.52,6.52,0,0,1,0-9.2L109.62,60a6.49,6.49,0,0,1,9.19,0l11.6,11.61V69.92a6.5,6.5,0,0,1,6.5-6.5h3.25a6.5,6.5,0,0,1,6.5,6.5V87.83l7.4,7.39a3.25,3.25,0,0,1,2.09,5.54Z"/><path class="ea7df90b-cdb1-471a-9957-2454246372b2" d="M612.42,61H624.1v3.65h-3.71v11H616.1v-11h-3.68Zm13.09,0h4.72l3.34,7.78L637,61h4.72V75.62h-3.85V67.39l-2.77,6.81h-2.92l-2.77-6.81v8.23h-3.85Z"/><path class="ea7df90b-cdb1-471a-9957-2454246372b2" d="M271.65,61v78H254.31V107h-34v32H202.92V61h17.35V91.75h34V61Zm10.65,39c0-22.41,16.77-39,39.65-39s39.64,16.48,39.64,39S344.72,139,322,139,282.3,122.41,282.3,100Zm62.09.39c0-14.19-9.63-23.9-22.44-23.9s-22.45,9.71-22.45,23.9,9.64,23.89,22.45,23.89S344.39,114.57,344.39,100.39ZM368.8,100c0-22.41,16.77-39,39.65-39s39.64,16.48,39.64,39-16.87,39-39.64,39S368.8,122.41,368.8,100Zm62.09.39c0-14.19-9.63-23.9-22.44-23.9S386,86.2,386,100.39s9.64,23.89,22.45,23.89S430.89,114.57,430.89,100.39Zm96.58,17.33c0,13.48-10.28,21.28-30,21.28H458.74V61h36.61c18.74,0,28.38,8.13,28.38,20.28a18.86,18.86,0,0,1-10,17.16C522.12,101.23,527.47,107.91,527.47,117.72ZM476.71,76.06V93.67h16.5c8.1,0,12.5-3,12.5-8.86s-4.4-8.75-12.5-8.75Zm32.59,39.47c0-6.29-4.61-9.28-13.22-9.28H476.71v18.46h19.37C504.69,124.71,509.3,121.93,509.3,115.53Zm23.38,14.74,5.69-13.14A41.52,41.52,0,0,0,562.28,125c9.94,0,14-3.44,14-8.08,0-14.11-42.13-4.41-42.13-32.42,0-12.82,9.94-23.49,30.53-23.49,9.11,0,18.43,2.26,25.16,6.68l-5.18,13.25A39.67,39.67,0,0,0,564.56,75c-9.94,0-13.77,3.87-13.77,8.61,0,13.9,42.13,4.31,42.13,32,0,12.61-10,23.38-30.74,23.38C550.69,139,539.1,135.44,532.68,130.27Z"/><g id="ae18c3e1-96c4-4064-9362-d6384770c277" data-name="honeywell"><g id="a6e8019e-d74a-4750-ac48-80553af85075" data-name="g7"><polygon id="bee6b7b3-e412-4063-910e-74209972be51" data-name="polygon9" class="f61a407a-eb24-4ae0-b8cd-cbcfd3698dfb" points="1140.71 160.09 1149.75 160.09 1149.75 127.92 1140.71 127.92 1140.71 160.09 1140.71 160.09"/><polygon id="e7109981-dcef-470e-84b1-e7543597af11" data-name="polygon11" class="f61a407a-eb24-4ae0-b8cd-cbcfd3698dfb" points="1163.05 127.92 1163.05 160.09 1154.01 160.09 1154.01 127.92 1163.05 127.92 1163.05 127.92"/><polygon id="f3fae208-1421-465b-95ba-8e70ec95a9e5" data-name="polygon13" class="f61a407a-eb24-4ae0-b8cd-cbcfd3698dfb" points="944.37 140.41 937.06 140.41 937.06 127.92 925.1 127.92 925.1 160.09 937.06 160.09 937.06 144.13 944.37 144.13 944.37 160.09 956.34 160.09 956.34 127.92 944.37 127.92 944.37 140.41 944.37 140.41"/><path id="a202d8c3-f518-4d96-a685-eb4b51229e04" data-name="path15" class="f61a407a-eb24-4ae0-b8cd-cbcfd3698dfb" d="M1000.54,139.88l-.73-2.11H990v22.34h9.84V146.66h0c0-2.92,1.86-4.52,3.45-4.52,1.33,0,3.06.27,3.06,3.19h0v14.75h9.84V145.6h0c0-8.11-9.1-11.3-15.62-5.72Z"/><path id="fcd295d8-59a1-4118-b106-05d7d715dfe4" data-name="path17" class="f61a407a-eb24-4ae0-b8cd-cbcfd3698dfb" d="M1101.57,150.71l-4.59-13h-6.71l-4.59,13.49-4.78-13.49h-13.17L1063,149.13l-6.65-11.38h-11.23l13.22,22.6-1.72,4.25h0c-.6,1.34-2,1.4-2.32.14a4.14,4.14,0,0,0-8.27,0h0c0,2.39,2.41,5.52,7.13,5.31s6.71-4.11,7.38-5.77h0l10.93-26.44,7.9,22.25h7.16l4.39-12.83,4.52,12.83h6.78l7.64-22.34h-3.94l-4.39,13Z"/><path id="eb55047f-dc67-4b1b-92f6-4b0b38c065c7" data-name="path19" class="f61a407a-eb24-4ae0-b8cd-cbcfd3698dfb" d="M973.29,136.62c-7.53,0-13.63,5.6-13.63,12.5s6.1,12.5,13.63,12.5,13.62-5.6,13.62-12.5S980.81,136.62,973.29,136.62ZM976.66,155a3.39,3.39,0,0,1-6.78,0h0v-11.7h0a3.39,3.39,0,1,1,6.78,0h0Z"/><path id="bea74eec-e346-4bcf-a56c-921bae89698a" data-name="path21" class="f61a407a-eb24-4ae0-b8cd-cbcfd3698dfb" d="M1046.23,150.92a13.58,13.58,0,0,0,.1-1.8c0-6.9-6.09-12.5-13.62-12.5s-13.63,5.6-13.63,12.5,6.1,12.5,13.63,12.5a13.84,13.84,0,0,0,12-6.54h0l-3-1.11h0a10.66,10.66,0,0,1-9,4.64,3.6,3.6,0,0,1-3.37-3.65h0v-4.05Zm-16.92-7.65a3.4,3.4,0,0,1,6.79,0h0v4.45h-6.79v-4.45Z"/><path id="e3da33eb-e99a-4c21-b2a3-01136488df20" data-name="path23" class="f61a407a-eb24-4ae0-b8cd-cbcfd3698dfb" d="M1137.29,150.92a15.53,15.53,0,0,0,.11-1.8c0-6.9-6.11-12.5-13.63-12.5s-13.61,5.6-13.61,12.5,6.1,12.5,13.63,12.5a13.81,13.81,0,0,0,12-6.54h0l-3-1.11h0a10.69,10.69,0,0,1-9,4.64,3.6,3.6,0,0,1-3.38-3.65h0v-4.05Zm-16.91-7.65a3.39,3.39,0,1,1,6.77,0h0v4.45h-6.77Z"/></g></g><path class="f1e0a485-995d-461e-93d4-d1ccb4f0af43" d="M875.73,160.24H802.3c-.41-.64-1.14-.54-1.73-.66a27,27,0,0,1-21.09-25.8q0-33.37,0-66.74c0-14.11,12.1-26.33,26.22-26.39,22.36-.09,44.72-.25,67.08.07,11.06.16,19,5.91,23.89,15.9,1.09,2.23,1.35,4.69,2.32,6.93v74.1c-.64.41-.51,1.14-.66,1.73A27,27,0,0,1,883,157.91C880.66,159,878.1,159.31,875.73,160.24ZM837.81,81.82a17.22,17.22,0,0,0-.6-6.2,13.56,13.56,0,0,0-14.67-9.34,13.41,13.41,0,0,0-11.6,13.59q0,13.2,0,26.4a7.77,7.77,0,0,1-1,3.9c-3.12,5.88-3,11.75.77,17.26a15.53,15.53,0,0,0,15.59,7.1c6.85-.86,11.47-4.85,13.67-11.42.43-1.27,1-1.52,2.2-1.52,8.91,0,17.82,0,26.73.06,1.43,0,1.72-.43,1.71-1.77-.06-8.24,0-16.49,0-24.73,0-3.35,0-3.41-3.35-3.33-1.22,0-1.67-.32-1.91-1.54-1.31-6.61-5.2-11-11.71-12.8C847.73,75.81,842.58,77.52,837.81,81.82Z"/><path class="f1e0a485-995d-461e-93d4-d1ccb4f0af43" d="M817.24,77.88c1.2-3.76,4.28-5.91,7.67-5.54A7.34,7.34,0,0,1,831.59,79c.48,4.53.16,9.06.21,13.59.06,5.59,0,11.18,0,16.77a3.66,3.66,0,0,0,.79,2.43,10.4,10.4,0,0,1-14.54,14.63,10.18,10.18,0,0,1-2.54-13.64,9.07,9.07,0,0,0,1.45-5.54c-.09-2.48,0-2.48,2.54-2.49h.17c1.56,0,2.28-1.18,1.68-2.69-.17-.42-.46-.41-.78-.41a12,12,0,0,0-2,0c-1.49.23-1.76-.48-1.67-1.78.05-.84.24-1.16,1.13-1.12,1.6.06,3.22-.11,4.81,0s1.33-.69,1.41-1.67c.1-1.22-.36-1.49-1.48-1.42-1.6.1-3.21,0-4.81,0-1.18.06-1.06-.64-1-1.37s-.32-1.68,1-1.54c.5,0,1,0,1.5,0,2.09,0,2.06,0,1.93-2.14,0-.67-.2-1-.94-1s-1.22,0-1.83,0c-1.56,0-2.19-.93-1.68-2.37.22-.61.7-.44,1.1-.45,1.71,0,3.43-.08,5.14,0,1.51.08,1-1,1-1.67s.29-1.57-1-1.49c-1.77.1-3.55,0-5.31,0-1.15.07-1-.62-.92-1.25s-.47-1.69.92-1.62c.72,0,1.45-.06,2.16,0,1.12.13,1.34-.36,1.39-1.4.06-1.37-.33-1.93-1.73-1.74A19.75,19.75,0,0,1,817.24,77.88Zm4,40.33a3.09,3.09,0,0,0,3.08,3,3.14,3.14,0,0,0,3-3,3,3,0,1,0-6,0Z"/><path class="f1e0a485-995d-461e-93d4-d1ccb4f0af43" d="M851.75,96.86c4.15,0,8.3,0,12.45,0,1,0,1.31.27,1.3,1.29q-.06,8.64,0,17.26c0,.92-.23,1.24-1.2,1.24q-11.2-.06-22.4,0c-.81,0-1.18-.19-1.3-1a15.6,15.6,0,0,0-2.38-6.3,2.8,2.8,0,0,1-.4-1.56c0-3.21.06-6.42,0-9.63,0-1.08.37-1.26,1.34-1.25C843.34,96.89,847.55,96.86,851.75,96.86ZM849.34,112c3,0,3,0,2.43-2.89a10.58,10.58,0,0,0-.41-1.77,1.68,1.68,0,0,1,.35-1.92,2.76,2.76,0,0,0-.22-4,2.85,2.85,0,0,0-3.91-.08,2.79,2.79,0,0,0-.3,4.12,1.66,1.66,0,0,1,.34,1.92,15.47,15.47,0,0,0-.45,1.93C846.6,112,846.6,112,849.34,112Z"/><path class="f1e0a485-995d-461e-93d4-d1ccb4f0af43" d="M849.51,91.79c-3.2,0-6.4,0-9.61,0-1.09,0-1.57,0-1.19-1.41a11.14,11.14,0,0,1,21.62.1c.27,1,.06,1.34-1,1.32C856,91.75,852.77,91.79,849.51,91.79Z"/><g class="bd4d23fe-d7f4-4b9f-9855-eb82ee2cbfcc"><path class="b6aff8ba-48ba-47fa-bd91-284ec6fc33f9" d="M968.41,53.13h-29.8v12H966v9.77H938.61V89.34h31.17V99.46H927.12V43.16h41.29Z"/><path class="b6aff8ba-48ba-47fa-bd91-284ec6fc33f9" d="M1003.72,57.83h11.69l-15,41.63H988.89L974,57.83h12.23l8.67,30.71Z"/><path class="b6aff8ba-48ba-47fa-bd91-284ec6fc33f9" d="M1056.29,94.37q-5.26,6.51-16,6.51t-16-6.51A24.08,24.08,0,0,1,1019,78.7a24.26,24.26,0,0,1,5.28-15.61q5.26-6.6,16-6.6t16,6.6a24.25,24.25,0,0,1,5.27,15.61A24.07,24.07,0,0,1,1056.29,94.37Zm-8.71-6q2.57-3.39,2.56-9.65t-2.56-9.63a9.68,9.68,0,0,0-14.68,0q-2.58,3.38-2.58,9.63t2.58,9.65a9.62,9.62,0,0,0,14.68,0Z"/><path class="b6aff8ba-48ba-47fa-bd91-284ec6fc33f9" d="M1091.89,99.46V43.16h11.69V64.63h21.88V43.16h11.69v56.3h-11.69V74.33h-21.88V99.46Z"/><path class="b6aff8ba-48ba-47fa-bd91-284ec6fc33f9" d="M1182.3,94.37q-5.27,6.51-16,6.51t-16-6.51A24.13,24.13,0,0,1,1145,78.7a24.31,24.31,0,0,1,5.27-15.61q5.28-6.6,16-6.6t16,6.6a24.31,24.31,0,0,1,5.27,15.61A24.13,24.13,0,0,1,1182.3,94.37Zm-8.71-6q2.57-3.39,2.56-9.65t-2.56-9.63a9.68,9.68,0,0,0-14.68,0q-2.58,3.38-2.58,9.63t2.58,9.65a9.62,9.62,0,0,0,14.68,0Z"/><path class="b6aff8ba-48ba-47fa-bd91-284ec6fc33f9" d="M1247.31,58a12.18,12.18,0,0,1,7.22,9.09,37.52,37.52,0,0,1,.38,6.15l-.08,26.24h-11.15V73a8.71,8.71,0,0,0-.76-3.9c-1-1.94-2.75-2.9-5.35-2.9-3,0-5.08,1.24-6.23,3.74a11.81,11.81,0,0,0-.88,4.77V99.46h-11V74.67a13.89,13.89,0,0,0-.76-5.38c-.92-2-2.71-3-5.39-3q-4.65,0-6.26,3a11.54,11.54,0,0,0-.88,5.12v25h-11V57.91h10.58V64a17.44,17.44,0,0,1,3.82-4.62A15.1,15.1,0,0,1,1225.5,59a12.27,12.27,0,0,1,3.59,5,13.9,13.9,0,0,1,5.31-5.39,16.25,16.25,0,0,1,7.48-1.72A14.55,14.55,0,0,1,1247.31,58Z"/><path class="b6aff8ba-48ba-47fa-bd91-284ec6fc33f9" d="M1292,58.67a16.93,16.93,0,0,1,7.2,6.16,20.55,20.55,0,0,1,3.32,8.61,53,53,0,0,1,.35,8.26h-30.32q.26,6.27,4.36,8.79a11.08,11.08,0,0,0,6,1.56,9.16,9.16,0,0,0,6-1.91,8.89,8.89,0,0,0,2.24-2.86h11.12c-.3,2.47-1.64,5-4,7.52q-5.6,6.08-15.66,6.08A22.7,22.7,0,0,1,1268,95.75q-6.35-5.11-6.35-16.67,0-10.81,5.74-16.59t14.88-5.77A23.67,23.67,0,0,1,1292,58.67Zm-16.28,9.41a11.3,11.3,0,0,0-2.9,6.44h18.75a9,9,0,0,0-2.9-6.58,9.54,9.54,0,0,0-6.45-2.24A8.62,8.62,0,0,0,1275.76,68.08Z"/></g><g class="bd4d23fe-d7f4-4b9f-9855-eb82ee2cbfcc"><path class="b6aff8ba-48ba-47fa-bd91-284ec6fc33f9" d="M932.37,113.78a4.24,4.24,0,0,1,.84,2.73,4.79,4.79,0,0,1-.83,2.88,2.67,2.67,0,0,1-2.3,1.14,2.63,2.63,0,0,1-1.49-.37,3,3,0,0,1-.73-.76v.93h-1.92V110.27h1.95v3.58a2.77,2.77,0,0,1,.82-.79,2.41,2.41,0,0,1,1.35-.34A2.78,2.78,0,0,1,932.37,113.78Zm-1.63,4.54a2.78,2.78,0,0,0,.42-1.6,3.82,3.82,0,0,0-.2-1.32,1.45,1.45,0,0,0-1.45-1,1.47,1.47,0,0,0-1.47,1,3.56,3.56,0,0,0-.21,1.33,2.75,2.75,0,0,0,.43,1.58,1.47,1.47,0,0,0,1.3.63A1.35,1.35,0,0,0,930.74,118.32Z"/><path class="b6aff8ba-48ba-47fa-bd91-284ec6fc33f9" d="M934.86,121.76h.24a2.51,2.51,0,0,0,.55,0,1,1,0,0,0,.44-.15,1.11,1.11,0,0,0,.31-.49,1.23,1.23,0,0,0,.13-.45l-2.74-7.78H936l1.63,5.5,1.53-5.5h2.08l-2.56,7.33a10.17,10.17,0,0,1-1.17,2.63,2.23,2.23,0,0,1-1.73.51h-.41l-.47,0Z"/></g></svg>