<svg id="ea26dfce-d157-46a1-912d-478cf6d8d4e5" data-name="Ebene 1" xmlns="http://www.w3.org/2000/svg" viewBox="0 0 1680 200"><defs><style>.e3f9d41b-1a06-4c8d-8196-394de641de21{fill:none;stroke:#ccc;stroke-miterlimit:10;}.e466e553-165c-4960-830f-1a1bf6527d21{fill:#f9b213;}.b2c05cb5-b5cd-41a8-8050-9871a55c4cac{fill:#ccc;fill-rule:evenodd;}</style></defs><title>HOOBS_x_bravia</title><g id="a63484dd-580f-4234-9bd0-340b936727f5" data-name="Stroke"><line class="e3f9d41b-1a06-4c8d-8196-394de641de21" x1="700.5" y1="60" x2="700.5" y2="140"/></g><path class="e466e553-165c-4960-830f-1a1bf6527d21" d="M154.17,41.5h-78A19.5,19.5,0,0,0,56.67,61v78a19.5,19.5,0,0,0,19.5,19.5h78a19.5,19.5,0,0,0,19.5-19.5V61A19.5,19.5,0,0,0,154.17,41.5Zm2,59.26a3.24,3.24,0,0,1-4.59,0,3.21,3.21,0,0,1-.95-2.09l-8.82-8.82V69.92a1.63,1.63,0,0,0-1.63-1.63h-3.25a1.63,1.63,0,0,0-1.62,1.63V83.6l-4.88-5.13-15-15a1.62,1.62,0,0,0-2.3,0L78.59,97.89a1.64,1.64,0,0,0,0,2.3l2.3,2.3a1.64,1.64,0,0,0,2.3,0l26.43-26.43a6.49,6.49,0,0,1,9.19,0l26.43,26.43a6.51,6.51,0,0,1,0,9.19l-2.3,2.3a6.49,6.49,0,0,1-9.19,0L115.36,95.59a1.64,1.64,0,0,0-2.3,0L94.68,114a1.62,1.62,0,0,0,0,2.3l2.3,2.29a1.61,1.61,0,0,0,2.29,0l10.35-10.34a6.49,6.49,0,0,1,9.19,0l10.34,10.34a6.51,6.51,0,0,1,0,9.2L118,138.89a3.21,3.21,0,0,1-1,2.09,3.25,3.25,0,1,1-2.5-5.54l11.12-11.12a1.62,1.62,0,0,0,0-2.3l-10.34-10.34a1.62,1.62,0,0,0-2.3,0L102.72,122a6.49,6.49,0,0,1-9.19,0l-2.3-2.3a6.49,6.49,0,0,1,0-9.19l18.39-18.38a6.49,6.49,0,0,1,9.19,0l18.38,18.38a1.64,1.64,0,0,0,2.3,0l2.3-2.3a1.64,1.64,0,0,0,0-2.3L115.36,79.51a1.62,1.62,0,0,0-2.3,0L86.63,105.93a6.49,6.49,0,0,1-9.19,0l-2.3-2.29a6.52,6.52,0,0,1,0-9.2L109.62,60a6.49,6.49,0,0,1,9.19,0l11.6,11.61V69.92a6.5,6.5,0,0,1,6.5-6.5h3.25a6.5,6.5,0,0,1,6.5,6.5V87.83l7.4,7.39a3.25,3.25,0,0,1,2.09,5.54Z"/><path class="e466e553-165c-4960-830f-1a1bf6527d21" d="M612.42,61H624.1v3.65h-3.71v11H616.1v-11h-3.68Zm13.09,0h4.72l3.34,7.78L637,61h4.72V75.62h-3.85V67.39l-2.77,6.81h-2.92l-2.77-6.81v8.23h-3.85Z"/><path class="e466e553-165c-4960-830f-1a1bf6527d21" d="M271.65,61v78H254.31V107h-34v32H202.92V61h17.35V91.75h34V61Zm10.65,39c0-22.41,16.77-39,39.65-39s39.64,16.48,39.64,39S344.72,139,322,139,282.3,122.41,282.3,100Zm62.09.39c0-14.19-9.63-23.9-22.44-23.9s-22.45,9.71-22.45,23.9,9.64,23.89,22.45,23.89S344.39,114.57,344.39,100.39ZM368.8,100c0-22.41,16.77-39,39.65-39s39.64,16.48,39.64,39-16.87,39-39.64,39S368.8,122.41,368.8,100Zm62.09.39c0-14.19-9.63-23.9-22.44-23.9S386,86.2,386,100.39s9.64,23.89,22.45,23.89S430.89,114.57,430.89,100.39Zm96.58,17.33c0,13.48-10.28,21.28-30,21.28H458.74V61h36.61c18.74,0,28.38,8.13,28.38,20.28a18.86,18.86,0,0,1-10,17.16C522.12,101.23,527.47,107.91,527.47,117.72ZM476.71,76.06V93.67h16.5c8.1,0,12.5-3,12.5-8.86s-4.4-8.75-12.5-8.75Zm32.59,39.47c0-6.29-4.61-9.28-13.22-9.28H476.71v18.46h19.37C504.69,124.71,509.3,121.93,509.3,115.53Zm23.38,14.74,5.69-13.14A41.52,41.52,0,0,0,562.28,125c9.94,0,14-3.44,14-8.08,0-14.11-42.13-4.41-42.13-32.42,0-12.82,9.94-23.49,30.53-23.49,9.11,0,18.43,2.26,25.16,6.68l-5.18,13.25A39.67,39.67,0,0,0,564.56,75c-9.94,0-13.77,3.87-13.77,8.61,0,13.9,42.13,4.31,42.13,32,0,12.61-10,23.38-30.74,23.38C550.69,139,539.1,135.44,532.68,130.27Z"/><g id="ae947fd2-417e-4dd6-abae-8e8b4eedbdaa" data-name="layer1"><g id="a261f53d-9309-4910-88a0-e629bcc0cdf4" data-name="g2993"><g id="ada8694e-e328-4df1-8e2b-cfa51a1f1e28" data-name="g2995"><path id="affc35af-8be7-4db1-a72c-37ae5acc3fca" data-name="path2999" class="b2c05cb5-b5cd-41a8-8050-9871a55c4cac" d="M1417.72,40h21.17l54.44,120h-20.16l-12.1-31.27h-64.54L1383.43,160h-21.16Zm10.08,16.14-26.22,59.49H1455L1427.8,56.14ZM1318.91,40H1337V160h-18.13V40ZM1213,160h21.17l53.44-120h-20.16l-43.36,100.83L1179.75,40h-20.16L1213,160ZM1084,40h22.19l53.44,120h-19.17l-13.1-31.27h-64.53L1049.68,160h-20.17L1084,40Zm11.1,16.14-26.22,59.49h52.43l-26.21-59.49ZM779.45,40h46.38C840,40,850,43,858.1,48.07c7.06,5,11.09,12.1,11.09,22.18,0,7.06-2,13.11-6.05,17.16s-9.07,7-17.14,8.06c9.07,2,16.13,5,21.18,10.07,5,6.06,8.06,12.11,8.06,20.18,0,11.08-4,19.15-13.11,25.19C854.07,157,843,160,827.85,160h-48.4V40ZM797.6,54.11V89.42h27.23c8.06,0,15.12-1,19.15-4,5-3,7.06-8.07,7.06-14.11s-2-10.1-7.06-13.11c-4-3-11.09-4-19.15-4Zm0,48.42v43.36h29.24c10.08,0,17.14-1,21.18-5.06,5-3,7.05-9.06,7.05-16.12,0-8.07-2-13.11-7.05-17.15-4-3-11.1-5-21.18-5Zm180.49,6,36.3,51.43H989.18L945.82,97.49h13.11c15.13,0,26.22-6.06,26.22-23.2,0-15.12-12.1-20.18-26.22-20.18H931.71V95.47h0v14.12h0V160H913.56V40h45.37c23.19,0,46.38,8.07,46.38,34.29,0,19.16-9.07,29.25-27.22,34.28Z"/></g></g></g></svg>