<svg id="a6a6f961-aa61-445c-bb90-957b6f9e1d46" data-name="Ebene 1" xmlns="http://www.w3.org/2000/svg" viewBox="0 0 1680 200"><defs><style>.a2faac1d-5290-46c3-8e83-da05c86dd454{fill:none;stroke:#ccc;stroke-miterlimit:10;}.bbfa8298-23b0-47ce-a51f-fe4e37655fab{fill:#f9b213;}.ad29820b-d308-4375-995b-1e0420119768{fill:#13418f;}.f45f3a07-30c4-4e68-b8c7-a76377c9676d{fill:#f05221;}.ef20b520-1bfd-4eed-bb69-2a1ce5277b55{fill:#ccc;}</style></defs><title>HOOBS_x_automower</title><g id="a88cd844-03e3-48a9-91b1-b52f22771425" data-name="Stroke"><line class="a2faac1d-5290-46c3-8e83-da05c86dd454" x1="700.5" y1="60" x2="700.5" y2="140"/></g><path class="bbfa8298-23b0-47ce-a51f-fe4e37655fab" d="M154.17,41.5h-78A19.5,19.5,0,0,0,56.67,61v78a19.5,19.5,0,0,0,19.5,19.5h78a19.5,19.5,0,0,0,19.5-19.5V61A19.5,19.5,0,0,0,154.17,41.5Zm2,59.26a3.24,3.24,0,0,1-4.59,0,3.21,3.21,0,0,1-.95-2.09l-8.82-8.82V69.92a1.63,1.63,0,0,0-1.63-1.63h-3.25a1.63,1.63,0,0,0-1.62,1.63V83.6l-4.88-5.13-15-15a1.62,1.62,0,0,0-2.3,0L78.59,97.89a1.64,1.64,0,0,0,0,2.3l2.3,2.3a1.64,1.64,0,0,0,2.3,0l26.43-26.43a6.49,6.49,0,0,1,9.19,0l26.43,26.43a6.51,6.51,0,0,1,0,9.19l-2.3,2.3a6.49,6.49,0,0,1-9.19,0L115.36,95.59a1.64,1.64,0,0,0-2.3,0L94.68,114a1.62,1.62,0,0,0,0,2.3l2.3,2.29a1.61,1.61,0,0,0,2.29,0l10.35-10.34a6.49,6.49,0,0,1,9.19,0l10.34,10.34a6.51,6.51,0,0,1,0,9.2L118,138.89a3.21,3.21,0,0,1-1,2.09,3.25,3.25,0,1,1-2.5-5.54l11.12-11.12a1.62,1.62,0,0,0,0-2.3l-10.34-10.34a1.62,1.62,0,0,0-2.3,0L102.72,122a6.49,6.49,0,0,1-9.19,0l-2.3-2.3a6.49,6.49,0,0,1,0-9.19l18.39-18.38a6.49,6.49,0,0,1,9.19,0l18.38,18.38a1.64,1.64,0,0,0,2.3,0l2.3-2.3a1.64,1.64,0,0,0,0-2.3L115.36,79.51a1.62,1.62,0,0,0-2.3,0L86.63,105.93a6.49,6.49,0,0,1-9.19,0l-2.3-2.29a6.52,6.52,0,0,1,0-9.2L109.62,60a6.49,6.49,0,0,1,9.19,0l11.6,11.61V69.92a6.5,6.5,0,0,1,6.5-6.5h3.25a6.5,6.5,0,0,1,6.5,6.5V87.83l7.4,7.39a3.25,3.25,0,0,1,2.09,5.54Z"/><path class="bbfa8298-23b0-47ce-a51f-fe4e37655fab" d="M612.42,61H624.1v3.65h-3.71v11H616.1v-11h-3.68Zm13.09,0h4.72l3.34,7.78L637,61h4.72V75.62h-3.85V67.39l-2.77,6.81h-2.92l-2.77-6.81v8.23h-3.85Z"/><path class="bbfa8298-23b0-47ce-a51f-fe4e37655fab" d="M271.65,61v78H254.31V107h-34v32H202.92V61h17.35V91.75h34V61Zm10.65,39c0-22.41,16.77-39,39.65-39s39.64,16.48,39.64,39S344.72,139,322,139,282.3,122.41,282.3,100Zm62.09.39c0-14.19-9.63-23.9-22.44-23.9s-22.45,9.71-22.45,23.9,9.64,23.89,22.45,23.89S344.39,114.57,344.39,100.39ZM368.8,100c0-22.41,16.77-39,39.65-39s39.64,16.48,39.64,39-16.87,39-39.64,39S368.8,122.41,368.8,100Zm62.09.39c0-14.19-9.63-23.9-22.44-23.9S386,86.2,386,100.39s9.64,23.89,22.45,23.89S430.89,114.57,430.89,100.39Zm96.58,17.33c0,13.48-10.28,21.28-30,21.28H458.74V61h36.61c18.74,0,28.38,8.13,28.38,20.28a18.86,18.86,0,0,1-10,17.16C522.12,101.23,527.47,107.91,527.47,117.72ZM476.71,76.06V93.67h16.5c8.1,0,12.5-3,12.5-8.86s-4.4-8.75-12.5-8.75Zm32.59,39.47c0-6.29-4.61-9.28-13.22-9.28H476.71v18.46h19.37C504.69,124.71,509.3,121.93,509.3,115.53Zm23.38,14.74,5.69-13.14A41.52,41.52,0,0,0,562.28,125c9.94,0,14-3.44,14-8.08,0-14.11-42.13-4.41-42.13-32.42,0-12.82,9.94-23.49,30.53-23.49,9.11,0,18.43,2.26,25.16,6.68l-5.18,13.25A39.67,39.67,0,0,0,564.56,75c-9.94,0-13.77,3.87-13.77,8.61,0,13.9,42.13,4.31,42.13,32,0,12.61-10,23.38-30.74,23.38C550.69,139,539.1,135.44,532.68,130.27Z"/><path class="ad29820b-d308-4375-995b-1e0420119768" d="M830.35,160.35c-4.24,0-8.62,0-13-.29-6.35-.49-12.55-1.61-18.26-4.58-7.49-3.9-12.49-10-15.53-17.84a59.29,59.29,0,0,1-3.69-17.81,152.14,152.14,0,0,1-.41-16.4A83.29,83.29,0,0,1,784.38,78a21.4,21.4,0,0,1,4.49-7.15c.17-.18.75-.38.14-.74-3.42-2-5-5.24-5.84-8.91a29.25,29.25,0,0,1-.47-9.65,1.49,1.49,0,0,1,.95-1.34,80.44,80.44,0,0,1,16.76-6c.73-.18.73.1.72.64a67.78,67.78,0,0,0,.13,8.67,13.68,13.68,0,0,0,.56,2.69c1,3,2.82,4.39,6.33,4.5a15.14,15.14,0,0,0,9.22-2.7,6.93,6.93,0,0,0,3-6.06,64.91,64.91,0,0,0-.33-9.35c-.09-.78.06-1.12.93-1.31a42.93,42.93,0,0,1,18.4.09c.55.12.6.36.53.9a39.35,39.35,0,0,0-.11,11.72,5.51,5.51,0,0,0,2.11,3.52,14.83,14.83,0,0,0,11.54,3,5.14,5.14,0,0,0,4.26-3.53,19.33,19.33,0,0,0,1.15-6.64c.07-1.89,0-3.78,0-5.67,0-.49.06-.65.61-.52a76.62,76.62,0,0,1,16.87,6.16c.28.14.55.27.58.66.47,5,.33,9.9-2,14.51a10.57,10.57,0,0,1-4.11,4.5c-.27.16-.61.24-.2.65,3.36,3.37,5.1,7.6,6.31,12.1,2.75,10.23,4.23,20.62,3.43,31.24-.39,5.1-.4,10.26-1.7,15.25a60.72,60.72,0,0,1-4.85,13.62,30.13,30.13,0,0,1-19.58,15.39,61.82,61.82,0,0,1-12.53,1.9C838,160.43,834.22,160.4,830.35,160.35Zm-.47-89.19h-4.55a86,86,0,0,0-13,.69,34.44,34.44,0,0,0-4.26.94c-4.77,1.39-7.8,4.55-9.54,9.12a54.12,54.12,0,0,0-3,17.07,173.91,173.91,0,0,0,.32,22.25,58.65,58.65,0,0,0,2.56,13.36,14,14,0,0,0,10.07,9.75,41,41,0,0,0,9.14,1.44c6.93.3,13.86.16,20.8.13a52.32,52.32,0,0,0,9.83-.81c1.23-.25,2.45-.54,3.66-.88,4.55-1.3,7.35-4.4,9.14-8.64a47.89,47.89,0,0,0,3.34-15.7,142.43,142.43,0,0,0-.48-27.62,38.07,38.07,0,0,0-3.42-12,13.58,13.58,0,0,0-9.16-7.66,44.39,44.39,0,0,0-8.65-1.28C838.37,71.11,834.12,71.18,829.88,71.16Z"/><path class="ad29820b-d308-4375-995b-1e0420119768" d="M890.79,123.55c0-7.34,0-14.67,0-22,0-1.33.27-1.89,1.72-1.8a50.84,50.84,0,0,0,5.92,0c1.34-.07,1.83.28,1.8,1.73-.09,4.93,0,9.87-.06,14.8,0,1.26.27,1.71,1.63,1.69,5.49-.08,11-.09,16.49,0,1.5,0,1.71-.55,1.69-1.83-.06-4.87,0-9.73-.05-14.6,0-1.36.31-1.88,1.74-1.79a38.87,38.87,0,0,0,5.71,0c1.58-.12,2,.35,2,2-.08,9.37,0,18.75,0,28.13,0,5.21-.05,10.43,0,15.65,0,1.37-.35,1.84-1.75,1.76a41.85,41.85,0,0,0-5.71,0c-1.55.11-2-.33-2-1.95.11-5.64,0-11.28.09-16.92,0-1.67-.31-2.33-2.17-2.29-5.28.13-10.57.07-15.86,0-1.35,0-1.81.37-1.8,1.8.08,5.85,0,11.7.06,17.55,0,1.31-.25,1.89-1.72,1.79a40.34,40.34,0,0,0-5.92,0c-1.58.12-1.81-.52-1.8-1.92C890.83,138.07,890.79,130.81,890.79,123.55Z"/><path class="ad29820b-d308-4375-995b-1e0420119768" d="M1026.74,143.12c-6.59,7.15-15.62,5.71-19.92,1.65a17.48,17.48,0,0,1-5-8.68,27.63,27.63,0,0,1,.38-14.6c3.17-11,17.86-14.53,24.55-6.17.11-.07.3-.13.31-.2.33-3.46.33-3.46,3.93-3.46,4.47,0,4.47,0,4.48,4.54,0,12.91,0,25.81,0,38.71,0,1.53-.3,2.21-2,2-2.21-.29-5.1,1-6.48-.5s-.3-4.17-.36-6.34S1026.74,145.75,1026.74,143.12Zm.3-13.29a16.64,16.64,0,0,0-1.65-8.13,7.6,7.6,0,0,0-11.55-2.31c-5,4.16-5.59,14.67-1,19.38a7.94,7.94,0,0,0,13.06-2.5A15.09,15.09,0,0,0,1027,129.83Z"/><path class="ad29820b-d308-4375-995b-1e0420119768" d="M1185.23,144c-4.7,4.42-9.77,4.9-15.06,3.64-5.48-1.3-8.3-5-8.27-10.25s2.8-8.7,8.33-10.18c3.62-1,7.4-.9,11-1.77,3.14-.76,4.14-2.31,3.24-4.94a2.94,2.94,0,0,0-1.23-1.65,9.71,9.71,0,0,0-8.52-.82c-.82.28-1.71.86-1.81,1.66-.24,2.08-1.61,1.89-3,1.85s-3.1,0-4.65,0c-1,0-1.5-.06-1.22-1.4a10.19,10.19,0,0,1,6.87-8.14,22.12,22.12,0,0,1,15.32,0c4.6,1.68,6.75,4.94,6.76,9.87q0,9.73,0,19.46a9.23,9.23,0,0,0,.65,4.34c.51,1,.16,1.57-1.07,1.52a33,33,0,0,0-4.22,0C1186.34,147.45,1184.83,147.21,1185.23,144Zm-.89-14.07c-2.81,1.36-5.67,1.65-8.51,2.08a8.62,8.62,0,0,0-3.16,1.09,4,4,0,0,0-2.12,4,3.71,3.71,0,0,0,2.76,3.35,9.92,9.92,0,0,0,4.34.64c3.8-.33,6.37-2.4,6.66-5.56C1184.48,133.8,1184.34,132,1184.34,129.94Z"/><path class="ad29820b-d308-4375-995b-1e0420119768" d="M1099.87,131.74V142.1a8.59,8.59,0,0,0,.33,2.7c.79,2.39.76,2.41-1.88,2.41-1.13,0-2.26,0-3.39,0-1.47,0-3,.37-2.86-2.07,0-1.16-.78-.45-1.25-.07-5.09,4-10.68,4-16.31,1.6-4.06-1.69-5.77-5.15-5.7-9.5s2-7.5,6.11-9.23c3.17-1.34,6.56-1.48,9.89-2a24.45,24.45,0,0,0,4.53-.94c2.76-.94,3.25-4.1,1-6.06-2-1.78-6.58-2.11-8.76-.61-.35.23-.86.52-.91.84-.41,2.91-2.6,2.24-4.44,2.27-1,0-2.12-.07-3.17,0-1.75.2-1.82-.66-1.47-2a10.08,10.08,0,0,1,6.36-7.37,21.08,21.08,0,0,1,15.08-.2c4.57,1.71,6.79,5,6.81,9.85C1099.88,125.11,1099.87,128.42,1099.87,131.74Zm-8.6,1.62v-.63c0-2.61,0-2.58-2.47-1.84a26.71,26.71,0,0,1-3.08.64c-1.94.34-3.94.44-5.72,1.33a4.17,4.17,0,0,0-2.58,4,3.74,3.74,0,0,0,2.3,3.47C1085.46,143.19,1091.26,139.69,1091.27,133.36Z"/><path class="ad29820b-d308-4375-995b-1e0420119768" d="M1136.57,116.07c3.76-4.8,8.42-6.21,14.06-4.87a10.78,10.78,0,0,1,8.45,10.53c.12,8,0,16.07.07,24.1,0,1.12-.36,1.45-1.45,1.4a37.14,37.14,0,0,0-5.06,0c-1.64.14-2.16-.37-2.14-2.06.1-6.19.06-12.4,0-18.6a29,29,0,0,0-.21-3.36c-.5-3.81-1.69-5.22-4.61-5.62a7.63,7.63,0,0,0-8,4.29,12.11,12.11,0,0,0-.74,4.77c0,6.2,0,12.4.06,18.6,0,1.61-.43,2.1-2,2a42.27,42.27,0,0,0-5.28,0c-1,0-1.53-.17-1.52-1.36q0-16.38,0-32.77c0-1.11.36-1.48,1.46-1.44,1.76.06,3.53.08,5.28,0,1.38-.08,1.71.53,1.61,1.75C1136.51,114.27,1136.57,115.17,1136.57,116.07Z"/><path class="ad29820b-d308-4375-995b-1e0420119768" d="M956.37,143.52c-3.32,3.14-6.61,5-10.94,4.59-6.51-.65-10.67-4.36-11-10.92-.35-8.09-.13-16.21-.18-24.32,0-.92.33-1.25,1.23-1.23,1.83,0,3.67.1,5.5,0,1.48-.1,1.9.38,1.89,1.88-.09,6.48,0,13,0,19.46a16.88,16.88,0,0,0,.25,2.93c.69,3.7,2.57,5.43,5.86,5.49,3.75.06,6.17-1.85,6.94-5.46a25.78,25.78,0,0,0,.37-5.48c0-5.71.05-11.42,0-17.13,0-1.3.34-1.75,1.65-1.68a50.45,50.45,0,0,0,5.5,0c1.26-.07,1.52.45,1.52,1.59q0,16.29,0,32.58c0,1.12-.36,1.48-1.46,1.43a35.89,35.89,0,0,0-5.08,0c-1.67.16-2.34-.39-2.06-2.06A12.09,12.09,0,0,0,956.37,143.52Z"/><path class="ad29820b-d308-4375-995b-1e0420119768" d="M992.94,120.53c-.92,0-1.84-.06-2.75,0a2.59,2.59,0,0,1-2.49-1.13c-1.82-2.26-6.84-2.57-9.07-.69-1.69,1.44-1.48,3.53.53,4.7a19.33,19.33,0,0,0,5.61,1.73,36.29,36.29,0,0,1,8.66,2.58A10,10,0,0,1,996,143.88c-3.45,3.53-7.78,4.34-12.39,4.3A18,18,0,0,1,972.8,145a10.8,10.8,0,0,1-4.36-7c-.23-1.19.11-1.51,1.23-1.48,2.05,0,4.09,0,6.14,0a1.41,1.41,0,0,1,1.54,1c1.83,3.74,8.19,5.11,11.57,2.58a3.49,3.49,0,0,0-.6-5.94c-2.44-1.35-5.21-1.63-7.87-2.26a29.37,29.37,0,0,1-5.84-1.76A9,9,0,0,1,969,122c-.22-4,1.33-7.11,4.84-8.88a19.89,19.89,0,0,1,17.92-.57,9.91,9.91,0,0,1,5.51,6.59c.35,1.22,0,1.52-1.13,1.45S994,120.53,992.94,120.53Z"/><path class="ad29820b-d308-4375-995b-1e0420119768" d="M1037.31,111.66c2.77,0,5.5,0,8.22,0,1.26,0,1.23.91,1.46,1.67q3.39,11.64,6.76,23.27c.16.54.34,1.07.6,1.89a53.53,53.53,0,0,0,2.33-7.59c1.68-5.81,3.34-11.61,4.88-17.45a2,2,0,0,1,2.47-1.81c2.25.14,4.5,0,7.07,0-1.45,4.23-2.83,8.26-4.22,12.28-2.5,7.24-5.05,14.47-7.48,21.73a1.91,1.91,0,0,1-2.25,1.58c-2-.1-4.08-.08-6.13,0a1.7,1.7,0,0,1-2-1.33c-3.84-11.16-7.75-22.29-11.64-33.44A4.21,4.21,0,0,1,1037.31,111.66Z"/><path class="ad29820b-d308-4375-995b-1e0420119768" d="M1113,117.2a17.93,17.93,0,0,1,3.52-4.65,8.66,8.66,0,0,1,7.46-2.06c.73.1,1.32.25,1.29,1.25-.08,2.17,0,4.34,0,6.56-8.25-1.91-11.92,4-11.86,9.91,0,5.71-.05,11.42,0,17.13,0,1.41-.22,2-1.8,1.9a28.62,28.62,0,0,0-5.07,0c-1.64.14-2-.49-2-2,.06-9.87,0-19.74,0-29.61,0-4,0-4,4-4,4.18,0,4.18,0,4.32,4.29C1112.92,116.2,1113,116.45,1113,117.2Z"/><path class="ad29820b-d308-4375-995b-1e0420119768" d="M806.23,108.09q0-13.57,0-27.16c0-.73.13-1,.92-1q6,.06,12,0c.7,0,.84.21.84.87,0,5.47,0,10.94,0,16.41,0,2,.35,2.47,2.37,2.72a33.75,33.75,0,0,0,3.77.19c3.47,0,6.93.09,10.4-.1s3.25-.95,3.25-3.35c0-5.3,0-10.6,0-15.9,0-.68.17-.86.85-.85q6.14.06,12.29,0c.62,0,.83.11.83.79q0,27.28,0,54.58c0,.61-.11.82-.79.81q-6.13,0-12.29,0c-.69,0-.9-.14-.9-.87,0-6.68,0-13.35,0-20,0-1.73-.32-2.1-2-2.36a33.41,33.41,0,0,0-4.8-.24c-3.2,0-6.41,0-9.62.1h-.17c-2.71.11-3.17.58-3.17,3.26,0,6.42,0,12.84,0,19.25,0,.73-.2.89-.9.88-4,0-8,0-12,0-.76,0-.87-.24-.86-.92Q806.25,121.68,806.23,108.09Z"/><path class="f45f3a07-30c4-4e68-b8c7-a76377c9676d" d="M1225.88,128.36c0-4.77,0-9.54,0-14.3a3.84,3.84,0,0,1,2.32-4c2.3-1.14,4.47-2.52,6.76-3.67a2.93,2.93,0,0,0,1.79-3q-.12-6,0-12.1a2.85,2.85,0,0,0-1.89-3c-2-.93-3.88-2.1-5.91-2.93-2.41-1-3.17-2.61-3.1-5.15.16-5.49.19-11,0-16.5a11,11,0,0,1,4-9c5.55-5.06,12.29-7.89,19.31-10.15,22.13-7.13,43.53-5.26,64.2,5.32a31.29,31.29,0,0,1,5.89,4c3.27,2.74,5.1,6,4.87,10.49-.29,5.49-.13,11,0,16.5,0,2-.61,3.37-2.51,4.09-.17.06-.31.2-.48.25-6.86,1.79-8.37,6.26-8.13,13,.19,5.38,1.32,8.86,6.52,10.54,3.84,1.23,4.82,3.89,4.67,7.81-.32,8.15-.08,16.32-.11,24.48,0,6.12-2.45,9.51-8.14,11.62q-40.85,15.15-81.7,0c-5.76-2.13-8.21-5.5-8.25-11.56C1225.86,137,1225.88,132.67,1225.88,128.36Zm10.93,1.54c0,3.3.08,6.6,0,9.9A2.79,2.79,0,0,0,1239,143q36.07,12.92,72.09-.06c1.41-.51,2.06-1.17,2-2.74-.07-6.87,0-13.75,0-20.62a2.6,2.6,0,0,0-1.56-2.61c-2.43-1.26-4.79-2.69-7.25-3.9a3.31,3.31,0,0,1-2-3.46c.08-7.61.2-15.22,0-22.82-.1-3.15.68-5.29,3.72-6.35,6.07-2.13,7.84-6.34,7.35-12.65-.31-3.88-1.27-6.42-4.72-8-.92-.42-1.77-1-2.68-1.4-14.41-6.58-29.36-8.85-45-5.56-7.39,1.56-14.54,3.78-21,7.89-1.21.77-2.92,1.43-3,3-.17,4.3-.81,8.81.24,12.84.69,2.64,5,3,7.48,4.54a7.41,7.41,0,0,0,1.23.61,2.52,2.52,0,0,1,1.73,2.75q-.07,12.78,0,25.57a2.8,2.8,0,0,1-1.67,2.84c-2.51,1.31-5,2.75-7.49,4a2.74,2.74,0,0,0-1.67,2.82C1236.86,123.12,1236.81,126.51,1236.81,129.9Z"/><path class="f45f3a07-30c4-4e68-b8c7-a76377c9676d" d="M1288.83,123.21c-.2,4.48-.47,9-.56,13.45a2.54,2.54,0,0,1-2.11,2.68,34,34,0,0,1-22.37,0c-1.15-.39-2.09-.74-2.18-2.34-.88-17.23-.86-34.41,2.73-51.41.17-.8.34-1.61.55-2.4,1.42-5.55,2.27-6.24,7.95-6.54l.55,0c9.31-.38,10.36.4,12.26,9.43C1288.23,98.31,1288.83,110.73,1288.83,123.21Z"/><path class="ef20b520-1bfd-4eed-bb69-2a1ce5277b55" d="M1530.34,109.63c-2.5,9.43-4.87,18.34-7.31,27.52h6.52c1.56-6.12,3.08-12.16,4.65-18.18.82-3.12,1.92-6.23,5-7.81a13.37,13.37,0,0,1,5.72-1.44c8.47-.15,16.94-.12,25.4,0,5.46,0,7.28,2.26,6.19,7.6a89.11,89.11,0,0,1-2.76,10.25,3.23,3.23,0,0,1-2.48,1.62c-7.1.14-14.21.22-21.31,0-2.63-.08-3.47,1.07-3.49,3.25s1.8,2.18,3.34,2.19c5.27,0,10.54,0,16,0v2.72c3.49,0,6.85.1,10.19-.09.61,0,1.46-1.18,1.69-1.95,1.29-4.45,2.51-8.92,3.62-13.42,1.8-7.32,5.91-12.79,15.71-12.27,4.89.26,9.81,0,15.12,0l-1.51,6.17c-2.53,0-5,.11-7.42,0s-3.64.93-4.24,3.23c-1.67,6.5-3.53,13-5.18,19.47a2.57,2.57,0,0,1-3,2.3q-60.24-.08-120.48,0c-5.51,0-7.79-2.42-6.77-7.91,1.1-5.87,2.81-11.64,4.25-17.45.15-.61.27-1.22.45-2.07h-6.51c-1.69,6.43-3.27,12.82-5.07,19.16-1.68,5.9-4.76,8.19-10.95,8.25q-12.57.12-25.13,0c-5.76-.05-7.79-2.66-6.32-8.24,1.67-6.39,3.55-12.72,5.36-19.19h-7.89c-.06,8.39-3.54,16.11-5.23,24.23-.52,2.45-1.48,3.5-4.17,3.29-3.52-.28-7.07-.07-11-.07.31-1.3.52-2.32.79-3.32,1.67-6.22,3.33-12.46,5.06-18.67.6-2.13,0-3-2.29-3-5.94,0-5.94-.1-7.48,5.73s-3.08,11.39-4.5,17.12c-.4,1.61-1.08,2.2-2.77,2.15-3.9-.12-7.81,0-12,0,.16-1,.21-1.66.39-2.32,1.72-6.5,3.39-13,5.23-19.47.65-2.27.23-3.16-2.27-3.17-5.86,0-5.86-.11-7.36,5.51-1.54,5.79-3.14,11.57-4.61,17.38a2.39,2.39,0,0,1-2.83,2.11c-3.9-.12-7.8,0-12.13,0,2.82-10.52,5.56-20.73,8.31-31H1483.6c-1.1,4.18-2.16,8.17-3.21,12.17-.88,3.33-1.7,6.69-2.66,10-.58,2,.19,2.72,2.1,2.67a20.72,20.72,0,0,1,2.73,0c2.42.23,3.66-.86,4.26-3.19,1.67-6.51,3.56-13,5.17-19.48.48-1.93,1.34-2.41,3.18-2.34,3.81.13,7.63,0,11.83,0-1.46,5.51-2.83,10.73-4.22,16q-.87,3.28-1.79,6.57c-.46,1.67.26,2.4,1.9,2.43.82,0,1.65-.06,2.46,0,2.84.32,4.3-.85,5-3.69,1.56-6.44,3.48-12.8,5.08-19.23.42-1.71,1.17-2.14,2.79-2.1C1522.11,109.7,1526,109.63,1530.34,109.63Zm-90.66,6.18c-5.27,0-5.27,0-6.67,5.23-.83,3.07-1.68,6.13-2.49,9.2-1.1,4.19-1,4.36,3.25,4.36,1,0,2-.08,3,0,2.62.25,4-.86,4.63-3.46.73-3.28,1.7-6.5,2.57-9.74C1445.47,115.81,1445.47,115.81,1439.68,115.81ZM1549.22,123c2.83,0,5.54.09,8.23-.05.83,0,2.16-.48,2.36-1a29.29,29.29,0,0,0,1.06-5.46c0-.15-.5-.46-.82-.57-6-2.15-10.06.27-10.94,6.46A5.1,5.1,0,0,0,1549.22,123Z"/><path class="ef20b520-1bfd-4eed-bb69-2a1ce5277b55" d="M1511.6,61c-.6,2.47-1.07,4.39-1.63,6.68h9.27c.1.42.16.52.14.6-.68,5.58-.69,5.53-6.19,5.59-6,.07-4.64-.94-6.19,4.72-1,3.77-2,7.56-3.08,11.3-.64,2.15.22,2.88,2.21,2.87h7.28c.07.92.13,1.67.2,2.51h3.68c1.72-6.66,3.26-13.08,5.06-19.43,1.61-5.71,4.82-8,10.8-8.07q12.57-.08,25.13,0c5.78,0,7.73,2.28,6.46,7.85q-1.83,8.1-4.32,16c-1.6,5.11-4.79,7.17-10.6,7.2-11.11.06-22.21,0-33.32,0H1399.89c-8.31,0-10.05-2.4-7.57-10.44.4-1.3.82-2.6,1.3-3.87a9.37,9.37,0,0,1,9.4-6.53c5.28,0,10.56-.09,15.84,0,1.86,0,2.75-.62,2.8-2.41.06-2-1.5-1.75-2.7-1.76-5.09-.05-10.17,0-15.65,0l1.51-6c9,0,17.82-.18,26.63.07,4.48.13,6.49,2.78,5.64,7.47-1,5.7-2.7,11.29-4.08,16.92-.22.87-.44,1.74-.72,2.88h7.76c-1.23-5.31,1.13-10,2.27-14.91.85-3.62,1.84-7.22,2.91-10.78.2-.68,1-1.64,1.62-1.65,4.7-.14,9.41-.08,14.45-.08-1.31,5-2.54,9.62-3.77,14.25-.71,2.72-1.39,5.45-2.17,8.16-.53,1.85.26,2.6,2,2.59,8.66,0,7.85,1.06,9.91-6.84,1.39-5.36,2.89-10.69,4.26-16.06a2.41,2.41,0,0,1,2.82-2.14c4.35.12,8.71,0,13.5,0-1.29,4.82-2.51,9.33-3.71,13.85s-2.35,8.91-3.59,13.63h6.53c2.37-9.21,4.65-18.14,7-27.05.62-2.35.79-5.52,2.37-6.7s4.71-.44,7.15-.48S1508.64,61,1511.6,61Zm32.47,12.86c-5.52,0-5.52,0-7,5.3-.59,2.19-1.19,4.37-1.73,6.56-1.77,7.18-1.76,7.08,5.64,7.11,2.71,0,4-1.14,4.55-3.59.8-3.34,1.71-6.66,2.64-10C1549.7,73.94,1549.66,73.88,1544.07,73.88ZM1419.5,84.2c-3,0-5.61-.09-8.2.06a2.86,2.86,0,0,0-2.18,1.27,56.53,56.53,0,0,0-1.5,6.23c1.68.34,3.35.74,5.05,1a4.9,4.9,0,0,0,2.41-.06,3.79,3.79,0,0,0,2.2-1.57C1418.17,89,1418.72,86.74,1419.5,84.2Z"/></svg>