<svg id="b50013aa-848c-4510-8f4e-595cb4d4468d" data-name="Ebene 1" xmlns="http://www.w3.org/2000/svg" viewBox="0 0 1680 200"><defs><style>.e78825b6-e305-4b8f-94fb-6cb04718628d{fill:none;stroke:#ccc;stroke-miterlimit:10;}.bc3a8a1e-7cec-43fa-818e-867afcbbdd20{fill:#f9b213;}.a69e01c4-35da-4a78-ae2c-d538173af526{isolation:isolate;}.b622e371-c27a-48e5-9d63-36e5c15cd6b3{fill:#ccc;}</style></defs><title>HOOBS_x_security system</title><g id="bf3f4a28-4114-414b-888d-45f0fda2ceed" data-name="Stroke"><line class="e78825b6-e305-4b8f-94fb-6cb04718628d" x1="700.5" y1="60" x2="700.5" y2="140"/></g><path class="bc3a8a1e-7cec-43fa-818e-867afcbbdd20" d="M154.17,41.5h-78A19.5,19.5,0,0,0,56.67,61v78a19.5,19.5,0,0,0,19.5,19.5h78a19.5,19.5,0,0,0,19.5-19.5V61A19.5,19.5,0,0,0,154.17,41.5Zm2,59.26a3.24,3.24,0,0,1-4.59,0,3.21,3.21,0,0,1-.95-2.09l-8.82-8.82V69.92a1.63,1.63,0,0,0-1.63-1.63h-3.25a1.63,1.63,0,0,0-1.62,1.63V83.6l-4.88-5.13-15-15a1.62,1.62,0,0,0-2.3,0L78.59,97.89a1.64,1.64,0,0,0,0,2.3l2.3,2.3a1.64,1.64,0,0,0,2.3,0l26.43-26.43a6.49,6.49,0,0,1,9.19,0l26.43,26.43a6.51,6.51,0,0,1,0,9.19l-2.3,2.3a6.49,6.49,0,0,1-9.19,0L115.36,95.59a1.64,1.64,0,0,0-2.3,0L94.68,114a1.62,1.62,0,0,0,0,2.3l2.3,2.29a1.61,1.61,0,0,0,2.29,0l10.35-10.34a6.49,6.49,0,0,1,9.19,0l10.34,10.34a6.51,6.51,0,0,1,0,9.2L118,138.89a3.21,3.21,0,0,1-1,2.09,3.25,3.25,0,1,1-2.5-5.54l11.12-11.12a1.62,1.62,0,0,0,0-2.3l-10.34-10.34a1.62,1.62,0,0,0-2.3,0L102.72,122a6.49,6.49,0,0,1-9.19,0l-2.3-2.3a6.49,6.49,0,0,1,0-9.19l18.39-18.38a6.49,6.49,0,0,1,9.19,0l18.38,18.38a1.64,1.64,0,0,0,2.3,0l2.3-2.3a1.64,1.64,0,0,0,0-2.3L115.36,79.51a1.62,1.62,0,0,0-2.3,0L86.63,105.93a6.49,6.49,0,0,1-9.19,0l-2.3-2.29a6.52,6.52,0,0,1,0-9.2L109.62,60a6.49,6.49,0,0,1,9.19,0l11.6,11.61V69.92a6.5,6.5,0,0,1,6.5-6.5h3.25a6.5,6.5,0,0,1,6.5,6.5V87.83l7.4,7.39a3.25,3.25,0,0,1,2.09,5.54Z"/><path class="bc3a8a1e-7cec-43fa-818e-867afcbbdd20" d="M612.42,61H624.1v3.65h-3.71v11H616.1v-11h-3.68Zm13.09,0h4.72l3.34,7.78L637,61h4.72V75.62h-3.85V67.39l-2.77,6.81h-2.92l-2.77-6.81v8.23h-3.85Z"/><path class="bc3a8a1e-7cec-43fa-818e-867afcbbdd20" d="M271.65,61v78H254.31V107h-34v32H202.92V61h17.35V91.75h34V61Zm10.65,39c0-22.41,16.77-39,39.65-39s39.64,16.48,39.64,39S344.72,139,322,139,282.3,122.41,282.3,100Zm62.09.39c0-14.19-9.63-23.9-22.44-23.9s-22.45,9.71-22.45,23.9,9.64,23.89,22.45,23.89S344.39,114.57,344.39,100.39ZM368.8,100c0-22.41,16.77-39,39.65-39s39.64,16.48,39.64,39-16.87,39-39.64,39S368.8,122.41,368.8,100Zm62.09.39c0-14.19-9.63-23.9-22.44-23.9S386,86.2,386,100.39s9.64,23.89,22.45,23.89S430.89,114.57,430.89,100.39Zm96.58,17.33c0,13.48-10.28,21.28-30,21.28H458.74V61h36.61c18.74,0,28.38,8.13,28.38,20.28a18.86,18.86,0,0,1-10,17.16C522.12,101.23,527.47,107.91,527.47,117.72ZM476.71,76.06V93.67h16.5c8.1,0,12.5-3,12.5-8.86s-4.4-8.75-12.5-8.75Zm32.59,39.47c0-6.29-4.61-9.28-13.22-9.28H476.71v18.46h19.37C504.69,124.71,509.3,121.93,509.3,115.53Zm23.38,14.74,5.69-13.14A41.52,41.52,0,0,0,562.28,125c9.94,0,14-3.44,14-8.08,0-14.11-42.13-4.41-42.13-32.42,0-12.82,9.94-23.49,30.53-23.49,9.11,0,18.43,2.26,25.16,6.68l-5.18,13.25A39.67,39.67,0,0,0,564.56,75c-9.94,0-13.77,3.87-13.77,8.61,0,13.9,42.13,4.31,42.13,32,0,12.61-10,23.38-30.74,23.38C550.69,139,539.1,135.44,532.68,130.27Z"/><g class="a69e01c4-35da-4a78-ae2c-d538173af526"><path class="b622e371-c27a-48e5-9d63-36e5c15cd6b3" d="M937.52,103a3.77,3.77,0,0,0-1.46-3.19,19.19,19.19,0,0,0-5.27-2.34,36.89,36.89,0,0,1-6-2.43q-6.06-3.27-6.06-8.81a8.59,8.59,0,0,1,1.62-5.14A10.63,10.63,0,0,1,925,77.54a17.64,17.64,0,0,1,6.82-1.27,16,16,0,0,1,6.79,1.38,10.81,10.81,0,0,1,4.62,3.89,10.22,10.22,0,0,1,1.65,5.72h-7.32a4.79,4.79,0,0,0-1.54-3.8,6.33,6.33,0,0,0-4.32-1.35,6.77,6.77,0,0,0-4.18,1.13,3.59,3.59,0,0,0-1.48,3,3.43,3.43,0,0,0,1.74,2.91,19.65,19.65,0,0,0,5.14,2.19Q939.17,93.22,942,96a9.29,9.29,0,0,1,2.85,6.93,8.55,8.55,0,0,1-3.49,7.24q-3.5,2.63-9.4,2.62a18.19,18.19,0,0,1-7.47-1.5,11.86,11.86,0,0,1-5.14-4.11,10.54,10.54,0,0,1-1.77-6.06H925q0,5.89,7,5.89a6.92,6.92,0,0,0,4.08-1.06A3.45,3.45,0,0,0,937.52,103Z"/><path class="b622e371-c27a-48e5-9d63-36e5c15cd6b3" d="M961.52,112.79a13,13,0,0,1-9.46-3.56,12.69,12.69,0,0,1-3.65-9.5v-.68A16.05,16.05,0,0,1,950,91.93a11.31,11.31,0,0,1,4.36-4.83,12.23,12.23,0,0,1,6.43-1.7,11,11,0,0,1,8.54,3.42q3.11,3.42,3.11,9.69v2.88H955.57a6.48,6.48,0,0,0,2.06,4.15,6.21,6.21,0,0,0,4.36,1.57,7.61,7.61,0,0,0,6.37-3l3.47,3.88a10.6,10.6,0,0,1-4.3,3.51A14.09,14.09,0,0,1,961.52,112.79Zm-.8-21.7a4.44,4.44,0,0,0-3.41,1.42,7.36,7.36,0,0,0-1.67,4.07h9.81V96a5.21,5.21,0,0,0-1.27-3.64A4.53,4.53,0,0,0,960.72,91.09Z"/><path class="b622e371-c27a-48e5-9d63-36e5c15cd6b3" d="M987.38,107.11a4.6,4.6,0,0,0,3.17-1.08,3.72,3.72,0,0,0,1.27-2.85h6.62A9.09,9.09,0,0,1,997,108.1a9.68,9.68,0,0,1-3.94,3.46,12.37,12.37,0,0,1-5.53,1.23,11.49,11.49,0,0,1-8.94-3.6q-3.27-3.6-3.27-9.94v-.47q0-6.11,3.25-9.74a11.35,11.35,0,0,1,8.91-3.64,11.14,11.14,0,0,1,7.95,2.82,10,10,0,0,1,3,7.51h-6.62a4.82,4.82,0,0,0-1.27-3.35,4.71,4.71,0,0,0-6.94.51q-1.26,1.8-1.26,5.83v.73c0,2.73.41,4.68,1.24,5.87A4.32,4.32,0,0,0,987.38,107.11Z"/><path class="b622e371-c27a-48e5-9d63-36e5c15cd6b3" d="M1018.29,109.62a8.85,8.85,0,0,1-7.23,3.17,8.34,8.34,0,0,1-6.48-2.44c-1.49-1.62-2.25-4-2.29-7.15V85.89h7.06V103q0,4.13,3.76,4.13c2.39,0,4-.83,4.93-2.5V85.89h7.08v26.42h-6.64Z"/><path class="b622e371-c27a-48e5-9d63-36e5c15cd6b3" d="M1045.29,92.51a19.32,19.32,0,0,0-2.54-.2q-4,0-5.25,2.71v17.29h-7.06V85.89h6.67l.19,3.15a6.56,6.56,0,0,1,5.89-3.64,7.5,7.5,0,0,1,2.2.32Z"/><path class="b622e371-c27a-48e5-9d63-36e5c15cd6b3" d="M1048.63,79.05a3.49,3.49,0,0,1,1.07-2.61,4,4,0,0,1,2.89-1,4,4,0,0,1,2.88,1,3.74,3.74,0,0,1,0,5.25,4.51,4.51,0,0,1-5.74,0A3.48,3.48,0,0,1,1048.63,79.05Zm7.5,33.26h-7.08V85.89h7.08Z"/><path class="b622e371-c27a-48e5-9d63-36e5c15cd6b3" d="M1070.39,79.4v6.49h4.51v5.18h-4.51v13.18a3.11,3.11,0,0,0,.56,2.1,2.83,2.83,0,0,0,2.15.63,10.69,10.69,0,0,0,2.07-.17v5.35a14.62,14.62,0,0,1-4.27.63q-7.43,0-7.57-7.49V91.07h-3.86V85.89h3.86V79.4Z"/><path class="b622e371-c27a-48e5-9d63-36e5c15cd6b3" d="M1088.7,102.32l4.88-16.43h7.57l-10.62,30.52-.59,1.39a8.05,8.05,0,0,1-7.81,5.18,11.11,11.11,0,0,1-3.13-.47v-5.34l1.08,0a5.78,5.78,0,0,0,3-.61,4,4,0,0,0,1.55-2l.83-2.17-9.25-26.49h7.59Z"/><path class="b622e371-c27a-48e5-9d63-36e5c15cd6b3" d="M1135.28,103a3.78,3.78,0,0,0-1.47-3.19,19,19,0,0,0-5.27-2.34,36.89,36.89,0,0,1-6-2.43q-6.06-3.27-6-8.81a8.59,8.59,0,0,1,1.62-5.14,10.54,10.54,0,0,1,4.66-3.53,17.69,17.69,0,0,1,6.83-1.27,16,16,0,0,1,6.78,1.38,10.84,10.84,0,0,1,4.63,3.89,10.22,10.22,0,0,1,1.65,5.72h-7.33a4.79,4.79,0,0,0-1.54-3.8,6.32,6.32,0,0,0-4.32-1.35,6.71,6.71,0,0,0-4.17,1.13,3.6,3.6,0,0,0-1.49,3,3.42,3.42,0,0,0,1.75,2.91,19.56,19.56,0,0,0,5.13,2.19q6.25,1.89,9.11,4.67a9.3,9.3,0,0,1,2.86,6.93,8.57,8.57,0,0,1-3.49,7.24q-3.5,2.63-9.4,2.62a18.12,18.12,0,0,1-7.47-1.5,11.8,11.8,0,0,1-5.14-4.11,10.54,10.54,0,0,1-1.77-6.06h7.35q0,5.89,7,5.89a6.86,6.86,0,0,0,4.07-1.06A3.46,3.46,0,0,0,1135.28,103Z"/><path class="b622e371-c27a-48e5-9d63-36e5c15cd6b3" d="M1157,102.32l4.89-16.43h7.56l-10.62,30.52-.58,1.39a8.06,8.06,0,0,1-7.81,5.18,11.11,11.11,0,0,1-3.13-.47v-5.34l1.07,0a5.8,5.8,0,0,0,3-.61,4.09,4.09,0,0,0,1.55-2l.83-2.17-9.26-26.49h7.6Z"/><path class="b622e371-c27a-48e5-9d63-36e5c15cd6b3" d="M1186.52,105a2.25,2.25,0,0,0-1.28-2,14.32,14.32,0,0,0-4.11-1.33q-9.42-2-9.43-8a7.28,7.28,0,0,1,2.92-5.87,11.79,11.79,0,0,1,7.63-2.36,12.63,12.63,0,0,1,8,2.37,7.44,7.44,0,0,1,3,6.15h-7.06a3.41,3.41,0,0,0-1-2.5,4.13,4.13,0,0,0-3-1,4.21,4.21,0,0,0-2.76.81,2.54,2.54,0,0,0-1,2.05,2.17,2.17,0,0,0,1.11,1.89,11.41,11.41,0,0,0,3.75,1.25,30.31,30.31,0,0,1,4.44,1.18q5.6,2.06,5.59,7.1a6.89,6.89,0,0,1-3.1,5.85,13.33,13.33,0,0,1-8,2.23,14,14,0,0,1-5.9-1.18,9.87,9.87,0,0,1-4-3.25,7.51,7.51,0,0,1-1.47-4.45h6.69a3.69,3.69,0,0,0,1.4,2.88,5.47,5.47,0,0,0,3.46,1,5.17,5.17,0,0,0,3.07-.77A2.38,2.38,0,0,0,1186.52,105Z"/><path class="b622e371-c27a-48e5-9d63-36e5c15cd6b3" d="M1206.37,79.4v6.49h4.52v5.18h-4.52v13.18a3.16,3.16,0,0,0,.56,2.1,2.84,2.84,0,0,0,2.15.63,10.87,10.87,0,0,0,2.08-.17v5.35a14.68,14.68,0,0,1-4.28.63c-4.94,0-7.47-2.49-7.56-7.49V91.07h-3.86V85.89h3.86V79.4Z"/><path class="b622e371-c27a-48e5-9d63-36e5c15cd6b3" d="M1227,112.79a12.93,12.93,0,0,1-9.46-3.56,12.65,12.65,0,0,1-3.65-9.5v-.68a15.92,15.92,0,0,1,1.54-7.12,11.23,11.23,0,0,1,4.35-4.83,12.27,12.27,0,0,1,6.44-1.7,11,11,0,0,1,8.53,3.42q3.11,3.42,3.11,9.69v2.88H1221a6.58,6.58,0,0,0,2.06,4.15,6.21,6.21,0,0,0,4.36,1.57,7.61,7.61,0,0,0,6.37-3l3.47,3.88a10.6,10.6,0,0,1-4.3,3.51A14,14,0,0,1,1227,112.79Zm-.81-21.7a4.42,4.42,0,0,0-3.4,1.42,7.44,7.44,0,0,0-1.68,4.07h9.82V96a5.26,5.26,0,0,0-1.27-3.64A4.56,4.56,0,0,0,1226.17,91.09Z"/><path class="b622e371-c27a-48e5-9d63-36e5c15cd6b3" d="M1248.46,85.89l.22,3a9.29,9.29,0,0,1,7.59-3.44c3.41,0,5.74,1.35,7,4a9.09,9.09,0,0,1,7.94-4c2.86,0,5,.84,6.39,2.5s2.1,4.18,2.1,7.54v16.87h-7.08V95.46a5,5,0,0,0-.88-3.28,3.89,3.89,0,0,0-3.1-1,4.4,4.4,0,0,0-4.39,3l0,18.14h-7V95.49a4.92,4.92,0,0,0-.91-3.32,3.89,3.89,0,0,0-3.07-1,4.59,4.59,0,0,0-4.35,2.49v18.68h-7.05V85.89Z"/></g><path class="b622e371-c27a-48e5-9d63-36e5c15cd6b3" d="M828.71,40.39,779.62,62.2V94.93c0,30.27,21,58.58,49.09,65.46,28.15-6.88,49.09-35.19,49.09-65.46V62.2ZM858,100.93a2.32,2.32,0,0,1-3.29,0,2.3,2.3,0,0,1-.67-1.49l-6.31-6.32V78.86a1.17,1.17,0,0,0-1.17-1.16h-2.32a1.17,1.17,0,0,0-1.17,1.16v9.79L839.62,85,828.85,74.21a1.18,1.18,0,0,0-1.65,0L802.54,98.88a1.16,1.16,0,0,0,0,1.64l1.64,1.64a1.16,1.16,0,0,0,1.65,0l18.91-18.9a4.64,4.64,0,0,1,6.57,0l18.91,18.9a4.65,4.65,0,0,1,0,6.58l-1.64,1.65a4.67,4.67,0,0,1-6.58,0L828.85,97.23a1.18,1.18,0,0,0-1.65,0l-13.15,13.16a1.16,1.16,0,0,0,0,1.64l1.64,1.64a1.16,1.16,0,0,0,1.65,0l7.4-7.4a4.65,4.65,0,0,1,6.57,0l7.4,7.4a4.65,4.65,0,0,1,0,6.58l-8,8a2.25,2.25,0,0,1-.67,1.49,2.32,2.32,0,1,1-1.79-4l8-8a1.16,1.16,0,0,0,0-1.64l-7.4-7.4a1.18,1.18,0,0,0-1.65,0l-7.4,7.4a4.64,4.64,0,0,1-6.57,0l-1.65-1.64a4.67,4.67,0,0,1,0-6.58l13.16-13.15a4.64,4.64,0,0,1,6.57,0l13.16,13.15a1.16,1.16,0,0,0,1.64,0l1.65-1.65a1.16,1.16,0,0,0,0-1.64L828.85,85.72a1.18,1.18,0,0,0-1.65,0l-18.9,18.91a4.65,4.65,0,0,1-6.58,0L800.07,103a4.67,4.67,0,0,1,0-6.58l24.67-24.66a4.64,4.64,0,0,1,6.57,0l8.31,8.3V78.86a4.65,4.65,0,0,1,4.65-4.65h2.32a4.65,4.65,0,0,1,4.65,4.65V91.68l5.3,5.29a2.3,2.3,0,0,1,1.49.67A2.32,2.32,0,0,1,858,100.93Z"/></svg>