<svg id="a798f42c-8029-4a69-85d0-a6f804185a44" data-name="Ebene 1" xmlns="http://www.w3.org/2000/svg" viewBox="0 0 1680 200"><defs><style>.b5478b13-6da7-4064-976f-f892b3dcff23{fill:none;stroke:#ccc;stroke-miterlimit:10;}.aa5d0e01-fe1e-4fa6-bab7-a52c4d703033{fill:#f9b213;}.bb1a034c-3ff7-4045-9e2a-87f534e5e507{fill:#ccc;}.ad763248-1090-4aaf-a630-216e9a43428f{fill:#ddac05;}.eda6500f-9a77-4513-8fff-51569df5eac3{fill:#1a8eb1;}.b223690c-154c-4bf8-b2bd-949c30941ce0{fill:#a71a30;}.b200aa6d-7b1d-450d-9f54-b6556ccdda6c{fill:#6fbab0;}</style></defs><title>HOOBS_x_moodo</title><g id="aa434c84-7da9-47be-aa1f-3281b2318736" data-name="Stroke"><line class="b5478b13-6da7-4064-976f-f892b3dcff23" x1="700.5" y1="60" x2="700.5" y2="140"/></g><path class="aa5d0e01-fe1e-4fa6-bab7-a52c4d703033" d="M154.17,41.5h-78A19.5,19.5,0,0,0,56.67,61v78a19.5,19.5,0,0,0,19.5,19.5h78a19.5,19.5,0,0,0,19.5-19.5V61A19.5,19.5,0,0,0,154.17,41.5Zm2,59.26a3.24,3.24,0,0,1-4.59,0,3.21,3.21,0,0,1-.95-2.09l-8.82-8.82V69.92a1.63,1.63,0,0,0-1.63-1.63h-3.25a1.63,1.63,0,0,0-1.62,1.63V83.6l-4.88-5.13-15-15a1.62,1.62,0,0,0-2.3,0L78.59,97.89a1.64,1.64,0,0,0,0,2.3l2.3,2.3a1.64,1.64,0,0,0,2.3,0l26.43-26.43a6.49,6.49,0,0,1,9.19,0l26.43,26.43a6.51,6.51,0,0,1,0,9.19l-2.3,2.3a6.49,6.49,0,0,1-9.19,0L115.36,95.59a1.64,1.64,0,0,0-2.3,0L94.68,114a1.62,1.62,0,0,0,0,2.3l2.3,2.29a1.61,1.61,0,0,0,2.29,0l10.35-10.34a6.49,6.49,0,0,1,9.19,0l10.34,10.34a6.51,6.51,0,0,1,0,9.2L118,138.89a3.21,3.21,0,0,1-1,2.09,3.25,3.25,0,1,1-2.5-5.54l11.12-11.12a1.62,1.62,0,0,0,0-2.3l-10.34-10.34a1.62,1.62,0,0,0-2.3,0L102.72,122a6.49,6.49,0,0,1-9.19,0l-2.3-2.3a6.49,6.49,0,0,1,0-9.19l18.39-18.38a6.49,6.49,0,0,1,9.19,0l18.38,18.38a1.64,1.64,0,0,0,2.3,0l2.3-2.3a1.64,1.64,0,0,0,0-2.3L115.36,79.51a1.62,1.62,0,0,0-2.3,0L86.63,105.93a6.49,6.49,0,0,1-9.19,0l-2.3-2.29a6.52,6.52,0,0,1,0-9.2L109.62,60a6.49,6.49,0,0,1,9.19,0l11.6,11.61V69.92a6.5,6.5,0,0,1,6.5-6.5h3.25a6.5,6.5,0,0,1,6.5,6.5V87.83l7.4,7.39a3.25,3.25,0,0,1,2.09,5.54Z"/><path class="aa5d0e01-fe1e-4fa6-bab7-a52c4d703033" d="M612.42,61H624.1v3.65h-3.71v11H616.1v-11h-3.68Zm13.09,0h4.72l3.34,7.78L637,61h4.72V75.62h-3.85V67.39l-2.77,6.81h-2.92l-2.77-6.81v8.23h-3.85Z"/><path class="aa5d0e01-fe1e-4fa6-bab7-a52c4d703033" d="M271.65,61v78H254.31V107h-34v32H202.92V61h17.35V91.75h34V61Zm10.65,39c0-22.41,16.77-39,39.65-39s39.64,16.48,39.64,39S344.72,139,322,139,282.3,122.41,282.3,100Zm62.09.39c0-14.19-9.63-23.9-22.44-23.9s-22.45,9.71-22.45,23.9,9.64,23.89,22.45,23.89S344.39,114.57,344.39,100.39ZM368.8,100c0-22.41,16.77-39,39.65-39s39.64,16.48,39.64,39-16.87,39-39.64,39S368.8,122.41,368.8,100Zm62.09.39c0-14.19-9.63-23.9-22.44-23.9S386,86.2,386,100.39s9.64,23.89,22.45,23.89S430.89,114.57,430.89,100.39Zm96.58,17.33c0,13.48-10.28,21.28-30,21.28H458.74V61h36.61c18.74,0,28.38,8.13,28.38,20.28a18.86,18.86,0,0,1-10,17.16C522.12,101.23,527.47,107.91,527.47,117.72ZM476.71,76.06V93.67h16.5c8.1,0,12.5-3,12.5-8.86s-4.4-8.75-12.5-8.75Zm32.59,39.47c0-6.29-4.61-9.28-13.22-9.28H476.71v18.46h19.37C504.69,124.71,509.3,121.93,509.3,115.53Zm23.38,14.74,5.69-13.14A41.52,41.52,0,0,0,562.28,125c9.94,0,14-3.44,14-8.08,0-14.11-42.13-4.41-42.13-32.42,0-12.82,9.94-23.49,30.53-23.49,9.11,0,18.43,2.26,25.16,6.68l-5.18,13.25A39.67,39.67,0,0,0,564.56,75c-9.94,0-13.77,3.87-13.77,8.61,0,13.9,42.13,4.31,42.13,32,0,12.61-10,23.38-30.74,23.38C550.69,139,539.1,135.44,532.68,130.27Z"/><g id="a80e7c45-24e7-4cca-9fee-869db7912300" data-name="moodo"><path class="bb1a034c-3ff7-4045-9e2a-87f534e5e507" d="M830.85,116.53a30.6,30.6,0,0,1,5.63-6.39,27.39,27.39,0,0,1,15.76-6.45,27.85,27.85,0,0,1,29.39,22.19,28.9,28.9,0,0,1,.61,6.08v26.16c0,1-.27,1.22-1.23,1.18-2.09-.08-4.19-.07-6.28,0-1,0-1.19-.3-1.19-1.24V131.21a19.19,19.19,0,0,0-38.17-2.74,25.23,25.23,0,0,0-.24,3.69v26.63c0,1-.25,1.24-1.21,1.2-2.09-.07-4.19,0-6.28,0-.87,0-1.17-.13-1.17-1.12,0-9.14-.07-18.29,0-27.44a19.18,19.18,0,0,0-38-3.84A21.93,21.93,0,0,0,788,132v26.16c0,1-.3,1.22-1.23,1.19-2.17-.07-4.36,0-6.53,0-.69,0-.93-.13-.92-.89,0-9.3-.2-18.6.07-27.9a27.5,27.5,0,0,1,22-26.32c10.41-2.11,19.27,1,26.53,8.67A25,25,0,0,1,830.85,116.53Z"/><path class="bb1a034c-3ff7-4045-9e2a-87f534e5e507" d="M1059.3,111V83.49c0-1,.28-1.21,1.22-1.18,2.17.07,4.34,0,6.51,0,.67,0,.94.1.94.87,0,16.51.27,33-.13,49.53a27.22,27.22,0,0,1-22.35,25.9c-10.15,1.87-18.88-1-26-8.51a26.34,26.34,0,0,1-7-15.06,27.8,27.8,0,0,1,45.94-24.51,4,4,0,0,0,.47.34A1.51,1.51,0,0,0,1059.3,111ZM1040,150.51c9.87.39,19.26-7.94,19.3-19a19.23,19.23,0,1,0-38.45.1C1021,142.35,1030.12,150.87,1040,150.51Z"/><path class="ad763248-1090-4aaf-a630-216e9a43428f" d="M978.27,95.6A27.8,27.8,0,1,1,1006,67.76v.18C1006,82.94,993.41,95.87,978.27,95.6Zm-.17-8.66c10.67.26,19.29-8.79,19.29-19a19.22,19.22,0,1,0-19.43,19Z"/><path class="eda6500f-9a77-4513-8fff-51569df5eac3" d="M978.12,159.12c-15.11.25-27.63-12.39-27.77-27.41A27.84,27.84,0,0,1,1006,130C1006.87,146.6,993,159.56,978.12,159.12Zm.1-8.63c10.45.25,19.2-8.64,19.18-19a19.22,19.22,0,0,0-38.42-.88c0,.29,0,.58,0,.88a19.08,19.08,0,0,0,19.29,19Z"/><path class="bb1a034c-3ff7-4045-9e2a-87f534e5e507" d="M1074.15,131.32a27.81,27.81,0,1,1,28.46,27.86C1086.6,159.57,1073.81,146.27,1074.15,131.32Zm27.73,19.19a19.18,19.18,0,1,0-19.19-19.16v.07a19,19,0,0,0,18.92,19.09Z"/><path class="b223690c-154c-4bf8-b2bd-949c30941ce0" d="M944.11,67.94c.15,15-12.35,27.36-27,27.72A27.82,27.82,0,1,1,944.1,67C944.11,67.34,944.11,67.64,944.11,67.94ZM916.38,87c10.39.21,18.94-8.64,19.16-18.72a19.29,19.29,0,0,0-18.95-19.64h-.06a19.19,19.19,0,0,0-1,38.36C915.81,87,916.1,87,916.38,87Z"/><path class="b200aa6d-7b1d-450d-9f54-b6556ccdda6c" d="M888.61,131.41c-.18-14.8,11.71-26.69,25.54-27.68a27.76,27.76,0,0,1,4.29,55.35l-.52,0C901.58,160,888.4,146.74,888.61,131.41Zm27.64,19.11c10.57.26,19.23-8.66,19.27-18.92A19.22,19.22,0,1,0,916,150.52Z"/></g></svg>