<svg id="a4b853e1-8754-4a7b-b9bf-802806459b23" data-name="Ebene 1" xmlns="http://www.w3.org/2000/svg" viewBox="0 0 1680 200"><defs><style>.e2ae6178-df65-4279-b17b-69d42cc3dc84{fill:none;stroke:#ccc;stroke-miterlimit:10;}.ea42916a-85d5-4e79-9b6b-ff45b80d76e3{fill:#f9b213;}.a4d89b42-954f-496c-8516-490d35518841{fill:#7888fe;}.ae552681-f738-4dde-8025-fed7b4a52d7d{fill:#ccc;}</style></defs><title>roomme</title><g id="ab36fa98-5277-471b-aa4c-5c1821f3b3a9" data-name="Stroke"><line class="e2ae6178-df65-4279-b17b-69d42cc3dc84" x1="700.5" y1="60" x2="700.5" y2="140"/></g><path class="ea42916a-85d5-4e79-9b6b-ff45b80d76e3" d="M154.17,41.5h-78A19.5,19.5,0,0,0,56.67,61v78a19.5,19.5,0,0,0,19.5,19.5h78a19.5,19.5,0,0,0,19.5-19.5V61A19.5,19.5,0,0,0,154.17,41.5Zm2,59.26a3.24,3.24,0,0,1-4.59,0,3.21,3.21,0,0,1-.95-2.09l-8.82-8.82V69.92a1.63,1.63,0,0,0-1.63-1.63h-3.25a1.63,1.63,0,0,0-1.62,1.63V83.6l-4.88-5.13-15-15a1.62,1.62,0,0,0-2.3,0L78.59,97.89a1.64,1.64,0,0,0,0,2.3l2.3,2.3a1.64,1.64,0,0,0,2.3,0l26.43-26.43a6.49,6.49,0,0,1,9.19,0l26.43,26.43a6.51,6.51,0,0,1,0,9.19l-2.3,2.3a6.49,6.49,0,0,1-9.19,0L115.36,95.59a1.64,1.64,0,0,0-2.3,0L94.68,114a1.62,1.62,0,0,0,0,2.3l2.3,2.29a1.61,1.61,0,0,0,2.29,0l10.35-10.34a6.49,6.49,0,0,1,9.19,0l10.34,10.34a6.51,6.51,0,0,1,0,9.2L118,138.89a3.21,3.21,0,0,1-1,2.09,3.25,3.25,0,1,1-2.5-5.54l11.12-11.12a1.62,1.62,0,0,0,0-2.3l-10.34-10.34a1.62,1.62,0,0,0-2.3,0L102.72,122a6.49,6.49,0,0,1-9.19,0l-2.3-2.3a6.49,6.49,0,0,1,0-9.19l18.39-18.38a6.49,6.49,0,0,1,9.19,0l18.38,18.38a1.64,1.64,0,0,0,2.3,0l2.3-2.3a1.64,1.64,0,0,0,0-2.3L115.36,79.51a1.62,1.62,0,0,0-2.3,0L86.63,105.93a6.49,6.49,0,0,1-9.19,0l-2.3-2.29a6.52,6.52,0,0,1,0-9.2L109.62,60a6.49,6.49,0,0,1,9.19,0l11.6,11.61V69.92a6.5,6.5,0,0,1,6.5-6.5h3.25a6.5,6.5,0,0,1,6.5,6.5V87.83l7.4,7.39a3.25,3.25,0,0,1,2.09,5.54Z"/><path class="ea42916a-85d5-4e79-9b6b-ff45b80d76e3" d="M612.42,61H624.1v3.65h-3.71v11H616.1v-11h-3.68Zm13.09,0h4.72l3.34,7.78L637,61h4.72V75.62h-3.85V67.39l-2.77,6.81h-2.92l-2.77-6.81v8.23h-3.85Z"/><path class="ea42916a-85d5-4e79-9b6b-ff45b80d76e3" d="M271.65,61v78H254.31V107h-34v32H202.92V61h17.35V91.75h34V61Zm10.65,39c0-22.41,16.77-39,39.65-39s39.64,16.48,39.64,39S344.72,139,322,139,282.3,122.41,282.3,100Zm62.09.39c0-14.19-9.63-23.9-22.44-23.9s-22.45,9.71-22.45,23.9,9.64,23.89,22.45,23.89S344.39,114.57,344.39,100.39ZM368.8,100c0-22.41,16.77-39,39.65-39s39.64,16.48,39.64,39-16.87,39-39.64,39S368.8,122.41,368.8,100Zm62.09.39c0-14.19-9.63-23.9-22.44-23.9S386,86.2,386,100.39s9.64,23.89,22.45,23.89S430.89,114.57,430.89,100.39Zm96.58,17.33c0,13.48-10.28,21.28-30,21.28H458.74V61h36.61c18.74,0,28.38,8.13,28.38,20.28a18.86,18.86,0,0,1-10,17.16C522.12,101.23,527.47,107.91,527.47,117.72ZM476.71,76.06V93.67h16.5c8.1,0,12.5-3,12.5-8.86s-4.4-8.75-12.5-8.75Zm32.59,39.47c0-6.29-4.61-9.28-13.22-9.28H476.71v18.46h19.37C504.69,124.71,509.3,121.93,509.3,115.53Zm23.38,14.74,5.69-13.14A41.52,41.52,0,0,0,562.28,125c9.94,0,14-3.44,14-8.08,0-14.11-42.13-4.41-42.13-32.42,0-12.82,9.94-23.49,30.53-23.49,9.11,0,18.43,2.26,25.16,6.68l-5.18,13.25A39.67,39.67,0,0,0,564.56,75c-9.94,0-13.77,3.87-13.77,8.61,0,13.9,42.13,4.31,42.13,32,0,12.61-10,23.38-30.74,23.38C550.69,139,539.1,135.44,532.68,130.27Z"/><path class="a4d89b42-954f-496c-8516-490d35518841" d="M834.11,156.17c-12.94,0-25.88-.23-38.81.08a17.55,17.55,0,0,1-17.73-17.73c.3-16.29.16-32.58,0-48.87a18.36,18.36,0,0,1,6.61-14.81c13-11.33,25.88-22.82,38.91-34.14,7-6.08,15.84-5.87,22.86.29,12.48,10.94,24.9,22,37.47,32.83a20.46,20.46,0,0,1,7.61,16.77c-.22,15.89-.07,31.79-.07,47.69,0,5.91-2.06,10.85-6.84,14.48a16.62,16.62,0,0,1-10.46,3.43C860.5,156.14,847.31,156.17,834.11,156.17Zm25.48-52.81a45.23,45.23,0,0,1-15.27-10,43.89,43.89,0,0,1-9.86-15.6,42,42,0,0,1-25.63,25.62c12.54,4.85,20.84,13.34,25.68,25.54C839.26,116.56,847.66,108.31,859.59,103.36Z"/><path class="ae552681-f738-4dde-8025-fed7b4a52d7d" d="M1128.3,117.11c0-4.91,0-9.82,0-14.73.13-11.62,7.79-20.85,19.23-22.86a21.84,21.84,0,0,1,18.62,5.07c.93.78,1.42,1,2.51.12,7.31-6,15.5-7.29,24.12-3.55s13.4,10.52,13.74,19.88c.35,9.81.11,19.64.12,29.47a29.38,29.38,0,0,1-.11,3.87,6.92,6.92,0,0,1-13.8-.8c0-10.28,0-20.56,0-30.84,0-4.95-3.2-8.82-7.69-9.51a8.91,8.91,0,0,0-10.52,8.86c-.11,10.28,0,20.56,0,30.84,0,3.17-1.16,5.7-4.11,7.1a6.87,6.87,0,0,1-9.81-6.34c-.07-10.21,0-20.42,0-30.64,0-4.45-2.25-8-5.9-9.36a9.07,9.07,0,0,0-12.35,8.69c0,10.14,0,20.29,0,30.44,0,3.26-1.16,5.85-4.2,7.25a6.89,6.89,0,0,1-9.73-6.28C1128.23,128.23,1128.3,122.67,1128.3,117.11Z"/><path class="ae552681-f738-4dde-8025-fed7b4a52d7d" d="M1054.34,109.83c.17-17,14.22-30.87,31-30.64a30.75,30.75,0,1,1-.44,61.5C1068.1,140.57,1054.17,126.52,1054.34,109.83Zm47.66.25a16.89,16.89,0,1,0-16.83,16.72A17,17,0,0,0,1102,110.08Z"/><path class="ae552681-f738-4dde-8025-fed7b4a52d7d" d="M1011.38,79.19a30.75,30.75,0,1,1-30.77,30.69A30.89,30.89,0,0,1,1011.38,79.19ZM1028.26,110a16.89,16.89,0,1,0-16.88,16.83A16.9,16.9,0,0,0,1028.26,110Z"/><path class="ae552681-f738-4dde-8025-fed7b4a52d7d" d="M1229.51,117.52V134.4a4.52,4.52,0,0,1-.7,2.95,2.93,2.93,0,0,1-5-.76,5.29,5.29,0,0,1-.28-2.09c0-10.8,0-21.59,0-32.38.06-10.42,6.52-18.49,16.51-20.22,7.78-1.34,14.26,1.33,19.17,7.52,1,1.24,1.29,1.18,2.26,0,5.19-6.5,12-9.11,20.12-7.29,7.92,1.78,12.92,6.92,15,14.8a20.09,20.09,0,0,1,.54,5.19q0,15.9,0,31.8a9.87,9.87,0,0,1-.19,2.11,2.7,2.7,0,0,1-2.56,2.25,2.82,2.82,0,0,1-3-1.95,6.12,6.12,0,0,1-.27-2.48c0-10.86,0-21.72,0-32.58a13.85,13.85,0,0,0-26.36-6,15.83,15.83,0,0,0-1.41,7.15q0,15.32,0,30.64v1.16c0,2.75-1,4.13-3,4.13s-3-1.46-3-4.14c0-10.8,0-21.59,0-32.39,0-7.11-3.88-12.16-10.53-14-7.9-2.17-16.58,3.75-17,11.93-.32,5.93-.06,11.89-.06,17.83Z"/><path class="ae552681-f738-4dde-8025-fed7b4a52d7d" d="M1342,113.09c-7.44,0-14.88.07-22.32,0-1.84,0-2.18.48-1.8,2.15a22.56,22.56,0,0,0,21.59,17.35,22.13,22.13,0,0,0,15.42-5.75,5.24,5.24,0,0,1,2.42-1.55,2.77,2.77,0,0,1,3.08,1.51,2.86,2.86,0,0,1-.71,3.68,26.91,26.91,0,0,1-15.29,7.76,28.47,28.47,0,0,1-32.74-29.63c.75-14.89,13.73-27.09,28.57-26.84a28.54,28.54,0,0,1,28.21,27.78c0,2.48-1.07,3.58-3.72,3.59Zm-2.06-6.17c6.86,0,13.71-.06,20.56,0,1.65,0,1.83-.56,1.51-1.89a22.21,22.21,0,0,0-6.67-11.53A22.54,22.54,0,0,0,1318,105.07c-.42,1.68,0,1.89,1.55,1.88C1326.34,106.88,1333.12,106.92,1339.91,106.92Z"/><path class="ae552681-f738-4dde-8025-fed7b4a52d7d" d="M937.1,117.33c0-4.72,0-9.44,0-14.16a24.77,24.77,0,0,1,25.55-24c1.29,0,2.59,0,3.87.11a6.87,6.87,0,0,1,.05,13.68c-1,.1-2.06.1-3.1.11-8.14,0-12.54,4.43-12.54,12.62,0,9.25,0,18.49,0,27.74,0,4.26-2.75,7.16-6.69,7.25a6.81,6.81,0,0,1-7-5.89,19,19,0,0,1-.18-2.51c0-5,0-9.95,0-14.93Z"/></svg>