<svg xmlns="http://www.w3.org/2000/svg" viewBox="0 0 1400 200"><defs><style>.cls-1{fill:#feb400;}.cls-2{fill:none;stroke:#5f5f60;stroke-miterlimit:10;}.cls-3{fill:#51545d;}.cls-4{fill:#038cc0;}</style></defs><title>HOOBS_x_simplisafe</title><g id="HOOBS_LOGO" data-name="HOOBS LOGO"><path class="cls-1" d="M152.1,39.5H77.79A22.36,22.36,0,0,0,55.63,61.92v75.16A22.36,22.36,0,0,0,77.79,159.5H152.1a22.36,22.36,0,0,0,22.16-22.42V61.92A22.36,22.36,0,0,0,152.1,39.5Zm3,57.94a3.11,3.11,0,0,1-2.65,2.53,2.6,2.6,0,0,1-3.1-1.4c-1.22-3.28-3.9-5.27-6.23-7.51a8.46,8.46,0,0,1-2.91-7.15c.14-1.83,0-3.69,0-5.53h0c0-2.46,0-4.92,0-7.38,0-2.23-1.38-2.65-3.19-2.61s-3.9-.31-4,2.45c-.1,2.23,0,4.46-.08,6.69,0,.73.37,1.78-.35,2.14s-1.23-.67-1.74-1.16c-4.88-4.62-9.77-9.23-14.57-13.94-1.48-1.45-2.59-1.42-4,0q-15.85,16.1-31.81,32.1c-1.39,1.39-1.57,2.51,0,3.79.35.3.64.66,1,1,2.09,2.07,2.41,2,4.64-.06C93,95,99.53,88.09,106.27,81.43c1.41-1.39,2.91-2.7,4.35-4.06,2.71-2.57,5.82-2.66,8.51-.05,2.91,2.82,5.7,5.76,8.57,8.62,5.31,5.28,10.67,10.51,16,15.81,3.49,3.48,3.44,6.58,0,10.12-5.42,5.51-7.54,5.49-13,0-4.76-4.75-9.64-9.38-14.39-14.14-1.49-1.5-2.61-1.35-4,.1q-7.6,7.8-15.34,15.48c-1.35,1.33-1.35,2.43,0,3.68.5.47,1,.95,1.45,1.47,1.22,1.37,2.35,1.36,3.67,0,2.7-2.7,5.48-5.32,8.23-8s6-2.78,8.74-.2q4.59,4.32,9,8.83a5.89,5.89,0,0,1,0,8.48c-2,2.19-4.18,4.25-6.27,6.38a12.38,12.38,0,0,0-3.29,4.33,2.74,2.74,0,0,1-3.12,1.82,3,3,0,0,1-2.73-2.41,3.1,3.1,0,0,1,1.61-3.71c4.35-2.08,6.84-6.22,10.3-9.28a1.59,1.59,0,0,0,0-2.6c-2.75-2.76-5.49-5.53-8.25-8.28-1.11-1.12-2.13-.82-3.16.2-2.73,2.67-5.51,5.3-8.24,8s-5.82,2.83-8.75.39c-.76-.64-1.45-1.37-2.14-2.08-3.52-3.61-3.54-6.78,0-10.34q7.74-7.83,15.5-15.64c3.3-3.31,6.41-3.34,9.74-.08Q127,102,134.8,109.74c2.23,2.18,2.48,2.15,5.12-.54,2.23-2.28,2.26-2.62.05-4.83-7.74-7.72-15.51-15.4-23.22-23.15-1.31-1.32-2.34-1.41-3.65-.11-3.57,3.56-7.18,7.08-10.77,10.62q-7.11,7-14.23,14a5.85,5.85,0,0,1-8.58.2c-5.65-5.14-7-7.85-.5-14.2,10.21-9.89,20.08-20.14,30.09-30.24,3.58-3.6,6.67-3.61,10.25-.1,2.46,2.4,5,4.74,7.44,7.14,1,1,1.69,1.58,2.23-.45a5.07,5.07,0,0,1,4.41-3.82,22.64,22.64,0,0,1,2.72-.31c6.33-.17,8.55,2,8.57,8.43,0,3.85,0,7.69,0,11.54a4.59,4.59,0,0,0,1.57,3.87c2.46,2.13,4.24,5,7.44,6.32A2.8,2.8,0,0,1,155.13,97.44Z"/><path class="cls-1" d="M276.93,40.9v81.53H258.06V89H221v33.43H202.15V40.9H221V73h37V40.9Zm14.21,40.76c0-24.22,18.87-42.16,44.61-42.16s44.61,17.82,44.61,42.16-19,42.17-44.61,42.17S291.14,105.89,291.14,81.66Zm70.12,0c0-15.49-10.95-26.09-25.51-26.09s-25.51,10.6-25.51,26.09,10.95,26.1,25.51,26.1S361.26,97.15,361.26,81.66Zm28.19,0c0-24.22,18.87-42.16,44.61-42.16s44.61,17.82,44.61,42.16-19,42.17-44.61,42.17S389.45,105.89,389.45,81.66Zm70.12,0c0-15.49-10.95-26.09-25.51-26.09s-25.51,10.6-25.51,26.09,10.95,26.1,25.51,26.1S459.57,97.15,459.57,81.66Zm108.09,18.52c0,14.1-11.18,22.25-32.61,22.25H492.88V40.9h39.84c20.38,0,30.87,8.5,30.87,21.2A19.59,19.59,0,0,1,552.75,80C561.84,82.94,567.66,89.93,567.66,100.18Zm-56-45.07V74.33h18.75c9.2,0,14.21-3.27,14.21-9.67s-5-9.55-14.21-9.55Zm37,43.09c0-6.87-5.24-10.13-15-10.13h-22v20.15h22C543.44,108.22,548.68,105.19,548.68,98.2Zm26.9,16.19L582,100.18a47.94,47.94,0,0,0,26.91,8.51c11.18,0,15.72-3.73,15.72-8.74,0-15.26-47.4-4.77-47.4-35.06,0-13.86,11.18-25.39,34.36-25.39,10.25,0,20.73,2.45,28.3,7.22l-5.82,14.33a46.07,46.07,0,0,0-22.6-6.41C600.28,54.64,596,58.83,596,64c0,15,47.4,4.66,47.4,34.59,0,13.63-11.29,25.28-34.59,25.28C595.85,123.83,582.81,120,575.58,114.39Z"/><path class="cls-1" d="M201.05,137.31h2.7v8.77H215v-8.77h2.72V157H215v-8.45H203.75V157h-2.7Z"/><path class="cls-1" d="M237.12,138.47a9.83,9.83,0,0,1,3.75,3.6,9.61,9.61,0,0,1,1.38,5.05,9.75,9.75,0,0,1-1.38,5.07,9.89,9.89,0,0,1-3.75,3.65,10.87,10.87,0,0,1-10.42,0,10,10,0,0,1-3.75-3.65,9.84,9.84,0,0,1-1.37-5.07,9.69,9.69,0,0,1,1.37-5.05,10,10,0,0,1,3.74-3.6,11,11,0,0,1,10.43,0Zm-9,2.1a7.74,7.74,0,0,0-2.8,2.74,7.5,7.5,0,0,0,0,7.62,7.67,7.67,0,0,0,2.8,2.77,7.33,7.33,0,0,0,3.8,1,7.21,7.21,0,0,0,3.78-1,7.61,7.61,0,0,0,2.75-2.77,7.56,7.56,0,0,0,0-7.62,7.68,7.68,0,0,0-2.75-2.74,7.38,7.38,0,0,0-3.78-1A7.5,7.5,0,0,0,228.14,140.57Z"/><path class="cls-1" d="M246.12,137.31h3.21l7.19,13.82,7.13-13.82h3.23V157h-2.53l0-15.7-7,13.63h-1.66l-7-13.63V157h-2.5Z"/><path class="cls-1" d="M272.5,137.31h13.64v2.45H275.19v6.06H285v2.45h-9.8v6.26h11.29V157h-14Z"/><path class="cls-1" d="M304,138.62a4.27,4.27,0,0,1,1.73,3.61,4.39,4.39,0,0,1-.95,2.85,4.63,4.63,0,0,1-2.62,1.56,5.09,5.09,0,0,1,3.22,1.64,4.87,4.87,0,0,1,1.17,3.33,4.65,4.65,0,0,1-1.9,3.94,8.54,8.54,0,0,1-5.24,1.42h-8.54V137.31h8.4A7.68,7.68,0,0,1,304,138.62Zm-2,6.26a2.6,2.6,0,0,0,1-2.2,2.53,2.53,0,0,0-1-2.16,4.41,4.41,0,0,0-2.82-.73h-5.56v5.87h5.56A4.47,4.47,0,0,0,301.91,144.88Zm.61,8.79a2.76,2.76,0,0,0,1.23-2.4,2.67,2.67,0,0,0-1.23-2.33,6.06,6.06,0,0,0-3.43-.84h-5.56v6.4h5.56A5.83,5.83,0,0,0,302.52,153.67Z"/><path class="cls-1" d="M323.52,157l-3.9-6.17c-.45,0-.81,0-1.1,0h-5V157h-2.7V137.31h7.69A8.71,8.71,0,0,1,324.3,139a6.1,6.1,0,0,1,2,4.9,7,7,0,0,1-1.11,4,6.27,6.27,0,0,1-3.18,2.36l4.57,6.65Zm-5-8.56a6,6,0,0,0,3.88-1.11,4,4,0,0,0,1.35-3.27,3.84,3.84,0,0,0-1.35-3.19,6.08,6.08,0,0,0-3.88-1.08h-5v8.65Z"/><path class="cls-1" d="M331.13,137.31h2.7V157h-2.7Z"/><path class="cls-1" d="M352.63,138.59a9.36,9.36,0,0,1,3.64,3.53,10.19,10.19,0,0,1,0,10,9.51,9.51,0,0,1-3.67,3.53,10.67,10.67,0,0,1-5.22,1.27h-7.92V137.31h8A10.55,10.55,0,0,1,352.63,138.59Zm-1.4,15a7,7,0,0,0,2.64-2.64,7.34,7.34,0,0,0,1-3.76,7.43,7.43,0,0,0-1-3.79,7.13,7.13,0,0,0-2.69-2.65,7.43,7.43,0,0,0-3.77-1h-5.26v14.77h5.37A7.34,7.34,0,0,0,351.23,153.57Z"/><path class="cls-1" d="M374.41,147.37h2.39v7.22a12.08,12.08,0,0,1-3.48,1.88,11.82,11.82,0,0,1-4,.7,10.37,10.37,0,0,1-5.2-1.33,10,10,0,0,1-3.72-3.65,9.83,9.83,0,0,1-1.36-5.07,9.69,9.69,0,0,1,1.37-5.05,10,10,0,0,1,3.77-3.6,10.72,10.72,0,0,1,5.28-1.32,11.27,11.27,0,0,1,4,.73,10.6,10.6,0,0,1,3.38,2l-1.54,2a8.73,8.73,0,0,0-5.84-2.31,7.72,7.72,0,0,0-3.88,1,7.54,7.54,0,0,0-2.79,2.76,7.32,7.32,0,0,0-1,3.82,7.42,7.42,0,0,0,1,3.83,7.7,7.7,0,0,0,6.69,3.8,8.27,8.27,0,0,0,2.51-.4,9.26,9.26,0,0,0,2.37-1.14Z"/><path class="cls-1" d="M381.91,137.31h13.65v2.45H384.61v6.06h9.8v2.45h-9.8v6.26H395.9V157h-14Z"/><path class="cls-1" d="M421.41,138.47a10,10,0,0,1,3.75,3.6,9.61,9.61,0,0,1,1.38,5.05,9.75,9.75,0,0,1-1.38,5.07,10,10,0,0,1-3.75,3.65,10.87,10.87,0,0,1-10.42,0,10,10,0,0,1-3.75-3.65,9.75,9.75,0,0,1-1.37-5.07,9.6,9.6,0,0,1,1.37-5.05,10,10,0,0,1,3.74-3.6,11,11,0,0,1,10.43,0Zm-9,2.1a7.71,7.71,0,0,0-2.79,2.74,7.5,7.5,0,0,0,0,7.62,7.64,7.64,0,0,0,2.79,2.77,7.36,7.36,0,0,0,3.81,1,7.21,7.21,0,0,0,3.78-1,7.61,7.61,0,0,0,2.75-2.77,7.63,7.63,0,0,0,0-7.62,7.68,7.68,0,0,0-2.75-2.74,7.38,7.38,0,0,0-3.78-1A7.54,7.54,0,0,0,412.42,140.57Z"/><path class="cls-1" d="M434.19,153.2a5.53,5.53,0,0,0,4.14,1.53,5.45,5.45,0,0,0,4.1-1.53,5.86,5.86,0,0,0,1.49-4.26V137.31h2.7v11.63a8.13,8.13,0,0,1-2.21,6,8.24,8.24,0,0,1-6.08,2.19,8.34,8.34,0,0,1-6.12-2.19,8.09,8.09,0,0,1-2.22-6V137.31h2.7v11.63A5.83,5.83,0,0,0,434.19,153.2Z"/><path class="cls-1" d="M449.29,137.31h15.36v2.48H458.3V157h-2.7V139.79h-6.31Z"/><path class="cls-1" d="M488.9,138.47a10,10,0,0,1,3.75,3.6,9.69,9.69,0,0,1,1.37,5.05,9.84,9.84,0,0,1-1.37,5.07,10,10,0,0,1-3.75,3.65,10.87,10.87,0,0,1-10.42,0,10,10,0,0,1-3.75-3.65,9.75,9.75,0,0,1-1.38-5.07,9.61,9.61,0,0,1,1.38-5.05,10,10,0,0,1,3.73-3.6,11,11,0,0,1,10.44,0Zm-9,2.1a7.71,7.71,0,0,0-2.79,2.74,7.5,7.5,0,0,0,0,7.62,7.64,7.64,0,0,0,2.79,2.77,7.36,7.36,0,0,0,3.81,1,7.2,7.2,0,0,0,3.77-1,7.64,7.64,0,0,0,2.76-2.77,7.63,7.63,0,0,0,0-7.62,7.71,7.71,0,0,0-2.76-2.74,7.37,7.37,0,0,0-3.77-1A7.54,7.54,0,0,0,479.91,140.57Z"/><path class="cls-1" d="M497.9,137.31h12.8l0,2.45H500.59v6.46h9.08v2.44h-9.08V157H497.9Z"/><path class="cls-1" d="M518.68,137.31H534v2.48H527.7V157H525V139.79h-6.32Z"/><path class="cls-1" d="M537.13,137.31h2.7v8.77h11.23v-8.77h2.72V157h-2.72v-8.45H539.83V157h-2.7Z"/><path class="cls-1" d="M559.4,137.31h13.65v2.45H562.1v6.06h9.8v2.45h-9.8v6.26h11.29V157h-14Z"/><path class="cls-1" d="M598.23,138.62a4.27,4.27,0,0,1,1.73,3.61,4.35,4.35,0,0,1-1,2.85,4.64,4.64,0,0,1-2.61,1.56,5,5,0,0,1,3.21,1.64,4.87,4.87,0,0,1,1.17,3.33,4.63,4.63,0,0,1-1.9,3.94,8.53,8.53,0,0,1-5.23,1.42H585.1V137.31h8.4A7.68,7.68,0,0,1,598.23,138.62Zm-2.05,6.26a2.63,2.63,0,0,0,1-2.2,2.55,2.55,0,0,0-1-2.16,4.44,4.44,0,0,0-2.82-.73H587.8v5.87h5.56A4.5,4.5,0,0,0,596.18,144.88Zm.6,8.79a2.74,2.74,0,0,0,1.24-2.4,2.66,2.66,0,0,0-1.24-2.33,6,6,0,0,0-3.42-.84H587.8v6.4h5.56A5.78,5.78,0,0,0,596.78,153.67Z"/><path class="cls-1" d="M618.9,138.47a10,10,0,0,1,3.75,3.6,9.69,9.69,0,0,1,1.37,5.05,9.84,9.84,0,0,1-1.37,5.07,10,10,0,0,1-3.75,3.65,10.87,10.87,0,0,1-10.42,0,10,10,0,0,1-3.75-3.65,9.75,9.75,0,0,1-1.38-5.07,9.61,9.61,0,0,1,1.38-5.05,10,10,0,0,1,3.74-3.6,11,11,0,0,1,10.43,0Zm-9,2.1a7.71,7.71,0,0,0-2.79,2.74,7.5,7.5,0,0,0,0,7.62,7.64,7.64,0,0,0,2.79,2.77,7.36,7.36,0,0,0,3.81,1,7.2,7.2,0,0,0,3.77-1,7.64,7.64,0,0,0,2.76-2.77,7.63,7.63,0,0,0,0-7.62,7.71,7.71,0,0,0-2.76-2.74,7.37,7.37,0,0,0-3.77-1A7.54,7.54,0,0,0,609.91,140.57Z"/><path class="cls-1" d="M626.13,137.31h3.15l5.16,7.34,5.2-7.34h3.17l-6.65,9.44L643.37,157h-3.23l-5.7-7.95L628.8,157h-3.18l7.19-10.11Z"/></g><g id="Stroke"><line class="cls-2" x1="700.5" y1="60" x2="700.5" y2="140"/></g><g id="simplisafe"><path class="cls-3" d="M874.75,99.85a59.84,59.84,0,1,1-59.54-60.11A59.67,59.67,0,0,1,874.75,99.85Zm-56-9.58c-5.74,0-11.47-.09-17.2,0-3.68.08-4.82-1.73-4.56-5.09.67-8.76,6.41-15.57,14.47-17.07,8.73-1.61,16.4,2.46,20.23,10.87,1,2.26,2.07,4.5,5,3.22s2.3-3.56,1.34-5.89a24.85,24.85,0,0,0-46.36.89c-1.73,4.61-1.59,9.36-1.55,14.13s.8,5.45,5.5,5.46c10.92,0,21.84.08,32.76,0,3.38,0,4.69,1.21,4.54,4.58-.19,4.22,0,8.46-.07,12.69a17.85,17.85,0,0,1-35.58,2,76.63,76.63,0,0,1-.25-8.58c0-2.3-1.19-3.74-3.38-3.79s-3.45,1.44-3.51,3.69-.07,4.64,0,7a24.87,24.87,0,0,0,49.73-.3c.08-6.28-.1-12.56,0-18.84.09-3.51-1.32-5-4.81-4.92C829.64,90.34,824.18,90.27,818.72,90.27Z"/><path class="cls-3" d="M993.87,88.74c6.86-6.28,14-6.93,21.71-3.79,2,.81,9.53,1.1,11.48.2,14-6.5,27,.78,27.81,16,.56,10.35.13,20.75.21,31.13,0,1.91-.67,2.83-2.62,2.66a2.8,2.8,0,0,0-.41,0c-11.52.55-11.52.55-11.52-10.88,0-6.42,0-12.84,0-19.25,0-3.91-1.13-7.39-5.23-8.87-5.75-2.08-10.66,1.64-10.83,8.44q-.3,12.9,0,25.82c.1,3.54-.54,5-4.59,4.85-9.79-.34-9.8-.1-9.81-9.8,0-6.83.08-13.66,0-20.49-.06-3.85-1-7.41-5.2-8.87-5.61-1.94-10.63,1.72-10.76,8.11-.19,9.15-.16,18.3,0,27.45.05,2.67-.66,3.52-3.4,3.55-11.1.14-11.1.23-11.1-11,0-12,.08-24,0-36.06,0-2.75.54-4,3.57-3.74a32.3,32.3,0,0,0,6.95,0C993.05,83.91,994.7,84.76,993.87,88.74Z"/><path class="cls-3" d="M918.5,136.06c-9.19-.33-17.71-2.64-25.29-8.12-2.38-1.72-2.57-3.06-.46-5.13,2.33-2.29,4-5.88,6.68-7s5.11,2.79,7.93,4c5.53,2.4,11,4,17,2.23,4.25-1.23,6.57-4,6.61-7.8.05-4.41-2.84-6.33-6.53-7.18-4.11-1-8.34-1.39-12.46-2.27-14.36-3-21.21-13.83-17.29-27.14,2.12-7.15,7.11-11.66,14.07-13.62,11.33-3.21,22.11-1.39,32.29,4.5,2.36,1.36,2.68,2.58,1,4.73-1.86,2.34-2.9,5.73-5.23,7.2-2.78,1.75-5.12-1.89-7.83-2.78A28.35,28.35,0,0,0,916.56,76c-4.13.5-6.76,3-7.16,6.65-.46,4.16,1.9,6.28,5.42,7.59,3.88,1.44,8,1.43,12,2.28,8.78,1.86,16.5,5.09,19,15,3,12.09-2.64,22.63-14.41,26.58A37.6,37.6,0,0,1,918.5,136.06Z"/><path class="cls-4" d="M1199.61,136.06c-9.19-.24-17.75-2.52-25.37-7.87-2.27-1.59-3.15-3.11-.74-5.44,2.25-2.17,3.79-5.53,6.4-6.76,3.09-1.44,5.17,2.56,7.94,3.76,5.65,2.47,11.29,4.09,17.42,2.31,4.11-1.19,6.64-4.23,6.53-7.9-.11-4.06-2.68-6.17-6.32-7-4.25-.94-8.6-1.43-12.86-2.37-14.77-3.25-21.64-15-16.73-28.36a19.29,19.29,0,0,1,13.33-12.28c11.46-3.35,22.36-1.57,32.65,4.47,2.37,1.39,2.46,2.63.86,4.67-1.92,2.45-3.08,6.11-5.53,7.39s-5.13-2.2-7.93-3.15A28.16,28.16,0,0,0,1197.6,76c-4.29.39-7.21,3-7.63,6.71s1.53,6.25,5.88,7.73c3.77,1.28,7.78,1.35,11.65,2.12,8.87,1.77,16.53,5.24,19.06,15,3.12,12-2.72,22.65-14.45,26.61A35.7,35.7,0,0,1,1199.61,136.06Z"/><path class="cls-3" d="M1079.85,130.63c0,6.92-.12,13.15.05,19.37.07,2.7-.48,3.84-3.53,3.86-11.15,0-11.15.16-11.15-10.88,0-18.28.06-36.56-.07-54.84,0-3,.62-4.29,3.8-3.91a34,34,0,0,0,6.54,0c2.9-.2,5.18.11,4.34,4.45,6.29-6.29,13.31-6.65,20.53-4.3s9.86,8.46,11,15.4a59.22,59.22,0,0,1-.19,20.74c-1.27,6.65-4.33,12.18-11.21,14.37C1092.92,137.16,1086.25,136.5,1079.85,130.63Zm17.68-21.1a60.17,60.17,0,0,0-.74-7.58c-1-4.48-4.16-6.81-8.51-6.69a8,8,0,0,0-8,7.24,48.46,48.46,0,0,0,0,13.87c.63,4.65,3.55,7.23,7.85,7.41,4.7.19,7.77-2,8.79-6.78A60.52,60.52,0,0,0,1097.53,109.53Z"/><path class="cls-4" d="M1263.8,130.46c-6.51,5.9-13.22,6.52-20.3,4.72-6.41-1.63-9.9-6.13-10.75-13.36a14.85,14.85,0,0,1,7.7-14.67c5.52-3,11.55-2.72,17.55-2.93,1.89-.07,5,1.77,5.53-2a6,6,0,0,0-5.29-7.07c-5-.81-10.17-1-14.74,1.72-2.25,1.34-3.14.85-4.35-1.22-4.41-7.58-4.1-8.74,4.37-11.07a43.33,43.33,0,0,1,22.66-.12c6.32,1.65,10.34,5.92,10.58,12.5.43,11.87.28,23.75.42,35.63,0,1.83-.87,2.38-2.52,2.34-2.46,0-4.93-.15-7.37,0C1264.53,135.18,1263.07,134.31,1263.8,130.46Zm-6.74-16.57c-2.3.08-4.63-.16-6.86.75s-3.78,2.56-3.69,5.26,1.68,4.24,4.12,4.91a13.44,13.44,0,0,0,9.2-.67c3-1.31,4.73-5.46,3.69-8.73-.92-2.88-3.49-1-5.23-1.5A5,5,0,0,0,1257.06,113.89Z"/><path class="cls-4" d="M1348.33,113.9c-4.5,0-9,.1-13.51,0-2.38-.07-2.77.89-2.28,3,1.1,4.6,5.76,7.84,11.3,7.52,3.44-.2,6.87-.91,9.5-3.27,1.86-1.66,3.18-1.72,4.7.18a14.1,14.1,0,0,0,1.46,1.43c5.2,4.85,5.27,5-.76,8.67a30.46,30.46,0,0,1-26.31,3.17c-10-3.23-13.45-11.22-14.48-20.75a38.74,38.74,0,0,1,.21-10.2c2.71-17,18-25.35,33.9-18.32,8.71,3.86,11.64,11.34,12.36,20.1.71,8.55.67,8.56-7.9,8.56Zm-7.21-9.6c2.44,0,4.89,0,7.34,0,1.58,0,2.08-.7,2-2.29a8.66,8.66,0,0,0-7.66-7.76c-4.85-.56-9,1.71-10.1,5.67-.77,2.69-.83,4.95,3.17,4.42A42.55,42.55,0,0,1,1341.12,104.3Z"/><path class="cls-4" d="M1303.92,114.69c0,5.6-.15,11.2.07,16.8.1,2.79-.94,3.45-3.53,3.5-10.78.21-10.78.28-10.78-10.46,0-8.74,0-17.48,0-26.22,0-1.23.59-3.36-1.38-3.23-4.39.28-3.56-2.63-3.52-5.09,0-2.74-1.22-6.32,3.88-5.92,1.22.1,1-1.37,1-2.29a49.67,49.67,0,0,1,.33-6.12c1.18-6.72,5.31-10.52,12.43-11.67a22.13,22.13,0,0,1,3.26-.21c8.78-.09,9.38.72,8.24,9.66-.39,3.06-2.52,1.85-4,1.94-4.92.28-6.09,1.51-6.06,6.11,0,2.15.68,2.76,2.8,2.84,7.29.26,7.17.35,7.14,7.4,0,2.51-.76,3.25-3.27,3.26-6.62,0-6.62.14-6.62,6.59Z"/><path class="cls-3" d="M1120.12,94.2c0-9,.1-18-.06-27,0-2.69.71-3.73,3.42-3.4,3.6.44,8.24-1.58,10.58.89,2.13,2.26.59,6.78.61,10.3.07,13.93.11,27.87,0,41.8,0,4,.73,6.8,5.53,6.46.81,0,1.94.09,2,1,.15,3.4.14,6.82.06,10.22,0,.76-.9.92-1.62.9-3.53-.14-7.1.45-10.61-.37-6.41-1.5-9.61-5.78-9.77-13.72-.19-9,0-18,0-27Z"/><path class="cls-3" d="M954.25,109.34c0-7.36.08-14.72,0-22.07,0-2.33.73-3,3-3,11.48-.33,11.48-.39,11.48,10.87,0,12.12-.07,24.25.06,36.38,0,2.65-.7,3.5-3.43,3.52-11.1.11-11.1.2-11.1-10.93C954.25,119.16,954.26,114.25,954.25,109.34Z"/><path class="cls-3" d="M1164,109.36c0,7.36-.1,14.71,0,22.06,0,2.54-.44,3.57-3.32,3.59-11.06.05-11.06.17-11.06-10.93,0-12.12.07-24.24,0-36.36,0-2.58.5-3.73,3.32-3.49,3.51.31,8.1-1.06,10.28.7s.65,6.64.74,10.13C1164,99.83,1164,104.6,1164,109.36Z"/><path class="cls-3" d="M961.31,76c-7,0-6.75,0-7.16-7.09-.27-4.4,1.17-5.84,5.36-5.21a14.57,14.57,0,0,0,4.47,0c4-.65,5,1,4.84,4.86C968.5,76,968.73,76,961.31,76Z"/><path class="cls-3" d="M1157.18,63.77c6.76,0,6.76,0,6.77,6.08s0,6.19-6.32,6.19c-8,0-7.84,0-8.09-7.8-.11-3.44.54-5.22,4.36-4.5A17.94,17.94,0,0,0,1157.18,63.77Z"/></g></svg>