<svg xmlns="http://www.w3.org/2000/svg" viewBox="0 0 1400 200"><defs><style>.cls-1{fill:#feb400;}.cls-2{fill:none;stroke:#5f5f60;stroke-miterlimit:10;}.cls-3{fill:#4accd5;}.cls-4{fill:#ccc;}</style></defs><title>HOOBS_x_tplink</title><g id="HOOBS_LOGO" data-name="HOOBS LOGO"><path class="cls-1" d="M152.1,39.5H77.79A22.36,22.36,0,0,0,55.63,61.92v75.16A22.36,22.36,0,0,0,77.79,159.5H152.1a22.36,22.36,0,0,0,22.16-22.42V61.92A22.36,22.36,0,0,0,152.1,39.5Zm3,57.94a3.11,3.11,0,0,1-2.65,2.53,2.6,2.6,0,0,1-3.1-1.4c-1.22-3.28-3.9-5.27-6.23-7.51a8.46,8.46,0,0,1-2.91-7.15c.14-1.83,0-3.69,0-5.53h0c0-2.46,0-4.92,0-7.38,0-2.23-1.38-2.65-3.19-2.61s-3.9-.31-4,2.45c-.1,2.23,0,4.46-.08,6.69,0,.73.37,1.78-.35,2.14s-1.23-.67-1.74-1.16c-4.88-4.62-9.77-9.23-14.57-13.94-1.48-1.45-2.59-1.42-4,0q-15.85,16.1-31.81,32.1c-1.39,1.39-1.57,2.51,0,3.79.35.3.64.66,1,1,2.09,2.07,2.41,2,4.64-.06C93,95,99.53,88.09,106.27,81.43c1.41-1.39,2.91-2.7,4.35-4.06,2.71-2.57,5.82-2.66,8.51-.05,2.91,2.82,5.7,5.76,8.57,8.62,5.31,5.28,10.67,10.51,16,15.81,3.49,3.48,3.44,6.58,0,10.12-5.42,5.51-7.54,5.49-13,0-4.76-4.75-9.64-9.38-14.39-14.14-1.49-1.5-2.61-1.35-4,.1q-7.6,7.8-15.34,15.48c-1.35,1.33-1.35,2.43,0,3.68.5.47,1,.95,1.45,1.47,1.22,1.37,2.35,1.36,3.67,0,2.7-2.7,5.48-5.32,8.23-8s6-2.78,8.74-.2q4.59,4.32,9,8.83a5.89,5.89,0,0,1,0,8.48c-2,2.19-4.18,4.25-6.27,6.38a12.38,12.38,0,0,0-3.29,4.33,2.74,2.74,0,0,1-3.12,1.82,3,3,0,0,1-2.73-2.41,3.1,3.1,0,0,1,1.61-3.71c4.35-2.08,6.84-6.22,10.3-9.28a1.59,1.59,0,0,0,0-2.6c-2.75-2.76-5.49-5.53-8.25-8.28-1.11-1.12-2.13-.82-3.16.2-2.73,2.67-5.51,5.3-8.24,8s-5.82,2.83-8.75.39c-.76-.64-1.45-1.37-2.14-2.08-3.52-3.61-3.54-6.78,0-10.34q7.74-7.83,15.5-15.64c3.3-3.31,6.41-3.34,9.74-.08Q127,102,134.8,109.74c2.23,2.18,2.48,2.15,5.12-.54,2.23-2.28,2.26-2.62.05-4.83-7.74-7.72-15.51-15.4-23.22-23.15-1.31-1.32-2.34-1.41-3.65-.11-3.57,3.56-7.18,7.08-10.77,10.62q-7.11,7-14.23,14a5.85,5.85,0,0,1-8.58.2c-5.65-5.14-7-7.85-.5-14.2,10.21-9.89,20.08-20.14,30.09-30.24,3.58-3.6,6.67-3.61,10.25-.1,2.46,2.4,5,4.74,7.44,7.14,1,1,1.69,1.58,2.23-.45a5.07,5.07,0,0,1,4.41-3.82,22.64,22.64,0,0,1,2.72-.31c6.33-.17,8.55,2,8.57,8.43,0,3.85,0,7.69,0,11.54a4.59,4.59,0,0,0,1.57,3.87c2.46,2.13,4.24,5,7.44,6.32A2.8,2.8,0,0,1,155.13,97.44Z"/><path class="cls-1" d="M276.93,40.9v81.53H258.06V89H221v33.43H202.15V40.9H221V73h37V40.9Zm14.21,40.76c0-24.22,18.87-42.16,44.61-42.16s44.61,17.82,44.61,42.16-19,42.17-44.61,42.17S291.14,105.89,291.14,81.66Zm70.12,0c0-15.49-10.95-26.09-25.51-26.09s-25.51,10.6-25.51,26.09,10.95,26.1,25.51,26.1S361.26,97.15,361.26,81.66Zm28.19,0c0-24.22,18.87-42.16,44.61-42.16s44.61,17.82,44.61,42.16-19,42.17-44.61,42.17S389.45,105.89,389.45,81.66Zm70.12,0c0-15.49-10.95-26.09-25.51-26.09s-25.51,10.6-25.51,26.09,10.95,26.1,25.51,26.1S459.57,97.15,459.57,81.66Zm108.09,18.52c0,14.1-11.18,22.25-32.61,22.25H492.88V40.9h39.84c20.38,0,30.87,8.5,30.87,21.2A19.59,19.59,0,0,1,552.75,80C561.84,82.94,567.66,89.93,567.66,100.18Zm-56-45.07V74.33h18.75c9.2,0,14.21-3.27,14.21-9.67s-5-9.55-14.21-9.55Zm37,43.09c0-6.87-5.24-10.13-15-10.13h-22v20.15h22C543.44,108.22,548.68,105.19,548.68,98.2Zm26.9,16.19L582,100.18a47.94,47.94,0,0,0,26.91,8.51c11.18,0,15.72-3.73,15.72-8.74,0-15.26-47.4-4.77-47.4-35.06,0-13.86,11.18-25.39,34.36-25.39,10.25,0,20.73,2.45,28.3,7.22l-5.82,14.33a46.07,46.07,0,0,0-22.6-6.41C600.28,54.64,596,58.83,596,64c0,15,47.4,4.66,47.4,34.59,0,13.63-11.29,25.28-34.59,25.28C595.85,123.83,582.81,120,575.58,114.39Z"/><path class="cls-1" d="M201.05,137.31h2.7v8.77H215v-8.77h2.72V157H215v-8.45H203.75V157h-2.7Z"/><path class="cls-1" d="M237.12,138.47a9.83,9.83,0,0,1,3.75,3.6,9.61,9.61,0,0,1,1.38,5.05,9.75,9.75,0,0,1-1.38,5.07,9.89,9.89,0,0,1-3.75,3.65,10.87,10.87,0,0,1-10.42,0,10,10,0,0,1-3.75-3.65,9.84,9.84,0,0,1-1.37-5.07,9.69,9.69,0,0,1,1.37-5.05,10,10,0,0,1,3.74-3.6,11,11,0,0,1,10.43,0Zm-9,2.1a7.74,7.74,0,0,0-2.8,2.74,7.5,7.5,0,0,0,0,7.62,7.67,7.67,0,0,0,2.8,2.77,7.33,7.33,0,0,0,3.8,1,7.21,7.21,0,0,0,3.78-1,7.61,7.61,0,0,0,2.75-2.77,7.56,7.56,0,0,0,0-7.62,7.68,7.68,0,0,0-2.75-2.74,7.38,7.38,0,0,0-3.78-1A7.5,7.5,0,0,0,228.14,140.57Z"/><path class="cls-1" d="M246.12,137.31h3.21l7.19,13.82,7.13-13.82h3.23V157h-2.53l0-15.7-7,13.63h-1.66l-7-13.63V157h-2.5Z"/><path class="cls-1" d="M272.5,137.31h13.64v2.45H275.19v6.06H285v2.45h-9.8v6.26h11.29V157h-14Z"/><path class="cls-1" d="M304,138.62a4.27,4.27,0,0,1,1.73,3.61,4.39,4.39,0,0,1-.95,2.85,4.63,4.63,0,0,1-2.62,1.56,5.09,5.09,0,0,1,3.22,1.64,4.87,4.87,0,0,1,1.17,3.33,4.65,4.65,0,0,1-1.9,3.94,8.54,8.54,0,0,1-5.24,1.42h-8.54V137.31h8.4A7.68,7.68,0,0,1,304,138.62Zm-2,6.26a2.6,2.6,0,0,0,1-2.2,2.53,2.53,0,0,0-1-2.16,4.41,4.41,0,0,0-2.82-.73h-5.56v5.87h5.56A4.47,4.47,0,0,0,301.91,144.88Zm.61,8.79a2.76,2.76,0,0,0,1.23-2.4,2.67,2.67,0,0,0-1.23-2.33,6.06,6.06,0,0,0-3.43-.84h-5.56v6.4h5.56A5.83,5.83,0,0,0,302.52,153.67Z"/><path class="cls-1" d="M323.52,157l-3.9-6.17c-.45,0-.81,0-1.1,0h-5V157h-2.7V137.31h7.69A8.71,8.71,0,0,1,324.3,139a6.1,6.1,0,0,1,2,4.9,7,7,0,0,1-1.11,4,6.27,6.27,0,0,1-3.18,2.36l4.57,6.65Zm-5-8.56a6,6,0,0,0,3.88-1.11,4,4,0,0,0,1.35-3.27,3.84,3.84,0,0,0-1.35-3.19,6.08,6.08,0,0,0-3.88-1.08h-5v8.65Z"/><path class="cls-1" d="M331.13,137.31h2.7V157h-2.7Z"/><path class="cls-1" d="M352.63,138.59a9.36,9.36,0,0,1,3.64,3.53,10.19,10.19,0,0,1,0,10,9.51,9.51,0,0,1-3.67,3.53,10.67,10.67,0,0,1-5.22,1.27h-7.92V137.31h8A10.55,10.55,0,0,1,352.63,138.59Zm-1.4,15a7,7,0,0,0,2.64-2.64,7.34,7.34,0,0,0,1-3.76,7.43,7.43,0,0,0-1-3.79,7.13,7.13,0,0,0-2.69-2.65,7.43,7.43,0,0,0-3.77-1h-5.26v14.77h5.37A7.34,7.34,0,0,0,351.23,153.57Z"/><path class="cls-1" d="M374.41,147.37h2.39v7.22a12.08,12.08,0,0,1-3.48,1.88,11.82,11.82,0,0,1-4,.7,10.37,10.37,0,0,1-5.2-1.33,10,10,0,0,1-3.72-3.65,9.83,9.83,0,0,1-1.36-5.07,9.69,9.69,0,0,1,1.37-5.05,10,10,0,0,1,3.77-3.6,10.72,10.72,0,0,1,5.28-1.32,11.27,11.27,0,0,1,4,.73,10.6,10.6,0,0,1,3.38,2l-1.54,2a8.73,8.73,0,0,0-5.84-2.31,7.72,7.72,0,0,0-3.88,1,7.54,7.54,0,0,0-2.79,2.76,7.32,7.32,0,0,0-1,3.82,7.42,7.42,0,0,0,1,3.83,7.7,7.7,0,0,0,6.69,3.8,8.27,8.27,0,0,0,2.51-.4,9.26,9.26,0,0,0,2.37-1.14Z"/><path class="cls-1" d="M381.91,137.31h13.65v2.45H384.61v6.06h9.8v2.45h-9.8v6.26H395.9V157h-14Z"/><path class="cls-1" d="M421.41,138.47a10,10,0,0,1,3.75,3.6,9.61,9.61,0,0,1,1.38,5.05,9.75,9.75,0,0,1-1.38,5.07,10,10,0,0,1-3.75,3.65,10.87,10.87,0,0,1-10.42,0,10,10,0,0,1-3.75-3.65,9.75,9.75,0,0,1-1.37-5.07,9.6,9.6,0,0,1,1.37-5.05,10,10,0,0,1,3.74-3.6,11,11,0,0,1,10.43,0Zm-9,2.1a7.71,7.71,0,0,0-2.79,2.74,7.5,7.5,0,0,0,0,7.62,7.64,7.64,0,0,0,2.79,2.77,7.36,7.36,0,0,0,3.81,1,7.21,7.21,0,0,0,3.78-1,7.61,7.61,0,0,0,2.75-2.77,7.63,7.63,0,0,0,0-7.62,7.68,7.68,0,0,0-2.75-2.74,7.38,7.38,0,0,0-3.78-1A7.54,7.54,0,0,0,412.42,140.57Z"/><path class="cls-1" d="M434.19,153.2a5.53,5.53,0,0,0,4.14,1.53,5.45,5.45,0,0,0,4.1-1.53,5.86,5.86,0,0,0,1.49-4.26V137.31h2.7v11.63a8.13,8.13,0,0,1-2.21,6,8.24,8.24,0,0,1-6.08,2.19,8.34,8.34,0,0,1-6.12-2.19,8.09,8.09,0,0,1-2.22-6V137.31h2.7v11.63A5.83,5.83,0,0,0,434.19,153.2Z"/><path class="cls-1" d="M449.29,137.31h15.36v2.48H458.3V157h-2.7V139.79h-6.31Z"/><path class="cls-1" d="M488.9,138.47a10,10,0,0,1,3.75,3.6,9.69,9.69,0,0,1,1.37,5.05,9.84,9.84,0,0,1-1.37,5.07,10,10,0,0,1-3.75,3.65,10.87,10.87,0,0,1-10.42,0,10,10,0,0,1-3.75-3.65,9.75,9.75,0,0,1-1.38-5.07,9.61,9.61,0,0,1,1.38-5.05,10,10,0,0,1,3.73-3.6,11,11,0,0,1,10.44,0Zm-9,2.1a7.71,7.71,0,0,0-2.79,2.74,7.5,7.5,0,0,0,0,7.62,7.64,7.64,0,0,0,2.79,2.77,7.36,7.36,0,0,0,3.81,1,7.2,7.2,0,0,0,3.77-1,7.64,7.64,0,0,0,2.76-2.77,7.63,7.63,0,0,0,0-7.62,7.71,7.71,0,0,0-2.76-2.74,7.37,7.37,0,0,0-3.77-1A7.54,7.54,0,0,0,479.91,140.57Z"/><path class="cls-1" d="M497.9,137.31h12.8l0,2.45H500.59v6.46h9.08v2.44h-9.08V157H497.9Z"/><path class="cls-1" d="M518.68,137.31H534v2.48H527.7V157H525V139.79h-6.32Z"/><path class="cls-1" d="M537.13,137.31h2.7v8.77h11.23v-8.77h2.72V157h-2.72v-8.45H539.83V157h-2.7Z"/><path class="cls-1" d="M559.4,137.31h13.65v2.45H562.1v6.06h9.8v2.45h-9.8v6.26h11.29V157h-14Z"/><path class="cls-1" d="M598.23,138.62a4.27,4.27,0,0,1,1.73,3.61,4.35,4.35,0,0,1-1,2.85,4.64,4.64,0,0,1-2.61,1.56,5,5,0,0,1,3.21,1.64,4.87,4.87,0,0,1,1.17,3.33,4.63,4.63,0,0,1-1.9,3.94,8.53,8.53,0,0,1-5.23,1.42H585.1V137.31h8.4A7.68,7.68,0,0,1,598.23,138.62Zm-2.05,6.26a2.63,2.63,0,0,0,1-2.2,2.55,2.55,0,0,0-1-2.16,4.44,4.44,0,0,0-2.82-.73H587.8v5.87h5.56A4.5,4.5,0,0,0,596.18,144.88Zm.6,8.79a2.74,2.74,0,0,0,1.24-2.4,2.66,2.66,0,0,0-1.24-2.33,6,6,0,0,0-3.42-.84H587.8v6.4h5.56A5.78,5.78,0,0,0,596.78,153.67Z"/><path class="cls-1" d="M618.9,138.47a10,10,0,0,1,3.75,3.6,9.69,9.69,0,0,1,1.37,5.05,9.84,9.84,0,0,1-1.37,5.07,10,10,0,0,1-3.75,3.65,10.87,10.87,0,0,1-10.42,0,10,10,0,0,1-3.75-3.65,9.75,9.75,0,0,1-1.38-5.07,9.61,9.61,0,0,1,1.38-5.05,10,10,0,0,1,3.74-3.6,11,11,0,0,1,10.43,0Zm-9,2.1a7.71,7.71,0,0,0-2.79,2.74,7.5,7.5,0,0,0,0,7.62,7.64,7.64,0,0,0,2.79,2.77,7.36,7.36,0,0,0,3.81,1,7.2,7.2,0,0,0,3.77-1,7.64,7.64,0,0,0,2.76-2.77,7.63,7.63,0,0,0,0-7.62,7.71,7.71,0,0,0-2.76-2.74,7.37,7.37,0,0,0-3.77-1A7.54,7.54,0,0,0,609.91,140.57Z"/><path class="cls-1" d="M626.13,137.31h3.15l5.16,7.34,5.2-7.34h3.17l-6.65,9.44L643.37,157h-3.23l-5.7-7.95L628.8,157h-3.18l7.19-10.11Z"/></g><g id="Stroke"><line class="cls-2" x1="700.5" y1="60" x2="700.5" y2="140"/></g><g id="tplink"><g id="g3777"><path id="path3775" class="cls-3" d="M790.08,160.14a6.8,6.8,0,0,1-4.32-3.53l-.52-1-.11-12.75L785,130.13,772.17,130l-12.86-.11-1-.6a8,8,0,0,1-2.78-2.87c-.35-.65-.39-1.61-.39-11.92V103.31h56.71v56.93l-10.55,0C795.49,160.29,790.44,160.23,790.08,160.14Z"/><path id="path3761" class="cls-3" d="M821.07,129.11c-.06-.17-.09-5.84-.06-12.61l.06-12.31,6.26-.13c6.47-.15,7.17-.23,10.19-1.28,7.62-2.65,12.72-10.87,12.15-19.58-.59-9-5.88-15.4-14.25-17.29a26.83,26.83,0,0,0-8.67,0A19.76,19.76,0,0,0,811.6,80.56c-.28,1.1-.39,2.87-.47,7.53-.1,5.47-.14,6.1-.47,6.11-2,.06-24.54,0-24.6-.11s0-13.33.2-15.06A44.49,44.49,0,0,1,810.68,45,43.52,43.52,0,0,1,831,40.27a44.07,44.07,0,0,1,19.78,4.23A41.58,41.58,0,0,1,874,74.87c3.1,15.83-1.66,31.35-12.91,42.1a44.23,44.23,0,0,1-23.41,11.76c-2.14.38-3.76.48-9.55.57s-7,.06-7.09-.19Z"/></g><g id="g3781"><path id="path3773" class="cls-4" d="M916.46,142.78a2.9,2.9,0,0,1-.88-.67c-.44-.48-.44-.8-.44-19.46v-19l1.12-1.29a22.65,22.65,0,0,1,10.42-6.27,16.36,16.36,0,0,1,5.05-.5c3.74,0,5,.28,8,1.76,7.32,3.61,11,12.11,8.81,20.47a16.54,16.54,0,0,1-13.41,12,36.6,36.6,0,0,1-5.31.34c-3.11,0-3.39,0-3.6-.43a20.29,20.29,0,0,1,0-6c.21-.39.49-.43,3.48-.43,4.46,0,6.25-.55,8.43-2.59a11,11,0,0,0,.54-14.93,9.74,9.74,0,0,0-8.78-2.9,11.39,11.39,0,0,0-6.06,2.94l-.91,1v17.76c0,13.53-.06,17.83-.26,18s-5.5.35-6.22.06Z"/><path id="path3771" class="cls-4" d="M898.15,129.9a10.49,10.49,0,0,1-4.6-2.18,10,10,0,0,1-2.69-5.51c-.24-1.68-.32-31.7-.09-32.3.17-.45,7.05-3.92,7.46-3.76.24.09.32,1.11.36,5l.06,4.9,4.67.06c5.5.07,4.94-.38,4.85,3.9l-.07,2.85-4.72.12c-2.6.07-4.76.14-4.79.17s0,4,0,8.89c.06,8.41.08,8.88.51,9.61a3.69,3.69,0,0,0,1.42,1.27c.92.46,1.24.49,5.5.49,3.22,0,4.6.08,4.79.27s.26,1.19.26,3.14-.08,3-.26,3.14c-.39.39-10.81.33-12.66-.07Z"/><path id="path3769" class="cls-4" d="M975.26,129.67l-.67-.57V84.62l3.54-1.82A20.86,20.86,0,0,1,982,81.09c.25.1.3,4,.3,24.5,0,22,0,24.39-.35,24.51a21.45,21.45,0,0,1-3.17.14c-2.71,0-2.84,0-3.5-.57Z"/><path id="path3767" class="cls-4" d="M990.7,130c-1.21-.49-1.17.15-1.11-17.49l0-16.24h7.48l0,16.8c.05,13.29,0,16.83-.22,17A26.73,26.73,0,0,1,990.7,130Z"/><path id="path3765" class="cls-4" d="M1005.6,129.93c-1.12-.62-1.1-.44-1.11-14.05,0-10.58,0-12.8.3-13.29a19.61,19.61,0,0,1,4.14-4,25.78,25.78,0,0,1,6.43-2.91,22.43,22.43,0,0,1,8.79-.11,16.06,16.06,0,0,1,11.76,11.67c.41,1.61.44,2.43.44,12.22,0,9.36,0,10.5-.35,10.62-.68.26-6.8.15-7.08-.13s-.26-2.74-.26-10.09c0-9.16,0-9.91-.44-11.22a8.11,8.11,0,0,0-7.58-6.06,9.66,9.66,0,0,0-7.4,2.52l-.85.77v11.75c0,7.68-.08,11.89-.23,12.17s-.48.42-3.13.42A10.59,10.59,0,0,1,1005.6,129.93Z"/><path id="path3763" class="cls-4" d="M1044.33,130c-1.23-.49-1.18.68-1.11-23.31l0-22.07,3.67-1.86a19,19,0,0,1,3.85-1.69c.09.1.22,6.72.28,14.72l.11,14.55,6-7.09,6-7.09h4.38c3.64,0,4.38,0,4.38.31s-3,3.75-6.71,7.94-6.69,7.75-6.65,7.9,3.42,4.06,7.51,8.69,7.46,8.57,7.48,8.76-.5.36-4.44.42l-4.45.05-.49-.53c-.27-.29-3.26-3.9-6.64-8s-6.23-7.49-6.32-7.5-.17,3.41-.17,7.59a66.63,66.63,0,0,1-.22,8c-.21.39-.48.42-3.14.41a19.22,19.22,0,0,1-3.38-.21Z"/><path id="path3759" class="cls-4" d="M957.83,116.66a44.46,44.46,0,0,1-3.36-7.24c.08-.23,1.46-.28,6.87-.23l6.76.06.07,3.72c0,2.83,0,3.76-.22,3.89a40.2,40.2,0,0,1-5,.19C958.67,117.05,958.14,117,957.83,116.66Z"/><path id="path2987" class="cls-4" d="M989.38,88.37c-.75-.53-1.23-2.09-1.12-3.62a4.69,4.69,0,0,1,2.47-3.85,3.81,3.81,0,0,1,2.63-.66,4.88,4.88,0,0,1,3.91,1.57,5.11,5.11,0,0,1,.23,6.5c-.3.34-.79.39-4,.39-2.89,0-3.75-.07-4.12-.33Z"/></g></g></svg>