<svg xmlns="http://www.w3.org/2000/svg" viewBox="0 0 1400 200"><defs><style>.cls-1{fill:#feb400;}.cls-2{fill:none;stroke:#5f5f60;stroke-miterlimit:10;}.cls-3{fill:#363635;}.cls-4,.cls-6{fill:#ccc;}.cls-5{fill:#4c7abe;}.cls-6{font-size:76.33px;font-family:Helvetica-Bold, Helvetica;font-weight:700;}</style></defs><title>HOOBS_x_ecoplugs</title><g id="HOOBS_LOGO" data-name="HOOBS LOGO"><path class="cls-1" d="M152.1,39.5H77.79A22.36,22.36,0,0,0,55.63,61.92v75.16A22.36,22.36,0,0,0,77.79,159.5H152.1a22.36,22.36,0,0,0,22.16-22.42V61.92A22.36,22.36,0,0,0,152.1,39.5Zm3,57.94a3.11,3.11,0,0,1-2.65,2.53,2.6,2.6,0,0,1-3.1-1.4c-1.22-3.28-3.9-5.27-6.23-7.51a8.46,8.46,0,0,1-2.91-7.15c.14-1.83,0-3.69,0-5.53h0c0-2.46,0-4.92,0-7.38,0-2.23-1.38-2.65-3.19-2.61s-3.9-.31-4,2.45c-.1,2.23,0,4.46-.08,6.69,0,.73.37,1.78-.35,2.14s-1.23-.67-1.74-1.16c-4.88-4.62-9.77-9.23-14.57-13.94-1.48-1.45-2.59-1.42-4,0q-15.85,16.1-31.81,32.1c-1.39,1.39-1.57,2.51,0,3.79.35.3.64.66,1,1,2.09,2.07,2.41,2,4.64-.06C93,95,99.53,88.09,106.27,81.43c1.41-1.39,2.91-2.7,4.35-4.06,2.71-2.57,5.82-2.66,8.51-.05,2.91,2.82,5.7,5.76,8.57,8.62,5.31,5.28,10.67,10.51,16,15.81,3.49,3.48,3.44,6.58,0,10.12-5.42,5.51-7.54,5.49-13,0-4.76-4.75-9.64-9.38-14.39-14.14-1.49-1.5-2.61-1.35-4,.1q-7.6,7.8-15.34,15.48c-1.35,1.33-1.35,2.43,0,3.68.5.47,1,.95,1.45,1.47,1.22,1.37,2.35,1.36,3.67,0,2.7-2.7,5.48-5.32,8.23-8s6-2.78,8.74-.2q4.59,4.32,9,8.83a5.89,5.89,0,0,1,0,8.48c-2,2.19-4.18,4.25-6.27,6.38a12.38,12.38,0,0,0-3.29,4.33,2.74,2.74,0,0,1-3.12,1.82,3,3,0,0,1-2.73-2.41,3.1,3.1,0,0,1,1.61-3.71c4.35-2.08,6.84-6.22,10.3-9.28a1.59,1.59,0,0,0,0-2.6c-2.75-2.76-5.49-5.53-8.25-8.28-1.11-1.12-2.13-.82-3.16.2-2.73,2.67-5.51,5.3-8.24,8s-5.82,2.83-8.75.39c-.76-.64-1.45-1.37-2.14-2.08-3.52-3.61-3.54-6.78,0-10.34q7.74-7.83,15.5-15.64c3.3-3.31,6.41-3.34,9.74-.08Q127,102,134.8,109.74c2.23,2.18,2.48,2.15,5.12-.54,2.23-2.28,2.26-2.62.05-4.83-7.74-7.72-15.51-15.4-23.22-23.15-1.31-1.32-2.34-1.41-3.65-.11-3.57,3.56-7.18,7.08-10.77,10.62q-7.11,7-14.23,14a5.85,5.85,0,0,1-8.58.2c-5.65-5.14-7-7.85-.5-14.2,10.21-9.89,20.08-20.14,30.09-30.24,3.58-3.6,6.67-3.61,10.25-.1,2.46,2.4,5,4.74,7.44,7.14,1,1,1.69,1.58,2.23-.45a5.07,5.07,0,0,1,4.41-3.82,22.64,22.64,0,0,1,2.72-.31c6.33-.17,8.55,2,8.57,8.43,0,3.85,0,7.69,0,11.54a4.59,4.59,0,0,0,1.57,3.87c2.46,2.13,4.24,5,7.44,6.32A2.8,2.8,0,0,1,155.13,97.44Z"/><path class="cls-1" d="M276.93,40.9v81.53H258.06V89H221v33.43H202.15V40.9H221V73h37V40.9Zm14.21,40.76c0-24.22,18.87-42.16,44.61-42.16s44.61,17.82,44.61,42.16-19,42.17-44.61,42.17S291.14,105.89,291.14,81.66Zm70.12,0c0-15.49-10.95-26.09-25.51-26.09s-25.51,10.6-25.51,26.09,10.95,26.1,25.51,26.1S361.26,97.15,361.26,81.66Zm28.19,0c0-24.22,18.87-42.16,44.61-42.16s44.61,17.82,44.61,42.16-19,42.17-44.61,42.17S389.45,105.89,389.45,81.66Zm70.12,0c0-15.49-10.95-26.09-25.51-26.09s-25.51,10.6-25.51,26.09,10.95,26.1,25.51,26.1S459.57,97.15,459.57,81.66Zm108.09,18.52c0,14.1-11.18,22.25-32.61,22.25H492.88V40.9h39.84c20.38,0,30.87,8.5,30.87,21.2A19.59,19.59,0,0,1,552.75,80C561.84,82.94,567.66,89.93,567.66,100.18Zm-56-45.07V74.33h18.75c9.2,0,14.21-3.27,14.21-9.67s-5-9.55-14.21-9.55Zm37,43.09c0-6.87-5.24-10.13-15-10.13h-22v20.15h22C543.44,108.22,548.68,105.19,548.68,98.2Zm26.9,16.19L582,100.18a47.94,47.94,0,0,0,26.91,8.51c11.18,0,15.72-3.73,15.72-8.74,0-15.26-47.4-4.77-47.4-35.06,0-13.86,11.18-25.39,34.36-25.39,10.25,0,20.73,2.45,28.3,7.22l-5.82,14.33a46.07,46.07,0,0,0-22.6-6.41C600.28,54.64,596,58.83,596,64c0,15,47.4,4.66,47.4,34.59,0,13.63-11.29,25.28-34.59,25.28C595.85,123.83,582.81,120,575.58,114.39Z"/><path class="cls-1" d="M201.05,137.31h2.7v8.77H215v-8.77h2.72V157H215v-8.45H203.75V157h-2.7Z"/><path class="cls-1" d="M237.12,138.47a9.83,9.83,0,0,1,3.75,3.6,9.61,9.61,0,0,1,1.38,5.05,9.75,9.75,0,0,1-1.38,5.07,9.89,9.89,0,0,1-3.75,3.65,10.87,10.87,0,0,1-10.42,0,10,10,0,0,1-3.75-3.65,9.84,9.84,0,0,1-1.37-5.07,9.69,9.69,0,0,1,1.37-5.05,10,10,0,0,1,3.74-3.6,11,11,0,0,1,10.43,0Zm-9,2.1a7.74,7.74,0,0,0-2.8,2.74,7.5,7.5,0,0,0,0,7.62,7.67,7.67,0,0,0,2.8,2.77,7.33,7.33,0,0,0,3.8,1,7.21,7.21,0,0,0,3.78-1,7.61,7.61,0,0,0,2.75-2.77,7.56,7.56,0,0,0,0-7.62,7.68,7.68,0,0,0-2.75-2.74,7.38,7.38,0,0,0-3.78-1A7.5,7.5,0,0,0,228.14,140.57Z"/><path class="cls-1" d="M246.12,137.31h3.21l7.19,13.82,7.13-13.82h3.23V157h-2.53l0-15.7-7,13.63h-1.66l-7-13.63V157h-2.5Z"/><path class="cls-1" d="M272.5,137.31h13.64v2.45H275.19v6.06H285v2.45h-9.8v6.26h11.29V157h-14Z"/><path class="cls-1" d="M304,138.62a4.27,4.27,0,0,1,1.73,3.61,4.39,4.39,0,0,1-.95,2.85,4.63,4.63,0,0,1-2.62,1.56,5.09,5.09,0,0,1,3.22,1.64,4.87,4.87,0,0,1,1.17,3.33,4.65,4.65,0,0,1-1.9,3.94,8.54,8.54,0,0,1-5.24,1.42h-8.54V137.31h8.4A7.68,7.68,0,0,1,304,138.62Zm-2,6.26a2.6,2.6,0,0,0,1-2.2,2.53,2.53,0,0,0-1-2.16,4.41,4.41,0,0,0-2.82-.73h-5.56v5.87h5.56A4.47,4.47,0,0,0,301.91,144.88Zm.61,8.79a2.76,2.76,0,0,0,1.23-2.4,2.67,2.67,0,0,0-1.23-2.33,6.06,6.06,0,0,0-3.43-.84h-5.56v6.4h5.56A5.83,5.83,0,0,0,302.52,153.67Z"/><path class="cls-1" d="M323.52,157l-3.9-6.17c-.45,0-.81,0-1.1,0h-5V157h-2.7V137.31h7.69A8.71,8.71,0,0,1,324.3,139a6.1,6.1,0,0,1,2,4.9,7,7,0,0,1-1.11,4,6.27,6.27,0,0,1-3.18,2.36l4.57,6.65Zm-5-8.56a6,6,0,0,0,3.88-1.11,4,4,0,0,0,1.35-3.27,3.84,3.84,0,0,0-1.35-3.19,6.08,6.08,0,0,0-3.88-1.08h-5v8.65Z"/><path class="cls-1" d="M331.13,137.31h2.7V157h-2.7Z"/><path class="cls-1" d="M352.63,138.59a9.36,9.36,0,0,1,3.64,3.53,10.19,10.19,0,0,1,0,10,9.51,9.51,0,0,1-3.67,3.53,10.67,10.67,0,0,1-5.22,1.27h-7.92V137.31h8A10.55,10.55,0,0,1,352.63,138.59Zm-1.4,15a7,7,0,0,0,2.64-2.64,7.34,7.34,0,0,0,1-3.76,7.43,7.43,0,0,0-1-3.79,7.13,7.13,0,0,0-2.69-2.65,7.43,7.43,0,0,0-3.77-1h-5.26v14.77h5.37A7.34,7.34,0,0,0,351.23,153.57Z"/><path class="cls-1" d="M374.41,147.37h2.39v7.22a12.08,12.08,0,0,1-3.48,1.88,11.82,11.82,0,0,1-4,.7,10.37,10.37,0,0,1-5.2-1.33,10,10,0,0,1-3.72-3.65,9.83,9.83,0,0,1-1.36-5.07,9.69,9.69,0,0,1,1.37-5.05,10,10,0,0,1,3.77-3.6,10.72,10.72,0,0,1,5.28-1.32,11.27,11.27,0,0,1,4,.73,10.6,10.6,0,0,1,3.38,2l-1.54,2a8.73,8.73,0,0,0-5.84-2.31,7.72,7.72,0,0,0-3.88,1,7.54,7.54,0,0,0-2.79,2.76,7.32,7.32,0,0,0-1,3.82,7.42,7.42,0,0,0,1,3.83,7.7,7.7,0,0,0,6.69,3.8,8.27,8.27,0,0,0,2.51-.4,9.26,9.26,0,0,0,2.37-1.14Z"/><path class="cls-1" d="M381.91,137.31h13.65v2.45H384.61v6.06h9.8v2.45h-9.8v6.26H395.9V157h-14Z"/><path class="cls-1" d="M421.41,138.47a10,10,0,0,1,3.75,3.6,9.61,9.61,0,0,1,1.38,5.05,9.75,9.75,0,0,1-1.38,5.07,10,10,0,0,1-3.75,3.65,10.87,10.87,0,0,1-10.42,0,10,10,0,0,1-3.75-3.65,9.75,9.75,0,0,1-1.37-5.07,9.6,9.6,0,0,1,1.37-5.05,10,10,0,0,1,3.74-3.6,11,11,0,0,1,10.43,0Zm-9,2.1a7.71,7.71,0,0,0-2.79,2.74,7.5,7.5,0,0,0,0,7.62,7.64,7.64,0,0,0,2.79,2.77,7.36,7.36,0,0,0,3.81,1,7.21,7.21,0,0,0,3.78-1,7.61,7.61,0,0,0,2.75-2.77,7.63,7.63,0,0,0,0-7.62,7.68,7.68,0,0,0-2.75-2.74,7.38,7.38,0,0,0-3.78-1A7.54,7.54,0,0,0,412.42,140.57Z"/><path class="cls-1" d="M434.19,153.2a5.53,5.53,0,0,0,4.14,1.53,5.45,5.45,0,0,0,4.1-1.53,5.86,5.86,0,0,0,1.49-4.26V137.31h2.7v11.63a8.13,8.13,0,0,1-2.21,6,8.24,8.24,0,0,1-6.08,2.19,8.34,8.34,0,0,1-6.12-2.19,8.09,8.09,0,0,1-2.22-6V137.31h2.7v11.63A5.83,5.83,0,0,0,434.19,153.2Z"/><path class="cls-1" d="M449.29,137.31h15.36v2.48H458.3V157h-2.7V139.79h-6.31Z"/><path class="cls-1" d="M488.9,138.47a10,10,0,0,1,3.75,3.6,9.69,9.69,0,0,1,1.37,5.05,9.84,9.84,0,0,1-1.37,5.07,10,10,0,0,1-3.75,3.65,10.87,10.87,0,0,1-10.42,0,10,10,0,0,1-3.75-3.65,9.75,9.75,0,0,1-1.38-5.07,9.61,9.61,0,0,1,1.38-5.05,10,10,0,0,1,3.73-3.6,11,11,0,0,1,10.44,0Zm-9,2.1a7.71,7.71,0,0,0-2.79,2.74,7.5,7.5,0,0,0,0,7.62,7.64,7.64,0,0,0,2.79,2.77,7.36,7.36,0,0,0,3.81,1,7.2,7.2,0,0,0,3.77-1,7.64,7.64,0,0,0,2.76-2.77,7.63,7.63,0,0,0,0-7.62,7.71,7.71,0,0,0-2.76-2.74,7.37,7.37,0,0,0-3.77-1A7.54,7.54,0,0,0,479.91,140.57Z"/><path class="cls-1" d="M497.9,137.31h12.8l0,2.45H500.59v6.46h9.08v2.44h-9.08V157H497.9Z"/><path class="cls-1" d="M518.68,137.31H534v2.48H527.7V157H525V139.79h-6.32Z"/><path class="cls-1" d="M537.13,137.31h2.7v8.77h11.23v-8.77h2.72V157h-2.72v-8.45H539.83V157h-2.7Z"/><path class="cls-1" d="M559.4,137.31h13.65v2.45H562.1v6.06h9.8v2.45h-9.8v6.26h11.29V157h-14Z"/><path class="cls-1" d="M598.23,138.62a4.27,4.27,0,0,1,1.73,3.61,4.35,4.35,0,0,1-1,2.85,4.64,4.64,0,0,1-2.61,1.56,5,5,0,0,1,3.21,1.64,4.87,4.87,0,0,1,1.17,3.33,4.63,4.63,0,0,1-1.9,3.94,8.53,8.53,0,0,1-5.23,1.42H585.1V137.31h8.4A7.68,7.68,0,0,1,598.23,138.62Zm-2.05,6.26a2.63,2.63,0,0,0,1-2.2,2.55,2.55,0,0,0-1-2.16,4.44,4.44,0,0,0-2.82-.73H587.8v5.87h5.56A4.5,4.5,0,0,0,596.18,144.88Zm.6,8.79a2.74,2.74,0,0,0,1.24-2.4,2.66,2.66,0,0,0-1.24-2.33,6,6,0,0,0-3.42-.84H587.8v6.4h5.56A5.78,5.78,0,0,0,596.78,153.67Z"/><path class="cls-1" d="M618.9,138.47a10,10,0,0,1,3.75,3.6,9.69,9.69,0,0,1,1.37,5.05,9.84,9.84,0,0,1-1.37,5.07,10,10,0,0,1-3.75,3.65,10.87,10.87,0,0,1-10.42,0,10,10,0,0,1-3.75-3.65,9.75,9.75,0,0,1-1.38-5.07,9.61,9.61,0,0,1,1.38-5.05,10,10,0,0,1,3.74-3.6,11,11,0,0,1,10.43,0Zm-9,2.1a7.71,7.71,0,0,0-2.79,2.74,7.5,7.5,0,0,0,0,7.62,7.64,7.64,0,0,0,2.79,2.77,7.36,7.36,0,0,0,3.81,1,7.2,7.2,0,0,0,3.77-1,7.64,7.64,0,0,0,2.76-2.77,7.63,7.63,0,0,0,0-7.62,7.71,7.71,0,0,0-2.76-2.74,7.37,7.37,0,0,0-3.77-1A7.54,7.54,0,0,0,609.91,140.57Z"/><path class="cls-1" d="M626.13,137.31h3.15l5.16,7.34,5.2-7.34h3.17l-6.65,9.44L643.37,157h-3.23l-5.7-7.95L628.8,157h-3.18l7.19-10.11Z"/></g><g id="Stroke"><line class="cls-2" x1="700.5" y1="60" x2="700.5" y2="140"/></g><g id="ecoplugs"><path class="cls-3" d="M905.64,62.94c-2.93-3-5.59-6.44-9.61-8.47a86.39,86.39,0,0,0-32.42-9.42h0a59.7,59.7,0,0,0-20.73-.47,13.21,13.21,0,0,0-2.65.52c-3.18-.49-6,.66-8.67,2.11-1.94.28-3.89.54-4.54,3.26,2.74.3,4.94-.7,7.12-1.82h0l1.86-.29a4.56,4.56,0,0,1,1-.34l-1,.34,20.69,0c2.49.47,5,.81,7.45,1.44,10.44,2.71,20.84,5.53,28.56,13.86,1,2.53.43,5.07,0,7.61-1.81,3.74-6.53,2.45-8.94,5.15a1.73,1.73,0,0,1-.33.47l.33-.47c-2.21.35-4.55.07-6.58,1.31h0l-2,.16a13.61,13.61,0,0,0-7,.61,35.87,35.87,0,0,0,14.74.61,7,7,0,0,0,4.23-.32c1.92.06,3.85.15,5.59-.92h0a17.43,17.43,0,0,0,8.65-2.72C906.93,72.05,909,66.41,905.64,62.94ZM846.93,45.28l-.07.08-.1-.08Z"/><path class="cls-3" d="M875.76,68c.52-3.13-1.92-5.09-4.28-6.37a38,38,0,0,0-12.63-4.35L854.72,56c-4.68-1.79-9.5-1.23-14.31-.86-2.5-.44-4.54.6-7.69,1.92H848l1.11,0c3.18,1,6.3,2.33,9.75,2.14,1.72,1.14,3.29,2.83,5.18,3.33,4.61,1.21,4.61,4,3.35,7.59-1.93,1.17-3.86,2.34-6.23,2.36l-5.39.08h-7c2.08,2.61,4.62,1.93,7,1.9h0c3.64,0,7.38,1,10.87-.87l3.26-1C872.82,72.32,875.26,71,875.76,68Z"/><path class="cls-3" d="M857.74,77.3c2.57.22,5.11,3.13,8.24-.1C862.9,76.68,860.33,76.51,857.74,77.3Z"/><path class="cls-4" d="M796.54,119.34c-7.62-.06-15.24.09-22.86-.07-3-.06-4.23.94-4.1,4,.42,10.71-.86,21.35-1.51,32-.17,2.68.65,3.13,2.87,3.09,4-.07,8,0,12,0,4.35,0,8.71-.07,13.06,0,3,.06,3-2,2.95-4.05,0-2.53-1.62-2.1-3.4-2-4.51.28-9,.32-13.58.38-2.16,0-4.92.33-3.83-3.26.82-2.71-2.31-7.63,4-7.51,3.62.08,7.26-.06,10.88,0,2.3.06,3.79-.34,3.89-3.16s-1.32-3.33-3.67-3.26c-3.44.09-6.9.13-10.34,0-1.75-.06-5,.77-4-2.44.76-2.64-1.82-7.73,4.33-7.5,4.35.16,8.72-.1,13.06.09,2.69.11,3.93-.68,4.19-3.52C800.72,118.78,798.42,119.35,796.54,119.34Z"/><path class="cls-4" d="M839.22,119.57c-9.13-.59-18.53-2-26.25,5a7.4,7.4,0,0,0-3.18,3.23h0a8.26,8.26,0,0,0-3.25,6.64,13.71,13.71,0,0,0,0,10.93h0a8.81,8.81,0,0,0,2.34,5.92c5.21,6.63,22.2,10.54,29.65,6.88,2.09-1,2-2.94,1.77-4.68-.26-2.21-2.1-1.66-3.39-1.28a26,26,0,0,1-9.69.66c-5-.44-9.34-2.56-11.09-7.43-1.83-5.09-1.69-10.21,2.23-14.75,5.48-6.34,12.62-5.19,19.64-4.77,1.51.09,3.4,1.4,3.46-1.49C841.5,122.45,841.87,119.74,839.22,119.57Z"/><path class="cls-4" d="M894.67,137.45c-.63-8.94-6-15.47-15.18-17.57a32.58,32.58,0,0,0-21.28,1.79c-7.71,3.53-11.54,9.56-11.48,18.88-.37,7.46,3.55,13,11,16.19A31.33,31.33,0,0,0,882,157,19.59,19.59,0,0,0,894.67,137.45ZM871,152.91c-9.22-.21-15.41-5.67-15.16-13.39.28-8.51,7-14.76,15.64-14.64,8.14.12,13.55,6.1,13.67,14.32C885.2,146.13,878.17,153.73,871,152.91Z"/><path class="cls-5" d="M809.89,54.94l-.07.07h.1v-.08h-.08s0,0,0,.08Z"/><path class="cls-5" d="M841.66,69.7c-2.34-.23-3.24,1.88-4.7,3.08a1.9,1.9,0,0,0-.29.46h0c-1.71.77-3.66,1.14-4.32-1-1.15-3.69,3.34-3.77,4.8-7-4.32.93-7.95,4-12.14,2.13,0,0-.58,1.14-.89,1.74-.64.9-1.56,1.67-1.32,3a15.33,15.33,0,0,0-.43,2.48c-.24,1.39-.48,2.79-.71,4.18h0c-1.57,1.08-.35,3.46-2.07,4.47h0c-3.57,1.82-7.13,3.64-10.11,6.37h0c-3.37,1.27-6.79,2.26-10,4.12A13.32,13.32,0,0,1,790,95.2C776.52,92.67,767.73,85,764.21,72,760.86,59.5,765.66,46.07,782.33,48a109.21,109.21,0,0,1,14.16,2.72l4.64,2h0a10.38,10.38,0,0,0,8.7,2.23c.28-3.11-2.57-3.35-4.31-4.6,2.05-4.79-.69-5.38-4.45-5.07h0c-3.2-1.24-5.85-4.09-9.73-3.38h0c-5.37-1.61-10.82-3-16.45-2-12,2.2-17.76,9.56-18.36,20.53-1.46,1.8-1.65,3.62-.11,5.48h0c.29,1.08-.67,2.38.6,3.29-.2,1.84-.81,3.71.53,5.39.67,1.46,1.41,2.89,2,4.38,4.83,12.06,13.88,19,26.41,21.59,2.49,1.65,5,1.23,7.59.17h0l.49.15.52-.07c2.27,1.2,4.21.55,6-1.09h0c4.43-1.2,8.54-2.86,10.52-7.51,2,.22,4,0,5.36-1.71,4.05-5,9.24-6.86,15.63-6.18a8.38,8.38,0,0,0,6.68-2.91c1.86-2-.84-3.29-1.84-4.85-.51-.81.53-1.52,1.31-2a6.09,6.09,0,0,0,4.25-3.7C842.54,70.63,842,69.73,841.66,69.7Zm-17.14,8.9-.16,0a2.45,2.45,0,0,0,.53-.78c.46-1.66.41-3.38.71-5.06a1.84,1.84,0,0,0-.09-.67c2.78,1.63,5.42,3.38,6,7.06A9.77,9.77,0,0,1,824.52,78.6Z"/><path class="cls-5" d="M810.1,57c1.79,1.72,4.07,2.58,6.3,3.49.55.88,1.17,2.12,2.3,1.63s.45-1.32-.33-1.83h0c-.79-3.12-3.2-4-6-4.32-.51-1.12-1.49-1-2.44-1l.18,2Z"/><text class="cls-6" transform="translate(933.07 134.4)">PLUGS</text></g></svg>